<svg width="32" height="33" viewBox="0 0 32 33" fill="none" xmlns="http://www.w3.org/2000/svg">
<path d="M5.33398 29.8334H24.0007C24.7079 29.8334 25.3862 29.5524 25.8863 29.0523C26.3864 28.5522 26.6673 27.8739 26.6673 27.1667V10.5L19.334 3.16669H8.00065C7.29341 3.16669 6.61513 3.44764 6.11503 3.94774C5.61494 4.44783 5.33398 5.12611 5.33398 5.83335V11.1667" stroke="#A3A3A3" stroke-width="2" stroke-linecap="round" stroke-linejoin="round"/>
<path d="M18.666 3.16669V11.1667H26.666" stroke="#A3A3A3" stroke-width="2" stroke-linecap="round" stroke-linejoin="round"/>
<path d="M3.95312 23.5H2.59082V18.209H0.846191V17.0752H5.69775V18.209H3.95312V23.5ZM11.8809 23.5H10.3252L8.83105 21.0698L7.33691 23.5H5.87793L8.00928 20.1865L6.01416 17.0752H7.51709L8.90137 19.3867L10.2593 17.0752H11.7271L9.70996 20.2612L11.8809 23.5ZM15.168 23.5H13.8057V18.209H12.061V17.0752H16.9126V18.209H15.168V23.5Z" fill="#A3A3A3"/>
</svg>
