<svg width="20" height="20" viewBox="0 0 20 20" fill="none" xmlns="http://www.w3.org/2000/svg">
<path d="M12.0827 3.33331H7.91602L5.83268 5.83331H3.33268C2.89065 5.83331 2.46673 6.00891 2.15417 6.32147C1.84161 6.63403 1.66602 7.05795 1.66602 7.49998V15C1.66602 15.442 1.84161 15.8659 2.15417 16.1785C2.46673 16.4911 2.89065 16.6666 3.33268 16.6666H16.666C17.108 16.6666 17.532 16.4911 17.8445 16.1785C18.1571 15.8659 18.3327 15.442 18.3327 15V7.49998C18.3327 7.05795 18.1571 6.63403 17.8445 6.32147C17.532 6.00891 17.108 5.83331 16.666 5.83331H14.166L12.0827 3.33331Z" stroke="white" stroke-width="2" stroke-linecap="round" stroke-linejoin="round"/>
<path d="M10 13.3333C11.3807 13.3333 12.5 12.214 12.5 10.8333C12.5 9.4526 11.3807 8.33331 10 8.33331C8.61929 8.33331 7.5 9.4526 7.5 10.8333C7.5 12.214 8.61929 13.3333 10 13.3333Z" stroke="white" stroke-width="2" stroke-linecap="round" stroke-linejoin="round"/>
</svg>
