<svg width="12" height="11" viewBox="0 0 12 11" fill="none" xmlns="http://www.w3.org/2000/svg">
<path d="M2.80006 10.44H2.16006L2.54406 9.92795C2.80006 9.57595 2.96006 9.12795 3.05606 8.58395C1.45606 7.84795 0.560059 6.47195 0.560059 4.67995C0.560059 1.92795 2.64006 0.199951 6.00006 0.199951C9.36006 0.199951 11.4401 1.92795 11.4401 4.67995C11.4401 7.49595 9.39206 9.15995 6.00006 9.15995H5.77606C5.26406 9.76795 4.36806 10.44 2.80006 10.44ZM6.00006 0.839951C2.99206 0.839951 1.20006 2.27995 1.20006 4.67995C1.20006 6.72795 2.44806 7.68795 3.50406 8.10395L3.72806 8.19995L3.69606 8.45595C3.63206 8.96795 3.53606 9.41595 3.34406 9.79995C4.40006 9.67195 5.00806 9.12795 5.36006 8.67995L5.45606 8.55195H6.00006C10.3201 8.55195 10.8001 5.86395 10.8001 4.71195C10.8001 2.27995 9.00806 0.839951 6.00006 0.839951Z" fill="#A3A3A3"/>
</svg>
