<svg width="32" height="33" viewBox="0 0 32 33" fill="none" xmlns="http://www.w3.org/2000/svg">
<path d="M5.33398 29.8334H24.0007C24.7079 29.8334 25.3862 29.5524 25.8863 29.0523C26.3864 28.5522 26.6673 27.8739 26.6673 27.1667V10.5L19.334 3.16669H8.00065C7.29341 3.16669 6.61513 3.44764 6.11503 3.94774C5.61494 4.44783 5.33398 5.12611 5.33398 5.83335V11.1667" stroke="#036BFE" stroke-width="2" stroke-linecap="round" stroke-linejoin="round"/>
<path d="M18.666 3.16669V11.1667H26.666" stroke="#036BFE" stroke-width="2" stroke-linecap="round" stroke-linejoin="round"/>
<path d="M6.80518 20.2261C6.80518 20.9497 6.66602 21.5547 6.3877 22.041C6.1123 22.5244 5.7124 22.8892 5.18799 23.1353C4.66357 23.3784 4.03223 23.5 3.29395 23.5H1.47461V17.0752H3.4917C4.16553 17.0752 4.75 17.1953 5.24512 17.4355C5.74023 17.6729 6.12402 18.0259 6.39648 18.4946C6.66895 18.9604 6.80518 19.5376 6.80518 20.2261ZM5.39014 20.2612C5.39014 19.7866 5.31982 19.397 5.1792 19.0923C5.0415 18.7847 4.83643 18.5576 4.56396 18.4111C4.29443 18.2646 3.96045 18.1914 3.56201 18.1914H2.83691V22.375H3.42139C4.08643 22.375 4.58008 22.1978 4.90234 21.8433C5.22754 21.4888 5.39014 20.9614 5.39014 20.2612ZM13.9683 20.2788C13.9683 20.7739 13.9067 21.2251 13.7837 21.6323C13.6606 22.0366 13.4731 22.3853 13.2212 22.6782C12.9722 22.9712 12.6558 23.1968 12.272 23.355C11.8882 23.5103 11.4341 23.5879 10.9097 23.5879C10.3853 23.5879 9.93115 23.5103 9.54736 23.355C9.16357 23.1968 8.8457 22.9712 8.59375 22.6782C8.34473 22.3853 8.15869 22.0352 8.03564 21.6279C7.9126 21.2207 7.85107 20.7681 7.85107 20.27C7.85107 19.605 7.95947 19.0264 8.17627 18.5342C8.396 18.0391 8.73291 17.6553 9.18701 17.3828C9.64111 17.1104 10.2183 16.9741 10.9185 16.9741C11.6157 16.9741 12.1885 17.1104 12.6367 17.3828C13.0879 17.6553 13.4219 18.0391 13.6387 18.5342C13.8584 19.0293 13.9683 19.6108 13.9683 20.2788ZM9.2793 20.2788C9.2793 20.7271 9.33496 21.1138 9.44629 21.439C9.56055 21.7612 9.73779 22.0103 9.97803 22.186C10.2183 22.3589 10.5288 22.4453 10.9097 22.4453C11.2964 22.4453 11.6099 22.3589 11.8501 22.186C12.0903 22.0103 12.2646 21.7612 12.373 21.439C12.4844 21.1138 12.54 20.7271 12.54 20.2788C12.54 19.605 12.4141 19.0747 12.1621 18.688C11.9102 18.3013 11.4956 18.1079 10.9185 18.1079C10.5347 18.1079 10.2212 18.1958 9.97803 18.3716C9.73779 18.5444 9.56055 18.7935 9.44629 19.1187C9.33496 19.4409 9.2793 19.8276 9.2793 20.2788ZM18.0288 18.1167C17.7681 18.1167 17.5366 18.168 17.3345 18.2705C17.1353 18.3701 16.9668 18.5151 16.8291 18.7056C16.6943 18.896 16.5918 19.126 16.5215 19.3955C16.4512 19.665 16.416 19.9683 16.416 20.3052C16.416 20.7593 16.4717 21.1475 16.583 21.4697C16.6973 21.7891 16.873 22.0337 17.1104 22.2036C17.3477 22.3706 17.6538 22.4541 18.0288 22.4541C18.2896 22.4541 18.5503 22.4248 18.811 22.3662C19.0747 22.3076 19.3604 22.2241 19.668 22.1157V23.2583C19.3838 23.3755 19.104 23.459 18.8286 23.5088C18.5532 23.5615 18.2441 23.5879 17.9014 23.5879C17.2393 23.5879 16.6943 23.4517 16.2666 23.1792C15.8418 22.9038 15.5269 22.52 15.3218 22.0278C15.1167 21.5327 15.0142 20.9556 15.0142 20.2964C15.0142 19.8101 15.0801 19.3647 15.2119 18.9604C15.3438 18.5562 15.5371 18.2061 15.792 17.9102C16.0469 17.6143 16.3618 17.3857 16.7368 17.2246C17.1118 17.0635 17.5425 16.9829 18.0288 16.9829C18.3481 16.9829 18.6675 17.0239 18.9868 17.106C19.3091 17.1851 19.6167 17.2949 19.9097 17.4355L19.4702 18.543C19.23 18.4287 18.9883 18.3291 18.7451 18.2441C18.502 18.1592 18.2632 18.1167 18.0288 18.1167Z" fill="#036BFE"/>
</svg>
