<svg width="14" height="14" viewBox="0 0 14 14" fill="none" xmlns="http://www.w3.org/2000/svg">
<path d="M9.23509 6.51667H9.33509H12.2849H12.4792L12.3663 6.35855L11.5669 5.23917L11.5669 5.23912C11.4118 5.02222 11.462 4.72036 11.6793 4.56486C11.8964 4.41022 12.1982 4.46009 12.3535 4.67751C12.3535 4.67751 12.3535 4.67752 12.3535 4.67753L13.8118 6.71911C13.8162 6.72527 13.8179 6.72857 13.821 6.73467C13.8237 6.74012 13.8276 6.74781 13.8356 6.76179M9.23509 6.51667L13.9224 6.71218M9.23509 6.51667V6.41667M9.23509 6.51667V6.41667M13.8356 6.76179L13.9224 6.71218M13.8356 6.76179C13.8355 6.76167 13.8355 6.76156 13.8354 6.76144L13.9224 6.71218M13.8356 6.76179C13.8393 6.7682 13.8429 6.77338 13.8456 6.77703L13.8469 6.77868M13.9224 6.71218C13.9244 6.71565 13.9268 6.7187 13.9292 6.72174C13.9321 6.72531 13.9349 6.72888 13.937 6.73311M13.8469 6.77868C13.8465 6.77772 13.8462 6.77681 13.8459 6.77596C13.8443 6.7716 13.8432 6.7678 13.8429 6.76671C13.8427 6.76598 13.8426 6.7657 13.8426 6.7657C13.8426 6.76571 13.8429 6.7665 13.8431 6.7673C13.8437 6.76902 13.8449 6.77241 13.8469 6.77659L13.937 6.73311M13.8469 6.77868C13.8481 6.78203 13.8498 6.78598 13.852 6.7903M13.8469 6.77868L13.8514 6.78454C13.8519 6.78524 13.8522 6.78552 13.8522 6.78552C13.8522 6.78552 13.8519 6.78516 13.8515 6.78464C13.8507 6.78345 13.849 6.78088 13.8472 6.77718L13.937 6.73311M13.937 6.73311L13.852 6.7903M13.852 6.7903C13.8518 6.78987 13.8516 6.78945 13.8514 6.78902L13.9414 6.74536L13.854 6.79392C13.8533 6.79269 13.8526 6.79148 13.852 6.7903ZM13.8906 6.90073C13.8906 6.90067 13.8906 6.90061 13.8906 6.90056C13.8902 6.89864 13.8901 6.89735 13.8901 6.89733C13.8901 6.89732 13.8902 6.89764 13.8902 6.89837L13.8903 6.89913C13.8904 6.89961 13.8905 6.90009 13.8906 6.90056L13.8906 6.90073ZM13.8906 6.90073C13.8907 6.90147 13.8909 6.90229 13.8911 6.90316L13.8906 6.90073ZM9.23509 6.41667V1.16667C9.23509 0.578463 8.75663 0.1 8.16842 0.1H1.16842C0.580217 0.1 0.101755 0.578463 0.101755 1.16667V12.8333C0.101755 13.4215 0.580217 13.9 1.16842 13.9H8.16842C8.75663 13.9 9.23509 13.4215 9.23509 12.8333V7.58333V7.48333H9.33509H12.2849H12.4792L12.3663 7.64145L11.5669 8.76083L11.5669 8.76088C11.4118 8.97774 11.4619 9.27953 11.6792 9.43505C11.7644 9.49578 11.8626 9.525 11.9598 9.525C12.1109 9.525 12.259 9.45464 12.3532 9.32254L12.3532 9.32249M9.23509 6.41667L12.3532 9.32249M12.3532 9.32249L13.807 7.28727L12.3532 9.32249ZM8.26842 12.8333V12.9333H8.16842H1.16785H1.06785L1.06785 12.8333L1.06842 1.16666L1.06843 1.06667H1.16842H8.16842H8.26842V1.16667V6.41667V6.51667H8.16842H4.66842C4.40165 6.51667 4.18509 6.73323 4.18509 7C4.18509 7.26677 4.40165 7.48333 4.66842 7.48333H8.16842H8.26842V7.58333V12.8333ZM13.8747 7.15394C13.8856 7.12137 13.8926 7.08716 13.8964 7.05117L13.893 7.33895C13.8942 7.33713 13.8951 7.33512 13.8959 7.33311C13.8969 7.33088 13.8979 7.32865 13.8994 7.3267L13.8163 7.27096C13.8165 7.27067 13.8167 7.27038 13.8169 7.27009C13.8395 7.23631 13.8578 7.20269 13.8706 7.16904L13.8716 7.16472C13.8723 7.16202 13.8733 7.15826 13.8747 7.15394Z" fill="#DFDFDF" stroke="#6A6B6D" stroke-width="0.2"/>
</svg>
