<svg width="12" height="10" viewBox="0 0 12 10" fill="none" xmlns="http://www.w3.org/2000/svg">
<path d="M5.96649 1.99043L5.51239 1.52366C4.44649 0.427997 2.49203 0.806096 1.7865 2.18359C1.45527 2.83149 1.38053 3.76692 1.98537 4.96075C2.56803 6.11025 3.78023 7.48711 5.96649 8.98684C8.15275 7.48711 9.36431 6.11025 9.94761 4.96075C10.5524 3.76629 10.4783 2.83149 10.1465 2.18359C9.44094 0.806096 7.48648 0.427364 6.42058 1.52303L5.96649 1.99043ZM5.96649 9.75C-3.74438 3.33309 2.97653 -1.6753 5.85502 0.973928C5.89302 1.00876 5.93039 1.04486 5.96649 1.08223C6.00222 1.0449 6.0394 1.00898 6.07795 0.974562C8.95581 -1.67656 15.6774 3.33245 5.96649 9.75Z" fill="#A3A3A3"/>
</svg>
