<svg width="32" height="33" viewBox="0 0 32 33" fill="none" xmlns="http://www.w3.org/2000/svg">
<path d="M5.33398 29.8334H24.0007C24.7079 29.8334 25.3862 29.5524 25.8863 29.0523C26.3864 28.5522 26.6673 27.8739 26.6673 27.1667V10.5L19.334 3.16669H8.00065C7.29341 3.16669 6.61513 3.44764 6.11503 3.94774C5.61494 4.44783 5.33398 5.12611 5.33398 5.83335V11.1667" stroke="#F57C00" stroke-width="2" stroke-linecap="round" stroke-linejoin="round"/>
<path d="M18.666 3.16669V11.1667H26.666" stroke="#F57C00" stroke-width="2" stroke-linecap="round" stroke-linejoin="round"/>
<path d="M3.52686 17.0752C4.35596 17.0752 4.96094 17.2539 5.3418 17.6113C5.72266 17.9658 5.91309 18.4551 5.91309 19.0791C5.91309 19.3604 5.87061 19.6299 5.78564 19.8877C5.70068 20.1426 5.56152 20.3696 5.36816 20.5688C5.17773 20.7681 4.92285 20.9263 4.60352 21.0435C4.28418 21.1577 3.89014 21.2148 3.42139 21.2148H2.83691V23.5H1.47461V17.0752H3.52686ZM3.45654 18.1914H2.83691V20.0986H3.28516C3.54004 20.0986 3.76123 20.0649 3.94873 19.9976C4.13623 19.9302 4.28125 19.8247 4.38379 19.6812C4.48633 19.5376 4.5376 19.353 4.5376 19.1274C4.5376 18.811 4.44971 18.5767 4.27393 18.4243C4.09814 18.269 3.82568 18.1914 3.45654 18.1914ZM9.60449 23.5H8.24219V18.209H6.49756V17.0752H11.3491V18.209H9.60449V23.5ZM17.5322 23.5H15.9766L14.4824 21.0698L12.9883 23.5H11.5293L13.6606 20.1865L11.6655 17.0752H13.1685L14.5527 19.3867L15.9106 17.0752H17.3784L15.3613 20.2612L17.5322 23.5Z" fill="#F57C00"/>
</svg>
