<svg width="37" height="37" viewBox="0 0 37 37" fill="none" xmlns="http://www.w3.org/2000/svg">
<rect width="37" height="37" fill="#6A6B6D"/>
<g clip-path="url(#clip0_1530_1145)">
<path d="M25.4256 19.3995C25.0861 18.9708 25.1833 18.78 25.4256 18.3968C25.43 18.3924 28.2326 14.5196 28.5214 13.2063L28.5231 13.2054C28.6666 12.7268 28.5231 12.375 27.8293 12.375H25.5333C24.9488 12.375 24.6793 12.6769 24.5349 13.0146C24.5349 13.0146 23.3659 15.8129 21.7121 17.6268C21.1784 18.1509 20.9316 18.3189 20.6403 18.3189C20.4968 18.3189 20.2736 18.1509 20.2736 17.6723V13.2054C20.2736 12.6314 20.11 12.375 19.6261 12.375H16.0159C15.6493 12.375 15.4314 12.6428 15.4314 12.8921C15.4314 13.4364 16.2583 13.5615 16.344 15.0928V18.4151C16.344 19.1431 16.2119 19.277 15.9188 19.277C15.1383 19.277 13.2439 16.4674 12.1213 13.2518C11.8946 12.6279 11.6733 12.3759 11.0844 12.3759H8.7875C8.13212 12.3759 8 12.6778 8 13.0155C8 13.6123 8.7805 16.5794 11.6295 20.4994C13.5283 23.1751 16.2023 24.625 18.6348 24.625C20.0969 24.625 20.2754 24.303 20.2754 23.7491C20.2754 21.1924 20.1433 20.9509 20.8756 20.9509C21.2151 20.9509 21.7996 21.1189 23.1646 22.4095C24.7248 23.9399 24.9811 24.625 25.8544 24.625H28.1504C28.8049 24.625 29.1365 24.303 28.9458 23.6678C28.5091 22.3316 25.5586 19.5833 25.4256 19.3995Z" fill="white"/>
</g>
<defs>
<clipPath id="clip0_1530_1145">
<rect width="21" height="21" fill="white" transform="translate(8 8)"/>
</clipPath>
</defs>
</svg>
