<svg width="32" height="33" viewBox="0 0 32 33" fill="none" xmlns="http://www.w3.org/2000/svg">
<path d="M5.33398 29.8334H24.0007C24.7079 29.8334 25.3862 29.5524 25.8863 29.0523C26.3864 28.5522 26.6673 27.8739 26.6673 27.1667V10.5L19.334 3.16669H8.00065C7.29341 3.16669 6.61513 3.44764 6.11503 3.94774C5.61494 4.44783 5.33398 5.12611 5.33398 5.83335V11.1667" stroke="#43A047" stroke-width="2" stroke-linecap="round" stroke-linejoin="round"/>
<path d="M18.666 3.16669V11.1667H26.666" stroke="#43A047" stroke-width="2" stroke-linecap="round" stroke-linejoin="round"/>
<path d="M6.66895 23.5H5.11328L3.61914 21.0698L2.125 23.5H0.666016L2.79736 20.1865L0.802246 17.0752H2.30518L3.68945 19.3867L5.04736 17.0752H6.51514L4.49805 20.2612L6.66895 23.5ZM7.47754 23.5V17.0752H8.83984V22.375H11.4458V23.5H7.47754ZM16.3589 21.7158C16.3589 22.0967 16.2666 22.4277 16.082 22.709C15.8975 22.9902 15.6279 23.207 15.2734 23.3594C14.9219 23.5117 14.4941 23.5879 13.9902 23.5879C13.7676 23.5879 13.5493 23.5732 13.3354 23.5439C13.1245 23.5146 12.9209 23.4722 12.7246 23.4165C12.5312 23.3579 12.3467 23.2861 12.1709 23.2012V21.9355C12.4756 22.0703 12.792 22.1919 13.1201 22.3003C13.4482 22.4087 13.7734 22.4629 14.0957 22.4629C14.3184 22.4629 14.4971 22.4336 14.6318 22.375C14.7695 22.3164 14.8691 22.2358 14.9307 22.1333C14.9922 22.0308 15.0229 21.9136 15.0229 21.7817C15.0229 21.6206 14.9688 21.4829 14.8604 21.3687C14.752 21.2544 14.6025 21.1475 14.4121 21.0479C14.2246 20.9482 14.0122 20.8413 13.7749 20.7271C13.6255 20.6567 13.4629 20.5718 13.2871 20.4722C13.1113 20.3696 12.9443 20.2451 12.7861 20.0986C12.6279 19.9521 12.4976 19.7749 12.395 19.5669C12.2954 19.356 12.2456 19.104 12.2456 18.811C12.2456 18.4272 12.3335 18.0991 12.5093 17.8267C12.6851 17.5542 12.9355 17.3462 13.2607 17.2026C13.5889 17.0562 13.9756 16.9829 14.4209 16.9829C14.7549 16.9829 15.0728 17.0225 15.3745 17.1016C15.6792 17.1777 15.9971 17.2891 16.3281 17.4355L15.8887 18.4946C15.5928 18.3745 15.3276 18.2822 15.0933 18.2178C14.8589 18.1504 14.6201 18.1167 14.377 18.1167C14.207 18.1167 14.062 18.1445 13.9419 18.2002C13.8218 18.2529 13.731 18.3291 13.6694 18.4287C13.6079 18.5254 13.5771 18.6382 13.5771 18.7671C13.5771 18.9194 13.6211 19.0483 13.709 19.1538C13.7998 19.2563 13.9346 19.356 14.1133 19.4526C14.2949 19.5493 14.5205 19.6621 14.79 19.791C15.1182 19.9463 15.3979 20.1089 15.6294 20.2788C15.8638 20.4458 16.0439 20.6436 16.1699 20.8721C16.2959 21.0977 16.3589 21.3789 16.3589 21.7158Z" fill="#43A047"/>
</svg>
