<svg width="74" height="74" viewBox="0 0 74 74" fill="none" xmlns="http://www.w3.org/2000/svg">
<path d="M37.07 68.86L37.76 73.3L41.87 72.94L41.78 68.45C42.07 68.4 42.36 68.36 42.65 68.3L44.1 72.55L48.09 71.48L47.23 67.09C47.51 66.99 47.78 66.89 48.06 66.78L50.22 70.7L53.96 68.95L52.35 64.78C52.61 64.64 52.87 64.49 53.12 64.34L55.9301 67.82L59.31 65.45L57 61.62C57.23 61.43 57.45 61.23 57.67 61.04L61.04 63.99L63.96 61.07L61.01 57.69C61.21 57.47 61.4 57.24 61.59 57.02L65.42 59.33L67.79 55.95L64.32 53.15C64.47 52.89 64.61 52.63 64.76 52.37L68.9301 53.98L70.67 50.24L66.76 48.09C66.87 47.81 66.97 47.53 67.07 47.25L71.44 48.11L72.51 44.12L68.28 42.68C68.33 42.39 68.3901 42.1 68.4301 41.8L72.9 41.89L73.26 37.78L68.84 37.09C68.84 36.94 68.85 36.8 68.85 36.65C68.85 36.5 68.85 36.35 68.84 36.21L73.27 35.52L72.91 31.41L68.44 31.5C68.39 31.21 68.34 30.91 68.29 30.62L72.52 29.18L71.45 25.19L67.08 26.05C66.98 25.77 66.88 25.49 66.77 25.21L70.6801 23.06L68.9301 19.32L64.76 20.93C64.61 20.67 64.47 20.41 64.32 20.15L67.79 17.35L65.42 13.97L61.59 16.28C61.4 16.05 61.2 15.83 61.01 15.61L63.96 12.23L61.04 9.31L57.67 12.26C57.45 12.07 57.22 11.87 57 11.68L59.31 7.84999L55.9301 5.48L53.12 8.95999C52.87 8.80999 52.61 8.66999 52.35 8.51999L53.96 4.34L50.22 2.59999L48.06 6.53C47.78 6.43 47.51 6.31999 47.23 6.21999L48.1 1.82999L44.11 0.759995L42.66 5C42.37 4.94 42.08 4.89999 41.79 4.84999L41.88 0.359985L37.77 0L37.08 4.43999C36.79 4.43999 36.49 4.43999 36.2 4.43999L35.51 0L31.4 0.359985L31.4901 4.84999C31.2001 4.88999 30.91 4.94 30.62 5L29.17 0.759995L25.1801 1.82999L26.05 6.21999C25.77 6.31999 25.49 6.43 25.22 6.53L23.06 2.59999L19.32 4.34L20.94 8.51999C20.68 8.65999 20.42 8.80999 20.17 8.95999L17.36 5.48L13.98 7.84999L16.29 11.68C16.06 11.87 15.84 12.07 15.62 12.26L12.2401 9.31L9.32001 12.23L12.27 15.61C12.08 15.83 11.88 16.06 11.69 16.28L7.86005 13.97L5.49005 17.35L8.96002 20.15C8.81002 20.41 8.67002 20.67 8.52002 20.93L4.35004 19.32L2.60004 23.06L6.51001 25.21C6.40001 25.49 6.30001 25.77 6.20001 26.05L1.82001 25.19L0.75 29.18L4.98004 30.62C4.93004 30.91 4.87002 31.2 4.83002 31.5L0.360046 31.41L0 35.52L4.43005 36.21C4.43005 36.36 4.42004 36.51 4.42004 36.66C4.42004 36.81 4.42005 36.95 4.43005 37.1L0 37.79L0.360046 41.9L4.83002 41.81C4.88002 42.1 4.93004 42.4 4.98004 42.69L0.75 44.14L1.82001 48.13L6.20001 47.27C6.30001 47.55 6.40001 47.83 6.51001 48.11L2.60004 50.26L4.35004 54L8.52002 52.39C8.67002 52.65 8.81002 52.91 8.96002 53.17L5.49005 55.97L7.86005 59.35L11.69 57.04C11.88 57.27 12.08 57.49 12.27 57.72L9.32001 61.09L12.2401 64.01L15.61 61.06C15.83 61.26 16.06 61.45 16.28 61.64L13.97 65.47L17.35 67.84L20.16 64.36C20.41 64.51 20.6701 64.65 20.9301 64.8L19.31 68.98L23.05 70.73L25.21 66.8C25.49 66.91 25.76 67.01 26.04 67.11L25.1801 71.5L29.17 72.57L30.62 68.33C30.91 68.38 31.2001 68.43 31.4901 68.48L31.4 72.97L35.51 73.33L36.2 68.89C36.49 68.89 36.79 68.89 37.08 68.89L37.07 68.86ZM34.76 38.53C33.73 37.5 33.73 35.82 34.76 34.79C35.79 33.76 37.47 33.76 38.5 34.79C39.53 35.82 39.53 37.5 38.5 38.53C37.47 39.56 35.79 39.56 34.76 38.53ZM40.97 34.16L52.71 15.81C53.6 16.5 54.45 17.24 55.26 18.04C59.4 22.18 61.9901 27.46 62.7401 33.17L40.98 34.16H40.97ZM36.63 31.65L26.6 12.3C29.74 11.01 33.13 10.33 36.63 10.33C40.13 10.33 43.52 11.01 46.66 12.3L36.63 31.65ZM32.28 34.15L10.52 33.17C11.27 27.46 13.86 22.19 18 18.04C18.8 17.23 19.66 16.49 20.55 15.81L32.28 34.15ZM32.27 39.18L20.55 57.52C19.66 56.83 18.81 56.09 18.01 55.29C13.87 51.15 11.28 45.87 10.53 40.16L32.28 39.17L32.27 39.18ZM36.62 41.7L46.65 61.04C43.51 62.33 40.12 63.01 36.62 63.01C33.12 63.01 29.73 62.33 26.59 61.04L36.62 41.7ZM40.97 39.18L62.72 40.17C61.97 45.88 59.3801 51.16 55.2401 55.3C54.43 56.11 53.58 56.85 52.69 57.53L40.96 39.18H40.97ZM56.2401 56.29C60.6301 51.9 63.36 46.29 64.13 40.23L65.81 40.31C65.02 46.79 62.1101 52.79 57.4301 57.48C56.4601 58.45 55.43 59.33 54.37 60.14L53.46 58.72C54.43 57.98 55.3601 57.18 56.2401 56.3V56.29ZM64.13 33.12C63.36 27.06 60.6301 21.45 56.2401 17.06C55.3601 16.18 54.43 15.37 53.46 14.63L54.37 13.21C55.43 14.02 56.4601 14.9 57.4301 15.87C62.1201 20.56 65.02 26.56 65.81 33.04L64.13 33.12ZM47.29 11.08C40.48 8.24999 32.76 8.24999 25.95 11.08L25.1801 9.59C32.4801 6.52 40.77 6.52 48.07 9.59L47.3 11.08H47.29ZM19.78 14.64C18.82 15.38 17.88 16.18 17 17.07C12.61 21.46 9.88005 27.06 9.11005 33.13L7.43005 33.05C8.22005 26.57 11.13 20.57 15.81 15.88C16.78 14.91 17.81 14.03 18.87 13.22L19.78 14.64ZM9.11005 40.24C9.88005 46.3 12.61 51.91 17 56.3C17.88 57.18 18.82 57.99 19.78 58.72L18.87 60.14C17.81 59.33 16.78 58.45 15.81 57.48C11.12 52.79 8.22005 46.79 7.43005 40.31L9.11005 40.23V40.24ZM25.95 62.28C32.76 65.11 40.48 65.11 47.29 62.28L48.06 63.77C40.76 66.84 32.47 66.84 25.17 63.77L25.94 62.28H25.95Z" fill="#343434"/>
</svg>
