<svg width="133" height="133" viewBox="0 0 133 133" fill="none" xmlns="http://www.w3.org/2000/svg">
<path d="M61.83 124.2L62.38 132.28H69.84L70.38 124.2C70.91 124.16 71.45 124.13 71.98 124.08L73.91 131.92L81.25 130.62L80.39 122.59C80.91 122.46 81.43 122.31 81.94 122.16L85.21 129.56L92.22 127.01L89.97 119.23C90.46 119.01 90.95 118.8 91.43 118.56L95.94 125.28L102.4 121.55L98.83 114.28C99.27 113.98 99.7 113.66 100.13 113.35L105.75 119.2L111.46 114.41L106.67 107.85C107.05 107.48 107.43 107.1 107.8 106.72L114.36 111.51L119.15 105.79L113.3 100.17C113.61 99.74 113.93 99.31 114.23 98.87L121.51 102.44L125.24 95.98L118.52 91.48C118.75 91 118.97 90.51 119.19 90.02L126.97 92.27L129.52 85.26L122.12 81.99C122.27 81.47 122.42 80.96 122.55 80.44L130.58 81.31L131.87 73.96L124.03 72.03C124.08 71.5 124.11 70.96 124.15 70.43L132.23 69.88V62.42L124.15 61.88C124.11 61.34 124.08 60.81 124.03 60.28L131.87 58.35L130.58 51L122.57 51.86C122.44 51.34 122.29 50.82 122.14 50.3L129.52 47.03L126.97 40.02L119.22 42.26C119 41.77 118.78 41.28 118.54 40.79L125.24 36.3L121.51 29.84L114.26 33.4C113.96 32.96 113.65 32.52 113.33 32.08L119.16 26.48L114.37 20.77L107.83 25.54C107.64 25.35 107.47 25.15 107.28 24.96C107.09 24.77 106.89 24.59 106.7 24.41L111.48 17.87L105.77 13.08L100.17 18.91C99.74 18.59 99.3 18.29 98.85 17.98L102.41 10.73L95.95 7L91.46 13.7C90.98 13.46 90.49 13.24 90 13.02L92.24 5.27L85.23 2.72L81.97 10.1C81.45 9.94999 80.93 9.8 80.41 9.67L81.27 1.66L73.92 0.360001L71.99 8.2C71.46 8.15 70.92 8.12 70.39 8.08L69.85 0H62.39L61.85 8.08C61.31 8.12 60.78 8.15 60.25 8.2L58.32 0.360001L50.97 1.66L51.83 9.67C51.31 9.8 50.79 9.95999 50.27 10.1L47.01 2.72L40 5.27L42.24 13.02C41.75 13.24 41.26 13.46 40.77 13.7L36.28 7L29.82 10.73L33.38 17.98C32.94 18.28 32.5 18.59 32.06 18.91L26.46 13.08L20.75 17.87L25.53 24.41C25.34 24.6 25.14 24.78 24.95 24.97C24.76 25.16 24.58 25.36 24.4 25.55L17.86 20.77L13.07 26.48L18.9 32.08C18.58 32.52 18.27 32.95 17.97 33.39L10.72 29.83L6.98999 36.29L13.69 40.78C13.45 41.26 13.23 41.75 13.01 42.24L5.26001 40L2.71002 47.01L10.09 50.28C9.94003 50.8 9.79003 51.31 9.66003 51.84L1.65002 50.98L0.359985 58.33L8.20001 60.26C8.15001 60.79 8.12002 61.33 8.08002 61.86L0 62.4V69.86L8.08002 70.4C8.12002 70.94 8.15001 71.47 8.20001 72L0.350037 73.94L1.65002 81.29L9.67999 80.43C9.80999 80.95 9.95999 81.46 10.11 81.98L2.71002 85.25L5.26001 92.26L13.04 90.01C13.26 90.5 13.47 90.99 13.71 91.47L7 95.98L10.73 102.44L18.01 98.87C18.31 99.31 18.62 99.74 18.94 100.17L13.09 105.79L17.89 111.5L24.45 106.71C24.82 107.09 25.2 107.47 25.58 107.84L20.79 114.4L26.5 119.19L32.12 113.34C32.55 113.65 32.98 113.97 33.42 114.27L29.85 121.54L36.31 125.27L40.82 118.55C41.3 118.78 41.79 119 42.28 119.22L40.03 127L47.04 129.55L50.31 122.15C50.83 122.3 51.34 122.45 51.86 122.58L51 130.61L58.35 131.9L60.28 124.06C60.81 124.11 61.35 124.14 61.88 124.18L61.83 124.2ZM12.95 66.14C12.95 51.94 18.48 38.59 28.52 28.55C38.56 18.51 51.91 12.98 66.11 12.98C80.31 12.98 93.66 18.51 103.7 28.55C113.74 38.59 119.27 51.94 119.27 66.14C119.27 95.45 95.42 119.29 66.11 119.3C36.8 119.3 12.96 95.45 12.96 66.15L12.95 66.14Z" fill="#E4120E"/>
<path d="M116.79 66.1409C116.79 38.1509 94.1 15.4609 66.11 15.4609C38.12 15.4609 15.43 38.1509 15.43 66.1409C15.43 94.1309 38.12 116.821 66.11 116.821C94.1 116.821 116.79 94.1309 116.79 66.1409ZM51.58 36.5109C51.58 28.4809 58.09 21.9809 66.11 21.9809C74.14 21.9809 80.64 28.4809 80.64 36.5109C80.64 44.5409 74.13 51.0409 66.11 51.0409C58.09 51.0409 51.58 44.5309 51.58 36.5109ZM21.95 66.1409C21.95 58.1109 28.46 51.6109 36.48 51.6109C44.51 51.6109 51.01 58.1209 51.01 66.1409C51.01 74.1609 44.5 80.6709 36.48 80.6709C28.46 80.6709 21.95 74.1609 21.95 66.1409ZM66.11 61.3609C68.75 61.3609 70.89 63.5009 70.89 66.1409C70.89 68.7809 68.75 70.9209 66.11 70.9209C63.47 70.9209 61.33 68.7809 61.33 66.1409C61.33 63.5009 63.47 61.3609 66.11 61.3609ZM81.21 66.1409C81.21 58.1109 87.72 51.6109 95.74 51.6109C103.76 51.6109 110.27 58.1209 110.27 66.1409C110.27 74.1609 103.76 80.6709 95.74 80.6709C87.72 80.6709 81.21 74.1609 81.21 66.1409ZM51.58 95.771C51.58 87.741 58.09 81.241 66.11 81.241C74.13 81.241 80.64 87.7509 80.64 95.771C80.64 103.791 74.13 110.301 66.11 110.301C58.09 110.301 51.58 103.801 51.58 95.771Z" fill="#E4120E"/>
</svg>
