<svg width="176" height="176" viewBox="0 0 176 176" fill="none" xmlns="http://www.w3.org/2000/svg">
<path d="M87.76 164.53C88.09 164.53 88.42 164.51 88.76 164.5L90.47 175.5L100.32 174.64L100.1 163.53C100.76 163.43 101.42 163.31 102.08 163.19L105.67 173.7L115.22 171.14L113.08 160.27C113.71 160.05 114.34 159.81 114.97 159.57L120.32 169.28L129.28 165.1L125.28 154.75C125.86 154.42 126.45 154.1 127.03 153.76L133.98 162.39L142.08 156.72L136.34 147.22C136.86 146.8 137.36 146.35 137.86 145.91L146.24 153.23L153.23 146.24L145.91 137.86C146.35 137.36 146.8 136.86 147.22 136.34L156.72 142.08L162.39 133.98L153.76 127.02C154.1 126.44 154.42 125.85 154.75 125.27L165.1 129.27L169.28 120.31L159.57 114.96C159.81 114.33 160.04 113.71 160.27 113.07L171.15 115.21L173.71 105.66L163.2 102.07C163.32 101.41 163.44 100.75 163.54 100.09L174.65 100.31L175.51 90.46L164.52 88.75C164.52 88.42 164.54 88.08 164.54 87.75C164.54 87.42 164.52 87.09 164.52 86.75L175.52 85.04L174.66 75.19L163.55 75.41C163.44 74.75 163.33 74.09 163.21 73.43L173.72 69.84L171.16 60.29L160.28 62.43C160.06 61.8 159.82 61.17 159.59 60.54L169.3 55.19L165.12 46.23L154.77 50.23C154.44 49.65 154.12 49.06 153.78 48.48L162.41 41.53L156.74 33.43L147.24 39.17C146.81 38.65 146.37 38.15 145.93 37.65L153.25 29.27L146.26 22.28L137.88 29.6C137.37 29.16 136.87 28.72 136.36 28.29L142.1 18.78L134 13.11L127.05 21.74C126.47 21.39 125.88 21.08 125.29 20.75L129.3 10.4L120.34 6.22L114.99 15.94C114.36 15.7 113.73 15.46 113.1 15.24L115.24 4.36L105.69 1.8L102.1 12.31C101.44 12.19 100.78 12.07 100.12 11.97L100.34 0.860001L90.49 0L88.78 11C88.45 11 88.11 10.98 87.78 10.98C87.45 10.98 87.11 11 86.78 11L85.06 0L75.21 0.860001L75.43 11.97C74.77 12.07 74.11 12.19 73.45 12.31L69.86 1.8L60.31 4.36L62.45 15.24C61.82 15.46 61.19 15.7 60.55 15.94L55.2 6.22L46.24 10.4L50.25 20.75C49.66 21.08 49.07 21.4 48.5 21.75L41.54 13.12L33.44 18.79L39.19 28.3C38.67 28.72 38.17 29.17 37.67 29.61L29.28 22.28L22.29 29.27L29.62 37.65C29.18 38.16 28.73 38.66 28.31 39.17L18.8 33.43L13.13 41.53L21.76 48.49C21.42 49.07 21.09 49.66 20.77 50.24L10.41 46.24L6.23004 55.2L15.95 60.55C15.71 61.18 15.47 61.81 15.25 62.44L4.37 60.3L1.81 69.85L12.32 73.44C12.2 74.1 12.08 74.76 11.98 75.42L0.859985 75.2L0 85.05L11 86.76C11 87.09 10.97 87.43 10.97 87.76C10.97 88.09 10.99 88.43 11 88.76L0 90.48L0.859985 100.33L11.97 100.11C12.08 100.77 12.19 101.43 12.31 102.09L1.79999 105.68L4.35999 115.23L15.24 113.09C15.46 113.72 15.7 114.35 15.94 114.98L6.22003 120.33L10.4 129.29L20.75 125.29C21.08 125.88 21.4 126.46 21.75 127.04L13.12 134L18.79 142.1L28.29 136.36C28.71 136.88 29.16 137.37 29.6 137.88L22.27 146.26L29.26 153.25L37.64 145.93C38.15 146.37 38.64 146.82 39.16 147.24L33.41 156.75L41.51 162.42L48.47 153.79C49.05 154.13 49.64 154.45 50.22 154.78L46.22 165.14L55.18 169.32L60.54 159.61C61.17 159.85 61.79 160.09 62.43 160.31L60.29 171.19L69.84 173.75L73.43 163.24C74.09 163.36 74.75 163.48 75.41 163.58L75.19 174.69L85.04 175.55L86.75 164.55C87.08 164.55 87.42 164.58 87.75 164.58L87.76 164.53ZM87.76 158.6C69.62 158.6 52.53 151.81 39.36 139.47L41.98 136.84C58.8 152.53 81.77 157.96 102.85 153.14L103.82 156.76C98.61 157.96 93.24 158.6 87.76 158.6ZM87.76 16.88C105.9 16.88 122.99 23.67 136.17 36.01L133.55 38.64C121.08 26.99 104.92 20.59 87.77 20.59C82.62 20.59 77.57 21.18 72.67 22.3L71.71 18.71C76.92 17.51 82.29 16.87 87.77 16.87L87.76 16.88ZM132.44 132.42C124.9 139.96 115.91 145.18 106.36 148.11L105.34 144.3C114.23 141.55 122.6 136.66 129.63 129.63C136.67 122.59 141.55 114.22 144.31 105.34L148.17 106.37C145.18 116.11 139.85 125.03 132.44 132.43V132.42ZM152 107.38L155.59 108.34C152.26 119.36 146.24 129.46 137.86 137.84C129.49 146.21 119.39 152.23 108.36 155.57L107.39 151.93C117.59 148.83 127.19 143.27 135.24 135.22C143.15 127.31 148.83 117.79 152 107.39V107.38ZM51.26 100.21C57.89 93.58 68.65 93.58 75.28 100.21C81.91 106.84 81.91 117.6 75.28 124.23C68.65 130.86 57.89 130.86 51.26 124.23C44.63 117.6 44.63 106.84 51.26 100.21ZM88.09 123C91.73 123 94.68 125.95 94.68 129.59C94.68 133.23 91.73 136.18 88.09 136.18C84.45 136.18 81.5 133.23 81.5 129.59C81.5 125.95 84.45 123 88.09 123ZM78.24 97.25C72.98 91.99 72.98 83.47 78.24 78.21C83.5 72.95 92.02 72.95 97.28 78.21C102.54 83.47 102.54 91.99 97.28 97.25C92.02 102.51 83.5 102.51 78.24 97.25ZM51.26 75.25C44.63 68.62 44.63 57.86 51.26 51.23C57.89 44.6 68.64 44.6 75.28 51.23C81.91 57.86 81.91 68.62 75.28 75.25C68.65 81.88 57.89 81.88 51.26 75.25ZM124.25 51.23C130.88 57.86 130.88 68.62 124.25 75.25C117.62 81.88 106.86 81.88 100.23 75.25C93.6 68.62 93.6 57.86 100.23 51.23C106.86 44.6 117.62 44.6 124.25 51.23ZM94.01 46.53C94.01 50.17 91.06 53.12 87.42 53.12C83.78 53.12 80.83 50.17 80.83 46.53C80.83 42.89 83.78 39.94 87.42 39.94C91.06 39.94 94.01 42.89 94.01 46.53ZM52.81 88.39C52.81 92.03 49.86 94.98 46.22 94.98C42.58 94.98 39.63 92.03 39.63 88.39C39.63 84.75 42.58 81.8 46.22 81.8C49.86 81.8 52.81 84.75 52.81 88.39ZM122.69 87.73C122.69 84.09 125.64 81.14 129.28 81.14C132.92 81.14 135.87 84.09 135.87 87.73C135.87 91.37 132.92 94.32 129.28 94.32C125.64 94.32 122.69 91.37 122.69 87.73ZM100.23 100.21C106.86 93.58 117.62 93.58 124.25 100.21C130.88 106.84 130.88 117.6 124.25 124.23C117.62 130.86 106.86 130.86 100.23 124.23C93.6 117.6 93.6 106.84 100.23 100.21ZM145.52 100.78C149.66 82.35 144.91 62.32 131.25 47.55L134.05 44.75C144.95 56.47 150.94 71.64 150.94 87.73C150.94 92.53 150.39 97.24 149.36 101.81L145.52 100.78ZM127.93 44.23C113.16 30.57 93.14 25.82 74.7 29.96L73.67 26.12C78.24 25.08 82.95 24.53 87.75 24.53C103.84 24.53 119.01 30.52 130.73 41.42L127.93 44.22V44.23ZM68.1 23.49C57.7 26.66 48.17 32.34 40.27 40.25C32.36 48.15 26.68 57.68 23.51 68.09L19.92 67.13C23.25 56.11 29.27 46.01 37.65 37.63C46.02 29.26 56.12 23.24 67.15 19.9L68.11 23.49H68.1ZM43.06 43.04C50.46 35.63 59.39 30.3 69.12 27.31L70.15 31.17C61.26 33.93 52.89 38.81 45.85 45.85C38.81 52.89 33.93 61.26 31.17 70.15L27.31 69.12C30.3 59.38 35.64 50.46 43.04 43.05L43.06 43.04ZM29.98 74.68C25.84 93.11 30.59 113.14 44.25 127.9L41.45 130.7C30.55 118.98 24.56 103.81 24.56 87.72C24.56 82.92 25.11 78.21 26.14 73.65L29.98 74.68ZM47.57 131.23C62.34 144.89 82.36 149.64 100.8 145.49L101.82 149.3C82.06 153.78 60.55 148.69 44.77 134.03L47.57 131.23ZM156.77 103.79L153.18 102.83C154.3 97.93 154.9 92.88 154.9 87.73C154.9 70.58 148.5 54.42 136.85 41.95L139.48 39.33C151.83 52.5 158.61 69.59 158.61 87.73C158.61 93.21 157.97 98.59 156.77 103.79ZM18.73 71.67L22.32 72.63C21.2 77.53 20.61 82.58 20.61 87.73C20.61 104.88 27.01 121.04 38.66 133.51L36.04 136.13C23.69 122.96 16.9 105.87 16.9 87.73C16.9 82.25 17.54 76.88 18.74 71.67H18.73Z" fill="#343434"/>
<path d="M92.15 92.1301C94.58 89.7001 94.58 85.7701 92.15 83.3401C89.72 80.9101 85.79 80.9101 83.36 83.3401C80.93 85.7701 80.93 89.7001 83.36 92.1301C85.79 94.5601 89.72 94.5601 92.15 92.1301Z" fill="#343434"/>
</svg>
