<svg width="138" height="138" viewBox="0 0 138 138" fill="none" xmlns="http://www.w3.org/2000/svg">
<path d="M49.69 135.26L63.83 137.75L66.44 129.28C67.18 129.31 67.93 129.34 68.68 129.34C69.43 129.34 70.18 129.31 70.93 129.28L73.54 137.75L87.68 135.26L87.23 126.42C88.66 125.96 90.07 125.44 91.45 124.88L96.79 131.94L109.22 124.76L105.76 116.57C106.94 115.65 108.1 114.7 109.2 113.7L116.65 118.52L125.88 107.52L119.84 101.01C120.64 99.75 121.39 98.45 122.09 97.13L130.73 99.11L135.64 85.62L127.76 81.59C128.07 80.13 128.33 78.65 128.54 77.16L137.33 76.06V61.7L128.54 60.6C128.33 59.1 128.08 57.63 127.76 56.17L135.63 52.14L130.72 38.65L122.08 40.62C121.38 39.3 120.62 38 119.83 36.74L125.87 30.24L116.65 19.24L109.2 24.06C108.09 23.06 106.94 22.11 105.76 21.19L109.21 13.01L96.78 5.83L91.44 12.89C90.06 12.32 88.65 11.81 87.21 11.34L87.65 2.5L73.52 0.00999451L70.91 8.47C70.16 8.44 69.42 8.41 68.66 8.41C67.9 8.41 67.16 8.43999 66.41 8.45999L63.81 0L49.67 2.48999L50.11 11.3C48.67 11.76 47.26 12.27 45.86 12.84L40.54 5.81L28.11 12.99L31.55 21.14C30.37 22.06 29.21 23.01 28.09 24.03L20.67 19.23L11.44 30.23L17.45 36.7C16.64 37.98 15.88 39.27 15.18 40.6L6.59 38.64L1.67999 52.13L9.54001 56.16C9.23001 57.62 8.96999 59.1 8.76999 60.6L0 61.69V76.05L8.78 77.15C8.99 78.65 9.23999 80.12 9.54999 81.58L1.67999 85.61L6.59 99.1L15.23 97.12C15.93 98.45 16.69 99.74 17.49 101L11.45 107.5L20.68 118.5L28.13 113.68C29.24 114.68 30.39 115.63 31.57 116.55L28.12 124.73L40.55 131.91L45.89 124.85C47.27 125.42 48.68 125.93 50.12 126.39L49.67 135.23L49.69 135.26ZM50.5 100.37C53.65 102.19 54.73 106.22 52.91 109.37C51.09 112.52 47.06 113.6 43.92 111.78C40.77 109.96 39.69 105.93 41.51 102.78C43.33 99.63 47.36 98.55 50.51 100.37H50.5ZM95.85 102.78C97.67 105.93 96.59 109.96 93.44 111.78C90.29 113.6 86.26 112.52 84.44 109.37C82.62 106.22 83.7 102.19 86.85 100.37C90 98.55 94.03 99.63 95.85 102.78ZM62.09 111.83C62.09 108.19 65.04 105.24 68.68 105.24C72.32 105.24 75.27 108.19 75.27 111.83C75.27 115.47 72.32 118.42 68.68 118.42C65.04 118.42 62.09 115.47 62.09 111.83ZM42.19 68.89C42.19 54.26 54.05 42.4 68.68 42.4C83.31 42.4 95.16 54.26 95.16 68.89C95.16 83.52 83.3 95.38 68.68 95.38C54.06 95.38 42.19 83.52 42.19 68.89ZM25.74 75.47C22.1 75.47 19.15 72.52 19.15 68.88C19.15 65.24 22.1 62.29 25.74 62.29C29.38 62.29 32.33 65.24 32.33 68.88C32.33 72.52 29.38 75.47 25.74 75.47ZM34.79 41.71C37.94 43.53 39.02 47.56 37.2 50.71C35.38 53.86 31.35 54.94 28.2 53.12C25.05 51.3 23.97 47.27 25.79 44.12C27.61 40.97 31.64 39.89 34.79 41.71ZM111.57 44.13C113.39 47.28 112.31 51.31 109.16 53.13C106.01 54.95 101.98 53.87 100.16 50.72C98.34 47.57 99.42 43.54 102.57 41.72C105.72 39.9 109.75 40.98 111.57 44.13ZM111.62 62.3C115.26 62.3 118.21 65.25 118.21 68.89C118.21 72.53 115.26 75.48 111.62 75.48C107.98 75.48 105.03 72.53 105.03 68.89C105.03 65.25 107.98 62.3 111.62 62.3ZM37.2 87.06C39.02 90.21 37.94 94.24 34.79 96.06C31.64 97.88 27.61 96.8 25.79 93.65C23.97 90.5 25.05 86.48 28.2 84.66C31.35 82.84 35.38 83.92 37.2 87.07V87.06ZM102.58 96.06C99.43 94.24 98.35 90.21 100.17 87.06C101.99 83.91 106.02 82.83 109.17 84.65C112.32 86.47 113.4 90.5 111.58 93.65C109.76 96.8 105.74 97.88 102.58 96.06ZM52.92 28.4C54.74 31.55 53.66 35.58 50.51 37.4C47.36 39.22 43.33 38.14 41.51 34.99C39.69 31.84 40.77 27.81 43.92 25.99C47.07 24.17 51.1 25.25 52.92 28.4ZM68.69 19.36C72.33 19.36 75.28 22.31 75.28 25.95C75.28 29.59 72.33 32.54 68.69 32.54C65.05 32.54 62.1 29.59 62.1 25.95C62.1 22.31 65.05 19.36 68.69 19.36ZM86.86 37.41C83.71 35.59 82.63 31.56 84.45 28.41C86.27 25.26 90.3 24.18 93.45 26C96.6 27.82 97.68 31.84 95.86 35C94.04 38.15 90.01 39.23 86.86 37.41Z" fill="#343434"/>
<path d="M77.03 68.88C77.03 64.27 73.29 60.54 68.68 60.54C64.07 60.54 60.33 64.27 60.33 68.88C60.33 73.49 64.07 77.23 68.68 77.23C73.29 77.23 77.02 73.49 77.03 68.88Z" fill="#343434"/>
<path d="M90.33 68.8802C90.33 63.1002 88.08 57.6602 83.99 53.5802C79.9 49.4902 74.46 47.2402 68.68 47.2402C62.9 47.2402 57.46 49.4902 53.37 53.5802C49.28 57.6702 47.03 63.1002 47.03 68.8902C47.03 74.6802 49.28 80.1102 53.37 84.2002C57.46 88.2902 62.89 90.5402 68.68 90.5402C80.61 90.5402 90.32 80.8302 90.33 68.8902V68.8802ZM55.24 82.3202C51.65 78.7302 49.67 73.9602 49.67 68.8802C49.67 63.8002 51.65 59.0302 55.24 55.4402C58.83 51.8502 63.6 49.8702 68.68 49.8802C73.76 49.8802 78.53 51.8502 82.12 55.4502C85.71 59.0402 87.69 63.8202 87.69 68.8902C87.69 79.3702 79.16 87.9003 68.68 87.9003C63.6 87.9003 58.83 85.9202 55.24 82.3302V82.3202Z" fill="#343434"/>
</svg>
