<svg width="176" height="176" viewBox="0 0 176 176" fill="none" xmlns="http://www.w3.org/2000/svg">
<path d="M87.77 164.55C88.1 164.55 88.43 164.53 88.77 164.52L90.49 175.52L100.34 174.66L100.12 163.55C100.78 163.45 101.44 163.33 102.1 163.21L105.69 173.72L115.24 171.16L113.1 160.29C113.73 160.07 114.36 159.83 114.99 159.59L120.34 169.3L129.3 165.12L125.3 154.77C125.88 154.44 126.47 154.12 127.05 153.78L134 162.41L142.1 156.74L136.36 147.24C136.88 146.82 137.38 146.37 137.88 145.93L146.26 153.25L153.25 146.26L145.93 137.88C146.37 137.37 146.82 136.88 147.24 136.36L156.75 142.1L162.42 134L153.79 127.04C154.13 126.46 154.45 125.87 154.78 125.29L165.13 129.29L169.31 120.33L159.6 114.98C159.84 114.35 160.07 113.72 160.3 113.09L171.18 115.23L173.74 105.68L163.23 102.09C163.35 101.43 163.47 100.77 163.57 100.11L174.68 100.33L175.54 90.48L164.54 88.77C164.54 88.44 164.57 88.1 164.57 87.77C164.57 87.44 164.55 87.11 164.54 86.77L175.54 85.06L174.68 75.21L163.57 75.43C163.46 74.77 163.35 74.11 163.23 73.45L173.74 69.86L171.18 60.31L160.3 62.45C160.08 61.82 159.84 61.19 159.6 60.56L169.31 55.21L165.13 46.25L154.78 50.25C154.45 49.67 154.13 49.08 153.79 48.5L162.42 41.54L156.75 33.44L147.25 39.18C146.82 38.67 146.38 38.17 145.94 37.66L153.26 29.28L146.27 22.29L137.89 29.61C137.38 29.17 136.88 28.73 136.37 28.3L142.11 18.79L134.01 13.12L127.06 21.75C126.48 21.4 125.89 21.08 125.3 20.75L129.3 10.4L120.34 6.22L114.99 15.94C114.36 15.7 113.73 15.46 113.1 15.24L115.24 4.36L105.69 1.8L102.1 12.31C101.44 12.19 100.78 12.07 100.12 11.97L100.34 0.860001L90.49 0L88.78 11C88.44 11 88.11 10.98 87.78 10.98C87.45 10.98 87.11 11 86.78 11L85.06 0L75.21 0.860001L75.43 11.97C74.77 12.07 74.11 12.19 73.45 12.31L69.86 1.8L60.31 4.36L62.45 15.24C61.81 15.46 61.19 15.7 60.55 15.94L55.2 6.22L46.24 10.4L50.25 20.75C49.66 21.08 49.07 21.4 48.49 21.75L41.54 13.12L33.44 18.79L39.19 28.3C38.67 28.72 38.18 29.17 37.67 29.61L29.28 22.29L22.29 29.28L29.61 37.66C29.17 38.17 28.72 38.67 28.3 39.18L18.79 33.43L13.12 41.53L21.75 48.49C21.41 49.07 21.09 49.66 20.76 50.24L10.4 46.24L6.22 55.2L15.94 60.56C15.7 61.19 15.47 61.82 15.24 62.45L4.36 60.31L1.8 69.86L12.31 73.45C12.18 74.11 12.07 74.77 11.97 75.43L0.86 75.21L0 85.04L11 86.76C11 87.09 10.98 87.43 10.98 87.76C10.98 88.09 11 88.42 11 88.76L0 90.48L0.86 100.33L11.97 100.11C12.07 100.77 12.19 101.43 12.31 102.09L1.8 105.68L4.36 115.23L15.24 113.09C15.46 113.73 15.7 114.35 15.94 114.98L6.22 120.33L10.4 129.29L20.75 125.29C21.08 125.88 21.4 126.46 21.75 127.04L13.12 133.99L18.79 142.09L28.3 136.35C28.72 136.87 29.17 137.36 29.61 137.87L22.28 146.25L29.27 153.24L37.65 145.92C38.16 146.36 38.66 146.81 39.17 147.23L33.42 156.74L41.52 162.41L48.48 153.78C49.06 154.12 49.65 154.44 50.23 154.77L46.23 165.13L55.19 169.31L60.54 159.59C61.17 159.83 61.79 160.07 62.43 160.29L60.29 171.17L69.84 173.73L73.43 163.22C74.09 163.34 74.75 163.46 75.41 163.56L75.19 174.67L85.04 175.53L86.75 164.53C87.09 164.53 87.42 164.56 87.76 164.56L87.77 164.55ZM87.77 158.62C69.63 158.62 52.54 151.83 39.37 139.49L42 136.86C58.82 152.55 81.78 157.99 102.87 153.16L103.84 156.78C98.63 157.98 93.26 158.62 87.78 158.62H87.77ZM87.77 16.9C105.91 16.9 123 23.69 136.17 36.03L133.55 38.66C121.08 27.01 104.92 20.61 87.77 20.61C82.62 20.61 77.57 21.2 72.67 22.32L71.71 18.73C76.92 17.53 82.29 16.89 87.77 16.89V16.9ZM132.45 132.44C124.91 139.98 115.92 145.2 106.37 148.12L105.35 144.31C114.24 141.55 122.61 136.67 129.65 129.63C136.69 122.59 141.57 114.22 144.33 105.33L148.19 106.37C145.2 116.11 139.87 125.03 132.46 132.43L132.45 132.44ZM152.01 107.4L155.6 108.36C152.27 119.38 146.25 129.48 137.87 137.86C129.5 146.23 119.4 152.25 108.37 155.59L107.39 151.95C117.59 148.85 127.19 143.29 135.24 135.24C143.15 127.33 148.83 117.81 152 107.41L152.01 107.4ZM51.27 100.23C57.9 93.6 68.66 93.6 75.29 100.23C81.92 106.86 81.92 117.62 75.29 124.25C68.66 130.88 57.9 130.88 51.27 124.25C44.64 117.62 44.64 106.86 51.27 100.23ZM88.1 123.02C91.74 123.02 94.69 125.97 94.69 129.61C94.69 133.25 91.74 136.2 88.1 136.2C84.46 136.2 81.51 133.25 81.51 129.61C81.51 125.97 84.46 123.02 88.1 123.02ZM78.25 97.27C72.99 92.01 72.99 83.49 78.25 78.23C83.51 72.97 92.03 72.97 97.29 78.23C102.55 83.49 102.55 92.01 97.29 97.27C92.03 102.53 83.51 102.53 78.25 97.27ZM51.27 75.27C44.64 68.64 44.64 57.89 51.27 51.25C57.9 44.61 68.66 44.61 75.29 51.25C81.92 57.88 81.92 68.63 75.29 75.27C68.66 81.9 57.9 81.9 51.27 75.27ZM124.26 51.25C130.89 57.88 130.89 68.63 124.26 75.27C117.63 81.9 106.87 81.9 100.24 75.27C93.61 68.64 93.61 57.88 100.24 51.25C106.87 44.61 117.63 44.61 124.26 51.25ZM94.02 46.55C94.02 50.19 91.07 53.14 87.43 53.14C83.79 53.14 80.84 50.19 80.84 46.55C80.84 42.91 83.79 39.96 87.43 39.96C91.07 39.96 94.02 42.91 94.02 46.55ZM52.82 88.41C52.82 92.05 49.87 95 46.23 95C42.59 95 39.64 92.05 39.64 88.41C39.64 84.77 42.59 81.82 46.23 81.82C49.87 81.82 52.82 84.77 52.82 88.41ZM122.7 87.75C122.7 84.11 125.65 81.16 129.29 81.16C132.93 81.16 135.88 84.11 135.88 87.75C135.88 91.39 132.93 94.34 129.29 94.34C125.65 94.34 122.7 91.39 122.7 87.75ZM100.24 100.23C106.87 93.6 117.63 93.6 124.26 100.23C130.89 106.86 130.89 117.62 124.26 124.25C117.63 130.88 106.87 130.88 100.24 124.25C93.61 117.62 93.61 106.86 100.24 100.23ZM145.53 100.8C149.67 82.37 144.92 62.34 131.26 47.57L134.06 44.77C144.96 56.49 150.95 71.66 150.95 87.75C150.95 92.55 150.4 97.26 149.37 101.83L145.53 100.8ZM127.94 44.25C113.17 30.59 93.15 25.84 74.71 29.98L73.68 26.14C78.25 25.1 82.96 24.55 87.76 24.55C103.85 24.55 119.02 30.54 130.74 41.44L127.94 44.24V44.25ZM68.11 23.51C57.71 26.67 48.18 32.36 40.28 40.27C32.37 48.18 26.68 57.71 23.52 68.11L19.93 67.15C23.26 56.13 29.28 46.03 37.66 37.65C46.03 29.28 56.13 23.26 67.16 19.92L68.12 23.51H68.11ZM43.07 43.06C50.47 35.66 59.39 30.32 69.13 27.33L70.16 31.19C61.27 33.94 52.9 38.83 45.87 45.86C38.83 52.9 33.95 61.27 31.19 70.16L27.33 69.13C30.32 59.39 35.65 50.47 43.06 43.06H43.07ZM29.99 74.7C25.84 93.13 30.6 113.16 44.26 127.93L41.46 130.73C30.56 119.01 24.57 103.84 24.57 87.75C24.57 82.95 25.12 78.24 26.15 73.68L29.99 74.71V74.7ZM47.58 131.25C62.35 144.91 82.37 149.66 100.81 145.51L101.83 149.32C82.07 153.8 60.56 148.71 44.78 134.05L47.58 131.25ZM156.78 103.81L153.19 102.85C154.31 97.95 154.91 92.9 154.91 87.75C154.91 70.6 148.51 54.44 136.86 41.97L139.49 39.35C151.84 52.52 158.62 69.61 158.62 87.75C158.62 93.23 157.98 98.61 156.78 103.81ZM18.75 71.7L22.34 72.66C21.22 77.56 20.63 82.61 20.63 87.76C20.63 104.91 27.03 121.07 38.68 133.54L36.06 136.16C23.71 122.99 16.93 105.9 16.93 87.75C16.93 82.27 17.57 76.9 18.77 71.69L18.75 71.7Z" fill="#343434"/>
<path d="M92.16 92.1496C94.59 89.7196 94.59 85.7896 92.16 83.3596C89.73 80.9296 85.8 80.9296 83.37 83.3596C80.94 85.7896 80.94 89.7196 83.37 92.1496C85.8 94.5796 89.73 94.5796 92.16 92.1496Z" fill="#343434"/>
</svg>
