<svg width="117" height="117" viewBox="0 0 117 117" fill="none" xmlns="http://www.w3.org/2000/svg">
<path d="M41.97 114.34L53.92 116.45L56.13 109.29C56.76 109.31 57.39 109.34 58.03 109.34C58.67 109.34 59.3 109.31 59.93 109.29L62.14 116.45L74.09 114.34L73.71 106.87C74.92 106.48 76.11 106.04 77.28 105.57L81.8 111.54L92.31 105.47L89.39 98.55C90.39 97.77 91.36 96.97 92.3 96.12L98.6 100.19L106.4 90.9L101.29 85.4C101.97 84.33 102.6 83.24 103.19 82.12L110.49 83.79L114.64 72.39L107.98 68.98C108.25 67.75 108.46 66.5 108.63 65.23L116.06 64.3V52.17L108.63 51.24C108.46 49.98 108.24 48.73 107.98 47.5L114.64 44.09L110.49 32.69L103.19 34.36C102.6 33.24 101.96 32.15 101.29 31.08L106.39 25.58L98.59 16.28L92.29 20.35C91.35 19.5 90.38 18.7 89.38 17.92L92.3 11L81.79 4.93001L77.27 10.9C76.1 10.42 74.91 9.98 73.7 9.59L74.07 2.12001L62.12 0.0100098L59.92 7.16C59.29 7.14 58.66 7.11 58.02 7.11C57.38 7.11 56.75 7.13001 56.12 7.15001L53.92 0L41.97 2.11L42.34 9.56C41.13 9.95 39.93 10.38 38.75 10.86L34.26 4.92L23.75 10.99L26.66 17.88C25.66 18.66 24.68 19.46 23.74 20.32L17.47 16.27L9.67 25.57L14.75 31.04C14.07 32.12 13.42 33.21 12.83 34.34L5.57001 32.68L1.42 44.08L8.07001 47.49C7.81001 48.73 7.59 49.98 7.41 51.24L0 52.16V64.3L7.42 65.23C7.6 66.49 7.81 67.74 8.08 68.98L1.43001 72.39L5.58 83.79L12.88 82.12C13.48 83.24 14.11 84.33 14.79 85.4L9.69 90.9L17.49 100.2L23.79 96.13C24.73 96.98 25.7 97.78 26.7 98.56L23.78 105.48L34.29 111.55L38.81 105.58C39.98 106.06 41.17 106.49 42.38 106.88L42 114.35L41.97 114.34ZM58.02 11.59C61.99 11.59 65.84 12.09 69.53 13.03L58.03 38.57L46.51 13.01C50.23 12.07 54.09 11.59 58.02 11.59ZM58.02 71.93C50.46 71.93 44.33 65.8 44.33 58.24C44.33 50.68 50.46 44.55 58.02 44.55C65.58 44.55 71.71 50.68 71.71 58.24C71.71 65.8 65.58 71.93 58.02 71.93ZM102.91 70.89C100.77 78.48 96.76 85.29 91.4 90.78L75.08 68.09L102.92 70.89H102.91ZM75.06 48.42L91.4 25.71C96.76 31.21 100.77 38.02 102.91 45.61L75.05 48.43L75.06 48.42ZM40.98 48.38L13.11 45.6C15.19 38.17 19.1 31.35 24.63 25.69L40.98 48.39V48.38ZM40.94 68.09L24.64 90.78C19.28 85.28 15.27 78.47 13.13 70.89L40.95 68.09H40.94ZM58.01 77.96L69.52 103.46C65.84 104.4 61.99 104.9 58.02 104.9C54.05 104.9 50.2 104.4 46.52 103.46L58.01 77.96Z" fill="#E4120E"/>
<path d="M58.02 64.7397C61.62 64.7397 64.53 61.8297 64.53 58.2297C64.53 54.6297 61.61 51.7197 58.02 51.7197C54.43 51.7197 51.51 54.6297 51.51 58.2297C51.51 61.8297 54.43 64.7497 58.02 64.7397Z" fill="#E4120E"/>
</svg>
