<svg width="123" height="123" viewBox="0 0 123 123" fill="none" xmlns="http://www.w3.org/2000/svg">
<path d="M57.76 122.38H64.66L65.16 114.91C65.65 114.87 66.15 114.85 66.64 114.8L68.43 122.05L75.22 120.85L74.42 113.42C74.9 113.3 75.37 113.16 75.85 113.02L78.88 119.86L85.36 117.5L83.28 110.3C83.73 110.09 84.19 109.9 84.63 109.68L88.8 115.89L94.78 112.44L91.48 105.71C91.89 105.43 92.28 105.14 92.68 104.85L97.88 110.26L103.16 105.82L98.73 99.76C99.08 99.42 99.43 99.07 99.77 98.72L105.84 103.15L110.27 97.86L104.86 92.66C105.15 92.26 105.44 91.86 105.72 91.45L112.45 94.75L115.9 88.77L109.69 84.6C109.91 84.15 110.11 83.7 110.31 83.25L117.51 85.33L119.87 78.85L113.03 75.82C113.17 75.34 113.3 74.87 113.43 74.39L120.86 75.19L122.06 68.39L114.81 66.6C114.86 66.11 114.89 65.61 114.92 65.12L122.39 64.62V57.72L114.92 57.22C114.88 56.73 114.86 56.23 114.81 55.74L122.06 53.95L120.86 47.16L113.45 47.96C113.33 47.48 113.19 47 113.05 46.52L119.88 43.5L117.52 37.02L110.35 39.1C110.14 38.65 109.94 38.19 109.72 37.74L115.91 33.59L112.46 27.61L105.75 30.9C105.47 30.49 105.18 30.09 104.89 29.68L110.28 24.5L105.85 19.22L99.8 23.64C99.63 23.46 99.46 23.28 99.29 23.1C99.11 22.92 98.93 22.76 98.75 22.59L103.17 16.54L97.88 12.11L92.7 17.5C92.3 17.21 91.89 16.92 91.48 16.64L94.77 9.92999L88.79 6.48L84.64 12.67C84.19 12.45 83.74 12.25 83.28 12.04L85.36 4.87L78.88 2.50999L75.86 9.34C75.38 9.2 74.9 9.05999 74.42 8.93999L75.22 1.53L68.43 0.329994L66.64 7.57999C66.15 7.52999 65.65 7.49999 65.16 7.46999L64.66 0H57.76L57.26 7.46999C56.77 7.50999 56.27 7.52999 55.78 7.57999L53.99 0.329994L47.2 1.53L47.99 8.93999C47.51 9.05999 47.03 9.2 46.55 9.34L43.53 2.50999L37.05 4.87L39.12 12.04C38.66 12.25 38.21 12.45 37.76 12.67L33.6 6.48L27.62 9.92999L30.91 16.64C30.5 16.92 30.1 17.21 29.69 17.5L24.51 12.11L19.23 16.54L23.64 22.59C23.46 22.76 23.28 22.93 23.1 23.1C22.93 23.27 22.77 23.46 22.59 23.63L16.54 19.22L12.1 24.5L17.49 29.68C17.2 30.08 16.91 30.49 16.63 30.9L9.92001 27.61L6.47 33.58L12.66 37.74C12.44 38.19 12.24 38.64 12.04 39.1L4.87 37.03L2.51001 43.51L9.34 46.53C9.2 47.01 9.06 47.49 8.94 47.97L1.53 47.17L0.330017 53.96L7.58002 55.75C7.53002 56.24 7.5 56.74 7.47 57.23L0 57.73V64.63L7.47 65.13C7.51 65.62 7.53002 66.12 7.58002 66.61L0.320007 68.4L1.52002 75.19L8.95001 74.39C9.07001 74.87 9.21 75.35 9.34 75.82L2.5 78.85L4.86002 85.33L12.06 83.25C12.26 83.7 12.46 84.16 12.68 84.6L6.47 88.77L9.91 94.75L16.64 91.45C16.92 91.86 17.21 92.26 17.5 92.66L12.09 97.86L16.52 103.15L22.59 98.72C22.93 99.07 23.28 99.42 23.63 99.76L19.2 105.82L24.49 110.26L29.69 104.85C30.09 105.14 30.49 105.43 30.89 105.71L27.59 112.44L33.57 115.89L37.74 109.68C38.19 109.89 38.64 110.09 39.09 110.3L37 117.5L43.49 119.86L46.52 113.02C47 113.16 47.47 113.29 47.95 113.42L47.15 120.85L53.95 122.05L55.74 114.8C56.23 114.85 56.72 114.88 57.22 114.91L57.72 122.38H57.76ZM61.21 110.38C34.1 110.38 12.05 88.32 12.05 61.21C12.05 48.08 17.16 35.73 26.45 26.45C35.74 17.16 48.08 12.05 61.21 12.05C74.34 12.05 86.69 17.16 95.98 26.45C105.27 35.74 110.38 48.08 110.38 61.21C110.38 88.32 88.32 110.37 61.21 110.38Z" fill="#767676"/>
<path d="M108.05 62.6H92.04C91.58 72.94 86.03 81.96 77.83 87.21L85.85 101.09C98.83 93.06 107.58 78.87 108.06 62.6H108.05Z" fill="#767676"/>
<path d="M61.21 92.07C56.09 92.07 51.25 90.82 47 88.6L38.98 102.49C45.6 106.06 53.16 108.09 61.21 108.09C69.26 108.09 76.83 106.06 83.44 102.49L75.42 88.6C71.16 90.81 66.34 92.07 61.21 92.07Z" fill="#767676"/>
<path d="M92.04 59.83H108.05C107.57 43.56 98.82 29.37 85.84 21.34L77.8201 35.22C86.0201 40.47 91.57 49.49 92.03 59.83H92.04Z" fill="#767676"/>
<path d="M30.39 62.6H14.37C14.84 78.87 23.6 93.06 36.58 101.09L44.59 87.21C36.39 81.96 30.84 72.94 30.38 62.6H30.39Z" fill="#767676"/>
<path d="M61.21 30.36C66.34 30.36 71.17 31.62 75.42 33.83L83.44 19.94C76.83 16.37 69.26 14.34 61.21 14.34C53.16 14.34 45.6 16.37 38.98 19.94L47 33.82C51.25 31.61 56.08 30.35 61.21 30.35V30.36Z" fill="#767676"/>
<path d="M44.6 35.22L36.58 21.34C23.6 29.37 14.84 43.56 14.37 59.83H30.39C30.85 49.48 36.4 40.47 44.6 35.22Z" fill="#767676"/>
<path d="M61.21 89.53C76.82 89.53 89.52 76.83 89.52 61.22C89.52 45.61 76.82 32.91 61.21 32.91C45.6 32.91 32.9 45.61 32.9 61.22C32.9 76.83 45.6 89.53 61.21 89.53ZM35.2501 61.22C35.2501 46.9 46.9 35.25 61.21 35.25C75.52 35.25 87.17 46.9 87.17 61.22C87.17 75.54 75.52 87.19 61.21 87.19C46.9 87.19 35.2501 75.54 35.2501 61.22Z" fill="#767676"/>
<path d="M81.74 61.21C81.74 49.88 72.55 40.69 61.22 40.69C49.89 40.69 40.7 49.88 40.7 61.21C40.7 72.54 49.89 81.73 61.22 81.73C72.55 81.73 81.74 72.54 81.74 61.21ZM52.89 61.21C52.89 56.61 56.62 52.88 61.22 52.88C65.82 52.88 69.55 56.61 69.55 61.21C69.55 65.81 65.82 69.54 61.22 69.54C56.62 69.54 52.89 65.81 52.89 61.21Z" fill="#767676"/>
</svg>
