<svg width="147" height="148" viewBox="0 0 147 148" fill="none" xmlns="http://www.w3.org/2000/svg">
<path d="M53.1817 144.728L68.3039 147.39L70.5756 140.032C71.5419 140.066 72.5252 140.1 73.5084 140.1C74.4917 140.1 75.4751 140.066 76.4414 140.032L78.6961 147.39L93.8183 144.728L93.4283 137.049C95.3101 136.455 97.141 135.777 98.938 135.031L103.583 141.168L116.891 133.488L113.891 126.368C115.433 125.181 116.942 123.927 118.366 122.621L124.842 126.809L134.726 115.043L129.47 109.381C130.522 107.737 131.488 106.058 132.403 104.329L139.931 106.041L145.186 91.6143L138.337 88.105C138.761 86.2063 139.1 84.2906 139.354 82.341L147 81.3916V66.0322L139.354 65.0828C139.1 63.1332 138.761 61.2005 138.337 59.3187L145.186 55.8095L139.931 41.3655L132.42 43.0777C131.505 41.3485 130.539 39.6532 129.487 38.0088L134.743 32.3464L124.859 20.581L118.366 24.7684C116.925 23.4461 115.433 22.2085 113.891 21.0218L116.891 13.9015L103.583 6.22177L98.938 12.3588C97.141 11.6128 95.3101 10.9347 93.4283 10.3414L93.8183 2.66163L78.6961 0L76.4244 7.35763C75.4581 7.30677 74.4748 7.28981 73.4916 7.28981C72.5083 7.28981 71.5249 7.32372 70.5586 7.35763L68.3039 0.016953L53.1817 2.67858L53.5717 10.3244C51.6899 10.9178 49.842 11.562 48.028 12.3249L43.4168 6.23873L30.1086 13.9185L33.0924 21.0048C31.5497 22.1916 30.0408 23.4461 28.5998 24.7684L22.1407 20.598L12.257 32.3634L17.4786 37.9918C16.4106 39.6532 15.4273 41.3485 14.5288 43.0777L7.0694 41.3655L1.81399 55.8095L8.64612 59.3018C8.22229 61.2005 7.88317 63.1332 7.62888 65.0828L0 66.0322V81.3916L7.62888 82.341C7.88317 84.2906 8.22229 86.2233 8.64612 88.122L1.79702 91.6313L7.05253 106.075L14.5627 104.346C15.4612 106.075 16.4445 107.771 17.4956 109.415L12.2402 115.077L22.1069 126.843L28.5998 122.655C30.0408 123.961 31.5327 125.215 33.0754 126.402L30.0747 133.522L43.3829 141.202L48.028 135.065C49.8251 135.811 51.656 136.489 53.5378 137.082L53.1479 144.762L53.1817 144.728ZM73.5084 131.03C41.891 131.03 16.1733 105.312 16.1733 73.6949C16.1733 58.3863 22.1407 43.9762 32.9737 33.1432C43.8067 22.3102 58.1998 16.3427 73.5084 16.3427C105.126 16.3427 130.844 42.0605 130.844 73.678C130.844 105.295 105.126 131.013 73.5084 131.013V131.03Z" fill="#767676"/>
<path d="M122.52 73.6949C122.52 46.6718 100.532 24.6837 73.4916 24.6837C60.4038 24.6837 48.0789 29.7696 38.8225 39.0259C29.5662 48.2823 24.4802 60.5902 24.4802 73.6949C24.4802 86.7997 29.5831 99.1076 38.8395 108.364C48.0959 117.62 60.4038 122.723 73.4916 122.723C100.515 122.723 122.503 100.735 122.52 73.7119V73.6949ZM46.3158 100.871C39.0599 93.6148 35.0589 83.9685 35.0589 73.6949C35.0589 63.4214 39.0599 53.7751 46.3158 46.5192C53.5717 39.2633 63.218 35.2624 73.4916 35.2793C94.6829 35.2793 111.924 52.5206 111.924 73.6949C111.924 94.8863 94.6659 112.128 73.4916 112.128C63.218 112.128 53.5717 108.127 46.3158 100.871Z" fill="#767676"/>
</svg>
