<svg width="262" height="262" viewBox="0 0 262 262" fill="none" xmlns="http://www.w3.org/2000/svg">
<path d="M123.574 262H138.345L139.466 245.408C140.465 245.327 141.464 245.273 142.464 245.179L146.447 261.298L161.002 258.733L159.233 242.222C160.206 241.979 161.164 241.696 162.123 241.426L168.847 256.627L182.728 251.578L178.11 235.593C179.014 235.175 179.933 234.783 180.837 234.351L190.1 248.149L202.9 240.764L195.568 225.806C196.392 225.239 197.189 224.658 197.999 224.078L209.557 236.106L220.872 226.602L211.029 213.129C211.731 212.44 212.446 211.738 213.135 211.023L226.61 220.865L236.102 209.551L224.072 197.995C224.652 197.185 225.247 196.389 225.8 195.565L240.761 202.896L248.147 190.097L234.347 180.836C234.779 179.945 235.171 179.027 235.589 178.109L251.576 182.74L256.626 168.848L241.409 162.125C241.679 161.166 241.962 160.208 242.219 159.236L258.732 161.004L261.298 146.451L245.176 142.468C245.271 141.483 245.338 140.47 245.406 139.485L262 138.364V123.595L245.406 122.475C245.338 121.476 245.271 120.477 245.176 119.491L261.298 115.508L258.732 100.955L242.233 102.737C241.99 101.765 241.706 100.807 241.422 99.8481L256.64 93.125L251.59 79.2467L235.603 83.8773C235.184 82.9727 234.793 82.0547 234.361 81.1502L248.16 71.889L240.774 59.1042L225.814 66.4349C225.26 65.6114 224.666 64.8149 224.085 64.0048L236.116 52.4486L226.624 41.1354L213.148 50.9771C212.46 50.2616 211.758 49.573 211.042 48.871L220.885 35.3977L209.57 25.907L198.012 37.9358C197.202 37.3553 196.405 36.7613 195.582 36.2078L202.927 21.2494L190.127 13.8648L180.864 27.6621C179.973 27.2301 179.041 26.8251 178.137 26.4201L182.768 10.4222L168.888 5.37311L162.163 20.5879C161.205 20.3179 160.246 20.0344 159.274 19.7914L161.056 3.28057L146.501 0.715513L142.518 16.8349C141.518 16.7404 140.519 16.6864 139.533 16.6054L138.413 0H123.641L122.521 16.6054C121.521 16.6729 120.522 16.7269 119.536 16.8349L115.553 0.715513L100.998 3.28057L102.78 19.7914C101.808 20.0344 100.849 20.3179 99.8905 20.5879L93.1663 5.37311L79.2859 10.4222L83.9173 26.4066C83.0126 26.8116 82.0944 27.2166 81.1897 27.6486L71.9271 13.8513L59.1269 21.2359L66.4722 36.1943C65.6485 36.7613 64.8519 37.3418 64.0418 37.9223L52.4837 25.8935L41.1687 35.3842L51.0119 48.8575C50.2963 49.546 49.5942 50.2481 48.9056 50.9636L35.4302 41.1219L25.9245 52.4351L37.9552 63.9913C37.3746 64.8014 36.7805 65.5979 36.2269 66.4214L21.2662 59.0772L13.8804 71.8755L27.6799 81.1367C27.2478 82.0412 26.8427 82.9593 26.4376 83.8638L10.4373 79.2332L5.38743 93.125L20.6046 99.8481C20.3346 100.807 20.051 101.765 19.7945 102.737L3.28107 100.955L0.715624 115.508L16.8375 119.491C16.7429 120.477 16.6754 121.489 16.6079 122.475L0 123.595V138.364L16.6079 139.485C16.6754 140.484 16.7294 141.483 16.8375 142.482L0.702109 146.465L3.26757 161.018L19.781 159.249C20.024 160.221 20.3076 161.18 20.5911 162.138L5.37394 168.862L10.4238 182.753L26.4106 178.123C26.8292 179.027 27.2208 179.945 27.6529 180.85L13.8534 190.111L21.2392 202.909L36.1863 195.579C36.7399 196.402 37.3341 197.199 37.9147 198.009L25.884 209.565L35.3897 220.878L48.8651 211.036C49.5537 211.738 50.2558 212.44 50.9714 213.142L41.1282 226.616L52.4432 236.106L64.0013 224.078C64.8114 224.658 65.608 225.252 66.4317 225.806L59.0864 240.764L71.8866 248.149L81.1492 234.351C82.0404 234.783 82.9585 235.188 83.8767 235.593L79.2454 251.578L93.1394 256.627L99.8635 241.426C100.822 241.696 101.781 241.979 102.753 242.222L100.971 258.733L115.526 261.298L119.509 245.179C120.495 245.273 121.508 245.327 122.493 245.408L123.614 262H123.574ZM159.152 188.464C159.152 204.03 146.528 216.653 130.96 216.653C115.391 216.653 102.767 204.03 102.767 188.464C102.767 172.898 115.391 143.873 130.96 143.873C146.528 143.873 159.152 172.898 159.152 188.464ZM80.1096 182.537C76.2614 178.69 76.2614 172.453 80.1096 168.605C83.9577 164.757 90.1959 164.757 94.044 168.605C97.8922 172.453 97.8922 178.69 94.044 182.537C90.1959 186.385 83.9577 186.385 80.1096 182.537ZM73.4799 102.805C89.0481 102.805 118.078 115.427 118.078 130.993C118.078 146.559 89.0481 159.182 73.4799 159.182C57.9117 159.182 45.2869 146.559 45.2869 130.993C45.2869 115.427 57.9117 102.805 73.4799 102.805ZM79.4074 94.772C75.5592 90.9244 75.5592 84.6873 79.4074 80.8397C83.2556 76.9921 89.4937 76.9921 93.3419 80.8397C97.1901 84.6873 97.1901 90.9244 93.3419 94.772C89.4937 98.6196 83.2556 98.6196 79.4074 94.772ZM102.767 73.5225C102.767 57.9567 115.391 45.334 130.96 45.334C146.528 45.334 159.152 57.9567 159.152 73.5225C159.152 89.0884 146.528 118.114 130.96 118.114C115.391 118.114 102.767 89.0884 102.767 73.5225ZM181.107 80.1377C184.955 83.9853 184.955 90.2224 181.107 94.07C177.259 97.9175 171.021 97.9175 167.173 94.07C163.325 90.2224 163.325 83.9853 167.173 80.1377C171.021 76.2901 177.259 76.2901 181.107 80.1377ZM188.426 159.168C172.857 159.168 143.827 146.546 143.827 130.98C143.827 115.414 172.857 102.791 188.426 102.791C203.994 102.791 216.619 115.414 216.619 130.98C216.619 146.546 203.994 159.168 188.426 159.168ZM130.946 140.268C125.815 140.268 121.656 136.11 121.656 130.98C121.656 125.85 125.815 121.692 130.946 121.692C136.077 121.692 140.222 125.85 140.222 130.98C140.222 136.11 136.063 140.254 130.932 140.268H130.946ZM181.796 167.903C185.644 171.751 185.644 177.988 181.796 181.835C177.948 185.683 171.71 185.683 167.861 181.835C164.013 177.988 164.013 171.751 167.861 167.903C171.71 164.055 177.948 164.055 181.796 167.903ZM229.162 134.503H236.764C235.562 170.9 215.93 202.707 186.886 220.851L183.106 214.304C209.894 197.509 227.988 168.16 229.162 134.503ZM229.162 127.483C227.974 93.827 209.881 64.4909 183.106 47.683L186.886 41.1354C215.93 59.2797 235.576 91.0729 236.764 127.483H229.162ZM177.03 44.1729C163.284 36.8693 147.608 32.7112 130.946 32.7112C114.284 32.7112 98.6078 36.8693 84.8624 44.1729L81.0817 37.6118C95.9479 29.6466 112.934 25.097 130.946 25.097C148.958 25.097 165.944 29.6331 180.81 37.5983L177.03 44.1594V44.1729ZM78.7863 47.6965C51.9976 64.5044 33.9044 93.827 32.7297 127.483H25.1414C26.3296 91.0864 45.9756 59.2797 75.0191 41.1489L78.7998 47.6965H78.7863ZM32.7297 134.503C33.9179 168.16 52.0111 197.496 78.7998 214.304L75.0191 220.851C45.9756 202.707 26.3296 170.914 25.1414 134.503H32.7297ZM84.8624 217.814C98.6078 225.131 114.284 229.289 130.946 229.289C147.608 229.289 163.284 225.131 177.03 217.827L180.824 224.388C165.944 232.353 148.972 236.889 130.96 236.889C112.947 236.889 95.9613 232.353 81.0952 224.388L84.8759 217.827L84.8624 217.814Z" fill="#767676"/>
</svg>
