<?xml version="1.0" encoding="UTF-8"?>
<!DOCTYPE svg PUBLIC "-//W3C//DTD SVG 1.1//EN" "http://www.w3.org/Graphics/SVG/1.1/DTD/svg11.dtd">
<!-- Creator: CorelDRAW 2018 (64-Bit) -->
<svg xmlns="http://www.w3.org/2000/svg" xml:space="preserve" width="946px" height="271px" version="1.1" style="shape-rendering:geometricPrecision; text-rendering:geometricPrecision; image-rendering:optimizeQuality; fill-rule:evenodd; clip-rule:evenodd"
viewBox="0 0 947.92 271.33"
 xmlns:xlink="http://www.w3.org/1999/xlink">
 <defs>
  <style type="text/css">
   <![CDATA[
    .fil3 {fill:#EE2E24}
    .fil2 {fill:white}
    .fil0 {fill:#4F4F4E;fill-rule:nonzero}
    .fil1 {fill:white;fill-rule:nonzero}
   ]]>
  </style>
 </defs>
 <g id="Слой_x0020_1">
  <metadata id="CorelCorpID_0Corel-Layer"/>
  <polygon class="fil0" points="443.77,157.51 54.77,157.51 54.77,39.21 443.77,39.21 "/>
  <polygon class="fil1" points="907.27,157.51 582.97,157.51 582.97,39.21 907.27,39.21 "/>
  <path class="fil2" d="M391.21 135.29l14.07 0 0 -66.16 25.16 0 0 -12.87 -64.27 0 0 12.87 25.04 0 0 66.16zm-98.37 -37.9l0 -28.49 16.1 0c10.37,0 17.05,4.89 17.05,14.06 0,8.59 -6.56,14.43 -17.05,14.43l-16.1 0zm-13.95 37.9l13.95 0 0 -25.39 15.62 0c17.41,0 31.71,-9.29 31.71,-27.06 0,-16.09 -11.68,-26.58 -30.04,-26.58l-31.24 0 0 79.03zm-86.09 -31.35l13.59 -31.71 13.72 31.71 -27.31 0zm-27.42 31.35l14.19 0 8.22 -19.07 37.33 0 8.1 19.07 14.67 0 -34.82 -79.62 -12.88 0 -34.81 79.62zm-95.51 0l13.83 0 0 -66.51 36.73 0 0 66.51 13.95 0 0 -79.03 -64.51 0 0 79.03zm-69.87 -135.29l543.12 0.12 -84.54 191.56 -458.58 -0.12 0 -191.56z"/>
  <path class="fil3" d="M814.38 135.29l13.71 0 0 -56.5 24.68 37.08 0.48 0 25.04 -37.32 0 56.74 13.83 0 0 -79.03 -14.79 0 -24.08 37.43 -24.09 -37.43 -14.78 0 0 79.03zm-75.6 -11.32c-15.62,0 -26.82,-12.76 -26.82,-28.13 0,-15.62 10.96,-28.25 26.7,-28.25 15.62,0 26.83,12.87 26.83,28.25 0,15.5 -10.97,28.13 -26.71,28.13zm-0.12 12.75c24.2,0 41.5,-18.71 41.5,-40.88 0,-22.53 -17.05,-41.01 -41.38,-41.01 -24.2,0 -41.49,18.72 -41.49,41.01 0,22.41 17.05,40.88 41.37,40.88zm-137.24 -1.43l13.95 0 0 -22.88 12.28 -12.64 27.07 35.52 16.81 0 -34.34 -45.06 32.91 -33.97 -17.05 0 -37.68 39.7 0 -39.7 -13.95 0 0 79.03zm346.5 -135.29l0 191.56 -473.96 0 84.54 -191.56 389.42 0z"/>
  <path class="fil1" d="M63.05 227.3l10.24 0c4.76,0 8.19,0.69 10.31,2.08 2.11,1.38 3.17,3.57 3.17,6.56 0,2.02 -0.52,3.69 -1.55,5.03 -1.04,1.34 -2.54,2.18 -4.49,2.53l0 0.23c2.42,0.46 4.2,1.36 5.35,2.71 1.13,1.34 1.71,3.16 1.71,5.46 0,3.09 -1.08,5.52 -3.25,7.27 -2.16,1.76 -5.17,2.64 -9.02,2.64l-12.47 0 0 -34.51zm5.65 14.26l5.42 0c2.36,0 4.09,-0.37 5.16,-1.12 1.09,-0.75 1.63,-2.02 1.63,-3.81 0,-1.62 -0.58,-2.79 -1.75,-3.51 -1.17,-0.72 -3.03,-1.08 -5.58,-1.08l-4.88 0 0 9.52zm0 4.59l0 10.92 5.99 0c2.36,0 4.14,-0.45 5.35,-1.35 1.2,-0.91 1.8,-2.34 1.8,-4.29 0,-1.79 -0.62,-3.12 -1.85,-3.99 -1.22,-0.86 -3.08,-1.29 -5.59,-1.29l-5.7 0zm42.79 -14.5c-3.24,0 -5.79,1.15 -7.65,3.44 -1.86,2.3 -2.78,5.47 -2.78,9.51 0,4.23 0.89,7.43 2.68,9.6 1.78,2.17 4.36,3.26 7.75,3.26 1.46,0 2.88,-0.15 4.25,-0.44 1.37,-0.29 2.8,-0.67 4.27,-1.12l0 4.85c-2.71,1.03 -5.77,1.54 -9.2,1.54 -5.06,0 -8.93,-1.53 -11.64,-4.59 -2.71,-3.06 -4.06,-7.44 -4.06,-13.14 0,-3.58 0.65,-6.73 1.97,-9.42 1.31,-2.69 3.21,-4.75 5.7,-6.18 2.49,-1.43 5.4,-2.14 8.76,-2.14 3.52,0 6.79,0.74 9.77,2.21l-2.03 4.7c-1.16,-0.56 -2.4,-1.04 -3.69,-1.45 -1.3,-0.42 -2.67,-0.63 -4.1,-0.63zm37.3 30.16l-19.51 0 0 -34.51 19.51 0 0 4.78 -13.87 0 0 9.38 13 0 0 4.74 -13 0 0 10.82 13.87 0 0 4.79zm17.59 -4.84l2.67 0c2.28,-4.17 4.19,-8.85 5.73,-14.05 1.54,-5.19 2.53,-10.39 2.98,-15.62l17.81 0 0 29.67 4.46 0 0 14.36 -5.43 0 0 -9.52 -22.79 0 0 9.52 -5.43 0 0 -14.36zm16.1 -24.79c-0.35,3.58 -1.23,7.72 -2.64,12.43 -1.42,4.72 -3.03,8.83 -4.84,12.36l14.93 0 0 -24.79 -7.45 0zm50.85 29.63l-5.64 0 0 -29.68 -9.81 0c-1.25,10.07 -2.24,16.93 -2.99,20.56 -0.74,3.63 -1.8,6.16 -3.14,7.59 -1.36,1.41 -3.15,2.11 -5.39,2.06 -1.15,0 -2.24,-0.19 -3.28,-0.59l0 -4.69c0.9,0.4 1.77,0.59 2.62,0.59 1.13,0 2.02,-0.68 2.65,-2.04 0.64,-1.36 1.34,-4.37 2.11,-9.03 0.76,-4.65 1.66,-11.08 2.72,-19.28l20.15 0 0 34.51zm21.86 -13.83l-8.55 13.83 -6.43 0 9.72 -15.12c-4.4,-1.53 -6.61,-4.74 -6.61,-9.64 0,-3.16 1.09,-5.58 3.28,-7.25 2.19,-1.66 5.41,-2.5 9.66,-2.5l10.35 0 0 34.51 -5.66 0 0 -13.83 -5.76 0zm5.76 -15.94l-4.48 0c-2.37,0 -4.2,0.41 -5.47,1.25 -1.26,0.85 -1.9,2.22 -1.9,4.12 0,1.85 0.61,3.29 1.85,4.33 1.22,1.04 3.13,1.56 5.71,1.56l4.29 0 0 -11.26zm29.14 -4.74l10.24 0c4.75,0 8.18,0.69 10.3,2.08 2.12,1.38 3.18,3.57 3.18,6.56 0,2.02 -0.52,3.69 -1.56,5.03 -1.04,1.34 -2.54,2.18 -4.49,2.53l0 0.23c2.43,0.46 4.21,1.36 5.35,2.71 1.14,1.34 1.71,3.16 1.71,5.46 0,3.09 -1.08,5.52 -3.25,7.27 -2.15,1.76 -5.17,2.64 -9.02,2.64l-12.46 0 0 -34.51zm5.65 14.26l5.42 0c2.36,0 4.08,-0.37 5.16,-1.12 1.09,-0.75 1.63,-2.02 1.63,-3.81 0,-1.62 -0.58,-2.79 -1.75,-3.51 -1.17,-0.72 -3.03,-1.08 -5.58,-1.08l-4.88 0 0 9.52zm0 4.59l0 10.92 5.98 0c2.36,0 4.14,-0.45 5.35,-1.35 1.2,-0.91 1.81,-2.34 1.81,-4.29 0,-1.79 -0.62,-3.12 -1.85,-3.99 -1.22,-0.86 -3.08,-1.29 -5.59,-1.29l-5.7 0zm49.5 15.66l-3.45 -9.57 -13.18 0 -3.38 9.57 -5.94 0 12.9 -34.66 6.14 0 12.91 34.66 -6 0zm-4.93 -14.46l-3.23 -9.39c-0.24,-0.63 -0.56,-1.62 -0.98,-2.97 -0.42,-1.35 -0.7,-2.34 -0.86,-2.98 -0.43,1.94 -1.05,4.05 -1.86,6.36l-3.12 8.98 10.05 0zm41.09 9.62l12.41 0 0 -29.67 5.71 0 0 34.51 -41.89 0 0 -34.51 5.65 0 0 29.67 12.41 0 0 -29.67 5.71 0 0 29.67zm48.59 4.84l-19.52 0 0 -34.51 19.52 0 0 4.78 -13.87 0 0 9.38 12.99 0 0 4.74 -12.99 0 0 10.82 13.87 0 0 4.79zm29.78 -34.51l0 4.83 -14.83 0 0 29.68 -5.65 0 0 -34.51 20.48 0zm37.13 17.21c0,5.63 -1.41,9.99 -4.22,13.11 -2.81,3.12 -6.79,4.67 -11.93,4.67 -5.2,0 -9.2,-1.55 -12,-4.64 -2.79,-3.09 -4.19,-7.48 -4.19,-13.18 0,-5.7 1.41,-10.07 4.22,-13.13 2.81,-3.05 6.81,-4.57 12.02,-4.57 5.13,0 9.1,1.54 11.89,4.64 2.8,3.1 4.21,7.47 4.21,13.1zm-26.34 -0.01c0,4.25 0.86,7.47 2.57,9.66 1.72,2.2 4.26,3.3 7.62,3.3 3.36,0 5.88,-1.09 7.59,-3.26 1.7,-2.17 2.55,-5.4 2.55,-9.7 0,-4.23 -0.84,-7.43 -2.53,-9.62 -1.69,-2.19 -4.21,-3.28 -7.56,-3.28 -3.38,0 -5.93,1.09 -7.66,3.28 -1.72,2.19 -2.58,5.39 -2.58,9.62zm69.55 17.31l-3.45 -9.57 -13.19 0 -3.37 9.57 -5.94 0 12.9 -34.66 6.14 0 12.9 34.66 -5.99 0zm-4.93 -14.46l-3.23 -9.39c-0.24,-0.63 -0.57,-1.62 -0.98,-2.97 -0.42,-1.35 -0.7,-2.34 -0.87,-2.98 -0.42,1.94 -1.04,4.05 -1.86,6.36l-3.11 8.98 10.05 0zm17.32 -20.05l10.24 0c4.75,0 8.18,0.69 10.3,2.08 2.12,1.38 3.18,3.57 3.18,6.56 0,2.02 -0.52,3.69 -1.56,5.03 -1.04,1.34 -2.54,2.18 -4.49,2.53l0 0.23c2.43,0.46 4.21,1.36 5.35,2.71 1.14,1.34 1.71,3.16 1.71,5.46 0,3.09 -1.08,5.52 -3.24,7.27 -2.16,1.76 -5.18,2.64 -9.03,2.64l-12.46 0 0 -34.51zm5.65 14.26l5.42 0c2.36,0 4.08,-0.37 5.16,-1.12 1.09,-0.75 1.63,-2.02 1.63,-3.81 0,-1.62 -0.58,-2.79 -1.76,-3.51 -1.16,-0.72 -3.02,-1.08 -5.57,-1.08l-4.88 0 0 9.52zm0 4.59l0 10.92 5.98 0c2.36,0 4.14,-0.45 5.35,-1.35 1.2,-0.91 1.81,-2.34 1.81,-4.29 0,-1.79 -0.62,-3.12 -1.85,-3.99 -1.22,-0.86 -3.08,-1.29 -5.59,-1.29l-5.7 0zm40.02 15.66l-5.64 0 0 -29.68 -10.15 0 0 -4.83 25.94 0 0 4.83 -10.15 0 0 29.68zm46.94 -17.3c0,5.63 -1.41,9.99 -4.21,13.11 -2.81,3.12 -6.79,4.67 -11.93,4.67 -5.2,0 -9.21,-1.55 -12,-4.64 -2.79,-3.09 -4.19,-7.48 -4.19,-13.18 0,-5.7 1.41,-10.07 4.21,-13.13 2.81,-3.05 6.82,-4.57 12.03,-4.57 5.12,0 9.09,1.54 11.89,4.64 2.8,3.1 4.2,7.47 4.2,13.1zm-26.33 -0.01c0,4.25 0.85,7.47 2.57,9.66 1.72,2.2 4.25,3.3 7.62,3.3 3.35,0 5.88,-1.09 7.59,-3.26 1.7,-2.17 2.55,-5.4 2.55,-9.7 0,-4.23 -0.84,-7.43 -2.54,-9.62 -1.68,-2.19 -4.2,-3.28 -7.55,-3.28 -3.38,0 -5.94,1.09 -7.66,3.28 -1.72,2.19 -2.58,5.39 -2.58,9.62zm58.93 6.91c0,6.93 -4.44,10.4 -13.31,10.4l-10.04 0 0 -34.51 21.06 0 0 4.83 -15.41 0 0 9.18 4.1 0c9.06,0 13.6,3.37 13.6,10.1zm-17.7 5.66l4.06 0c2.7,0 4.69,-0.44 5.94,-1.34 1.26,-0.88 1.89,-2.32 1.89,-4.3 0,-1.9 -0.63,-3.28 -1.9,-4.11 -1.27,-0.85 -3.47,-1.27 -6.61,-1.27l-3.38 0 0 11.02zm26.4 -29.77l5.17 0 0 17.94c0,1.87 -0.04,3.76 -0.14,5.68 -0.09,1.9 -0.16,3.2 -0.21,3.88l0.21 0 17.63 -27.5 6.58 0 0 34.51 -5.19 0 0 -17.8c0,-2.72 0.15,-6.03 0.45,-9.91l-0.19 0 -17.69 27.71 -6.62 0 0 -34.51zm62.01 8.08c0,2.25 -0.75,4.09 -2.23,5.52 -1.49,1.44 -3.55,2.35 -6.18,2.74l0 0.14c3.03,0.36 5.33,1.26 6.91,2.68 1.58,1.43 2.37,3.29 2.37,5.58 0,3.22 -1.25,5.72 -3.76,7.54 -2.51,1.81 -5.97,2.71 -10.4,2.71 -4.6,0 -8.27,-0.62 -11.02,-1.87l0 -4.94c1.52,0.73 3.23,1.28 5.13,1.68 1.9,0.39 3.63,0.59 5.21,0.59 6.06,0 9.09,-1.99 9.09,-5.95 0,-1.82 -0.91,-3.21 -2.73,-4.17 -1.82,-0.96 -4.52,-1.43 -8.09,-1.43l-4.15 0 0 -4.55 3.89 0c6.88,0 10.32,-1.83 10.32,-5.5 0,-1.47 -0.59,-2.62 -1.76,-3.47 -1.17,-0.85 -2.81,-1.27 -4.92,-1.27 -1.67,0 -3.26,0.21 -4.77,0.66 -1.51,0.44 -3.07,1.18 -4.7,2.24l-2.57 -3.82c3.54,-2.45 7.71,-3.67 12.51,-3.67 3.65,0 6.54,0.78 8.66,2.33 2.13,1.55 3.19,3.63 3.19,6.23zm36.84 26.43l-5.68 0 0 -15.57 -15.9 0 0 15.57 -5.64 0 0 -34.51 5.64 0 0 14.11 15.9 0 0 -14.11 5.68 0 0 34.51zm30.43 0l-19.52 0 0 -34.51 19.52 0 0 4.78 -13.87 0 0 9.38 12.99 0 0 4.74 -12.99 0 0 10.82 13.87 0 0 4.79zm23.99 -30.16c-3.24,0 -5.79,1.15 -7.65,3.44 -1.86,2.3 -2.78,5.47 -2.78,9.51 0,4.23 0.89,7.43 2.68,9.6 1.78,2.17 4.36,3.26 7.75,3.26 1.46,0 2.88,-0.15 4.25,-0.44 1.37,-0.29 2.8,-0.67 4.27,-1.12l0 4.85c-2.71,1.03 -5.77,1.54 -9.2,1.54 -5.06,0 -8.93,-1.53 -11.64,-4.59 -2.7,-3.06 -4.06,-7.44 -4.06,-13.14 0,-3.58 0.65,-6.73 1.97,-9.42 1.31,-2.69 3.21,-4.75 5.7,-6.18 2.49,-1.43 5.4,-2.14 8.76,-2.14 3.52,0 6.79,0.74 9.78,2.21l-2.04 4.7c-1.16,-0.56 -2.39,-1.04 -3.69,-1.45 -1.3,-0.42 -2.67,-0.63 -4.1,-0.63zm39.19 30.16l-3.45 -9.57 -13.18 0 -3.38 9.57 -5.95 0 12.91 -34.66 6.14 0 12.9 34.66 -5.99 0zm-4.93 -14.46l-3.23 -9.39c-0.24,-0.63 -0.56,-1.62 -0.98,-2.97 -0.42,-1.35 -0.7,-2.34 -0.86,-2.98 -0.43,1.94 -1.05,4.05 -1.86,6.36l-3.12 8.98 10.05 0z"/>
 </g>
</svg>
