<svg width="261" height="253" viewBox="0 0 261 253" fill="none" xmlns="http://www.w3.org/2000/svg">
<path d="M230.78 217.467C225.426 222.903 220.36 226.408 216.358 229.178C169.313 261.732 113.648 252.243 101.817 249.925C84.3476 246.503 50.578 239.888 26.1636 212.198C-10.7746 170.305 -5.02229 104.304 23.6289 60.7355C28.8697 52.7668 56.5526 8.53483 112.818 1.44096C146.869 -2.85224 186.562 5.80593 215.307 29.0325C275.644 77.7856 271.349 176.276 230.78 217.467Z" fill="url(#paint0_linear_398_3)"/>
<g opacity="0.3">
<path d="M149.183 40.5005C149.6 40.3534 150.06 40.5605 150.213 40.9611C150.509 41.7405 150.844 42.5199 151.209 43.2767C151.394 43.6591 151.226 44.1133 150.835 44.2986C150.83 44.3005 150.825 44.3032 150.82 44.305C150.419 44.4858 149.942 44.3177 149.754 43.9298C149.37 43.1331 149.017 42.3137 148.706 41.4925C148.564 41.1173 148.742 40.704 149.106 40.5323C149.132 40.5205 149.157 40.5096 149.184 40.5005H149.183ZM153.25 46.8422C153.719 47.5435 154.223 48.2321 154.749 48.8889C155.019 49.2268 154.955 49.7128 154.605 49.9745C154.252 50.2352 153.751 50.1734 153.479 49.8346C152.926 49.1433 152.395 48.4183 151.902 47.6807C151.662 47.3219 151.769 46.8422 152.141 46.6106C152.168 46.5933 152.196 46.5788 152.224 46.5652C152.584 46.3953 153.027 46.5079 153.25 46.8413V46.8422ZM157.554 51.9294C158.171 52.5108 158.822 53.0731 159.489 53.6018C159.831 53.8734 159.881 54.3603 159.6 54.691C159.318 55.0207 158.814 55.0689 158.471 54.7982C157.768 54.2422 157.083 53.649 156.433 53.0377C156.116 52.7388 156.11 52.2491 156.42 51.943C156.486 51.8776 156.561 51.8267 156.641 51.7886C156.937 51.6487 157.305 51.695 157.555 51.9303L157.554 51.9294ZM162.931 55.96C163.668 56.3943 164.433 56.8022 165.205 57.1737C165.602 57.3645 165.763 57.8296 165.565 58.2111C165.367 58.5936 164.885 58.7489 164.489 58.5581C163.677 58.1666 162.871 57.7369 162.095 57.2809C161.717 57.0583 161.598 56.5823 161.829 56.2171C161.911 56.0863 162.027 55.9882 162.16 55.9255C162.398 55.8129 162.689 55.8165 162.932 55.96H162.931ZM169.104 58.7353C169.921 58.9996 170.761 59.2349 171.601 59.4329C172.031 59.5347 172.295 59.9535 172.19 60.3686C172.084 60.7838 171.65 61.0381 171.219 60.9364C170.336 60.7284 169.451 60.4813 168.592 60.2024C168.172 60.0661 167.946 59.6273 168.088 59.2222C168.158 59.0178 168.31 58.8615 168.495 58.7734C168.678 58.6871 168.896 58.6671 169.104 58.7353ZM175.76 60.1233C176.619 60.2078 177.492 60.2569 178.354 60.2705C178.797 60.2778 179.151 60.6293 179.144 61.0572C179.136 61.4842 178.772 61.8257 178.328 61.8185C177.42 61.8039 176.501 61.7521 175.597 61.6631C175.157 61.6195 174.835 61.2398 174.881 60.8147C174.91 60.5385 175.086 60.3114 175.327 60.1978C175.457 60.137 175.606 60.1079 175.76 60.1233ZM203.44 49.4912C203.781 49.7628 203.83 50.2506 203.549 50.5804C202.971 51.2562 202.355 51.9167 201.719 52.5426C201.409 52.8478 200.9 52.8523 200.584 52.5535C200.267 52.2546 200.262 51.765 200.572 51.4597C201.177 50.8647 201.762 50.2379 202.31 49.5956C202.386 49.5075 202.476 49.4394 202.576 49.3931C202.85 49.2641 203.189 49.2913 203.44 49.4912ZM182.566 60.0543C183.422 59.9526 184.284 59.8136 185.127 59.641C185.56 59.5529 185.987 59.8199 186.078 60.2378C186.17 60.6557 185.893 61.0645 185.459 61.1553C184.571 61.337 183.663 61.4833 182.762 61.5904C182.322 61.6431 181.922 61.3415 181.867 60.9173C181.824 60.5812 182.012 60.2687 182.311 60.127C182.389 60.0906 182.474 60.0652 182.565 60.0543H182.566ZM198.539 54.3022C198.809 54.641 198.743 55.127 198.392 55.3877C197.672 55.921 196.92 56.4324 196.154 56.9057C195.782 57.1383 195.284 57.032 195.045 56.6732C194.806 56.3134 194.914 55.8347 195.287 55.6039C196.014 55.1534 196.73 54.6683 197.414 54.1614C197.457 54.1287 197.504 54.1023 197.552 54.0796C197.887 53.9215 198.303 54.0069 198.54 54.3031L198.539 54.3022ZM189.184 58.5209C189.994 58.2366 190.802 57.9159 191.586 57.5652C191.988 57.3854 192.464 57.5543 192.651 57.9422C192.835 58.3247 192.667 58.778 192.276 58.9624C192.271 58.9651 192.266 58.9669 192.261 58.9697C191.436 59.3385 190.585 59.6773 189.733 59.9762C189.316 60.1215 188.856 59.9144 188.704 59.5129C188.563 59.1377 188.741 58.7253 189.105 58.5536C189.13 58.5418 189.156 58.5309 189.184 58.5209Z" fill="#BDD0FB"/>
<path d="M205.752 44.9047C205.61 44.9719 205.487 45.0791 205.404 45.2226C205.203 45.5715 204.991 45.9212 204.774 46.2637C204.543 46.6279 204.662 47.1049 205.04 47.3274C205.418 47.5509 205.912 47.4364 206.143 47.0713C206.372 46.7115 206.594 46.3427 206.806 45.9757C207.022 45.6023 206.882 45.1309 206.495 44.9228C206.257 44.7948 205.979 44.7966 205.751 44.9038L205.752 44.9047Z" fill="#BDD0FB"/>
</g>
<g opacity="0.3">
<path d="M208.365 21.4481C208.017 21.6125 207.835 21.9995 207.95 22.3684C208.071 22.7499 208.186 23.1405 208.29 23.5284C208.403 23.9417 208.84 24.1897 209.269 24.0825C209.7 23.9744 209.955 23.552 209.844 23.1387C209.733 22.7299 209.613 22.3184 209.486 21.9169C209.357 21.5081 208.908 21.2782 208.484 21.4027C208.443 21.4145 208.403 21.43 208.365 21.4481Z" fill="#BDD0FB"/>
<path d="M166.202 2.49851C166.609 2.32954 167.081 2.51122 167.256 2.90366C167.431 3.2961 167.243 3.75031 166.836 3.92019C166.061 4.24177 165.288 4.59968 164.53 4.98849C164.141 5.18925 163.653 5.04572 163.445 4.66782C163.237 4.28991 163.386 3.82208 163.776 3.62131C164.105 3.45326 164.435 3.29065 164.766 3.13349C165.239 2.91002 165.722 2.69654 166.202 2.4976V2.49851ZM161.183 6.025C161.442 6.37202 161.36 6.8553 161.002 7.10511C160.311 7.58476 159.635 8.09802 158.991 8.62944C158.655 8.90833 158.148 8.86927 157.859 8.54496C157.571 8.22065 157.611 7.73192 157.947 7.45395C158.625 6.89345 159.337 6.35385 160.063 5.84876C160.101 5.82242 160.141 5.79971 160.18 5.78063C160.525 5.61803 160.951 5.71341 161.183 6.02409V6.025ZM170.327 1.10317C171.188 0.874247 172.071 0.678028 172.951 0.519962C173.386 0.441838 173.805 0.718907 173.887 1.1386C173.968 1.55829 173.681 1.96254 173.246 2.04066C172.41 2.19055 171.572 2.37678 170.754 2.5948C170.327 2.70835 169.885 2.46671 169.767 2.05429C169.663 1.69001 169.847 1.31483 170.187 1.15404C170.231 1.13315 170.278 1.11589 170.327 1.10226V1.10317ZM155.959 10.3455C156.291 10.6289 156.322 11.1176 156.028 11.4374C155.465 12.0506 154.922 12.6937 154.415 13.3505C154.15 13.6939 153.647 13.7638 153.292 13.5086C152.937 13.2533 152.863 12.7682 153.128 12.4257C153.662 11.7344 154.234 11.0567 154.827 10.4109C154.899 10.3327 154.984 10.2719 155.075 10.2292C155.359 10.0956 155.71 10.1311 155.96 10.3455H155.959ZM177.29 0.0339568C178.181 -0.00692213 179.086 -0.0105558 179.981 0.0212389C180.424 0.0366821 180.77 0.396417 180.754 0.823375C180.738 1.25033 180.365 1.58372 179.922 1.56828C179.072 1.5383 178.212 1.54194 177.365 1.58009C176.923 1.60008 176.547 1.27032 176.526 0.843361C176.511 0.525413 176.697 0.242894 176.976 0.111173C177.071 0.0657516 177.177 0.038499 177.29 0.0339568ZM184.327 0.46364C185.208 0.612622 186.092 0.798848 186.956 1.01778C187.385 1.12679 187.641 1.5492 187.529 1.96254C187.416 2.37678 186.978 2.62387 186.549 2.51395C185.729 2.30592 184.888 2.12878 184.05 1.98797C183.614 1.91439 183.322 1.51287 183.398 1.09227C183.445 0.838819 183.614 0.635332 183.836 0.530864C183.983 0.461824 184.154 0.434571 184.327 0.46364ZM191.1 2.36224C191.927 2.69291 192.749 3.06082 193.542 3.45507C193.936 3.65129 194.09 4.11731 193.888 4.49794C193.684 4.87857 193.2 5.02664 192.806 4.83042C192.053 4.45525 191.272 4.10641 190.486 3.7921C190.077 3.62858 189.883 3.17619 190.052 2.78102C190.13 2.59934 190.271 2.46217 190.44 2.38223C190.64 2.28775 190.879 2.27413 191.1 2.36224ZM197.282 5.64074C198.014 6.13764 198.733 6.66998 199.418 7.22411C199.757 7.49846 199.802 7.98719 199.516 8.31422C199.232 8.64125 198.725 8.68395 198.386 8.40961C197.736 7.88363 197.054 7.37855 196.359 6.90617C195.997 6.65999 195.91 6.17761 196.165 5.82787C196.246 5.71704 196.351 5.63347 196.468 5.57805C196.723 5.45814 197.035 5.47177 197.283 5.63983L197.282 5.64074ZM202.569 10.152C203.168 10.7906 203.747 11.4619 204.289 12.1487C204.558 12.4884 204.49 12.9744 204.138 13.2333C203.786 13.4913 203.281 13.4268 203.013 13.0871C202.498 12.4348 201.948 11.7971 201.38 11.1903C201.082 10.8732 201.107 10.3845 201.436 10.0975C201.494 10.0475 201.556 10.0066 201.622 9.97573C201.934 9.82765 202.323 9.89033 202.569 10.152ZM206.696 15.667C207.021 16.2184 207.332 16.7871 207.62 17.3557C207.724 17.562 207.826 17.7682 207.925 17.9753C208.111 18.3632 207.945 18.8283 207.533 19.0018C207.131 19.1817 206.654 19.0127 206.468 18.6248C206.374 18.4277 206.277 18.2315 206.178 18.0362C205.904 17.4956 205.608 16.9551 205.3 16.431C205.081 16.0594 205.217 15.587 205.602 15.3763C205.616 15.3681 205.631 15.3608 205.646 15.3536C206.024 15.1755 206.486 15.3091 206.696 15.667Z" fill="#BDD0FB"/>
<path d="M151.101 15.6689C150.958 15.7362 150.834 15.8461 150.752 15.9905C150.543 16.3575 150.337 16.7354 150.141 17.1142C149.943 17.4967 150.105 17.9618 150.502 18.1516C150.899 18.3424 151.38 18.1871 151.578 17.8037C151.763 17.444 151.958 17.0842 152.158 16.7363C152.372 16.3621 152.23 15.8915 151.842 15.6853C151.604 15.559 151.329 15.5617 151.102 15.668L151.101 15.6689Z" fill="#BDD0FB"/>
</g>
<path d="M154.253 27.6927C154.214 27.8535 154.285 28.0197 154.43 28.1069L158.554 30.6096C158.554 32.8044 158.919 35.0137 159.669 37.1539L156.596 40.7967C156.489 40.9248 156.477 41.1037 156.567 41.2436L159.651 46.031C159.741 46.1709 159.914 46.2399 160.079 46.2036L164.827 45.1607C166.484 46.7568 168.377 48.0504 170.416 49.0242L170.915 53.6981C170.933 53.8616 171.057 53.997 171.222 54.0342L176.913 55.316C177.08 55.3532 177.252 55.2851 177.343 55.1452L179.937 51.1681C182.213 51.1672 184.504 50.8157 186.722 50.0925L190.5 53.0558C190.632 53.1594 190.818 53.1712 190.963 53.084L195.927 50.1098C196.072 50.0226 196.143 49.8564 196.106 49.6965L195.024 45.1171C196.679 43.5192 198.021 41.6933 199.03 39.7266L203.878 39.2451C204.047 39.2278 204.187 39.1097 204.226 38.9489L205.555 33.4603C205.594 33.2995 205.523 33.1332 205.379 33.046L201.255 30.5433C201.254 28.3486 200.89 26.1393 200.14 23.999L203.213 20.3563C203.32 20.2282 203.332 20.0492 203.242 19.9093L200.158 15.122C200.068 14.9821 199.895 14.913 199.729 14.9493L194.982 15.9922C193.325 14.3961 191.432 13.1025 189.393 12.1287L188.894 7.45487C188.877 7.29135 188.753 7.156 188.587 7.11875L182.895 5.83697C182.729 5.79973 182.556 5.86786 182.466 6.00775L179.872 9.98483C177.596 9.98573 175.305 10.3373 173.086 11.0604L169.309 8.09712C169.176 7.99356 168.991 7.98176 168.846 8.06896L163.882 11.0431C163.737 11.1303 163.665 11.2966 163.703 11.4565L164.784 16.0349C163.129 17.6328 161.788 19.4588 160.778 21.4255L155.931 21.907C155.762 21.9242 155.621 22.0432 155.583 22.2031L154.254 27.6918L154.253 27.6927Z" fill="#BDD0FB"/>
<path d="M178.121 25.1799C181.207 24.2315 184.518 25.8803 185.503 28.8572C185.979 30.2989 185.846 31.8341 185.125 33.1786C184.405 34.523 183.186 35.5168 181.69 35.9765C178.603 36.9249 175.292 35.2761 174.308 32.2992C173.413 29.5912 174.748 26.7042 177.32 25.4906C177.576 25.3707 177.843 25.2662 178.121 25.1808V25.1799ZM183.907 32.5708C184.459 31.5398 184.562 30.3634 184.196 29.2578C183.442 26.9758 180.903 25.7113 178.537 26.439C176.17 27.1657 174.86 29.6148 175.614 31.8977C176.369 34.1796 178.907 35.4442 181.273 34.7165C181.488 34.6502 181.695 34.5703 181.893 34.4767C182.756 34.0697 183.458 33.4093 183.907 32.5717V32.5708Z" fill="url(#paint1_linear_398_3)"/>
<path d="M173.7 18.0879C173.258 18.296 172.824 18.5276 172.401 18.7811C172.267 18.861 172.135 18.9428 172.005 19.0263C171.361 19.4406 170.752 19.903 170.188 20.4071C170.181 20.4144 170.173 20.4208 170.165 20.428C170.143 20.448 170.121 20.4671 170.1 20.4871C170.057 20.5252 170.016 20.5643 169.974 20.6024C169.865 20.7042 169.841 20.8595 169.905 20.9849C169.92 21.0149 169.94 21.0439 169.967 21.0694C170.099 21.2002 170.315 21.2038 170.451 21.0776C171.151 20.4253 171.929 19.8412 172.762 19.3416C176.903 16.8597 181.893 16.7635 185.993 18.6611C188.274 19.7167 190.279 21.3882 191.711 23.6102C191.962 23.9999 192.19 24.3987 192.397 24.8048C193.783 27.5401 194.149 30.626 193.422 33.631C192.586 37.083 190.406 40.0136 187.285 41.884C180.837 45.7467 172.339 43.8299 168.336 37.6154C168.089 37.232 167.863 36.8387 167.66 36.4353C166.776 34.6902 166.296 32.778 166.264 30.8349C166.264 30.7849 166.251 30.7377 166.229 30.695C166.173 30.5833 166.053 30.5079 165.916 30.5097C165.727 30.5133 165.576 30.6623 165.579 30.8458C165.613 32.8861 166.115 34.8937 167.044 36.726C167.258 37.1484 167.495 37.5618 167.754 37.9642C171.958 44.4894 180.883 46.4988 187.646 42.4464C190.924 40.4823 193.212 37.4055 194.089 33.7818C194.853 30.6269 194.469 27.3874 193.013 24.5159C192.796 24.089 192.556 23.6702 192.293 23.2614C190.257 20.1001 187.066 17.8935 183.309 17.0469C180.038 16.3102 176.677 16.6817 173.7 18.0861V18.0879Z" fill="url(#paint2_linear_398_3)"/>
<g opacity="0.3">
<path d="M115.22 33.819C115.028 33.9098 114.911 34.1151 114.949 34.3286C115.02 34.7283 115.105 35.1316 115.201 35.5277C115.263 35.7848 115.53 35.9447 115.796 35.8847C116.064 35.8257 116.229 35.5677 116.166 35.3106C116.075 34.9336 115.995 34.5493 115.927 34.1678C115.881 33.908 115.625 33.7336 115.355 33.7772C115.307 33.7854 115.262 33.7999 115.221 33.819H115.22Z" fill="#BDD0FB"/>
<path d="M116.251 37.351C116.508 37.2601 116.793 37.3864 116.888 37.6344C117.127 38.2594 117.402 38.8799 117.706 39.4785C117.77 39.6048 117.835 39.7301 117.902 39.8564C118.028 40.0908 117.933 40.3787 117.689 40.5005C117.454 40.6059 117.147 40.5295 117.021 40.2943C116.95 40.1625 116.881 40.0308 116.814 39.8991C116.496 39.2723 116.208 38.621 115.957 37.966C115.869 37.7343 115.978 37.4782 116.204 37.3719C116.219 37.3646 116.235 37.3582 116.251 37.3528V37.351ZM119.189 41.9412C119.66 42.6089 120.179 43.2539 120.73 43.8589C120.911 44.0569 120.89 44.3585 120.685 44.533C120.48 44.7056 120.166 44.6874 119.986 44.4894C119.408 43.8553 118.864 43.1785 118.37 42.4781C118.216 42.2601 118.275 41.9621 118.501 41.8141C118.521 41.8013 118.542 41.7895 118.564 41.7795C118.781 41.6769 119.05 41.7414 119.19 41.9403L119.189 41.9412ZM122.506 45.5795C123.131 46.1145 123.798 46.6169 124.488 47.0738C124.713 47.2228 124.771 47.5208 124.616 47.7379C124.461 47.9559 124.153 48.0113 123.928 47.8614C123.203 47.3827 122.505 46.8549 121.848 46.2944C121.644 46.1191 121.624 45.8175 121.806 45.6194C121.85 45.5713 121.902 45.534 121.958 45.5077C122.133 45.425 122.35 45.4468 122.505 45.5795H122.506ZM126.648 48.3202C127.392 48.6917 128.166 49.0215 128.949 49.3004C129.206 49.3921 129.337 49.6674 129.242 49.9145C129.147 50.1615 128.862 50.2887 128.605 50.197C127.784 49.9036 126.972 49.5584 126.192 49.1686C125.949 49.0478 125.854 48.7589 125.98 48.5246C126.031 48.4301 126.11 48.3592 126.203 48.3156C126.339 48.2511 126.504 48.2475 126.649 48.3202H126.648ZM131.359 50.0026C132.173 50.1879 133.007 50.3269 133.838 50.415C134.11 50.4441 134.306 50.6803 134.276 50.9428C134.246 51.2053 134.002 51.3952 133.728 51.3652C132.858 51.2725 131.984 51.1272 131.13 50.9337C130.863 50.8728 130.698 50.6158 130.761 50.3587C130.797 50.2133 130.898 50.0998 131.026 50.0389C131.125 49.9917 131.242 49.9771 131.358 50.0035L131.359 50.0026ZM136.35 50.5313C137.186 50.5204 138.029 50.4586 138.856 50.3478C139.127 50.3114 139.377 50.494 139.415 50.7556C139.452 51.0173 139.264 51.258 138.992 51.2953C138.124 51.4115 137.24 51.476 136.363 51.4878C136.09 51.4915 135.865 51.2807 135.861 51.0164C135.858 50.8256 135.972 50.6584 136.139 50.5803C136.203 50.5503 136.273 50.5331 136.35 50.5322V50.5313ZM141.321 49.8672C142.127 49.6592 142.929 49.3994 143.706 49.0951C143.96 48.996 144.249 49.1141 144.351 49.3585C144.454 49.6029 144.331 49.8781 144.078 49.9817C143.263 50.3005 142.421 50.5721 141.577 50.7911C141.313 50.8592 141.041 50.7075 140.971 50.4531C140.909 50.2288 141.023 49.9989 141.232 49.9008C141.26 49.8872 141.29 49.8763 141.321 49.8681V49.8672ZM148.788 46.8413C148.949 47.0547 148.901 47.3536 148.679 47.509C148.067 47.9395 147.421 48.3456 146.759 48.7144C146.659 48.7708 146.558 48.8262 146.457 48.8807C146.223 49.0151 145.916 48.9261 145.783 48.6944C145.65 48.4637 145.737 48.173 145.976 48.0449C146.071 47.9941 146.165 47.9423 146.262 47.8887C146.895 47.5353 147.512 47.1483 148.095 46.7377C148.119 46.7204 148.144 46.7059 148.17 46.6941C148.382 46.5942 148.644 46.6523 148.788 46.8422V46.8413Z" fill="#BDD0FB"/>
</g>
<g opacity="0.3">
<path d="M126.914 12.1777C127.695 11.8216 128.505 11.5082 129.321 11.2456C129.581 11.163 129.862 11.2974 129.948 11.5481C130.034 11.7988 129.891 12.0677 129.634 12.1522C128.855 12.402 128.083 12.7009 127.338 13.0407C127.09 13.1533 126.795 13.0516 126.678 12.8136C126.562 12.5765 126.665 12.2948 126.908 12.1795C126.91 12.1786 126.912 12.1777 126.914 12.1767V12.1777ZM125.322 13.5321C125.468 13.7556 125.398 14.0508 125.166 14.1907C124.469 14.614 123.793 15.0819 123.154 15.5824C122.943 15.7468 122.63 15.7178 122.457 15.5125C122.285 15.3072 122.317 15.0074 122.53 14.8402C123.2 14.3161 123.909 13.8255 124.639 13.3822C124.654 13.3731 124.67 13.365 124.686 13.3568C124.91 13.2514 125.186 13.3232 125.323 13.5321H125.322ZM131.83 10.6025C132.678 10.4389 133.543 10.3236 134.401 10.26C134.674 10.24 134.912 10.4371 134.933 10.6997C134.955 10.9631 134.75 11.1911 134.477 11.2129C133.659 11.2738 132.834 11.3837 132.025 11.539C131.757 11.5908 131.496 11.4228 131.442 11.1648C131.397 10.9467 131.513 10.7342 131.71 10.6415C131.748 10.6243 131.788 10.6106 131.83 10.6025ZM121.319 16.5217C121.516 16.7043 121.522 17.0077 121.332 17.1976C120.761 17.7699 120.221 18.3813 119.728 19.0163C119.563 19.227 119.253 19.2697 119.035 19.1116C118.816 18.9527 118.771 18.6538 118.936 18.4421C119.454 17.7763 120.02 17.1349 120.618 16.5354C120.659 16.4936 120.706 16.4609 120.757 16.4372C120.939 16.3519 121.164 16.3791 121.319 16.5217ZM136.994 10.2209C137.855 10.2582 138.723 10.3472 139.574 10.4844C139.844 10.528 140.026 10.7741 139.981 11.0349C139.936 11.2956 139.68 11.4709 139.41 11.4273C138.598 11.2956 137.771 11.2111 136.95 11.1757C136.677 11.1639 136.465 10.9404 136.477 10.6769C136.485 10.4962 136.597 10.3436 136.755 10.2691C136.826 10.2355 136.908 10.2173 136.994 10.2209ZM142.103 11.0449C142.932 11.281 143.752 11.5672 144.543 11.896C144.795 12.0005 144.911 12.2812 144.803 12.5238C144.694 12.7663 144.403 12.8781 144.151 12.7736C143.396 12.4602 142.614 12.1867 141.822 11.9624C141.56 11.8879 141.41 11.6217 141.487 11.3683C141.528 11.2347 141.624 11.1312 141.745 11.0739C141.852 11.0231 141.98 11.0094 142.103 11.0449ZM146.861 13.0252C147.608 13.4458 148.334 13.9137 149.019 14.4169C149.236 14.5768 149.278 14.8766 149.113 15.0864C148.947 15.2963 148.636 15.3371 148.419 15.1773C147.765 14.6976 147.073 14.2507 146.36 13.851C146.124 13.7174 146.044 13.4249 146.182 13.1969C146.233 13.1124 146.308 13.0488 146.392 13.0089C146.537 12.9407 146.712 12.9416 146.861 13.0252Z" fill="#BDD0FB"/>
<path d="M117.706 20.3615C117.621 20.4024 117.546 20.4669 117.495 20.5532C117.284 20.9084 117.082 21.27 116.896 21.6306C116.775 21.8668 116.874 22.1539 117.119 22.272C117.364 22.3882 117.661 22.2929 117.784 22.0567C117.961 21.7133 118.153 21.3672 118.354 21.0292C118.491 20.8003 118.408 20.5078 118.171 20.377C118.023 20.2952 117.849 20.2952 117.706 20.3625V20.3615Z" fill="#BDD0FB"/>
</g>
<path d="M120.056 29.1733C120.031 29.2741 120.075 29.3786 120.167 29.4331L122.751 31.0019C122.751 32.3773 122.98 33.7626 123.45 35.1035L121.524 37.3872C121.456 37.4672 121.449 37.5798 121.505 37.6679L123.438 40.6684C123.495 40.7566 123.603 40.7993 123.706 40.7765L126.682 40.1234C127.721 41.1236 128.907 41.9348 130.185 42.5452L130.498 45.4749C130.509 45.5776 130.586 45.662 130.69 45.6857L134.257 46.4896C134.361 46.5132 134.47 46.4705 134.526 46.3824L136.152 43.8897C137.578 43.8897 139.014 43.669 140.405 43.2157L142.773 45.0734C142.856 45.1388 142.972 45.1461 143.064 45.0915L146.176 43.2275C146.267 43.173 146.311 43.0685 146.288 42.9686L145.611 40.098C146.648 39.096 147.489 37.9523 148.122 36.7195L151.16 36.4179C151.266 36.407 151.354 36.3325 151.378 36.2326L152.212 32.7924C152.236 32.6916 152.192 32.5871 152.1 32.5326L149.515 30.9638C149.515 29.5884 149.286 28.2031 148.816 26.8622L150.742 24.5785C150.81 24.4985 150.818 24.3859 150.761 24.2978L148.828 21.2963C148.772 21.2082 148.663 21.1655 148.56 21.1882L145.584 21.8414C144.545 20.8412 143.36 20.03 142.081 19.4195L141.769 16.4899C141.757 16.3872 141.68 16.3028 141.576 16.2791L138.009 15.4752C137.905 15.4516 137.797 15.4943 137.74 15.5824L136.113 18.0751C134.687 18.0751 133.251 18.2958 131.861 18.7491L129.493 16.8914C129.41 16.826 129.293 16.8187 129.202 16.8732L126.09 18.7373C125.998 18.7918 125.954 18.8963 125.977 18.9962L126.655 21.8659C125.618 22.8679 124.776 24.0116 124.144 25.2444L121.106 25.5459C120.999 25.5568 120.912 25.6313 120.887 25.7313L120.054 29.1715L120.056 29.1733Z" fill="#BDD0FB"/>
<path d="M134.996 27.5371C135.95 27.2437 136.966 27.3264 137.855 27.7697C138.744 28.213 139.402 28.9633 139.706 29.8836C140.334 31.7822 139.244 33.8161 137.273 34.4266C135.303 35.0316 133.191 33.9787 132.563 32.0801C132.259 31.1599 132.345 30.1806 132.803 29.3231C133.177 28.6254 133.761 28.0758 134.479 27.7379C134.644 27.6598 134.816 27.5934 134.994 27.538L134.996 27.5371ZM138.762 30.1734C138.538 29.4966 138.055 28.9443 137.4 28.6181C136.746 28.292 135.998 28.2321 135.298 28.4474C134.596 28.6636 134.023 29.1296 133.685 29.7609C133.347 30.3914 133.285 31.1127 133.508 31.7885C133.97 33.1857 135.524 33.9597 136.972 33.5145C137.103 33.4746 137.229 33.4255 137.348 33.3692C138.556 32.7996 139.182 31.4442 138.762 30.1734Z" fill="url(#paint3_linear_398_3)"/>
<path d="M132.114 22.9143C131.832 23.047 131.555 23.195 131.283 23.3577C130.744 23.6811 130.237 24.0571 129.777 24.4777C129.756 24.4968 129.736 24.5159 129.716 24.535C129.558 24.6821 129.523 24.9074 129.614 25.0882C129.637 25.1318 129.666 25.1736 129.704 25.2108C129.894 25.4007 130.207 25.4043 130.404 25.2226C130.83 24.8257 131.301 24.4723 131.806 24.1698C131.833 24.1534 131.862 24.1371 131.889 24.1207C133.09 23.4167 134.427 23.0279 135.795 22.9643C136.537 22.9298 137.289 22.9916 138.033 23.1524C138.039 23.1533 138.045 23.1551 138.051 23.156C138.07 23.1605 138.088 23.1642 138.106 23.1687C140.277 23.6574 142.12 24.9329 143.295 26.7588C143.448 26.995 143.587 27.2366 143.712 27.4828C144.553 29.1416 144.775 31.0129 144.333 32.8352C143.827 34.9282 142.504 36.7051 140.611 37.8397C138.719 38.9725 136.48 39.3295 134.31 38.8408C132.139 38.3521 130.296 37.0766 129.121 35.2507C128.971 35.0182 128.834 34.7792 128.71 34.5358C128.173 33.4775 127.883 32.3183 127.864 31.1392C127.863 31.0665 127.845 30.9984 127.814 30.9366C127.732 30.7758 127.56 30.6659 127.361 30.6686C127.088 30.6732 126.869 30.8903 126.873 31.1546C126.895 32.4737 127.22 33.7709 127.82 34.9546C127.958 35.228 128.112 35.4951 128.279 35.7549C129.594 37.7979 131.656 39.2241 134.084 39.771C136.513 40.3179 139.015 39.9227 141.134 38.6509C143.252 37.3819 144.731 35.3933 145.298 33.0514C145.792 31.0129 145.544 28.919 144.603 27.0631C144.463 26.7879 144.308 26.5171 144.138 26.2528C141.59 22.2984 136.359 20.9095 132.112 22.9134L132.114 22.9143Z" fill="url(#paint4_linear_398_3)"/>
<g opacity="0.3">
<path d="M95.0722 228.181C95.5017 228.049 95.9623 228.277 96.0998 228.692C96.3673 229.498 96.6744 230.303 97.0144 231.088C97.1859 231.485 96.9956 231.94 96.5896 232.113C96.5849 232.115 96.5802 232.116 96.5755 232.119C96.1592 232.286 95.6807 232.097 95.5064 231.695C95.1494 230.869 94.8254 230.021 94.5438 229.172C94.4148 228.784 94.6144 228.371 94.9921 228.211C95.0185 228.2 95.0449 228.19 95.0731 228.182L95.0722 228.181ZM98.9369 234.797C99.3834 235.529 99.8675 236.251 100.374 236.94C100.635 237.295 100.549 237.787 100.18 238.038C99.81 238.29 99.3023 238.207 99.0405 237.851C98.5064 237.126 97.9978 236.367 97.5278 235.597C97.2989 235.221 97.4289 234.738 97.8179 234.517C97.8461 234.501 97.8754 234.487 97.9046 234.475C98.2785 234.317 98.725 234.449 98.9369 234.796V234.797ZM103.099 240.146C103.702 240.762 104.34 241.361 104.996 241.925C105.332 242.214 105.363 242.712 105.062 243.038C104.762 243.362 104.246 243.391 103.908 243.101C103.218 242.507 102.545 241.877 101.911 241.227C101.601 240.911 101.616 240.411 101.944 240.113C102.014 240.05 102.093 240.001 102.176 239.965C102.483 239.835 102.856 239.897 103.099 240.146ZM108.397 244.463C109.129 244.934 109.89 245.38 110.66 245.789C111.056 245.999 111.2 246.479 110.981 246.859C110.763 247.24 110.266 247.379 109.872 247.169C109.062 246.738 108.26 246.269 107.489 245.773C107.115 245.531 107.013 245.042 107.264 244.68C107.354 244.55 107.476 244.455 107.614 244.397C107.861 244.292 108.156 244.308 108.397 244.462V244.463ZM114.56 247.534C115.38 247.837 116.225 248.109 117.072 248.345C117.505 248.465 117.755 248.902 117.63 249.32C117.505 249.739 117.052 249.98 116.619 249.859C115.728 249.612 114.839 249.325 113.976 249.007C113.554 248.851 113.343 248.396 113.505 247.989C113.586 247.784 113.746 247.631 113.939 247.55C114.129 247.469 114.35 247.458 114.559 247.535L114.56 247.534ZM121.274 249.214C122.145 249.334 123.03 249.419 123.908 249.468C124.358 249.493 124.703 249.865 124.678 250.3C124.652 250.735 124.266 251.067 123.815 251.043C122.891 250.992 121.958 250.902 121.043 250.775C120.596 250.714 120.285 250.315 120.349 249.883C120.391 249.604 120.58 249.379 120.83 249.273C120.965 249.216 121.117 249.193 121.273 249.215L121.274 249.214ZM149.9 239.503C150.236 239.793 150.265 240.291 149.964 240.616C149.347 241.28 148.693 241.927 148.017 242.54C147.689 242.838 147.171 242.822 146.862 242.505C146.554 242.188 146.57 241.689 146.898 241.391C147.54 240.81 148.161 240.195 148.747 239.565C148.827 239.478 148.923 239.413 149.027 239.368C149.311 239.248 149.655 239.29 149.901 239.503H149.9ZM128.203 249.416C129.078 249.347 129.962 249.24 130.827 249.099C131.273 249.026 131.694 249.315 131.77 249.744C131.846 250.173 131.546 250.577 131.101 250.652C130.19 250.801 129.26 250.914 128.338 250.987C127.889 251.023 127.494 250.7 127.456 250.266C127.427 249.922 127.631 249.611 127.941 249.479C128.022 249.445 128.11 249.423 128.203 249.416V249.416ZM144.705 244.202C144.965 244.557 144.878 245.05 144.51 245.3C143.754 245.815 142.966 246.304 142.167 246.756C141.778 246.977 141.277 246.849 141.049 246.474C140.821 246.099 140.952 245.616 141.341 245.396C142.1 244.967 142.849 244.501 143.567 244.012C143.613 243.981 143.661 243.955 143.71 243.934C144.058 243.786 144.478 243.89 144.705 244.201V244.202ZM135.004 248.12C135.84 247.864 136.677 247.569 137.489 247.244C137.907 247.076 138.384 247.267 138.558 247.67C138.728 248.067 138.538 248.521 138.132 248.692C138.126 248.694 138.122 248.697 138.116 248.699C137.261 249.041 136.38 249.352 135.499 249.622C135.069 249.754 134.609 249.525 134.473 249.109C134.344 248.722 134.544 248.31 134.922 248.149C134.948 248.138 134.976 248.128 135.004 248.119V248.12Z" fill="#BDD0FB"/>
<path d="M152.449 234.928C152.302 234.991 152.172 235.095 152.082 235.238C151.862 235.585 151.63 235.933 151.395 236.272C151.144 236.634 151.244 237.124 151.62 237.365C151.995 237.608 152.504 237.511 152.753 237.148C153.001 236.791 153.244 236.425 153.476 236.06C153.711 235.688 153.59 235.203 153.205 234.976C152.968 234.836 152.686 234.827 152.449 234.927V234.928Z" fill="#BDD0FB"/>
</g>
<g opacity="0.3">
<path d="M156.118 211.162C155.757 211.315 155.554 211.702 155.657 212.082C155.764 212.476 155.863 212.877 155.953 213.277C156.049 213.702 156.484 213.972 156.925 213.88C157.368 213.787 157.646 213.368 157.55 212.942C157.455 212.522 157.351 212.099 157.239 211.685C157.125 211.264 156.678 211.012 156.241 211.122C156.198 211.133 156.157 211.146 156.118 211.164V211.162Z" fill="#BDD0FB"/>
<path d="M114.026 190.19C114.447 190.035 114.92 190.238 115.081 190.645C115.242 191.052 115.031 191.507 114.609 191.663C113.807 191.959 113.005 192.292 112.217 192.657C111.813 192.846 111.322 192.68 111.126 192.288C110.931 191.895 111.103 191.425 111.509 191.236C111.851 191.078 112.193 190.925 112.537 190.78C113.028 190.572 113.529 190.373 114.025 190.19H114.026ZM108.768 193.578C109.016 193.941 108.913 194.43 108.536 194.67C107.813 195.13 107.102 195.625 106.424 196.14C106.071 196.41 105.556 196.351 105.277 196.01C104.998 195.668 105.058 195.172 105.414 194.903C106.127 194.36 106.876 193.839 107.636 193.355C107.676 193.33 107.716 193.309 107.759 193.291C108.117 193.139 108.546 193.253 108.769 193.579L108.768 193.578ZM118.285 188.935C119.17 188.737 120.077 188.572 120.98 188.446C121.426 188.383 121.841 188.682 121.905 189.114C121.97 189.544 121.66 189.943 121.213 190.007C120.356 190.126 119.495 190.282 118.654 190.47C118.214 190.568 117.775 190.305 117.673 189.88C117.583 189.505 117.787 189.131 118.14 188.981C118.186 188.962 118.234 188.946 118.285 188.935ZM103.266 197.765C103.591 198.066 103.601 198.565 103.289 198.879C102.689 199.481 102.108 200.114 101.564 200.762C101.279 201.1 100.765 201.151 100.415 200.877C100.064 200.603 100.011 200.107 100.295 199.769C100.869 199.086 101.479 198.42 102.111 197.786C102.187 197.71 102.276 197.651 102.371 197.611C102.665 197.487 103.021 197.537 103.267 197.765H103.266ZM125.417 188.125C126.326 188.12 127.247 188.152 128.156 188.221C128.606 188.254 128.942 188.634 128.907 189.067C128.872 189.502 128.478 189.826 128.029 189.791C127.165 189.726 126.29 189.696 125.427 189.701C124.976 189.704 124.608 189.354 124.605 188.918C124.603 188.594 124.805 188.314 125.094 188.192C125.193 188.15 125.302 188.126 125.417 188.125ZM132.559 188.845C133.45 189.031 134.342 189.256 135.211 189.513C135.642 189.642 135.885 190.082 135.753 190.498C135.62 190.915 135.163 191.149 134.732 191.021C133.906 190.776 133.058 190.563 132.212 190.385C131.771 190.292 131.491 189.872 131.587 189.447C131.645 189.191 131.827 188.991 132.057 188.893C132.21 188.828 132.384 188.808 132.559 188.845ZM139.37 191.049C140.197 191.418 141.018 191.825 141.808 192.259C142.201 192.474 142.338 192.955 142.114 193.333C141.891 193.712 141.392 193.844 141 193.629C140.249 193.216 139.469 192.83 138.684 192.479C138.274 192.297 138.096 191.828 138.285 191.433C138.372 191.251 138.522 191.117 138.698 191.042C138.905 190.954 139.149 190.95 139.37 191.049ZM145.52 194.632C146.244 195.167 146.952 195.738 147.624 196.329C147.958 196.623 147.982 197.121 147.678 197.443C147.375 197.765 146.858 197.788 146.523 197.495C145.885 196.933 145.212 196.392 144.525 195.884C144.167 195.62 144.099 195.125 144.373 194.78C144.46 194.671 144.57 194.59 144.692 194.538C144.956 194.426 145.273 194.453 145.519 194.633L145.52 194.632ZM150.706 199.435C151.289 200.109 151.848 200.815 152.37 201.535C152.629 201.892 152.538 202.384 152.168 202.633C151.799 202.882 151.289 202.795 151.03 202.438C150.534 201.754 150.003 201.083 149.45 200.444C149.161 200.109 149.208 199.612 149.554 199.333C149.615 199.285 149.681 199.246 149.749 199.217C150.073 199.079 150.466 199.158 150.706 199.435H150.706ZM154.668 205.213C154.974 205.787 155.266 206.378 155.536 206.969C155.634 207.182 155.728 207.397 155.82 207.612C155.992 208.014 155.803 208.48 155.377 208.641C154.96 208.807 154.483 208.617 154.31 208.214C154.223 208.01 154.132 207.806 154.04 207.603C153.784 207.041 153.507 206.48 153.216 205.934C153.009 205.547 153.168 205.072 153.569 204.873C153.584 204.866 153.599 204.858 153.614 204.852C154.006 204.686 154.47 204.841 154.669 205.214L154.668 205.213Z" fill="#BDD0FB"/>
<path d="M98.0929 202.987C97.9441 203.05 97.8132 203.156 97.7228 203.301C97.4939 203.666 97.2688 204.043 97.0531 204.42C96.8355 204.801 96.9796 205.28 97.3752 205.49C97.7708 205.7 98.2672 205.561 98.4848 205.179C98.6892 204.82 98.903 204.462 99.1206 204.116C99.3541 203.744 99.2308 203.26 98.8446 203.034C98.6082 202.896 98.3275 202.888 98.092 202.987H98.0929Z" fill="#BDD0FB"/>
</g>
<path d="M100.782 215.349C100.736 215.511 100.801 215.683 100.944 215.778L105.033 218.489C104.94 220.722 105.216 222.986 105.885 225.194L102.602 228.778C102.487 228.904 102.467 229.086 102.553 229.232L105.485 234.228C105.571 234.374 105.743 234.451 105.914 234.42L110.79 233.55C112.407 235.241 114.278 236.633 116.311 237.705L116.618 242.482C116.628 242.649 116.749 242.792 116.915 242.836L122.652 244.369C122.819 244.413 122.998 244.35 123.096 244.212L125.908 240.269C128.223 240.359 130.57 240.094 132.859 239.447L136.576 242.614C136.706 242.724 136.895 242.743 137.047 242.661L142.226 239.833C142.378 239.75 142.458 239.584 142.426 239.42L141.524 234.717C143.277 233.157 144.721 231.353 145.832 229.391L150.785 229.096C150.958 229.086 151.106 228.971 151.152 228.809L152.741 223.277C152.787 223.115 152.722 222.943 152.579 222.848L148.49 220.136C148.583 217.904 148.307 215.64 147.638 213.432L150.921 209.848C151.036 209.722 151.056 209.54 150.97 209.393L148.038 204.398C147.952 204.252 147.78 204.175 147.609 204.205L142.733 205.076C141.116 203.385 139.245 201.993 137.212 200.921L136.905 196.144C136.895 195.977 136.776 195.834 136.608 195.79L130.872 194.257C130.704 194.213 130.525 194.276 130.427 194.414L127.615 198.357C125.3 198.267 122.953 198.533 120.664 199.179L116.947 196.012C116.817 195.902 116.628 195.882 116.476 195.965L111.297 198.793C111.145 198.876 111.065 199.042 111.097 199.207L111.999 203.91C110.246 205.47 108.803 207.274 107.691 209.235L102.738 209.531C102.565 209.541 102.417 209.657 102.371 209.818L100.782 215.35V215.349Z" fill="#BDD0FB"/>
<path d="M125.18 213.748C128.361 212.906 131.66 214.718 132.533 217.786C132.956 219.272 132.754 220.829 131.963 222.169C131.173 223.508 129.889 224.47 128.347 224.878C125.165 225.72 121.867 223.909 120.994 220.84C120.2 218.049 121.682 215.164 124.352 214.032C124.616 213.919 124.893 213.825 125.18 213.748ZM130.75 221.502C131.357 220.474 131.511 219.282 131.187 218.142C130.517 215.79 127.988 214.401 125.549 215.046C123.108 215.691 121.67 218.131 122.339 220.483C123.008 222.835 125.538 224.224 127.977 223.579C128.198 223.52 128.412 223.448 128.619 223.359C129.514 222.98 130.257 222.336 130.75 221.502Z" fill="url(#paint5_linear_398_3)"/>
<path d="M120.985 206.355C120.527 206.549 120.075 206.767 119.634 207.008C119.494 207.083 119.357 207.162 119.22 207.242C118.547 207.637 117.908 208.084 117.312 208.575C117.303 208.581 117.296 208.589 117.287 208.595C117.265 208.614 117.241 208.633 117.219 208.652C117.174 208.689 117.13 208.728 117.086 208.765C116.97 208.864 116.939 209.021 116.998 209.151C117.012 209.183 117.032 209.213 117.057 209.24C117.186 209.379 117.406 209.391 117.55 209.267C118.29 208.631 119.107 208.068 119.977 207.593C124.298 205.233 129.381 205.336 133.471 207.431C135.747 208.597 137.716 210.378 139.076 212.696C139.314 213.103 139.53 213.518 139.722 213.94C141.015 216.779 141.255 219.935 140.385 222.963C139.386 226.443 137.041 229.338 133.784 231.117C127.056 234.789 118.492 232.498 114.685 226.013C114.45 225.613 114.237 225.204 114.047 224.786C113.222 222.974 112.817 221.009 112.868 219.03C112.869 218.979 112.858 218.93 112.839 218.886C112.786 218.771 112.667 218.688 112.528 218.686C112.335 218.682 112.175 218.827 112.17 219.014C112.116 221.092 112.541 223.155 113.408 225.056C113.607 225.495 113.83 225.925 114.077 226.345C118.074 233.153 127.07 235.555 134.128 231.702C137.548 229.836 140.008 226.796 141.057 223.143C141.971 219.964 141.719 216.651 140.361 213.67C140.16 213.227 139.933 212.792 139.683 212.365C137.747 209.066 134.595 206.693 130.808 205.681C127.511 204.8 124.076 205.043 120.984 206.354L120.985 206.355Z" fill="url(#paint6_linear_398_3)"/>
<g opacity="0.3">
<path d="M60.7969 220.021C60.5972 220.106 60.47 220.31 60.5002 220.529C60.5548 220.939 60.6236 221.353 60.7036 221.759C60.7554 222.023 61.0201 222.196 61.2942 222.146C61.5683 222.097 61.7473 221.841 61.6955 221.576C61.6192 221.189 61.5532 220.795 61.5014 220.403C61.4656 220.137 61.2123 219.949 60.9363 219.983C60.8873 219.989 60.8411 220.002 60.7978 220.02L60.7969 220.021Z" fill="#BDD0FB"/>
<path d="M61.6955 223.656C61.9611 223.574 62.2455 223.715 62.3313 223.97C62.5479 224.616 62.8013 225.258 63.0838 225.878C63.1432 226.009 63.2054 226.14 63.2685 226.271C63.3853 226.514 63.276 226.804 63.0236 226.918C62.7805 227.016 62.4707 226.925 62.3529 226.682C62.287 226.544 62.2229 226.408 62.1608 226.271C61.8641 225.62 61.5984 224.946 61.3714 224.27C61.2914 224.03 61.4138 223.774 61.6484 223.675C61.6644 223.668 61.6804 223.662 61.6964 223.656H61.6955ZM64.4882 228.446C64.9394 229.144 65.4386 229.822 65.9736 230.46C66.1488 230.669 66.1149 230.975 65.8983 231.145C65.6826 231.313 65.3642 231.282 65.1881 231.072C64.6276 230.403 64.103 229.693 63.6311 228.961C63.4842 228.733 63.5557 228.432 63.7931 228.29C63.8138 228.278 63.8355 228.268 63.8572 228.258C64.0832 228.161 64.3535 228.239 64.4882 228.446ZM67.7068 232.281C68.32 232.851 68.9774 233.388 69.6603 233.882C69.8835 234.042 69.9287 234.348 69.762 234.563C69.5944 234.779 69.2788 234.823 69.0556 234.661C68.3397 234.145 67.6503 233.58 67.0069 232.983C66.8063 232.797 66.7997 232.488 66.9928 232.295C67.0399 232.247 67.0945 232.211 67.1529 232.187C67.3347 232.109 67.5542 232.14 67.7058 232.281H67.7068ZM71.8041 235.236C72.5454 235.644 73.3187 236.011 74.1033 236.326C74.3605 236.43 74.482 236.715 74.3746 236.963C74.2672 237.21 73.9724 237.328 73.7143 237.226C72.8911 236.894 72.0801 236.51 71.303 236.082C71.0609 235.948 70.9771 235.651 71.1146 235.418C71.1702 235.324 71.254 235.254 71.3492 235.213C71.4904 235.153 71.6581 235.156 71.8032 235.236H71.8041ZM76.5259 237.137C77.3473 237.359 78.1893 237.534 79.0314 237.656C79.3065 237.696 79.4967 237.944 79.4543 238.21C79.4129 238.476 79.1557 238.659 78.8798 238.618C77.9981 238.489 77.1146 238.307 76.2537 238.075C75.9853 238.002 75.8289 237.734 75.9033 237.475C75.9457 237.329 76.0531 237.217 76.1868 237.16C76.2895 237.117 76.4091 237.106 76.5259 237.137V237.137ZM81.5831 237.875C82.4346 237.897 83.2955 237.869 84.1413 237.789C84.4182 237.762 84.666 237.959 84.6923 238.226C84.7196 238.493 84.5171 238.731 84.2393 238.757C83.352 238.841 82.4487 238.871 81.5557 238.848C81.2769 238.841 81.0575 238.617 81.065 238.348C81.0707 238.154 81.1931 237.989 81.3664 237.916C81.4324 237.888 81.5058 237.873 81.5831 237.875ZM86.6713 237.398C87.5002 237.219 88.3272 236.987 89.1316 236.708C89.3944 236.617 89.6826 236.749 89.7768 237.002C89.871 237.255 89.7335 237.53 89.4725 237.625C88.6295 237.917 87.7611 238.16 86.8926 238.348C86.6204 238.407 86.3501 238.242 86.2898 237.98C86.2361 237.749 86.3623 237.52 86.579 237.427C86.6082 237.415 86.6393 237.405 86.6722 237.397L86.6713 237.398ZM94.3997 234.618C94.5551 234.842 94.493 235.143 94.2612 235.293C93.6198 235.708 92.9444 236.095 92.255 236.443C92.1504 236.497 92.0459 236.549 91.9404 236.601C91.6964 236.728 91.3875 236.625 91.2631 236.384C91.1378 236.145 91.2386 235.852 91.4873 235.73C91.5862 235.683 91.6851 235.634 91.784 235.582C92.4443 235.249 93.0886 234.879 93.6999 234.484C93.7253 234.468 93.7517 234.454 93.778 234.442C93.9984 234.349 94.2622 234.419 94.3997 234.617V234.618Z" fill="#BDD0FB"/>
</g>
<g opacity="0.3">
<path d="M73.6295 198.466C74.4396 198.134 75.2769 197.848 76.12 197.614C76.3875 197.539 76.6672 197.688 76.7444 197.947C76.8217 198.206 76.6644 198.473 76.3988 198.55C75.5953 198.772 74.7966 199.046 74.0232 199.362C73.767 199.467 73.4703 199.351 73.362 199.104C73.2537 198.858 73.3714 198.575 73.6229 198.468C73.6248 198.468 73.6276 198.466 73.6295 198.465V198.466ZM71.951 199.781C72.0895 200.014 72.0066 200.312 71.7645 200.446C71.0374 200.848 70.3281 201.298 69.6565 201.781C69.4342 201.94 69.1168 201.897 68.9501 201.682C68.7834 201.467 68.8295 201.162 69.0528 201.001C69.7564 200.494 70.4995 200.023 71.2616 199.602C71.2776 199.592 71.2936 199.585 71.3105 199.578C71.5432 199.479 71.821 199.563 71.951 199.781ZM78.7008 197.061C79.5702 196.928 80.4546 196.845 81.3316 196.815C81.6104 196.805 81.844 197.015 81.8543 197.283C81.8647 197.552 81.6471 197.777 81.3683 197.787C80.5328 197.817 79.6879 197.896 78.859 198.022C78.584 198.064 78.325 197.883 78.2816 197.618C78.2449 197.394 78.3721 197.182 78.5765 197.096C78.6151 197.08 78.6565 197.068 78.7008 197.061ZM67.7492 202.664C67.9422 202.858 67.9347 203.166 67.7341 203.352C67.1284 203.912 66.5529 204.513 66.0236 205.138C65.8474 205.346 65.5291 205.377 65.3134 205.207C65.0977 205.038 65.0647 204.731 65.2418 204.522C65.7975 203.866 66.4013 203.235 67.0361 202.649C67.0804 202.608 67.1294 202.578 67.1821 202.555C67.3705 202.475 67.5994 202.512 67.7501 202.664H67.7492ZM83.9718 196.879C84.8468 196.952 85.7256 197.077 86.5856 197.251C86.8587 197.306 87.033 197.564 86.9755 197.827C86.9181 198.091 86.6506 198.26 86.3774 198.204C85.557 198.037 84.7187 197.918 83.8842 197.849C83.6063 197.827 83.401 197.59 83.4245 197.322C83.4405 197.139 83.5611 196.988 83.725 196.918C83.7994 196.886 83.8832 196.872 83.9708 196.879H83.9718ZM89.1344 197.923C89.967 198.196 90.7903 198.521 91.5815 198.887C91.833 199.003 91.9385 199.294 91.8179 199.536C91.6973 199.779 91.3959 199.88 91.1444 199.764C90.3909 199.415 89.6054 199.106 88.8104 198.845C88.5466 198.759 88.4054 198.482 88.4948 198.227C88.5419 198.093 88.6446 197.991 88.7699 197.938C88.881 197.891 89.011 197.882 89.1353 197.923H89.1344ZM93.8901 200.128C94.6314 200.586 95.351 201.092 96.0264 201.631C96.2411 201.803 96.2713 202.109 96.0933 202.317C95.9162 202.524 95.5978 202.552 95.3831 202.382C94.7388 201.868 94.0531 201.386 93.3457 200.95C93.1112 200.804 93.0424 200.504 93.1931 200.277C93.2487 200.193 93.3269 200.131 93.4145 200.094C93.5642 200.03 93.7422 200.038 93.8901 200.129V200.128Z" fill="#BDD0FB"/>
<path d="M63.9071 206.426C63.8176 206.464 63.7394 206.526 63.6838 206.612C63.454 206.964 63.2336 207.325 63.0292 207.684C62.8955 207.919 62.984 208.215 63.228 208.345C63.4719 208.474 63.779 208.389 63.9137 208.153C64.1086 207.811 64.3187 207.467 64.5382 207.131C64.687 206.903 64.6154 206.603 64.3799 206.459C64.233 206.37 64.0559 206.363 63.908 206.426H63.9071Z" fill="#BDD0FB"/>
</g>
<path d="M65.919 215.487C65.8898 215.589 65.9303 215.696 66.0207 215.756L68.5837 217.456C68.5253 218.856 68.6977 220.274 69.1187 221.658L67.0606 223.905C66.9881 223.984 66.9758 224.098 67.0295 224.189L68.8672 227.32C68.9209 227.412 69.0292 227.46 69.1356 227.441L72.1922 226.895C73.2057 227.954 74.3783 228.827 75.6528 229.5L75.8449 232.494C75.8515 232.599 75.9269 232.688 76.0314 232.716L79.6267 233.677C79.7322 233.706 79.8433 233.666 79.9055 233.579L81.6678 231.107C83.1193 231.164 84.5906 230.998 86.0251 230.591L88.3545 232.576C88.4364 232.646 88.5551 232.658 88.6493 232.606L91.8961 230.834C91.9912 230.782 92.0411 230.678 92.0214 230.575L91.4553 227.627C92.5535 226.65 93.4587 225.519 94.1557 224.29L97.2603 224.104C97.3686 224.098 97.4619 224.025 97.4911 223.925L98.4876 220.457C98.5168 220.355 98.4763 220.248 98.3859 220.188L95.8229 218.489C95.8813 217.089 95.709 215.67 95.2879 214.286L97.346 212.04C97.4185 211.961 97.4308 211.846 97.3771 211.755L95.5394 208.624C95.4857 208.532 95.3774 208.484 95.271 208.503L92.2145 209.049C91.201 207.99 90.0283 207.117 88.7539 206.445L88.5617 203.451C88.5551 203.345 88.4798 203.256 88.3752 203.228L84.7799 202.267C84.6744 202.239 84.5633 202.278 84.5011 202.365L82.7388 204.837C81.2873 204.78 79.816 204.947 78.3815 205.353L76.0521 203.368C75.9702 203.298 75.8515 203.286 75.7573 203.338L72.5105 205.11C72.4154 205.162 72.3655 205.266 72.3852 205.369L72.9513 208.317C71.8531 209.294 70.9479 210.425 70.2509 211.654L67.1463 211.84C67.0371 211.846 66.9447 211.919 66.9155 212.02L65.919 215.487Z" fill="#BDD0FB"/>
<path d="M81.1931 214.421C82.1765 214.16 83.206 214.284 84.0923 214.771C84.9787 215.257 85.6154 216.048 85.8848 216.997C86.4415 218.955 85.2452 220.98 83.2135 221.522C81.1837 222.059 79.0785 220.903 78.5218 218.945C78.2515 217.997 78.3805 217.004 78.8854 216.149C79.2951 215.454 79.914 214.918 80.659 214.603C80.8305 214.531 81.0085 214.47 81.1922 214.421H81.1931ZM84.9118 217.255C84.713 216.557 84.2449 215.976 83.5931 215.618C82.9413 215.26 82.184 215.168 81.4606 215.36C80.7372 215.552 80.1344 216.003 79.7633 216.632C79.3922 217.26 79.297 217.991 79.4958 218.688C79.9055 220.128 81.454 220.978 82.9469 220.583C83.0816 220.548 83.2116 220.503 83.336 220.45C84.5896 219.918 85.2848 218.564 84.9127 217.254L84.9118 217.255Z" fill="url(#paint7_linear_398_3)"/>
<path d="M78.4587 209.601C78.1667 209.724 77.8785 209.864 77.594 210.018C77.0308 210.326 76.4995 210.689 76.0135 211.099C75.9918 211.117 75.9702 211.136 75.9485 211.154C75.7808 211.298 75.7366 211.525 75.8213 211.713C75.8421 211.758 75.8713 211.802 75.9071 211.841C76.0926 212.042 76.411 212.058 76.6192 211.881C77.0694 211.494 77.5648 211.153 78.0914 210.866C78.1206 210.85 78.1498 210.834 78.178 210.819C79.4308 210.15 80.8088 209.808 82.2028 209.799C82.9601 209.793 83.7221 209.887 84.4719 210.08C84.4776 210.082 84.4841 210.083 84.4898 210.085C84.5086 210.09 84.5275 210.095 84.5454 210.099C86.7325 210.684 88.5532 212.055 89.6713 213.96C89.8163 214.206 89.9463 214.458 90.0631 214.714C90.8477 216.436 90.9928 218.35 90.4653 220.186C89.8587 222.296 88.4374 224.052 86.4622 225.13C84.4879 226.207 82.1944 226.481 80.0063 225.897C77.8192 225.312 75.9984 223.941 74.8804 222.036C74.7381 221.793 74.6091 221.545 74.4932 221.292C73.9931 220.194 73.7473 219.002 73.7783 217.802C73.7802 217.728 73.7652 217.657 73.736 217.594C73.6597 217.427 73.4882 217.308 73.2867 217.303C73.0078 217.297 72.7761 217.508 72.7695 217.778C72.7347 219.121 73.0097 220.454 73.5692 221.684C73.6983 221.967 73.8424 222.245 74.0016 222.517C75.2524 224.649 77.2898 226.182 79.7369 226.836C82.184 227.49 84.7488 227.188 86.9586 225.979C89.1683 224.772 90.7592 222.808 91.4374 220.447C92.0279 218.392 91.865 216.251 90.9871 214.325C90.8571 214.039 90.7102 213.758 90.5491 213.482C88.1265 209.356 82.8631 207.733 78.4559 209.602L78.4587 209.601Z" fill="url(#paint8_linear_398_3)"/>
<path d="M42.1234 242.351C62.5139 242.351 79.0436 226.409 79.0436 206.743C79.0436 187.078 62.5139 171.136 42.1234 171.136C21.7329 171.136 5.20314 187.078 5.20314 206.743C5.20314 226.409 21.7329 242.351 42.1234 242.351Z" fill="#91B3FA"/>
<path d="M60.7564 187.801C60.7564 187.801 78.811 204.402 97.4468 199.639L99.3984 201.915C99.3984 201.915 76.3196 215.348 56.1127 200.087L60.7564 187.8V187.801Z" fill="url(#paint9_linear_398_3)"/>
<path d="M43.3677 241.971C43.3677 241.971 26.3925 229.224 22.978 207.952C21.0122 195.701 31.1199 184.673 43.9639 185.147C48.8364 185.326 54.4644 186.079 60.7554 187.801C60.7554 187.801 51.8477 208.595 63.2722 236.444C63.2722 236.444 50.9265 243.326 43.3667 241.972L43.3677 241.971Z" fill="url(#paint10_linear_398_3)"/>
<path d="M39.7611 172.743L36.3428 185.028C36.0217 186.184 36.6264 187.389 37.7642 187.865C39.7385 188.691 42.9052 189.478 45.714 187.776C46.6333 187.22 47.2107 186.262 47.2832 185.217L47.9906 174.981L39.762 172.743H39.7611Z" fill="url(#paint11_linear_398_3)"/>
<path d="M36.9202 83.477C57.3107 83.477 73.8405 67.535 73.8405 47.8696C73.8405 28.2042 57.3107 12.2622 36.9202 12.2622C16.5298 12.2622 0 28.2042 0 47.8696C0 67.535 16.5298 83.477 36.9202 83.477Z" fill="#91B3FA"/>
<path d="M223.609 83.477C243.999 83.477 260.529 67.535 260.529 47.8696C260.529 28.2042 243.999 12.2622 223.609 12.2622C203.218 12.2622 186.689 28.2042 186.689 47.8696C186.689 67.535 203.218 83.477 223.609 83.477Z" fill="#91B3FA"/>
<path d="M215.804 250.995C236.195 250.995 252.724 235.053 252.724 215.388C252.724 195.722 236.195 179.781 215.804 179.781C195.414 179.781 178.884 195.722 178.884 215.388C178.884 235.053 195.414 250.995 215.804 250.995Z" fill="#91B3FA"/>
<path d="M50.5451 40.7695C52.4317 40.3588 59.5422 62.9658 80.7363 50.9011L82.3837 54.6329C82.3837 54.6329 64.5871 72.547 49.5071 55.0871L50.5451 40.7695Z" fill="url(#paint12_linear_398_3)"/>
<path d="M95.1466 56.1591C95.0364 55.3551 94.5523 54.642 93.8317 54.2232L86.8003 50.1317C86.8003 50.1317 86.8427 49.1833 88.6521 48.8172C90.4606 48.4511 90.3721 46.5498 90.3721 46.5498C90.3721 46.5498 87.8741 47.2102 84.1959 48.3012C82.0926 48.9253 80.725 50.3933 79.9385 51.537L81.4625 54.295C85.8725 56.3617 90.52 57.3509 95.3397 57.5572L95.1476 56.1591H95.1466Z" fill="url(#paint13_linear_398_3)"/>
<path d="M22.3564 40.0882C21.7083 40.358 25.5664 64.403 21.373 80.1914C21.373 80.1914 28.5344 83.7978 36.9193 83.4772C36.9193 83.4772 52.0135 61.1073 52.4082 58.5473C52.8556 55.6467 50.5441 40.7695 50.5441 40.7695C50.5441 40.7695 38.336 33.4268 22.3554 40.0882H22.3564Z" fill="url(#paint14_linear_398_3)"/>
<path d="M41.7758 50.2106C49.2358 50.455 49.8292 44.2896 49.4044 40.178C46.9517 39.0162 40.7171 36.6198 32.4763 37.4755C32.3237 40.9847 32.8192 49.9172 41.7758 50.2097V50.2106Z" fill="url(#paint15_linear_398_3)"/>
<path d="M43.9912 26.7188C43.9912 26.7188 40.2857 34.2705 38.1212 37.4545C37.4863 38.3892 37.6804 39.6401 38.5799 40.3451C39.6066 41.1499 41.2738 41.9475 43.865 41.973C44.9538 41.9839 45.9118 41.2726 46.1981 40.2597L48.6405 31.6333L43.9921 26.7188H43.9912Z" fill="url(#paint16_linear_398_3)"/>
<path d="M56.6609 20.499C56.6609 20.499 58.3771 24.3216 56.3604 30.1328C54.3447 35.944 51.0499 36.4491 48.9636 35.0128C46.8772 33.5757 44.1721 31.0085 43.8348 25.7442C43.4986 20.4799 54.2967 15.6644 56.66 20.499H56.6609Z" fill="url(#paint17_linear_398_3)"/>
<path d="M47.9068 25.4016C47.9068 25.4016 51.5473 17.5364 57.0085 22.4356L57.4295 24.4604C57.4295 24.4604 62.6298 23.0315 60.9203 18.4867C59.2116 13.9418 52.9969 10.8586 47.4349 13.8046C41.8728 16.7507 39.9824 20.2199 40.281 24.3569C40.5796 28.4938 43.7953 27.0785 43.7953 27.0785C43.7953 27.0785 44.4141 24.0371 45.924 23.4966C47.4339 22.9561 47.4019 25.2589 47.4019 25.2589L47.9058 25.4016H47.9068Z" fill="url(#paint18_linear_398_3)"/>
<path d="M46.6549 25.498C46.6549 25.498 48.551 21.4655 45.8948 21.3193C43.2386 21.1739 44.319 25.2064 44.8484 26.678L46.654 25.4971L46.6549 25.498Z" fill="url(#paint19_linear_398_3)"/>
<path d="M45.1469 16.7208C46.6352 16.5464 47.2333 14.7731 46.2217 13.7066C42.9551 10.2637 36.7884 6.4438 28.0031 12.3058C18.1064 18.9083 12.7526 21.8951 10.3215 21.2692C8.72496 20.8577 7.33658 22.3802 8.09105 23.7992C8.64867 24.8475 9.78367 25.9431 11.8804 26.9405C28.0578 34.6385 36.4192 17.7464 45.1469 16.7217V16.7208Z" fill="url(#paint20_linear_398_3)"/>
<path d="M216.366 37.5017C216.366 37.5017 202.215 62.1817 181.94 63.9677L180.86 66.9082C180.86 66.9082 208.798 72.1698 223.11 49.9734L216.366 37.5026V37.5017Z" fill="url(#paint21_linear_398_3)"/>
<path d="M194.392 198.331C194.392 198.331 189.958 209.568 198.057 215.364C206.154 221.16 219.122 206.767 219.122 206.767L211.954 224.47C211.954 224.47 202.375 230.379 192.389 220.558C182.403 210.737 189.324 197.393 189.324 197.393C189.324 197.393 182.482 194.223 186.541 187.819C186.819 187.38 187.513 187.497 187.621 188.001C188.022 189.867 189.078 193.146 191.68 194.454C195.412 196.33 194.393 198.331 194.393 198.331H194.392Z" fill="url(#paint22_linear_398_3)"/>
<path d="M158.247 63.8806C158.127 63.8442 158.006 63.8088 157.886 63.7725L158.137 63.9042C158.172 63.9015 158.211 63.8896 158.247 63.8806Z" fill="url(#paint23_linear_398_3)"/>
<path d="M195.411 67.8121C195.913 68.6361 195.658 66.9609 194.902 63.9114C194.533 65.1614 194.651 66.564 195.411 67.8121Z" fill="url(#paint24_linear_398_3)"/>
<path d="M208.142 140.005C204.778 140.18 202.228 136.92 203.353 133.795C204.6 130.326 205.712 125.623 205.628 119.996C205.44 107.486 194.491 98.665 180.322 101.476C166.282 104.261 163.639 116.459 165.687 122.202C166.757 125.204 170.471 130.316 173.782 134.527C176.099 137.471 174.159 141.767 170.435 141.96L132.917 143.904L130.954 111.913C130.79 109.229 127.777 107.781 125.633 109.357C122.022 112.011 116.316 114.379 108.229 112.704C92.8568 109.519 92.8013 95.4201 95.3369 88.3244C97.476 82.337 111.868 74.4364 122.868 81.4449C125.202 82.932 128.238 81.1424 128.066 78.3363L125.979 37.9624C79.232 42.2865 42.6754 80.2667 42.6754 126.485C42.6754 131.621 43.1322 136.653 43.9987 141.551L79.9064 141.963C81.5275 141.994 82.3469 143.695 81.2637 144.758C79.1934 146.791 77.1447 150.108 77.5149 155.141C78.2402 164.979 87.4465 168.714 97.6192 164.565C107.753 160.43 110.402 149.42 100.39 141.723L132.63 142.347L132.845 166.757C132.868 169.43 136.235 171.101 138.672 169.624C151.124 162.079 162.952 171.28 163.569 178.532C164.285 186.954 159.403 195.329 148.688 194.313C144.049 193.872 140.326 192.616 137.599 191.334C135.101 190.16 132.201 191.764 132.221 194.288L132.399 215.389C133.228 215.41 134.059 215.423 134.893 215.423C181.392 215.423 219.846 182.229 226.186 139.072L208.142 140.006V140.005Z" fill="url(#paint25_linear_398_3)"/>
<path d="M134.893 215.878C134.091 215.878 133.248 215.867 132.387 215.844L131.93 215.832L131.749 194.291C131.738 193.005 132.42 191.82 133.574 191.118C134.843 190.346 136.425 190.273 137.807 190.922C141.164 192.5 144.841 193.487 148.735 193.857C152.921 194.253 156.49 193.177 159.055 190.743C161.997 187.951 163.509 183.4 163.098 178.568C162.791 174.951 159.551 170.963 155.22 168.872C152.221 167.425 146.118 165.648 138.925 170.008C137.616 170.801 135.932 170.834 134.529 170.094C133.192 169.388 132.385 168.141 132.374 166.758L132.163 142.792L101.716 142.203C105.787 145.727 107.678 150.003 107.058 154.355C106.409 158.911 102.95 162.884 97.8047 164.982C92.1589 167.286 86.6374 167.257 82.6578 164.904C79.3564 162.953 77.3633 159.496 77.0449 155.17C76.6521 149.835 78.94 146.388 80.9275 144.436C81.2741 144.095 81.3749 143.64 81.1959 143.218C81.0358 142.84 80.611 142.431 79.898 142.417L43.5994 142L43.5334 141.625C42.6509 136.634 42.2035 131.54 42.2035 126.483C42.2035 104.112 50.8144 82.7039 66.4493 66.2024C81.9824 49.8081 103.109 39.6166 125.936 37.5054L126.43 37.46L128.54 78.3117C128.633 79.8188 127.873 81.2123 126.558 81.9436C125.3 82.6421 123.825 82.5976 122.609 81.8227C116.428 77.8856 109.828 79.1583 106.445 80.2666C101.374 81.929 96.8911 85.3792 95.7862 88.4697C94.3055 92.6139 93.6876 99.3553 96.8204 104.711C99.098 108.606 102.97 111.143 108.331 112.254C116.441 113.934 122.061 111.407 125.348 108.991C126.462 108.172 127.879 108.017 129.139 108.575C130.463 109.161 131.34 110.428 131.429 111.883L133.364 143.422L170.411 141.502C171.935 141.423 173.239 140.558 173.898 139.185C174.591 137.745 174.402 136.066 173.407 134.801C168.884 129.052 166.136 124.863 165.24 122.349C164.171 119.351 164.293 114.296 166.972 109.766C168.84 106.608 172.656 102.528 180.229 101.027C187.228 99.6387 193.792 100.971 198.709 104.78C203.384 108.402 206.01 113.803 206.102 119.987C206.174 124.801 205.4 129.497 203.801 133.943C203.324 135.27 203.568 136.74 204.454 137.875C205.329 138.996 206.697 139.624 208.117 139.548L226.736 138.583L226.655 139.132C223.553 160.247 212.635 179.652 195.911 193.771C179.028 208.025 157.357 215.876 134.893 215.876V215.878ZM132.869 214.942C133.564 214.957 134.242 214.965 134.893 214.965C180.118 214.965 219.026 182.587 225.635 139.556L208.167 140.46C206.436 140.55 204.762 139.789 203.697 138.425C202.62 137.046 202.324 135.259 202.905 133.644C204.468 129.298 205.224 124.708 205.155 120C205.066 114.093 202.566 108.94 198.115 105.492C193.421 101.856 187.137 100.587 180.418 101.921C173.193 103.354 169.565 107.224 167.794 110.218C165.261 114.501 165.135 119.248 166.135 122.052C166.987 124.44 169.761 128.657 174.16 134.249C175.368 135.783 175.596 137.821 174.755 139.568C173.946 141.253 172.34 142.316 170.46 142.414L133.122 144.349L133.319 166.75C133.328 167.798 133.95 168.748 134.982 169.293C136.084 169.874 137.401 169.852 138.42 169.235C146.006 164.638 152.467 166.523 155.642 168.056C160.327 170.317 163.702 174.512 164.041 178.492C164.474 183.591 162.858 188.413 159.718 191.393C156.947 194.023 153.116 195.188 148.642 194.763C144.635 194.383 140.849 193.366 137.391 191.741C136.306 191.231 135.067 191.285 134.078 191.887C133.191 192.427 132.687 193.299 132.694 194.28L132.868 214.938L132.869 214.942ZM44.401 141.097L79.913 141.505C80.8973 141.524 81.7234 142.049 82.0728 142.875C82.394 143.634 82.2132 144.478 81.6028 145.077C79.751 146.896 77.6204 150.112 77.9887 155.107C78.2892 159.189 80.075 162.309 83.1523 164.128C86.8681 166.324 92.0741 166.331 97.4364 164.143C102.271 162.171 105.517 158.465 106.12 154.232C106.743 149.86 104.603 145.544 100.097 142.079L99.0038 141.239L132.321 141.884L130.484 111.94C130.415 110.805 129.764 109.858 128.745 109.408C127.808 108.994 126.753 109.11 125.922 109.72C122.476 112.252 116.594 114.904 108.131 113.15C102.495 111.981 98.4123 109.295 95.9962 105.164C92.708 99.5433 93.3457 92.4994 94.8914 88.1753C96.1027 84.7851 100.728 81.1787 106.141 79.4054C109.689 78.2426 116.613 76.9109 123.132 81.0642C124.042 81.6438 125.147 81.6783 126.085 81.155C127.088 80.5973 127.666 79.5272 127.596 78.3635L125.534 38.4638C78.5322 43.0513 43.151 80.808 43.151 126.485C43.151 131.364 43.5721 136.279 44.4028 141.099L44.401 141.097Z" fill="white"/>
<path d="M137.599 191.333C140.327 192.615 144.049 193.871 148.688 194.312C159.403 195.328 164.285 186.952 163.569 178.531C162.953 171.278 151.124 162.078 138.672 169.623C136.236 171.099 132.868 169.429 132.845 166.756L132.63 142.346L100.39 141.722C110.402 149.419 107.753 160.429 97.6192 164.564C87.4465 168.713 78.2402 164.977 77.5149 155.14C77.1438 150.108 79.1925 146.791 81.2637 144.757C82.3469 143.693 81.5275 141.993 79.9064 141.962L43.9987 141.55C51.2845 182.726 87.9127 214.25 132.398 215.389L132.22 194.288C132.2 191.763 135.099 190.16 137.598 191.334L137.599 191.333Z" fill="url(#paint26_linear_398_3)"/>
<path d="M132.399 215.845C132.399 215.845 132.391 215.845 132.387 215.845C88.3112 214.717 50.9425 183.502 43.5334 141.626C43.5099 141.492 43.5485 141.355 43.6399 141.253C43.7312 141.149 43.8678 141.086 44.0053 141.093L79.913 141.505C80.8973 141.524 81.7234 142.049 82.0729 142.875C82.394 143.634 82.2132 144.478 81.6028 145.077C79.751 146.896 77.6204 150.112 77.9887 155.107C78.2892 159.189 80.075 162.309 83.1523 164.128C86.8681 166.324 92.0741 166.331 97.4364 164.143C102.271 162.171 105.517 158.465 106.12 154.232C106.743 149.86 104.603 145.544 100.097 142.079C99.9382 141.958 99.8779 141.751 99.9466 141.567C100.014 141.386 100.192 141.265 100.392 141.265C100.395 141.265 100.399 141.265 100.402 141.265L132.641 141.889C132.898 141.894 133.103 142.095 133.105 142.342L133.32 166.752C133.329 167.799 133.951 168.75 134.983 169.295C136.085 169.876 137.402 169.854 138.421 169.237C146.007 164.64 152.467 166.525 155.644 168.057C160.329 170.318 163.704 174.514 164.042 178.494C164.475 183.592 162.859 188.415 159.719 191.395C156.948 194.025 153.117 195.19 148.643 194.765C144.636 194.385 140.85 193.368 137.392 191.743C136.307 191.233 135.068 191.288 134.079 191.889C133.192 192.429 132.688 193.301 132.695 194.282L132.873 215.383C132.873 215.506 132.823 215.625 132.732 215.712C132.643 215.796 132.524 215.843 132.4 215.843L132.399 215.845ZM44.5639 142.012C52.0936 183.035 88.6983 213.59 131.923 214.917L131.749 194.291C131.738 193.005 132.42 191.82 133.574 191.118C134.843 190.346 136.425 190.273 137.807 190.922C141.164 192.5 144.841 193.487 148.735 193.857C152.921 194.253 156.49 193.177 159.055 190.743C161.997 187.951 163.509 183.4 163.098 178.568C162.791 174.951 159.551 170.963 155.22 168.872C152.221 167.425 146.118 165.648 138.925 170.008C137.616 170.801 135.932 170.834 134.529 170.094C133.192 169.388 132.385 168.141 132.374 166.758L132.163 142.792L101.716 142.203C105.787 145.727 107.678 150.003 107.058 154.355C106.409 158.911 102.95 162.884 97.8047 164.982C92.1589 167.286 86.6374 167.257 82.6578 164.904C79.3564 162.953 77.3633 159.496 77.0449 155.17C76.6521 149.835 78.9391 146.388 80.9275 144.436C81.2741 144.095 81.3749 143.64 81.1959 143.218C81.0358 142.84 80.611 142.431 79.898 142.417L44.563 142.012H44.5639Z" fill="white"/>
<path d="M122.869 81.443C111.868 74.4354 97.4769 82.336 95.3378 88.3225C92.8022 95.4182 92.8578 109.516 108.23 112.702C116.317 114.377 122.023 112.01 125.634 109.355C127.778 107.779 130.791 109.227 130.955 111.911L132.918 143.902L170.436 141.958C174.16 141.765 176.1 137.469 173.783 134.525C170.472 130.315 166.758 125.202 165.688 122.2C163.641 116.456 166.283 104.258 180.323 101.474C194.492 98.663 205.441 107.484 205.629 119.994C205.712 125.621 204.601 130.324 203.354 133.793C202.229 136.919 204.779 140.178 208.143 140.004L226.187 139.069C226.791 134.956 227.111 130.756 227.111 126.483C227.111 86.6319 199.934 52.904 162.479 41.5942C162.443 41.6033 162.405 41.6151 162.369 41.6178L162.118 41.4861C153.512 38.9252 144.371 37.5444 134.894 37.5444C131.886 37.5444 128.914 37.688 125.981 37.9596L128.068 78.3335C128.24 81.1396 125.204 82.9283 122.87 81.4421L122.869 81.443Z" fill="url(#paint27_linear_398_3)"/>
<path d="M132.918 144.359C132.67 144.359 132.461 144.172 132.446 143.93L130.484 111.939C130.414 110.804 129.763 109.858 128.744 109.407C127.808 108.993 126.752 109.109 125.921 109.72C122.475 112.251 116.593 114.903 108.13 113.149C102.495 111.981 98.4113 109.294 95.9953 105.163C92.7071 99.5425 93.3448 92.4986 94.8904 88.1745C96.1017 84.7843 100.727 81.1779 106.14 79.4046C109.688 78.2418 116.612 76.911 123.131 81.0634C124.041 81.643 125.146 81.6775 126.084 81.1542C127.087 80.5965 127.665 79.5263 127.595 78.3627L125.508 37.9842C125.496 37.7408 125.684 37.53 125.936 37.5073C128.928 37.2302 131.943 37.0903 134.894 37.0903C144.217 37.0903 153.423 38.423 162.257 41.052C162.287 41.061 162.317 41.0729 162.344 41.0874L162.446 41.141C162.504 41.1374 162.563 41.1437 162.621 41.161C171.925 43.9707 180.685 48.1749 188.653 53.6563C196.519 59.066 203.439 65.5966 209.219 73.0647C221.233 88.5869 227.584 107.06 227.584 126.485C227.584 130.687 227.272 134.944 226.656 139.136C226.624 139.352 226.438 139.516 226.212 139.528L208.168 140.462C206.437 140.552 204.763 139.791 203.698 138.427C202.621 137.048 202.325 135.261 202.906 133.646C204.469 129.3 205.225 124.709 205.156 120.002C205.067 114.095 202.567 108.942 198.116 105.494C193.422 101.858 187.138 100.589 180.419 101.923C173.194 103.356 169.565 107.226 167.795 110.22C165.262 114.503 165.136 119.25 166.136 122.054C166.987 124.441 169.762 128.659 174.161 134.251C175.369 135.785 175.597 137.823 174.756 139.57C173.947 141.255 172.341 142.318 170.461 142.415L132.944 144.359C132.935 144.359 132.927 144.359 132.918 144.359ZM127.594 108.246C128.115 108.246 128.639 108.355 129.138 108.577C130.462 109.163 131.339 110.43 131.428 111.885L133.363 143.424L170.41 141.504C171.934 141.425 173.238 140.56 173.897 139.187C174.59 137.747 174.401 136.067 173.406 134.803C168.883 129.054 166.135 124.865 165.239 122.351C164.17 119.352 164.292 114.298 166.971 109.768C168.839 106.61 172.655 102.53 180.228 101.029C187.227 99.6406 193.792 100.973 198.708 104.782C203.383 108.404 206.009 113.805 206.101 119.989C206.173 124.803 205.399 129.499 203.8 133.944C203.323 135.272 203.567 136.741 204.453 137.877C205.328 138.998 206.696 139.626 208.116 139.549L225.771 138.635C226.344 134.605 226.635 130.519 226.635 126.484C226.635 87.624 200.851 53.7163 162.458 42.0685C162.442 42.0712 162.426 42.073 162.411 42.0748C162.317 42.083 162.223 42.0648 162.141 42.0212L161.931 41.9113C153.202 39.3178 144.105 38.0033 134.892 38.0033C132.119 38.0033 129.289 38.1287 126.475 38.3757L128.538 78.3136C128.631 79.8207 127.872 81.2142 126.556 81.9455C125.298 82.644 123.823 82.5995 122.607 81.8246C116.426 77.8876 109.826 79.1602 106.443 80.2685C101.371 81.9309 96.8892 85.3811 95.7843 88.4716C94.3036 92.6158 93.6857 99.3572 96.8185 104.713C99.0961 108.607 102.968 111.145 108.329 112.255C116.438 113.935 122.059 111.408 125.346 108.992C126.019 108.498 126.802 108.245 127.593 108.245L127.594 108.246Z" fill="white"/>
<path d="M222.34 83.6703C222.34 83.6703 207.919 43.0503 218.247 35.177C218.247 35.177 233.726 32.7688 244.981 36.8848V76.9062C244.981 76.9062 234.544 86.2503 222.34 83.6694V83.6703Z" fill="url(#paint28_linear_398_3)"/>
<path d="M221.312 27.8497C221.312 27.8497 223.323 32.5598 223.836 36.2635C223.986 37.3508 224.858 38.2066 225.98 38.3855C228.382 38.7707 232.367 38.9851 234.79 36.8521C235.328 36.3788 235.511 35.6348 235.266 34.9744C234.268 32.2791 229.078 21.0565 226.25 19.3359L221.313 27.8497H221.312Z" fill="url(#paint29_linear_398_3)"/>
<path d="M228.006 64.8534C229.614 63.1628 223.678 69.7698 223.667 69.787C220.938 74.4954 214.841 76.1887 214.841 76.1887C214.841 76.1887 212.49 72.4196 209.474 72.297C207.278 72.2071 204.461 74.6971 203.092 76.0561C202.666 76.4794 202.781 77.1761 203.32 77.455L208.967 80.3801C208.967 80.3801 226.037 81.3049 234.785 72.5332C233.238 67.0699 230.233 65.0496 228.006 64.8534Z" fill="url(#paint30_linear_398_3)"/>
<path d="M244.981 36.8857C236.687 39.7218 236.334 54.0458 236.334 54.0458C236.334 54.0458 229.922 61.5975 223.632 68.7241C223.412 68.9739 223.568 69.3573 223.906 69.4C226.19 69.6889 229.841 70.6282 231.399 74.855C231.512 75.1621 231.895 75.2466 232.156 75.0404C232.19 75.014 232.225 74.9895 232.263 74.9677C256.512 61.176 244.981 36.8866 244.981 36.8866V36.8857Z" fill="url(#paint31_linear_398_3)"/>
<path d="M212.246 15.9749C212.246 16.2092 217.677 30.8021 217.677 30.8021L226.25 27.6345L223.233 13.0661C223.233 13.0661 212.246 12.0496 212.246 15.9749Z" fill="url(#paint32_linear_398_3)"/>
<path d="M221.729 16.6153L223.939 24.1643C223.968 24.2615 223.982 24.3587 223.983 24.4595C223.983 25.0754 223.825 27.1939 221.587 26.9059C219.557 26.6443 217.7 26.4353 216.519 26.9713C215.989 27.212 215.735 27.8007 215.933 28.3321C216.427 29.6575 217.597 32.6253 219.021 35.0535C219.31 35.5468 219.944 35.7385 220.478 35.5032C222.088 34.7965 225.441 33.2149 227.83 31.3326C228.153 31.0774 228.309 30.6768 228.232 30.2807C227.856 28.3494 226.737 22.4764 226.687 20.7931C226.641 19.2134 228.478 18.007 229.288 17.5537C229.553 17.4047 229.742 17.1603 229.813 16.8724C230.068 15.8559 230.283 13.5539 227.239 13.047C226.602 12.9407 226.187 12.353 226.316 11.7416C226.573 10.5252 226.491 8.73565 224.097 8.07613C221.663 7.40572 220.131 8.81922 219.352 9.90297C219.038 10.3408 218.448 10.4835 217.943 10.2654C217.656 10.1419 217.309 10.1364 216.936 10.4398C216.433 10.8486 215.668 10.7242 215.299 10.2C214.59 9.19258 213.3 8.18696 211.117 8.86828C207.244 10.0774 207.429 14.3842 208.849 16.7252C210.268 19.0671 214.391 17.5264 216.343 15.9749C217.826 14.7948 220.086 15.5007 221.084 15.9067C221.4 16.0357 221.635 16.2964 221.729 16.6153Z" fill="url(#paint33_linear_398_3)"/>
<path d="M227.032 23.6039C227.032 23.6039 225.172 19.3679 226.688 18.0552C228.203 16.7417 230.319 17.1931 230.249 20.4635C230.164 24.5314 227.032 23.6048 227.032 23.6048V23.6039Z" fill="url(#paint34_linear_398_3)"/>
<path d="M212.464 183.039C212.464 183.039 209.684 172.484 222.389 174.939C222.389 174.939 228.485 173.799 228.966 179.366C228.966 179.366 232.991 181.764 230.247 186.671C230.247 186.671 241.849 181.966 247.264 191.741C252.679 201.515 248.147 207.107 243.263 208.668C243.263 208.668 247.313 210.488 245.557 214.906C243.802 219.325 234.327 222.672 228.512 217.525C228.512 217.525 212.492 220.032 212.479 209.066C212.479 209.066 204.856 204.619 212.437 195.342C220.017 186.064 212.462 183.038 212.462 183.038L212.464 183.039Z" fill="url(#paint35_linear_398_3)"/>
<path d="M212.522 207.686C215.036 206.881 222.378 205.318 229.592 211.369C230.815 212.395 231.351 213.992 230.973 215.513C229.29 222.265 224.776 240.065 229.402 248.502C229.402 248.502 220.805 253.718 212.848 250.995C212.848 250.995 209.264 236.957 204.122 230.151C200.572 225.452 209.001 211.989 211.138 208.734C211.462 208.241 211.949 207.87 212.523 207.686H212.522Z" fill="url(#paint36_linear_398_3)"/>
<path d="M219.118 194.181C219.118 194.181 223.18 204.305 223.6 208.81C223.6 208.81 219.511 210.746 215.512 207.788C215.512 207.788 214.791 197.581 214.143 195.768L219.119 194.18L219.118 194.181Z" fill="url(#paint37_linear_398_3)"/>
<path d="M213.483 180.379C213.483 180.379 204.078 193.896 210.059 197.576C216.041 201.255 222.736 191.648 222.736 191.648C222.736 191.648 224.791 184.337 222.335 181.946C219.881 179.555 213.483 180.379 213.483 180.379Z" fill="url(#paint38_linear_398_3)"/>
<path d="M217.926 177.087C217.926 177.087 213.451 178.244 212.879 180.229C212.308 182.213 219.385 183.837 221.356 183.871L223.183 191.761C223.183 191.761 227.641 184.163 225.654 179.905C223.665 175.646 217.926 177.087 217.926 177.087Z" fill="url(#paint39_linear_398_3)"/>
<path d="M220.804 190.728C220.804 190.728 224.491 186.355 226.095 189.092C227.7 191.829 222.807 194.056 221.051 192.74L220.805 190.727L220.804 190.728Z" fill="url(#paint40_linear_398_3)"/>
<path d="M173.358 194.197C173.358 194.197 175.022 196.318 175.957 196.28C178.382 196.182 182.815 196.399 184.614 198.083C187.108 200.417 188.459 207.62 190.916 213.499C193.372 219.378 203.754 226.069 210.236 223.54C216.717 221.011 220.253 209.787 226.413 209.432C232.573 209.077 232.297 219.636 227.109 223.219C223.743 225.543 207.325 238.077 194.79 229.346C182.255 220.615 182.18 203.08 182.18 203.08C182.18 203.08 178.094 201.481 176.004 200.195C173.915 198.91 173.357 194.197 173.357 194.197H173.358Z" fill="url(#paint41_linear_398_3)"/>
<path d="M20.4528 47.7632C20.4528 47.7632 20.2361 52.2617 23.9303 68.4788C27.8345 85.6162 58.9413 77.2351 58.9413 77.2351L58.2612 73.0391C58.2612 73.0391 36.8854 73.2717 34.0295 69.1438C31.9347 66.116 31.8433 58.4344 32.0976 54.6209C32.2239 52.7259 27.3005 39.0787 22.3564 40.0879C20.9727 41.6059 20.3812 44.224 20.4528 47.7632Z" fill="url(#paint42_linear_398_3)"/>
<path d="M58.0907 78.7131C58.0907 78.7131 57.0094 74.4263 57.4455 72.9056C57.8816 71.3849 58.7265 69.4291 61.5419 69.8642C64.3582 70.2984 67.6794 71.443 67.6794 71.443C67.6794 71.443 67.5118 73.4243 65.3717 72.7848L66.6989 73.775C66.6989 73.775 66.5096 75.3611 64.7011 74.5135L65.935 75.8271C65.935 75.8271 65.1589 77.1298 63.8289 76.294C62.4989 75.4583 61.8612 79.2291 58.0898 78.7131H58.0907Z" fill="url(#paint43_linear_398_3)"/>
<path d="M91.8951 207.721C91.8951 207.721 57.6113 212.579 43.686 197.498C29.3717 186.994 19.7331 200.243 33.9165 208.767C33.9165 208.767 60.2364 232.119 91.2942 211.078L91.8951 207.721Z" fill="url(#paint44_linear_398_3)"/>
<path d="M91.2942 211.078C91.2942 211.078 95.6289 210.423 94.8716 206.478C94.0747 202.324 99.422 201.393 97.1266 198.086C96.958 197.844 96.6405 197.739 96.3598 197.849C94.6314 198.524 88.6465 201.42 89.6704 208.819L91.2942 211.078Z" fill="url(#paint45_linear_398_3)"/>
<path d="M47.5234 160.702C47.5234 160.702 55.4411 173.069 50.4735 177.339C45.5058 181.608 36.7695 170.099 36.7695 170.099C36.7695 170.099 34.4063 156.11 47.5234 160.702Z" fill="url(#paint46_linear_398_3)"/>
<path d="M39.7611 172.743C39.6688 173.073 37.4666 176.162 34.3394 173.976C31.2123 171.789 31.9554 169.144 34.6201 167.769C34.6201 167.769 32.4631 167.476 33.0283 165.587C33.5934 163.697 35.4019 164.217 35.4019 164.217C35.4019 164.217 31.5363 153.935 41.2474 152.721C50.9586 151.508 51.3061 157.013 51.2157 158.739C51.1253 160.465 47.6741 164.141 41.838 163.607C41.838 163.607 43.5909 164.522 42.844 166.551C42.097 168.581 38.6468 170.58 38.6468 170.58L39.762 172.743H39.7611Z" fill="url(#paint47_linear_398_3)"/>
<path d="M41.7768 172.196C41.7768 172.196 39.308 168.384 37.6455 170.56C35.5027 173.365 41.1334 173.909 41.1334 173.909L41.7768 172.196Z" fill="url(#paint48_linear_398_3)"/>
<defs>
<linearGradient id="paint0_linear_398_3" x1="294.899" y1="327.561" x2="71.9836" y2="40.5059" gradientUnits="userSpaceOnUse">
<stop stop-color="#DAE3FE"/>
<stop offset="1" stop-color="#E9EFFD"/>
</linearGradient>
<linearGradient id="paint1_linear_398_3" x1="174.03" y1="30.5777" x2="185.782" y2="30.5777" gradientUnits="userSpaceOnUse">
<stop stop-color="#DAE3FE"/>
<stop offset="1" stop-color="#E9EFFD"/>
</linearGradient>
<linearGradient id="paint2_linear_398_3" x1="165.578" y1="30.6096" x2="194.473" y2="30.6096" gradientUnits="userSpaceOnUse">
<stop stop-color="#DAE3FE"/>
<stop offset="1" stop-color="#E9EFFD"/>
</linearGradient>
<linearGradient id="paint3_linear_398_3" x1="132.385" y1="30.9809" x2="139.884" y2="30.9809" gradientUnits="userSpaceOnUse">
<stop stop-color="#DAE3FE"/>
<stop offset="1" stop-color="#E9EFFD"/>
</linearGradient>
<linearGradient id="paint4_linear_398_3" x1="126.874" y1="31.0084" x2="145.548" y2="31.0084" gradientUnits="userSpaceOnUse">
<stop stop-color="#DAE3FE"/>
<stop offset="1" stop-color="#E9EFFD"/>
</linearGradient>
<linearGradient id="paint5_linear_398_3" x1="120.779" y1="219.313" x2="132.749" y2="219.313" gradientUnits="userSpaceOnUse">
<stop stop-color="#DAE3FE"/>
<stop offset="1" stop-color="#E9EFFD"/>
</linearGradient>
<linearGradient id="paint6_linear_398_3" x1="112.168" y1="219.351" x2="141.6" y2="219.351" gradientUnits="userSpaceOnUse">
<stop stop-color="#DAE3FE"/>
<stop offset="1" stop-color="#E9EFFD"/>
</linearGradient>
<linearGradient id="paint7_linear_398_3" x1="78.3843" y1="217.971" x2="86.0223" y2="217.971" gradientUnits="userSpaceOnUse">
<stop stop-color="#DAE3FE"/>
<stop offset="1" stop-color="#E9EFFD"/>
</linearGradient>
<linearGradient id="paint8_linear_398_3" x1="72.7695" y1="218.001" x2="91.7896" y2="218.001" gradientUnits="userSpaceOnUse">
<stop stop-color="#DAE3FE"/>
<stop offset="1" stop-color="#E9EFFD"/>
</linearGradient>
<linearGradient id="paint9_linear_398_3" x1="-77.1958" y1="-449.998" x2="-59.0857" y2="-368.198" gradientUnits="userSpaceOnUse">
<stop stop-color="#4F52FF"/>
<stop offset="1" stop-color="#4042E2"/>
</linearGradient>
<linearGradient id="paint10_linear_398_3" x1="14.2719" y1="273.352" x2="45.0869" y2="209.913" gradientUnits="userSpaceOnUse">
<stop stop-color="#4F52FF"/>
<stop offset="1" stop-color="#4042E2"/>
</linearGradient>
<linearGradient id="paint11_linear_398_3" x1="35.0732" y1="183.763" x2="48.967" y2="176.978" gradientUnits="userSpaceOnUse">
<stop stop-color="#FEBBBA"/>
<stop offset="1" stop-color="#FF928E"/>
</linearGradient>
<linearGradient id="paint12_linear_398_3" x1="46.9686" y1="66.1299" x2="107.845" y2="4.27147" gradientUnits="userSpaceOnUse">
<stop stop-color="#FEBBBA"/>
<stop offset="1" stop-color="#FF928E"/>
</linearGradient>
<linearGradient id="paint13_linear_398_3" x1="96.5243" y1="49.1261" x2="57.2813" y2="72.3578" gradientUnits="userSpaceOnUse">
<stop stop-color="#FEBBBA"/>
<stop offset="1" stop-color="#FF928E"/>
</linearGradient>
<linearGradient id="paint14_linear_398_3" x1="86.1966" y1="-24.1654" x2="59.6892" y2="19.1591" gradientUnits="userSpaceOnUse">
<stop stop-color="#E1473D"/>
<stop offset="1" stop-color="#E9605A"/>
</linearGradient>
<linearGradient id="paint15_linear_398_3" x1="45.8411" y1="11.9861" x2="40.5484" y2="45.3248" gradientUnits="userSpaceOnUse">
<stop stop-color="#FEBBBA"/>
<stop offset="1" stop-color="#FF928E"/>
</linearGradient>
<linearGradient id="paint16_linear_398_3" x1="47.0976" y1="12.1858" x2="41.8049" y2="45.5237" gradientUnits="userSpaceOnUse">
<stop stop-color="#FEBBBA"/>
<stop offset="1" stop-color="#FF928E"/>
</linearGradient>
<linearGradient id="paint17_linear_398_3" x1="-402.904" y1="574.575" x2="-428.428" y2="607.705" gradientUnits="userSpaceOnUse">
<stop stop-color="#FEBBBA"/>
<stop offset="1" stop-color="#FF928E"/>
</linearGradient>
<linearGradient id="paint18_linear_398_3" x1="47.2672" y1="16.4382" x2="30.6525" y2="-12.4809" gradientUnits="userSpaceOnUse">
<stop stop-color="#09005D"/>
<stop offset="1" stop-color="#1A0F91"/>
</linearGradient>
<linearGradient id="paint19_linear_398_3" x1="-407.669" y1="570.902" x2="-433.193" y2="604.031" gradientUnits="userSpaceOnUse">
<stop stop-color="#FEBBBA"/>
<stop offset="1" stop-color="#FF928E"/>
</linearGradient>
<linearGradient id="paint20_linear_398_3" x1="31.3827" y1="25.5643" x2="14.7671" y2="-3.35398" gradientUnits="userSpaceOnUse">
<stop stop-color="#09005D"/>
<stop offset="1" stop-color="#1A0F91"/>
</linearGradient>
<linearGradient id="paint21_linear_398_3" x1="227.104" y1="-45.6689" x2="210.755" y2="27.1791" gradientUnits="userSpaceOnUse">
<stop stop-color="#4F52FF"/>
<stop offset="1" stop-color="#4042E2"/>
</linearGradient>
<linearGradient id="paint22_linear_398_3" x1="173.547" y1="203.046" x2="192.399" y2="206.606" gradientUnits="userSpaceOnUse">
<stop stop-color="#C4421B"/>
<stop offset="1" stop-color="#5C0E16"/>
</linearGradient>
<linearGradient id="paint23_linear_398_3" x1="304.056" y1="238.688" x2="149.325" y2="39.4322" gradientUnits="userSpaceOnUse">
<stop stop-color="#B37CFF"/>
<stop offset="1" stop-color="#F895E7"/>
</linearGradient>
<linearGradient id="paint24_linear_398_3" x1="135.58" y1="159.299" x2="352.514" y2="-205.424" gradientUnits="userSpaceOnUse">
<stop stop-color="#53D8FF"/>
<stop offset="1" stop-color="#3840F7"/>
</linearGradient>
<linearGradient id="paint25_linear_398_3" x1="193.337" y1="200.823" x2="21.4996" y2="1.91802" gradientUnits="userSpaceOnUse">
<stop stop-color="#4042E2"/>
<stop offset="1" stop-color="#4F52FF"/>
</linearGradient>
<linearGradient id="paint26_linear_398_3" x1="84.7422" y1="190.523" x2="163.99" y2="69.8348" gradientUnits="userSpaceOnUse">
<stop stop-color="#FE7062"/>
<stop offset="1" stop-color="#FF928E"/>
</linearGradient>
<linearGradient id="paint27_linear_398_3" x1="94.0955" y1="90.7243" x2="227.109" y2="90.7243" gradientUnits="userSpaceOnUse">
<stop stop-color="#FE7062"/>
<stop offset="1" stop-color="#FF928E"/>
</linearGradient>
<linearGradient id="paint28_linear_398_3" x1="206.307" y1="0.516147" x2="235.405" y2="68.8623" gradientUnits="userSpaceOnUse">
<stop stop-color="#4F52FF"/>
<stop offset="1" stop-color="#4042E2"/>
</linearGradient>
<linearGradient id="paint29_linear_398_3" x1="221.312" y1="28.9852" x2="235.372" y2="28.9852" gradientUnits="userSpaceOnUse">
<stop stop-color="#FEBBBA"/>
<stop offset="1" stop-color="#FF928E"/>
</linearGradient>
<linearGradient id="paint30_linear_398_3" x1="240.386" y1="55.7583" x2="217.713" y2="76.8177" gradientUnits="userSpaceOnUse">
<stop stop-color="#FEBBBA"/>
<stop offset="1" stop-color="#FF928E"/>
</linearGradient>
<linearGradient id="paint31_linear_398_3" x1="240.101" y1="25.2134" x2="256.555" y2="-114.327" gradientUnits="userSpaceOnUse">
<stop stop-color="#4F52FF"/>
<stop offset="1" stop-color="#4042E2"/>
</linearGradient>
<linearGradient id="paint32_linear_398_3" x1="215.864" y1="16.0775" x2="233.466" y2="40.2216" gradientUnits="userSpaceOnUse">
<stop stop-color="#FEBBBA"/>
<stop offset="1" stop-color="#FF928E"/>
</linearGradient>
<linearGradient id="paint33_linear_398_3" x1="221.864" y1="3.78112" x2="212.309" y2="52.3881" gradientUnits="userSpaceOnUse">
<stop stop-color="#09005D"/>
<stop offset="1" stop-color="#1A0F91"/>
</linearGradient>
<linearGradient id="paint34_linear_398_3" x1="242.131" y1="34.4513" x2="228.316" y2="19.7553" gradientUnits="userSpaceOnUse">
<stop stop-color="#FEBBBA"/>
<stop offset="1" stop-color="#FF928E"/>
</linearGradient>
<linearGradient id="paint35_linear_398_3" x1="217.954" y1="171.348" x2="237.049" y2="224.302" gradientUnits="userSpaceOnUse">
<stop stop-color="#09005D"/>
<stop offset="1" stop-color="#1A0F91"/>
</linearGradient>
<linearGradient id="paint36_linear_398_3" x1="239.587" y1="210.304" x2="301.68" y2="147.185" gradientUnits="userSpaceOnUse">
<stop stop-color="#FF928E"/>
<stop offset="1" stop-color="#FE7062"/>
</linearGradient>
<linearGradient id="paint37_linear_398_3" x1="234.633" y1="123.97" x2="207.559" y2="268.602" gradientUnits="userSpaceOnUse">
<stop stop-color="#C4421B"/>
<stop offset="1" stop-color="#5C0E16"/>
</linearGradient>
<linearGradient id="paint38_linear_398_3" x1="211.504" y1="194.574" x2="231.552" y2="166.645" gradientUnits="userSpaceOnUse">
<stop stop-color="#C4421B"/>
<stop offset="1" stop-color="#5C0E16"/>
</linearGradient>
<linearGradient id="paint39_linear_398_3" x1="216.066" y1="172.029" x2="235.162" y2="224.982" gradientUnits="userSpaceOnUse">
<stop stop-color="#09005D"/>
<stop offset="1" stop-color="#1A0F91"/>
</linearGradient>
<linearGradient id="paint40_linear_398_3" x1="217.415" y1="198.818" x2="237.462" y2="170.888" gradientUnits="userSpaceOnUse">
<stop stop-color="#C4421B"/>
<stop offset="1" stop-color="#5C0E16"/>
</linearGradient>
<linearGradient id="paint41_linear_398_3" x1="218.789" y1="201.579" x2="306.375" y2="160.921" gradientUnits="userSpaceOnUse">
<stop stop-color="#C4421B"/>
<stop offset="1" stop-color="#5C0E16"/>
</linearGradient>
<linearGradient id="paint42_linear_398_3" x1="96.3532" y1="46.5968" x2="10.6147" y2="66.5935" gradientUnits="userSpaceOnUse">
<stop stop-color="#FEBBBA"/>
<stop offset="1" stop-color="#FF928E"/>
</linearGradient>
<linearGradient id="paint43_linear_398_3" x1="51.9504" y1="83.2225" x2="110.349" y2="22.6707" gradientUnits="userSpaceOnUse">
<stop stop-color="#FEBBBA"/>
<stop offset="1" stop-color="#FF928E"/>
</linearGradient>
<linearGradient id="paint44_linear_398_3" x1="33.2491" y1="271.635" x2="4.83831" y2="350.67" gradientUnits="userSpaceOnUse">
<stop stop-color="#4F52FF"/>
<stop offset="1" stop-color="#4042E2"/>
</linearGradient>
<linearGradient id="paint45_linear_398_3" x1="94.5437" y1="203.273" x2="131.364" y2="152.466" gradientUnits="userSpaceOnUse">
<stop stop-color="#FEBBBA"/>
<stop offset="1" stop-color="#FF928E"/>
</linearGradient>
<linearGradient id="paint46_linear_398_3" x1="50.8154" y1="171.043" x2="32.5136" y2="162.681" gradientUnits="userSpaceOnUse">
<stop stop-color="#FEBBBA"/>
<stop offset="1" stop-color="#FF928E"/>
</linearGradient>
<linearGradient id="paint47_linear_398_3" x1="30.351" y1="167.501" x2="51.3828" y2="157.23" gradientUnits="userSpaceOnUse">
<stop stop-color="#09005D"/>
<stop offset="1" stop-color="#1A0F91"/>
</linearGradient>
<linearGradient id="paint48_linear_398_3" x1="48.6662" y1="175.746" x2="30.3648" y2="167.384" gradientUnits="userSpaceOnUse">
<stop stop-color="#FEBBBA"/>
<stop offset="1" stop-color="#FF928E"/>
</linearGradient>
</defs>
</svg>
