<svg width="257" height="253" viewBox="0 0 257 253" fill="none" xmlns="http://www.w3.org/2000/svg">
<path d="M244.414 171.538C218.57 231.25 150.351 256.897 96.9007 252.524C82.3064 251.331 52.9424 248.928 30.0154 227.495C-14.0151 186.336 -7.23441 100.3 34.9158 49.648C40.3436 43.1251 77.9161 -0.578799 136.465 0.0058113C179.332 0.434104 209.419 24.3706 213.078 27.3524C217.7 31.1194 227.893 40.0711 237.08 54.2725C258.666 87.6405 260.564 134.223 244.414 171.537V171.538Z" fill="url(#paint0_linear_398_8)"/>
<path d="M182.612 165.361C182.612 165.361 181.78 130.75 197.907 121.487C214.034 112.223 244.697 106.431 245.846 56.7331C246.519 27.6372 247.247 14.9168 247.735 9.36973C247.925 7.20567 245.98 5.45907 243.821 5.86116C228.548 8.7056 178.93 20.4123 168.528 53.8887C156.195 93.5754 182.612 165.361 182.612 165.361V165.361Z" fill="#91B3FA"/>
<path d="M232.009 19.6893C215.243 34.4699 195.857 60.6292 185.524 86.7876C184.197 91.0985 180.317 100.267 178.632 116.557C177.128 130.142 177.876 144.498 179.7 154.001C179.815 154.601 180.401 154.996 181.009 154.882C182.054 154.686 181.915 153.574 181.906 153.609C179.822 137.373 180.687 117.165 185.462 98.9316C191.562 76.5429 205.169 54.8355 219.242 36.4252L220.69 34.6126C231.594 20.7708 233.89 20.6687 232.871 19.7037C232.63 19.476 232.253 19.4742 232.008 19.6883L232.009 19.6893Z" fill="#BDD0FB"/>
<path d="M180.256 181.041C179.015 180.229 181.922 172.912 182.17 171.85C183.087 167.924 183.867 163.967 184.505 159.987C187.877 138.976 187.92 112.653 200.028 102.508C210.105 94.0652 244.395 99.3954 255.615 101.421C257.017 101.674 257.489 103.425 256.397 104.331C251.017 108.797 239.507 119.334 236.508 129.951C232.555 143.947 219.094 152.849 207.043 155.258C199.432 156.779 192.82 158.98 188.289 165.601C185.865 169.144 184.992 177.572 182.291 180.034C181.223 181.007 180.588 181.26 180.254 181.041H180.256Z" fill="#BDD0FB"/>
<path d="M239.836 107.335C225.521 107.928 210.156 114.382 202.357 126.49L201.622 127.646C199.921 130.355 190.288 149.613 184.938 165.578C184.871 165.776 184.981 165.991 185.182 166.057C185.524 166.169 185.695 165.797 185.663 165.831C189.39 156.812 194.744 145.378 199.008 136.827C203.581 127.497 206.782 121.178 217.212 115.125C228.822 108.606 239.914 107.935 239.88 107.942C240.049 107.925 240.172 107.776 240.155 107.608C240.138 107.447 239.997 107.328 239.836 107.334V107.335Z" fill="url(#paint1_linear_398_8)"/>
<path d="M107.218 131.901C107.218 131.901 99.1767 101.469 82.746 97.3711C66.3154 93.2734 38.0693 95.8061 24.476 52.6877C16.517 27.4446 12.6587 16.5159 10.8269 11.792C10.112 9.94963 11.3689 7.9428 13.3561 7.75938C27.4156 6.46275 73.7121 4.40442 91.2781 31.0643C112.102 62.6703 107.217 131.901 107.217 131.901H107.218Z" fill="#91B3FA"/>
<path d="M27.1752 16.9115C45.5611 25.6698 69.1189 43.716 84.7698 64.003C87.0203 67.4392 92.7315 74.4862 98.3293 88.2946C103.085 99.7862 106.069 112.509 106.882 121.26C106.934 121.813 106.522 122.302 105.962 122.353C104.999 122.441 104.839 121.436 104.857 121.464C102.563 106.769 96.6885 89.3346 87.8996 74.5928C76.9005 56.5503 59.5183 40.9619 42.5629 28.367L40.839 27.1427C27.8096 17.7537 25.7794 18.2326 26.4248 17.1374C26.5774 16.879 26.9056 16.7841 27.1743 16.9106L27.1752 16.9115Z" fill="#BDD0FB"/>
<path d="M148.705 181.974C150.879 182.357 123.742 163.219 106.199 126.051C97.9317 108.537 91.2251 85.5586 78.0805 79.6962C67.1417 74.8169 38.5455 87.9603 29.2603 92.507C28.1003 93.0754 28.1314 94.7208 29.3142 95.2422C35.1442 97.811 47.8655 104.163 53.1745 112.694C60.1718 123.938 74.1829 128.38 85.3173 127.501C96.4518 126.621 102.899 127.004 112.851 142.187C122.805 157.371 142.529 180.884 148.704 181.973L148.705 181.974Z" fill="#BDD0FB"/>
<path d="M44.5401 93.7656C57.191 90.7395 72.2459 92.5729 82.1226 101.216L83.0577 102.043C85.2286 103.989 98.5203 118.422 107.237 131.04C107.346 131.197 107.305 131.412 107.146 131.519C106.875 131.701 106.632 131.418 106.668 131.439C101.128 124.486 93.5559 115.825 87.6656 109.414C81.3081 102.397 76.9123 97.6708 66.2706 94.9673C54.4807 92.1491 44.6242 94.3086 44.6552 94.3059C44.5035 94.333 44.3572 94.2327 44.3307 94.0827C44.3042 93.9382 44.3975 93.799 44.5401 93.7647V93.7656Z" fill="url(#paint2_linear_398_8)"/>
<path d="M167.647 61.0278C167.647 61.0278 178.359 86.1543 205.252 88.9717L204.539 93.6043C204.539 93.6043 169.416 99.6257 150.851 69.1338L167.647 61.0278Z" fill="url(#paint3_linear_398_8)"/>
<path d="M107.621 123.957C107.621 123.957 96.4281 79.8105 120.434 42.5581C120.983 41.7051 121.946 41.2027 122.967 41.2524C128.625 41.5253 148.048 43.8809 169.894 62.686C169.894 62.686 146.934 81.923 144.173 124.897C144.173 124.897 122.895 125.803 107.621 123.957Z" fill="url(#paint4_linear_398_8)"/>
<path d="M153.027 33.2538L141.665 45.6707C140.597 46.8381 140.616 48.5513 141.708 49.6997C143.604 51.693 146.96 54.2664 151.352 53.7739C152.789 53.6131 154.05 52.808 154.752 51.6379L161.636 40.1671L153.027 33.2529V33.2538Z" fill="url(#paint5_linear_398_8)"/>
<path d="M172.218 25.2789C172.218 25.2789 171.065 46.1459 161.798 47.251C152.531 48.3561 152.03 27.8549 152.03 27.8549C152.03 27.8549 160.927 9.47269 172.218 25.2789Z" fill="url(#paint6_linear_398_8)"/>
<path d="M156.054 34.2954C156.054 34.2954 156.377 27.8403 152.654 29.0936C147.857 30.7073 153.89 35.8071 153.89 35.8071L156.054 34.2954Z" fill="url(#paint7_linear_398_8)"/>
<path d="M155.223 29.9394C155.223 29.9394 153.784 34.226 155.223 33.2537C156.662 32.2815 157.816 21.744 164.244 24.9707C170.672 28.1974 182.682 30.1509 180.045 17.9003C177.408 5.64964 169.953 16.2133 159.356 13.3725C148.759 10.5316 150.16 20.4745 151.256 22.25C148.133 23.7572 148.364 27.5676 151.256 29.9241C152.107 29.3142 153.784 27.7736 155.223 29.9385V29.9394Z" fill="url(#paint8_linear_398_8)"/>
<path d="M174.781 26.5111C174.717 26.5111 174.66 26.4659 174.648 26.4017C174.634 26.3295 174.683 26.2599 174.756 26.2463C174.778 26.2427 176.941 25.8271 178.177 23.8428C179.217 22.1739 179.322 19.9033 178.49 17.0932C178.469 17.0227 178.51 16.9486 178.581 16.9278C178.653 16.907 178.728 16.9477 178.749 17.0182C179.603 19.9051 179.488 22.2498 178.405 23.9856C177.104 26.071 174.898 26.4903 174.804 26.5075C174.796 26.5093 174.788 26.5093 174.78 26.5093L174.781 26.5111Z" fill="#91B3FA"/>
<path d="M119.564 42.0085C119.564 42.0085 82.5779 77.6553 91.7553 88.1024C100.933 98.5495 131.496 111.358 131.496 111.358L130.524 104.351C130.524 104.351 104.387 84.7619 107.747 81.669C109.499 80.0561 114.989 74.8163 119.841 70.1701C126.213 64.0701 128.562 54.8555 125.625 46.5824C124.326 42.9238 122.4 40.4761 119.564 42.0085Z" fill="url(#paint9_linear_398_8)"/>
<path d="M242.463 234.57C168.133 194.556 90.194 197.413 8.93383 237.6C5.55812 239.27 1.58643 236.831 1.58643 233.1V169.773C1.58643 164.759 4.24641 160.11 8.5947 157.526C89.6584 109.367 169.685 109.184 246.045 157.908C250.558 160.787 253.299 165.723 253.37 171.032L254.128 227.62C254.207 233.584 247.762 237.423 242.463 234.57Z" fill="url(#paint10_linear_398_8)"/>
<path d="M241.337 233.092C168.322 194.691 91.7617 197.432 11.9384 236C8.62213 237.602 4.72083 235.262 4.72083 231.681V170.905C4.72083 166.092 7.33419 161.632 11.6048 159.153C91.2352 112.934 169.845 112.758 244.855 159.519C249.288 162.282 251.98 167.02 252.051 172.115L252.795 226.422C252.873 232.145 246.542 235.83 241.337 233.092Z" fill="url(#paint11_linear_398_8)"/>
<path d="M151.731 157L143.554 165.199C142.917 165.837 142.639 166.743 142.81 167.622L145.008 178.929C145.438 181.144 143.113 182.884 141.074 181.875L130.658 176.721C129.848 176.32 128.89 176.339 128.096 176.772L117.896 182.331C115.899 183.42 113.505 181.772 113.846 179.543L115.586 168.158C115.722 167.272 115.407 166.378 114.746 165.766L106.245 157.895C104.581 156.354 105.426 153.594 107.677 153.226L119.168 151.343C120.062 151.197 120.825 150.625 121.21 149.815L126.155 139.39C127.124 137.349 130.04 137.291 131.09 139.292L136.452 149.514C136.869 150.309 137.655 150.85 138.554 150.96L150.111 152.389C152.374 152.668 153.331 155.392 151.73 156.998L151.731 157Z" fill="url(#paint12_linear_398_8)"/>
<path opacity="0.62" d="M128.521 173.878C127.92 173.979 127.345 174.177 126.811 174.468L120.15 178.099C119.45 178.48 118.608 178.437 117.952 177.985C117.297 177.533 116.963 176.768 117.083 175.986L118.219 168.551C118.485 166.809 117.868 165.05 116.567 163.846L111.015 158.706C110.432 158.165 110.213 157.36 110.445 156.604C110.678 155.848 111.311 155.297 112.099 155.168L115.934 154.54L116.031 155.117L112.196 155.745C111.622 155.838 111.181 156.226 111.01 156.773C110.842 157.323 110.995 157.885 111.419 158.278L116.971 163.419C118.414 164.755 119.099 166.706 118.804 168.638L117.668 176.073C117.581 176.641 117.814 177.176 118.29 177.505C118.767 177.834 119.355 177.864 119.865 177.587L126.526 173.956C127.117 173.633 127.755 173.413 128.422 173.301L128.521 173.877L128.521 173.878Z" fill="white"/>
<path opacity="0.62" d="M141.531 176.64C141.394 176.988 141.161 177.299 140.844 177.535C140.207 178.012 139.367 178.089 138.652 177.735L133.448 175.16L133.713 174.637L138.917 177.212C139.437 177.469 140.024 177.416 140.488 177.069C140.951 176.722 141.162 176.178 141.053 175.613L139.618 168.229C139.249 166.334 139.866 164.318 141.239 162.942L146.579 157.587C146.987 157.178 147.116 156.609 146.927 156.066C146.736 155.523 146.278 155.156 145.701 155.086L138.152 154.153C136.191 153.91 134.477 152.729 133.567 150.996L130.064 144.32C129.797 143.809 129.29 143.512 128.709 143.523C128.128 143.535 127.633 143.852 127.387 144.372L124.157 151.181C123.822 151.885 123.36 152.508 122.779 153.034L122.38 152.603C122.903 152.129 123.32 151.567 123.621 150.932L126.851 144.124C127.191 143.408 127.898 142.954 128.697 142.938C129.496 142.923 130.222 143.349 130.589 144.051L134.092 150.726C134.912 152.29 136.458 153.354 138.225 153.573L145.774 154.506C146.567 154.603 147.223 155.128 147.485 155.875C147.746 156.621 147.561 157.435 147.001 157.998L141.661 163.353C140.422 164.593 139.866 166.41 140.2 168.12L141.634 175.504C141.71 175.895 141.671 176.286 141.533 176.64H141.531Z" fill="white"/>
<path opacity="0.62" d="M118.199 154.176L115.926 154.548L116.023 155.125L118.296 154.753L118.199 154.176Z" fill="white"/>
<path d="M101.535 158.891L95.9692 169.004C95.5359 169.791 95.5231 170.737 95.9326 171.536L101.206 181.803C102.239 183.813 100.491 186.122 98.248 185.709L86.7973 183.602C85.906 183.438 84.991 183.717 84.3502 184.35L76.1025 192.48C74.4873 194.072 71.7268 193.142 71.4306 190.907L69.9196 179.49C69.8017 178.602 69.2505 177.829 68.4434 177.421L58.0722 172.18C56.0411 171.153 56.0822 168.27 58.1417 167.301L68.6582 162.352C69.4763 161.967 70.0503 161.209 70.1929 160.326L72.0312 148.956C72.3913 146.73 75.1774 145.878 76.7469 147.514L84.7579 155.872C85.3813 156.522 86.2872 156.827 87.1821 156.688L98.6886 154.902C100.942 154.553 102.623 156.909 101.533 158.89L101.535 158.891Z" fill="url(#paint13_linear_398_8)"/>
<path opacity="0.62" d="M83.949 181.454C83.3996 181.715 82.9023 182.063 82.4718 182.488L77.0851 187.798C76.5193 188.356 75.6975 188.544 74.9397 188.289C74.1829 188.035 73.6491 187.389 73.5449 186.606L72.5576 179.15C72.3264 177.403 71.2414 175.882 69.6545 175.079L62.8812 171.656C62.17 171.297 61.7349 170.583 61.7459 169.792C61.7578 169.002 62.213 168.301 62.9351 167.961L66.4443 166.309L66.6984 166.837L63.1892 168.488C62.6636 168.735 62.3482 169.229 62.3373 169.801C62.3291 170.376 62.6334 170.875 63.1508 171.137L69.9242 174.56C71.6847 175.45 72.8885 177.137 73.1445 179.075L74.1317 186.53C74.2067 187.1 74.5805 187.55 75.1308 187.735C75.6811 187.921 76.2551 187.79 76.6664 187.383L82.0531 182.074C82.5312 181.602 83.0833 181.216 83.6921 180.926L83.949 181.453V181.454Z" fill="white"/>
<path opacity="0.62" d="M97.2233 180.552C97.1894 180.923 97.0514 181.287 96.8138 181.6C96.3348 182.233 95.5487 182.536 94.7626 182.392L89.0413 181.339L89.1501 180.764L94.8713 181.817C95.4426 181.923 95.992 181.71 96.3403 181.25C96.6885 180.791 96.7397 180.21 96.4755 179.697L93.0322 172.994C92.1474 171.272 92.1766 169.167 93.1108 167.469L96.7452 160.864C97.0222 160.359 96.9874 159.777 96.6538 159.308C96.3183 158.838 95.7754 158.612 95.2013 158.701L87.6857 159.867C85.7323 160.169 83.7552 159.503 82.3968 158.085L77.1637 152.626C76.7633 152.209 76.1939 152.061 75.6381 152.23C75.0823 152.4 74.6966 152.84 74.6052 153.408L73.405 160.834C73.2807 161.602 73.0101 162.328 72.5988 162.992L72.0942 162.688C72.4644 162.089 72.7085 161.434 72.82 160.742L74.0202 153.317C74.1463 152.536 74.6984 151.906 75.4626 151.673C76.2268 151.44 77.0431 151.65 77.5924 152.224L82.8255 157.683C84.0504 158.961 85.8338 159.562 87.5943 159.288L95.1099 158.123C95.8997 158 96.6767 158.325 97.1374 158.971C97.598 159.617 97.6465 160.449 97.2653 161.144L93.63 167.749C92.7872 169.28 92.7607 171.177 93.5596 172.73L97.003 179.434C97.1849 179.789 97.2571 180.176 97.2224 180.554L97.2233 180.552Z" fill="white"/>
<path opacity="0.62" d="M68.5265 165.327L66.4465 166.306L66.7007 166.834L68.7806 165.855L68.5265 165.327Z" fill="white"/>
<path d="M51.9689 173.916L46.403 184.029C45.9697 184.816 45.9569 185.762 46.3664 186.561L51.6398 196.828C52.6727 198.838 50.925 201.147 48.6818 200.734L37.2311 198.627C36.3399 198.463 35.4249 198.742 34.7841 199.375L26.5363 207.505C24.9211 209.097 22.1606 208.167 21.8644 205.932L20.3535 194.515C20.2355 193.627 19.6843 192.854 18.8772 192.446L8.50602 187.205C6.47493 186.178 6.51606 183.295 8.57549 182.326L19.092 177.377C19.9101 176.992 20.4842 176.234 20.6268 175.351L22.465 163.981C22.8251 161.755 25.6113 160.902 27.1807 162.539L35.1918 170.897C35.8152 171.547 36.721 171.852 37.6159 171.713L49.1224 169.927C51.3756 169.578 53.0566 171.934 51.967 173.915L51.9689 173.916Z" fill="url(#paint14_linear_398_8)"/>
<path opacity="0.62" d="M34.3828 196.479C33.8335 196.74 33.3362 197.088 32.9057 197.513L27.519 202.823C26.9532 203.381 26.1314 203.569 25.3736 203.314C24.6168 203.059 24.0829 202.414 23.9787 201.631L22.9915 194.175C22.7603 192.428 21.6752 190.906 20.0884 190.104L13.315 186.681C12.6039 186.322 12.1688 185.608 12.1797 184.817C12.1916 184.027 12.6468 183.325 13.369 182.986L16.8781 181.334L17.1322 181.862L13.6231 183.513C13.0975 183.76 12.7821 184.253 12.7711 184.826C12.7629 185.401 13.0673 185.9 13.5847 186.162L20.358 189.584C22.1186 190.475 23.3224 192.162 23.5784 194.1L24.5656 201.555C24.6405 202.125 25.0144 202.575 25.5647 202.76C26.1149 202.946 26.689 202.815 27.1003 202.408L32.487 197.099C32.9651 196.627 33.5172 196.241 34.126 195.951L34.3828 196.478V196.479Z" fill="white"/>
<path opacity="0.62" d="M47.6571 195.577C47.6233 195.949 47.4853 196.311 47.2476 196.625C46.7686 197.258 45.9825 197.561 45.1964 197.417L39.4751 196.364L39.5839 195.789L45.3052 196.842C45.8765 196.948 46.4258 196.735 46.7741 196.275C47.1224 195.815 47.1736 195.234 46.9094 194.722L43.466 188.018C42.5812 186.297 42.6105 184.192 43.5446 182.494L47.179 175.889C47.456 175.384 47.4213 174.802 47.0876 174.332C46.7522 173.862 46.2092 173.635 45.6352 173.725L38.1196 174.89C36.1662 175.193 34.189 174.527 32.8307 173.109L27.5976 167.65C27.1972 167.233 26.6277 167.085 26.0719 167.254C25.5162 167.424 25.1304 167.864 25.039 168.432L23.8388 175.858C23.7145 176.626 23.444 177.352 23.0326 178.016L22.528 177.711C22.8982 177.113 23.1423 176.458 23.2538 175.766L24.454 168.341C24.5802 167.56 25.1323 166.93 25.8964 166.697C26.6606 166.464 27.4769 166.674 28.0263 167.248L33.2594 172.707C34.4843 173.985 36.2676 174.586 38.0282 174.312L45.5437 173.147C46.3335 173.024 47.1105 173.349 47.5712 173.995C48.0319 174.641 48.0803 175.473 47.6992 176.168L44.0638 182.773C43.2211 184.304 43.1946 186.201 43.9935 187.754L47.4368 194.458C47.6187 194.813 47.6909 195.2 47.6562 195.578L47.6571 195.577Z" fill="white"/>
<path opacity="0.62" d="M18.9602 180.354L16.8802 181.333L17.1344 181.86L19.2143 180.882L18.9602 180.354Z" fill="white"/>
<path d="M248.904 190.285L238.034 194.421C237.189 194.743 236.558 195.455 236.347 196.326L233.632 207.523C233.1 209.716 230.256 210.354 228.818 208.603L221.479 199.662C220.908 198.966 220.028 198.593 219.125 198.664L207.514 199.572C205.24 199.75 203.747 197.273 204.987 195.38L211.322 185.717C211.815 184.965 211.901 184.023 211.554 183.195L207.092 172.559C206.219 170.477 208.141 168.307 210.344 168.889L221.598 171.858C222.474 172.09 223.407 171.88 224.096 171.298L232.95 163.817C234.684 162.353 237.365 163.488 237.487 165.74L238.108 177.237C238.157 178.132 238.647 178.945 239.419 179.412L249.352 185.424C251.297 186.602 251.032 189.473 248.903 190.284L248.904 190.285Z" fill="url(#paint15_linear_398_8)"/>
<path d="M201.389 169.789L191.222 175.405C190.431 175.843 189.909 176.636 189.825 177.527L188.741 188.991C188.529 191.236 185.805 192.266 184.132 190.733L175.586 182.91C174.921 182.302 173.996 182.056 173.112 182.253L161.748 184.776C159.522 185.27 157.689 183.028 158.646 180.981L163.532 170.53C163.912 169.716 163.863 168.771 163.401 168.001L157.46 158.096C156.297 156.157 157.888 153.74 160.153 154.008L171.719 155.371C172.619 155.477 173.514 155.139 174.111 154.467L181.804 145.821C183.311 144.128 186.128 144.878 186.57 147.09L188.833 158.385C189.009 159.263 189.611 159.999 190.442 160.355L201.137 164.916C203.231 165.808 203.381 168.688 201.389 169.789Z" fill="url(#paint16_linear_398_8)"/>
<path opacity="0.62" d="M174.336 179.592C173.731 179.522 173.122 179.554 172.528 179.686L165.107 181.335C164.327 181.508 163.53 181.233 163.027 180.618C162.525 180.004 162.421 179.176 162.757 178.459L165.948 171.633C166.695 170.034 166.599 168.174 165.69 166.659L161.811 160.19C161.403 159.511 161.421 158.677 161.856 158.014C162.293 157.352 163.057 156.999 163.851 157.093L167.71 157.547L167.641 158.127L163.781 157.673C163.204 157.604 162.671 157.855 162.353 158.333C162.035 158.815 162.024 159.397 162.32 159.892L166.199 166.36C167.207 168.041 167.314 170.103 166.485 171.877L163.295 178.703C163.051 179.225 163.123 179.803 163.489 180.25C163.854 180.698 164.41 180.889 164.978 180.763L172.399 179.114C173.058 178.968 173.733 178.933 174.404 179.009L174.336 179.59V179.592Z" fill="white"/>
<path opacity="0.62" d="M186.049 185.833C185.82 186.129 185.507 186.363 185.137 186.503C184.39 186.786 183.562 186.627 182.975 186.09L178.706 182.181L179.108 181.752L183.377 185.661C183.803 186.051 184.382 186.163 184.925 185.957C185.468 185.751 185.824 185.287 185.878 184.715L186.586 177.229C186.767 175.306 187.929 173.541 189.635 172.599L196.275 168.931C196.783 168.649 197.067 168.139 197.038 167.566C197.008 166.992 196.672 166.513 196.138 166.286L189.153 163.307C187.337 162.532 186.025 160.926 185.642 159.01L184.163 151.633C184.049 151.07 183.647 150.644 183.086 150.494C182.525 150.345 181.96 150.513 181.577 150.945L176.552 156.591C176.033 157.175 175.411 157.646 174.706 157.991L174.444 157.467C175.08 157.156 175.64 156.731 176.108 156.205L181.132 150.558C181.661 149.965 182.468 149.723 183.239 149.929C184.012 150.134 184.588 150.744 184.742 151.52L186.22 158.896C186.566 160.624 187.75 162.072 189.386 162.77L196.371 165.749C197.105 166.062 197.587 166.747 197.628 167.536C197.668 168.325 197.261 169.055 196.563 169.441L189.923 173.11C188.384 173.96 187.337 175.55 187.175 177.284L186.467 184.77C186.43 185.167 186.282 185.532 186.048 185.833H186.049Z" fill="white"/>
<path opacity="0.62" d="M167.717 157.557L167.647 158.138L169.934 158.408L170.004 157.827L167.717 157.557Z" fill="white"/>
<path d="M209.022 103.005L189.047 112.73C187.494 113.486 186.417 114.95 186.166 116.644L182.948 138.424C182.317 142.689 177.013 144.388 173.972 141.299L158.442 125.526C157.234 124.299 155.493 123.739 153.787 124.027L131.838 127.731C127.54 128.457 124.265 123.995 126.298 120.181L136.674 100.707C137.481 99.1926 137.482 97.3827 136.678 95.8665L126.331 76.3765C124.306 72.5598 127.586 68.1034 131.883 68.8353L153.827 72.5724C155.534 72.8634 157.276 72.305 158.485 71.0806L174.039 55.3314C177.086 52.2466 182.387 53.9544 183.011 58.2201L186.196 80.0043C186.443 81.6985 187.518 83.1632 189.07 83.9222L209.03 93.679C212.939 95.5891 212.935 101.101 209.023 103.007L209.022 103.005Z" fill="url(#paint17_linear_398_8)"/>
<path opacity="0.62" d="M156.39 119.065C155.241 118.874 154.077 118.876 152.929 119.07L138.596 121.488C137.089 121.742 135.596 121.141 134.698 119.917C133.8 118.694 133.687 117.105 134.398 115.768L141.175 103.05C142.763 100.071 142.766 96.5114 141.183 93.5288L134.426 80.8001C133.715 79.4629 133.833 77.8735 134.732 76.6519C135.633 75.4311 137.127 74.8312 138.632 75.0878L145.955 76.3347L145.763 77.4362L138.44 76.1892C137.344 76.0022 136.301 76.4287 135.646 77.3106C134.992 78.1988 134.91 79.3093 135.426 80.2824L142.183 93.011C143.939 96.3199 143.937 100.268 142.175 103.573L135.399 116.292C134.881 117.263 134.961 118.374 135.614 119.263C136.266 120.152 137.309 120.573 138.405 120.388L152.739 117.97C154.013 117.755 155.304 117.754 156.577 117.966L156.39 119.068V119.065Z" fill="white"/>
<path opacity="0.62" d="M178.124 132.129C177.656 132.672 177.036 133.088 176.315 133.32C174.861 133.786 173.296 133.402 172.23 132.319L164.471 124.438L165.281 123.659L173.041 131.54C173.815 132.327 174.909 132.595 175.966 132.256C177.024 131.917 177.751 131.067 177.91 129.978L180.013 115.756C180.551 112.104 182.946 108.847 186.299 107.215L199.344 100.864C200.34 100.378 200.935 99.4312 200.938 98.3343C200.938 97.2356 200.345 96.2886 199.348 95.8025L186.313 89.4296C182.925 87.7733 180.58 84.5774 180.041 80.8818L177.959 66.6542C177.8 65.5663 177.075 64.7142 176.018 64.3736C174.961 64.0329 173.867 64.2995 173.091 65.0856L162.932 75.3727C161.882 76.4362 160.649 77.2738 159.267 77.863L158.82 76.8374C160.065 76.3061 161.176 75.5507 162.123 74.5911L172.282 64.3049C173.35 63.2242 174.915 62.8429 176.368 63.311C177.822 63.779 178.86 64.9988 179.078 66.4933L181.16 80.721C181.646 84.0533 183.76 86.9348 186.813 88.4266L199.85 94.7995C201.219 95.4691 202.07 96.8235 202.07 98.3343C202.068 99.8451 201.215 101.198 199.845 101.866L186.8 108.218C183.776 109.689 181.617 112.623 181.133 115.917L179.03 130.139C178.919 130.892 178.6 131.575 178.124 132.127V132.129Z" fill="white"/>
<path opacity="0.62" d="M145.946 76.3282L145.754 77.4297L150.094 78.169L150.286 77.0676L145.946 76.3282Z" fill="white"/>
<path d="M128.317 103.959C128.317 103.959 128.161 100.947 127.372 99.5521C126.584 98.157 128.419 97.8372 129.323 99.1455C130.227 100.455 130.874 104.085 130.874 104.085C130.874 104.085 129.299 105.01 128.317 103.959Z" fill="url(#paint18_linear_398_8)"/>
<path d="M134.375 111.718C134.045 112.246 133.46 112.568 132.832 112.566C132.204 112.564 131.623 112.239 131.295 111.709C130.248 110.015 128.663 107.287 128.372 105.865C127.93 103.709 127.629 100.825 130.524 100.279C133.419 99.7319 137.188 99.9108 137.188 99.9108C137.188 99.9108 138.14 102.561 135.767 102.574L137.571 103.341C137.571 103.341 138.281 105.485 136.104 105.094L138.002 106.319C138.002 106.319 138.001 108.325 136.281 107.761C135.037 107.354 135.483 109.943 134.374 111.718H134.375Z" fill="url(#paint19_linear_398_8)"/>
<path d="M204.442 86.9797C198.737 84.2329 196.558 84.2835 194.155 86.3581L198.203 89.4889C199.511 90.6654 199.264 91.8798 198.766 92.9017C198.149 94.1658 199.272 95.9576 201.13 96.5467C202.488 96.9768 203.794 96.6525 205.009 94.9691L206.079 92.8954C205.747 91.372 206.129 88.2032 204.441 86.9806L204.442 86.9797Z" fill="url(#paint20_linear_398_8)"/>
<defs>
<linearGradient id="paint0_linear_398_8" x1="270.624" y1="285.894" x2="84.8823" y2="83.0786" gradientUnits="userSpaceOnUse">
<stop stop-color="#DAE3FE"/>
<stop offset="1" stop-color="#E9EFFD"/>
</linearGradient>
<linearGradient id="paint1_linear_398_8" x1="234.194" y1="114.026" x2="56.7342" y2="253.575" gradientUnits="userSpaceOnUse">
<stop stop-color="#DAE3FE"/>
<stop offset="1" stop-color="#E9EFFD"/>
</linearGradient>
<linearGradient id="paint2_linear_398_8" x1="55.2952" y1="56.3939" x2="136.016" y2="282.816" gradientUnits="userSpaceOnUse">
<stop stop-color="#DAE3FE"/>
<stop offset="1" stop-color="#E9EFFD"/>
</linearGradient>
<linearGradient id="paint3_linear_398_8" x1="210.709" y1="138.775" x2="137.145" y2="1.10041" gradientUnits="userSpaceOnUse">
<stop stop-color="#53D8FF"/>
<stop offset="1" stop-color="#3840F7"/>
</linearGradient>
<linearGradient id="paint4_linear_398_8" x1="186.006" y1="22.1364" x2="66.5298" y2="162.317" gradientUnits="userSpaceOnUse">
<stop stop-color="#09005D"/>
<stop offset="1" stop-color="#1A0F91"/>
</linearGradient>
<linearGradient id="paint5_linear_398_8" x1="131.608" y1="62.8313" x2="162.473" y2="34.1052" gradientUnits="userSpaceOnUse">
<stop stop-color="#FEBBBA"/>
<stop offset="1" stop-color="#FF928E"/>
</linearGradient>
<linearGradient id="paint6_linear_398_8" x1="167.417" y1="40.0902" x2="152.869" y2="15.9807" gradientUnits="userSpaceOnUse">
<stop stop-color="#FEBBBA"/>
<stop offset="1" stop-color="#FF928E"/>
</linearGradient>
<linearGradient id="paint7_linear_398_8" x1="161.036" y1="43.9406" x2="146.488" y2="19.8301" gradientUnits="userSpaceOnUse">
<stop stop-color="#FEBBBA"/>
<stop offset="1" stop-color="#FF928E"/>
</linearGradient>
<linearGradient id="paint8_linear_398_8" x1="149" y1="22.6133" x2="180.418" y2="22.6133" gradientUnits="userSpaceOnUse">
<stop stop-color="#09005D"/>
<stop offset="1" stop-color="#1A0F91"/>
</linearGradient>
<linearGradient id="paint9_linear_398_8" x1="52.3866" y1="-19.1994" x2="109.487" y2="70.2427" gradientUnits="userSpaceOnUse">
<stop stop-color="#09005D"/>
<stop offset="1" stop-color="#1A0F91"/>
</linearGradient>
<linearGradient id="paint10_linear_398_8" x1="360.061" y1="259.233" x2="42.3271" y2="166.586" gradientUnits="userSpaceOnUse">
<stop stop-color="#4F52FF"/>
<stop offset="1" stop-color="#4042E2"/>
</linearGradient>
<linearGradient id="paint11_linear_398_8" x1="126.897" y1="285.358" x2="121.409" y2="546.947" gradientUnits="userSpaceOnUse">
<stop stop-color="#4F52FF"/>
<stop offset="1" stop-color="#4042E2"/>
</linearGradient>
<linearGradient id="paint12_linear_398_8" x1="112.026" y1="142.899" x2="175.126" y2="218.156" gradientUnits="userSpaceOnUse">
<stop stop-color="#E4120E"/>
<stop offset="1" stop-color="#FE7062"/>
</linearGradient>
<linearGradient id="paint13_linear_398_8" x1="59.4373" y1="156.173" x2="141.168" y2="211.201" gradientUnits="userSpaceOnUse">
<stop stop-color="#E4120E"/>
<stop offset="1" stop-color="#FE7062"/>
</linearGradient>
<linearGradient id="paint14_linear_398_8" x1="9.87031" y1="171.2" x2="91.6023" y2="226.228" gradientUnits="userSpaceOnUse">
<stop stop-color="#E4120E"/>
<stop offset="1" stop-color="#FE7062"/>
</linearGradient>
<linearGradient id="paint15_linear_398_8" x1="76.0495" y1="530.724" x2="181.32" y2="283.061" gradientUnits="userSpaceOnUse">
<stop stop-color="#4F52FF"/>
<stop offset="1" stop-color="#4042E2"/>
</linearGradient>
<linearGradient id="paint16_linear_398_8" x1="167.26" y1="145.291" x2="206.856" y2="234.862" gradientUnits="userSpaceOnUse">
<stop stop-color="#E4120E"/>
<stop offset="1" stop-color="#FE7062"/>
</linearGradient>
<linearGradient id="paint17_linear_398_8" x1="202.229" y1="34.1815" x2="145.291" y2="124.902" gradientUnits="userSpaceOnUse">
<stop stop-color="#E4120E"/>
<stop offset="1" stop-color="#FE7062"/>
</linearGradient>
<linearGradient id="paint18_linear_398_8" x1="137.806" y1="87.6974" x2="155.956" y2="58.6459" gradientUnits="userSpaceOnUse">
<stop stop-color="#FEBBBA"/>
<stop offset="1" stop-color="#FF928E"/>
</linearGradient>
<linearGradient id="paint19_linear_398_8" x1="142.129" y1="90.399" x2="160.28" y2="61.3475" gradientUnits="userSpaceOnUse">
<stop stop-color="#FEBBBA"/>
<stop offset="1" stop-color="#FF928E"/>
</linearGradient>
<linearGradient id="paint20_linear_398_8" x1="198.311" y1="92.058" x2="211.207" y2="73.7893" gradientUnits="userSpaceOnUse">
<stop stop-color="#FEBBBA"/>
<stop offset="1" stop-color="#FF928E"/>
</linearGradient>
</defs>
</svg>
