<svg width="24" height="18" viewBox="0 0 24 18" fill="none" xmlns="http://www.w3.org/2000/svg">
<path d="M10.5939 17.0703L0.423756 9.66314C0.269663 9.55091 0.160257 9.42933 0.0955374 9.29839C0.0318456 9.16746 0 9.02717 0 8.87753C0 8.72789 0.0318456 8.5876 0.0955374 8.45666C0.160257 8.32573 0.269663 8.20414 0.423756 8.09191L10.5939 0.684703C10.8764 0.478947 11.2293 0.371207 11.6525 0.36148C12.0768 0.352501 12.443 0.460242 12.7512 0.684703C13.0594 0.890459 13.2202 1.14747 13.2335 1.45573C13.2458 1.76473 13.0979 2.03147 12.7897 2.25593L5.23917 7.75522H22.4591C22.8957 7.75522 23.2619 7.86259 23.5578 8.07732C23.8526 8.29281 24 8.55954 24 8.87753C24 9.19551 23.8526 9.46187 23.5578 9.67661C23.2619 9.89209 22.8957 9.99983 22.4591 9.99983H5.23917L12.7897 15.4991C13.0722 15.7049 13.2202 15.9668 13.2335 16.2847C13.2458 16.6027 13.0979 16.8646 12.7897 17.0703C12.5072 17.2948 12.1477 17.407 11.7111 17.407C11.2745 17.407 10.9021 17.2948 10.5939 17.0703Z" fill="#C9C9C9"/>
</svg>
