<svg width="261" height="258" viewBox="0 0 261 258" fill="none" xmlns="http://www.w3.org/2000/svg">
<path d="M227.046 217.667C220.374 224.44 214.402 228.421 209.831 231.426C165.247 260.738 114.283 252.29 98.5261 249.402C73.1048 244.743 51.6453 241.457 33.2074 225.054C-8.68844 187.784 -6.65034 110.035 25.3632 61.8721C29.1589 56.1615 61.1235 9.50636 112.199 2.932C113.448 2.77124 114.38 2.67978 115.196 2.59478C123.098 1.77068 172.059 -2.57619 211.982 30.3584C217.697 35.073 226.894 43.5764 235.423 56.5459C266.607 103.968 266.706 177.415 227.047 217.667H227.046Z" fill="url(#paint0_linear_152_1170)"/>
<path d="M257.896 1.43417C258.165 0.291327 256.559 -0.468106 255.576 0.33013C245.593 8.43628 221.608 32.7095 227.586 75.1277C235.086 128.349 222.264 147.769 206.304 159.614C206.304 159.614 228.223 154.043 242.012 134.338C275.869 85.9557 253.13 21.7522 257.896 1.43325V1.43417Z" fill="#BDD0FB"/>
<g style="mix-blend-mode:soft-light">
<path d="M250.299 18.0574C249.05 23.9823 247.937 29.9256 247.077 35.8948C246.182 41.8594 245.494 47.8453 245.025 53.8404C244.581 59.8364 244.268 65.8398 244.251 71.845C244.202 77.8502 244.451 83.8499 244.726 89.8737C244.961 95.8946 245.239 101.96 244.798 108.067C244.365 114.162 243.083 120.31 240.541 126.074C239.905 127.511 239.237 128.943 238.478 130.327C237.748 131.724 236.946 133.092 236.117 134.448C234.441 137.153 232.555 139.767 230.454 142.249C226.236 147.202 221.149 151.596 215.545 155.315C214.955 155.707 214.11 155.61 213.657 155.1C213.212 154.599 213.312 153.885 213.874 153.49L213.877 153.487C215.211 152.549 216.53 151.599 217.797 150.601C218.439 150.112 219.055 149.598 219.682 149.095C220.286 148.572 220.913 148.068 221.497 147.529C223.877 145.407 226.082 143.145 228.082 140.752C232.106 135.988 235.327 130.682 237.766 125.179C238.951 122.415 239.898 119.58 240.589 116.692C241.278 113.803 241.71 110.865 241.95 107.902C242.43 101.974 242.213 95.9694 242.028 89.9476C241.852 83.9239 241.722 77.8696 241.88 71.8201C241.95 68.7953 242.083 65.7723 242.278 62.7531C242.366 61.2425 242.487 59.7347 242.605 58.226C242.74 56.7183 242.885 55.2123 243.044 53.7064C243.691 47.6864 244.552 41.6857 245.63 35.7175C246.741 29.7538 248.035 23.8169 249.592 17.9336C249.636 17.7655 249.83 17.6602 250.024 17.699C250.213 17.7359 250.333 17.8967 250.299 18.0593V18.0574Z" fill="white"/>
</g>
<path d="M226.722 147.678C227.867 149.521 230.521 149.595 231.789 147.834C238.785 138.118 256.085 108.854 245.323 68.9302C236.234 35.2158 234.505 16.0702 234.321 7.32378C234.282 5.47417 231.908 4.74984 230.843 6.26039C219.086 22.9309 185.231 80.8788 226.723 147.678H226.722Z" fill="#91B3FA"/>
<g style="mix-blend-mode:soft-light">
<path d="M229.598 147.085C229.648 147.105 229.701 147.12 229.755 147.13C230.215 147.216 230.656 146.912 230.742 146.452C230.839 145.93 240.319 93.7383 229.796 46.2895C229.694 45.8331 229.242 45.5448 228.785 45.6456C228.329 45.7472 228.041 46.1999 228.142 46.6572C238.589 93.7605 229.174 145.624 229.077 146.142C229.001 146.547 229.227 146.939 229.596 147.085H229.598Z" fill="white"/>
</g>
<g opacity="0.3">
<path d="M54.4695 53.2538C54.011 53.1919 53.665 52.7918 53.6788 52.3188C53.7102 51.285 53.7858 50.2364 53.9058 49.2035C53.9639 48.7009 54.4178 48.3406 54.9197 48.3988C54.9262 48.3988 54.9317 48.4006 54.9373 48.4015C55.43 48.4681 55.7806 48.918 55.7234 49.4141C55.6099 50.3953 55.537 51.3912 55.5075 52.3733C55.4927 52.8787 55.0711 53.2769 54.5655 53.2612C54.5332 53.2612 54.5009 53.2575 54.4695 53.2528V53.2538ZM55.596 45.3546C55.561 45.35 55.525 45.3426 55.489 45.3333C55 45.2067 54.7057 44.7078 54.8312 44.2182C55.0904 43.2121 55.3949 42.2069 55.7363 41.2313C55.9033 40.7536 56.4227 40.5033 56.9025 40.6696C57.3795 40.8368 57.6304 41.3597 57.4634 41.8373C57.1387 42.7649 56.8499 43.7193 56.6036 44.6764C56.4864 45.131 56.0491 45.4174 55.596 45.3555V45.3546ZM58.4313 37.8998C58.3307 37.8859 58.2302 37.8554 58.1342 37.8055C57.6858 37.5736 57.5096 37.0211 57.7412 36.5712C58.2163 35.6501 58.7376 34.7373 59.2903 33.8596C59.5597 33.4319 60.1252 33.3044 60.5515 33.5732C60.9787 33.843 61.1069 34.4084 60.8375 34.8362C60.3125 35.6695 59.818 36.5352 59.3668 37.411C59.1842 37.7649 58.804 37.9496 58.4313 37.8988V37.8998ZM62.8609 31.2653C62.6939 31.2432 62.5315 31.1739 62.394 31.0565C62.0083 30.7295 61.9604 30.1521 62.2861 29.7659C62.9559 28.9741 63.6672 28.2008 64.4007 27.4691C64.7587 27.1125 65.3372 27.1143 65.6943 27.4719C66.0504 27.8303 66.0495 28.4105 65.6915 28.7672C64.994 29.4619 64.3186 30.1955 63.6829 30.9485C63.4735 31.1961 63.1607 31.3051 62.8609 31.2644V31.2653ZM68.6568 25.7876C68.4225 25.7562 68.2011 25.6343 68.0488 25.4301C67.7453 25.0254 67.8265 24.4517 68.2297 24.1477C69.0554 23.526 69.9199 22.9301 70.7992 22.3785C71.2273 22.1097 71.7919 22.2381 72.0604 22.6677C72.3289 23.0964 72.1997 23.6618 71.7716 23.9306C70.9367 24.4554 70.1146 25.0208 69.3294 25.6121C69.1292 25.7627 68.8875 25.8191 68.6568 25.7876ZM75.5185 21.7299C75.2158 21.6893 74.94 21.4971 74.8053 21.1969C74.5986 20.7349 74.8043 20.1935 75.2647 19.9857C76.2095 19.5616 77.1838 19.1717 78.1618 18.829C78.6388 18.6617 79.1601 18.913 79.3271 19.3907C79.4941 19.8674 79.2431 20.3903 78.7661 20.5575C77.837 20.8837 76.9116 21.2532 76.0139 21.656C75.8524 21.729 75.6808 21.7503 75.5175 21.7281L75.5185 21.7299ZM109.027 24.0674C108.901 24.0507 108.778 24.0073 108.663 23.9353C107.831 23.4114 106.965 22.9171 106.089 22.4663C105.64 22.2353 105.463 21.6828 105.693 21.2329C105.924 20.783 106.476 20.6056 106.925 20.8365C107.848 21.3114 108.76 21.8316 109.637 22.3831C110.065 22.652 110.193 23.2174 109.924 23.6461C109.728 23.9602 109.371 24.1136 109.027 24.0664V24.0674ZM83.1025 19.2974C82.7261 19.2465 82.4068 18.9629 82.3284 18.5693C82.2288 18.0732 82.5508 17.5909 83.0453 17.4912C84.0602 17.2879 85.0972 17.1253 86.126 17.0098C86.6279 16.9562 87.0809 17.3147 87.1372 17.8182C87.1935 18.3208 86.8318 18.7744 86.3299 18.8308C85.3528 18.9407 84.3684 19.0941 83.4042 19.2872C83.3018 19.3075 83.2003 19.3103 83.1016 19.2974H83.1025ZM101.845 20.6111C101.785 20.6028 101.725 20.5889 101.666 20.5686C100.737 20.2443 99.7819 19.957 98.8279 19.7122C98.3379 19.5865 98.0427 19.0876 98.1682 18.598C98.2937 18.1083 98.7919 17.8099 99.2809 17.9374C100.286 18.1952 101.29 18.4973 102.267 18.8382C102.744 19.0045 102.996 19.5265 102.83 20.0041C102.684 20.4227 102.267 20.6684 101.845 20.6111ZM91.039 18.622C90.5814 18.5601 90.2354 18.161 90.2483 17.6889C90.2621 17.1835 90.6838 16.7853 91.1885 16.7992C92.2227 16.8287 93.269 16.9027 94.2987 17.0209C94.3051 17.0209 94.3116 17.0228 94.318 17.0228C94.8098 17.0893 95.1604 17.5383 95.1041 18.0344C95.0469 18.537 94.5939 18.8982 94.092 18.841C93.1131 18.7292 92.1194 18.659 91.1368 18.6312C91.1036 18.6303 91.0713 18.6275 91.039 18.6229V18.622Z" fill="#91B3FA"/>
<path d="M114.134 27.9682C113.956 27.9442 113.783 27.8675 113.64 27.7363C113.292 27.4167 112.932 27.0998 112.57 26.793C112.184 26.4669 112.135 25.8886 112.461 25.5024C112.786 25.1162 113.364 25.0663 113.75 25.3943C114.131 25.7167 114.51 26.0502 114.875 26.3865C115.247 26.7284 115.273 27.3076 114.931 27.6809C114.721 27.9109 114.42 28.0089 114.133 27.9701L114.134 27.9682Z" fill="#91B3FA"/>
</g>
<g opacity="0.3">
<path d="M125.697 53.3802C125.259 53.321 124.917 52.9515 124.906 52.4951C124.895 52.023 124.873 51.5435 124.841 51.0695C124.808 50.5642 125.19 50.1281 125.694 50.0958C126.201 50.0625 126.633 50.445 126.666 50.9494C126.699 51.4483 126.722 51.9537 126.734 52.4507C126.746 52.9561 126.346 53.3765 125.842 53.3885C125.792 53.3894 125.743 53.3866 125.696 53.3802H125.697Z" fill="#91B3FA"/>
<path d="M85.3427 89.6351C84.9256 89.5787 84.5077 89.515 84.0897 89.4438C83.5915 89.3588 83.2566 88.8858 83.3405 88.3878C83.4254 87.8889 83.8997 87.5517 84.3951 87.6377C85.3602 87.8012 86.3299 87.9259 87.2885 88.0081C87.7923 88.0525 88.165 88.495 88.1216 88.9985C88.0783 89.503 87.6354 89.8762 87.1326 89.8328C86.5402 89.782 85.9378 89.7155 85.3427 89.6351ZM79.3944 88.3102C79.3437 88.3038 79.293 88.2918 79.2422 88.2761C78.2679 87.9702 77.2964 87.6201 76.3544 87.2348C75.8866 87.0436 75.6624 86.5087 75.8534 86.0412C76.0444 85.5728 76.5795 85.3473 77.0463 85.5395C77.9413 85.9054 78.8649 86.238 79.7903 86.529C80.2719 86.6805 80.5404 87.1942 80.389 87.6765C80.2534 88.1088 79.8281 88.3694 79.3944 88.3102ZM91.9459 89.9095C91.5188 89.8513 91.1792 89.4965 91.1562 89.0493C91.1303 88.544 91.5178 88.1135 92.0225 88.0876C92.9876 88.0377 93.9637 87.9462 94.9242 87.8141C95.4252 87.7457 95.8865 88.0959 95.9548 88.5976C96.0231 89.0992 95.6734 89.5612 95.1724 89.6295C94.1612 89.7681 93.1334 89.8651 92.1166 89.9178C92.0585 89.9206 92.0013 89.9178 91.9459 89.9104V89.9095ZM72.2136 85.1496C72.0983 85.1339 71.9848 85.0961 71.8778 85.0341C70.9957 84.5223 70.1248 83.9661 69.2888 83.3822C68.8746 83.0921 68.774 82.5221 69.0628 82.1073C69.3525 81.6925 69.9218 81.5908 70.336 81.8809C71.1295 82.4353 71.9562 82.9637 72.7939 83.4497C73.2313 83.7028 73.3798 84.2636 73.127 84.7015C72.936 85.0323 72.5688 85.1986 72.2127 85.1506L72.2136 85.1496ZM99.6795 88.6391C99.3289 88.592 99.0225 88.3417 98.9211 87.9786C98.7845 87.4917 99.0687 86.9854 99.5549 86.8487C100.485 86.5872 101.417 86.2823 102.325 85.9432C102.798 85.7659 103.325 86.0061 103.502 86.4809C103.678 86.9549 103.438 87.4824 102.965 87.6589C102.009 88.0164 101.027 88.338 100.049 88.6123C99.9249 88.6475 99.7994 88.6548 99.6795 88.6382V88.6391ZM106.948 85.7003C106.667 85.6624 106.409 85.4952 106.264 85.2272C106.024 84.7819 106.191 84.2267 106.636 83.9865C107.49 83.5264 108.333 83.0247 109.144 82.4962C109.566 82.22 110.133 82.3392 110.41 82.7642C110.686 83.1882 110.566 83.7555 110.142 84.0317C109.289 84.5879 108.401 85.1154 107.503 85.5996C107.327 85.6947 107.132 85.7261 106.948 85.7012V85.7003ZM113.404 81.2444C113.19 81.2157 112.987 81.1113 112.835 80.9358C112.505 80.5533 112.546 79.975 112.928 79.6442C113.662 79.0086 114.376 78.336 115.052 77.6431C115.406 77.2818 115.984 77.2745 116.346 77.6283C116.707 77.9821 116.714 78.5614 116.361 78.9236C115.649 79.6525 114.897 80.3611 114.126 81.0291C113.919 81.2083 113.656 81.2776 113.405 81.2444H113.404ZM118.735 75.4849C118.587 75.4646 118.442 75.4082 118.314 75.313C117.908 75.0119 117.822 74.4391 118.123 74.0325C118.7 73.2528 119.249 72.4388 119.757 71.6147C120.022 71.1842 120.586 71.0502 121.015 71.3154C121.445 71.5806 121.579 72.1451 121.314 72.5756C120.78 73.444 120.201 74.3005 119.594 75.1218C119.388 75.3999 119.055 75.5283 118.735 75.4849ZM122.674 68.6916C122.591 68.6805 122.508 68.6574 122.428 68.6214C121.966 68.4172 121.756 67.8767 121.959 67.4138C122.349 66.5278 122.706 65.6132 123.02 64.6958C123.184 64.2172 123.706 63.9631 124.182 64.1267C124.66 64.2911 124.914 64.8122 124.75 65.2908C124.419 66.2571 124.043 67.2198 123.633 68.152C123.465 68.5345 123.067 68.7442 122.673 68.6916H122.674ZM125.026 61.2026C125.008 61.1998 124.989 61.197 124.97 61.1933C124.474 61.0954 124.152 60.6131 124.25 60.117C124.388 59.4167 124.507 58.7035 124.603 57.9976C124.637 57.7417 124.669 57.4867 124.698 57.2317C124.755 56.7291 125.208 56.3679 125.71 56.4242C126.219 56.4723 126.572 56.9342 126.516 57.4368C126.486 57.7057 126.452 57.9736 126.416 58.2425C126.316 58.9853 126.191 59.7354 126.046 60.4727C125.951 60.9504 125.502 61.2672 125.027 61.2026H125.026Z" fill="#91B3FA"/>
<path d="M65.8889 80.4695C65.709 80.4455 65.5337 80.367 65.3907 80.2339C65.0272 79.8967 64.6646 79.5456 64.3112 79.1909C63.9551 78.8324 63.957 78.2522 64.3149 77.8956C64.6729 77.5389 65.2523 77.5399 65.6085 77.8993C65.9434 78.2365 66.2884 78.57 66.6335 78.8906C67.0044 79.2343 67.0266 79.8135 66.6833 80.1849C66.473 80.4122 66.174 80.5092 65.8889 80.4704V80.4695Z" fill="#91B3FA"/>
</g>
<path d="M68.5341 70.1074C68.6291 70.2626 68.8127 70.3411 68.9908 70.3014L74.0708 69.1752C75.7795 70.9047 77.7771 72.3746 80.0117 73.498L80.5136 78.681C80.5311 78.863 80.6621 79.0136 80.8393 79.0561L86.9083 80.514C87.0855 80.5565 87.2709 80.4817 87.3687 80.3283L90.1634 75.9371C92.6637 75.95 95.1096 75.5481 97.4162 74.7822L101.433 78.0934C101.575 78.2099 101.773 78.2237 101.929 78.1276L107.25 74.8608C107.406 74.7656 107.483 74.5818 107.443 74.4035L106.319 69.3165C108.046 67.6055 109.514 65.6053 110.636 63.3677L115.812 62.8651C115.993 62.8475 116.144 62.7163 116.186 62.5389L117.642 56.4616C117.685 56.2842 117.61 56.0985 117.456 56.0006L113.071 53.2022C113.083 50.6984 112.682 48.2492 111.917 45.9395L115.224 41.9169C115.34 41.7756 115.354 41.5769 115.258 41.4208L111.996 36.0928C111.901 35.9366 111.717 35.859 111.539 35.8988L106.459 37.0259C104.75 35.2964 102.753 33.8265 100.518 32.703L100.016 27.5201C99.9987 27.3381 99.8677 27.1875 99.6905 27.145L93.6214 25.6871C93.4443 25.6446 93.2588 25.7194 93.161 25.8737L90.3664 30.2649C87.866 30.252 85.4201 30.6539 83.1136 31.4198L79.0964 28.1086C78.9552 27.9922 78.7569 27.9783 78.601 28.0744L73.2801 31.3412C73.1242 31.4364 73.0467 31.6203 73.0864 31.7986L74.2111 36.8855C72.4839 38.5965 71.016 40.5967 69.8941 42.8344L64.7181 43.3369C64.5363 43.3545 64.386 43.4857 64.3435 43.6631L62.8876 49.7404C62.8452 49.9178 62.9199 50.1035 63.073 50.2014L67.4583 52.9998C67.4454 55.5036 67.8468 57.9519 68.6116 60.2625L65.3049 64.2851C65.1886 64.4264 65.1748 64.6251 65.2708 64.7812L68.5332 70.1092L68.5341 70.1074Z" fill="#91B3FA"/>
<path d="M89.4207 59.3254C86.3898 58.9152 84.0297 56.3265 83.9928 53.1752C83.9522 49.7115 86.7321 46.8595 90.192 46.8188C91.8675 46.7985 93.4507 47.4332 94.6492 48.6056C95.8486 49.778 96.5194 51.3477 96.5397 53.0255C96.5803 56.4891 93.8004 59.3411 90.3414 59.3818C90.0296 59.3855 89.7224 59.3661 89.4216 59.3254H89.4207ZM90.9209 48.3275C90.6865 48.2961 90.4494 48.2813 90.2086 48.2841C87.5569 48.3155 85.4247 50.5024 85.4561 53.1576C85.4875 55.8138 87.6704 57.9489 90.323 57.9165C92.9746 57.8851 95.1068 55.6983 95.0755 53.043C95.0598 51.7561 94.5459 50.5532 93.626 49.6542C92.8787 48.9234 91.9367 48.4652 90.9199 48.3275H90.9209Z" fill="#BDD0FB"/>
<path d="M88.3329 68.3343C87.8125 68.2641 87.2922 68.1671 86.7746 68.0424C86.6113 68.0036 86.4489 67.9611 86.2874 67.9167C85.4903 67.6978 84.7116 67.416 83.9642 67.0751C83.9541 67.0704 83.9439 67.0658 83.9338 67.0612C83.9052 67.0483 83.8757 67.0344 83.8471 67.0205C83.7908 66.9947 83.7354 66.9679 83.6791 66.9411C83.5324 66.8709 83.454 66.7157 83.4743 66.5623C83.4789 66.5253 83.49 66.4875 83.5075 66.4524C83.5952 66.2704 83.8138 66.1937 83.9956 66.2805C84.933 66.7314 85.9248 67.0834 86.9443 67.3282C92.0077 68.545 97.0988 66.9642 100.593 63.5855C102.537 61.7064 103.985 59.271 104.661 56.4513C104.779 55.957 104.872 55.46 104.939 54.9629C105.391 51.6176 104.686 48.2463 102.899 45.3287C100.847 41.9778 97.6164 39.6274 93.7995 38.7109C85.9165 36.8188 77.9726 41.6978 76.0831 49.5878C75.9668 50.0747 75.8755 50.5653 75.8091 51.0577C75.5212 53.1919 75.703 55.3658 76.3488 57.4214C76.3654 57.475 76.3691 57.5286 76.3626 57.5803C76.3442 57.7161 76.2492 57.8371 76.1098 57.8806C75.917 57.9406 75.7113 57.8344 75.6513 57.6404C74.9732 55.4812 74.7822 53.1993 75.0848 50.9588C75.154 50.4415 75.2509 49.9269 75.3727 49.4169C77.3563 41.1333 85.7025 36.0122 93.9711 37.9986C97.9781 38.9613 101.371 41.428 103.524 44.9462C105.399 48.0089 106.14 51.5473 105.665 55.06C105.595 55.5819 105.498 56.103 105.374 56.6222C104.413 60.6347 101.949 64.0318 98.4366 66.1891C95.3781 68.0673 91.8426 68.8083 88.3338 68.3334L88.3329 68.3343Z" fill="#BDD0FB"/>
<g opacity="0.3">
<path d="M20.3053 72.9844C20.0627 72.9511 19.8615 72.7636 19.8228 72.5086C19.7508 72.0337 19.6918 71.5505 19.6484 71.072C19.6198 70.7606 19.8486 70.4862 20.1595 70.4567C20.4705 70.4271 20.7454 70.6571 20.774 70.9685C20.8155 71.4249 20.8718 71.885 20.9401 72.3386C20.9872 72.6472 20.7749 72.9354 20.4668 72.9835C20.4124 72.9918 20.3579 72.9918 20.3053 72.9844Z" fill="#91B3FA"/>
<path d="M20.0479 68.6404C19.7637 68.6016 19.5497 68.354 19.5598 68.0611C19.5866 67.2342 19.6567 66.3999 19.7674 65.5814C19.7905 65.4086 19.8163 65.2358 19.8431 65.0631C19.892 64.7545 20.1955 64.5568 20.4889 64.591C20.7971 64.639 21.0074 64.9291 20.9595 65.2377C20.9336 65.4031 20.9096 65.5684 20.8866 65.7329C20.7814 66.5145 20.714 67.31 20.6882 68.098C20.6781 68.4103 20.417 68.6551 20.1051 68.645C20.0857 68.6441 20.0664 68.6422 20.047 68.6404H20.0479ZM20.9567 62.8375C20.9299 62.8338 20.9032 62.8282 20.8773 62.8208C20.5775 62.7349 20.4031 62.4217 20.4889 62.1214C20.7629 61.1569 21.0988 60.2016 21.4881 59.2814C21.6099 58.9932 21.943 58.8601 22.229 58.9812C22.5169 59.1031 22.6506 59.4348 22.5289 59.7221C22.158 60.5998 21.8369 61.5117 21.5758 62.4309C21.4983 62.7044 21.2316 62.8735 20.9576 62.8365L20.9567 62.8375ZM23.2439 57.4281C23.1729 57.4189 23.1027 57.3949 23.0363 57.357C22.766 57.2008 22.6746 56.8544 22.8306 56.5837C23.3315 55.718 23.8925 54.8736 24.4968 54.0753C24.686 53.8259 25.0393 53.7778 25.2885 53.9663C25.5366 54.1548 25.5855 54.5096 25.3973 54.759C24.8207 55.5203 24.2856 56.325 23.8085 57.1509C23.6905 57.3551 23.4635 57.4577 23.2439 57.4281ZM26.7896 52.7477C26.6733 52.732 26.5617 52.6803 26.4713 52.5925C26.248 52.3745 26.2434 52.016 26.4611 51.7924C27.1605 51.0746 27.9097 50.3937 28.6893 49.7691C28.9329 49.5742 29.289 49.6148 29.4837 49.8578C29.6783 50.1017 29.6396 50.4574 29.3951 50.6533C28.6515 51.2483 27.9364 51.8977 27.2703 52.5823C27.1402 52.7163 26.9612 52.7708 26.7896 52.7477ZM31.3686 49.0762C31.2071 49.054 31.0558 48.9626 30.9626 48.812C30.7993 48.5459 30.8815 48.1976 31.1472 48.0341C31.9988 47.5084 32.891 47.0307 33.7979 46.6141C34.0821 46.4829 34.417 46.6085 34.5471 46.8921C34.6772 47.1767 34.5526 47.5121 34.2694 47.6423C33.403 48.0405 32.5523 48.496 31.7404 48.9977C31.6251 49.0688 31.4932 49.0938 31.3686 49.0762ZM36.6987 46.6288C36.4892 46.6002 36.3038 46.4542 36.2355 46.239C36.1414 45.9415 36.3065 45.6237 36.6036 45.5285C37.5567 45.2264 38.5384 44.9806 39.5201 44.7986C39.8282 44.7432 40.1216 44.9455 40.1779 45.2523C40.2351 45.559 40.0321 45.8546 39.7249 45.911C38.7884 46.0837 37.8538 46.3184 36.945 46.6067C36.8629 46.6325 36.7789 46.639 36.6987 46.6279V46.6288ZM42.4623 45.5618C42.2003 45.5266 41.9909 45.3086 41.9743 45.0342C41.9558 44.7219 42.1939 44.4549 42.5048 44.4365C43.5003 44.3773 44.5115 44.381 45.5126 44.4457C45.8244 44.4716 46.0606 44.7358 46.0394 45.0471C46.0191 45.3585 45.7506 45.595 45.4388 45.5756C44.4838 45.5128 43.5197 45.51 42.5703 45.5664C42.5334 45.5682 42.4965 45.5664 42.4605 45.5618H42.4623ZM51.1646 46.6676C51.1323 46.663 51.1 46.6556 51.0677 46.6455C50.2835 46.3942 49.4716 46.1808 48.6541 46.0117C48.5305 45.9858 48.4087 45.9609 48.2869 45.9387C47.9806 45.8805 47.7786 45.5848 47.8367 45.2781C47.8939 44.9705 48.1928 44.7598 48.4964 44.8263C48.6265 44.8513 48.7556 44.8762 48.8848 44.9039C49.7382 45.0804 50.5898 45.304 51.4119 45.5682C51.709 45.6634 51.8723 45.9821 51.7773 46.2796C51.6924 46.5448 51.4303 46.7037 51.1646 46.6676Z" fill="#91B3FA"/>
</g>
<g opacity="0.3">
<path d="M41.0101 93.0901C40.7047 93.0486 40.4879 92.7686 40.5257 92.461C40.5635 92.1515 40.8449 91.9297 41.155 91.9676C42.0877 92.0813 43.0344 92.1395 43.9708 92.1395C44.2808 92.1422 44.5364 92.3926 44.5355 92.7058C44.5355 93.0181 44.2818 93.2712 43.9699 93.2712C42.9882 93.2712 41.9955 93.2102 41.0184 93.0901C41.0156 93.0901 41.0129 93.0901 41.011 93.0892L41.0101 93.0901ZM38.1675 92.5672C38.1472 92.5644 38.1278 92.5608 38.1075 92.5561C37.1526 92.3205 36.2023 92.0249 35.2824 91.6766C34.9908 91.5657 34.8432 91.2396 34.9539 90.9477C35.0637 90.6548 35.3913 90.5088 35.6819 90.6178C36.5593 90.9504 37.4663 91.2322 38.3778 91.4576C38.6804 91.5325 38.8659 91.8383 38.7912 92.1422C38.721 92.4259 38.4498 92.606 38.1675 92.5681V92.5672ZM46.7793 93.0911C46.5311 93.0578 46.3263 92.8601 46.2949 92.5996C46.2571 92.2901 46.4767 92.0073 46.7867 91.9695C47.7195 91.854 48.6532 91.6812 49.5611 91.4539C49.8646 91.38 50.17 91.563 50.2457 91.8669C50.3213 92.1699 50.1368 92.4767 49.8342 92.5524C48.882 92.7899 47.9031 92.971 46.9251 93.092C46.8753 93.0985 46.8273 93.0975 46.7802 93.092L46.7793 93.0911ZM32.7701 90.5199C32.7064 90.5116 32.6427 90.4913 32.5828 90.4598C31.7118 90.0016 30.8602 89.4842 30.052 88.9225C29.7955 88.7442 29.7318 88.3922 29.9099 88.1354C30.088 87.8794 30.4395 87.8157 30.696 87.9931C31.4664 88.528 32.2783 89.0214 33.1087 89.4593C33.3845 89.6052 33.4906 89.9471 33.3458 90.2233C33.2323 90.4395 32.9989 90.5513 32.7701 90.5208V90.5199ZM52.376 91.696C52.1777 91.6692 51.9996 91.5371 51.9239 91.3375C51.8123 91.0456 51.9581 90.7185 52.2496 90.6067C53.1252 90.2714 53.9897 89.8787 54.8182 89.439C55.0941 89.2921 55.4364 89.3983 55.5822 89.6745C55.7279 89.9508 55.6228 90.2935 55.3469 90.4395C54.4778 90.8996 53.5718 91.3117 52.6537 91.6637C52.5624 91.6988 52.4674 91.708 52.3769 91.696H52.376ZM57.4754 88.9964C57.3241 88.9761 57.1811 88.8939 57.087 88.759C56.9089 88.5021 56.9726 88.1501 57.2281 87.9718C58.0004 87.435 58.7459 86.8456 59.4452 86.2229C59.6787 86.015 60.0357 86.0363 60.2433 86.2691C60.4509 86.5028 60.4306 86.8595 60.1972 87.0673C59.4637 87.7215 58.6822 88.3386 57.874 88.9012C57.7531 88.9853 57.611 89.0158 57.4763 88.9973L57.4754 88.9964ZM61.7832 85.1512C61.6762 85.1364 61.5728 85.0921 61.4861 85.0154C61.2517 84.8094 61.2287 84.4518 61.4354 84.2172C62.0563 83.5113 62.6394 82.7611 63.1681 81.9869C63.3443 81.7301 63.6958 81.6635 63.9532 81.84C64.2106 82.0165 64.2771 82.3685 64.1008 82.6262C63.5463 83.4374 62.9346 84.2255 62.2842 84.9655C62.1541 85.1133 61.9649 85.1762 61.7841 85.1521L61.7832 85.1512Z" fill="#91B3FA"/>
<path d="M28.0074 87.2089C27.8995 87.1941 27.7943 87.1479 27.7076 87.0703C27.3468 86.7479 26.9944 86.4125 26.6595 86.0753C26.4399 85.8536 26.4408 85.4951 26.6613 85.2752C26.8828 85.0562 27.2398 85.0562 27.4603 85.278C27.7796 85.6004 28.1163 85.9191 28.4605 86.2277C28.693 86.4356 28.7133 86.7941 28.5047 87.0269C28.3747 87.1719 28.1864 87.2348 28.0074 87.2107V87.2089Z" fill="#91B3FA"/>
</g>
<path d="M29.4505 80.03C29.5141 80.1344 29.6368 80.1861 29.7558 80.1603L33.1557 79.4064C34.2998 80.564 35.6358 81.547 37.1304 82.2991L37.4663 85.7673C37.4783 85.8893 37.5659 85.99 37.684 86.0186L41.7455 86.9942C41.8645 87.0229 41.9881 86.973 42.0536 86.8695L43.9238 83.9316C45.5975 83.9408 47.2333 83.671 48.7768 83.1592L51.4654 85.3756C51.5595 85.4532 51.6924 85.4624 51.7966 85.3987L55.3571 83.2128C55.4613 83.149 55.513 83.0261 55.4872 82.907L54.7343 79.5034C55.8903 78.3578 56.872 77.02 57.6231 75.5224L61.0866 75.1861C61.2084 75.1741 61.309 75.0863 61.3376 74.968L62.3119 70.9011C62.3405 70.7819 62.2907 70.6581 62.1873 70.5925L59.2533 68.7198C59.2626 67.0439 58.9932 65.4058 58.482 63.8602L60.6954 61.168C60.7729 61.0738 60.7822 60.9407 60.7185 60.8363L58.5355 57.2711C58.4719 57.1667 58.3492 57.1149 58.2301 57.1408L54.8302 57.8947C53.6871 56.737 52.3502 55.754 50.8555 55.002L50.5197 51.5337C50.5077 51.4118 50.4201 51.3111 50.302 51.2824L46.2405 50.3068C46.1215 50.2782 45.9979 50.3281 45.9324 50.4315L44.0622 53.3695C42.3885 53.3603 40.7527 53.63 39.2091 54.1419L36.5206 51.9264C36.4265 51.8488 36.2936 51.8395 36.1894 51.9033L32.6289 54.0892C32.5247 54.1529 32.473 54.2758 32.4988 54.395L33.2517 57.7986C32.0956 58.9442 31.114 60.282 30.3629 61.7796L26.8994 62.1159C26.7776 62.1279 26.677 62.2157 26.6493 62.3339L25.675 66.4009C25.6464 66.5201 25.6963 66.6438 25.7996 66.7094L28.7336 68.5822C28.7243 70.2581 28.9937 71.8961 29.5049 73.4418L27.2924 76.134C27.2149 76.2282 27.2057 76.3613 27.2693 76.4657L29.4523 80.0309L29.4505 80.03Z" fill="#91B3FA"/>
<path d="M43.4108 72.8895C42.5075 72.7675 41.6707 72.3601 41.0064 71.7106C40.1899 70.9124 39.7323 69.8425 39.7193 68.6997C39.6907 66.341 41.5849 64.399 43.9413 64.3703C46.3005 64.3463 48.2371 66.2394 48.2657 68.599C48.2795 69.7418 47.8477 70.8218 47.0506 71.6395C46.2534 72.4571 45.185 72.9153 44.0437 72.9283C43.8306 72.931 43.6193 72.9172 43.4117 72.8895H43.4108ZM44.4155 65.5298C44.2652 65.5095 44.1111 65.4993 43.9552 65.5012C42.2215 65.5224 40.8293 66.9508 40.8496 68.6867C40.8597 69.5275 41.1956 70.3137 41.7962 70.9013C42.3968 71.4889 43.1903 71.8058 44.0299 71.7974C44.8695 71.7873 45.6556 71.451 46.2414 70.8495C46.8282 70.2481 47.1456 69.4536 47.1355 68.6128C47.117 67.0339 45.9342 65.7368 44.4155 65.5307V65.5298Z" fill="#BDD0FB"/>
<path d="M42.6459 79.1589C42.2917 79.1108 41.9374 79.0443 41.5822 78.9593C40.8773 78.7903 40.1899 78.5491 39.5358 78.2424L39.4481 78.1999C39.2221 78.0909 39.1012 77.8516 39.1326 77.6151C39.1399 77.5578 39.1575 77.5005 39.1833 77.4451C39.318 77.1633 39.6557 77.046 39.9371 77.1799C40.5451 77.4728 41.1873 77.7001 41.846 77.8581C41.882 77.8673 41.9189 77.8747 41.9549 77.883C43.5169 78.2424 45.1085 78.198 46.6123 77.7777C47.4289 77.5495 48.2187 77.2095 48.9641 76.7614C48.9706 76.7577 48.9761 76.754 48.9826 76.7503C49.001 76.7392 49.0195 76.7282 49.0379 76.7161C51.2043 75.3857 52.7239 73.2913 53.3162 70.8171C53.3928 70.4966 53.4527 70.176 53.4961 69.8535C53.7886 67.688 53.3319 65.5048 52.1758 63.6164C50.8472 61.4471 48.7556 59.9264 46.2848 59.3333C43.8158 58.7411 41.2602 59.1457 39.0938 60.4752C36.9275 61.8056 35.4079 63.9 34.8156 66.3742C34.7399 66.6892 34.6809 67.0061 34.6375 67.3249C34.4511 68.707 34.5683 70.1141 34.9872 71.4445C35.013 71.5267 35.0195 71.6098 35.0084 71.6902C34.9798 71.9009 34.834 72.0866 34.6181 72.154C34.3201 72.2473 34.0036 72.0829 33.9095 71.7835C33.4418 70.2942 33.3098 68.7199 33.5183 67.1743C33.5663 66.8177 33.6327 66.462 33.7167 66.11C34.3801 63.3411 36.0796 60.9981 38.5033 59.5097C40.9271 58.0223 43.7826 57.5659 46.5478 58.232C49.312 58.8954 51.6527 60.5971 53.1391 63.0251C54.4326 65.138 54.9437 67.5799 54.6171 70.0032C54.5682 70.3626 54.5018 70.7229 54.416 71.0805C53.1317 76.4399 47.9898 79.8814 42.6487 79.158L42.6459 79.1589Z" fill="#BDD0FB"/>
<path d="M13.5009 218.6C13.5009 220.9 15.3831 222.783 17.6823 222.783H243.805C246.105 222.783 247.986 220.9 247.986 218.6L249.867 88.477C249.867 86.1765 247.161 81.6846 242.2 82.0218L21.2076 76.2965C18.3216 76.2217 15.5316 77.334 13.4889 79.373C11.4453 81.413 10.327 84.2013 10.3953 87.0884L13.5009 218.6Z" fill="url(#paint1_linear_152_1170)"/>
<path d="M17.6288 214.586C17.6288 216.765 19.4094 218.548 21.585 218.548H238.351C240.527 218.548 242.307 216.765 242.307 214.586L244.083 96.4596C243.873 89.3512 237.65 86.7957 233.877 86.9473L22.0768 81.2571C20.0497 81.2026 18.0891 81.9851 16.6535 83.4189C15.2179 84.8528 14.4281 86.8161 14.4789 88.8458L17.6288 214.586Z" fill="#91B3FA"/>
<path d="M239.965 158.468H239.957C239.636 158.463 239.381 158.2 239.385 157.878L239.526 148.298C239.53 147.981 239.789 147.727 240.105 147.727H240.113C240.434 147.731 240.689 147.994 240.684 148.316L240.544 157.896C240.54 158.214 240.281 158.468 239.965 158.468Z" fill="url(#paint2_linear_152_1170)"/>
<path d="M240.31 134.993H240.302C239.981 134.988 239.726 134.724 239.731 134.403L240.268 97.712C240.258 95.5326 239.598 93.7929 238.305 92.5521C235.891 90.2369 232.059 90.3551 231.897 90.3625L164.201 88.5443C163.881 88.536 163.628 88.269 163.637 87.9484C163.646 87.6278 163.892 87.3553 164.232 87.3839L231.888 89.2021C232.309 89.1772 236.389 89.1069 239.107 91.7132C240.636 93.1794 241.416 95.2009 241.428 97.7175L240.89 134.42C240.886 134.738 240.627 134.992 240.311 134.992L240.31 134.993Z" fill="url(#paint3_linear_152_1170)"/>
<path d="M0.521301 233.584L257.369 233.584C257.657 233.584 257.891 233.35 257.891 233.062V222.673C257.891 222.385 257.657 222.151 257.369 222.151L0.521301 222.151C0.233398 222.151 0 222.385 0 222.673V233.062C0 233.35 0.233398 233.584 0.521301 233.584Z" fill="url(#paint4_linear_152_1170)"/>
<path opacity="0.44" d="M228.536 129.261H27.667C24.4848 129.261 21.9052 126.777 21.9052 123.713V96.9563C21.9052 93.8604 24.5365 91.364 27.7519 91.4093L228.62 94.2641C231.769 94.3084 234.297 96.7789 234.297 99.8111V123.713C234.297 126.776 231.717 129.261 228.535 129.261H228.536Z" fill="white"/>
<path opacity="0.44" d="M232.752 134.993H25.6566C24.8031 134.993 24.1112 135.686 24.1112 136.54V184.015C24.1112 184.87 24.8031 185.562 25.6566 185.562H232.752C233.605 185.562 234.297 184.87 234.297 184.015V136.54C234.297 135.686 233.605 134.993 232.752 134.993Z" fill="white"/>
<path opacity="0.44" d="M233.526 191.872H24.8825C24.4565 191.872 24.1112 192.217 24.1112 192.644V212.829C24.1112 213.256 24.4565 213.601 24.8825 213.601H233.526C233.952 213.601 234.297 213.256 234.297 212.829V192.644C234.297 192.217 233.952 191.872 233.526 191.872Z" fill="white"/>
<path d="M203.07 98.3146C202.755 93.4485 199.82 89.1376 195.421 87.0451L138.427 59.9402C134.777 58.2042 130.542 58.2042 126.892 59.9402L69.8978 87.0451C65.4987 89.1376 62.5638 93.4485 62.2491 98.3146C56.9034 181.063 109.888 211.213 127.258 218.83C130.703 220.34 134.616 220.34 138.061 218.83C155.43 211.213 208.415 181.063 203.07 98.3146Z" fill="url(#paint5_linear_152_1170)"/>
<path opacity="0.67" d="M115.42 71.9183C114.908 71.9183 114.418 71.63 114.184 71.1367C113.86 70.4539 114.151 69.6381 114.832 69.3138L128.299 62.9095C128.981 62.5852 129.796 62.8762 130.119 63.558C130.443 64.2408 130.152 65.0566 129.471 65.3809L116.005 71.7852C115.815 71.8748 115.616 71.9173 115.42 71.9173V71.9183Z" fill="white"/>
<path opacity="0.67" d="M66.6067 116.581C65.8733 116.581 65.2671 115.999 65.2422 115.259C65.0613 109.86 65.1564 104.23 65.5245 98.5269C65.7616 94.86 67.9759 91.5978 71.3048 90.0143L109.646 71.7796C110.328 71.4553 111.142 71.7463 111.466 72.4282C111.79 73.1109 111.499 73.9267 110.818 74.251L72.4775 92.4857C70.0436 93.6433 68.4243 96.0251 68.2509 98.7034C67.8883 104.318 67.7942 109.857 67.9732 115.167C67.9981 115.922 67.4076 116.555 66.6538 116.581C66.6381 116.581 66.6224 116.581 66.6067 116.581V116.581Z" fill="white"/>
<path d="M189.287 101.544C189.225 100.311 188.491 99.2096 187.377 98.6793L134.097 73.3409C133.188 72.9085 132.132 72.9085 131.222 73.3409L77.9431 98.6793C76.8286 99.2096 76.0951 100.311 76.0324 101.544C74.4565 132.412 81.5765 158.167 97.2105 178.129C109.129 193.348 123.072 201.504 131.243 205.308C132.143 205.728 133.178 205.728 134.079 205.308C142.249 201.504 156.192 193.348 168.111 178.129C183.744 158.167 190.865 132.411 189.289 101.544H189.287Z" fill="url(#paint6_linear_152_1170)"/>
<path d="M116.906 134.709H111.596V113.519C111.596 105.197 117.818 98.1631 126.069 97.1588L136.926 95.8376C141.599 95.2685 146.301 96.7357 149.825 99.8612C153.348 102.987 155.37 107.483 155.37 112.198V130.697H150.06V112.198C150.06 109.005 148.691 105.959 146.304 103.841C143.917 101.724 140.732 100.731 137.566 101.116L126.709 102.437C121.121 103.117 116.906 107.881 116.906 113.519V134.709Z" fill="url(#paint7_linear_152_1170)"/>
<path d="M110.026 129.951L156.574 127.369C158.464 127.264 160.055 128.77 160.055 130.667V167.593C160.055 169.417 158.578 170.896 156.756 170.896H111.327C109.547 170.896 108.088 169.481 108.03 167.7L106.912 133.357C106.854 131.562 108.237 130.05 110.026 129.951Z" fill="url(#paint8_linear_152_1170)"/>
<path d="M141.071 160.318L138.253 152.207C137.914 151.233 138.145 150.142 138.869 149.407C140.313 147.942 141.173 145.899 141.072 143.656C140.892 139.7 137.664 136.491 133.712 136.34C129.337 136.172 125.739 139.672 125.739 144.015C125.739 146.423 126.847 148.573 128.581 149.98C129.48 150.71 129.85 151.91 129.469 153.005L126.929 160.318C126.311 162.097 127.631 163.955 129.511 163.955H138.49C140.37 163.955 141.69 162.098 141.072 160.318H141.071Z" fill="url(#paint9_linear_152_1170)"/>
<path d="M169.194 105.487C169.231 105.473 189.006 70.7964 191.678 67.5323C192.127 66.9835 192.823 66.7036 193.527 66.7877L199.046 67.4464L205.53 81.4931L194.728 75.1932C195.798 82.5962 181.92 93.5969 177.16 97.6112C176.677 98.0186 176.638 98.7485 177.074 99.2058L178.973 101.198C175.854 104.364 172.255 106.397 168.191 107.337L169.192 105.486L169.194 105.487Z" fill="url(#paint10_linear_152_1170)"/>
<path d="M177.875 100.124C177.875 100.124 179.088 100.516 179.498 101.597C179.695 102.115 179.483 102.7 179.033 103.023C177.037 104.456 170.45 109.08 167.411 109.986C167.162 110.06 166.925 109.834 166.981 109.58C167.137 108.874 167.642 107.461 169.267 105.394L169.121 105.69C168.937 106.064 169.344 106.453 169.706 106.248C171.739 105.099 175.88 102.584 177.876 100.124H177.875Z" fill="url(#paint11_linear_152_1170)"/>
<path d="M176.896 113.998C176.93 113.977 179.897 106.819 179.93 106.797C182.65 90.2127 189.287 76.0099 191.244 72.2718C191.574 71.6436 192.198 71.2288 192.905 71.1678L198.444 70.6938L207.632 83.1358L195.78 79.1557C198.323 86.1883 186.956 99.774 183.107 104.67C182.716 105.167 182.824 105.889 183.345 106.249L185.608 107.814C183.193 111.546 180.079 114.267 176.29 116.011L176.897 113.996L176.896 113.998Z" fill="url(#paint12_linear_152_1170)"/>
<path d="M184.314 106.986C184.314 106.986 185.58 107.125 186.201 108.1C186.498 108.567 186.409 109.184 186.034 109.591C184.368 111.398 178.852 117.263 176.06 118.765C175.831 118.888 175.553 118.715 175.557 118.454C175.567 117.73 175.775 116.245 176.949 113.891L176.866 114.21C176.761 114.614 177.238 114.912 177.552 114.638C179.31 113.1 182.857 109.799 184.314 106.984L184.314 106.986Z" fill="url(#paint13_linear_152_1170)"/>
<path d="M224.368 68.0758C224.368 68.0758 229.378 75.538 229.789 78.9416C230.201 82.3452 228.403 83.5222 223.16 83.9564C207.555 85.248 199.863 80.5648 199.863 80.5648C198.795 73.7494 198.036 72.0152 189.12 68.3095C189.12 68.3095 200.397 69.2057 202.667 68.3243C204.936 67.442 224.369 68.0758 224.369 68.0758H224.368Z" fill="url(#paint14_linear_152_1170)"/>
<path d="M200.38 28.953C200.38 28.953 197.732 26.2174 201.562 24.0185C205.392 21.8197 208.345 24.5941 211.775 28.4171C214.583 31.5473 219.827 31.7616 223.613 32.8444C228.38 34.2081 231.832 37.8611 232.378 42.9812C232.826 47.1692 229.242 50.1081 225.674 51.4024C214.758 55.3641 212.175 56.6898 208.75 50.1524C205.325 43.615 200.379 28.9539 200.379 28.9539L200.38 28.953Z" fill="url(#paint15_linear_152_1170)"/>
<path d="M228.412 47.7817C229.077 47.3169 229.688 46.7016 230.056 46.103C230.608 45.205 230.779 43.5724 230.755 42.3437C230.638 36.3357 224.884 34.1756 220.567 33.0725C219.279 32.7436 217.92 32.448 216.527 32.193C216.492 32.1865 216.457 32.2096 216.452 32.2456C216.445 32.2807 216.468 32.3149 216.504 32.3214C217.895 32.5755 219.251 32.8711 220.536 33.1991C224.812 34.2911 230.51 36.4271 230.625 42.3455C230.649 43.5558 230.482 45.1606 229.945 46.0337C229.45 46.8393 228.501 47.6773 227.586 48.118C227.554 48.1337 227.54 48.1725 227.555 48.2048C227.571 48.2371 227.61 48.251 227.642 48.2353C227.9 48.1115 228.16 47.9563 228.412 47.7807V47.7817Z" fill="#BDD0FB"/>
<path d="M210.818 67.0873C210.818 67.0873 204.983 61.5246 202.112 57.8392C200.559 55.8473 200.072 53.2253 200.79 50.8029C202.101 46.3793 204.432 41.7978 204.644 41.0846C204.969 39.9916 211.511 40.0369 211.511 40.0369C211.511 40.0369 224.384 48.4026 229.441 62.5741L223.761 64.3452C223.761 64.3452 220.4 58.6984 217.079 55.1082C217.079 55.1082 222.825 62.7099 223.028 65.8216L210.818 67.0854V67.0873Z" fill="url(#paint16_linear_152_1170)"/>
<path d="M199.702 69.2831L204.086 64.5067L209.15 65.8722C209.15 65.8722 215.053 66.7877 218.431 65.8722L221.809 64.9566L229.443 62.5767L230.643 65.9701C230.947 66.8311 230.641 67.7883 229.897 68.3177C229.236 68.7879 228.462 69.3044 227.969 69.5206C226.963 69.9613 204.81 69.6601 204.81 69.6601L199.703 69.285L199.702 69.2831Z" fill="url(#paint17_linear_152_1170)"/>
<path d="M207.015 32.1627L211.411 40.3502C211.121 42.1369 206.626 42.1878 205.932 41.1207C205.861 41.0117 205.821 40.886 205.794 40.7594L203.164 35.2891C203.051 34.756 204.511 32.9582 204.992 32.7023L206.739 31.771C207.412 31.4125 204.604 31.3839 207.014 32.1636L207.015 32.1627Z" fill="url(#paint18_linear_152_1170)"/>
<path d="M198.117 30.2408C198.117 30.2408 197.621 33.0069 199.792 36.5241C201.963 40.0413 204.124 39.8824 205.223 38.6278C206.321 37.3731 207.638 35.2842 207.039 31.7772C206.44 28.2692 198.867 26.7143 198.117 30.2408Z" fill="url(#paint19_linear_152_1170)"/>
<path d="M198.436 26.1729C198.436 26.1729 196.617 28.9131 196.99 30.08C197.361 31.2469 201.334 29.073 202.289 28.4706L211.023 35.1974C211.023 35.1974 206.345 26.1664 204.006 24.6725C201.667 23.1786 198.437 26.1729 198.437 26.1729H198.436Z" fill="url(#paint20_linear_152_1170)"/>
<path d="M197.437 30.0977C197.455 30.081 197.463 30.0543 197.455 30.0284C197.439 29.9803 197.072 28.8403 198.184 27.8129C198.211 27.788 198.213 27.7473 198.188 27.7205C198.163 27.6937 198.123 27.6919 198.096 27.7168C196.919 28.8042 197.327 30.0579 197.331 30.0709C197.342 30.1051 197.38 30.1235 197.414 30.1115C197.423 30.1088 197.431 30.1041 197.437 30.0977Z" fill="#BDD0FB"/>
<path d="M205.817 32.0349C205.817 32.0349 203.996 29.6688 205.654 29.1773C207.312 28.6858 207.25 31.4962 207.141 32.5411L205.817 32.0349Z" fill="url(#paint21_linear_152_1170)"/>
<path d="M214.213 71.1732C214.198 71.1732 214.183 71.1742 214.167 71.1742L194.003 71.152C193.505 71.152 193.101 70.7464 193.102 70.2475C193.102 69.7486 193.508 69.3356 194.005 69.3449L214.169 69.3671C214.667 69.3671 215.071 69.7726 215.07 70.2715C215.07 70.7547 214.69 71.1501 214.213 71.1732Z" fill="url(#paint22_linear_152_1170)"/>
<path d="M175.876 52.8408H192.669C193.908 52.8408 195.035 53.5568 195.564 54.6784L203.327 71.1624H182.458C181.66 71.1624 180.942 70.6736 180.649 69.9308L174.629 54.6775C174.281 53.7961 174.929 52.8408 175.876 52.8408Z" fill="url(#paint23_linear_152_1170)"/>
<path d="M187.707 61.2923C188.07 62.424 187.802 63.5244 187.106 63.748C186.411 63.9725 185.552 63.2361 185.188 62.1044C184.825 60.9726 185.093 59.8732 185.789 59.6487C186.484 59.4242 187.343 60.1605 187.707 61.2923Z" fill="#91B3FA"/>
<path d="M53.4509 252.086C50.8343 252.312 46.2922 252.68 42.7124 252.838C40.5599 252.933 39.3208 252.722 38.6076 252.436C38.6085 252.516 38.6113 252.593 38.614 252.663C38.6306 253.04 38.937 253.342 39.318 253.364C46.0837 253.741 51.4635 253.495 53.3789 253.377C53.7747 253.353 54.0109 252.922 53.8089 252.584C53.7074 252.415 53.5847 252.249 53.4518 252.085L53.4509 252.086Z" fill="url(#paint24_linear_152_1170)"/>
<path d="M42.7124 252.838C46.2931 252.68 50.8343 252.312 53.4509 252.086C50.8786 248.925 42.7124 246.794 42.7124 246.794H40.4058C38.8198 249.084 38.59 251.264 38.6076 252.436C39.3208 252.722 40.5599 252.933 42.7124 252.838Z" fill="url(#paint25_linear_152_1170)"/>
<path d="M40.0174 243.024L40.2333 247.301C40.2563 247.764 40.6032 248.154 41.0664 248.219C41.5277 248.285 42.144 248.294 42.7991 248.075C43.2014 247.941 43.5003 247.601 43.575 247.187L44.3205 243.024H40.0183H40.0174Z" fill="url(#paint26_linear_152_1170)"/>
<path d="M13.249 257.019C12.1142 256.814 11.6012 256.052 11.3853 255.236C11.3834 255.244 11.3825 255.251 11.3807 255.259C11.2137 256.119 11.6012 257.01 12.3744 257.434C13.3099 257.947 14.3322 258.034 15.1256 257.991C15.9772 257.946 16.7596 257.49 17.1887 256.76L17.1951 256.749C16.3398 257.297 15.1404 257.36 13.2472 257.019H13.249Z" fill="url(#paint27_linear_152_1170)"/>
<path d="M18.5994 244.342H16.6978C13.8007 244.265 11.9813 252.173 11.3862 255.235C11.6012 256.051 12.1151 256.814 13.2499 257.018C15.1423 257.36 16.3426 257.296 17.1979 256.748C18.7627 254.082 19.5386 250.178 19.9123 247.9C20.3367 245.308 18.6012 244.341 18.6012 244.341L18.5994 244.342Z" fill="url(#paint28_linear_152_1170)"/>
<path d="M16.9423 240.373L15.8859 244.579C15.7567 245.095 16.0031 245.629 16.4792 245.872C17.0696 246.176 17.9019 246.495 18.6667 246.403C19.0265 246.359 19.3246 246.106 19.4436 245.767L20.9945 241.342L16.9432 240.373H16.9423Z" fill="url(#paint29_linear_152_1170)"/>
<path d="M54.0949 184.972C54.0949 184.972 44.6564 244.05 44.8123 244.374C44.8123 244.374 42.2058 245.56 39.3641 244.526C39.3641 244.526 40.2176 212.944 42.2178 200.836C42.2178 200.836 26.1096 229.063 20.9945 243.129C20.9945 243.129 18.3263 242.81 16.1184 241.355C16.1184 241.355 33.462 190.547 38.0891 183.779L54.0958 184.973L54.0949 184.972Z" fill="url(#paint30_linear_152_1170)"/>
<path d="M42.5934 200.628C42.7198 200.628 42.8434 200.565 42.9154 200.45L46.3568 194.946L48.7916 194.456C48.9974 194.414 49.1302 194.214 49.0887 194.008C49.0472 193.802 48.8479 193.672 48.6421 193.711L46.0468 194.234C45.9444 194.254 45.8549 194.316 45.7995 194.405L42.2723 200.046C42.1606 200.224 42.2151 200.458 42.3922 200.57C42.455 200.61 42.5242 200.628 42.5924 200.628H42.5934Z" fill="url(#paint31_linear_152_1170)"/>
<path d="M97.407 127.123C97.407 127.123 91.0381 128.529 87.1648 130.321C86.3954 130.676 85.7818 131.298 85.4321 132.065C84.2733 134.607 80.8079 140.979 74.0856 144.02C75.0534 145.307 76.6127 147.982 77.2918 152.481C81.3292 149.472 84.8149 144.447 86.4876 136.205C86.4876 136.205 87.7618 136.899 89.3515 136.125C90.1911 135.717 91.1608 135.138 91.8887 134.682C92.6139 134.229 93.1546 133.523 93.364 132.699C93.6408 131.61 93.4775 130.653 93.4775 129.627L96.751 128.611C96.751 128.611 97.7355 128.239 97.407 127.124V127.123Z" fill="url(#paint32_linear_152_1170)"/>
<path d="M77.2908 152.48C76.6118 147.982 75.0534 145.305 74.0847 144.019C69.9088 145.908 64.4773 146.513 57.5594 144.112C56.9218 143.892 56.2566 143.761 55.5822 143.722C51.9 143.505 39.7655 143.111 29.7245 146.433C27.6116 147.133 25.9001 148.697 25.0172 150.724C22.301 156.965 17.9037 171.18 30.111 178.356C31.0494 176.024 32.1316 174.15 33.057 172.773C31.0909 169.453 30.5087 164.917 33.9972 159.011C36.5409 165.889 37.7348 175.925 37.9839 180.367C38.066 181.83 37.8095 183.29 37.2365 184.639L37.1738 184.786C37.0511 185.076 37.2199 185.407 37.5281 185.477C44.4008 187.022 51.5484 186.603 53.6843 186.425C54.0654 186.394 54.3828 186.12 54.4695 185.752C57.8113 171.652 57.8186 162.033 57.0012 155.952C60.1271 156.652 69.6865 158.144 77.288 152.479L77.2908 152.48Z" fill="url(#paint33_linear_152_1170)"/>
<path d="M57.0169 156.432C57.0335 156.432 57.0501 156.432 57.0676 156.43C57.2752 156.402 57.421 156.212 57.3933 156.003C56.5879 149.904 54.9668 147.292 54.8976 147.183C54.785 147.007 54.5498 146.955 54.3754 147.066C54.1982 147.178 54.1456 147.413 54.2573 147.59C54.273 147.615 55.8608 150.194 56.6423 156.103C56.6672 156.294 56.8305 156.432 57.0169 156.432Z" fill="url(#paint34_linear_152_1170)"/>
<path d="M40.057 135.507C40.057 135.507 39.3614 142.869 38.7497 145.045C38.6565 145.376 38.8004 145.725 39.1003 145.895C40.1392 146.49 42.6312 147.46 46.0394 145.786C46.5921 145.516 46.9233 144.939 46.8974 144.329L46.5976 137.217L40.057 135.507Z" fill="url(#paint35_linear_152_1170)"/>
<path d="M88.1862 135.545C88.296 135.545 88.4058 135.497 88.4805 135.405C89.3958 134.278 90.9532 132.49 91.4957 132.183C91.9727 131.913 92.2449 131.609 92.3288 131.255C92.3999 130.954 92.3251 130.638 92.1083 130.315C92.0225 130.188 91.8749 130.126 91.719 130.155L88.9391 130.713C88.8754 130.726 88.8164 130.755 88.7665 130.797L87.2885 132.068C87.1289 132.204 87.1113 132.444 87.2479 132.603C87.3854 132.763 87.6243 132.781 87.783 132.644L89.1854 131.438L91.5861 130.957C91.6036 131.025 91.5944 131.063 91.5907 131.081C91.5603 131.213 91.3942 131.369 91.123 131.523C90.2834 131.997 88.1345 134.628 87.8928 134.926C87.7609 135.089 87.7858 135.328 87.9482 135.46C88.0183 135.517 88.1032 135.545 88.1871 135.545H88.1862Z" fill="url(#paint36_linear_152_1170)"/>
<path d="M40.714 183.383L50.7494 183.164C50.7494 183.164 41.9983 180.687 41.4558 181.361C41.4558 181.361 36.0316 177.792 33.0598 172.772C32.1344 174.149 31.0512 176.023 30.1138 178.355C32.7784 179.921 36.2779 182.643 40.7149 183.382L40.714 183.383Z" fill="url(#paint37_linear_152_1170)"/>
<path d="M40.4307 181.643C40.4307 181.643 40.224 185.647 45.472 185.065C48.3247 184.749 52.9296 182.086 52.9296 182.086C52.9296 182.086 40.9271 182.053 40.4307 181.642V181.643Z" fill="url(#paint38_linear_152_1170)"/>
<path d="M42.4863 182.717C42.5057 182.718 42.5241 182.719 42.5435 182.718L67.4943 182.691C68.1115 182.691 68.6107 182.195 68.6098 181.583C68.6098 180.972 68.1069 180.467 67.4915 180.478L42.5408 180.505C41.9235 180.505 41.4244 181.001 41.4253 181.613C41.4253 182.205 41.8958 182.688 42.4863 182.717Z" fill="url(#paint39_linear_152_1170)"/>
<path d="M89.9235 160.273H69.1449C67.6124 160.273 66.2164 161.15 65.5632 162.523L55.9568 182.704H81.7794C82.7676 182.704 83.6551 182.106 84.0177 181.196L91.4671 162.522C91.897 161.443 91.0952 160.273 89.9235 160.273Z" fill="url(#paint40_linear_152_1170)"/>
<path d="M75.2841 170.62C74.8338 172.006 75.166 173.352 76.0268 173.627C76.8876 173.901 77.9505 173 78.4007 171.614C78.851 170.228 78.5188 168.882 77.658 168.607C76.7972 168.333 75.7343 169.234 75.2841 170.62Z" fill="url(#paint41_linear_152_1170)"/>
<path d="M48.2731 125.282C48.3663 125.433 50.8399 136.885 50.8399 136.885L44.2799 138.16L40.3255 127.654C40.3255 127.654 46.7055 122.765 48.2731 125.282Z" fill="url(#paint42_linear_152_1170)"/>
<path d="M42.6708 129.351L44.3196 135.045C44.3408 135.118 44.3703 135.187 44.4109 135.251C44.6564 135.647 45.6002 136.944 46.867 135.896C48.0166 134.946 49.0795 134.095 50.0233 133.984C50.4468 133.934 50.8389 134.213 50.9284 134.63C51.1526 135.671 51.6149 138.025 51.7053 140.132C51.7237 140.56 51.4082 140.927 50.9847 140.983C49.7078 141.151 47.0054 141.429 44.7791 141.144C44.4774 141.105 44.2209 140.908 44.1102 140.624C43.5713 139.241 41.9171 135.043 41.2749 133.944C40.6724 132.913 39.056 132.848 38.3751 132.87C38.1518 132.877 37.9377 132.792 37.7781 132.636C37.2153 132.082 36.1626 130.689 37.8409 129.19C38.1924 128.876 38.2136 128.339 37.8898 127.997C37.2448 127.316 36.5815 126.137 37.7966 124.791C39.032 123.423 40.5423 123.738 41.4567 124.132C41.8257 124.292 42.2464 124.156 42.4716 123.822C42.5998 123.632 42.812 123.494 43.1635 123.545C43.6368 123.613 44.0603 123.238 44.0788 122.76C44.1148 121.839 44.5097 120.697 46.1298 120.293C49.0047 119.574 50.6101 122.408 50.6682 124.457C50.7264 126.506 47.5654 127.107 45.7405 126.865C44.3528 126.681 43.2392 128.004 42.7853 128.65C42.6413 128.854 42.5998 129.113 42.6699 129.353L42.6708 129.351Z" fill="url(#paint43_linear_152_1170)"/>
<path d="M41.8977 136.01C41.8977 136.01 41.643 132.443 40.1825 132.186C38.722 131.928 37.2218 133.056 38.5697 135.127C40.2471 137.703 41.8968 136.01 41.8968 136.01H41.8977Z" fill="url(#paint44_linear_152_1170)"/>
<defs>
<linearGradient id="paint0_linear_152_1170" x1="279.991" y1="295.037" x2="100.576" y2="104.305" gradientUnits="userSpaceOnUse">
<stop stop-color="#DAE3FE"/>
<stop offset="1" stop-color="#E9EFFD"/>
</linearGradient>
<linearGradient id="paint1_linear_152_1170" x1="130.75" y1="80.4706" x2="127.553" y2="227.99" gradientUnits="userSpaceOnUse">
<stop stop-color="#09005D"/>
<stop offset="1" stop-color="#1A0F91"/>
</linearGradient>
<linearGradient id="paint2_linear_152_1170" x1="239.385" y1="153.097" x2="240.684" y2="153.097" gradientUnits="userSpaceOnUse">
<stop stop-color="#DAE3FE"/>
<stop offset="1" stop-color="#E9EFFD"/>
</linearGradient>
<linearGradient id="paint3_linear_152_1170" x1="163.636" y1="111.187" x2="241.427" y2="111.187" gradientUnits="userSpaceOnUse">
<stop stop-color="#DAE3FE"/>
<stop offset="1" stop-color="#E9EFFD"/>
</linearGradient>
<linearGradient id="paint4_linear_152_1170" x1="132.033" y1="215.035" x2="151.358" y2="134.945" gradientUnits="userSpaceOnUse">
<stop stop-color="#09005D"/>
<stop offset="1" stop-color="#1A0F91"/>
</linearGradient>
<linearGradient id="paint5_linear_152_1170" x1="191.246" y1="-12.5681" x2="143.75" y2="93.456" gradientUnits="userSpaceOnUse">
<stop stop-color="#FF928E"/>
<stop offset="1" stop-color="#FE7062"/>
</linearGradient>
<linearGradient id="paint6_linear_152_1170" x1="107.806" y1="57.2653" x2="157.786" y2="179.776" gradientUnits="userSpaceOnUse">
<stop stop-color="#4F52FF"/>
<stop offset="1" stop-color="#4042E2"/>
</linearGradient>
<linearGradient id="paint7_linear_152_1170" x1="176.902" y1="-56.5847" x2="166.191" y2="-12.8667" gradientUnits="userSpaceOnUse">
<stop stop-color="#FF928E"/>
<stop offset="1" stop-color="#FE7062"/>
</linearGradient>
<linearGradient id="paint8_linear_152_1170" x1="183.659" y1="-54.929" x2="172.948" y2="-11.2111" gradientUnits="userSpaceOnUse">
<stop stop-color="#FF928E"/>
<stop offset="1" stop-color="#FE7062"/>
</linearGradient>
<linearGradient id="paint9_linear_152_1170" x1="133.36" y1="152.532" x2="162.23" y2="71.153" gradientUnits="userSpaceOnUse">
<stop stop-color="#E1473D"/>
<stop offset="1" stop-color="#E9605A"/>
</linearGradient>
<linearGradient id="paint10_linear_152_1170" x1="164.454" y1="76.4385" x2="195.651" y2="94.2211" gradientUnits="userSpaceOnUse">
<stop stop-color="#FEBBBA"/>
<stop offset="1" stop-color="#FF928E"/>
</linearGradient>
<linearGradient id="paint11_linear_152_1170" x1="166.973" y1="105.063" x2="179.572" y2="105.063" gradientUnits="userSpaceOnUse">
<stop stop-color="#09005D"/>
<stop offset="1" stop-color="#1A0F91"/>
</linearGradient>
<linearGradient id="paint12_linear_152_1170" x1="167.47" y1="80.8824" x2="60.7193" y2="14.1455" gradientUnits="userSpaceOnUse">
<stop stop-color="#FEBBBA"/>
<stop offset="1" stop-color="#FF928E"/>
</linearGradient>
<linearGradient id="paint13_linear_152_1170" x1="175.556" y1="112.896" x2="186.379" y2="112.896" gradientUnits="userSpaceOnUse">
<stop stop-color="#09005D"/>
<stop offset="1" stop-color="#1A0F91"/>
</linearGradient>
<linearGradient id="paint14_linear_152_1170" x1="193.656" y1="54.0651" x2="219.336" y2="82.1683" gradientUnits="userSpaceOnUse">
<stop stop-color="#4F52FF"/>
<stop offset="1" stop-color="#4042E2"/>
</linearGradient>
<linearGradient id="paint15_linear_152_1170" x1="229.889" y1="52.7291" x2="194.081" y2="23.472" gradientUnits="userSpaceOnUse">
<stop stop-color="#09005D"/>
<stop offset="1" stop-color="#1A0F91"/>
</linearGradient>
<linearGradient id="paint16_linear_152_1170" x1="263.781" y1="12.5107" x2="237.738" y2="34.3387" gradientUnits="userSpaceOnUse">
<stop stop-color="#FF928E"/>
<stop offset="1" stop-color="#FE7062"/>
</linearGradient>
<linearGradient id="paint17_linear_152_1170" x1="219.059" y1="66.1678" x2="250.115" y2="66.1678" gradientUnits="userSpaceOnUse">
<stop stop-color="#FEBBBA"/>
<stop offset="1" stop-color="#FF928E"/>
</linearGradient>
<linearGradient id="paint18_linear_152_1170" x1="206.389" y1="51.2732" x2="207.11" y2="40.0712" gradientUnits="userSpaceOnUse">
<stop stop-color="#FEBBBA"/>
<stop offset="1" stop-color="#FF928E"/>
</linearGradient>
<linearGradient id="paint19_linear_152_1170" x1="207.463" y1="41.8308" x2="193.921" y2="15.9487" gradientUnits="userSpaceOnUse">
<stop stop-color="#FEBBBA"/>
<stop offset="1" stop-color="#FF928E"/>
</linearGradient>
<linearGradient id="paint20_linear_152_1170" x1="230.495" y1="51.9871" x2="194.687" y2="22.73" gradientUnits="userSpaceOnUse">
<stop stop-color="#09005D"/>
<stop offset="1" stop-color="#1A0F91"/>
</linearGradient>
<linearGradient id="paint21_linear_152_1170" x1="211.156" y1="40.2121" x2="197.614" y2="14.3299" gradientUnits="userSpaceOnUse">
<stop stop-color="#FEBBBA"/>
<stop offset="1" stop-color="#FF928E"/>
</linearGradient>
<linearGradient id="paint22_linear_152_1170" x1="217.652" y1="65.7832" x2="201.64" y2="71.0268" gradientUnits="userSpaceOnUse">
<stop stop-color="#09005D"/>
<stop offset="1" stop-color="#1A0F91"/>
</linearGradient>
<linearGradient id="paint23_linear_152_1170" x1="175.468" y1="63.1892" x2="321.59" y2="50.9125" gradientUnits="userSpaceOnUse">
<stop stop-color="#09005D"/>
<stop offset="1" stop-color="#1A0F91"/>
</linearGradient>
<linearGradient id="paint24_linear_152_1170" x1="38.6076" y1="252.826" x2="53.8827" y2="252.826" gradientUnits="userSpaceOnUse">
<stop stop-color="#4F52FF"/>
<stop offset="1" stop-color="#4042E2"/>
</linearGradient>
<linearGradient id="paint25_linear_152_1170" x1="38.6067" y1="249.828" x2="53.4509" y2="249.828" gradientUnits="userSpaceOnUse">
<stop stop-color="#09005D"/>
<stop offset="1" stop-color="#1A0F91"/>
</linearGradient>
<linearGradient id="paint26_linear_152_1170" x1="40.0174" y1="245.643" x2="44.3205" y2="245.643" gradientUnits="userSpaceOnUse">
<stop stop-color="#FEBBBA"/>
<stop offset="1" stop-color="#FF928E"/>
</linearGradient>
<linearGradient id="paint27_linear_152_1170" x1="11.3438" y1="256.618" x2="17.197" y2="256.618" gradientUnits="userSpaceOnUse">
<stop stop-color="#4F52FF"/>
<stop offset="1" stop-color="#4042E2"/>
</linearGradient>
<linearGradient id="paint28_linear_152_1170" x1="11.3862" y1="250.785" x2="19.9778" y2="250.785" gradientUnits="userSpaceOnUse">
<stop stop-color="#09005D"/>
<stop offset="1" stop-color="#1A0F91"/>
</linearGradient>
<linearGradient id="paint29_linear_152_1170" x1="15.8518" y1="243.396" x2="20.9945" y2="243.396" gradientUnits="userSpaceOnUse">
<stop stop-color="#FEBBBA"/>
<stop offset="1" stop-color="#FF928E"/>
</linearGradient>
<linearGradient id="paint30_linear_152_1170" x1="57.445" y1="187.831" x2="13.4557" y2="259.791" gradientUnits="userSpaceOnUse">
<stop stop-color="#4F52FF"/>
<stop offset="1" stop-color="#4042E2"/>
</linearGradient>
<linearGradient id="paint31_linear_152_1170" x1="86.1103" y1="150.349" x2="58.6616" y2="181.478" gradientUnits="userSpaceOnUse">
<stop stop-color="#4F52FF"/>
<stop offset="1" stop-color="#4042E2"/>
</linearGradient>
<linearGradient id="paint32_linear_152_1170" x1="86.5799" y1="134.935" x2="66.179" y2="161.44" gradientUnits="userSpaceOnUse">
<stop stop-color="#FEBBBA"/>
<stop offset="1" stop-color="#FF928E"/>
</linearGradient>
<linearGradient id="paint33_linear_152_1170" x1="85.0114" y1="141.475" x2="26.7486" y2="174.9" gradientUnits="userSpaceOnUse">
<stop stop-color="#E1473D"/>
<stop offset="1" stop-color="#E9605A"/>
</linearGradient>
<linearGradient id="paint34_linear_152_1170" x1="54.1992" y1="151.721" x2="57.397" y2="151.721" gradientUnits="userSpaceOnUse">
<stop stop-color="#FF928E"/>
<stop offset="1" stop-color="#FE7062"/>
</linearGradient>
<linearGradient id="paint35_linear_152_1170" x1="41.1854" y1="152.083" x2="43.4194" y2="140.371" gradientUnits="userSpaceOnUse">
<stop stop-color="#FEBBBA"/>
<stop offset="1" stop-color="#FF928E"/>
</linearGradient>
<linearGradient id="paint36_linear_152_1170" x1="134.391" y1="77.3941" x2="105.852" y2="112.09" gradientUnits="userSpaceOnUse">
<stop stop-color="#FEBBBA"/>
<stop offset="1" stop-color="#FF928E"/>
</linearGradient>
<linearGradient id="paint37_linear_152_1170" x1="50.6775" y1="164.791" x2="43.3695" y2="175.739" gradientUnits="userSpaceOnUse">
<stop stop-color="#FEBBBA"/>
<stop offset="1" stop-color="#FF928E"/>
</linearGradient>
<linearGradient id="paint38_linear_152_1170" x1="36.1257" y1="166.561" x2="43.2868" y2="177.287" gradientUnits="userSpaceOnUse">
<stop stop-color="#FEBBBA"/>
<stop offset="1" stop-color="#FF928E"/>
</linearGradient>
<linearGradient id="paint39_linear_152_1170" x1="38.2619" y1="176.091" x2="58.0711" y2="182.579" gradientUnits="userSpaceOnUse">
<stop stop-color="#09005D"/>
<stop offset="1" stop-color="#1A0F91"/>
</linearGradient>
<linearGradient id="paint40_linear_152_1170" x1="65.5134" y1="163.247" x2="79.7118" y2="178.234" gradientUnits="userSpaceOnUse">
<stop stop-color="#09005D"/>
<stop offset="1" stop-color="#1A0F91"/>
</linearGradient>
<linearGradient id="paint41_linear_152_1170" x1="74.1105" y1="166.998" x2="80.5321" y2="176.655" gradientUnits="userSpaceOnUse">
<stop stop-color="#4F52FF"/>
<stop offset="1" stop-color="#4042E2"/>
</linearGradient>
<linearGradient id="paint42_linear_152_1170" x1="46.092" y1="126.735" x2="44.0943" y2="148.937" gradientUnits="userSpaceOnUse">
<stop stop-color="#FEBBBA"/>
<stop offset="1" stop-color="#FF928E"/>
</linearGradient>
<linearGradient id="paint43_linear_152_1170" x1="39.6605" y1="135.808" x2="53.2769" y2="127.327" gradientUnits="userSpaceOnUse">
<stop stop-color="#09005D"/>
<stop offset="1" stop-color="#1A0F91"/>
</linearGradient>
<linearGradient id="paint44_linear_152_1170" x1="36.8521" y1="149.103" x2="40.151" y2="134.013" gradientUnits="userSpaceOnUse">
<stop stop-color="#FEBBBA"/>
<stop offset="1" stop-color="#FF928E"/>
</linearGradient>
</defs>
</svg>
