<svg width="253" height="242" viewBox="0 0 253 242" fill="none" xmlns="http://www.w3.org/2000/svg">
<path d="M237.644 164.08C213.228 221.195 148.777 245.728 98.279 241.545C84.4908 240.403 56.7486 238.105 35.0879 217.604C-6.51065 178.234 -0.104492 95.9395 39.7177 47.4894C44.8457 41.2501 80.3429 -0.553634 135.658 0.00555864C176.157 0.41523 204.582 23.311 208.039 26.1632C212.406 29.7664 222.037 38.3289 230.716 51.9128C251.11 83.83 252.902 128.387 237.644 164.079V164.08Z" fill="url(#paint0_linear_398_11)"/>
<path d="M71.3383 158.371C71.2839 158.371 71.2294 158.357 71.1794 158.326C71.0369 158.238 70.992 158.051 71.08 157.908C71.2934 157.561 71.5118 157.217 71.7355 156.875C71.8279 156.735 72.0153 156.696 72.1561 156.788C72.296 156.88 72.3349 157.069 72.2433 157.209C72.0222 157.545 71.8072 157.885 71.5973 158.226C71.5403 158.319 71.4402 158.371 71.3383 158.371Z" fill="#91B3FA"/>
<path d="M144.543 169.368C144.407 169.368 144.284 169.278 144.249 169.14C144.055 168.387 143.836 167.63 143.598 166.893C143.547 166.733 143.634 166.562 143.794 166.511C143.953 166.459 144.125 166.547 144.177 166.707C144.417 167.457 144.64 168.224 144.837 168.989C144.879 169.152 144.781 169.317 144.619 169.359C144.593 169.366 144.568 169.368 144.543 169.368ZM142.54 163.518C142.423 163.518 142.31 163.45 142.261 163.335C141.953 162.621 141.62 161.908 141.271 161.215C141.196 161.065 141.256 160.882 141.406 160.807C141.556 160.731 141.739 160.791 141.814 160.942C142.168 161.645 142.506 162.369 142.819 163.094C142.885 163.248 142.815 163.427 142.661 163.493C142.622 163.51 142.581 163.518 142.541 163.518H142.54ZM139.659 158.046C139.558 158.046 139.46 157.996 139.402 157.905C138.988 157.248 138.549 156.593 138.099 155.961C138.001 155.824 138.033 155.635 138.169 155.537C138.306 155.44 138.495 155.472 138.593 155.608C139.05 156.25 139.496 156.914 139.916 157.58C140.005 157.722 139.962 157.91 139.821 158C139.77 158.032 139.714 158.046 139.659 158.046ZM74.2425 154.25C74.176 154.25 74.1087 154.229 74.0525 154.183C73.9221 154.078 73.9014 153.887 74.0059 153.756C74.4999 153.141 75.0189 152.533 75.5474 151.95C75.6597 151.825 75.8523 151.816 75.9766 151.929C76.101 152.041 76.1096 152.234 75.9974 152.358C75.4757 152.933 74.9654 153.532 74.4792 154.137C74.4196 154.212 74.3315 154.25 74.2425 154.25ZM135.978 153.078C135.893 153.078 135.808 153.043 135.748 152.974C135.237 152.384 134.705 151.804 134.167 151.25C134.05 151.13 134.053 150.938 134.173 150.821C134.293 150.704 134.484 150.706 134.602 150.827C135.149 151.39 135.689 151.978 136.207 152.576C136.317 152.703 136.303 152.895 136.177 153.005C136.119 153.055 136.048 153.079 135.978 153.079L135.978 153.078ZM78.4759 149.745C78.3938 149.745 78.3109 149.711 78.2513 149.645C78.1382 149.522 78.1477 149.329 78.2712 149.216C78.8533 148.684 79.4587 148.163 80.0709 147.666C80.2013 147.561 80.3922 147.581 80.4976 147.711C80.6038 147.842 80.5831 148.033 80.4526 148.139C79.8499 148.628 79.2531 149.142 78.6797 149.665C78.6218 149.718 78.5484 149.745 78.475 149.745H78.4759ZM131.587 148.728C131.518 148.728 131.448 148.704 131.391 148.656C130.797 148.152 130.182 147.66 129.564 147.196C129.431 147.095 129.404 146.905 129.504 146.771C129.605 146.637 129.795 146.609 129.929 146.71C130.556 147.182 131.18 147.681 131.784 148.193C131.912 148.301 131.928 148.493 131.819 148.62C131.76 148.691 131.673 148.728 131.588 148.728H131.587ZM83.3448 145.935C83.2464 145.935 83.1505 145.888 83.0918 145.799C82.9985 145.659 83.0365 145.471 83.1764 145.378C83.8328 144.939 84.5107 144.516 85.1903 144.118C85.3354 144.033 85.5202 144.081 85.6057 144.226C85.6904 144.372 85.642 144.557 85.4969 144.642C84.8268 145.035 84.1592 145.452 83.5132 145.883C83.4614 145.918 83.4027 145.934 83.3448 145.934V145.935ZM126.581 145.106C126.527 145.106 126.472 145.092 126.423 145.062C125.759 144.657 125.076 144.266 124.392 143.901C124.244 143.823 124.188 143.639 124.267 143.491C124.346 143.343 124.529 143.286 124.678 143.366C125.373 143.735 126.066 144.132 126.74 144.544C126.882 144.631 126.928 144.818 126.841 144.961C126.784 145.054 126.684 145.106 126.582 145.106H126.581ZM88.7371 142.911C88.6223 142.911 88.5126 142.845 88.4616 142.735C88.3908 142.583 88.4573 142.402 88.6093 142.331C89.3235 142 90.0584 141.685 90.7925 141.397C90.9488 141.335 91.125 141.412 91.1863 141.569C91.2476 141.725 91.1707 141.901 91.0153 141.963C90.2916 142.247 89.5679 142.557 88.8641 142.883C88.8226 142.902 88.7794 142.912 88.7371 142.912V142.911ZM121.076 142.3C121.037 142.3 120.998 142.292 120.96 142.277C120.245 141.979 119.511 141.698 118.776 141.442C118.618 141.386 118.534 141.214 118.589 141.054C118.644 140.896 118.817 140.812 118.976 140.868C119.722 141.128 120.468 141.413 121.194 141.715C121.349 141.78 121.422 141.957 121.358 142.112C121.309 142.229 121.196 142.3 121.078 142.3H121.076ZM94.5293 140.755C94.3971 140.755 94.2754 140.667 94.2374 140.534C94.1916 140.373 94.2849 140.205 94.4455 140.158C95.2029 139.941 95.9775 139.744 96.747 139.572C96.9102 139.537 97.0726 139.639 97.1097 139.803C97.1468 139.967 97.0432 140.129 96.88 140.166C96.1217 140.335 95.3592 140.529 94.613 140.743C94.5854 140.751 94.5569 140.755 94.5293 140.755V140.755ZM115.206 140.372C115.182 140.372 115.158 140.369 115.134 140.363C114.381 140.178 113.612 140.013 112.848 139.872C112.683 139.842 112.574 139.683 112.604 139.519C112.635 139.354 112.793 139.245 112.958 139.275C113.733 139.418 114.515 139.585 115.278 139.773C115.44 139.812 115.541 139.978 115.501 140.14C115.467 140.278 115.343 140.372 115.206 140.372ZM100.585 139.518C100.434 139.518 100.303 139.405 100.284 139.252C100.264 139.085 100.382 138.934 100.548 138.913C101.329 138.815 102.125 138.739 102.911 138.687C103.076 138.677 103.223 138.803 103.234 138.971C103.246 139.138 103.119 139.283 102.951 139.294C102.176 139.345 101.393 139.419 100.623 139.516C100.61 139.518 100.597 139.519 100.585 139.519V139.518ZM109.11 139.362C109.102 139.362 109.092 139.362 109.083 139.361C108.311 139.294 107.526 139.247 106.749 139.225C106.582 139.22 106.449 139.08 106.455 138.912C106.46 138.747 106.595 138.617 106.758 138.617C106.761 138.617 106.764 138.617 106.767 138.617C107.556 138.641 108.353 138.687 109.137 138.755C109.304 138.77 109.427 138.917 109.412 139.085C109.399 139.243 109.266 139.362 109.11 139.362Z" fill="#91B3FA"/>
<path d="M145.495 174.336C145.345 174.336 145.214 174.223 145.195 174.07C145.144 173.672 145.088 173.274 145.025 172.877C144.999 172.711 145.113 172.555 145.278 172.529C145.443 172.502 145.599 172.617 145.625 172.783C145.689 173.186 145.746 173.59 145.798 173.994C145.818 174.161 145.701 174.313 145.534 174.334C145.521 174.336 145.508 174.337 145.495 174.337V174.336Z" fill="#91B3FA"/>
<path d="M137.231 204.32C137.165 204.32 137.099 204.299 137.043 204.256C136.912 204.152 136.889 203.961 136.992 203.829C137.241 203.512 137.485 203.193 137.723 202.87C137.822 202.735 138.012 202.706 138.148 202.806C138.283 202.906 138.311 203.097 138.212 203.231C137.97 203.559 137.722 203.883 137.47 204.205C137.41 204.281 137.321 204.32 137.231 204.32Z" fill="#91B3FA"/>
<path d="M105.444 219.696H105.443C104.615 219.692 103.776 219.662 102.948 219.608C102.781 219.596 102.654 219.452 102.665 219.284C102.676 219.117 102.823 218.991 102.988 219.001C103.803 219.054 104.63 219.084 105.445 219.087C105.613 219.087 105.748 219.225 105.747 219.392C105.747 219.559 105.611 219.695 105.443 219.695L105.444 219.696ZM109.464 219.513C109.31 219.513 109.178 219.396 109.163 219.239C109.147 219.072 109.269 218.923 109.437 218.908C110.248 218.83 111.07 218.726 111.875 218.598C112.04 218.572 112.197 218.685 112.223 218.85C112.249 219.016 112.136 219.172 111.97 219.198C111.152 219.328 110.318 219.433 109.494 219.512C109.484 219.513 109.474 219.513 109.464 219.513ZM98.9725 219.144C98.9561 219.144 98.9388 219.142 98.9224 219.139C98.1046 219.003 97.2807 218.838 96.475 218.653C96.3117 218.615 96.2098 218.452 96.247 218.288C96.285 218.124 96.4482 218.023 96.6114 218.06C97.4051 218.243 98.2168 218.405 99.0226 218.539C99.1875 218.567 99.2998 218.723 99.2722 218.889C99.2471 219.038 99.1193 219.144 98.9734 219.144H98.9725ZM115.861 218.374C115.726 218.374 115.604 218.284 115.567 218.148C115.525 217.985 115.622 217.819 115.783 217.777C116.573 217.57 117.366 217.334 118.141 217.077C118.301 217.023 118.472 217.111 118.524 217.27C118.577 217.429 118.491 217.601 118.332 217.653C117.545 217.914 116.739 218.153 115.938 218.364C115.912 218.371 115.886 218.374 115.86 218.374H115.861ZM92.6725 217.562C92.6406 217.562 92.6069 217.557 92.575 217.545C91.7908 217.28 91.0041 216.986 90.2372 216.673C90.0818 216.609 90.0075 216.431 90.0705 216.277C90.1344 216.121 90.3106 216.048 90.4661 216.111C91.2217 216.42 91.9964 216.709 92.7684 216.971C92.9273 217.024 93.0128 217.197 92.9584 217.356C92.9152 217.482 92.7978 217.563 92.6708 217.563L92.6725 217.562ZM121.99 216.214C121.873 216.214 121.763 216.146 121.713 216.034C121.644 215.881 121.713 215.701 121.866 215.632C122.611 215.298 123.355 214.937 124.078 214.558C124.227 214.481 124.41 214.538 124.487 214.686C124.565 214.835 124.508 215.019 124.36 215.096C123.626 215.481 122.869 215.848 122.113 216.186C122.072 216.204 122.03 216.213 121.989 216.213L121.99 216.214ZM86.7094 214.986C86.6611 214.986 86.6127 214.975 86.5669 214.951C85.8363 214.562 85.1074 214.145 84.401 213.711C84.2585 213.623 84.2136 213.437 84.3008 213.293C84.3889 213.15 84.5763 213.106 84.7188 213.193C85.414 213.62 86.1325 214.031 86.8519 214.414C86.9996 214.493 87.0566 214.677 86.9771 214.825C86.9227 214.928 86.8174 214.986 86.7086 214.986H86.7094ZM127.688 213.087C127.589 213.087 127.493 213.038 127.434 212.95C127.342 212.81 127.38 212.622 127.52 212.529C128.202 212.08 128.879 211.603 129.533 211.113C129.666 211.011 129.857 211.039 129.957 211.174C130.058 211.308 130.031 211.499 129.897 211.599C129.233 212.097 128.545 212.581 127.855 213.036C127.804 213.07 127.745 213.087 127.688 213.087ZM81.2429 211.48C81.1789 211.48 81.1142 211.459 81.0589 211.418C80.4 210.915 79.7488 210.385 79.1227 209.843C78.9958 209.733 78.982 209.541 79.0916 209.414C79.2013 209.287 79.393 209.273 79.52 209.383C80.1366 209.917 80.7782 210.439 81.4277 210.934C81.5607 211.036 81.5866 211.226 81.4847 211.36C81.4251 211.438 81.3344 211.479 81.2429 211.479V211.48ZM132.814 209.086C132.732 209.086 132.65 209.053 132.591 208.987C132.477 208.864 132.485 208.672 132.61 208.558C133.211 208.006 133.803 207.428 134.37 206.84C134.486 206.719 134.678 206.717 134.799 206.833C134.92 206.949 134.923 207.141 134.807 207.262C134.231 207.859 133.63 208.445 133.02 209.005C132.961 209.059 132.888 209.085 132.814 209.085V209.086ZM76.4145 207.133C76.3342 207.133 76.2539 207.101 76.1943 207.037C75.6278 206.438 75.0707 205.81 74.5362 205.171C74.4282 205.043 74.4455 204.851 74.5742 204.744C74.7037 204.636 74.8946 204.654 75.0016 204.782C75.5276 205.411 76.0777 206.03 76.6356 206.62C76.7513 206.742 76.7452 206.935 76.6235 207.05C76.5648 207.105 76.4905 207.133 76.4154 207.133H76.4145ZM72.3426 202.067C72.245 202.067 72.1501 202.02 72.0913 201.934C71.6241 201.248 71.1733 200.539 70.751 199.827C70.6655 199.682 70.713 199.496 70.8572 199.41C71.0015 199.325 71.188 199.371 71.2735 199.516C71.6898 200.217 72.1345 200.916 72.5939 201.592C72.6889 201.73 72.6527 201.919 72.5136 202.013C72.4618 202.049 72.4022 202.066 72.3435 202.066L72.3426 202.067ZM69.1318 196.415C69.0169 196.415 68.9072 196.351 68.8563 196.24C68.5057 195.487 68.1749 194.714 67.8735 193.944C67.8122 193.787 67.8891 193.611 68.0454 193.549C68.2017 193.489 68.3779 193.565 68.4392 193.721C68.7371 194.481 69.0627 195.242 69.4073 195.982C69.4781 196.134 69.4125 196.315 69.2605 196.386C69.219 196.405 69.175 196.415 69.1326 196.415L69.1318 196.415ZM66.8761 190.318C66.7439 190.318 66.6213 190.23 66.5842 190.096C66.3605 189.296 66.1593 188.48 65.9866 187.671C65.9512 187.506 66.0557 187.345 66.2197 187.31C66.3821 187.275 66.5453 187.379 66.5799 187.543C66.75 188.341 66.9486 189.145 67.1688 189.932C67.2146 190.093 67.1196 190.261 66.9581 190.306C66.9305 190.314 66.9028 190.317 66.8761 190.317V190.318Z" fill="#91B3FA"/>
<path d="M65.636 183.922C65.4831 183.922 65.3518 183.807 65.3346 183.651C65.2896 183.246 65.2508 182.839 65.218 182.433C65.205 182.266 65.3294 182.119 65.496 182.107C65.6688 182.093 65.8095 182.218 65.8233 182.385C65.8553 182.785 65.8933 183.185 65.9382 183.584C65.9563 183.751 65.8363 183.902 65.6696 183.92C65.6584 183.921 65.6472 183.922 65.636 183.922Z" fill="#91B3FA"/>
<path d="M74.7452 177.748C74.7141 177.952 74.8151 178.152 74.9973 178.248L80.1962 180.985C80.4095 183.722 81.0606 186.444 82.1686 189.043L78.8274 193.874C78.7099 194.043 78.7134 194.269 78.8352 194.435L83.0046 200.119C83.1264 200.285 83.3405 200.356 83.5366 200.295L89.1422 198.551C91.2882 200.387 93.6881 201.825 96.2332 202.848L97.2842 208.632C97.3213 208.835 97.4819 208.992 97.6857 209.023L104.65 210.091C104.854 210.122 105.054 210.021 105.15 209.839L107.884 204.636C110.619 204.422 113.339 203.771 115.936 202.662L120.763 206.006C120.932 206.123 121.157 206.12 121.323 205.998L127.003 201.825C127.169 201.703 127.24 201.489 127.178 201.293L125.437 195.683C127.271 193.536 128.708 191.133 129.73 188.586L135.51 187.534C135.712 187.497 135.869 187.335 135.9 187.132L136.968 180.163C136.999 179.959 136.898 179.758 136.716 179.662L131.517 176.926C131.304 174.189 130.653 171.466 129.545 168.867L132.886 164.037C133.003 163.867 133 163.642 132.878 163.476L128.709 157.792C128.587 157.626 128.373 157.555 128.177 157.616L122.57 159.359C120.425 157.523 118.024 156.085 115.479 155.061L114.428 149.277C114.391 149.074 114.231 148.918 114.027 148.887L107.063 147.819C106.859 147.787 106.658 147.889 106.563 148.071L103.828 153.274C101.093 153.487 98.3732 154.139 95.7763 155.248L90.9497 151.904C90.7804 151.787 90.5559 151.79 90.3892 151.912L84.7093 156.085C84.5435 156.206 84.4727 156.421 84.534 156.617L86.2759 162.227C84.4416 164.375 83.0046 166.777 81.9821 169.324L76.2029 170.376C76 170.413 75.8437 170.573 75.8126 170.777L74.7452 177.747V177.748Z" fill="#91B3FA"/>
<path d="M105.852 185.67C104.347 185.67 102.833 185.167 101.584 184.135C100.201 182.993 99.3464 181.38 99.1763 179.593C99.0062 177.807 99.5407 176.062 100.682 174.678C103.038 171.822 107.278 171.417 110.131 173.776C111.514 174.918 112.369 176.531 112.539 178.318C112.709 180.104 112.174 181.849 111.033 183.233C109.707 184.84 107.786 185.67 105.852 185.67ZM105.863 173.153C104.19 173.153 102.531 173.871 101.385 175.259C100.398 176.455 99.9363 177.963 100.084 179.507C100.231 181.051 100.97 182.445 102.165 183.432C104.631 185.47 108.295 185.12 110.331 182.652C111.318 181.456 111.78 179.948 111.633 178.404C111.486 176.86 110.747 175.466 109.552 174.479C108.473 173.587 107.164 173.153 105.863 173.153Z" fill="#BDD0FB"/>
<path d="M106.044 196.441C105.154 196.441 104.259 196.372 103.361 196.235C98.7523 195.528 94.6942 193.066 91.9351 189.305C91.3677 188.531 90.8642 187.713 90.4324 186.863C90.4229 186.844 90.4125 186.824 90.403 186.805C90.3953 186.79 90.3875 186.775 90.3806 186.76C90.3711 186.741 90.3624 186.722 90.3529 186.704C90.3253 186.649 90.2985 186.594 90.2718 186.538C90.201 186.391 90.131 186.241 90.0645 186.092L90.8961 185.719C91.3746 186.787 91.9713 187.812 92.67 188.766C95.2849 192.331 99.1314 194.664 103.5 195.334C107.869 196.005 112.236 194.932 115.8 192.315C120.211 189.074 122.549 184.041 122.548 178.943C122.548 175.542 121.506 172.113 119.346 169.168C116.731 165.603 112.884 163.27 108.515 162.599C104.147 161.929 99.7791 163.001 96.2159 165.618C93.7978 167.395 91.9091 169.789 90.7545 172.541L89.9151 172.189C91.1336 169.284 93.1259 166.757 95.677 164.884C99.4354 162.122 104.044 160.99 108.653 161.698C113.262 162.405 117.32 164.866 120.08 168.628C122.359 171.735 123.457 175.354 123.458 178.941C123.459 184.32 120.992 189.63 116.338 193.05C113.31 195.275 109.731 196.441 106.044 196.441V196.441Z" fill="#BDD0FB"/>
<path d="M145.423 199.858C145.368 199.858 145.314 199.843 145.264 199.813C145.121 199.725 145.076 199.538 145.164 199.394C145.381 199.042 145.617 198.696 145.866 198.367C145.967 198.233 146.157 198.206 146.291 198.308C146.424 198.409 146.45 198.6 146.349 198.733C146.113 199.047 145.887 199.376 145.681 199.712C145.624 199.805 145.524 199.857 145.422 199.857L145.423 199.858Z" fill="#91B3FA"/>
<path d="M167.184 200.107C167.079 200.107 166.978 200.053 166.922 199.956C166.638 199.472 166.317 199.001 165.969 198.556C165.84 198.39 165.708 198.23 165.571 198.073C165.462 197.946 165.475 197.754 165.601 197.644C165.728 197.535 165.92 197.548 166.03 197.675C166.172 197.839 166.312 198.008 166.448 198.181C166.812 198.646 167.148 199.141 167.446 199.649C167.531 199.793 167.482 199.98 167.338 200.064C167.29 200.093 167.237 200.106 167.185 200.106L167.184 200.107ZM148.867 196.173C148.772 196.173 148.678 196.129 148.62 196.046C148.522 195.909 148.554 195.72 148.691 195.622C149.35 195.15 150.057 194.739 150.79 194.4C150.943 194.329 151.122 194.396 151.193 194.549C151.264 194.701 151.198 194.881 151.046 194.952C150.347 195.275 149.673 195.668 149.045 196.117C148.991 196.155 148.93 196.174 148.868 196.174L148.867 196.173ZM162.869 195.689C162.815 195.689 162.76 195.674 162.71 195.644C162.054 195.24 161.355 194.897 160.633 194.623C160.476 194.563 160.397 194.388 160.457 194.231C160.517 194.074 160.693 193.995 160.848 194.054C161.606 194.342 162.339 194.702 163.028 195.126C163.17 195.213 163.215 195.401 163.128 195.543C163.07 195.637 162.971 195.689 162.869 195.689ZM154.611 193.916C154.461 193.916 154.33 193.804 154.311 193.651C154.29 193.484 154.408 193.332 154.573 193.311C155.375 193.209 156.199 193.181 157.001 193.23C157.168 193.24 157.295 193.384 157.286 193.551C157.276 193.719 157.134 193.848 156.965 193.836C156.201 193.791 155.415 193.817 154.651 193.914C154.638 193.916 154.625 193.917 154.612 193.917L154.611 193.916Z" fill="#91B3FA"/>
<path d="M168.81 204.893C168.659 204.893 168.528 204.78 168.509 204.627C168.46 204.237 168.39 203.844 168.304 203.46C168.267 203.295 168.369 203.133 168.533 203.096C168.697 203.059 168.858 203.161 168.896 203.325C168.987 203.728 169.059 204.14 169.112 204.549C169.133 204.716 169.015 204.868 168.849 204.889C168.836 204.891 168.823 204.892 168.81 204.892V204.893Z" fill="#91B3FA"/>
<path d="M165.668 214.985C165.595 214.985 165.523 214.959 165.465 214.908C165.341 214.795 165.33 214.603 165.443 214.479C165.706 214.187 165.957 213.877 166.191 213.56C166.291 213.425 166.481 213.396 166.616 213.496C166.751 213.596 166.78 213.786 166.68 213.921C166.434 214.254 166.17 214.578 165.894 214.885C165.835 214.952 165.752 214.985 165.669 214.985H165.668Z" fill="#91B3FA"/>
<path d="M156.238 219.198C155.686 219.198 155.128 219.163 154.579 219.092C154.412 219.07 154.294 218.918 154.316 218.752C154.338 218.586 154.489 218.468 154.655 218.489C155.408 218.585 156.173 218.613 156.93 218.571C157.091 218.563 157.241 218.689 157.25 218.857C157.259 219.024 157.131 219.168 156.964 219.177C156.722 219.191 156.479 219.197 156.238 219.198ZM160.648 218.406C160.525 218.406 160.409 218.33 160.363 218.209C160.304 218.051 160.385 217.877 160.542 217.818C161.252 217.553 161.942 217.221 162.593 216.83C162.736 216.744 162.923 216.79 163.009 216.934C163.095 217.077 163.049 217.264 162.905 217.35C162.223 217.761 161.499 218.11 160.754 218.387C160.719 218.4 160.683 218.406 160.648 218.406ZM150.98 218.062C150.939 218.062 150.895 218.054 150.855 218.035C150.129 217.706 149.432 217.307 148.781 216.851C148.644 216.755 148.611 216.565 148.707 216.427C148.804 216.29 148.993 216.256 149.13 216.353C149.75 216.788 150.414 217.167 151.106 217.481C151.259 217.55 151.326 217.731 151.257 217.883C151.206 217.995 151.096 218.062 150.98 218.062V218.062ZM146.218 214.297C146.127 214.297 146.038 214.256 145.978 214.179C145.487 213.548 145.054 212.872 144.69 212.167C144.613 212.018 144.671 211.834 144.819 211.758C144.968 211.68 145.152 211.739 145.228 211.888C145.576 212.56 145.989 213.205 146.456 213.807C146.559 213.939 146.536 214.13 146.404 214.233C146.349 214.276 146.283 214.297 146.217 214.297H146.218Z" fill="#91B3FA"/>
<path d="M143.743 208.739C143.599 208.739 143.471 208.636 143.444 208.489C143.373 208.083 143.319 207.668 143.285 207.255C143.272 207.088 143.397 206.942 143.563 206.928C143.728 206.915 143.877 207.038 143.891 207.206C143.923 207.599 143.974 207.995 144.042 208.382C144.071 208.547 143.962 208.706 143.796 208.735C143.778 208.738 143.759 208.739 143.742 208.739H143.743Z" fill="#91B3FA"/>
<path d="M146.497 205.761C146.488 205.825 146.52 205.889 146.577 205.919L148.216 206.782C148.284 207.646 148.489 208.504 148.838 209.324L147.785 210.848C147.748 210.902 147.748 210.972 147.787 211.025L149.103 212.818C149.141 212.87 149.209 212.892 149.27 212.873L151.038 212.323C151.715 212.902 152.471 213.356 153.275 213.679L153.606 215.503C153.618 215.567 153.668 215.616 153.733 215.627L155.929 215.964C155.993 215.973 156.057 215.941 156.087 215.884L156.95 214.243C157.813 214.176 158.67 213.97 159.49 213.621L161.012 214.675C161.066 214.712 161.137 214.711 161.189 214.672L162.981 213.356C163.033 213.318 163.055 213.25 163.036 213.188L162.487 211.419C163.065 210.742 163.519 209.985 163.841 209.181L165.663 208.849C165.727 208.838 165.776 208.787 165.786 208.722L166.123 206.524C166.133 206.46 166.101 206.396 166.044 206.366L164.404 205.502C164.336 204.639 164.131 203.781 163.782 202.961L164.836 201.438C164.873 201.384 164.872 201.313 164.833 201.26L163.518 199.468C163.48 199.415 163.411 199.394 163.35 199.413L161.582 199.962C160.906 199.383 160.149 198.93 159.346 198.607L159.014 196.783C159.003 196.719 158.952 196.669 158.887 196.659L156.691 196.322C156.627 196.312 156.563 196.344 156.533 196.401L155.67 198.042C154.807 198.109 153.95 198.315 153.131 198.664L151.609 197.61C151.555 197.573 151.484 197.573 151.432 197.612L149.641 198.929C149.588 198.968 149.566 199.035 149.585 199.096L150.135 200.866C149.556 201.543 149.103 202.3 148.78 203.104L146.957 203.436C146.893 203.447 146.844 203.498 146.834 203.563L146.497 205.761Z" fill="#91B3FA"/>
<path d="M156.307 208.571C155.763 208.571 155.215 208.389 154.763 208.015C153.731 207.162 153.585 205.627 154.437 204.593C155.29 203.56 156.823 203.413 157.856 204.266C158.356 204.68 158.666 205.264 158.727 205.909C158.789 206.556 158.595 207.188 158.182 207.688C157.703 208.269 157.008 208.57 156.308 208.57L156.307 208.571ZM155.343 207.312C155.655 207.571 156.052 207.692 156.453 207.653C156.857 207.615 157.221 207.421 157.479 207.108C157.738 206.795 157.859 206.4 157.82 205.997C157.781 205.593 157.587 205.228 157.275 204.97C156.63 204.437 155.671 204.528 155.138 205.174C154.605 205.82 154.697 206.779 155.342 207.312H155.343Z" fill="#91B3FA"/>
<path d="M156.364 211.964C154.573 211.964 152.806 211.143 151.667 209.59C151.652 209.57 151.637 209.55 151.622 209.529C151.415 209.239 151.235 208.931 151.085 208.61C151.083 208.603 151.079 208.596 151.076 208.59C151.073 208.585 151.072 208.581 151.069 208.576L151.066 208.57C151.059 208.554 151.051 208.537 151.044 208.519L151.876 208.147C152.017 208.464 152.194 208.768 152.401 209.051C152.42 209.077 152.44 209.103 152.46 209.129C153.648 210.684 155.599 211.334 157.405 210.942C158.048 210.802 158.672 210.531 159.237 210.12C159.245 210.114 159.252 210.109 159.26 210.104C160.316 209.328 161.008 208.186 161.206 206.889C161.245 206.638 161.264 206.386 161.264 206.135C161.264 205.098 160.936 204.091 160.311 203.239C158.71 201.056 155.634 200.584 153.452 202.186C152.736 202.713 152.175 203.423 151.833 204.239L150.994 203.886C151.4 202.918 152.064 202.076 152.914 201.451C155.499 199.552 159.147 200.112 161.045 202.699C161.786 203.709 162.175 204.903 162.175 206.133C162.175 206.43 162.152 206.729 162.107 207.027C161.871 208.564 161.051 209.917 159.799 210.837C158.764 211.598 157.559 211.964 156.364 211.964Z" fill="#BDD0FB"/>
<path d="M69.7233 146.576C69.7233 146.576 70.4038 117.957 57.2323 110.298C44.0616 102.639 19.0181 97.8497 18.0794 56.7555C17.5302 32.6972 16.9351 22.1788 16.5362 17.5921C16.3807 15.803 17.9697 14.3588 19.7323 14.6915C32.2061 17.0433 72.7295 26.7233 81.2256 54.4046C91.2977 87.2207 69.7225 146.577 69.7225 146.577L69.7233 146.576Z" fill="#BDD0FB"/>
<path d="M29.3804 26.1242C43.0736 38.3461 58.9068 59.9757 67.3458 81.6062C68.4288 85.1713 71.5982 92.752 72.9739 106.221C74.2028 117.455 73.5922 129.325 72.1017 137.182C72.0075 137.679 71.5291 138.005 71.0325 137.911C70.1793 137.749 70.2924 136.831 70.3002 136.859C72.0024 123.434 71.2959 106.724 67.3959 91.6474C62.4138 73.1344 51.3011 55.1858 39.8066 39.9632L38.6235 38.4645C29.7181 27.0187 27.8432 26.9349 28.6757 26.1372C28.8726 25.9488 29.1801 25.947 29.3804 26.1251V26.1242Z" fill="url(#paint1_linear_398_11)"/>
<path d="M56.9853 110.586C55.6977 101.894 54.1708 90.8465 47.0323 84.7913C38.7133 77.7344 10.4055 82.1898 1.14257 83.8829C-0.0146535 84.0947 -0.404135 85.5579 0.496595 86.315C4.93807 90.0487 14.4402 98.8541 16.9161 107.73C19.184 115.859 25.4442 122.261 32.8702 125.971C36.9205 127.995 39.9819 127.696 44.1592 128.412C49.2095 129.277 53.6544 132.286 58.8636 132.535C58.9353 125.138 58.076 117.912 56.9853 110.587V110.586Z" fill="#91B3FA"/>
<path d="M14.1699 88.8249C25.9874 89.3201 38.6727 94.715 45.11 104.835L45.7179 105.8C47.1213 108.065 55.0742 124.161 59.4914 137.504C59.5467 137.67 59.456 137.85 59.2902 137.905C59.0078 137.998 58.8662 137.687 58.8938 137.715C55.816 130.177 51.3961 120.62 47.8761 113.473C44.1013 105.675 41.4587 100.393 32.8478 95.3347C23.2636 89.8862 14.1069 89.3261 14.1345 89.3313C13.9946 89.3166 13.8927 89.1922 13.9074 89.0522C13.9212 88.9173 14.0378 88.8179 14.1708 88.824L14.1699 88.8249Z" fill="#BDD0FB"/>
<path d="M22.2721 148.394C22.2721 148.394 45.755 210.375 53.1742 223.268C61.786 238.235 86.9382 228.698 85.686 216.173C84.4346 203.646 55.0482 151.873 55.0482 151.873L22.2721 148.394V148.394Z" fill="url(#paint2_linear_398_11)"/>
<path d="M53.7594 102.858L199.713 52.2129L198.18 189.266L49.7705 156.126L53.7594 102.858Z" fill="url(#paint3_linear_398_11)"/>
<path d="M200.093 191.955C208.012 191.955 214.432 160.421 214.432 121.523C214.432 82.624 208.012 51.0903 200.093 51.0903C192.173 51.0903 185.753 82.624 185.753 121.523C185.753 160.421 192.173 191.955 200.093 191.955Z" fill="url(#paint4_linear_398_11)"/>
<path d="M201.181 187.139C199.884 185.82 197.061 180.732 194.641 167.572C192.301 154.855 191.013 138.36 191.013 121.126C191.013 103.892 192.301 87.3973 194.641 74.6802C197.061 61.5206 199.884 56.4317 201.181 55.1128C202.477 56.4317 205.3 61.5206 207.721 74.6802C210.06 87.3973 211.349 103.892 211.349 121.126C211.349 138.36 210.06 154.855 207.721 167.572C205.3 180.732 202.477 185.82 201.181 187.139Z" fill="url(#paint5_linear_398_11)"/>
<mask id="mask0_398_11" style="mask-type:luminance" maskUnits="userSpaceOnUse" x="191" y="55" width="38" height="133">
<path d="M201.181 187.139C199.884 185.82 197.061 180.732 194.641 167.572C192.301 154.855 191.013 138.36 191.013 121.126C191.013 103.892 192.301 87.3973 194.641 74.6802C197.061 61.5206 199.884 56.4317 201.181 55.1128C202.477 56.4317 205.3 61.5206 207.721 74.6802C210.06 87.3973 228.52 103.892 228.52 121.126C228.52 138.36 210.059 154.855 207.721 167.572C205.3 180.732 202.477 185.82 201.181 187.139Z" fill="white"/>
</mask>
<g mask="url(#mask0_398_11)">
<path d="M219.561 120.601C219.561 132.568 213.119 142.269 200.37 142.269C187.621 142.269 177.285 132.568 177.285 120.601C177.285 108.634 187.621 98.9321 200.37 98.9321C213.119 98.9321 219.561 108.634 219.561 120.601Z" fill="url(#paint6_linear_398_11)"/>
</g>
<path d="M30.4616 100.298C37.3272 99.5001 47.1731 99.2123 57.8186 101.652C54.3116 119.987 54.8409 139.098 58.8972 158.887H28.8709C24.084 158.887 20.0017 155.407 19.2556 150.674C17.759 141.189 15.9299 125.246 17.8807 112.441C18.8601 106.015 24.0097 101.046 30.4616 100.296V100.298Z" fill="url(#paint7_linear_398_11)"/>
<path d="M48.4805 114.341H25.0875C24.2938 114.341 23.5926 113.924 23.2135 113.226C22.8343 112.527 22.8654 111.712 23.2964 111.045C23.4768 110.766 23.8491 110.687 24.128 110.867C24.4069 111.048 24.4864 111.42 24.3059 111.7C24.1176 111.991 24.1047 112.346 24.2696 112.651C24.4354 112.955 24.7412 113.137 25.0866 113.137H48.4797C48.9927 113.137 49.4098 112.719 49.4098 112.206V110.539C49.4098 110.026 48.9927 109.609 48.4797 109.609H24.9139C24.5814 109.609 24.3119 109.339 24.3119 109.006C24.3119 108.673 24.5814 108.404 24.9139 108.404H48.4805C49.6568 108.404 50.6136 109.361 50.6136 110.539V112.205C50.6136 113.382 49.6568 114.34 48.4805 114.34V114.341Z" fill="#91B3FA"/>
<path d="M46.395 124.708H23.0019C22.2082 124.708 21.507 124.292 21.1279 123.593C20.7487 122.895 20.7798 122.08 21.2108 121.413C21.3913 121.135 21.7643 121.055 22.0424 121.235C22.3214 121.415 22.4008 121.788 22.2203 122.068C22.032 122.359 22.0191 122.714 22.184 123.019C22.3499 123.323 22.6556 123.504 23.001 123.504H46.3941C46.9071 123.504 47.3242 123.087 47.3242 122.574V120.908C47.3242 120.395 46.9071 119.977 46.3941 119.977H22.8283C22.4958 119.977 22.2264 119.708 22.2264 119.375C22.2264 119.042 22.4958 118.772 22.8283 118.772H46.395C47.5712 118.772 48.528 119.73 48.528 120.908V122.574C48.528 123.751 47.5712 124.708 46.395 124.708Z" fill="#91B3FA"/>
<path opacity="0.69" d="M75.2097 99.5345C74.955 99.5345 74.7183 99.3711 74.6371 99.1153C74.5361 98.7981 74.7114 98.4602 75.0275 98.3591L185.571 63.1541C185.887 63.053 186.226 63.2284 186.327 63.5456C186.428 63.8628 186.253 64.2007 185.937 64.3019L75.3928 99.5068C75.3323 99.5258 75.271 99.5353 75.2097 99.5353V99.5345Z" fill="white"/>
<path opacity="0.69" d="M60.2609 105.65C60.0234 105.65 59.7988 105.509 59.7038 105.276C59.5778 104.968 59.7254 104.616 60.0329 104.491L65.7222 102.164C66.0297 102.037 66.3812 102.185 66.5064 102.493C66.6325 102.801 66.4848 103.152 66.1774 103.278L60.488 105.605C60.4137 105.635 60.3369 105.65 60.2609 105.65Z" fill="white"/>
<path d="M48.4805 136.852H25.0874C24.2938 136.852 23.5934 136.435 23.2134 135.737C22.8343 135.039 22.8646 134.224 23.2964 133.556C23.4768 133.277 23.8491 133.198 24.128 133.377C24.4069 133.558 24.4864 133.931 24.3059 134.21C24.1176 134.501 24.1038 134.856 24.2696 135.161C24.4354 135.466 24.7403 135.647 25.0866 135.647H48.4797C48.9927 135.647 49.4098 135.23 49.4098 134.716V133.051C49.4098 132.537 48.9927 132.12 48.4797 132.12H24.9139C24.5814 132.12 24.3119 131.85 24.3119 131.517C24.3119 131.185 24.5814 130.915 24.9139 130.915H48.4805C49.6568 130.915 50.6136 131.873 50.6136 133.05V134.715C50.6136 135.892 49.6568 136.851 48.4805 136.851V136.852Z" fill="#91B3FA"/>
<path d="M50.6715 150.331H27.2775C26.4839 150.331 25.7835 149.915 25.4035 149.216C25.0244 148.518 25.0546 147.703 25.4864 147.036C25.6669 146.757 26.04 146.678 26.3181 146.857C26.597 147.037 26.6765 147.41 26.496 147.689C26.3077 147.98 26.2939 148.336 26.4597 148.641C26.6255 148.945 26.9304 149.126 27.2767 149.126H50.6698C51.1827 149.126 51.5998 148.709 51.5998 148.196V146.529C51.5998 146.016 51.1827 145.598 50.6698 145.598H27.1048C26.7723 145.598 26.5029 145.329 26.5029 144.996C26.5029 144.663 26.7723 144.394 27.1048 144.394H50.6715C51.8477 144.394 52.8046 145.351 52.8046 146.528V148.195C52.8046 149.372 51.8477 150.329 50.6715 150.329V150.331Z" fill="#91B3FA"/>
<path d="M71.5645 223.614C70.4867 223.614 69.3968 223.497 68.3104 223.26C63.5546 222.223 59.6823 219.085 57.6873 214.649L38.9974 173.095C38.8609 172.791 38.9957 172.435 39.2988 172.299C39.6019 172.162 39.9577 172.299 40.0942 172.601L58.7841 214.156C60.621 218.24 64.1868 221.13 68.5661 222.084C72.8702 223.024 77.2262 221.909 80.5174 219.026C80.6935 218.872 80.8715 218.713 81.0494 218.551C81.2946 218.327 81.6746 218.343 81.8991 218.589C82.1228 218.834 82.1064 219.216 81.8611 219.439C81.6763 219.608 81.4932 219.772 81.3102 219.932C78.5613 222.339 75.1294 223.614 71.5653 223.614H71.5645Z" fill="#91B3FA"/>
<path d="M36.7823 167.306C36.5526 167.306 36.3341 167.173 36.233 166.951L34.1483 162.315C34.0119 162.012 34.1466 161.656 34.4497 161.519C34.7528 161.383 35.1086 161.519 35.2451 161.821L37.3298 166.456C37.4662 166.76 37.3315 167.116 37.0284 167.252C36.9481 167.288 36.8643 167.305 36.7823 167.305V167.306Z" fill="#91B3FA"/>
<path d="M216.143 119.978C215.83 119.978 215.566 119.736 215.543 119.418C215.128 113.554 213.097 109.183 209.508 106.425C203.3 101.656 194.443 103.294 194.354 103.312C194.026 103.374 193.712 103.161 193.649 102.835C193.586 102.508 193.8 102.192 194.126 102.129C194.509 102.055 203.607 100.374 210.24 105.469C214.114 108.445 216.302 113.11 216.743 119.332C216.766 119.664 216.517 119.952 216.185 119.975C216.17 119.976 216.156 119.977 216.142 119.977L216.143 119.978Z" fill="#91B3FA"/>
<path d="M247.9 159.891L229.975 157.652L232.299 148.523L212.484 142.457L241.572 143.884L237.724 153.31L247.9 159.891Z" fill="url(#paint8_linear_398_11)"/>
<path d="M234.886 212.688L222.81 204.076L228.046 198.389L216.095 186.276L236.55 198.656L230.099 203.963L234.886 212.688Z" fill="url(#paint9_linear_398_11)"/>
<path d="M253 49.3306L238.8 71.6991L231.871 65.9603L218.542 80.6099L231.656 56.0513L238.218 63.2274L253 49.3306Z" fill="url(#paint10_linear_398_11)"/>
<defs>
<linearGradient id="paint0_linear_398_11" x1="262.407" y1="273.464" x2="84.5618" y2="81.657" gradientUnits="userSpaceOnUse">
<stop stop-color="#DAE3FE"/>
<stop offset="1" stop-color="#E9EFFD"/>
</linearGradient>
<linearGradient id="paint1_linear_398_11" x1="114.762" y1="-22.0658" x2="28.1278" y2="117.349" gradientUnits="userSpaceOnUse">
<stop stop-color="#DAE3FE"/>
<stop offset="1" stop-color="#E9EFFD"/>
</linearGradient>
<linearGradient id="paint2_linear_398_11" x1="37.651" y1="133.978" x2="71.7029" y2="233.013" gradientUnits="userSpaceOnUse">
<stop stop-color="#09005D"/>
<stop offset="1" stop-color="#1A0F91"/>
</linearGradient>
<linearGradient id="paint3_linear_398_11" x1="-100.734" y1="273.309" x2="128.874" y2="144.638" gradientUnits="userSpaceOnUse">
<stop stop-color="#E1473D"/>
<stop offset="1" stop-color="#E9605A"/>
</linearGradient>
<linearGradient id="paint4_linear_398_11" x1="405.188" y1="48.8648" x2="302.24" y2="85.2773" gradientUnits="userSpaceOnUse">
<stop stop-color="#FEBBBA"/>
<stop offset="1" stop-color="#FF928E"/>
</linearGradient>
<linearGradient id="paint5_linear_398_11" x1="206.047" y1="121.073" x2="320.2" y2="119.86" gradientUnits="userSpaceOnUse">
<stop stop-color="#E1473D"/>
<stop offset="1" stop-color="#E9605A"/>
</linearGradient>
<linearGradient id="paint6_linear_398_11" x1="234.058" y1="100.626" x2="158.128" y2="144.934" gradientUnits="userSpaceOnUse">
<stop stop-color="#09005D"/>
<stop offset="1" stop-color="#1A0F91"/>
</linearGradient>
<linearGradient id="paint7_linear_398_11" x1="131.737" y1="53.2884" x2="84.9514" y2="93.3587" gradientUnits="userSpaceOnUse">
<stop stop-color="#09005D"/>
<stop offset="1" stop-color="#1A0F91"/>
</linearGradient>
<linearGradient id="paint8_linear_398_11" x1="243.295" y1="154.823" x2="163.383" y2="111.888" gradientUnits="userSpaceOnUse">
<stop stop-color="#E1473D"/>
<stop offset="1" stop-color="#E9605A"/>
</linearGradient>
<linearGradient id="paint9_linear_398_11" x1="225.737" y1="195.361" x2="175.774" y2="119.601" gradientUnits="userSpaceOnUse">
<stop stop-color="#E1473D"/>
<stop offset="1" stop-color="#E9605A"/>
</linearGradient>
<linearGradient id="paint10_linear_398_11" x1="232.765" y1="65.7208" x2="143.072" y2="131.851" gradientUnits="userSpaceOnUse">
<stop stop-color="#E1473D"/>
<stop offset="1" stop-color="#E9605A"/>
</linearGradient>
</defs>
</svg>
