<svg width="379" height="380" viewBox="0 0 379 380" fill="none" xmlns="http://www.w3.org/2000/svg">
<path d="M321.753 329.015C314.432 336.741 307.504 341.725 302.032 345.662C237.699 391.939 161.576 378.45 145.397 375.155C121.507 370.29 75.3273 360.888 41.9409 321.525C-8.5705 261.974 -0.705413 168.153 38.4747 106.22C45.641 94.8918 83.4975 32.0155 160.44 21.9321C207.006 15.8309 261.286 28.1379 300.594 61.1533C383.105 130.457 377.231 270.46 321.754 329.014L321.753 329.015Z" fill="url(#paint0_linear_367_179)"/>
<path d="M302.504 229.604C344.593 187.408 344.593 118.994 302.504 76.798C260.414 34.6018 192.173 34.6018 150.084 76.798C107.994 118.994 107.994 187.408 150.084 229.604C192.173 271.801 260.414 271.801 302.504 229.604Z" fill="#BDD0FB"/>
<path d="M226.294 245.418C277.095 245.418 318.277 204.131 318.277 153.201C318.277 102.271 277.095 60.9844 226.294 60.9844C175.493 60.9844 134.31 102.271 134.31 153.201C134.31 204.131 175.493 245.418 226.294 245.418Z" fill="url(#paint1_linear_367_179)"/>
<path d="M226.294 250.037C173.033 250.037 129.704 206.597 129.704 153.201C129.704 99.8057 173.035 56.3652 226.294 56.3652C279.553 56.3652 322.883 99.8057 322.883 153.201C322.883 206.597 279.553 250.037 226.294 250.037ZM226.294 60.9845C175.573 60.9845 134.31 102.352 134.31 153.201C134.31 204.05 175.573 245.418 226.294 245.418C277.014 245.418 318.277 204.05 318.277 153.201C318.277 102.352 277.014 60.9845 226.294 60.9845Z" fill="white"/>
<path d="M265.947 192.955C287.847 171 287.847 135.403 265.947 113.447C244.047 91.4921 208.54 91.4921 186.64 113.447C164.741 135.403 164.741 171 186.64 192.955C208.54 214.91 244.047 214.91 265.947 192.955Z" fill="url(#paint2_linear_367_179)"/>
<path d="M226.294 214.041C192.832 214.041 165.609 186.748 165.609 153.201C165.609 119.655 192.832 92.3633 226.294 92.3633C259.755 92.3633 286.978 119.655 286.978 153.201C286.978 186.748 259.755 214.041 226.294 214.041ZM226.294 101.602C197.912 101.602 174.823 124.75 174.823 153.203C174.823 181.656 197.912 204.804 226.294 204.804C254.675 204.804 277.764 181.655 277.764 153.203C277.764 124.751 254.675 101.602 226.294 101.602Z" fill="white"/>
<path d="M241.656 168.603C250.141 160.097 250.141 146.306 241.656 137.8C233.172 129.293 219.416 129.293 210.931 137.8C202.446 146.306 202.446 160.097 210.931 168.603C219.416 177.109 233.172 177.109 241.656 168.603Z" fill="url(#paint3_linear_367_179)"/>
<path d="M226.294 179.602C211.773 179.602 199.96 167.758 199.96 153.201C199.96 138.644 211.773 126.801 226.294 126.801C240.814 126.801 252.627 138.644 252.627 153.201C252.627 167.758 240.814 179.602 226.294 179.602ZM226.294 136.039C216.854 136.039 209.175 143.739 209.175 153.203C209.175 162.666 216.855 170.366 226.294 170.366C235.732 170.366 243.413 162.666 243.413 153.203C243.413 143.739 235.733 136.039 226.294 136.039Z" fill="white"/>
<path d="M242.923 134.622L245.679 137.385L350.025 32.7742L347.269 30.0117L242.923 134.622Z" fill="url(#paint4_linear_367_179)"/>
<path d="M244.872 127.958C246.453 126.372 253.906 133.844 252.325 135.43L224.683 157.216C223.662 158.021 222.339 156.694 223.142 155.67L244.872 127.959V127.958Z" fill="url(#paint5_linear_367_179)"/>
<path d="M349.962 32.8359L364 34.2344L344.728 53.555C338.414 59.8853 329.601 63.0425 320.716 62.1565L349.962 32.8359Z" fill="url(#paint6_linear_367_179)"/>
<path d="M347.206 30.0736L345.811 16L326.54 35.3206C320.225 41.6508 317.076 50.4867 317.96 59.3942L347.206 30.0736Z" fill="url(#paint7_linear_367_179)"/>
<path d="M265.583 349.197C261.702 309.948 251.989 212.465 249.869 198.217C247.205 180.309 225.315 184.261 225.315 184.261L220.628 365.483H251.148C255.249 365.483 259.161 363.71 261.91 360.603C264.659 357.495 265.996 353.363 265.583 349.197Z" fill="url(#paint8_linear_367_179)"/>
<path d="M18.6667 370.052C9.13585 369.849 1.57459 361.939 1.77669 352.384L4.88891 205.262C5.06064 197.146 11.5466 190.587 19.6416 190.346L232.632 184.011C238.966 183.823 244.197 188.929 244.178 195.282L243.667 363.968C243.649 369.937 238.75 374.731 232.797 374.605L18.6667 370.052Z" fill="url(#paint9_linear_367_179)"/>
<path d="M4.94043 357.702C1.8903 357.654 -0.412158 354.916 0.0620718 351.896C3.20467 331.863 13.071 262.954 9.90598 205.741C9.76199 203.132 11.7778 200.913 14.3841 200.83L228.333 193.987C231.267 193.893 233.725 196.19 233.836 199.131C234.747 223.185 238.135 322.239 233.702 357.45C233.432 359.593 231.593 361.184 229.439 361.151L4.94043 357.702Z" fill="#91B3FA"/>
<path d="M10.3459 355.449C7.41065 355.404 5.19406 352.768 5.65111 349.861C8.67483 330.583 18.1713 264.269 15.1251 209.21C14.9864 206.699 16.927 204.564 19.4342 204.484L225.327 197.899C228.15 197.809 230.515 200.019 230.622 202.848C231.498 225.996 234.76 321.321 230.493 355.205C230.233 357.267 228.464 358.799 226.391 358.768L10.3472 355.447L10.3459 355.449Z" fill="#BDD0FB"/>
<path opacity="0.72" d="M136.893 239.464L136.578 254.329C136.531 256.598 138.344 258.468 140.609 258.48L155.818 258.566C158.032 258.579 159.847 256.807 159.895 254.588L160.225 238.959C160.275 236.61 158.333 234.708 155.991 234.813L140.766 235.489C138.632 235.585 136.938 237.322 136.891 239.464H136.893Z" fill="white"/>
<path opacity="0.72" d="M83.7168 258.355L98.9265 258.441C101.14 258.453 102.955 256.682 103.003 254.462L103.284 241.17C103.333 238.834 101.414 236.938 99.085 237.022L83.8621 237.571C81.7142 237.647 79.9996 239.391 79.9547 241.546L79.6865 254.204C79.6389 256.473 81.4526 258.343 83.7168 258.355Z" fill="white"/>
<path opacity="0.72" d="M97.0428 324.572L82.5755 324.432C80.1515 324.408 78.1608 326.344 78.1093 328.773L77.8213 342.357C77.7698 344.77 79.6522 346.78 82.0577 346.882L96.5157 347.495C98.9939 347.6 101.073 345.644 101.126 343.158L101.423 329.101C101.475 326.633 99.5064 324.596 97.0428 324.572Z" fill="white"/>
<path opacity="0.72" d="M72.7025 342.031L72.9839 328.751C73.0354 326.323 71.0988 324.322 68.6788 324.298L54.0596 324.156C51.6779 324.134 49.7202 326.036 49.67 328.423L49.3992 341.227C49.349 343.599 51.1997 345.575 53.5629 345.675L68.1729 346.295C70.6088 346.399 72.6523 344.476 72.7038 342.032L72.7025 342.031Z" fill="white"/>
<path opacity="0.72" d="M73.972 282.072L74.2031 271.17C74.2586 268.538 72.1424 266.375 69.5163 266.379L55.5549 266.404C53.012 266.408 50.9381 268.448 50.8853 270.997L50.6647 281.415C50.6105 283.984 52.6276 286.119 55.1903 286.204L69.1411 286.662C71.7448 286.748 73.9178 284.684 73.9733 282.072H73.972Z" fill="white"/>
<path opacity="0.72" d="M73.3009 313.754L73.6536 297.079C73.7038 294.692 71.8293 292.708 69.4476 292.63L55.1705 292.161C52.5669 292.075 50.3939 294.138 50.3384 296.75L49.983 313.567C49.9315 316.011 51.8932 318.02 54.3304 318.02H68.9536C71.3194 318.021 73.252 316.126 73.3022 313.754H73.3009Z" fill="white"/>
<path opacity="0.72" d="M112.161 258.518L127.371 258.604C129.585 258.617 131.4 256.845 131.448 254.625L131.754 240.147C131.804 237.811 129.884 235.914 127.555 235.999L112.332 236.547C110.184 236.624 108.469 238.369 108.424 240.523L108.131 254.367C108.084 256.636 109.897 258.506 112.161 258.518Z" fill="white"/>
<path opacity="0.72" d="M101.749 313.684L102.08 298.088C102.131 295.66 100.224 293.64 97.801 293.561L83.3403 293.086C80.878 293.006 78.8239 294.956 78.7724 297.426L78.4329 313.494C78.38 315.98 80.376 318.023 82.8555 318.023H97.3268C99.7336 318.025 101.699 316.097 101.751 313.684H101.749Z" fill="white"/>
<path opacity="0.72" d="M127.766 266.275L111.157 266.306C109.334 266.309 107.847 267.771 107.809 269.598L107.492 284.595C107.453 286.437 108.9 287.968 110.737 288.029L127.334 288.573C129.202 288.634 130.759 287.155 130.799 285.282L131.128 269.711C131.168 267.824 129.651 266.271 127.767 266.275H127.766Z" fill="white"/>
<path opacity="0.72" d="M136.239 270.391L135.936 284.672C135.887 286.989 137.706 288.913 140.015 288.988L154.89 289.477C157.237 289.554 159.195 287.695 159.245 285.341L159.558 270.543C159.608 268.17 157.701 266.221 155.333 266.225L140.449 266.251C138.157 266.255 136.288 268.093 136.24 270.39L136.239 270.391Z" fill="white"/>
<path opacity="0.72" d="M82.3086 287.094L98.9054 287.639C100.773 287.699 102.331 286.22 102.37 284.348L102.679 269.761C102.719 267.873 101.203 266.322 99.3188 266.326L82.7089 266.357C80.8859 266.361 79.3985 267.823 79.3602 269.65L79.0643 283.662C79.026 285.504 80.4725 287.035 82.3099 287.096L82.3086 287.094Z" fill="white"/>
<path opacity="0.72" d="M126.228 294.494L111.768 294.02C109.305 293.939 107.251 295.89 107.2 298.36L106.88 313.498C106.827 315.984 108.823 318.027 111.303 318.027H125.774C128.181 318.03 130.146 316.1 130.198 313.688L130.508 299.022C130.56 296.593 128.652 294.574 126.23 294.494H126.228Z" fill="white"/>
<path opacity="0.72" d="M155.156 295.441L139.684 294.934C137.504 294.862 135.685 296.589 135.639 298.777L135.317 314.019C135.27 316.22 137.037 318.03 139.233 318.03H154.718C156.85 318.033 158.591 316.323 158.636 314.187L158.948 299.451C158.993 297.3 157.304 295.513 155.159 295.442L155.156 295.441Z" fill="white"/>
<path opacity="0.72" d="M57.4003 258.009L68.9443 258.074C72.0143 258.091 74.5307 255.636 74.5955 252.558L74.7976 243.01C74.8583 240.126 72.4872 237.782 69.6101 237.886L56.7636 238.348C53.8495 238.453 51.522 240.821 51.4599 243.744L51.2908 251.717C51.2182 255.157 53.9684 257.989 57.399 258.008L57.4003 258.009Z" fill="white"/>
<path opacity="0.72" d="M44.5353 328.808C44.5908 326.196 42.5076 324.041 39.9027 324.016L34.8737 323.967C31.0521 323.93 27.9267 326.462 27.8593 329.653L27.6638 338.882C27.5965 342.046 30.5634 344.696 34.3506 344.857L39.7494 345.086C42.1853 345.19 44.2289 343.267 44.2804 340.823L44.534 328.808H44.5353Z" fill="white"/>
<path opacity="0.72" d="M206.235 325.636L196.344 325.539C193.919 325.515 191.926 327.453 191.874 329.884L191.508 347.179C191.457 349.593 193.341 351.606 195.749 351.708L205.594 352.125C209.52 352.292 212.813 349.727 212.882 346.448L213.196 331.617C213.265 328.364 210.133 325.673 206.236 325.635L206.235 325.636Z" fill="white"/>
<path opacity="0.72" d="M35.2727 318.017H40.1814C42.7269 318.017 44.8062 315.978 44.8603 313.426L45.2183 296.475C45.2725 293.905 43.2553 291.77 40.6926 291.686L35.7522 291.524C31.8566 291.396 28.6136 293.953 28.5449 297.204L28.2319 312.035C28.1619 315.314 31.3441 318.017 35.2727 318.017Z" fill="white"/>
<path opacity="0.72" d="M35.6861 285.565L41.8657 285.767C43.8352 285.832 45.4785 284.271 45.5195 282.296L45.7784 270.053C45.8207 268.061 44.2196 266.426 42.2342 266.43L35.9939 266.442C32.2093 266.448 29.1433 268.968 29.076 272.127L28.9175 279.588C28.8501 282.777 31.8646 285.44 35.6848 285.566L35.6861 285.565Z" fill="white"/>
<path opacity="0.72" d="M207.814 232.912L197.897 233.269C195.663 233.35 193.878 235.164 193.832 237.405L193.47 254.488C193.42 256.848 195.307 258.792 197.663 258.805L207.874 258.863C211.682 258.884 214.787 256.356 214.854 253.178L215.156 238.888C215.228 235.51 211.857 232.766 207.813 232.912H207.814Z" fill="white"/>
<path opacity="0.72" d="M125.485 324.85L111.017 324.709C108.593 324.685 106.603 326.622 106.551 329.05L106.245 343.562C106.193 345.975 108.076 347.986 110.481 348.088L124.939 348.701C127.417 348.805 129.496 346.849 129.549 344.363L129.866 329.377C129.918 326.909 127.95 324.872 125.486 324.848L125.485 324.85Z" fill="white"/>
<path opacity="0.72" d="M207.397 266.131L197.346 266.149C195.054 266.153 193.186 267.992 193.137 270.288L192.794 286.539C192.745 288.855 194.564 290.779 196.873 290.855L206.965 291.186C210.861 291.314 214.104 288.757 214.172 285.506L214.455 272.114C214.525 268.83 211.334 266.124 207.398 266.132L207.397 266.131Z" fill="white"/>
<path opacity="0.72" d="M207.031 297.145L196.539 296.801C194.358 296.729 192.54 298.456 192.494 300.643L192.211 314.025C192.165 316.226 193.931 318.037 196.128 318.037H206.67C210.46 318.038 213.537 315.516 213.604 312.353L213.8 303.123C213.867 299.934 210.853 297.271 207.032 297.145H207.031Z" fill="white"/>
<path opacity="0.72" d="M164.066 299.709L163.764 314.021C163.718 316.222 165.484 318.033 167.681 318.033H183.165C185.297 318.034 187.037 316.326 187.083 314.189L187.375 300.383C187.42 298.233 185.732 296.445 183.586 296.375L168.114 295.867C165.934 295.796 164.115 297.523 164.069 299.709H164.066Z" fill="white"/>
<path opacity="0.72" d="M182.363 325.404L167.903 325.264C165.477 325.24 163.484 327.178 163.432 329.609L163.086 345.974C163.035 348.388 164.92 350.401 167.327 350.503L181.777 351.116C184.256 351.222 186.338 349.263 186.391 346.775L186.748 329.937C186.8 327.466 184.828 325.428 182.363 325.404Z" fill="white"/>
<path opacity="0.72" d="M36.4985 257.892L42.5499 257.927C44.4825 257.937 46.0677 256.392 46.1086 254.454L46.3622 242.479C46.4058 240.44 44.7295 238.784 42.6965 238.858L36.2872 239.088C32.6188 239.221 29.7206 241.703 29.6559 244.768L29.5053 251.91C29.4366 255.174 32.5898 257.87 36.4998 257.892H36.4985Z" fill="white"/>
<path opacity="0.72" d="M153.923 325.126L139.705 324.989C137.145 324.963 135.041 327.008 134.986 329.575L134.665 344.766C134.614 347.18 136.499 349.193 138.906 349.295L153.356 349.908C155.835 350.013 157.917 348.054 157.97 345.567L158.307 329.659C158.36 327.188 156.388 325.15 153.923 325.126Z" fill="white"/>
<path opacity="0.72" d="M165.362 238.429L165.025 254.325C164.975 256.685 166.863 258.629 169.218 258.642L184.102 258.727C186.405 258.74 188.293 256.898 188.342 254.588L188.692 238.071C188.744 235.641 186.746 233.669 184.324 233.757L169.428 234.293C167.194 234.374 165.41 236.188 165.364 238.429H165.362Z" fill="white"/>
<path opacity="0.72" d="M164.687 270.339L164.364 285.606C164.315 287.923 166.134 289.847 168.443 289.922L183.317 290.411C185.664 290.488 187.622 288.628 187.671 286.275L188.005 270.493C188.055 268.12 186.148 266.17 183.781 266.176L168.896 266.202C166.604 266.206 164.735 268.044 164.687 270.341V270.339Z" fill="white"/>
<path d="M34.8473 226.209L35.5329 231.243C35.7522 232.855 37.1088 234.068 38.731 234.102L38.9688 234.107C40.7904 234.146 42.2976 232.697 42.3359 230.872L42.4442 225.719C42.4865 223.722 40.7666 222.144 38.7865 222.362L37.7548 222.476C35.9107 222.68 34.5963 224.367 34.8473 226.209Z" fill="white"/>
<path d="M58.1546 224.914L58.8402 229.948C59.0595 231.56 60.4161 232.773 62.0383 232.807L62.276 232.813C64.0977 232.851 65.6049 231.402 65.6432 229.577L65.7529 224.424C65.7951 222.427 64.0752 220.849 62.0951 221.067L61.0634 221.181C59.2193 221.385 57.9049 223.072 58.1559 224.914H58.1546Z" fill="white"/>
<path d="M86.8303 225.309L87.5159 230.343C87.7352 231.954 89.0918 233.167 90.714 233.202L90.9518 233.207C92.7734 233.246 94.2806 231.797 94.3189 229.972L94.4286 224.819C94.4709 222.822 92.7509 221.243 90.7695 221.462L89.7378 221.576C87.8937 221.78 86.5793 223.467 86.8303 225.309Z" fill="white"/>
<path d="M114.768 224.055L115.453 229.089C115.673 230.7 117.029 231.913 118.651 231.948L118.889 231.953C120.711 231.992 122.218 230.543 122.256 228.718L122.366 223.565C122.408 221.568 120.688 219.989 118.708 220.208L117.676 220.322C115.832 220.526 114.518 222.213 114.769 224.056L114.768 224.055Z" fill="white"/>
<path d="M143.463 220.397L144.149 225.43C144.368 227.042 145.725 228.255 147.347 228.29L147.585 228.295C149.406 228.333 150.913 226.885 150.952 225.06L151.061 219.907C151.104 217.91 149.384 216.331 147.402 216.55L146.371 216.663C144.527 216.867 143.212 218.555 143.463 220.397Z" fill="white"/>
<path d="M173.863 221.043L174.548 226.077C174.768 227.689 176.124 228.902 177.746 228.936L177.984 228.941C179.806 228.98 181.313 227.531 181.351 225.706L181.461 220.553C181.503 218.556 179.783 216.978 177.803 217.196L176.772 217.31C174.927 217.514 173.613 219.201 173.864 221.043H173.863Z" fill="white"/>
<path d="M199.52 220.504L200.206 225.538C200.425 227.15 201.782 228.363 203.404 228.397L203.642 228.402C205.463 228.441 206.97 226.992 207.009 225.167L207.118 220.014C207.161 218.017 205.441 216.438 203.459 216.657L202.428 216.771C200.583 216.975 199.269 218.662 199.52 220.504Z" fill="white"/>
<path d="M189.778 219.118C189.714 218.03 188.581 217.565 187.746 218.223C185.388 220.085 184.429 222.978 183.267 225.675C181.913 228.819 180.614 231.987 179.461 235.212C178.246 238.61 177.209 242.07 176.42 245.584C174.855 241.387 173.036 237.3 170.729 233.421C170.116 232.391 168.387 232.993 168.731 234.217C170.725 241.326 173.18 248.291 175.06 255.437C175.723 257.958 179.163 257.362 179.419 254.939C180.118 248.321 181.712 241.991 183.975 235.741C185.05 232.77 186.251 229.845 187.495 226.941C188.597 224.371 189.944 221.974 189.778 219.117V219.118Z" fill="url(#paint10_linear_367_179)"/>
<path d="M193.017 224.392C190.965 224.007 190.219 226.639 192.1 227.47C204.548 232.96 206.176 248.433 197.183 257.801C193.024 262.134 187.504 265.496 182.28 268.387C176.98 271.32 171.064 273.56 164.913 272.94C150.656 271.505 148.718 256.957 152.981 245.732C157.08 234.935 165.86 226.601 176.61 222.606C177.999 222.089 177.461 219.823 176.037 220.334C165.951 223.96 157.366 231.113 152.05 240.473C147.158 249.083 144.223 261.228 150.627 269.871C157.253 278.814 169.83 278.974 179.305 275.246C189.729 271.145 202.706 263.536 206.857 252.496C211.204 240.929 205.838 226.797 193.018 224.392H193.017Z" fill="url(#paint11_linear_367_179)"/>
<path d="M244.178 362.69C243.882 362.69 243.641 362.45 243.638 362.152L242.981 267.169C242.979 266.869 243.219 266.626 243.518 266.623H243.522C243.818 266.623 244.059 266.863 244.062 267.161L244.719 362.144C244.721 362.443 244.481 362.687 244.182 362.69H244.178Z" fill="#91B3FA"/>
<path d="M243.371 245.897C243.075 245.897 242.834 245.657 242.831 245.359L242.601 212.186C242.598 211.887 242.839 211.643 243.137 211.641H243.141C243.437 211.641 243.679 211.88 243.682 212.178L243.91 245.351C243.913 245.651 243.672 245.894 243.374 245.897C243.374 245.897 243.371 245.897 243.37 245.897H243.371Z" fill="#91B3FA"/>
<path d="M44.6714 216.352C46.9258 214.092 46.9258 210.428 44.6714 208.168C42.4171 205.907 38.762 205.907 36.5077 208.168C34.2533 210.428 34.2533 214.092 36.5076 216.352C38.762 218.612 42.4171 218.612 44.6714 216.352Z" fill="#91B3FA"/>
<path d="M91.9704 215.907C94.2247 213.647 94.2247 209.982 91.9704 207.722C89.716 205.462 86.061 205.462 83.8066 207.722C81.5522 209.982 81.5522 213.647 83.8066 215.907C86.0609 218.167 89.716 218.167 91.9704 215.907Z" fill="#91B3FA"/>
<path d="M140.964 212.469C142.184 209.516 140.785 206.131 137.84 204.908C134.894 203.685 131.517 205.087 130.297 208.04C129.077 210.993 130.476 214.378 133.421 215.601C136.367 216.825 139.744 215.422 140.964 212.469Z" fill="#91B3FA"/>
<path d="M188.541 209.349C189.274 206.238 187.352 203.121 184.249 202.387C181.146 201.652 178.037 203.579 177.305 206.69C176.572 209.8 178.494 212.917 181.597 213.652C184.7 214.386 187.809 212.459 188.541 209.349Z" fill="#91B3FA"/>
<path d="M187.32 167.927C177.605 170.051 178.522 195.674 179.304 206.075C179.487 208.522 181.522 210.411 183.97 210.411C184.65 210.411 185.297 210.117 185.752 209.61C186.206 209.102 186.423 208.424 186.35 207.746C185.511 199.884 183.725 177.243 190.877 176.033C190.877 176.033 196.006 175.123 196.87 185.085H202.42C202.42 185.085 199.533 165.254 187.32 167.925V167.927Z" fill="#7D97F4"/>
<path d="M140.021 169.244C130.306 171.368 131.223 197 132.005 207.402C132.189 209.849 134.223 211.743 136.671 211.743C137.351 211.743 137.998 211.451 138.453 210.944C138.907 210.437 139.124 209.76 139.051 209.082C138.212 201.22 136.426 178.56 143.578 177.35C143.578 177.35 148.707 176.639 149.571 186.385H155.121C155.121 186.385 152.234 166.573 140.021 169.244Z" fill="#7D97F4"/>
<path d="M92.7232 170.568C83.0088 172.692 83.9255 198.33 84.7075 208.733C84.8911 211.18 86.9255 213.076 89.3732 213.076C90.0535 213.076 90.7008 212.786 91.1552 212.279C91.6096 211.772 91.8263 211.095 91.7536 210.417C90.9148 202.555 89.1288 179.885 96.2806 178.674C96.2806 178.674 101.409 178.096 102.271 187.89L107.823 187.697C107.823 187.697 104.937 167.897 92.7232 170.568Z" fill="#7D97F4"/>
<path d="M45.4244 172.098C35.7099 174.222 36.6267 199.873 37.4087 210.276C37.5923 212.723 39.6266 214.626 42.0744 214.626C42.7547 214.626 43.402 214.34 43.8564 213.833C44.3108 213.326 44.5274 212.65 44.4548 211.973C43.616 204.111 41.83 181.415 48.9817 180.203C48.9817 180.203 54.1111 179.453 54.975 189.199H60.5244C60.5244 189.199 57.6381 169.426 45.4244 172.098Z" fill="#7D97F4"/>
<path d="M72.2705 79.8875C72.2705 105.519 93.78 126.297 120.314 126.297C146.849 126.297 169.546 104.61 169.546 78.979C169.546 53.3481 146.848 33.4766 120.314 33.4766C93.7813 33.4766 72.2705 54.2552 72.2705 79.8862V79.8875Z" fill="url(#paint12_linear_367_179)"/>
<path d="M165.773 68.6052C165.802 68.6052 165.83 68.6025 165.859 68.5946C166.036 68.5482 166.142 68.3734 166.094 68.2026C165.578 66.3273 164.917 64.4666 164.131 62.6735C164.06 62.5106 163.864 62.4365 163.697 62.5027C163.527 62.5715 163.45 62.7596 163.521 62.9238C164.295 64.6891 164.945 66.5207 165.453 68.3681C165.493 68.5111 165.628 68.6065 165.774 68.6065L165.773 68.6052Z" fill="#BDD0FB"/>
<path d="M158.432 54.1003C158.501 54.1003 158.572 54.0791 158.632 54.0354C158.779 53.9294 158.808 53.7268 158.697 53.5864C149.796 42.184 135.458 35.377 120.342 35.377C113.887 35.377 107.644 36.6417 101.785 39.1341C101.617 39.2056 101.542 39.395 101.615 39.5565C101.689 39.7181 101.884 39.7923 102.052 39.7207C107.825 37.2628 113.979 36.0179 120.341 36.0179C135.249 36.0179 149.388 42.7296 158.166 53.9718C158.232 54.0552 158.331 54.0989 158.431 54.0989L158.432 54.1003Z" fill="#BDD0FB"/>
<path d="M78.8067 79.8889C78.8067 102.075 97.4259 120.062 120.394 120.062C143.361 120.062 163.01 101.29 163.01 79.1035C163.01 56.9171 143.361 39.7168 120.394 39.7168C97.4259 39.7168 78.8067 57.7025 78.8067 79.8902V79.8889Z" fill="#7D97F4"/>
<path d="M78.8067 79.8882C78.8067 57.7018 97.4259 39.7148 120.394 39.7148C132.831 39.7148 144.293 44.7605 152.19 52.9078L120.155 78.6566L113.569 119.519C93.8487 116.373 78.808 99.8286 78.808 79.8869L78.8067 79.8882Z" fill="#91B3FA"/>
<path opacity="0.78" d="M152.381 77.8037C152.484 79.5094 153.998 80.8112 155.764 80.7119C157.529 80.6126 158.878 79.1492 158.775 77.4448C158.672 75.7391 157.158 74.4373 155.392 74.5366C153.627 74.6359 152.278 76.0993 152.381 77.8037Z" fill="white"/>
<path opacity="0.78" d="M83.2095 81.6924C83.3126 83.3981 84.8264 84.6999 86.5912 84.6006C88.3561 84.5013 89.7048 83.0379 89.6017 81.3335C89.4987 79.6277 87.9849 78.3259 86.2187 78.4252C84.4539 78.5246 83.1052 79.9866 83.2082 81.6924H83.2095Z" fill="white"/>
<path opacity="0.78" d="M126.642 109.447C124.902 109.755 123.75 111.365 124.067 113.046C124.386 114.726 126.053 115.84 127.792 115.533C129.532 115.225 130.684 113.615 130.367 111.935C130.049 110.254 128.382 109.14 126.642 109.447Z" fill="white"/>
<path opacity="0.78" d="M114.192 43.6037C112.452 43.9109 111.3 45.5213 111.617 47.2019C111.935 48.8825 113.603 49.9962 115.342 49.689C117.082 49.3817 118.234 47.7713 117.917 46.0908C117.598 44.4102 115.931 43.2964 114.192 43.6037Z" fill="white"/>
<path opacity="0.78" d="M103.879 111.217C103.554 112.01 103.634 112.752 104.06 112.875C104.485 112.998 105.094 112.455 105.419 111.662C105.744 110.869 105.663 110.126 105.238 110.004C104.813 109.881 104.204 110.424 103.879 111.217Z" fill="white"/>
<path opacity="0.78" d="M131.706 48.7637C131.382 49.557 131.462 50.2986 131.887 50.4218C132.313 50.5449 132.922 50.0019 133.248 49.2087C133.573 48.4154 133.492 47.6725 133.067 47.5506C132.642 47.4275 132.033 47.9704 131.708 48.7637H131.706Z" fill="white"/>
<path opacity="0.78" d="M89.3494 99.3438C88.6453 99.8589 88.3151 100.534 88.6136 100.852C88.9109 101.171 89.7233 101.012 90.4287 100.497C91.1327 99.9821 91.463 99.3067 91.1644 98.9889C90.8672 98.6697 90.0548 98.8286 89.3507 99.3438H89.3494Z" fill="white"/>
<path opacity="0.78" d="M146.701 59.9258C145.997 60.441 145.667 61.1164 145.965 61.4342C146.262 61.7534 147.075 61.5945 147.779 61.0793C148.483 60.5641 148.813 59.8887 148.515 59.5709C148.217 59.2517 147.405 59.4107 146.701 59.9258Z" fill="white"/>
<path opacity="0.78" d="M87.5251 63.9839C86.7273 63.617 85.9558 63.6462 85.8 64.0474C85.6441 64.45 86.1645 65.0725 86.9624 65.4393C87.7603 65.8061 88.5317 65.777 88.6876 65.3757C88.8435 64.9731 88.323 64.3507 87.5251 63.9839Z" fill="white"/>
<path opacity="0.78" d="M150.167 94.9858C149.369 94.619 148.598 94.6481 148.442 95.0494C148.286 95.452 148.807 96.0744 149.604 96.4413C150.401 96.8081 151.174 96.779 151.33 96.3777C151.485 95.9751 150.965 95.3527 150.167 94.9858Z" fill="white"/>
<path opacity="0.78" d="M100.76 50.7728C100.275 50.059 99.6002 49.6961 99.2514 49.9623C98.9027 50.2285 99.0123 51.0218 99.4958 51.7343C99.9806 52.4481 100.656 52.8109 101.004 52.5448C101.353 52.2786 101.243 51.4853 100.76 50.7728Z" fill="white"/>
<path opacity="0.78" d="M137.632 108.689C137.148 107.975 136.473 107.612 136.124 107.878C135.775 108.143 135.885 108.938 136.368 109.65C136.853 110.364 137.528 110.727 137.877 110.461C138.226 110.195 138.116 109.401 137.632 108.689Z" fill="white"/>
<path d="M120.478 77.4442L158.764 97.8772C171.684 67.7144 153.419 41.9152 120.942 38.7461L120.478 77.4442Z" fill="#BDD0FB"/>
<path d="M121.69 78.6433L147.41 91.035C147.908 91.2747 148.492 90.9145 148.475 90.3768L148.375 87.1786C148.355 86.5562 149.113 86.2118 149.596 86.6237L168.193 102.44C168.762 102.923 168.294 103.823 167.552 103.669L143.601 98.728C143.027 98.6102 142.82 97.9228 143.237 97.5255L146.042 94.8544C146.388 94.5246 146.314 93.9658 145.892 93.7314L120.995 79.8948C120.649 79.7028 120.524 79.2777 120.716 78.9373C120.906 78.6009 121.337 78.4712 121.691 78.6407L121.69 78.6433Z" fill="url(#paint13_linear_367_179)"/>
<path opacity="0.71" d="M165.3 102.366C165.539 102.366 165.756 102.237 165.864 102.02C165.995 101.761 165.928 101.463 165.698 101.279L161.628 98.0286C161.487 97.916 161.278 97.9359 161.162 98.0723C161.044 98.2087 161.065 98.41 161.206 98.5239L165.276 101.774C159.854 100.578 147.154 97.9041 146.891 97.879C146.713 97.8591 146.546 97.9889 146.528 98.165C146.509 98.3385 146.639 98.4948 146.817 98.516C147.198 98.5742 156.931 100.618 165.162 102.353C165.209 102.363 165.255 102.367 165.302 102.367L165.3 102.366Z" fill="white"/>
<path d="M119.007 77.4221L119.058 53.1287C119.05 52.591 118.45 52.256 117.964 52.5182L115.071 54.0756C114.509 54.3789 113.843 53.8862 113.999 53.2823L119.983 30.055C120.166 29.3452 121.207 29.3319 121.407 30.0391L127.884 52.8559C128.038 53.4015 127.503 53.8955 126.946 53.7207L123.201 52.5447C122.738 52.399 122.259 52.7195 122.238 53.1896L120.48 77.442C120.462 77.8287 120.128 78.1293 119.728 78.1214C119.332 78.1134 119.013 77.8036 119.007 77.4208V77.4221Z" fill="url(#paint14_linear_367_179)"/>
<path opacity="0.71" d="M125.894 50.6299C125.935 50.6299 125.976 50.6233 126.016 50.6074C126.185 50.5438 126.268 50.3611 126.206 50.1982C126.086 49.8459 123.486 40.5584 121.293 32.6986C121.215 32.4204 120.971 32.2377 120.664 32.2443C120.366 32.2523 120.123 32.4469 120.059 32.729L118.945 37.7151C118.906 37.8873 119.02 38.0594 119.199 38.0952C119.376 38.1336 119.555 38.0237 119.593 37.8502L120.708 32.8641C122.103 38.066 125.489 50.1863 125.585 50.4246C125.637 50.5505 125.761 50.6286 125.894 50.6286V50.6299Z" fill="white"/>
<path d="M120.609 82.0276C122.498 82.0276 124.029 80.5489 124.029 78.7247C124.029 76.9006 122.498 75.4219 120.609 75.4219C118.72 75.4219 117.189 76.9006 117.189 78.7247C117.189 80.5489 118.72 82.0276 120.609 82.0276Z" fill="url(#paint15_linear_367_179)"/>
<g opacity="0.3">
<path d="M284.567 253.188C284.838 252.564 285.562 252.28 286.183 252.551C287.39 253.078 288.638 253.56 289.893 253.985C290.529 254.2 290.872 254.885 290.671 255.522C290.669 255.529 290.666 255.536 290.665 255.544C290.448 256.188 289.752 256.533 289.109 256.316C287.788 255.87 286.473 255.361 285.202 254.806C284.621 254.553 284.335 253.902 284.522 253.309C284.535 253.268 284.55 253.226 284.567 253.187V253.188ZM296.142 255.63C297.441 255.879 298.765 256.074 300.075 256.211C300.749 256.282 301.239 256.887 301.169 257.562C301.096 258.24 300.495 258.729 299.82 258.659C298.441 258.516 297.049 258.309 295.682 258.048C295.016 257.921 294.579 257.276 294.706 256.609C294.715 256.56 294.727 256.513 294.741 256.467C294.926 255.88 295.523 255.512 296.142 255.63ZM306.528 256.431C307.848 256.384 309.181 256.278 310.491 256.117C311.164 256.035 311.777 256.515 311.858 257.189C311.94 257.863 311.462 258.477 310.79 258.56C309.409 258.729 308.005 258.84 306.617 258.891C305.939 258.914 305.371 258.383 305.346 257.705C305.341 257.561 305.361 257.421 305.402 257.289C305.553 256.807 305.996 256.45 306.528 256.431ZM316.832 254.883C318.108 254.542 319.385 254.139 320.627 253.689C321.265 253.458 321.969 253.788 322.199 254.428C322.429 255.067 322.099 255.772 321.462 256.004C320.154 256.478 318.811 256.9 317.467 257.26C316.812 257.437 316.14 257.046 315.964 256.389C315.902 256.155 315.911 255.916 315.979 255.7C316.101 255.312 316.412 254.994 316.832 254.882V254.883ZM326.534 251.072C327.701 250.456 328.857 249.781 329.972 249.064C330.542 248.697 331.302 248.864 331.668 249.436C332.034 250.008 331.867 250.77 331.297 251.137C330.125 251.889 328.908 252.6 327.681 253.249C327.081 253.565 326.339 253.336 326.023 252.734C325.863 252.431 325.844 252.092 325.939 251.788C326.033 251.49 326.239 251.228 326.537 251.07L326.534 251.072ZM335.155 245.204C336.158 244.343 337.137 243.428 338.063 242.485C338.538 242 339.316 241.995 339.798 242.472C340.282 242.948 340.288 243.727 339.812 244.212C338.837 245.205 337.806 246.168 336.751 247.074C336.236 247.516 335.462 247.455 335.02 246.94C334.734 246.605 334.658 246.16 334.783 245.767C334.85 245.555 334.974 245.359 335.154 245.204H335.155ZM352.157 202.8C352.83 202.718 353.443 203.199 353.523 203.874C353.69 205.257 353.798 206.665 353.846 208.06C353.868 208.74 353.338 209.309 352.661 209.332C351.983 209.356 351.415 208.823 351.393 208.144C351.348 206.819 351.245 205.482 351.086 204.169C351.065 203.989 351.082 203.815 351.134 203.652C351.275 203.205 351.663 202.86 352.157 202.8ZM342.258 237.57C343.044 236.508 343.794 235.398 344.487 234.273C344.843 233.694 345.599 233.514 346.176 233.871C346.753 234.228 346.93 234.985 346.576 235.565C345.847 236.751 345.057 237.92 344.229 239.039C343.825 239.585 343.056 239.698 342.512 239.293C342.08 238.971 341.919 238.421 342.072 237.933C342.111 237.806 342.174 237.684 342.257 237.572L342.258 237.57ZM352.51 213.521C353.184 213.592 353.673 214.199 353.601 214.874C353.455 216.258 353.246 217.655 352.983 219.024C352.858 219.693 352.21 220.129 351.546 220C350.88 219.872 350.444 219.227 350.572 218.56C350.822 217.258 351.02 215.931 351.159 214.616C351.168 214.532 351.185 214.452 351.209 214.373C351.381 213.826 351.918 213.46 352.509 213.522L352.51 213.521ZM347.481 228.538C348.01 227.327 348.494 226.076 348.918 224.822C349.136 224.179 349.834 223.834 350.476 224.053C351.11 224.269 351.452 224.952 351.251 225.589C351.249 225.597 351.246 225.606 351.243 225.614C350.797 226.935 350.287 228.251 349.731 229.526C349.459 230.149 348.735 230.432 348.114 230.161C347.534 229.906 347.249 229.256 347.435 228.664C347.448 228.623 347.464 228.581 347.481 228.541V228.538Z" fill="#91B3FA"/>
<path d="M349.332 195.199C349.259 195.43 349.253 195.685 349.331 195.934C349.518 196.541 349.696 197.161 349.862 197.776C350.036 198.433 350.71 198.824 351.364 198.648C352.019 198.473 352.408 197.798 352.233 197.141C352.06 196.492 351.872 195.84 351.675 195.202C351.474 194.553 350.786 194.19 350.139 194.391C349.74 194.516 349.449 194.826 349.332 195.197V195.199Z" fill="#91B3FA"/>
</g>
<g opacity="0.3">
<path d="M325.149 166.564C324.97 167.131 325.223 167.758 325.768 168.034C326.334 168.318 326.903 168.619 327.46 168.929C328.054 169.259 328.801 169.044 329.129 168.45C329.459 167.852 329.244 167.105 328.651 166.777C328.064 166.451 327.464 166.133 326.87 165.834C326.264 165.529 325.527 165.774 325.223 166.382C325.192 166.442 325.169 166.503 325.149 166.565V166.564Z" fill="#91B3FA"/>
<path d="M258.883 192.594C259.119 191.957 259.825 191.632 260.462 191.869C261.097 192.106 261.421 192.813 261.186 193.451C260.737 194.664 260.332 195.916 259.978 197.184C259.799 197.836 259.119 198.221 258.466 198.039C257.813 197.856 257.432 197.176 257.614 196.522C257.767 195.973 257.93 195.427 258.099 194.888C258.342 194.117 258.606 193.347 258.883 192.596V192.594ZM257.636 202.037C258.307 202.129 258.778 202.751 258.684 203.423C258.507 204.716 258.381 206.03 258.313 207.329C258.278 208.007 257.698 208.529 257.022 208.493C256.346 208.457 255.825 207.877 255.862 207.199C255.935 205.831 256.066 204.448 256.253 203.087C256.263 203.017 256.278 202.948 256.3 202.883C256.477 202.322 257.035 201.953 257.638 202.037H257.636ZM261.635 186.481C262.281 185.275 262.986 184.079 263.734 182.928C264.104 182.359 264.865 182.197 265.433 182.568C266.001 182.939 266.161 183.7 265.792 184.271C265.083 185.364 264.412 186.498 263.799 187.644C263.478 188.243 262.734 188.468 262.137 188.147C261.609 187.863 261.372 187.247 261.546 186.693C261.569 186.622 261.599 186.55 261.635 186.481ZM257.086 212.577C257.761 212.52 258.355 213.022 258.412 213.7C258.521 214.998 258.688 216.308 258.906 217.591C259.021 218.261 258.57 218.897 257.902 219.011C257.233 219.125 256.599 218.674 256.486 218.004C256.256 216.652 256.08 215.273 255.965 213.907C255.952 213.741 255.971 213.581 256.017 213.433C256.162 212.972 256.574 212.621 257.084 212.577H257.086ZM267.756 177.576C268.651 176.542 269.602 175.533 270.582 174.574C271.068 174.1 271.845 174.109 272.318 174.597C272.791 175.084 272.781 175.863 272.295 176.337C271.364 177.247 270.46 178.207 269.611 179.188C269.167 179.702 268.392 179.758 267.879 179.311C267.497 178.979 267.369 178.464 267.513 178.01C267.562 177.855 267.643 177.706 267.756 177.575V177.576ZM275.678 170.233C276.779 169.419 277.927 168.64 279.089 167.921C279.666 167.565 280.422 167.743 280.779 168.322C281.135 168.901 280.956 169.66 280.378 170.016C279.274 170.699 278.183 171.438 277.137 172.213C276.591 172.617 275.822 172.5 275.419 171.955C275.176 171.625 275.122 171.214 275.237 170.852C275.312 170.612 275.462 170.395 275.678 170.233ZM285.008 164.795C286.261 164.239 287.55 163.731 288.84 163.283C289.481 163.061 290.18 163.401 290.402 164.043C290.624 164.687 290.284 165.386 289.644 165.609C288.416 166.034 287.192 166.517 286.002 167.045C285.382 167.321 284.657 167.04 284.382 166.418C284.255 166.132 284.247 165.824 284.333 165.549C284.436 165.225 284.671 164.942 285.007 164.794L285.008 164.795ZM295.299 161.527C296.642 161.259 298.012 161.046 299.37 160.893C300.044 160.817 300.651 161.303 300.727 161.979C300.802 162.653 300.317 163.263 299.643 163.339C298.353 163.484 297.053 163.687 295.777 163.941C295.112 164.074 294.466 163.641 294.333 162.974C294.291 162.764 294.305 162.556 294.366 162.364C294.497 161.949 294.843 161.618 295.297 161.527H295.299ZM306.059 160.605C307.425 160.641 308.807 160.735 310.168 160.886C310.841 160.96 311.327 161.569 311.253 162.245C311.179 162.918 310.572 163.408 309.898 163.332C308.606 163.189 307.293 163.099 305.996 163.065C305.318 163.047 304.783 162.482 304.8 161.802C304.803 161.685 304.823 161.571 304.857 161.462C305.018 160.952 305.501 160.589 306.061 160.604L306.059 160.605ZM316.749 162.074C317.725 162.319 318.706 162.597 319.664 162.9C320.012 163.01 320.355 163.124 320.698 163.241C321.34 163.459 321.698 164.154 321.465 164.802C321.247 165.446 320.549 165.79 319.907 165.57C319.582 165.459 319.253 165.35 318.924 165.247C318.014 164.958 317.082 164.693 316.153 164.46C315.495 164.295 315.096 163.627 315.26 162.968C315.267 162.943 315.273 162.919 315.281 162.895C315.475 162.279 316.116 161.915 316.749 162.074Z" fill="#91B3FA"/>
<path d="M258.071 223.813C257.997 224.046 257.992 224.303 258.071 224.554C258.272 225.19 258.488 225.832 258.718 226.465C258.949 227.105 259.654 227.435 260.29 227.203C260.928 226.971 261.257 226.267 261.026 225.627C260.809 225.026 260.602 224.415 260.412 223.811C260.208 223.164 259.517 222.804 258.872 223.009C258.475 223.135 258.187 223.443 258.071 223.813Z" fill="#91B3FA"/>
</g>
<path d="M276.736 233.558C276.871 233.764 277.119 233.86 277.357 233.801L284.127 232.082C286.489 234.336 289.228 236.228 292.27 237.648L293.152 244.589C293.182 244.832 293.365 245.028 293.604 245.079L301.805 246.791C302.044 246.841 302.289 246.733 302.415 246.522L305.987 240.513C309.342 240.429 312.606 239.789 315.669 238.669L321.191 242.955C321.385 243.104 321.652 243.115 321.857 242.981L328.863 238.379C329.068 238.244 329.166 237.995 329.105 237.757L327.39 230.969C329.639 228.602 331.526 225.856 332.943 222.806L339.866 221.922C340.109 221.891 340.306 221.708 340.355 221.469L342.063 213.247C342.113 213.008 342.004 212.761 341.794 212.635L335.8 209.055C335.717 205.691 335.079 202.418 333.961 199.347L338.236 193.812C338.385 193.617 338.396 193.349 338.262 193.144L333.672 186.12C333.537 185.915 333.289 185.818 333.051 185.877L326.281 187.596C323.919 185.342 321.181 183.45 318.138 182.03L317.256 175.09C317.226 174.846 317.043 174.649 316.804 174.6L308.604 172.887C308.364 172.837 308.119 172.945 307.993 173.156L304.421 179.166C301.066 179.249 297.802 179.889 294.739 181.009L289.217 176.724C289.024 176.574 288.756 176.564 288.551 176.697L281.545 181.299C281.34 181.434 281.244 181.683 281.303 181.922L283.018 188.709C280.769 191.077 278.882 193.822 277.466 196.872L270.542 197.757C270.299 197.787 270.104 197.97 270.054 198.21L268.346 206.431C268.295 206.671 268.404 206.917 268.614 207.043L274.608 210.624C274.692 213.988 275.33 217.26 276.447 220.331L272.172 225.867C272.023 226.061 272.013 226.329 272.146 226.534L276.736 233.558Z" fill="#91B3FA"/>
<path d="M297.632 206.149C299.662 201.964 304.709 200.214 308.885 202.25C310.907 203.235 312.426 204.953 313.161 207.083C313.895 209.214 313.759 211.504 312.775 213.532C310.745 217.717 305.696 219.466 301.522 217.43C297.724 215.579 295.937 211.223 297.174 207.299C297.297 206.91 297.449 206.526 297.633 206.149H297.632ZM311.305 207.726C310.742 206.092 309.577 204.777 308.026 204.02C304.826 202.46 300.954 203.801 299.398 207.011C297.839 210.221 299.178 214.101 302.38 215.661C305.581 217.221 309.453 215.881 311.009 212.671C311.15 212.379 311.268 212.081 311.364 211.78C311.779 210.464 311.763 209.054 311.305 207.727V207.726Z" fill="#BDD0FB"/>
<path d="M285.63 203.457C285.418 204.131 285.238 204.82 285.093 205.52C285.047 205.742 285.004 205.963 284.966 206.185C284.774 207.28 284.671 208.389 284.656 209.495C284.656 209.509 284.656 209.525 284.656 209.54C284.656 209.582 284.656 209.626 284.656 209.668C284.656 209.752 284.656 209.835 284.656 209.919C284.657 210.137 284.801 210.321 284.998 210.385C285.045 210.399 285.097 210.409 285.15 210.407C285.42 210.406 285.638 210.183 285.637 209.912C285.628 208.513 285.768 207.103 286.056 205.723C287.48 198.864 292.311 193.575 298.406 191.26C301.795 189.972 305.577 189.605 309.383 190.399C310.05 190.538 310.705 190.711 311.346 190.914C315.66 192.283 319.343 195.074 321.856 198.919C324.743 203.335 325.741 208.615 324.667 213.786C322.447 224.462 311.984 231.332 301.34 229.109C300.683 228.973 300.036 228.802 299.402 228.601C296.65 227.728 294.119 226.261 291.996 224.297C291.941 224.246 291.879 224.211 291.811 224.189C291.636 224.134 291.436 224.18 291.303 224.325C291.119 224.525 291.131 224.836 291.33 225.02C293.559 227.082 296.215 228.622 299.104 229.54C299.772 229.752 300.45 229.929 301.139 230.073C312.314 232.407 323.301 225.187 325.628 213.987C326.756 208.56 325.708 203.017 322.677 198.38C320.039 194.343 316.173 191.412 311.644 189.976C310.972 189.762 310.284 189.582 309.584 189.435C304.17 188.304 298.641 189.356 294.016 192.394C289.988 195.04 287.066 198.917 285.633 203.458L285.63 203.457Z" fill="#BDD0FB"/>
<g opacity="0.3">
<path d="M241.046 283.575C240.947 283.889 241.061 284.243 241.346 284.435C241.88 284.795 242.433 285.143 242.988 285.471C243.349 285.685 243.814 285.564 244.026 285.201C244.24 284.84 244.118 284.374 243.757 284.16C243.229 283.848 242.701 283.515 242.192 283.172C241.844 282.938 241.374 283.031 241.139 283.379C241.098 283.441 241.066 283.506 241.045 283.575H241.046Z" fill="#91B3FA"/>
<path d="M246.191 286.304C246.358 285.918 246.804 285.741 247.189 285.908C248.158 286.328 249.162 286.704 250.169 287.023C250.382 287.091 250.596 287.155 250.811 287.219C251.212 287.337 251.442 287.759 251.325 288.162C251.198 288.538 250.786 288.795 250.383 288.677C250.157 288.611 249.934 288.542 249.712 288.472C248.656 288.137 247.604 287.743 246.586 287.302C246.226 287.146 246.049 286.744 246.164 286.377C246.172 286.353 246.181 286.328 246.19 286.304H246.191ZM254.565 288.077C255.829 288.286 257.119 288.419 258.395 288.47C258.813 288.488 259.138 288.841 259.121 289.261C259.104 289.678 258.751 290.007 258.333 289.989C256.994 289.935 255.643 289.796 254.318 289.578C253.905 289.509 253.625 289.118 253.693 288.704C253.7 288.668 253.708 288.632 253.72 288.598C253.832 288.243 254.189 288.016 254.565 288.078V288.077ZM262.244 288.386C263.519 288.278 264.8 288.089 266.054 287.823C266.463 287.737 266.866 287.999 266.952 288.41C267.039 288.821 266.778 289.224 266.367 289.31C265.052 289.588 263.708 289.787 262.372 289.901C261.955 289.936 261.587 289.625 261.553 289.207C261.545 289.105 261.557 289.005 261.586 288.914C261.676 288.629 261.93 288.412 262.245 288.386H262.244ZM269.764 286.793C270.976 286.374 272.172 285.876 273.319 285.313C273.695 285.129 274.15 285.284 274.334 285.662C274.517 286.038 274.363 286.493 273.986 286.679C272.783 287.269 271.528 287.791 270.257 288.231C269.861 288.367 269.429 288.157 269.293 287.759C269.239 287.599 269.24 287.434 269.286 287.284C269.356 287.061 269.526 286.875 269.762 286.794L269.764 286.793ZM276.669 283.408C277.742 282.707 278.781 281.932 279.76 281.107C280.08 280.837 280.558 280.878 280.829 281.199C281.1 281.519 281.059 282 280.738 282.27C279.713 283.136 278.623 283.947 277.499 284.682C277.147 284.911 276.678 284.811 276.45 284.46C276.32 284.262 276.296 284.025 276.363 283.815C276.414 283.654 276.518 283.508 276.672 283.408H276.669ZM282.545 278.444C283.414 277.504 284.234 276.5 284.979 275.459C285.224 275.119 285.698 275.04 286.037 275.285C286.377 275.53 286.455 276.005 286.21 276.346C285.428 277.436 284.568 278.49 283.657 279.477C283.372 279.784 282.892 279.803 282.586 279.518C282.364 279.311 282.292 279.003 282.378 278.731C282.411 278.628 282.467 278.529 282.545 278.444ZM287.029 272.193C287.641 271.07 288.189 269.895 288.661 268.698C288.815 268.308 289.255 268.117 289.645 268.271C290.035 268.424 290.22 268.863 290.073 269.257C289.579 270.511 289.003 271.744 288.362 272.922C288.161 273.29 287.7 273.426 287.333 273.225C287.01 273.049 286.867 272.669 286.974 272.33C286.988 272.283 287.007 272.238 287.031 272.195L287.029 272.193ZM291.435 260.581C291.85 260.636 292.142 261.017 292.087 261.434C291.937 262.587 291.72 263.751 291.445 264.891C291.404 265.064 291.361 265.237 291.317 265.409C291.225 265.817 290.798 266.059 290.393 265.953C289.987 265.847 289.744 265.433 289.85 265.026C289.892 264.864 289.932 264.703 289.971 264.537C290.234 263.446 290.441 262.336 290.585 261.237C290.591 261.192 290.601 261.148 290.615 261.106C290.723 260.76 291.066 260.534 291.436 260.583L291.435 260.581Z" fill="#91B3FA"/>
</g>
<g opacity="0.3">
<path d="M228.534 246.844C228.949 245.585 229.444 244.343 230.006 243.147C230.184 242.769 230.636 242.604 231.015 242.783C231.394 242.962 231.551 243.416 231.378 243.795C230.843 244.934 230.37 246.12 229.975 247.32C229.844 247.719 229.415 247.935 229.017 247.804C228.622 247.673 228.407 247.249 228.533 246.853C228.533 246.85 228.535 246.846 228.535 246.844H228.534ZM228.41 250.097C228.821 250.181 229.086 250.582 229.003 250.993C228.753 252.231 228.576 253.496 228.477 254.754C228.443 255.17 228.078 255.485 227.661 255.45C227.243 255.417 226.933 255.052 226.965 254.633C227.069 253.314 227.254 251.989 227.516 250.692C227.521 250.664 227.527 250.638 227.537 250.613C227.652 250.247 228.025 250.021 228.41 250.097ZM231.914 239.656C232.621 238.536 233.4 237.449 234.234 236.426C234.5 236.101 234.976 236.053 235.301 236.318C235.626 236.583 235.674 237.061 235.41 237.388C234.614 238.364 233.871 239.401 233.197 240.47C232.974 240.824 232.505 240.93 232.152 240.707C231.855 240.519 231.732 240.156 231.834 239.835C231.854 239.774 231.88 239.715 231.916 239.658L231.914 239.656ZM227.619 257.823C228.037 257.805 228.391 258.131 228.408 258.549C228.464 259.811 228.596 261.081 228.803 262.325C228.872 262.738 228.593 263.13 228.181 263.2C227.768 263.269 227.377 262.99 227.308 262.575C227.09 261.271 226.95 259.937 226.893 258.614C226.889 258.523 226.903 258.434 226.928 258.352C227.021 258.057 227.291 257.835 227.617 257.822L227.619 257.823ZM236.926 233.504C237.879 232.588 238.896 231.721 239.952 230.928C240.288 230.676 240.764 230.744 241.015 231.08C241.266 231.416 241.198 231.892 240.863 232.145C239.855 232.902 238.885 233.729 237.976 234.601C237.674 234.891 237.194 234.882 236.904 234.579C236.706 234.371 236.647 234.08 236.728 233.823C236.765 233.706 236.831 233.595 236.926 233.504ZM243.264 228.735C244.409 228.074 245.605 227.475 246.818 226.959C247.202 226.795 247.647 226.975 247.811 227.36C247.975 227.745 247.796 228.193 247.411 228.357C246.255 228.851 245.115 229.421 244.021 230.052C243.658 230.262 243.194 230.137 242.985 229.773C242.876 229.581 242.857 229.36 242.919 229.164C242.975 228.989 243.092 228.834 243.264 228.735ZM250.56 225.624C251.831 225.256 253.136 224.963 254.436 224.754C254.849 224.688 255.239 224.97 255.305 225.384C255.371 225.799 255.09 226.188 254.677 226.256C253.437 226.456 252.193 226.734 250.981 227.086C250.578 227.202 250.158 226.969 250.042 226.567C249.999 226.417 250.004 226.265 250.047 226.127C250.121 225.893 250.306 225.698 250.56 225.625V225.624Z" fill="#91B3FA"/>
<path d="M228.214 266.048C228.171 266.188 228.165 266.342 228.21 266.493C228.395 267.116 228.599 267.738 228.817 268.339C228.959 268.733 229.394 268.937 229.788 268.794C230.18 268.65 230.385 268.216 230.242 267.821C230.035 267.248 229.84 266.656 229.663 266.06C229.545 265.657 229.122 265.428 228.72 265.547C228.469 265.621 228.287 265.815 228.213 266.048H228.214Z" fill="#91B3FA"/>
</g>
<path d="M240.815 273.107C240.905 273.244 241.071 273.309 241.23 273.268L245.759 272.119C247.341 273.627 249.172 274.893 251.209 275.843L251.799 280.487C251.82 280.65 251.942 280.781 252.101 280.815L257.589 281.961C257.749 281.994 257.914 281.923 257.997 281.781L260.388 277.759C262.634 277.703 264.817 277.275 266.867 276.526L270.562 279.393C270.692 279.494 270.87 279.5 271.007 279.41L275.695 276.331C275.833 276.241 275.898 276.074 275.857 275.915L274.71 271.374C276.215 269.789 277.477 267.954 278.425 265.911L283.057 265.319C283.22 265.298 283.352 265.176 283.385 265.016L284.527 259.515C284.56 259.355 284.489 259.191 284.348 259.106L280.336 256.709C280.281 254.457 279.854 252.268 279.105 250.213L281.965 246.509C282.065 246.379 282.072 246.2 281.982 246.062L278.911 241.362C278.821 241.225 278.654 241.16 278.496 241.201L273.966 242.35C272.385 240.842 270.554 239.576 268.517 238.626L267.927 233.982C267.906 233.819 267.784 233.687 267.624 233.654L262.137 232.508C261.977 232.475 261.813 232.546 261.729 232.688L259.338 236.71C257.092 236.766 254.909 237.193 252.858 237.944L249.164 235.077C249.034 234.977 248.856 234.97 248.718 235.06L244.03 238.139C243.893 238.229 243.828 238.396 243.868 238.555L245.014 243.096C243.51 244.681 242.247 246.517 241.3 248.559L236.667 249.151C236.505 249.172 236.374 249.294 236.34 249.454L235.197 254.955C235.164 255.116 235.235 255.28 235.377 255.365L239.388 257.762C239.444 260.013 239.871 262.202 240.62 264.257L237.76 267.962C237.659 268.091 237.653 268.27 237.742 268.408L240.814 273.108L240.815 273.107Z" fill="#91B3FA"/>
<path d="M254.705 254.721C255.375 253.34 256.541 252.303 257.989 251.801C259.437 251.299 260.993 251.393 262.371 252.064C265.215 253.451 266.4 256.893 265.021 259.749C263.636 262.601 260.198 263.791 257.355 262.405C255.977 261.733 254.943 260.564 254.442 259.112C254.035 257.932 254.021 256.681 254.389 255.512C254.474 255.243 254.58 254.978 254.704 254.72L254.705 254.721ZM261.708 253.431C260.694 252.937 259.549 252.868 258.484 253.236C257.42 253.606 256.561 254.369 256.068 255.384C255.577 256.402 255.507 257.548 255.876 258.616C256.243 259.683 257.005 260.543 258.018 261.037C260.111 262.056 262.639 261.18 263.657 259.083C263.749 258.894 263.825 258.702 263.887 258.506C264.507 256.541 263.612 254.357 261.709 253.43L261.708 253.431Z" fill="#BDD0FB"/>
<path d="M246.353 252.85C246.207 253.308 246.086 253.778 245.985 254.259C245.787 255.214 245.686 256.189 245.683 257.161C245.683 257.204 245.683 257.248 245.683 257.292C245.686 257.629 245.906 257.914 246.211 258.011C246.285 258.035 246.365 258.047 246.446 258.047C246.865 258.044 247.201 257.7 247.199 257.281C247.193 256.374 247.284 255.461 247.47 254.57C247.481 254.521 247.491 254.472 247.502 254.423C247.96 252.316 248.926 250.405 250.297 248.816C251.041 247.954 251.906 247.187 252.876 246.537C252.884 246.532 252.891 246.526 252.899 246.521C252.924 246.505 252.948 246.489 252.972 246.473C255.824 244.599 259.233 243.952 262.572 244.648C263.004 244.738 263.428 244.85 263.842 244.981C266.635 245.867 269.019 247.673 270.647 250.163C272.516 253.022 273.162 256.44 272.466 259.787C271.77 263.131 269.817 266.008 266.965 267.882C264.113 269.756 260.704 270.404 257.366 269.707C256.94 269.618 256.522 269.509 256.111 269.379C254.329 268.813 252.691 267.864 251.317 266.592C251.232 266.514 251.135 266.459 251.032 266.427C250.761 266.341 250.452 266.412 250.246 266.636C249.963 266.946 249.98 267.425 250.289 267.71C251.827 269.132 253.66 270.196 255.652 270.829C256.112 270.975 256.581 271.098 257.056 271.197C260.792 271.977 264.606 271.251 267.797 269.155C270.987 267.059 273.176 263.844 273.952 260.098C274.73 256.354 274.007 252.529 271.916 249.331C270.096 246.546 267.429 244.525 264.305 243.533C263.841 243.386 263.367 243.262 262.883 243.16C255.652 241.65 248.536 245.936 246.355 252.85H246.353Z" fill="#BDD0FB"/>
<defs>
<linearGradient id="paint0_linear_367_179" x1="409.436" y1="485.513" x2="89.7314" y2="89.4665" gradientUnits="userSpaceOnUse">
<stop stop-color="#DAE3FE"/>
<stop offset="1" stop-color="#E9EFFD"/>
</linearGradient>
<linearGradient id="paint1_linear_367_179" x1="306.428" y1="46.54" x2="98.6464" y2="321.706" gradientUnits="userSpaceOnUse">
<stop stop-color="#4F52FF"/>
<stop offset="1" stop-color="#4042E2"/>
</linearGradient>
<linearGradient id="paint2_linear_367_179" x1="306.428" y1="46.54" x2="98.6465" y2="321.706" gradientUnits="userSpaceOnUse">
<stop stop-color="#4F52FF"/>
<stop offset="1" stop-color="#4042E2"/>
</linearGradient>
<linearGradient id="paint3_linear_367_179" x1="306.428" y1="46.54" x2="98.6465" y2="321.706" gradientUnits="userSpaceOnUse">
<stop stop-color="#4F52FF"/>
<stop offset="1" stop-color="#4042E2"/>
</linearGradient>
<linearGradient id="paint4_linear_367_179" x1="193.963" y1="145.856" x2="305.716" y2="78.4235" gradientUnits="userSpaceOnUse">
<stop stop-color="#09005D"/>
<stop offset="1" stop-color="#1A0F91"/>
</linearGradient>
<linearGradient id="paint5_linear_367_179" x1="254.223" y1="-24.0086" x2="246.249" y2="57.5143" gradientUnits="userSpaceOnUse">
<stop stop-color="#FF928E"/>
<stop offset="1" stop-color="#FE7062"/>
</linearGradient>
<linearGradient id="paint6_linear_367_179" x1="320.716" y1="47.5691" x2="364" y2="47.5691" gradientUnits="userSpaceOnUse">
<stop stop-color="#4F52FF"/>
<stop offset="1" stop-color="#4042E2"/>
</linearGradient>
<linearGradient id="paint7_linear_367_179" x1="317.813" y1="37.6964" x2="347.206" y2="37.6964" gradientUnits="userSpaceOnUse">
<stop stop-color="#4F52FF"/>
<stop offset="1" stop-color="#4042E2"/>
</linearGradient>
<linearGradient id="paint8_linear_367_179" x1="247.983" y1="174.379" x2="243.632" y2="335.945" gradientUnits="userSpaceOnUse">
<stop stop-color="#09005D"/>
<stop offset="1" stop-color="#1A0F91"/>
</linearGradient>
<linearGradient id="paint9_linear_367_179" x1="9.89194" y1="185.216" x2="311.134" y2="424.173" gradientUnits="userSpaceOnUse">
<stop stop-color="#09005D"/>
<stop offset="1" stop-color="#1A0F91"/>
</linearGradient>
<linearGradient id="paint10_linear_367_179" x1="281.343" y1="83.1871" x2="230.032" y2="159.957" gradientUnits="userSpaceOnUse">
<stop stop-color="#FF928E"/>
<stop offset="1" stop-color="#FE7062"/>
</linearGradient>
<linearGradient id="paint11_linear_367_179" x1="286.187" y1="86.4252" x2="234.876" y2="163.196" gradientUnits="userSpaceOnUse">
<stop stop-color="#FF928E"/>
<stop offset="1" stop-color="#FE7062"/>
</linearGradient>
<linearGradient id="paint12_linear_367_179" x1="87.8131" y1="42.0728" x2="211.7" y2="182.927" gradientUnits="userSpaceOnUse">
<stop stop-color="#09005D"/>
<stop offset="1" stop-color="#1A0F91"/>
</linearGradient>
<linearGradient id="paint13_linear_367_179" x1="187.683" y1="75.3352" x2="146.006" y2="90.5128" gradientUnits="userSpaceOnUse">
<stop stop-color="#FF928E"/>
<stop offset="1" stop-color="#FE7062"/>
</linearGradient>
<linearGradient id="paint14_linear_367_179" x1="121.539" y1="2.89443" x2="120.875" y2="58.5717" gradientUnits="userSpaceOnUse">
<stop stop-color="#FF928E"/>
<stop offset="1" stop-color="#FE7062"/>
</linearGradient>
<linearGradient id="paint15_linear_367_179" x1="182.925" y1="-4.09056" x2="154.404" y2="33.6203" gradientUnits="userSpaceOnUse">
<stop stop-color="#FF928E"/>
<stop offset="1" stop-color="#FE7062"/>
</linearGradient>
</defs>
</svg>
