<svg width="279" height="280" viewBox="0 0 279 280" fill="none" xmlns="http://www.w3.org/2000/svg">
<path d="M259.28 184.243C227.391 243.258 163.084 280.538 102.431 271.211C92.5617 269.694 65.5049 265.173 41.5487 243.845C-4.56729 202.788 -14.4295 121.49 22.7713 64.1967C49.8464 22.4972 98.3814 -1.14073 144.498 0.0423876C154.432 0.297291 192.502 1.86631 225.96 29.409C230.874 33.454 241.922 42.9352 251.481 58.3177C274.998 96.1611 277.987 149.623 259.28 184.244V184.243Z" fill="url(#paint0_linear_398_12)"/>
<g opacity="0.3">
<path d="M128.322 244.468C127.549 244.105 127.217 243.185 127.581 242.415C128.287 240.916 128.938 239.364 129.516 237.802C129.809 237.012 130.681 236.604 131.475 236.88C131.484 236.883 131.493 236.886 131.503 236.89C132.304 237.185 132.713 238.073 132.417 238.873C131.807 240.517 131.123 242.15 130.379 243.729C130.039 244.45 129.211 244.787 128.474 244.53C128.423 244.513 128.372 244.492 128.323 244.469L128.322 244.468ZM131.809 230.008C132.169 228.383 132.462 226.727 132.681 225.085C132.794 224.241 133.571 223.646 134.418 223.759C135.267 223.875 135.859 224.648 135.746 225.493C135.516 227.221 135.207 228.964 134.828 230.674C134.644 231.506 133.818 232.032 132.985 231.848C132.924 231.835 132.865 231.817 132.808 231.798C132.079 231.544 131.637 230.78 131.808 230.009L131.809 230.008ZM133.192 216.982C133.18 215.323 133.096 213.643 132.941 211.991C132.862 211.142 133.487 210.389 134.337 210.31C135.187 210.232 135.94 210.854 136.021 211.703C136.183 213.444 136.272 215.213 136.284 216.96C136.29 217.812 135.603 218.507 134.749 218.515C134.567 218.516 134.392 218.485 134.229 218.429C133.629 218.221 133.197 217.652 133.192 216.982ZM131.621 203.975C131.238 202.358 130.779 200.739 130.259 199.162C129.992 198.353 130.433 197.479 131.244 197.213C132.054 196.947 132.928 197.388 133.196 198.196C133.743 199.857 134.225 201.561 134.63 203.263C134.826 204.093 134.313 204.924 133.482 205.12C133.185 205.191 132.887 205.17 132.618 205.077C132.136 204.909 131.747 204.507 131.62 203.975H131.621ZM127.187 191.642C126.456 190.154 125.649 188.676 124.79 187.25C124.351 186.519 124.588 185.57 125.319 185.131C126.052 184.692 127.002 184.929 127.44 185.661C128.344 187.16 129.191 188.716 129.961 190.281C130.337 191.046 130.021 191.971 129.255 192.347C128.868 192.537 128.442 192.55 128.065 192.419C127.695 192.29 127.372 192.021 127.186 191.641L127.187 191.642ZM120.13 180.596C119.086 179.304 117.973 178.042 116.821 176.843C116.23 176.228 116.25 175.251 116.867 174.661C117.483 174.071 118.462 174.091 119.053 174.707C120.265 175.968 121.436 177.297 122.536 178.656C123.072 179.319 122.968 180.291 122.304 180.826C121.873 181.175 121.31 181.252 120.823 181.082C120.56 180.991 120.318 180.828 120.13 180.595V180.596ZM67.4978 157.694C67.4194 156.845 68.0461 156.094 68.8965 156.017C70.638 155.857 72.4111 155.772 74.1648 155.763C75.0193 155.759 75.7151 156.446 75.7192 157.298C75.7243 158.15 75.0356 158.845 74.1811 158.849C72.5158 158.857 70.8333 158.939 69.1783 159.091C68.9514 159.111 68.7317 159.083 68.5292 159.011C67.9738 158.819 67.5547 158.316 67.4978 157.694ZM110.802 171.392C109.497 170.365 108.131 169.383 106.741 168.472C106.027 168.004 105.829 167.046 106.298 166.335C106.767 165.622 107.724 165.428 108.439 165.892C109.902 166.852 111.34 167.885 112.716 168.967C113.386 169.494 113.502 170.465 112.973 171.135C112.554 171.666 111.856 171.849 111.25 171.638C111.092 171.583 110.94 171.501 110.802 171.392ZM80.9733 157.637C81.0872 156.792 81.8664 156.2 82.7128 156.314C84.4462 156.549 86.1918 156.861 87.9028 157.24C88.7379 157.422 89.2608 158.251 89.0757 159.083C88.8905 159.914 88.0635 160.438 87.2304 160.253C85.6048 159.892 83.9457 159.595 82.2977 159.373C82.1929 159.359 82.0912 159.334 81.9956 159.301C81.3161 159.064 80.8736 158.377 80.9733 157.636V157.637ZM99.649 164.5C98.1475 163.792 96.5952 163.139 95.0347 162.559C94.2341 162.262 93.8272 161.374 94.1243 160.574C94.4183 159.786 95.289 159.379 96.0815 159.654C96.0916 159.658 96.1018 159.661 96.112 159.665C97.7548 160.275 99.3885 160.962 100.969 161.708C101.741 162.072 102.071 162.992 101.707 163.763C101.366 164.483 100.539 164.818 99.8026 164.561C99.7507 164.543 99.6998 164.523 99.649 164.499V164.5Z" fill="#91B3FA"/>
<path d="M57.8512 160.974C58.1391 161.073 58.4585 161.091 58.7738 161.002C59.5419 160.788 60.3262 160.586 61.1074 160.402C61.9385 160.206 62.4532 159.374 62.2569 158.546C62.0606 157.716 61.2274 157.201 60.3963 157.398C59.5754 157.591 58.7494 157.803 57.9417 158.029C57.1198 158.258 56.6386 159.11 56.8685 159.931C57.0099 160.438 57.3883 160.813 57.8502 160.974H57.8512Z" fill="#91B3FA"/>
</g>
<g opacity="0.3">
<path d="M21.0125 190.333C21.7175 190.578 22.515 190.283 22.8812 189.607C23.2586 188.906 23.6584 188.202 24.0673 187.513C24.5027 186.78 24.2606 185.832 23.5261 185.398C22.7886 184.961 21.8426 185.205 21.4072 185.938C20.9769 186.663 20.5568 187.404 20.159 188.143C19.7542 188.893 20.0359 189.829 20.7877 190.234C20.862 190.273 20.9372 190.306 21.0135 190.333H21.0125Z" fill="#91B3FA"/>
<path d="M51.2991 274.561C50.5077 274.242 50.1252 273.342 50.4456 272.551C50.766 271.761 51.6653 271.38 52.4587 271.699C53.9663 272.307 55.5227 272.861 57.1025 273.351C57.9153 273.6 58.373 274.47 58.1197 275.284C57.8664 276.099 56.9997 276.552 56.1839 276.3C55.4993 276.087 54.8208 275.864 54.1494 275.63C53.1912 275.297 52.2319 274.938 51.3001 274.561H51.2991ZM63.1114 276.469C63.2518 275.629 64.0493 275.062 64.8916 275.202C66.509 275.472 68.1539 275.676 69.7835 275.81C70.6339 275.877 71.2677 276.625 71.1985 277.475C71.1283 278.324 70.3817 278.956 69.5312 278.886C67.8162 278.746 66.0838 278.531 64.3819 278.246C64.2934 278.232 64.208 278.21 64.1266 278.181C63.4277 277.939 62.9863 277.223 63.1124 276.469H63.1114ZM43.7226 270.883C42.2313 270.028 40.7553 269.097 39.3372 268.116C38.6353 267.631 38.4604 266.669 38.9466 265.968C39.4329 265.268 40.3952 265.094 41.0981 265.578C42.4449 266.51 43.8457 267.393 45.2627 268.206C46.0033 268.63 46.2586 269.574 45.8334 270.313C45.457 270.967 44.6737 271.242 43.9861 271.002C43.8966 270.971 43.8081 270.931 43.7226 270.883ZM76.3285 277.543C76.2807 276.692 76.9338 275.962 77.7862 275.916C79.4209 275.825 81.0699 275.663 82.6904 275.435C83.5367 275.316 84.318 275.904 84.437 276.748C84.556 277.592 83.968 278.373 83.1227 278.492C81.4168 278.733 79.6793 278.902 77.9592 278.999C77.7516 279.01 77.5502 278.981 77.3651 278.917C76.7914 278.717 76.3651 278.187 76.3295 277.544L76.3285 277.543ZM32.7628 262.866C31.4963 261.705 30.2624 260.473 29.0956 259.206C28.5178 258.578 28.5585 257.602 29.1871 257.025C29.8158 256.448 30.7944 256.489 31.3722 257.117C32.482 258.321 33.6539 259.491 34.8563 260.593C35.4849 261.17 35.5266 262.147 34.9488 262.774C34.5185 263.243 33.8655 263.385 33.3009 263.188C33.1076 263.121 32.9245 263.013 32.7638 262.867L32.7628 262.866ZM23.8293 252.644C22.8456 251.232 21.9107 249.761 21.0491 248.273C20.6219 247.535 20.8752 246.591 21.6147 246.164C22.3553 245.738 23.3003 245.989 23.7265 246.729C24.5444 248.142 25.4335 249.54 26.3683 250.882C26.8556 251.582 26.6827 252.544 25.9808 253.031C25.5586 253.324 25.0398 253.378 24.5892 253.221C24.2911 253.118 24.0226 252.923 23.8293 252.644ZM17.3382 240.722C16.6861 239.128 16.0931 237.489 15.5784 235.85C15.322 235.037 15.7757 234.171 16.5895 233.915C17.4053 233.659 18.272 234.112 18.5284 234.924C19.0177 236.481 19.5812 238.038 20.2007 239.553C20.5242 240.342 20.1448 241.243 19.3544 241.566C18.9912 241.714 18.6047 241.714 18.2619 241.595C17.857 241.455 17.5132 241.148 17.3382 240.721V240.722ZM13.6069 227.67C13.3191 225.973 13.1014 224.244 12.9589 222.529C12.8877 221.68 13.5205 220.934 14.3719 220.863C15.2213 220.793 15.97 221.424 16.0402 222.273C16.1755 223.9 16.383 225.542 16.6556 227.154C16.798 227.995 16.2314 228.791 15.3892 228.933C15.1237 228.978 14.8622 228.953 14.6242 228.869C14.1084 228.691 13.7046 228.244 13.6069 227.668V227.67ZM12.8399 214.111C12.9335 212.396 13.1024 210.664 13.3414 208.958C13.4594 208.115 14.2417 207.526 15.087 207.643C15.9303 207.761 16.5224 208.541 16.4044 209.386C16.1775 211.005 16.0168 212.652 15.9273 214.281C15.8805 215.132 15.1511 215.784 14.2987 215.737C14.1501 215.729 14.0077 215.701 13.8735 215.654C13.2397 215.434 12.8003 214.814 12.8389 214.111H12.8399ZM15.0718 200.729C15.4146 199.511 15.8001 198.288 16.2162 197.096C16.3667 196.663 16.5224 196.235 16.6811 195.808C16.9791 195.01 17.8651 194.584 18.6698 194.901C19.4704 195.199 19.8773 196.087 19.5782 196.887C19.4266 197.292 19.2791 197.7 19.1357 198.11C18.74 199.245 18.3738 200.407 18.0472 201.565C17.8163 202.386 16.9618 202.864 16.1409 202.634C16.1104 202.624 16.0799 202.615 16.0494 202.605C15.2834 202.339 14.848 201.52 15.0708 200.73L15.0718 200.729Z" fill="#91B3FA"/>
<path d="M90.4734 276.71C90.7633 276.81 91.0868 276.827 91.4041 276.736C92.2088 276.508 93.0246 276.257 93.8272 275.992C94.638 275.725 95.0785 274.851 94.8109 274.042C94.5434 273.233 93.6696 272.792 92.8578 273.06C92.0949 273.311 91.3207 273.548 90.5558 273.767C89.7348 273.999 89.2588 274.853 89.4927 275.674C89.6362 276.177 90.0136 276.549 90.4723 276.709L90.4734 276.71Z" fill="#91B3FA"/>
</g>
<path d="M103.387 253.601C103.65 253.439 103.781 253.13 103.714 252.829L101.801 244.259C104.718 241.371 107.194 237.999 109.086 234.225L117.833 233.367C118.141 233.336 118.394 233.116 118.466 232.816L120.914 222.572C120.985 222.272 120.859 221.96 120.598 221.796L113.18 217.089C113.198 212.869 112.513 208.744 111.216 204.853L116.798 198.067C116.993 197.83 117.016 197.494 116.855 197.232L111.329 188.259C111.167 187.997 110.857 187.866 110.556 187.933L101.971 189.842C99.0793 186.931 95.701 184.459 91.9209 182.57L91.0613 173.837C91.0308 173.531 90.8101 173.278 90.51 173.206L80.248 170.762C79.9479 170.691 79.6356 170.817 79.4708 171.077L74.7558 178.483C70.5292 178.465 66.3971 179.149 62.5 180.444L55.7028 174.871C55.4647 174.676 55.128 174.653 54.8656 174.814L45.8782 180.331C45.6157 180.492 45.4845 180.802 45.5516 181.102L47.464 189.672C44.5476 192.559 42.0716 195.932 40.1795 199.705L31.4322 200.564C31.125 200.594 30.8717 200.814 30.7995 201.114L28.352 211.359C28.2808 211.658 28.4069 211.97 28.6673 212.135L36.0851 216.842C36.0678 221.061 36.7524 225.187 38.0494 229.077L32.4678 235.863C32.2724 236.101 32.249 236.437 32.4108 236.699L37.9365 245.671C38.0982 245.933 38.4085 246.064 38.7096 245.997L47.2942 244.088C50.1862 247 53.5645 249.471 57.3446 251.36L58.2042 260.093C58.2347 260.399 58.4554 260.653 58.7555 260.724L69.0175 263.167C69.3176 263.238 69.6299 263.112 69.7947 262.852L74.5097 255.447C78.7363 255.464 82.8684 254.781 86.7655 253.486L93.5627 259.058C93.8008 259.253 94.1375 259.277 94.3999 259.115L103.387 253.599V253.601Z" fill="#91B3FA"/>
<path d="M69.7235 226.349C64.5406 223.646 62.5275 217.238 65.2354 212.064C66.5466 209.557 68.7581 207.711 71.46 206.864C74.1618 206.018 77.0335 206.272 79.544 207.582C84.7269 210.285 86.7401 216.694 84.0321 221.868C81.5684 226.575 76.0335 228.663 71.1527 226.966C70.6685 226.797 70.1904 226.592 69.7235 226.348V226.349ZM72.2005 209.221C70.1284 209.87 68.4336 211.286 67.4276 213.207C65.3524 217.174 66.8956 222.087 70.8689 224.16C74.8433 226.235 79.7638 224.691 81.84 220.724C83.9152 216.758 82.372 211.844 78.3986 209.772C78.0385 209.584 77.6692 209.424 77.2918 209.293C75.6551 208.725 73.8841 208.693 72.2005 209.221Z" fill="#BDD0FB"/>
<path d="M65.9109 241.336C66.7491 241.627 67.6076 241.878 68.4825 242.087C68.7581 242.153 69.0348 242.214 69.3125 242.271C70.6807 242.55 72.0693 242.721 73.4568 242.781C73.4761 242.781 73.4945 242.783 73.5138 242.783C73.5677 242.785 73.6206 242.787 73.6745 242.788C73.7793 242.792 73.8841 242.794 73.9878 242.797C74.2625 242.803 74.4995 242.63 74.586 242.384C74.6063 242.324 74.6185 242.26 74.6205 242.193C74.6277 241.852 74.3571 241.57 74.0153 241.562C72.2585 241.524 70.4936 241.296 68.7703 240.885C60.2092 238.848 53.7425 232.585 51.056 224.84C49.5616 220.532 49.2371 215.766 50.3734 211.013C50.5728 210.179 50.8118 209.361 51.0905 208.563C52.9653 203.191 56.604 198.662 61.5235 195.643C67.1753 192.174 73.8413 191.11 80.2948 192.646C93.6218 195.821 101.87 209.22 98.6917 222.519C98.4954 223.338 98.2594 224.146 97.9827 224.937C96.7864 228.364 94.8526 231.491 92.3085 234.089C92.2424 234.156 92.1956 234.234 92.1671 234.317C92.0908 234.536 92.1417 234.79 92.3187 234.962C92.5638 235.2 92.9544 235.197 93.1935 234.952C95.8648 232.225 97.8952 228.942 99.1505 225.344C99.4404 224.514 99.6886 223.667 99.8951 222.806C103.232 208.843 94.5627 194.775 80.5826 191.446C73.8078 189.832 66.8091 190.95 60.8765 194.592C55.7109 197.763 51.8921 202.515 49.9227 208.156C49.6308 208.994 49.3785 209.852 49.17 210.727C47.5536 217.491 48.6726 224.478 52.3204 230.401C55.4963 235.559 60.26 239.373 65.9109 241.337V241.336Z" fill="#BDD0FB"/>
<g opacity="0.3">
<path d="M237.09 42.9583C237.458 42.4952 237.494 41.828 237.135 41.3192C236.465 40.3697 235.756 39.4283 235.03 38.5194C234.558 37.9293 233.696 37.8328 233.103 38.3051C232.509 38.7753 232.415 39.6375 232.888 40.2285C233.581 41.0938 234.256 41.9915 234.896 42.8974C235.332 43.5148 236.187 43.6621 236.807 43.2274C236.917 43.1492 237.01 43.0589 237.091 42.9593L237.09 42.9583Z" fill="#91B3FA"/>
<path d="M230.155 35.0553C229.626 35.5955 228.759 35.6067 228.217 35.0796C226.849 33.7482 225.396 32.4717 223.901 31.2866C223.586 31.0367 223.266 30.7889 222.943 30.5442C222.34 30.0872 222.223 29.2291 222.681 28.6268C223.137 28.0754 223.999 27.9088 224.603 28.3658C224.94 28.6228 225.275 28.8817 225.605 29.1427C227.173 30.3858 228.696 31.7243 230.13 33.1206C230.638 33.6142 230.68 34.4063 230.248 34.9496C230.22 34.9862 230.188 35.0207 230.156 35.0553H230.155ZM217.154 26.6831C215.154 25.5182 213.063 24.4661 210.94 23.5572C210.244 23.2586 209.923 22.4553 210.221 21.7607C210.519 21.0701 211.325 20.7441 212.02 21.0427C214.245 21.9953 216.437 23.0982 218.535 24.3199C219.189 24.7007 219.41 25.5385 219.028 26.1926C218.995 26.2494 218.957 26.3043 218.916 26.355C218.499 26.8791 217.75 27.0314 217.153 26.6851L217.154 26.6831ZM204.384 21.2214C202.161 20.5816 199.875 20.0759 197.589 19.7154C196.842 19.5976 196.33 18.8968 196.448 18.1504C196.567 17.402 197.267 16.8932 198.016 17.012C200.415 17.3888 202.812 17.9219 205.143 18.5912C205.87 18.8004 206.29 19.559 206.081 20.2851C206.029 20.4618 205.945 20.6202 205.838 20.7563C205.503 21.1778 204.934 21.3789 204.384 21.2214ZM190.659 19.0593C188.344 18.9832 186.002 19.0502 183.703 19.2594C182.948 19.3274 182.282 18.7729 182.214 18.0204C182.146 17.2699 182.7 16.6027 183.454 16.5337C185.867 16.3153 188.321 16.2442 190.749 16.3245C191.506 16.3488 192.099 16.9825 192.074 17.7371C192.063 18.0418 191.954 18.319 191.778 18.5414C191.518 18.8694 191.11 19.0746 190.659 19.0593ZM176.822 20.3085C174.558 20.7969 172.305 21.4296 170.123 22.1882C169.409 22.4371 168.628 22.0603 168.378 21.3464C168.129 20.6324 168.506 19.8515 169.222 19.6047C171.508 18.8085 173.872 18.1464 176.243 17.6335C176.982 17.4741 177.712 17.9432 177.872 18.6816C177.963 19.0989 177.852 19.5123 177.606 19.823C177.416 20.0617 177.145 20.2394 176.823 20.3095L176.822 20.3085ZM163.707 24.8723C161.633 25.894 159.605 27.0558 157.676 28.3242C157.044 28.7396 156.194 28.5659 155.778 27.9342C155.362 27.3036 155.536 26.4576 156.167 26.0382C158.19 24.7078 160.318 23.4902 162.494 22.4178C163.172 22.0836 163.994 22.3619 164.329 23.0393C164.571 23.5298 164.492 24.0954 164.173 24.4966C164.051 24.6499 163.894 24.7799 163.706 24.8723H163.707ZM152.114 32.4971C150.36 33.991 148.676 35.6158 147.112 37.326C146.6 37.8836 145.733 37.9222 145.175 37.4124C144.616 36.9036 144.585 36.0454 145.087 35.4787C146.729 33.6873 148.494 31.9842 150.333 30.4162C150.909 29.9257 151.775 29.9938 152.266 30.5686C152.698 31.0743 152.697 31.8045 152.298 32.3062C152.244 32.3742 152.183 32.4382 152.114 32.4971ZM137.207 49.1877C136.54 48.8281 136.292 47.9995 136.652 47.3343C137.648 45.4931 138.762 43.6752 139.959 41.9356C140.14 41.6706 140.324 41.4085 140.509 41.1475C140.928 40.522 141.804 40.3879 142.42 40.8276C143.037 41.2664 143.18 42.1194 142.742 42.7359C142.567 42.9796 142.395 43.2264 142.223 43.4792C141.076 45.1448 140.013 46.8783 139.064 48.6332C139.026 48.7053 138.98 48.7733 138.931 48.8353C138.525 49.3451 137.801 49.5075 137.207 49.1866V49.1877Z" fill="#91B3FA"/>
</g>
<g opacity="0.3">
<path d="M234.599 112.781C233.09 114.629 231.454 116.401 229.738 118.049C229.193 118.572 228.325 118.556 227.8 118.011C227.275 117.465 227.3 116.601 227.839 116.076C229.475 114.505 231.035 112.815 232.475 111.051C232.953 110.465 233.817 110.378 234.403 110.855C234.985 111.329 235.076 112.181 234.611 112.766C234.607 112.771 234.603 112.777 234.6 112.781H234.599ZM236.901 107.388C236.261 106.985 236.071 106.139 236.476 105.501C237.693 103.58 238.806 101.566 239.783 99.5144C240.109 98.8371 240.926 98.5415 241.61 98.8675C242.294 99.1915 242.584 100.007 242.259 100.69C241.235 102.84 240.069 104.952 238.792 106.965C238.765 107.007 238.737 107.047 238.706 107.085C238.277 107.626 237.499 107.767 236.9 107.389L236.901 107.388ZM224.267 122.691C222.354 124.121 220.337 125.448 218.273 126.632C217.617 127.008 216.778 126.782 216.402 126.127C216.023 125.472 216.25 124.639 216.906 124.258C218.876 123.129 220.799 121.865 222.625 120.501C223.231 120.048 224.09 120.172 224.543 120.775C224.924 121.284 224.898 121.97 224.519 122.446C224.448 122.536 224.364 122.618 224.266 122.69L224.267 122.691ZM243.206 94.9038C242.488 94.6652 242.099 93.8903 242.339 93.1733C243.057 91.0163 243.65 88.7953 244.099 86.5682C244.25 85.8289 244.973 85.3495 245.713 85.4968C246.455 85.6461 246.935 86.3681 246.786 87.1085C246.315 89.4432 245.693 91.7749 244.939 94.0366C244.886 94.1929 244.808 94.3331 244.712 94.455C244.364 94.8927 243.767 95.0887 243.205 94.9028L243.206 94.9038ZM211.847 129.812C209.651 130.74 207.375 131.541 205.081 132.197C204.353 132.405 203.593 131.984 203.386 131.257C203.177 130.531 203.598 129.773 204.327 129.565C206.515 128.94 208.686 128.175 210.78 127.291C211.477 126.997 212.282 127.322 212.577 128.019C212.779 128.495 212.689 129.023 212.387 129.403C212.249 129.577 212.067 129.72 211.847 129.812ZM198.076 133.752C195.716 134.126 193.313 134.362 190.933 134.451C190.177 134.48 189.541 133.892 189.513 133.136C189.483 132.382 190.073 131.746 190.831 131.718C193.101 131.632 195.393 131.407 197.646 131.048C198.393 130.929 199.095 131.438 199.215 132.185C199.278 132.579 199.165 132.961 198.934 133.251C198.729 133.51 198.429 133.695 198.077 133.751L198.076 133.752ZM183.755 134.286C181.373 134.087 178.981 133.738 176.65 133.254C175.908 133.1 175.433 132.375 175.588 131.635C175.741 130.896 176.469 130.422 177.208 130.575C179.432 131.038 181.711 131.369 183.983 131.558C184.738 131.621 185.298 132.283 185.234 133.036C185.212 133.315 185.105 133.568 184.943 133.771C184.668 134.117 184.23 134.324 183.755 134.285V134.286Z" fill="#91B3FA"/>
<path d="M247.489 80.691C247.654 80.4839 247.759 80.2279 247.781 79.9446C247.87 78.7767 247.925 77.6017 247.945 76.4501C247.957 75.6945 247.355 75.071 246.598 75.0578C245.843 75.0466 245.218 75.6478 245.203 76.4024C245.185 77.5002 245.132 78.6213 245.047 79.7364C244.989 80.4899 245.556 81.147 246.31 81.2049C246.781 81.2404 247.215 81.0343 247.488 80.69L247.489 80.691Z" fill="#91B3FA"/>
</g>
<path d="M230.748 60.71C230.685 60.4216 230.445 60.2042 230.151 60.1697L221.762 59.1877C220.062 55.6343 217.783 52.3256 214.955 49.4171L216.945 41.2277C217.015 40.9403 216.894 40.6407 216.645 40.4812L208.115 35.0227C207.866 34.8632 207.542 34.8785 207.311 35.0623L200.687 40.2873C196.86 38.9356 192.896 38.2491 188.952 38.1912L184.556 30.9909C184.402 30.7381 184.104 30.6111 183.815 30.6751L173.917 32.8362C173.628 32.8991 173.411 33.1388 173.376 33.4323L172.392 41.8075C168.832 43.5045 165.518 45.7794 162.605 48.6026L154.402 46.6162C154.114 46.5461 153.814 46.667 153.655 46.9158L148.187 55.4312C148.027 55.68 148.044 56.0029 148.227 56.2344L153.46 62.8467C152.106 66.6672 151.419 70.6248 151.361 74.5621L144.148 78.9513C143.896 79.1046 143.768 79.4022 143.832 79.6906L145.997 89.5719C146.06 89.8603 146.3 90.0777 146.594 90.1122L154.983 91.0942C156.683 94.6476 158.962 97.9573 161.79 100.865L159.8 109.054C159.73 109.342 159.851 109.641 160.1 109.801L168.63 115.259C168.879 115.419 169.202 115.402 169.434 115.22L176.058 109.995C179.884 111.346 183.849 112.033 187.793 112.091L192.189 119.291C192.343 119.544 192.641 119.671 192.93 119.607L202.827 117.446C203.116 117.383 203.334 117.143 203.369 116.85L204.352 108.474C207.913 106.777 211.227 104.503 214.139 101.679L222.342 103.666C222.63 103.735 222.93 103.615 223.09 103.366L228.558 94.8507C228.718 94.6019 228.701 94.279 228.518 94.0474L223.285 87.4352C224.639 83.6147 225.326 79.6571 225.385 75.7198L232.597 71.3306C232.851 71.1773 232.978 70.8797 232.914 70.5913L230.749 60.71H230.748Z" fill="#91B3FA"/>
<path d="M195.466 82.6884C193.446 84.5814 190.809 85.5736 188.041 85.4852C185.274 85.3979 182.705 84.2381 180.811 82.2212C176.9 78.0595 177.111 71.5082 181.279 67.5912C185.45 63.6875 192.023 63.8977 195.933 68.0594C197.828 70.0753 198.823 72.7076 198.734 75.4709C198.662 77.7173 197.882 79.8317 196.506 81.5601C196.19 81.9572 195.842 82.335 195.466 82.6884ZM182.81 80.3496C184.204 81.8333 186.093 82.6864 188.129 82.7514C190.165 82.8164 192.105 82.0852 193.59 80.6939C195.074 79.3005 195.93 77.4167 195.995 75.3835C196.061 73.3514 195.327 71.4148 193.935 69.9321C191.058 66.8702 186.223 66.7158 183.155 69.5878C182.878 69.8478 182.626 70.122 182.396 70.4104C180.085 73.3169 180.193 77.565 182.81 80.3496Z" fill="#BDD0FB"/>
<path d="M208.367 91.2119C208.907 90.5335 209.415 89.8227 209.894 89.0793C210.843 87.6027 211.643 86.0276 212.272 84.3945C212.299 84.3214 212.328 84.2473 212.355 84.1742C212.569 83.6044 212.377 82.9829 211.925 82.6234C211.815 82.5361 211.689 82.465 211.55 82.4132C210.841 82.1482 210.054 82.5107 209.788 83.2165C209.215 84.7469 208.474 86.2225 207.587 87.6027C207.538 87.6788 207.489 87.755 207.44 87.8291C205.311 91.0769 202.451 93.6706 199.115 95.46C197.304 96.4308 195.35 97.1641 193.294 97.6322C193.278 97.6363 193.26 97.6404 193.244 97.6434C193.192 97.6546 193.142 97.6668 193.09 97.6769C187.068 98.991 180.894 97.8871 175.705 94.5663C175.032 94.1367 174.388 93.6767 173.772 93.1882C169.625 89.9009 166.761 85.3278 165.613 80.0937C164.297 74.0816 165.404 67.9183 168.73 62.7379C172.057 57.5617 177.206 53.9798 183.227 52.6637C189.249 51.3496 195.424 52.4535 200.613 55.7743C201.273 56.1968 201.91 56.6518 202.52 57.1352C205.166 59.2323 207.322 61.8839 208.824 64.9072C208.917 65.093 209.046 65.2494 209.2 65.3702C209.602 65.6891 210.17 65.7683 210.661 65.5246C211.339 65.1864 211.617 64.3679 211.28 63.6895C209.598 60.3067 207.186 57.3403 204.228 54.9934C203.545 54.4521 202.834 53.9433 202.095 53.47C196.289 49.7541 189.38 48.5182 182.643 49.9897C175.907 51.4613 170.145 55.4575 166.425 61.2593C162.703 67.055 161.464 73.9506 162.939 80.6776C164.221 86.5333 167.426 91.6496 172.066 95.3269C172.755 95.8723 173.476 96.3882 174.227 96.8685C185.468 104.062 200.241 101.435 208.37 91.2119H208.367Z" fill="#BDD0FB"/>
<path d="M2.45988 72.0661L0.358245 81.2213C-0.345692 84.2882 0.976732 87.4628 3.65108 89.1273L9.99058 93.0717C11.7046 94.138 12.7656 95.9802 12.8735 97.9941C13.1441 103.061 13.9996 108.025 15.3851 112.803C15.9476 114.743 15.5539 116.833 14.2834 118.405L9.58978 124.216C7.61123 126.665 7.40778 130.098 9.08218 132.763L14.0799 140.721C15.7543 143.387 18.9383 144.698 22.0084 143.987L29.2919 142.299C31.2623 141.842 33.3181 142.399 34.8227 143.75C38.5275 147.076 42.63 150.006 47.0815 152.457C48.8505 153.431 50.0489 155.186 50.2645 157.191L51.06 164.606C51.3957 167.735 53.6825 170.305 56.7546 171.009L65.9251 173.107C68.9972 173.81 72.1771 172.49 73.8443 169.82L77.7953 163.491C78.8635 161.78 80.7087 160.722 82.726 160.614C87.801 160.344 92.7733 159.49 97.5585 158.105C99.5024 157.544 101.595 157.937 103.171 159.205L108.991 163.891C111.445 165.866 114.883 166.07 117.554 164.399L125.525 159.408C128.195 157.737 129.508 154.558 128.796 151.493L127.106 144.222C126.648 142.255 127.205 140.202 128.558 138.7C131.89 135.002 134.825 130.906 137.28 126.462C138.256 124.696 140.013 123.5 142.021 123.284L149.448 122.49C152.583 122.155 155.157 119.872 155.861 116.805L157.964 107.649C158.668 104.582 157.345 101.407 154.671 99.7428L148.331 95.7985C146.617 94.7321 145.556 92.8899 145.449 90.8761C145.178 85.8095 144.322 80.8455 142.937 76.0673C142.374 74.1276 142.768 72.0376 144.039 70.4645L148.732 64.6536C150.711 62.2041 150.914 58.7715 149.24 56.1067L144.242 48.1488C142.568 45.483 139.384 44.172 136.314 44.8828L129.03 46.5707C127.06 47.0277 125.004 46.4712 123.499 45.1205C119.795 41.7945 115.692 38.8637 111.242 36.4132C109.473 35.4392 108.274 33.6844 108.059 31.6787L107.263 24.2641C106.927 21.1362 104.641 18.5649 101.568 17.8621L92.3969 15.763C89.3249 15.0602 86.1449 16.3804 84.4777 19.0503L80.5267 25.3792C79.4585 27.0904 77.6133 28.1496 75.5961 28.2573C70.521 28.5274 65.5487 29.3815 60.7625 30.7647C58.8196 31.3263 56.7261 30.9332 55.1504 29.6658L49.3297 24.9801C46.876 23.0048 43.4377 22.8007 40.7675 24.4723L32.7963 29.4627C30.126 31.1343 28.8127 34.313 29.5248 37.3779L31.2155 44.6503C31.6733 46.6174 31.1158 48.6708 29.7629 50.1718C26.4314 53.8705 23.4956 57.9662 21.041 62.4092C20.0654 64.1752 18.3076 65.3716 16.2996 65.5869L8.87262 66.381C5.73848 66.7161 3.1628 68.9991 2.45887 72.0661H2.45988ZM27.297 76.9163C36.9894 48.3205 68.0664 32.9826 96.7111 42.6578C125.355 52.3339 140.718 83.359 131.027 111.956C121.335 140.552 90.2567 155.89 61.6129 146.214C32.9682 136.538 17.6057 105.513 27.297 76.9163Z" fill="url(#paint1_linear_398_12)"/>
<mask id="mask0_398_12" style="mask-type:luminance" maskUnits="userSpaceOnUse" x="31" y="14" width="169" height="135">
<path d="M31.6885 120.724L78.8207 14.1572H199.228L174.168 108.764L68.9259 148.883C50.2543 144.852 37.083 133.847 31.6885 120.724Z" fill="white"/>
</mask>
<g mask="url(#mask0_398_12)">
<path d="M36.8287 133.981C36.8287 133.981 31.8797 138.8 31.1809 144.332C30.4831 149.865 38.7096 238.814 38.7096 238.814C38.7096 238.814 43.9321 239.414 46.52 237.666C46.52 237.666 46.7723 179.658 48.5057 166.17C48.5057 166.17 64.1469 225.46 68.1895 236.112C68.1895 236.112 73.2096 236.467 74.77 235.438C74.77 235.438 67.5506 157.927 62.7004 144.325L36.8297 133.982L36.8287 133.981Z" fill="url(#paint2_linear_398_12)"/>
<path d="M85.3413 79.9098C63.4481 79.1979 57.9773 83.9883 57.9773 83.9883L69.2861 99.9751C69.2861 99.9751 90.687 98.4771 105.442 85.8955C102.414 82.9514 100.247 79.6377 98.8331 77.0439C94.9574 78.8851 90.4479 80.0764 85.3413 79.9108V79.9098Z" fill="url(#paint3_linear_398_12)"/>
<path d="M117.873 46.2477C117.809 45.5521 116.852 45.4099 116.587 46.0568L114.104 52.1227C113.624 53.2946 113.517 54.5854 113.796 55.8213L114.945 59.2214C115.322 60.8889 114.969 62.6346 113.968 64.0219C111.572 67.3407 106.422 73.4401 98.8341 77.0443C100.247 79.638 102.415 82.9507 105.443 85.8958C110.857 81.2791 115.378 75.1726 117.616 67.097C118.861 66.6461 119.645 65.4152 119.528 64.098L117.873 46.2477Z" fill="url(#paint4_linear_398_12)"/>
<path d="M93.0002 89.1231C84.909 81.2526 70.1019 78.2557 61.5611 77.1488C57.8196 76.6633 54.2674 78.9067 53.1311 82.4997C49.8373 92.9132 40.8173 120.027 39.0402 124.699C37.5814 128.532 36.0464 132.28 35.0688 134.625C34.4849 136.025 35.138 137.634 36.5377 138.223C43.8314 141.292 56.841 144.525 62.1114 145.778C63.2711 146.053 64.3656 145.139 64.3056 143.951C64.2547 142.943 64.4795 141.94 64.9556 141.05L82.9813 107.332C95.9278 120.29 106.729 120.992 114.829 117.607C113.226 113.397 112.103 109.155 111.451 104.881C99.1586 103.409 93.0002 89.1252 93.0002 89.1252V89.1231Z" fill="url(#paint5_linear_398_12)"/>
<path d="M131.48 101.59L129.133 98.7729C122.258 104.012 116.364 105.468 111.45 104.879C112.102 109.154 113.225 113.396 114.828 117.605C125.499 113.146 131.48 101.589 131.48 101.589V101.59Z" fill="url(#paint6_linear_398_12)"/>
<path d="M129.931 101.721L142.347 101.581L153.435 94.6464C151.745 93.704 142.591 96.2632 142.591 96.2632C142.591 96.2632 132.837 95.2872 130.216 95.4162C128.04 95.5228 128.508 98.6314 128.729 99.6815C128.774 99.8958 128.809 100.025 128.809 100.025L129.932 101.721H129.931Z" fill="url(#paint7_linear_398_12)"/>
<path d="M72.4385 61.4004L66.7032 77.6553C66.7032 77.6553 74.4771 82.469 80.4951 81.6718L83.0362 67.187L72.4385 61.4004Z" fill="url(#paint8_linear_398_12)"/>
<path d="M84.1237 47.2134C84.1237 47.2134 89.2272 56.6123 89.9566 61.7134C90.6859 66.8145 92.0806 70.045 86.2334 71.5896C80.3863 73.1343 75.1291 70.6127 71.9777 65.7401C71.9777 65.7401 67.0512 58.2382 67.7246 54.9346C68.398 51.63 84.1227 47.2134 84.1227 47.2134H84.1237Z" fill="url(#paint9_linear_398_12)"/>
<path d="M73.6887 61.8941L74.0132 61.7164C74.4272 61.4899 74.5666 60.9628 74.3143 60.5647C73.3378 59.0221 71.3846 55.4626 73.4191 54.4176C76.0396 53.071 86.6129 49.9512 88.6057 45.9378C90.5201 42.0807 88.1337 37.5219 85.0453 36.4322C84.8388 36.3591 84.6099 36.4505 84.5255 36.6526L84.318 37.1421C84.1766 37.4772 83.6985 37.4691 83.5672 37.1299C83.4411 36.8039 82.9904 36.7775 82.8318 37.0883C82.2163 38.2907 80.4494 40.3055 75.3784 41.6999C68.1712 43.6812 63.5854 47.0579 63.9018 52.1204C63.9221 52.4424 63.5956 52.6506 63.3067 52.5064C62.737 52.224 61.8591 52.1438 60.7859 53.2152C58.9203 55.0767 60.1227 59.3857 64.8437 62.609C65.0675 62.7624 65.095 63.0884 64.8804 63.2559C64.1256 63.8439 63.0412 65.1835 66.2719 66.5646C69.6136 67.9935 71.9858 67.6482 72.8912 67.4177C73.116 67.3608 73.2442 67.1272 73.175 66.9058L71.8109 62.5501C71.7336 62.3034 71.9045 62.0495 72.1628 62.0271L73.6897 61.8951L73.6887 61.8941Z" fill="url(#paint10_linear_398_12)"/>
<path d="M73.9542 62.8153C73.9542 62.8153 71.7895 56.7169 69.1396 58.7074C66.4896 60.6979 71.1985 65.5715 73.471 65.6111L73.9542 62.8153Z" fill="url(#paint11_linear_398_12)"/>
<path d="M157.896 39.3273C157.888 39.3273 157.882 39.3273 157.875 39.3273C157.404 39.3162 157.03 38.9262 157.041 38.455C157.044 38.329 157.269 25.8398 152.192 21.1073C150.744 19.7587 149.039 19.1961 146.987 19.3829C136.384 20.3548 135.747 36.9083 135.742 37.0748C135.728 37.545 135.337 37.9147 134.862 37.9005C134.39 37.8863 134.02 37.4922 134.035 37.022C134.041 36.8382 134.193 32.4734 135.789 27.9044C137.962 21.6811 141.78 18.147 146.832 17.6839C149.367 17.4503 151.563 18.1846 153.362 19.8623C158.998 25.1177 158.764 37.9502 158.751 38.4946C158.741 38.9587 158.36 39.3273 157.898 39.3273H157.896Z" fill="url(#paint12_linear_398_12)"/>
<path d="M110.092 90.7446L122.481 32.2773L155.267 33.7672L161.915 97.2492L112.724 94.1995C110.974 94.0908 109.729 92.4568 110.092 90.7446Z" fill="url(#paint13_linear_398_12)"/>
<path d="M161.594 34.7029L155.267 33.7686L161.915 97.2506L168.23 97.6426C169.511 97.7218 170.54 96.6067 170.357 95.3393L161.594 34.7039V34.7029Z" fill="url(#paint14_linear_398_12)"/>
<path d="M150.866 38.7558C150.859 38.7558 150.853 38.7558 150.846 38.7558C150.375 38.7446 150.001 38.3546 150.012 37.8834C150.015 37.7575 150.24 25.2682 145.163 20.5358C143.715 19.1871 142.01 18.6245 139.957 18.8114C129.355 19.7832 128.718 36.3367 128.713 36.5033C128.699 36.9735 128.31 37.338 127.833 37.3289C127.361 37.3147 126.991 36.9207 127.006 36.4505C127.012 36.2666 127.163 31.9018 128.76 27.3328C130.932 21.1096 134.751 17.5754 139.803 17.1124C142.336 16.8798 144.533 17.613 146.333 19.2907C151.969 24.5462 151.735 37.3787 151.722 37.923C151.712 38.3871 151.331 38.7558 150.868 38.7558H150.866Z" fill="url(#paint15_linear_398_12)"/>
</g>
<path d="M134.972 60.05C133.834 66.4703 130.496 69.2143 127.419 68.671C124.273 68.1155 122.296 64.3833 123.299 58.5205C124.32 52.7563 127.447 49.3948 130.904 50.0052C134.464 50.6338 135.942 54.568 134.971 60.05H134.972ZM125.222 81.476L143.834 52.2891L146.254 52.7167L127.642 81.9036L125.222 81.476ZM126.583 58.9075C125.926 62.4162 126.403 65.1582 128.096 65.4567C129.791 65.7563 131.051 63.4663 131.708 59.7646C132.306 56.3909 132.096 53.5504 130.264 53.2275C128.536 52.9218 127.19 55.4871 126.584 58.9075H126.583ZM148.218 75.4376C147.088 81.8101 143.776 84.608 140.664 84.0586C137.554 83.5092 135.542 79.7709 136.588 73.8665C137.601 68.15 140.737 64.7408 144.159 65.345C147.72 65.9737 149.189 69.9546 148.218 75.4366V75.4376ZM139.828 74.2941C139.179 77.7551 139.647 80.5448 141.341 80.8433C143.069 81.149 144.296 78.8529 144.952 75.1512C145.558 71.7308 145.34 68.937 143.509 68.6141C141.78 68.3084 140.435 70.8737 139.828 74.2941Z" fill="white"/>
<path d="M124.224 190.344L123.65 199.456C123.458 202.507 125.227 205.346 128.055 206.522L134.756 209.309C136.569 210.063 137.876 211.664 138.296 213.578C139.354 218.396 140.957 223.022 143.04 227.387C143.885 229.159 143.837 231.226 142.867 232.933L139.28 239.244C137.768 241.904 138.113 245.228 140.14 247.523L146.188 254.37C148.214 256.665 151.475 257.422 154.308 256.258L161.029 253.496C162.847 252.749 164.907 252.96 166.563 254.019C170.64 256.628 175.037 258.794 179.692 260.445C181.543 261.102 182.969 262.596 183.491 264.486L185.422 271.473C186.237 274.421 188.836 276.529 191.893 276.72L201.02 277.292C204.077 277.484 206.92 275.718 208.098 272.895L210.89 266.205C211.645 264.395 213.248 263.09 215.166 262.671C219.991 261.614 224.626 260.014 228.997 257.935C230.773 257.091 232.842 257.139 234.554 258.108L240.875 261.689C243.539 263.198 246.869 262.853 249.166 260.83L256.026 254.792C258.324 252.769 259.082 249.514 257.917 246.686L255.15 239.976C254.401 238.16 254.612 236.105 255.674 234.451C258.287 230.381 260.457 225.991 262.111 221.344C262.768 219.496 264.265 218.073 266.158 217.552L273.157 215.623C276.11 214.81 278.22 212.215 278.412 209.163L278.986 200.051C279.178 196.999 277.409 194.162 274.582 192.985L267.88 190.197C266.067 189.443 264.76 187.843 264.34 185.928C263.282 181.111 261.678 176.484 259.596 172.119C258.751 170.347 258.799 168.28 259.769 166.572L263.356 160.261C264.868 157.602 264.523 154.277 262.496 151.984L256.449 145.136C254.422 142.842 251.162 142.084 248.329 143.249L241.608 146.011C239.79 146.759 237.73 146.547 236.074 145.488C231.997 142.879 227.6 140.713 222.945 139.062C221.094 138.406 219.668 136.911 219.146 135.021L217.215 128.034C216.4 125.086 213.801 122.979 210.744 122.788L201.616 122.215C198.559 122.023 195.716 123.789 194.538 126.612L191.746 133.304C190.991 135.113 189.388 136.418 187.47 136.838C182.645 137.894 178.01 139.494 173.638 141.572C171.862 142.416 169.792 142.368 168.081 141.4L161.76 137.819C159.096 136.31 155.766 136.654 153.468 138.677L146.608 144.715C144.31 146.737 143.551 149.993 144.718 152.821L147.485 159.53C148.234 161.346 148.023 163.402 146.961 165.055C144.348 169.125 142.178 173.515 140.524 178.163C139.867 180.01 138.37 181.434 136.476 181.955L129.478 183.883C126.525 184.697 124.414 187.291 124.222 190.343L124.224 190.344ZM148.811 191.095C153.601 162.144 180.991 142.551 209.991 147.334C238.99 152.116 258.616 179.461 253.825 208.412C249.035 237.362 221.644 256.955 192.645 252.173C163.645 247.391 144.02 220.045 148.811 191.095Z" fill="url(#paint16_linear_398_12)"/>
<mask id="mask1_398_12" style="mask-type:luminance" maskUnits="userSpaceOnUse" x="120" y="93" width="155" height="160">
<path d="M164.766 244.014L120.526 166.756L222.052 93.7539L274.067 166.658L229.449 245.047C214.034 255.212 191.287 255.378 164.765 244.015L164.766 244.014Z" fill="white"/>
</mask>
<g mask="url(#mask1_398_12)">
<path d="M200.264 129.896C200.264 129.896 197.61 111.32 218.184 117.781C218.184 117.781 228.483 116.911 228.254 126.535C228.254 126.535 234.473 131.357 229.027 139.277C229.027 139.277 243.483 135.776 250.255 146.057C256.626 155.729 251.017 178.02 242.647 179.828C242.647 179.828 249.411 184.103 245.69 191.36C241.969 198.618 229.139 201.677 220.466 191.828C220.466 191.828 193.49 193.276 195.492 174.489C195.492 174.489 183.697 165.518 197.954 150.971C212.211 136.423 200.266 129.897 200.266 129.897L200.264 129.896Z" fill="url(#paint17_linear_398_12)"/>
<path d="M152.126 177.859C152.126 177.859 150.75 198.529 166.569 204.136C182.387 209.743 195.747 179.719 195.747 179.719L193.29 212.371C193.29 212.371 181.032 226.768 160.174 215.451C139.317 204.134 143.584 178.782 143.584 178.782C143.584 178.782 131.092 176.89 134.314 164.365C134.534 163.506 135.697 163.361 136.124 164.138C137.706 167.018 141.044 171.906 145.846 172.795C152.734 174.069 152.125 177.859 152.125 177.859H152.126Z" fill="url(#paint18_linear_398_12)"/>
<path d="M195.815 172.131C200.123 171.198 212.562 169.824 223.384 181.471C225.219 183.446 225.812 186.278 224.905 188.816C220.877 200.082 210.144 235.488 216.242 250.764C216.242 250.764 201.572 263.734 188.527 251.328C188.527 251.328 185.024 221.699 177.769 209.126C172.76 200.446 189.191 178.878 193.328 173.681C193.955 172.894 194.831 172.343 195.815 172.131Z" fill="url(#paint19_linear_398_12)"/>
<path d="M209.221 150.166C209.221 150.166 214.077 168.231 213.941 176.023C213.941 176.023 206.816 178.613 200.743 172.837C200.743 172.837 201.432 155.223 200.693 152.002L209.221 150.166Z" fill="url(#paint20_linear_398_12)"/>
<path d="M202.441 125.521C202.441 125.521 184.383 147.008 193.602 154.373C202.821 161.738 215.674 146.469 215.674 146.469C215.674 146.469 220.424 134.31 216.802 129.778C213.179 125.247 202.44 125.521 202.44 125.521H202.441Z" fill="url(#paint21_linear_398_12)"/>
<path d="M210.403 120.67C210.403 120.67 202.784 121.858 201.472 125.157C200.159 128.454 211.573 132.494 214.828 132.9L216.398 146.741C216.398 146.741 225.178 134.517 222.673 126.869C220.169 119.221 210.403 120.669 210.403 120.669V120.67Z" fill="url(#paint22_linear_398_12)"/>
<path d="M212.649 144.55C212.649 144.55 219.559 137.714 221.708 142.688C223.856 147.661 215.351 150.609 212.686 148.043L212.649 144.551V144.55Z" fill="url(#paint23_linear_398_12)"/>
<path d="M141.922 174.016C141.922 174.016 145.191 177.233 146.723 176.943C150.693 176.195 158.048 175.501 161.431 177.942C166.118 181.324 170.138 193.281 175.648 202.715C181.158 212.15 198.325 221.635 208.371 215.769C218.416 209.903 211.66 187.268 221.719 185.185C231.777 183.102 229.286 212.719 226.139 218.837C222.991 224.955 208.796 240.687 185.976 228.805C163.156 216.923 158.666 187.044 158.666 187.044C158.666 187.044 151.537 185.298 147.776 183.608C144.015 181.918 141.922 174.015 141.922 174.015V174.016Z" fill="url(#paint24_linear_398_12)"/>
</g>
<defs>
<linearGradient id="paint0_linear_398_12" x1="291.493" y1="274.379" x2="90.4388" y2="98.1617" gradientUnits="userSpaceOnUse">
<stop stop-color="#DAE3FE"/>
<stop offset="1" stop-color="#E9EFFD"/>
</linearGradient>
<linearGradient id="paint1_linear_398_12" x1="12.198" y1="35.2087" x2="392.032" y2="372.285" gradientUnits="userSpaceOnUse">
<stop stop-color="#09005D"/>
<stop offset="1" stop-color="#1A0F91"/>
</linearGradient>
<linearGradient id="paint2_linear_398_12" x1="33.1796" y1="186.733" x2="72.2462" y2="184.764" gradientUnits="userSpaceOnUse">
<stop stop-color="#09005D"/>
<stop offset="1" stop-color="#1A0F91"/>
</linearGradient>
<linearGradient id="paint3_linear_398_12" x1="151.157" y1="-14.4826" x2="83.9551" y2="82.0508" gradientUnits="userSpaceOnUse">
<stop stop-color="#4F52FF"/>
<stop offset="1" stop-color="#4042E2"/>
</linearGradient>
<linearGradient id="paint4_linear_398_12" x1="113.16" y1="64.6114" x2="168.647" y2="31.439" gradientUnits="userSpaceOnUse">
<stop stop-color="#FEBBBA"/>
<stop offset="1" stop-color="#FF928E"/>
</linearGradient>
<linearGradient id="paint5_linear_398_12" x1="77.5163" y1="78.4938" x2="71.4335" y2="189.297" gradientUnits="userSpaceOnUse">
<stop stop-color="#4F52FF"/>
<stop offset="1" stop-color="#4042E2"/>
</linearGradient>
<linearGradient id="paint6_linear_398_12" x1="146.777" y1="68.6154" x2="103.738" y2="128.146" gradientUnits="userSpaceOnUse">
<stop stop-color="#FEBBBA"/>
<stop offset="1" stop-color="#FF928E"/>
</linearGradient>
<linearGradient id="paint7_linear_398_12" x1="155.854" y1="75.1763" x2="112.813" y2="134.708" gradientUnits="userSpaceOnUse">
<stop stop-color="#FEBBBA"/>
<stop offset="1" stop-color="#FF928E"/>
</linearGradient>
<linearGradient id="paint8_linear_398_12" x1="93.2692" y1="36.6782" x2="52.9341" y2="120.715" gradientUnits="userSpaceOnUse">
<stop stop-color="#FEBBBA"/>
<stop offset="1" stop-color="#FF928E"/>
</linearGradient>
<linearGradient id="paint9_linear_398_12" x1="85.8895" y1="55.8363" x2="63.185" y2="76.5684" gradientUnits="userSpaceOnUse">
<stop stop-color="#FEBBBA"/>
<stop offset="1" stop-color="#FF928E"/>
</linearGradient>
<linearGradient id="paint10_linear_398_12" x1="67.4782" y1="42.5875" x2="92.6269" y2="69.8235" gradientUnits="userSpaceOnUse">
<stop stop-color="#E1473D"/>
<stop offset="1" stop-color="#E9605A"/>
</linearGradient>
<linearGradient id="paint11_linear_398_12" x1="82.53" y1="52.1574" x2="59.8254" y2="72.8885" gradientUnits="userSpaceOnUse">
<stop stop-color="#FEBBBA"/>
<stop offset="1" stop-color="#FF928E"/>
</linearGradient>
<linearGradient id="paint12_linear_398_12" x1="134.63" y1="27.3407" x2="159.347" y2="28.8767" gradientUnits="userSpaceOnUse">
<stop stop-color="#2B3582"/>
<stop offset="1" stop-color="#150E42"/>
</linearGradient>
<linearGradient id="paint13_linear_398_12" x1="161.071" y1="48.3343" x2="76.2428" y2="122.394" gradientUnits="userSpaceOnUse">
<stop stop-color="#FF928E"/>
<stop offset="1" stop-color="#FE7062"/>
</linearGradient>
<linearGradient id="paint14_linear_398_12" x1="207.774" y1="20.7187" x2="159.679" y2="68.3828" gradientUnits="userSpaceOnUse">
<stop stop-color="#FF928E"/>
<stop offset="1" stop-color="#FE7062"/>
</linearGradient>
<linearGradient id="paint15_linear_398_12" x1="127.601" y1="26.7702" x2="152.318" y2="28.3062" gradientUnits="userSpaceOnUse">
<stop stop-color="#2B3582"/>
<stop offset="1" stop-color="#150E42"/>
</linearGradient>
<linearGradient id="paint16_linear_398_12" x1="417.493" y1="89.3196" x2="-34.6082" y2="321.052" gradientUnits="userSpaceOnUse">
<stop stop-color="#09005D"/>
<stop offset="1" stop-color="#1A0F91"/>
</linearGradient>
<linearGradient id="paint17_linear_398_12" x1="212.575" y1="115.777" x2="228.411" y2="190.999" gradientUnits="userSpaceOnUse">
<stop stop-color="#4F52FF"/>
<stop offset="1" stop-color="#4042E2"/>
</linearGradient>
<linearGradient id="paint18_linear_398_12" x1="121.333" y1="195.808" x2="153.087" y2="192.067" gradientUnits="userSpaceOnUse">
<stop stop-color="#FEBBBA"/>
<stop offset="1" stop-color="#FF928E"/>
</linearGradient>
<linearGradient id="paint19_linear_398_12" x1="233.481" y1="254.761" x2="185.925" y2="188.173" gradientUnits="userSpaceOnUse">
<stop stop-color="#FF928E"/>
<stop offset="1" stop-color="#FE7062"/>
</linearGradient>
<linearGradient id="paint20_linear_398_12" x1="196.668" y1="183.453" x2="208.272" y2="162.212" gradientUnits="userSpaceOnUse">
<stop stop-color="#FEBBBA"/>
<stop offset="1" stop-color="#FF928E"/>
</linearGradient>
<linearGradient id="paint21_linear_398_12" x1="200.322" y1="129.962" x2="217.015" y2="175.057" gradientUnits="userSpaceOnUse">
<stop stop-color="#FEBBBA"/>
<stop offset="1" stop-color="#FF928E"/>
</linearGradient>
<linearGradient id="paint22_linear_398_12" x1="209.926" y1="116.334" x2="225.763" y2="191.557" gradientUnits="userSpaceOnUse">
<stop stop-color="#4F52FF"/>
<stop offset="1" stop-color="#4042E2"/>
</linearGradient>
<linearGradient id="paint23_linear_398_12" x1="210.133" y1="126.33" x2="226.827" y2="171.424" gradientUnits="userSpaceOnUse">
<stop stop-color="#FEBBBA"/>
<stop offset="1" stop-color="#FF928E"/>
</linearGradient>
<linearGradient id="paint24_linear_398_12" x1="160.776" y1="213.142" x2="278.959" y2="137.96" gradientUnits="userSpaceOnUse">
<stop stop-color="#FEBBBA"/>
<stop offset="1" stop-color="#FF928E"/>
</linearGradient>
</defs>
</svg>
