<svg width="334" height="334" viewBox="0 0 334 334" fill="none" xmlns="http://www.w3.org/2000/svg">
<path d="M292.554 284.999C285.77 292.135 279.353 296.737 274.282 300.373C214.673 343.112 144.14 330.654 129.149 327.612C107.013 323.12 64.225 314.434 33.2897 278.082C-13.5126 223.083 -6.22495 136.434 30.0785 79.2352C36.7192 68.7727 71.7956 10.7032 143.088 1.39174C186.234 -4.24451 236.528 7.12222 272.95 37.614C349.402 101.619 343.96 230.921 292.555 284.999H292.554Z" fill="url(#paint0_linear_398_13)"/>
<path d="M169.029 91.4329L175.266 87.6825C178.302 89.2118 181.604 90.2687 185.067 90.7625L188.035 97.3996C188.139 97.6322 188.38 97.7729 188.635 97.7515L197.333 96.9821C197.588 96.9594 197.799 96.7781 197.861 96.5312L199.617 89.4754C202.94 88.3804 206.005 86.7605 208.724 84.7219L215.525 87.3187C215.763 87.4094 216.033 87.339 216.197 87.1446L221.802 80.4538C221.966 80.2582 221.987 79.9803 221.856 79.762L218.103 73.5293C219.633 70.4959 220.691 67.1964 221.185 63.7347L227.827 60.7681C228.06 60.6643 228.201 60.4234 228.179 60.1693L227.409 51.4769C227.387 51.2229 227.205 51.0105 226.958 50.9497L219.897 49.195C218.801 45.8741 217.18 42.812 215.14 40.0947L217.739 33.299C217.83 33.0604 217.759 32.7908 217.565 32.6274L210.869 27.0258C210.673 26.8623 210.395 26.8409 210.177 26.9721L203.939 30.7224C200.904 29.1932 197.602 28.1363 194.139 27.6425L191.17 21.0054C191.066 20.7728 190.825 20.632 190.571 20.6535L181.872 21.4241C181.618 21.4468 181.407 21.6281 181.345 21.875L179.589 28.9308C176.265 30.0258 173.201 31.6457 170.482 33.6843L163.681 31.0874C163.442 30.9968 163.173 31.0672 163.009 31.2616L157.403 37.9523C157.24 38.148 157.218 38.4259 157.35 38.6442L161.103 44.8769C159.572 47.9103 158.515 51.2097 158.021 54.6714L151.379 57.6381C151.146 57.7418 151.005 57.9828 151.028 58.2369L151.798 66.9292C151.82 67.1833 152.002 67.3956 152.249 67.4565L159.31 69.2112C160.406 72.5309 162.027 75.5941 164.067 78.3115L161.468 85.1072C161.377 85.3457 161.446 85.6153 161.642 85.7787L168.338 91.3804C168.534 91.5438 168.812 91.5653 169.03 91.4341L169.029 91.4329Z" fill="url(#paint1_linear_398_13)"/>
<path d="M187.414 67.2495C184.849 66.5493 182.66 64.6419 181.719 61.9508C180.203 57.6076 182.506 52.8421 186.852 51.3272C188.958 50.5936 191.223 50.7224 193.231 51.691C195.238 52.6596 196.748 54.3523 197.483 56.4553C198.217 58.5595 198.088 60.8223 197.119 62.8287C196.149 64.8351 194.455 66.3441 192.351 67.0777C190.699 67.6538 188.986 67.6777 187.414 67.2483V67.2495ZM191.476 52.2958C190.092 51.9177 188.628 51.9654 187.244 52.4473C183.516 53.7463 181.542 57.8342 182.842 61.5595C184.142 65.2848 188.232 67.2578 191.96 65.9588C195.688 64.6598 197.663 60.5718 196.363 56.8465C195.733 55.0418 194.437 53.59 192.715 52.7598C192.313 52.5654 191.898 52.4103 191.476 52.2958Z" fill="#91B3FA"/>
<g opacity="0.64">
<path d="M153.1 90.4205C152.815 90.343 152.551 90.1795 152.348 89.935C151.829 89.3076 151.32 88.6587 150.837 88.0074C150.347 87.3501 150.485 86.4209 151.142 85.9318C151.8 85.4427 152.73 85.5799 153.219 86.2372C153.673 86.8479 154.15 87.4551 154.636 88.0443C155.158 88.6765 155.07 89.6106 154.437 90.133C154.05 90.4527 153.549 90.5434 153.099 90.4205H153.1Z" fill="white"/>
<path d="M147.467 81.8118C147.076 81.7056 146.73 81.4396 146.533 81.0507C145.779 79.562 145.094 78.0125 144.496 76.4475C144.203 75.6817 144.586 74.8252 145.353 74.533C146.118 74.2407 146.976 74.6236 147.269 75.3894C147.831 76.859 148.474 78.3131 149.182 79.7123C149.552 80.4436 149.26 81.3358 148.528 81.7056C148.187 81.8786 147.809 81.9072 147.467 81.813V81.8118ZM143.29 69.7353C142.765 69.5921 142.339 69.1639 142.224 68.5937C141.896 66.9512 141.651 65.274 141.497 63.61C141.422 62.7941 142.022 62.0712 142.839 61.996C143.654 61.9209 144.377 62.5221 144.454 63.3368C144.598 64.8971 144.827 66.4704 145.135 68.0128C145.295 68.8168 144.775 69.5969 143.97 69.7579C143.736 69.8045 143.505 69.7937 143.289 69.7353H143.29ZM142.53 56.9801C141.856 56.7964 141.386 56.1546 141.442 55.4329C141.573 53.7665 141.795 52.087 142.101 50.4408C142.25 49.6356 143.025 49.1036 143.832 49.2527C144.635 49.403 145.17 50.176 145.021 50.9824C144.734 52.5271 144.527 54.1029 144.403 55.6667C144.338 56.4838 143.623 57.0934 142.805 57.029C142.71 57.0218 142.618 57.0051 142.528 56.9813L142.53 56.9801ZM145.273 44.5016C145.232 44.4908 145.19 44.4777 145.15 44.4622C144.38 44.1795 143.986 43.3266 144.269 42.5572C144.847 40.9874 145.514 39.4296 146.252 37.9289C146.613 37.1941 147.504 36.89 148.238 37.2514C148.973 37.6128 149.278 38.5015 148.916 39.2363C148.224 40.6451 147.597 42.1063 147.055 43.5807C146.786 44.3083 146.007 44.7008 145.273 44.4992V44.5016ZM151.275 33.2219C151.108 33.1766 150.947 33.1003 150.797 32.9941C150.132 32.5146 149.982 31.5877 150.462 30.9233C151.442 29.5658 152.504 28.2465 153.619 27.0012C154.166 26.3904 155.104 26.3368 155.715 26.8843C156.327 27.4306 156.379 28.3682 155.832 28.9789C154.787 30.1479 153.79 31.3861 152.87 32.6601C152.497 33.1754 151.854 33.3818 151.274 33.2231L151.275 33.2219ZM160.101 23.9832C159.808 23.9033 159.535 23.7316 159.331 23.4751C158.822 22.8333 158.929 21.9005 159.571 21.3912C160.883 20.351 162.263 19.3693 163.675 18.4734C164.368 18.0345 165.284 18.2384 165.725 18.9303C166.164 19.6222 165.959 20.5383 165.268 20.9784C163.943 21.8182 162.647 22.7391 161.417 23.7149C161.032 24.0202 160.542 24.1037 160.101 23.9832ZM171.111 17.4929C170.685 17.376 170.315 17.073 170.132 16.6341C169.816 15.8778 170.173 15.0094 170.929 14.6933C171.833 14.3163 172.764 13.9597 173.698 13.634C174.349 13.4074 175.013 13.1915 175.67 12.9935C176.455 12.7549 177.282 13.1998 177.52 13.9847C177.758 14.7684 177.313 15.5963 176.528 15.8337C175.911 16.0197 175.287 16.2225 174.675 16.436C173.798 16.7414 172.923 17.0778 172.074 17.4321C171.757 17.5645 171.419 17.5788 171.112 17.4953L171.111 17.4929ZM183.465 14.1994C182.901 14.0456 182.46 13.566 182.382 12.9517C182.281 12.1382 182.858 11.3974 183.671 11.296C185.334 11.0885 187.024 10.968 188.698 10.9358C189.52 10.9215 190.195 11.5728 190.21 12.3911C190.226 13.2106 189.574 13.8869 188.754 13.9024C187.184 13.9322 185.598 14.0456 184.039 14.24C183.841 14.265 183.646 14.2483 183.465 14.1994Z" fill="white"/>
<path d="M196.27 14.3806C195.552 14.185 195.08 13.4776 195.195 12.7249C195.32 11.9149 196.078 11.3591 196.887 11.4831C197.686 11.6048 198.496 11.7503 199.297 11.9149C200.097 12.0796 200.617 12.8645 200.453 13.6673C200.287 14.47 199.502 14.9866 198.699 14.8219C197.947 14.6669 197.185 14.5309 196.437 14.4164C196.38 14.408 196.324 14.3961 196.269 14.3806H196.27Z" fill="white"/>
</g>
<g opacity="0.64">
<path d="M229.01 35.9874C228.66 35.8919 228.345 35.6689 228.139 35.3361C227.74 34.6907 227.316 34.0442 226.88 33.4144C226.414 32.7404 226.583 31.8171 227.258 31.3507C227.931 30.8843 228.856 31.0525 229.323 31.7277C229.787 32.3992 230.238 33.0887 230.664 33.7758C231.095 34.4724 230.879 35.3873 230.182 35.818C229.818 36.0434 229.393 36.0923 229.01 35.9874Z" fill="white"/>
<path d="M187.787 107.402C187.14 107.226 186.675 106.625 186.696 105.926C186.721 105.107 187.406 104.463 188.225 104.488C189.769 104.536 191.334 104.503 192.876 104.391C193.693 104.331 194.405 104.945 194.465 105.762C194.525 106.579 193.91 107.29 193.092 107.35C191.448 107.47 189.781 107.505 188.135 107.455C188.014 107.451 187.898 107.434 187.787 107.404V107.402ZM200.3 106.084C199.797 105.947 199.381 105.548 199.248 105.006C199.052 104.21 199.539 103.408 200.337 103.212C201.743 102.867 203.154 102.45 204.53 101.97L204.795 101.877C205.568 101.603 206.418 102.005 206.692 102.777C206.967 103.548 206.564 104.396 205.792 104.672L205.509 104.772C204.044 105.283 202.543 105.728 201.045 106.094C200.79 106.156 200.536 106.149 200.301 106.084H200.3ZM212.011 101.495C211.64 101.394 211.307 101.148 211.105 100.786C210.707 100.07 210.966 99.1658 211.682 98.7686C213.032 98.0183 214.358 97.1892 215.622 96.3053C216.294 95.8353 217.22 95.9976 217.69 96.6703C218.16 97.3419 217.997 98.2664 217.325 98.7364C215.977 99.6787 214.564 100.563 213.125 101.362C212.772 101.557 212.373 101.594 212.013 101.497L212.011 101.495ZM222.072 93.9614C221.829 93.8946 221.598 93.7645 221.408 93.5725C220.833 92.9892 220.839 92.0504 221.423 91.4743C222.522 90.3911 223.577 89.2365 224.561 88.0448C225.083 87.4126 226.017 87.3219 226.651 87.8432C227.284 88.3645 227.375 89.2997 226.853 89.9319C225.805 91.2023 224.68 92.4321 223.509 93.5868C223.119 93.9721 222.567 94.0962 222.073 93.9614H222.072ZM229.758 84.0117C229.638 83.9795 229.521 83.9306 229.408 83.865C228.697 83.4559 228.454 82.5493 228.863 81.8396C229.634 80.5024 230.347 79.1091 230.978 77.698C231.313 76.95 232.194 76.6148 232.94 76.95C233.688 77.2852 234.022 78.162 233.688 78.9099C233.015 80.4129 232.257 81.8968 231.436 83.3211C231.091 83.9187 230.395 84.1847 229.758 84.0117ZM234.527 72.379C233.744 72.1655 233.278 71.3603 233.483 70.5742C233.872 69.0808 234.188 67.5491 234.422 66.0223C234.546 65.2123 235.303 64.6564 236.114 64.7805C236.93 64.9058 237.481 65.6608 237.357 66.4708C237.107 68.099 236.77 69.7309 236.355 71.3233C236.148 72.1154 235.337 72.5913 234.544 72.385C234.538 72.3838 234.532 72.3814 234.527 72.3802V72.379ZM236.029 59.8993C235.408 59.7299 234.948 59.1669 234.937 58.4918C234.913 56.9482 234.807 55.3879 234.623 53.8539C234.525 53.0404 235.106 52.302 235.92 52.2042C236.735 52.1064 237.474 52.6873 237.571 53.5008C237.767 55.1363 237.881 56.7991 237.907 58.4452C237.92 59.2647 237.266 59.9387 236.446 59.9518C236.301 59.9542 236.162 59.9351 236.03 59.8993H236.029ZM234.133 47.471C233.654 47.3397 233.25 46.97 233.1 46.457C232.887 45.733 232.652 45.0017 232.4 44.2824C232.141 43.5405 231.859 42.795 231.561 42.0661C231.252 41.3075 231.616 40.4414 232.375 40.1325C233.134 39.8235 234.001 40.1874 234.31 40.946C234.626 41.7226 234.927 42.517 235.203 43.3055C235.47 44.0701 235.72 44.8491 235.947 45.6208C236.178 46.4069 235.727 47.2312 234.94 47.4626C234.667 47.5425 234.388 47.5413 234.132 47.471H234.133Z" fill="white"/>
<path d="M177.699 105.98C176.92 105.768 176.452 104.969 176.652 104.183C176.855 103.388 177.662 102.91 178.457 103.112C179.194 103.299 179.948 103.471 180.698 103.622C181.503 103.788 182.021 104.566 181.86 105.368C181.698 106.172 180.916 106.691 180.113 106.53C179.313 106.369 178.51 106.187 177.724 105.986C177.716 105.984 177.707 105.982 177.699 105.979V105.98Z" fill="white"/>
</g>
<path d="M186.818 80.6704C186.537 80.5941 186.349 80.3209 186.386 80.0251C186.389 79.9965 186.395 79.969 186.402 79.9416C186.479 79.6613 186.752 79.4728 187.048 79.5098C188.484 79.6887 189.95 79.7137 191.408 79.5849C201.823 78.6628 209.745 70.06 210.068 59.867C210.094 59.0535 210.07 58.228 209.998 57.3966C209.002 46.1587 199.042 37.8266 187.794 38.8202C182.346 39.3021 177.411 41.8763 173.901 46.0668C171.976 48.3631 170.607 50.9933 169.84 53.7977C169.207 56.1131 168.985 58.5465 169.203 61.0074C169.53 64.7028 170.851 68.2325 173.022 71.217C173.132 71.3685 173.16 71.5546 173.114 71.7228C173.079 71.848 173.004 71.9637 172.891 72.0461C172.626 72.2393 172.254 72.1797 172.061 71.9148C169.764 68.7574 168.368 65.0213 168.02 61.1123C167.79 58.5083 168.024 55.9329 168.692 53.484C169.503 50.5162 170.953 47.7332 172.989 45.3046C176.703 40.8707 181.924 38.1486 187.688 37.6381C199.587 36.5848 210.125 45.4024 211.179 57.2916C211.412 59.9183 211.163 62.4793 210.505 64.8865C208.184 73.3737 200.781 79.9452 191.51 80.7659C190.093 80.8911 188.668 80.878 187.268 80.7289C187.225 80.7241 187.183 80.7193 187.14 80.7146C187.06 80.705 186.98 80.6955 186.899 80.6859C186.87 80.6823 186.842 80.6764 186.815 80.6692L186.818 80.6704Z" fill="#91B3FA"/>
<g opacity="0.64">
<path d="M0.382298 94.4983C0.0958042 94.2382 -0.0546048 93.8398 0.0182123 93.4307C0.129228 92.8104 0.248601 92.1901 0.375135 91.5722C0.504057 90.9424 1.12121 90.5356 1.7515 90.6644C2.38298 90.7933 2.78884 91.4088 2.65992 92.0398C2.53697 92.6398 2.42118 93.2398 2.31374 93.841C2.20034 94.4744 1.59512 94.8967 0.961253 94.7834C0.736833 94.7428 0.538675 94.6414 0.382298 94.4995V94.4983Z" fill="white"/>
<path d="M2.16093 86.903C1.84221 86.6131 1.69657 86.1562 1.8255 85.7149C2.17048 84.5304 2.54889 83.3387 2.95118 82.1757C3.16127 81.5673 3.82498 81.2441 4.43378 81.4552C5.04258 81.6663 5.36608 82.3284 5.15479 82.9367C4.76444 84.064 4.39797 85.2175 4.06373 86.3662C3.88347 86.9841 3.23648 87.3396 2.61813 87.1594C2.44146 87.1082 2.28627 87.0187 2.15974 86.903H2.16093ZM5.43412 77.885C5.07362 77.5581 4.94469 77.0261 5.15121 76.5549C5.6466 75.4265 6.17662 74.2945 6.72692 73.1911C7.01342 72.6149 7.71413 72.3811 8.2907 72.6674C8.86607 72.9537 9.10124 73.6539 8.81474 74.2301C8.28234 75.2989 7.76785 76.3963 7.28797 77.4901C7.02893 78.0794 6.34135 78.3478 5.75165 78.0902C5.63228 78.0377 5.52604 77.9673 5.43412 77.885ZM9.84373 69.3632C9.44025 68.997 9.33879 68.3863 9.63006 67.902C10.2675 66.8415 10.9372 65.787 11.6212 64.7659C11.9793 64.2315 12.7039 64.0884 13.2387 64.4463C13.7735 64.8053 13.9167 65.5282 13.5586 66.0626C12.8961 67.0526 12.2467 68.0749 11.6283 69.102C11.2965 69.6531 10.5803 69.832 10.0288 69.5004C9.96191 69.4598 9.89984 69.4133 9.84373 69.3632ZM15.3062 61.4736C14.8562 61.0645 14.7941 60.3726 15.1773 59.8895C15.9425 58.9233 16.7434 57.9631 17.5564 57.035C17.9801 56.5507 18.7179 56.5018 19.2013 56.9265C19.6943 57.3511 19.7349 58.0859 19.31 58.5702C18.5221 59.4685 17.7474 60.3989 17.0049 61.3365C16.605 61.8411 15.872 61.9257 15.3671 61.5261C15.3456 61.5094 15.3253 61.4915 15.305 61.4736H15.3062ZM21.7428 54.3571C21.7249 54.3404 21.7069 54.3237 21.6902 54.3058C21.2414 53.8441 21.2521 53.107 21.7141 52.6584C22.5987 51.7996 23.519 50.9491 24.4489 50.1332C24.9324 49.7085 25.6689 49.7538 26.0939 50.2393C26.5188 50.7224 26.4711 51.4584 25.9876 51.8831C25.0864 52.6751 24.1947 53.4982 23.3376 54.3296C22.8935 54.7614 22.194 54.7674 21.7416 54.3571H21.7428ZM29.0567 48.1315C29.0018 48.0814 28.9517 48.0266 28.9051 47.9645C28.5207 47.448 28.627 46.7192 29.1438 46.3339C30.1334 45.5967 31.1565 44.875 32.1819 44.1868C32.7167 43.8289 33.4401 43.972 33.7994 44.5053C34.1575 45.0397 34.0154 45.7637 33.4806 46.1216C32.4863 46.7884 31.4955 47.4874 30.5357 48.2019C30.0809 48.5407 29.4602 48.4977 29.0555 48.1303L29.0567 48.1315ZM37.1143 42.9104C37.0236 42.8281 36.9448 42.7303 36.8815 42.617C36.5676 42.0551 36.7681 41.3454 37.3292 41.0317C38.4047 40.4305 39.5113 39.8471 40.6179 39.2972C41.1945 39.011 41.8952 39.2471 42.1805 39.8221C42.467 40.3982 42.2318 41.0973 41.6553 41.3835C40.5821 41.9168 39.5089 42.4822 38.468 43.0643C38.0192 43.316 37.4748 43.2372 37.1143 42.9092V42.9104ZM45.7784 38.776C45.6518 38.6614 45.5492 38.5171 45.4811 38.3477C45.2412 37.7501 45.5325 37.0726 46.1305 36.8328C47.2753 36.3747 48.4475 35.9394 49.6138 35.5374C50.2226 35.3274 50.8851 35.6507 51.0964 36.259C51.3065 36.8674 50.983 37.5306 50.3742 37.7406C49.2425 38.1294 48.1073 38.5529 46.9972 38.9966C46.5686 39.1684 46.0983 39.067 45.7784 38.776ZM54.902 35.7914C54.7396 35.6435 54.6167 35.4491 54.5582 35.2201C54.3982 34.5974 54.7731 33.9616 55.3962 33.8006C56.5887 33.494 57.8063 33.2125 59.0156 32.9632C59.6458 32.8331 60.263 33.2387 60.3931 33.8697C60.5232 34.5008 60.1174 35.1163 59.4859 35.2463C58.3137 35.4873 57.1331 35.7604 55.9775 36.0574C55.5824 36.1588 55.1825 36.0455 54.9008 35.7902L54.902 35.7914ZM64.3324 34.0033C64.133 33.822 63.9958 33.5727 63.96 33.2852C63.8812 32.6471 64.3348 32.0649 64.9734 31.9862C66.1958 31.8347 67.4397 31.7119 68.6692 31.6212C69.3114 31.5735 69.8701 32.0554 69.9178 32.6972C69.9656 33.3389 69.4833 33.8972 68.8411 33.9449C67.6497 34.0332 66.4441 34.1525 65.2587 34.2992C64.9078 34.3421 64.5735 34.2252 64.3312 34.0045L64.3324 34.0033ZM73.9132 33.4439C73.6769 33.2292 73.5288 32.919 73.5312 32.5743C73.5348 31.9313 74.06 31.4125 74.7047 31.416C75.9342 31.4232 77.1828 31.4626 78.4147 31.5305C79.057 31.5663 79.55 32.1162 79.5142 32.7592C79.4783 33.4021 78.928 33.8936 78.2846 33.8578C77.0909 33.791 75.8805 33.754 74.6891 33.7469C74.3895 33.7445 74.1173 33.63 73.912 33.4439H73.9132ZM83.4833 34.1262C83.2087 33.8769 83.0571 33.5 83.112 33.1051C83.1992 32.4681 83.7877 32.0208 84.4251 32.1091C85.6439 32.2761 86.8758 32.4765 88.0863 32.7031C88.719 32.8224 89.1356 33.4308 89.0174 34.063C88.898 34.6952 88.2892 35.1115 87.6565 34.9934C86.4831 34.7727 85.2894 34.5795 84.1088 34.4173C83.8665 34.3839 83.6516 34.2789 83.4833 34.1262ZM92.8791 36.0431C92.5651 35.758 92.4183 35.3107 92.5389 34.8729C92.7084 34.2526 93.3494 33.8864 93.9713 34.0558C95.1615 34.3815 96.36 34.7405 97.531 35.1234C98.1434 35.3226 98.4764 35.9811 98.2759 36.593C98.0754 37.205 97.4176 37.5378 96.8052 37.3374C95.67 36.9664 94.5097 36.6181 93.3566 36.3032C93.1727 36.2531 93.0116 36.1612 92.8803 36.0419L92.8791 36.0431ZM101.953 39.1672C101.598 38.8451 101.466 38.3215 101.662 37.8551C101.911 37.2622 102.595 36.9819 103.188 37.2312C104.326 37.7084 105.467 38.2189 106.578 38.7497C107.16 39.0265 107.405 39.7231 107.127 40.304C106.849 40.8849 106.153 41.1307 105.572 40.8527C104.494 40.3374 103.389 39.8424 102.286 39.3807C102.159 39.3283 102.048 39.2555 101.951 39.1684L101.953 39.1672ZM134.264 65.2311C134.2 65.1727 134.141 65.1071 134.091 65.0331C133.408 64.0502 132.692 63.0733 131.964 62.1285C131.571 61.6192 131.666 60.8868 132.175 60.4943C132.685 60.1019 133.418 60.1961 133.811 60.7055C134.563 61.68 135.3 62.688 136.006 63.7031C136.374 64.2315 136.242 64.958 135.713 65.3242C135.259 65.6403 134.657 65.5878 134.264 65.23V65.2311ZM110.547 43.4341C110.15 43.0726 110.044 42.4726 110.324 41.9895C110.646 41.4325 111.36 41.2428 111.918 41.5649L112.328 41.8046C113.254 42.3486 114.183 42.9211 115.088 43.5044C115.63 43.8551 115.784 44.5744 115.434 45.116C115.085 45.6564 114.364 45.8114 113.822 45.4619C112.944 44.8953 112.043 44.3406 111.144 43.8122L110.75 43.582C110.676 43.539 110.609 43.4901 110.549 43.4353L110.547 43.4341ZM128.287 57.7245C128.26 57.6995 128.234 57.6732 128.209 57.6458C127.404 56.7619 126.567 55.8863 125.721 55.043C125.265 54.5885 125.264 53.8513 125.717 53.3944C126.171 52.9376 126.912 52.9423 127.366 53.3908C128.24 54.2604 129.103 55.1646 129.933 56.0772C130.367 56.5531 130.331 57.2903 129.855 57.7233C129.406 58.1313 128.727 58.1229 128.287 57.7233V57.7245ZM118.53 48.7638C118.087 48.3606 118.019 47.6783 118.389 47.194C118.78 46.6834 119.512 46.5856 120.023 46.9769C121.002 47.726 121.976 48.5097 122.918 49.3065C123.405 49.7228 123.471 50.4576 123.054 50.9491C122.637 51.4405 121.902 51.5014 121.41 51.0851C120.497 50.3121 119.553 49.5522 118.605 48.827C118.579 48.8067 118.552 48.7852 118.529 48.7626L118.53 48.7638Z" fill="white"/>
<path d="M138.391 71.9014C138.298 71.8167 138.217 71.7153 138.153 71.5984C137.86 71.0628 137.559 70.5296 137.252 70.0012C136.929 69.4453 137.118 68.732 137.675 68.4087C138.231 68.0854 138.945 68.2751 139.268 68.831C139.586 69.3773 139.895 69.926 140.198 70.4795C140.507 71.0437 140.301 71.7523 139.736 72.0612C139.289 72.307 138.749 72.227 138.391 71.9014Z" fill="white"/>
</g>
<g opacity="0.64">
<path d="M149.022 129.192C148.702 128.901 148.557 128.442 148.688 128C148.861 127.413 149.028 126.825 149.186 126.234C149.353 125.613 149.993 125.244 150.615 125.41C151.237 125.577 151.605 126.215 151.44 126.838C151.276 127.446 151.105 128.053 150.925 128.66C150.742 129.277 150.094 129.63 149.476 129.448C149.302 129.396 149.149 129.308 149.022 129.194V129.192Z" fill="white"/>
<path d="M28.0695 163.121C27.5944 162.689 27.5586 161.953 27.9895 161.477C28.4216 161 29.1594 160.963 29.6368 161.395C30.5572 162.227 31.5122 163.048 32.4779 163.834C32.9769 164.238 33.0509 164.974 32.6438 165.473C32.2368 165.972 31.5026 166.046 31.0037 165.639C30.0081 164.828 29.0221 163.98 28.0719 163.121C28.0719 163.121 28.0707 163.12 28.0695 163.118V163.121ZM23.6647 158.786C23.6408 158.764 23.6181 158.742 23.5954 158.718C22.7204 157.78 21.8574 156.808 21.0313 155.826C20.6171 155.334 20.6803 154.599 21.1734 154.185C21.6664 153.771 22.4017 153.834 22.8159 154.327C23.6157 155.278 24.4525 156.22 25.3001 157.128C25.7393 157.598 25.7143 158.336 25.2428 158.775C24.7963 159.193 24.1075 159.19 23.6635 158.786H23.6647ZM35.9039 169.301C35.4801 168.916 35.3954 168.267 35.7284 167.781C36.0925 167.25 36.8183 167.116 37.3495 167.479C38.3737 168.182 39.4313 168.867 40.4926 169.518C41.0405 169.856 41.2136 170.573 40.8769 171.12C40.5403 171.669 39.8217 171.841 39.2738 171.504C38.1791 170.834 37.0881 170.125 36.0316 169.401C35.9863 169.37 35.9445 169.337 35.9051 169.301H35.9039ZM17.3618 151.048C17.2997 150.992 17.2436 150.929 17.1935 150.857C16.4546 149.812 15.7312 148.731 15.0436 147.646C14.6998 147.102 14.8621 146.383 15.4065 146.038C15.9508 145.694 16.6694 145.858 17.0156 146.401C17.6805 147.453 18.3812 148.499 19.0975 149.511C19.4687 150.038 19.3446 150.764 18.8181 151.135C18.3633 151.456 17.7569 151.406 17.3618 151.047V151.048ZM44.4951 174.385C44.1167 174.041 43.9973 173.476 44.2397 172.998C44.5309 172.424 45.2316 172.194 45.807 172.484C46.9172 173.045 48.056 173.585 49.1912 174.087C49.7809 174.348 50.0459 175.036 49.7845 175.624C49.5231 176.212 48.8343 176.478 48.2458 176.217C47.0747 175.698 45.9001 175.142 44.7541 174.563C44.6575 174.514 44.5715 174.454 44.4951 174.385ZM53.6844 178.28C53.3501 177.975 53.2093 177.49 53.3669 177.035C53.5781 176.427 54.2419 176.105 54.8507 176.316C56.0241 176.723 57.225 177.105 58.4187 177.449C59.0382 177.628 59.394 178.275 59.2149 178.893C59.0358 179.511 58.3889 179.867 57.7705 179.688C56.5374 179.332 55.2983 178.938 54.0867 178.518C53.9327 178.465 53.7978 178.382 53.6844 178.28ZM63.3153 180.9C63.0217 180.634 62.8725 180.225 62.956 179.809C63.0826 179.178 63.6973 178.769 64.3288 178.895C65.5464 179.14 66.7855 179.354 68.0114 179.534C68.6489 179.629 69.0894 180.22 68.9951 180.857C68.9008 181.494 68.3087 181.935 67.6712 181.84C66.4047 181.654 65.1262 181.432 63.8704 181.181C63.6556 181.138 63.4669 181.039 63.3153 180.902V180.9ZM73.2053 182.193C72.9523 181.963 72.8031 181.626 72.8257 181.258C72.8663 180.615 73.4202 180.127 74.0624 180.168C75.2991 180.245 76.5561 180.292 77.8012 180.305C78.4458 180.312 78.9615 180.839 78.9543 181.482C78.9471 182.125 78.4195 182.642 77.7761 182.635C76.4917 182.62 75.1941 182.573 73.918 182.493C73.6422 182.476 73.3963 182.364 73.2065 182.192L73.2053 182.193ZM83.1825 182.143C82.9688 181.949 82.8267 181.676 82.8041 181.366C82.7575 180.724 83.241 180.166 83.8832 180.119C85.1211 180.03 86.3745 179.907 87.6088 179.753C88.2486 179.674 88.83 180.127 88.91 180.766C88.9887 181.404 88.5351 181.986 87.8965 182.066C86.6228 182.224 85.3288 182.351 84.0515 182.443C83.7196 182.467 83.4105 182.35 83.1825 182.142V182.143ZM93.0653 180.757C92.8898 180.597 92.7621 180.384 92.7096 180.134C92.5771 179.505 92.9817 178.887 93.612 178.756C94.8272 178.501 96.0532 178.212 97.2565 177.896C97.8784 177.732 98.517 178.103 98.6806 178.726C98.8441 179.348 98.4729 179.985 97.8497 180.149C96.6083 180.476 95.3429 180.774 94.0883 181.036C93.7075 181.116 93.3315 181.001 93.0641 180.757H93.0653ZM102.677 178.064C102.54 177.938 102.43 177.779 102.363 177.591C102.148 176.985 102.466 176.319 103.073 176.104C104.246 175.689 105.423 175.238 106.572 174.764C107.168 174.519 107.848 174.802 108.095 175.396C108.341 175.992 108.057 176.673 107.463 176.919C106.276 177.408 105.062 177.873 103.853 178.301C103.434 178.449 102.985 178.344 102.678 178.064H102.677ZM111.844 174.111C111.743 174.02 111.658 173.909 111.592 173.781C111.297 173.209 111.524 172.506 112.096 172.213C113.2 171.646 114.306 171.041 115.384 170.416C115.941 170.093 116.656 170.283 116.978 170.839C117.301 171.394 117.112 172.108 116.555 172.431C115.443 173.076 114.302 173.7 113.162 174.285C112.716 174.514 112.194 174.428 111.844 174.111ZM120.398 168.962C120.335 168.905 120.277 168.839 120.226 168.767C119.857 168.239 119.986 167.513 120.514 167.144C121.534 166.432 122.549 165.683 123.531 164.92C124.039 164.525 124.772 164.614 125.168 165.124C125.563 165.632 125.472 166.363 124.964 166.759C123.95 167.547 122.902 168.32 121.85 169.055C121.395 169.373 120.792 169.321 120.398 168.963V168.962ZM128.179 162.706C128.154 162.683 128.129 162.659 128.106 162.633C127.669 162.161 127.699 161.422 128.171 160.987C129.085 160.145 129.987 159.267 130.856 158.378C131.306 157.918 132.033 157.904 132.505 158.359C132.965 158.809 132.974 159.546 132.524 160.006C131.627 160.924 130.695 161.83 129.753 162.698C129.306 163.111 128.62 163.108 128.179 162.706ZM135.034 155.457C134.577 155.042 134.522 154.335 134.92 153.853C135.709 152.898 136.485 151.907 137.228 150.906C137.613 150.389 138.342 150.281 138.86 150.665C139.378 151.05 139.486 151.778 139.101 152.296C138.335 153.329 137.533 154.352 136.719 155.337C136.309 155.834 135.574 155.904 135.077 155.495C135.063 155.483 135.047 155.47 135.034 155.458V155.457ZM140.855 147.351C140.447 146.98 140.349 146.36 140.651 145.876C140.968 145.365 141.28 144.85 141.585 144.33C141.914 143.771 142.235 143.21 142.546 142.645C142.858 142.082 143.568 141.878 144.132 142.19C144.694 142.501 144.899 143.211 144.588 143.774C144.265 144.355 143.936 144.934 143.596 145.511C143.28 146.047 142.958 146.579 142.631 147.105C142.292 147.652 141.572 147.82 141.025 147.48C140.963 147.442 140.907 147.399 140.855 147.351ZM145.549 138.546C145.186 138.215 145.058 137.677 145.27 137.206C145.78 136.072 146.267 134.911 146.718 133.754C146.952 133.154 147.628 132.857 148.228 133.091C148.828 133.324 149.125 134 148.892 134.6C148.428 135.794 147.924 136.991 147.398 138.161C147.134 138.748 146.444 139.01 145.856 138.746C145.741 138.695 145.638 138.625 145.55 138.546H145.549Z" fill="white"/>
<path d="M12.1428 142.492C12.0438 142.402 11.959 142.293 11.8934 142.167C11.6021 141.608 11.318 141.044 11.041 140.478C10.7581 139.9 10.9981 139.202 11.577 138.92C12.156 138.638 12.8543 138.877 13.136 139.456C13.4046 140.005 13.6804 140.551 13.9621 141.094C14.2593 141.664 14.0373 142.368 13.4655 142.665C13.0202 142.896 12.4938 142.813 12.1428 142.493V142.492Z" fill="white"/>
</g>
<path d="M14.4097 126.048C14.5016 126.455 14.8419 126.758 15.2561 126.804L27.0835 128.108C29.5115 133.102 32.7537 137.746 36.7658 141.819L34.0417 153.384C33.9462 153.79 34.1181 154.212 34.4714 154.434L46.5388 162.049C46.8921 162.271 47.3469 162.246 47.6716 161.986L56.9516 154.556C62.3556 156.424 67.9446 157.354 73.5014 157.398L79.7636 167.509C79.9833 167.863 80.4035 168.04 80.8105 167.948L94.7317 164.806C95.1388 164.714 95.442 164.374 95.4885 163.96L96.7933 152.142C101.791 149.715 106.439 146.475 110.514 142.466L122.088 145.19C122.494 145.285 122.916 145.113 123.139 144.76L130.759 132.702C130.983 132.35 130.956 131.894 130.696 131.569L123.26 122.296C125.131 116.896 126.061 111.311 126.105 105.758L136.223 99.5007C136.578 99.2812 136.754 98.8614 136.662 98.4546L133.518 84.5435C133.426 84.1367 133.086 83.8337 132.672 83.7872L120.844 82.4834C118.416 77.4889 115.174 72.8451 111.162 68.7727L113.887 57.2068C113.983 56.8012 113.811 56.3801 113.458 56.1571L101.39 48.5419C101.038 48.3188 100.582 48.345 100.257 48.6051L90.9775 56.0354C85.5735 54.1662 79.9833 53.237 74.4277 53.1928L68.1654 43.0822C67.9458 42.7279 67.5256 42.5513 67.1185 42.6432L53.1974 45.7852C52.7903 45.877 52.4871 46.217 52.4405 46.6309L51.1358 58.4497C46.1377 60.876 41.4905 64.117 37.4151 68.125L25.8408 65.4017C25.4349 65.3063 25.0136 65.4781 24.7903 65.8311L17.1696 77.8897C16.9464 78.2416 16.9726 78.6973 17.2329 79.0218L24.6686 88.295C22.7992 93.6951 21.8681 99.2801 21.8239 104.833L11.7059 111.091C11.3514 111.31 11.1747 111.73 11.2667 112.137L14.4109 126.048H14.4097Z" fill="url(#paint2_linear_398_13)"/>
<path d="M64.7454 115.43C63.529 114.324 62.5132 112.995 61.7468 111.486C60.0911 108.225 59.8058 104.516 60.9434 101.04C62.0798 97.5656 64.5031 94.741 67.7667 93.0865C71.0304 91.432 74.7416 91.1469 78.2202 92.2837C85.4004 94.6276 89.3301 102.373 86.9833 109.548C84.6364 116.722 76.8856 120.65 69.7065 118.305C67.8383 117.694 66.1564 116.712 64.7454 115.43ZM81.7882 96.6734C80.61 95.6022 79.193 94.7577 77.5827 94.2316C74.6259 93.2654 71.4685 93.5075 68.6931 94.9151C65.9188 96.3215 63.8573 98.7239 62.8904 101.679C61.9235 104.635 62.1658 107.788 63.5732 110.561C64.9806 113.334 67.3847 115.393 70.3416 116.359C76.4463 118.354 83.0368 115.012 85.0327 108.912C86.5022 104.42 85.0769 99.6651 81.7858 96.6734H81.7882Z" fill="#91B3FA"/>
<path d="M50.6965 131.012C50.5891 130.914 50.4816 130.817 50.3754 130.718C50.3742 130.714 50.3706 130.713 50.3682 130.71C50.3169 130.662 50.2644 130.614 50.213 130.565C50.2095 130.563 50.2095 130.561 50.2071 130.56C50.2035 130.557 50.1987 130.552 50.1951 130.548C50.0614 130.422 49.9289 130.294 49.7976 130.165C49.7833 130.151 49.769 130.138 49.7535 130.122C49.5565 129.929 49.5481 129.615 49.7332 129.413C49.7379 129.408 49.7415 129.403 49.7463 129.398C49.9445 129.197 50.2727 129.197 50.4709 129.391C52.1827 131.07 54.0902 132.575 56.1375 133.868C70.2473 142.771 88.4778 139.962 99.3395 128.03C100.654 126.587 101.859 125.01 102.937 123.304C112.925 107.499 108.187 86.5199 92.3658 76.538C78.256 67.6346 60.0254 70.4437 49.1638 82.3759C47.8495 83.8192 46.6438 85.3962 45.5659 87.102C42.2819 92.2981 40.4711 98.2755 40.3302 104.386C40.3278 104.514 40.2777 104.631 40.1977 104.718C40.101 104.824 39.9613 104.89 39.8062 104.886C39.5233 104.879 39.3 104.645 39.306 104.363C39.4516 98.0667 41.3174 91.9092 44.7004 86.5557C45.8106 84.7986 47.0533 83.1739 48.4069 81.6876C59.5969 69.3952 78.3777 66.5002 92.9149 75.6732C109.209 85.9557 114.095 107.569 103.805 123.853C102.695 125.61 101.452 127.234 100.099 128.721C88.9087 141.012 70.1279 143.908 55.5908 134.735C53.8503 133.637 52.2089 132.388 50.6953 131.013L50.6965 131.012Z" fill="#91B3FA"/>
<g opacity="0.64">
<path d="M125.548 216.656C124.488 216.428 123.659 215.526 123.575 214.391C123.473 213.031 123.399 211.651 123.352 210.288C123.305 208.905 124.39 207.745 125.773 207.699C127.157 207.653 128.318 208.735 128.365 210.118C128.409 211.413 128.481 212.727 128.576 214.02C128.679 215.4 127.643 216.601 126.262 216.704C126.017 216.721 125.777 216.704 125.548 216.655V216.656Z" fill="white"/>
<path d="M128.742 210.149C127.516 209.886 126.654 208.743 126.775 207.465C127.028 204.772 127.392 202.052 127.856 199.382C128.094 198.019 129.392 197.105 130.756 197.343C132.112 197.563 133.035 198.877 132.797 200.24C132.356 202.782 132.008 205.371 131.768 207.934C131.639 209.312 130.416 210.324 129.037 210.194C128.937 210.185 128.838 210.169 128.742 210.149ZM132.814 189.689C132.743 189.674 132.673 189.656 132.603 189.634C131.279 189.229 130.534 187.827 130.94 186.504C131.735 183.911 132.64 181.324 133.629 178.812C134.135 177.524 135.589 176.892 136.881 177.397C138.17 177.904 138.804 179.359 138.297 180.646C137.355 183.039 136.493 185.504 135.735 187.974C135.351 189.228 134.072 189.96 132.814 189.69V189.689ZM140.924 170.477C140.691 170.427 140.462 170.343 140.244 170.223C139.03 169.557 138.586 168.033 139.252 166.82C140.556 164.445 141.972 162.094 143.456 159.833C144.216 158.675 145.772 158.353 146.928 159.113C148.086 159.873 148.409 161.426 147.65 162.583C146.236 164.733 144.891 166.971 143.649 169.232C143.103 170.225 141.981 170.704 140.925 170.477H140.924ZM152.8 153.321C152.405 153.237 152.026 153.055 151.697 152.774C150.646 151.873 150.524 150.292 151.425 149.241C153.187 147.185 155.055 145.174 156.976 143.26C157.958 142.283 159.545 142.286 160.523 143.266C161.5 144.246 161.498 145.833 160.517 146.81C158.688 148.631 156.909 150.546 155.232 152.502C154.612 153.225 153.669 153.509 152.799 153.321H152.8ZM167.944 138.958C167.384 138.838 166.862 138.526 166.486 138.039C165.641 136.942 165.844 135.369 166.941 134.524C169.09 132.869 171.328 131.28 173.593 129.802C174.752 129.044 176.306 129.37 177.064 130.529C177.822 131.688 177.496 133.241 176.336 133.997C174.18 135.405 172.049 136.918 170.003 138.494C169.396 138.962 168.64 139.109 167.944 138.959V138.958ZM185.691 127.973C184.963 127.817 184.312 127.34 183.961 126.619C183.356 125.374 183.874 123.875 185.119 123.27C187.556 122.085 190.068 120.983 192.588 119.992C193.878 119.485 195.334 120.118 195.84 121.405C196.347 122.694 195.714 124.149 194.426 124.655C192.026 125.598 189.634 126.648 187.315 127.775C186.79 128.03 186.221 128.085 185.692 127.972L185.691 127.973ZM205.287 120.812C204.385 120.619 203.623 119.932 203.381 118.977C203.041 117.635 203.854 116.272 205.195 115.933C207.821 115.267 210.505 114.698 213.173 114.241C214.54 114.008 215.835 114.923 216.069 116.287C216.303 117.65 215.386 118.947 214.022 119.181C211.483 119.616 208.928 120.158 206.428 120.791C206.042 120.889 205.652 120.891 205.287 120.812ZM292.036 138.562C291.686 138.487 291.347 138.336 291.043 138.104C288.995 136.543 286.855 135.042 284.686 133.643C283.523 132.893 283.188 131.342 283.939 130.179C284.689 129.016 286.241 128.678 287.406 129.432C289.686 130.902 291.932 132.479 294.085 134.12C295.186 134.96 295.398 136.532 294.557 137.632C293.949 138.43 292.955 138.759 292.035 138.562H292.036ZM225.93 117.793C224.84 117.56 224.002 116.614 223.953 115.448C223.895 114.066 224.97 112.897 226.354 112.839C229.058 112.726 231.803 112.718 234.513 112.817C235.892 112.868 236.978 114.029 236.928 115.412C236.877 116.795 235.714 117.876 234.33 117.826C231.751 117.731 229.139 117.738 226.565 117.847C226.347 117.857 226.136 117.837 225.931 117.793H225.93ZM274.225 127.689C274.037 127.649 273.851 127.587 273.671 127.5C271.342 126.39 268.94 125.358 266.532 124.434C265.24 123.938 264.594 122.487 265.092 121.195C265.588 119.905 267.043 119.264 268.331 119.756C270.86 120.727 273.382 121.81 275.828 122.975C277.078 123.57 277.609 125.066 277.012 126.315C276.502 127.384 275.334 127.927 274.223 127.688L274.225 127.689ZM246.76 119.069C245.458 118.789 244.594 117.535 244.815 116.209C245.042 114.845 246.332 113.921 247.699 114.147C250.371 114.589 253.042 115.139 255.689 115.791C257.034 116.121 257.855 117.48 257.525 118.823C257.194 120.167 255.846 120.984 254.49 120.657C251.968 120.037 249.423 119.513 246.879 119.091C246.839 119.085 246.8 119.077 246.761 119.069H246.76Z" fill="white"/>
<path d="M301.611 139.545C301.129 139.442 300.67 139.195 300.308 138.807C299.415 137.853 298.498 136.909 297.581 136.005C296.596 135.032 296.588 133.445 297.561 132.461C298.535 131.477 300.122 131.467 301.107 132.441C302.069 133.391 303.033 134.383 303.971 135.385C304.916 136.396 304.863 137.982 303.852 138.926C303.229 139.508 302.386 139.711 301.61 139.545H301.611Z" fill="white"/>
</g>
<g opacity="0.64">
<path d="M330.837 221.056C329.655 220.802 328.798 219.723 328.863 218.478C328.928 217.178 328.97 215.863 328.984 214.571C329 213.188 330.135 212.078 331.521 212.094C332.908 212.111 334.015 213.244 334 214.629C333.985 215.986 333.942 217.368 333.873 218.735C333.802 220.117 332.624 221.18 331.24 221.11C331.103 221.102 330.968 221.084 330.838 221.057L330.837 221.056Z" fill="white"/>
<path d="M206.893 315.35C206.886 315.349 206.878 315.346 206.872 315.345C204.788 314.88 202.692 314.344 200.64 313.753C200.128 313.605 199.616 313.453 199.106 313.298C197.781 312.894 197.036 311.492 197.441 310.169C197.846 308.845 199.248 308.099 200.572 308.505C201.057 308.653 201.541 308.798 202.03 308.937C203.985 309.501 205.982 310.012 207.966 310.454C209.318 310.756 210.168 312.096 209.866 313.447C209.566 314.79 208.237 315.64 206.893 315.351V315.35ZM219.458 317.347C218.231 317.083 217.369 315.938 217.492 314.659C217.624 313.282 218.848 312.271 220.227 312.404C222.75 312.645 225.317 312.79 227.853 312.835C229.237 312.858 230.34 314.002 230.316 315.386C230.291 316.769 229.149 317.872 227.764 317.847C225.097 317.799 222.4 317.646 219.749 317.392C219.65 317.383 219.553 317.367 219.458 317.347ZM187.391 308.901C187.224 308.866 187.057 308.812 186.893 308.739C184.454 307.651 182.03 306.456 179.69 305.188C178.473 304.528 178.021 303.007 178.682 301.79C179.342 300.574 180.861 300.122 182.081 300.782C184.309 301.989 186.615 303.127 188.937 304.161C190.201 304.725 190.769 306.207 190.205 307.471C189.713 308.572 188.524 309.145 187.39 308.901H187.391ZM239.995 317.217C238.966 316.996 238.148 316.138 238.029 315.036C237.879 313.66 238.875 312.424 240.251 312.275C242.772 312.002 245.314 311.627 247.805 311.159C249.167 310.905 250.477 311.8 250.732 313.161C250.988 314.521 250.091 315.831 248.729 316.086C246.111 316.576 243.441 316.971 240.792 317.257C240.519 317.287 240.25 317.272 239.995 317.217ZM169.573 298.68C169.246 298.609 168.928 298.472 168.639 298.265C166.476 296.713 164.344 295.054 162.302 293.335C161.244 292.442 161.109 290.862 162 289.804C162.893 288.746 164.474 288.611 165.534 289.502C167.477 291.139 169.507 292.717 171.565 294.195C172.689 295.002 172.947 296.567 172.139 297.692C171.538 298.527 170.519 298.884 169.573 298.681V298.68ZM260.074 312.956C259.226 312.773 258.495 312.155 258.211 311.27C257.788 309.952 258.514 308.541 259.833 308.119C262.247 307.346 264.663 306.468 267.016 305.51C268.298 304.988 269.763 305.604 270.284 306.885C270.807 308.167 270.191 309.629 268.908 310.151C266.438 311.157 263.9 312.079 261.366 312.891C260.933 313.03 260.49 313.045 260.075 312.956H260.074ZM278.899 304.761C278.22 304.615 277.605 304.191 277.238 303.537C276.56 302.33 276.989 300.803 278.197 300.126C280.413 298.883 282.607 297.541 284.716 296.137C285.868 295.37 287.427 295.682 288.194 296.833C288.961 297.984 288.65 299.541 287.496 300.308C285.281 301.782 282.978 303.192 280.652 304.497C280.097 304.809 279.475 304.886 278.898 304.762L278.899 304.761ZM295.713 292.976C295.198 292.865 294.714 292.593 294.344 292.163C293.438 291.116 293.555 289.533 294.603 288.629C296.525 286.971 298.406 285.217 300.193 283.417C301.169 282.435 302.758 282.429 303.739 283.404C304.723 284.379 304.728 285.965 303.753 286.948C301.874 288.839 299.898 290.68 297.879 292.422C297.261 292.956 296.454 293.134 295.712 292.976H295.713ZM309.829 278.058C309.475 277.981 309.133 277.829 308.828 277.594C307.731 276.749 307.526 275.176 308.371 274.079C309.921 272.068 311.41 269.972 312.797 267.849C313.554 266.69 315.108 266.364 316.268 267.122C317.428 267.878 317.754 269.431 316.996 270.589C315.538 272.82 313.973 275.023 312.345 277.137C311.735 277.929 310.745 278.254 309.829 278.059V278.058ZM320.645 260.607C320.452 260.566 320.259 260.5 320.073 260.411C318.828 259.806 318.309 258.305 318.915 257.061C320.023 254.785 321.058 252.433 321.99 250.071C322.499 248.784 323.956 248.149 325.243 248.66C326.531 249.168 327.164 250.623 326.655 251.91C325.675 254.391 324.589 256.862 323.425 259.252C322.909 260.312 321.747 260.844 320.645 260.607ZM327.729 241.346C327.695 241.339 327.661 241.331 327.627 241.322C326.285 240.977 325.48 239.609 325.825 238.27C326.166 236.949 326.485 235.603 326.772 234.265C327.021 233.113 327.247 231.959 327.453 230.806C327.695 229.444 328.997 228.536 330.361 228.778C331.739 229.016 332.634 230.322 332.39 231.684C332.174 232.896 331.935 234.107 331.675 235.319C331.373 236.723 331.039 238.136 330.681 239.522C330.343 240.829 329.036 241.628 327.727 241.347L327.729 241.346Z" fill="white"/>
<path d="M154.143 285.027C153.654 284.922 153.192 284.67 152.828 284.275C151.903 283.272 150.986 282.238 150.104 281.201C149.206 280.148 149.334 278.566 150.388 277.669C151.443 276.772 153.026 276.899 153.923 277.953C154.763 278.94 155.635 279.924 156.515 280.879C157.454 281.897 157.389 283.483 156.37 284.421C155.747 284.995 154.911 285.193 154.142 285.027H154.143Z" fill="white"/>
</g>
<path d="M158.861 268.693C159.156 269.217 159.75 269.496 160.341 269.388L177.208 266.315C182.622 272.21 189.016 277.286 196.234 281.255L197.245 298.347C197.281 298.947 197.693 299.457 198.272 299.619L218.076 305.16C218.655 305.323 219.272 305.099 219.614 304.606L229.36 290.524C237.592 290.877 245.692 289.857 253.382 287.628L266.2 299.006C266.649 299.405 267.302 299.475 267.826 299.18L285.75 289.106C286.274 288.811 286.553 288.217 286.445 287.626L283.37 270.771C289.269 265.362 294.348 258.973 298.321 251.76L315.426 250.749C316.025 250.714 316.537 250.302 316.7 249.723L322.245 229.934C322.407 229.355 322.184 228.739 321.689 228.396L307.598 218.658C307.951 210.432 306.932 202.337 304.7 194.653L316.087 181.844C316.486 181.395 316.557 180.743 316.262 180.219L306.179 162.308C305.885 161.785 305.29 161.506 304.699 161.614L287.832 164.687C282.418 158.792 276.025 153.716 268.806 149.746L267.795 132.654C267.759 132.055 267.348 131.543 266.769 131.381L246.965 125.84C246.386 125.678 245.769 125.901 245.426 126.395L235.681 140.477C227.449 140.124 219.347 141.144 211.657 143.372L198.839 131.993C198.39 131.594 197.736 131.524 197.213 131.819L179.289 141.894C178.765 142.189 178.486 142.783 178.594 143.373L181.669 160.228C175.77 165.638 170.691 172.027 166.718 179.24L149.613 180.25C149.014 180.286 148.502 180.698 148.341 181.276L142.796 201.066C142.633 201.644 142.857 202.261 143.351 202.603L157.443 212.342C157.089 220.568 158.11 228.662 160.34 236.347L148.953 249.156C148.554 249.604 148.484 250.257 148.779 250.78L158.861 268.691V268.693Z" fill="url(#paint3_linear_398_13)"/>
<path d="M228.786 236.89C218.351 235.078 210.519 225.83 210.8 214.941C210.949 209.144 213.35 203.751 217.556 199.757C221.764 195.764 227.277 193.646 233.078 193.795C245.06 194.103 254.547 204.09 254.239 216.058C254.09 221.855 251.69 227.248 247.483 231.242C243.275 235.235 237.762 237.353 231.961 237.204C230.881 237.176 229.819 237.069 228.786 236.89ZM235.085 200.937C234.369 200.813 233.641 200.74 232.9 200.721C224.745 200.511 217.939 206.971 217.729 215.12C217.628 219.069 219.071 222.819 221.793 225.682C224.514 228.546 228.191 230.178 232.14 230.279C236.091 230.38 239.844 228.938 242.709 226.22C245.575 223.5 247.21 219.828 247.311 215.881C247.412 211.933 245.969 208.183 243.248 205.32C241.036 202.992 238.193 201.477 235.085 200.938V200.937Z" fill="#91B3FA"/>
<path d="M224.226 265.258C222.545 264.966 220.869 264.587 219.192 264.119C216.119 263.259 213.132 262.113 210.297 260.712C209.974 260.552 209.653 260.389 209.334 260.222C209.272 260.189 209.21 260.157 209.148 260.124C208.694 259.885 208.465 259.385 208.547 258.906C208.568 258.789 208.607 258.674 208.664 258.565C208.961 258.002 209.661 257.785 210.224 258.082C213.253 259.678 216.48 260.961 219.815 261.894C220.089 261.97 220.364 262.045 220.64 262.117C239.287 266.993 258.36 260.257 270.053 246.334C274.275 241.308 277.534 235.343 279.46 228.648C279.493 228.537 279.525 228.425 279.556 228.313C280.005 226.712 280.368 225.106 280.646 223.502C284.844 199.337 270.085 175.366 245.951 168.615C220.215 161.415 193.416 176.479 186.209 202.195C185.765 203.78 185.402 205.382 185.123 206.994C183.91 213.978 184.239 221.151 186.114 227.993C186.16 228.162 186.166 228.333 186.138 228.495C186.063 228.922 185.751 229.288 185.304 229.411C184.687 229.578 184.053 229.218 183.885 228.602C181.921 221.432 181.576 213.916 182.846 206.599C183.139 204.911 183.518 203.233 183.984 201.572C191.534 174.628 219.618 158.848 246.573 166.39C271.858 173.465 287.32 198.578 282.923 223.895C282.631 225.576 282.251 227.258 281.782 228.935C274.702 254.202 249.564 269.656 224.227 265.257L224.226 265.258Z" fill="#91B3FA"/>
<path d="M126.407 192.465C113.325 194.754 104.611 186.33 98.1398 181.241C89.5963 174.523 83.112 177.992 83.112 177.992L92.4207 195.582C106.067 208.431 119.751 205.262 128.331 200.853C128.399 197.42 127.461 194.567 126.407 192.464V192.465Z" fill="url(#paint4_linear_398_13)"/>
<path d="M144.694 183.999L140.388 186.51C135.232 189.904 130.596 191.732 126.406 192.466C127.46 194.568 128.398 197.422 128.33 200.855C133.793 198.048 137.188 194.74 137.188 194.74C146.93 188.458 144.694 184 144.694 184V183.999Z" fill="url(#paint5_linear_398_13)"/>
<path d="M95.6831 306.682L94.715 311.697C93.0533 320.301 96.4125 328.183 102.219 329.303L109.121 330.634C114.927 331.755 120.98 325.686 122.642 317.082L123.61 312.068C123.675 311.736 123.732 311.402 123.781 311.068L146.068 161.177L131.03 158.277L95.8968 305.691C95.818 306.02 95.7476 306.35 95.6831 306.682ZM102.748 307.636C103.999 301.158 108.136 296.509 111.987 297.251C115.839 297.994 117.947 303.848 116.696 310.326C115.445 316.804 111.308 321.453 107.456 320.71C103.603 319.967 101.495 314.113 102.746 307.635L102.748 307.636Z" fill="url(#paint6_linear_398_13)"/>
<path d="M133.259 106.015L127.64 135.11C127.24 137.182 127.825 139.321 129.223 140.902L136.39 149.006C138.436 151.318 141.785 151.964 144.545 150.578L154.215 145.722C156.101 144.774 157.442 143.005 157.841 140.935L163.46 111.84C164.308 107.451 169.97 106.036 172.702 109.576C179.238 118.041 182.239 129.364 180.003 140.939C175.962 161.862 156.855 173.107 136.715 169.223C116.576 165.339 103.028 147.797 107.069 126.874C109.305 115.298 116.306 105.905 125.525 100.478C129.378 98.2089 134.107 101.628 133.259 106.016V106.015Z" fill="url(#paint7_linear_398_13)"/>
<path d="M136.003 106.543L130.385 135.638C129.985 137.71 130.57 139.849 131.967 141.431L139.135 149.534C141.181 151.847 144.529 152.492 147.289 151.106L156.959 146.25C158.845 145.303 160.186 143.534 160.586 141.463L166.205 112.368C167.052 107.979 172.714 106.565 175.446 110.104C181.982 118.57 184.982 129.892 182.747 141.468C178.707 162.39 159.6 173.635 139.459 169.752C119.32 165.868 105.772 148.325 109.813 127.403C112.049 115.826 119.05 106.434 128.269 101.006C132.123 98.7372 136.851 102.156 136.003 106.544V106.543Z" fill="#91B3FA"/>
<path d="M97.8724 307.105L96.9043 312.12C95.2426 320.724 98.6017 328.606 104.407 329.726L111.309 331.057C117.115 332.177 123.169 326.109 124.83 317.505L125.798 312.49C125.863 312.159 125.92 311.825 125.969 311.491L148.256 161.6L133.219 158.7L98.0849 306.113C98.0073 306.443 97.9356 306.773 97.8712 307.105H97.8724ZM104.937 308.059C106.188 301.581 110.325 296.932 114.176 297.674C118.028 298.417 120.136 304.271 118.885 310.749C117.634 317.227 113.497 321.876 109.645 321.133C105.793 320.39 103.685 314.536 104.936 308.058L104.937 308.059Z" fill="#91B3FA"/>
<path d="M145.256 190.487C145.416 189.547 145.141 188.593 144.517 187.871C143.308 186.473 141.219 184.558 139.704 185.849C137.448 187.772 139.92 194.346 139.92 194.346L142.422 198.164L142.458 200.601C143.812 199.017 144.621 195.121 145.257 190.487H145.256Z" fill="url(#paint8_linear_398_13)"/>
<path d="M59.4107 221.99C57.5318 224.071 54.7432 225.891 52.7784 227.03C55.814 230.637 59.8965 234.231 65.2778 237.722L66.8631 241.103L71.6248 235.176C71.6248 235.176 62.7997 230.994 59.4107 221.99Z" fill="url(#paint9_linear_398_13)"/>
<path d="M87.5765 332.173C87.5765 332.07 87.567 331.964 87.5383 331.857C85.8421 325.635 77.936 321.889 77.936 321.889L74.8371 322.19C73.1564 327.735 73.45 331.109 73.7652 332.61C73.7735 332.652 73.7878 332.692 73.7998 332.733C76.3639 332.913 81.6378 332.963 87.5777 332.173H87.5765Z" fill="url(#paint10_linear_398_13)"/>
<path d="M73.7986 332.733C73.9466 333.233 74.325 333.617 74.8025 333.709C78.4589 334.406 84.2365 333.68 86.6609 333.317C87.1957 333.237 87.5789 332.733 87.5765 332.174C81.6366 332.963 76.3639 332.913 73.7986 332.733Z" fill="url(#paint11_linear_398_13)"/>
<path d="M73.5014 317.596L74.935 323.895C75.0401 324.357 75.403 324.697 75.8351 324.729C76.3639 324.769 77.1172 324.784 77.8716 324.659C78.5484 324.547 79.0068 323.849 78.8731 323.112L77.8537 317.514L73.5014 317.596Z" fill="url(#paint12_linear_398_13)"/>
<path d="M101.024 332.155C97.5943 332.124 95.8132 331.755 94.8893 331.397C94.8941 331.738 94.9024 332.084 94.9203 332.443C94.9394 332.826 95.2295 333.128 95.5793 333.118L114.398 332.642C114.999 332.627 115.337 331.924 115.066 331.379C112.602 331.629 106.325 332.203 101.023 332.155H101.024Z" fill="url(#paint13_linear_398_13)"/>
<path d="M115.066 331.379C115.042 331.331 115.021 331.283 114.988 331.238C113.282 328.949 108.961 324.407 100.558 322.56L96.5426 322.509C96.5426 322.509 94.8141 325.646 94.8893 331.396C95.8132 331.752 97.5931 332.122 101.024 332.154C106.325 332.202 112.602 331.628 115.067 331.378L115.066 331.379Z" fill="url(#paint14_linear_398_13)"/>
<path d="M95.6843 316.447C95.7344 316.745 96.3707 321.278 96.6166 323.035C96.6751 323.453 96.9843 323.771 97.3674 323.809C98.0526 323.879 99.1592 323.931 100.124 323.715C100.644 323.598 101.012 323.09 101.001 322.508L100.866 315.376L95.6843 316.447Z" fill="url(#paint15_linear_398_13)"/>
<path d="M90.8975 233.597C90.8975 233.597 101.271 270.173 101.97 316.433C101.984 317.277 101.405 318.016 100.582 318.205C99.3705 318.484 97.5871 318.822 96.1045 318.808C95.3131 318.801 94.641 318.228 94.4942 317.451C92.9865 309.523 84.3511 264.865 79.7768 257.674C79.7768 257.674 77.6114 297.635 78.9352 318.321C78.9686 318.835 78.5998 319.288 78.0877 319.357C77.3117 319.462 76.0703 319.553 74.485 319.416C73.8834 319.363 73.3904 318.918 73.2937 318.323C72.2002 311.61 65.8783 271.649 65.5691 242.782C65.5512 241.153 69.7125 233.996 69.7125 233.996L90.8975 233.597Z" fill="url(#paint16_linear_398_13)"/>
<path d="M103.519 188.855C101.911 186.917 100.495 184.834 99.3025 182.682C97.6372 179.677 99.2106 184.649 98.7068 181.231C86.5022 172.776 68.4555 177.512 61.4591 178.527C59.1648 178.86 57.0829 180.033 55.6015 181.814C49.7236 188.877 36.8959 208.152 52.7795 227.03C54.7444 225.891 57.5341 224.071 59.4119 221.99C57.6034 217.186 57.3455 211.007 60.8014 203.359C60.9362 203.958 61.0986 204.55 61.2944 205.132C66.5515 220.74 67.0624 233.803 67.109 236.815C67.115 237.224 67.368 237.588 67.7512 237.733C74.3286 240.223 86.8651 238.43 91.0718 237.723C91.8429 237.593 92.3502 236.864 92.2285 236.091C89.8745 221.142 100.034 196.286 102.724 190.058C102.917 189.609 103.189 189.205 103.52 188.856L103.519 188.855Z" fill="url(#paint17_linear_398_13)"/>
<path d="M72.5022 165.695L71.4864 178.563C71.4864 178.563 78.7585 180.603 83.9476 176.796L80.0298 165.191L72.501 165.695H72.5022Z" fill="url(#paint18_linear_398_13)"/>
<path d="M80.6172 150.896C80.7938 151.057 88.2307 164.993 88.2307 164.993L80.1767 169.067L71.1641 156.904C71.1641 156.904 77.6508 148.21 80.616 150.896H80.6172Z" fill="url(#paint19_linear_398_13)"/>
<path d="M74.7667 157.177C74.6294 157.556 74.6724 157.973 74.8861 158.313L79.0677 164.989C79.131 165.091 79.2062 165.181 79.2957 165.261C79.7863 165.702 81.4623 166.976 82.705 165.174C83.7638 163.639 84.7594 162.242 85.8421 161.654C86.4747 161.311 87.265 161.56 87.6016 162.197C88.294 163.507 89.6393 166.179 90.5 168.721C90.716 169.358 90.3973 170.052 89.779 170.317C88.146 171.015 84.9157 172.28 82.0365 172.733C81.5638 172.807 81.0899 172.617 80.801 172.236C79.5273 170.56 75.9378 165.875 74.7202 164.708C73.5897 163.624 71.5484 164.079 70.6317 164.362C70.2831 164.469 69.9095 164.428 69.5931 164.246C68.6465 163.7 66.9848 162.328 68.4352 159.923C68.7957 159.326 68.5916 158.542 68.0007 158.17C66.9419 157.502 65.784 156.234 66.8249 154.125C67.8789 151.99 69.8295 151.763 71.1629 151.9C71.7526 151.961 72.3447 151.641 72.5607 151.089C72.6562 150.843 72.8508 150.632 73.2197 150.55C73.9144 150.395 74.3597 149.749 74.2104 149.054C73.9526 147.861 74.1006 146.303 75.9927 145.217C79.4628 143.223 82.594 146.306 83.426 148.941C84.2568 151.576 80.3712 153.524 77.911 153.883C76.1037 154.146 75.1475 156.141 74.7679 157.181L74.7667 157.177Z" fill="url(#paint20_linear_398_13)"/>
<path d="M76.2899 167.157C76.2899 167.157 74.6438 162.627 72.6514 162.832C70.6579 163.037 69.1252 165.053 71.6416 167.241C74.7715 169.962 76.2899 167.157 76.2899 167.157Z" fill="url(#paint21_linear_398_13)"/>
<path d="M60.1197 202.198C57.3527 195.053 58.1429 186.346 58.1513 186.259L58.8783 186.328C58.8699 186.414 58.0976 194.954 60.8014 201.935L60.1197 202.199V202.198Z" fill="url(#paint22_linear_398_13)"/>
<path d="M79.4031 256.744C79.2408 256.748 79.0904 256.642 79.045 256.478C78.1843 253.4 72.1095 250.113 72.0474 250.081C71.8695 249.986 71.8027 249.765 71.8982 249.587C71.9937 249.409 72.2133 249.343 72.3924 249.438C72.6538 249.578 78.8027 252.904 79.7481 256.283C79.8018 256.477 79.6884 256.677 79.495 256.732C79.464 256.741 79.433 256.745 79.4031 256.745V256.744Z" fill="url(#paint23_linear_398_13)"/>
<path d="M84.8047 146.666L66.1874 161.154C65.9189 161.363 65.5237 161.205 65.4748 160.868L65.2814 159.54C65.2814 159.54 57.5329 151.756 65.4939 144.718C73.4548 137.68 82.847 145.653 82.847 145.653L84.6484 146.01C84.9611 146.072 85.0554 146.472 84.8047 146.667V146.666Z" fill="url(#paint24_linear_398_13)"/>
<defs>
<linearGradient id="paint0_linear_398_13" x1="373.799" y1="429.534" x2="78.739" y2="62.8224" gradientUnits="userSpaceOnUse">
<stop stop-color="#DAE3FE"/>
<stop offset="1" stop-color="#E9EFFD"/>
</linearGradient>
<linearGradient id="paint1_linear_398_13" x1="180.877" y1="-3.57286" x2="199.738" y2="132.472" gradientUnits="userSpaceOnUse">
<stop stop-color="#4F52FF"/>
<stop offset="1" stop-color="#4042E2"/>
</linearGradient>
<linearGradient id="paint2_linear_398_13" x1="131.299" y1="144.523" x2="-46.0871" y2="22.9819" gradientUnits="userSpaceOnUse">
<stop stop-color="#4F52FF"/>
<stop offset="1" stop-color="#4042E2"/>
</linearGradient>
<linearGradient id="paint3_linear_398_13" x1="173.269" y1="146.058" x2="302.664" y2="297.928" gradientUnits="userSpaceOnUse">
<stop stop-color="#4F52FF"/>
<stop offset="1" stop-color="#4042E2"/>
</linearGradient>
<linearGradient id="paint4_linear_398_13" x1="288.131" y1="-57.2541" x2="223.48" y2="30.2985" gradientUnits="userSpaceOnUse">
<stop stop-color="#FF928E"/>
<stop offset="1" stop-color="#FE7062"/>
</linearGradient>
<linearGradient id="paint5_linear_398_13" x1="158.031" y1="160.108" x2="98.0587" y2="239.95" gradientUnits="userSpaceOnUse">
<stop stop-color="#FEBBBA"/>
<stop offset="1" stop-color="#FF928E"/>
</linearGradient>
<linearGradient id="paint6_linear_398_13" x1="343.621" y1="1481.52" x2="283.734" y2="1148.18" gradientUnits="userSpaceOnUse">
<stop stop-color="#4F52FF"/>
<stop offset="1" stop-color="#4042E2"/>
</linearGradient>
<linearGradient id="paint7_linear_398_13" x1="-2545.9" y1="1351.32" x2="-2237.29" y2="1211.34" gradientUnits="userSpaceOnUse">
<stop stop-color="#4F52FF"/>
<stop offset="1" stop-color="#4042E2"/>
</linearGradient>
<linearGradient id="paint8_linear_398_13" x1="132.862" y1="183.326" x2="184.53" y2="236.466" gradientUnits="userSpaceOnUse">
<stop stop-color="#FEBBBA"/>
<stop offset="1" stop-color="#FF928E"/>
</linearGradient>
<linearGradient id="paint9_linear_398_13" x1="52.856" y1="231.746" x2="71.5416" y2="231.394" gradientUnits="userSpaceOnUse">
<stop stop-color="#FEBBBA"/>
<stop offset="1" stop-color="#FF928E"/>
</linearGradient>
<linearGradient id="paint10_linear_398_13" x1="79.3761" y1="289.8" x2="80.8137" y2="341.305" gradientUnits="userSpaceOnUse">
<stop stop-color="#09005D"/>
<stop offset="1" stop-color="#1A0F91"/>
</linearGradient>
<linearGradient id="paint11_linear_398_13" x1="80.6338" y1="311.788" x2="80.5254" y2="253.065" gradientUnits="userSpaceOnUse">
<stop stop-color="#09005D"/>
<stop offset="1" stop-color="#1A0F91"/>
</linearGradient>
<linearGradient id="paint12_linear_398_13" x1="77.0515" y1="311.447" x2="74.8181" y2="334.84" gradientUnits="userSpaceOnUse">
<stop stop-color="#FEBBBA"/>
<stop offset="1" stop-color="#FF928E"/>
</linearGradient>
<linearGradient id="paint13_linear_398_13" x1="104.972" y1="311.741" x2="104.864" y2="253.019" gradientUnits="userSpaceOnUse">
<stop stop-color="#09005D"/>
<stop offset="1" stop-color="#1A0F91"/>
</linearGradient>
<linearGradient id="paint14_linear_398_13" x1="103.779" y1="289.118" x2="105.218" y2="340.625" gradientUnits="userSpaceOnUse">
<stop stop-color="#09005D"/>
<stop offset="1" stop-color="#1A0F91"/>
</linearGradient>
<linearGradient id="paint15_linear_398_13" x1="98.9005" y1="313.534" x2="96.667" y2="336.926" gradientUnits="userSpaceOnUse">
<stop stop-color="#FEBBBA"/>
<stop offset="1" stop-color="#FF928E"/>
</linearGradient>
<linearGradient id="paint16_linear_398_13" x1="128.69" y1="206.195" x2="45.6759" y2="340.601" gradientUnits="userSpaceOnUse">
<stop stop-color="#09005D"/>
<stop offset="1" stop-color="#1A0F91"/>
</linearGradient>
<linearGradient id="paint17_linear_398_13" x1="277.035" y1="-65.4467" x2="212.384" y2="22.1059" gradientUnits="userSpaceOnUse">
<stop stop-color="#FF928E"/>
<stop offset="1" stop-color="#FE7062"/>
</linearGradient>
<linearGradient id="paint18_linear_398_13" x1="80.1527" y1="162.118" x2="70.7782" y2="206.443" gradientUnits="userSpaceOnUse">
<stop stop-color="#FEBBBA"/>
<stop offset="1" stop-color="#FF928E"/>
</linearGradient>
<linearGradient id="paint19_linear_398_13" x1="78.2903" y1="153.597" x2="83.8788" y2="183.125" gradientUnits="userSpaceOnUse">
<stop stop-color="#FEBBBA"/>
<stop offset="1" stop-color="#FF928E"/>
</linearGradient>
<linearGradient id="paint20_linear_398_13" x1="73.2582" y1="167.716" x2="87.7942" y2="151.668" gradientUnits="userSpaceOnUse">
<stop stop-color="#09005D"/>
<stop offset="1" stop-color="#1A0F91"/>
</linearGradient>
<linearGradient id="paint21_linear_398_13" x1="74.4097" y1="184.088" x2="73.1237" y2="163.304" gradientUnits="userSpaceOnUse">
<stop stop-color="#FEBBBA"/>
<stop offset="1" stop-color="#FF928E"/>
</linearGradient>
<linearGradient id="paint22_linear_398_13" x1="94.2089" y1="188.062" x2="29.4642" y2="199.461" gradientUnits="userSpaceOnUse">
<stop stop-color="#E1473D"/>
<stop offset="1" stop-color="#E9605A"/>
</linearGradient>
<linearGradient id="paint23_linear_398_13" x1="81.3537" y1="242.742" x2="74.4234" y2="255.647" gradientUnits="userSpaceOnUse">
<stop stop-color="#4F52FF"/>
<stop offset="1" stop-color="#4042E2"/>
</linearGradient>
<linearGradient id="paint24_linear_398_13" x1="86.6466" y1="67.4937" x2="73.4758" y2="148.578" gradientUnits="userSpaceOnUse">
<stop stop-color="#FF928E"/>
<stop offset="1" stop-color="#FE7062"/>
</linearGradient>
</defs>
</svg>
