<svg width="292" height="290" viewBox="0 0 292 290" fill="none" xmlns="http://www.w3.org/2000/svg">
<g clip-path="url(#clip0_149_3037)">
<path d="M256.924 249.238C249.336 257.062 242.546 261.66 237.347 265.132C186.648 298.993 128.693 289.233 110.775 285.898C81.8655 280.516 57.4626 276.719 36.495 257.772C-11.1468 214.718 -8.83042 124.904 27.5747 69.2679C31.8916 62.6717 68.2412 8.77626 126.322 1.18212C127.742 0.995926 128.802 0.890277 129.731 0.791951C138.716 -0.159932 194.394 -5.1819 239.793 32.8641C246.292 38.3097 256.75 48.133 266.449 63.1152C301.911 117.897 302.023 202.741 256.924 249.238Z" fill="url(#paint0_linear_149_3037)"/>
<path d="M253.692 130.632L244.312 152.016L246.887 153.146L256.267 131.762L253.692 130.632Z" fill="#BDD0FB"/>
<path d="M233.206 110.833L233.791 114.258C233.986 115.406 234.888 116.302 236.036 116.49L238.757 116.938C239.493 117.059 240.116 117.537 240.439 118.21C241.25 119.901 242.247 121.476 243.398 122.91C243.866 123.492 244.028 124.262 243.819 124.979L243.045 127.628C242.718 128.746 243.137 129.946 244.085 130.619L246.919 132.627C247.869 133.3 249.139 133.296 250.085 132.618L252.327 131.008C252.933 130.573 253.714 130.472 254.417 130.718C256.152 131.328 257.967 131.748 259.831 131.953C260.573 132.034 261.231 132.463 261.588 133.118L262.912 135.536C263.471 136.557 264.616 137.111 265.762 136.915L269.186 136.33C270.333 136.135 271.229 135.233 271.417 134.084L271.865 131.363C271.986 130.626 272.464 130.004 273.137 129.681C274.828 128.869 276.401 127.872 277.835 126.72C278.418 126.253 279.187 126.091 279.904 126.3L282.553 127.074C283.669 127.4 284.87 126.982 285.542 126.033L287.55 123.199C288.223 122.249 288.22 120.978 287.541 120.032L285.931 117.79C285.496 117.183 285.395 116.402 285.642 115.699C286.251 113.963 286.671 112.148 286.876 110.283C286.957 109.542 287.386 108.884 288.041 108.526L290.46 107.201C291.48 106.642 292.033 105.497 291.838 104.35L291.253 100.926C291.058 99.778 290.156 98.8816 289.008 98.6933L286.287 98.2456C285.551 98.1242 284.929 97.6462 284.605 96.9736C283.794 95.2822 282.797 93.7079 281.646 92.2738C281.178 91.6912 281.016 90.9213 281.226 90.2048L281.999 87.5552C282.326 86.4381 281.907 85.2372 280.959 84.5646L278.125 82.5563C277.175 81.8837 275.904 81.8878 274.959 82.5657L272.717 84.1745C272.111 84.6096 271.331 84.7111 270.627 84.4642C268.892 83.8544 267.077 83.4349 265.213 83.2299C264.471 83.1483 263.814 82.7194 263.456 82.0646L262.132 79.6452C261.574 78.6242 260.428 78.0709 259.282 78.2665L255.858 78.8512C254.711 79.0468 253.815 79.9485 253.627 81.097L253.179 83.8188C253.058 84.5552 252.58 85.1776 251.908 85.5008C250.217 86.3125 248.643 87.3094 247.209 88.4611C246.626 88.9286 245.857 89.0908 245.14 88.8816L242.492 88.1075C241.375 87.7812 240.174 88.1996 239.502 89.1483L237.494 91.983C236.821 92.9328 236.826 94.2037 237.503 95.1494L239.113 97.392C239.548 97.9987 239.649 98.7791 239.402 99.4841C238.793 101.219 238.373 103.034 238.168 104.899C238.087 105.641 237.658 106.299 237.003 106.657L234.585 107.981C233.564 108.54 233.011 109.685 233.206 110.831V110.833ZM242.36 108.966C241.601 97.8272 250.013 88.1828 261.149 87.4234C272.285 86.664 281.927 95.0793 282.686 106.217C283.446 117.356 275.033 127.001 263.897 127.76C252.761 128.52 243.119 120.104 242.36 108.966Z" fill="#91B3FA"/>
<path d="M246.289 46.233L243.543 46.8423L251.809 84.1045L254.554 83.4952L246.289 46.233Z" fill="#BDD0FB"/>
<path d="M227.886 33.1809L200.556 36.2183L200.867 39.0138L228.197 35.9765L227.886 33.1809Z" fill="#BDD0FB"/>
<path d="M223.939 30.0857L224.371 32.6171C224.515 33.4644 225.182 34.1275 226.03 34.2667L228.041 34.5972C228.585 34.6872 229.045 35.0407 229.284 35.5376C229.884 36.7876 230.62 37.9508 231.471 39.0114C231.816 39.4424 231.937 40.0104 231.782 40.5407L231.21 42.4989C230.968 43.3242 231.278 44.2123 231.98 44.7091L234.074 46.1934C234.776 46.6903 235.715 46.6882 236.415 46.1861L238.072 44.9968C238.521 44.6746 239.097 44.6003 239.618 44.7834C240.9 45.2342 242.242 45.5439 243.62 45.6955C244.168 45.7562 244.654 46.0731 244.919 46.5564L245.898 48.3441C246.311 49.0982 247.157 49.5072 248.004 49.3629L250.534 48.9309C251.382 48.7865 252.045 48.1192 252.184 47.2708L252.514 45.2593C252.604 44.7154 252.958 44.2551 253.454 44.0167C254.704 43.4162 255.867 42.6798 256.927 41.8284C257.358 41.4832 257.926 41.3629 258.456 41.5177L260.414 42.0899C261.239 42.3315 262.127 42.0219 262.624 41.32L264.107 39.2248C264.604 38.5229 264.602 37.5836 264.1 36.8838L262.911 35.2259C262.589 34.7771 262.514 34.2008 262.698 33.6798C263.148 32.3974 263.458 31.0554 263.61 29.6767C263.67 29.1286 263.987 28.6422 264.47 28.3775L266.258 27.3985C267.012 26.9853 267.42 26.139 267.276 25.2918L266.844 22.7604C266.7 21.9131 266.034 21.2499 265.185 21.1108L263.174 20.7803C262.63 20.6903 262.17 20.3367 261.931 19.8399C261.331 18.5899 260.595 17.4267 259.743 16.366C259.398 15.9351 259.278 15.3671 259.433 14.8367L260.005 12.8786C260.246 12.0533 259.937 11.1652 259.235 10.6683L257.141 9.18402C256.439 8.68716 255.5 8.68925 254.8 9.19134L253.143 10.3807C252.694 10.7028 252.118 10.7771 251.597 10.5941C250.315 10.1432 248.973 9.8336 247.595 9.68193C247.047 9.62126 246.561 9.30431 246.296 8.82105L245.317 7.03339C244.904 6.27921 244.058 5.87021 243.211 6.01456L240.68 6.44657C239.833 6.59092 239.17 7.25724 239.031 8.10661L238.701 10.1181C238.611 10.6621 238.257 11.1223 237.76 11.3608C236.511 11.9612 235.348 12.6976 234.288 13.5491C233.857 13.8943 233.289 14.0146 232.759 13.8598L230.801 13.2876C229.976 13.0459 229.088 13.3556 228.591 14.0575L227.107 16.1526C226.611 16.8545 226.613 17.7939 227.115 18.4926L228.304 20.1505C228.626 20.5993 228.701 21.1757 228.517 21.6966C228.066 22.979 227.757 24.321 227.605 25.6997C227.544 26.2478 227.228 26.7342 226.744 26.9989L224.957 27.978C224.203 28.3911 223.794 29.2374 223.939 30.0846V30.0857ZM230.704 28.706C230.143 20.4738 236.36 13.3441 244.591 12.7834C252.822 12.2227 259.949 18.4413 260.51 26.6746C261.071 34.9079 254.853 42.0365 246.622 42.5972C238.391 43.1579 231.264 36.9392 230.704 28.706Z" fill="#91B3FA"/>
<path d="M75.3554 41.1959L74.5459 43.8896L108.602 54.1289L109.411 51.4352L75.3554 41.1959Z" fill="#BDD0FB"/>
<path d="M12.1424 23.2011L10.9533 27.2816C10.5549 28.6488 11.0673 30.1174 12.2292 30.9406L14.9837 32.8893C15.7283 33.4165 16.1581 34.2764 16.1539 35.1885C16.1424 37.4845 16.3976 39.7502 16.8964 41.9448C17.0993 42.836 16.8661 43.7701 16.2522 44.4469L13.9829 46.9479C13.026 48.0023 12.8441 49.5473 13.528 50.7962L15.5714 54.5232C16.2564 55.7711 17.6577 56.4479 19.0601 56.2073L22.3887 55.6373C23.2891 55.4824 24.2021 55.7879 24.8442 56.4385C26.4264 58.0389 28.2 59.4709 30.142 60.6948C30.9138 61.1812 31.4084 62.0055 31.4524 62.9176L31.6155 66.2889C31.6845 67.7115 32.6477 68.9333 34.0145 69.3318L38.094 70.5211C39.4608 70.9197 40.9291 70.4071 41.7521 69.245L43.7003 66.4898C44.2274 65.745 45.087 65.3151 45.9989 65.3193C48.2944 65.3308 50.5595 65.0755 52.7535 64.5766C53.6445 64.3736 54.5784 64.6069 55.255 65.2209L57.7554 67.4908C58.8095 68.4479 60.3541 68.6299 61.6028 67.9458L65.3288 65.9019C66.5764 65.2168 67.253 63.8161 67.0125 62.4124L66.4425 59.0829C66.2878 58.1822 66.5931 57.2691 67.2436 56.6268C68.8436 55.0442 70.2753 53.2701 71.4988 51.3276C71.9851 50.5557 72.8092 50.0609 73.7211 50.017L77.0915 49.8538C78.5138 49.7847 79.7352 48.8214 80.1337 47.4542L81.3227 43.3726C81.7211 42.0055 81.2087 40.5368 80.0469 39.7147L77.2923 37.7659C76.5478 37.2387 76.1179 36.3789 76.1221 35.4667C76.1336 33.1707 75.8785 30.905 75.3796 28.7105C75.1768 27.8193 75.41 26.8852 76.0238 26.2084L78.2931 23.7073C79.25 22.6529 79.432 21.108 78.748 19.859L76.7046 16.132C76.0196 14.8841 74.6183 14.2073 73.216 14.4479L69.8873 15.018C68.9869 15.1728 68.0739 14.8674 67.4318 14.2167C65.8496 12.6163 64.076 11.1843 62.134 9.96047C61.3622 9.47407 60.8676 8.6498 60.8237 7.73767L60.6605 4.36633C60.5915 2.94373 59.6284 1.72198 58.2615 1.32344L54.181 0.13411C52.8142 -0.264426 51.3459 0.248127 50.5239 1.41026L48.5757 4.16549C48.0486 4.91026 47.189 5.34018 46.2771 5.33599C43.9816 5.32449 41.7165 5.57972 39.5225 6.07867C38.6315 6.2816 37.6977 6.04834 37.0211 5.43432L34.5206 3.16444C33.4665 2.20733 31.9219 2.02532 30.6733 2.70942L26.9472 4.7544C25.6996 5.43955 25.023 6.84018 25.2635 8.24394L25.8335 11.5734C25.9883 12.4741 25.6829 13.3872 25.0324 14.0295C23.4324 15.6121 22.0008 17.3862 20.7772 19.3287C20.2909 20.1006 19.4669 20.5954 18.555 20.6393L15.1845 20.8025C13.7622 20.8716 12.5408 21.8349 12.1424 23.2021V23.2011ZM23.2138 26.0462C28.3381 13.382 42.756 7.27114 55.416 12.3977C68.0771 17.5232 74.1864 31.9448 69.0611 44.608C63.9369 57.2722 49.519 63.382 36.859 58.2565C24.1979 53.131 18.0886 38.7094 23.2138 26.0462Z" fill="#BDD0FB"/>
<path d="M45.6936 44.1255C45.2878 42.5366 47.1838 41.3723 48.4335 42.4341C61.1238 53.2113 91.9518 85.8451 87.6778 145.788C82.3151 220.995 99.2481 247.491 119.459 263.158C119.459 263.158 92.4549 256.667 74.3266 229.828C29.8158 163.934 52.9093 72.3744 45.6936 44.1255Z" fill="#91B3FA"/>
<g style="mix-blend-mode:soft-light">
<path d="M56.0864 67.0114C58.0189 75.2572 59.7884 83.5365 61.2524 91.8691C62.7604 100.192 64.0153 108.557 65.0067 116.95C65.9667 125.345 66.7688 133.757 67.2133 142.19C67.6954 150.621 67.8146 159.064 67.9045 167.541C68.0415 176.012 68.1325 184.547 69.0957 193.098C70.0494 201.633 72.0384 210.19 75.5302 218.131C76.4034 220.11 77.3153 222.08 78.3339 223.978C79.318 225.895 80.3878 227.769 81.4911 229.622C83.7154 233.32 86.1886 236.876 88.915 240.233C94.3853 246.934 100.871 252.796 107.937 257.678C108.681 258.191 109.701 258.005 110.214 257.261C110.718 256.531 110.548 255.534 109.838 255.012L109.832 255.008C108.148 253.772 106.479 252.519 104.871 251.194C104.057 250.545 103.273 249.861 102.476 249.192C101.707 248.494 100.909 247.825 100.161 247.103C97.1221 244.269 94.287 241.225 91.6894 237.986C86.47 231.541 82.1855 224.282 78.8359 216.702C77.2035 212.892 75.8544 208.969 74.8118 204.954C73.7723 200.938 73.0392 196.838 72.5404 192.691C71.5406 184.394 71.3817 175.948 71.183 167.478C70.9738 159.006 70.7051 150.495 70.087 142.007C69.789 137.763 69.4157 133.525 68.966 129.296C68.7537 127.18 68.4996 125.069 68.2507 122.957C67.9809 120.848 67.6996 118.74 67.4005 116.636C66.1905 108.22 64.7244 99.844 62.9947 91.5271C61.2263 83.2185 59.2372 74.9591 56.9345 66.7907C56.8686 66.5574 56.626 66.4214 56.3928 66.4873C56.1658 66.5511 56.032 66.7833 56.0843 67.0103L56.0864 67.0114Z" fill="white"/>
</g>
<path d="M72.5101 263.253C71.8167 266.193 68.3469 267.472 65.8904 265.712C52.3363 256.009 16.4938 225.111 12.9706 167.666C9.9954 119.157 3.77311 93.1349 0.129674 81.5188C-0.641053 79.0627 2.17205 77.0502 4.24998 78.569C27.1794 95.3253 97.622 156.689 72.5101 263.254V263.253Z" fill="#7D97F4"/>
<g style="mix-blend-mode:soft-light">
<path d="M68.4504 263.751C68.3929 263.799 68.3312 263.843 68.2632 263.881C67.6943 264.198 66.9759 263.995 66.659 263.426C66.2993 262.78 30.598 198.162 23.4146 130.899C23.3456 130.251 23.8141 129.67 24.4625 129.6C25.1098 129.531 25.6913 130 25.7603 130.649C32.8913 197.422 68.3615 261.636 68.7181 262.276C68.9973 262.777 68.8729 263.394 68.4504 263.751Z" fill="white"/>
</g>
<path d="M67.4099 227.205L166.847 47.8315L224.651 205.756L67.4109 227.205H67.4099ZM165.928 59.638L76.4756 221.001L217.928 201.705L165.928 59.638Z" fill="url(#paint1_linear_149_3037)"/>
<path d="M226.484 254.019C255.477 254.019 278.981 230.509 278.981 201.509C278.981 172.508 255.477 148.998 226.484 148.998C197.491 148.998 173.987 172.508 173.987 201.509C173.987 230.509 197.491 254.019 226.484 254.019Z" fill="white"/>
<path d="M158.043 193.727L157.547 201.612C157.381 204.253 158.909 206.709 161.352 207.727L167.14 210.139C168.706 210.792 169.835 212.176 170.198 213.833C171.112 218.001 172.497 222.005 174.294 225.782C175.024 227.316 174.982 229.105 174.145 230.582L171.047 236.043C169.742 238.345 170.04 241.222 171.79 243.206L177.013 249.132C178.763 251.117 181.579 251.773 184.026 250.765L189.83 248.375C191.401 247.728 193.18 247.91 194.609 248.826C198.131 251.084 201.928 252.958 205.949 254.387C207.547 254.955 208.779 256.249 209.23 257.884L210.898 263.93C211.602 266.481 213.846 268.304 216.487 268.47L224.369 268.966C227.01 269.132 229.464 267.604 230.483 265.16L232.895 259.37C233.547 257.804 234.931 256.676 236.587 256.312C240.755 255.398 244.758 254.013 248.534 252.214C250.068 251.484 251.855 251.526 253.333 252.364L258.792 255.462C261.092 256.768 263.969 256.471 265.953 254.72L271.877 249.495C273.862 247.745 274.518 244.928 273.511 242.48L271.121 236.675C270.475 235.104 270.657 233.324 271.573 231.894C273.83 228.372 275.704 224.573 277.132 220.551C277.7 218.953 278.994 217.721 280.628 217.27L286.673 215.6C289.224 214.896 291.046 212.652 291.212 210.011L291.707 202.126C291.873 199.484 290.346 197.029 287.904 196.012L282.115 193.599C280.55 192.947 279.421 191.563 279.058 189.906C278.144 185.738 276.759 181.733 274.961 177.956C274.231 176.423 274.273 174.634 275.111 173.157L278.209 167.696C279.514 165.394 279.216 162.517 277.466 160.532L272.242 154.607C270.493 152.621 267.677 151.966 265.23 152.974L259.426 155.364C257.855 156.011 256.076 155.829 254.646 154.912C251.125 152.655 247.327 150.78 243.306 149.352C241.708 148.784 240.476 147.49 240.026 145.855L238.358 139.809C237.654 137.257 235.41 135.434 232.769 135.269L224.886 134.773C222.246 134.607 219.791 136.135 218.774 138.577L216.362 144.367C215.71 145.933 214.326 147.063 212.669 147.426C208.502 148.34 204.499 149.725 200.723 151.523C199.19 152.253 197.401 152.211 195.925 151.373L190.466 148.275C188.165 146.969 185.288 147.267 183.303 149.018L177.379 154.243C175.394 155.993 174.74 158.81 175.747 161.256L178.136 167.063C178.783 168.634 178.601 170.413 177.685 171.843C175.428 175.365 173.554 179.164 172.125 183.186C171.557 184.785 170.264 186.017 168.629 186.468L162.585 188.136C160.034 188.84 158.211 191.085 158.045 193.727H158.043ZM179.278 194.377C183.415 169.324 207.073 152.369 232.119 156.508C257.165 160.647 274.115 184.31 269.978 209.362C265.841 234.414 242.184 251.368 217.138 247.231C192.092 243.093 175.141 219.43 179.279 194.377H179.278Z" fill="url(#paint2_linear_149_3037)"/>
<mask id="mask0_149_3037" style="mask-type:luminance" maskUnits="userSpaceOnUse" x="157" y="141" width="124" height="107">
<path d="M234.717 246.736C215.431 250.827 194.942 242.479 183.472 228.009C178.807 222.123 159.707 201.575 158.043 193.727C152.289 166.589 190.195 147.807 217.325 142.052C244.457 136.296 274.782 154.875 280.535 182.012C283.103 194.121 272.133 218.77 266.688 228.875C259.932 241.417 249.743 243.546 234.716 246.735L234.717 246.736Z" fill="white"/>
</mask>
<g mask="url(#mask0_149_3037)">
<path d="M170.755 177.581C170.993 176.944 171.889 176.928 172.15 177.554C173.121 179.875 175.266 183.87 178.846 184.934C179.027 184.987 179.198 185.043 179.364 185.1C179.46 184.619 179.394 184.083 178.955 183.566C177.697 182.086 179.325 179.644 179.325 179.644C179.325 179.644 179.696 181.568 181.323 182.604C182.725 183.497 183.629 185.761 183.002 187.791C182.062 195.157 180.499 204.939 192.077 210.486C203.656 216.033 216.24 194.231 216.24 194.231L211.737 218.914C211.737 218.914 201.252 228.897 186.303 218.593C171.352 208.288 178.068 189.713 178.068 189.713C178.068 189.713 167.296 186.865 170.755 177.58V177.581Z" fill="url(#paint3_linear_149_3037)"/>
<path d="M213.731 159.111C213.731 159.111 208.878 145.576 225.287 147.257C225.287 147.257 232.868 145.019 234.18 152.277C234.18 152.277 239.582 154.938 236.724 161.722C236.724 161.722 250.833 154.129 258.927 166.316C267.021 178.504 261.981 186.404 255.99 189.05C255.99 189.05 261.353 190.949 259.684 196.969C258.015 202.989 246.431 208.541 238.415 202.483C238.415 202.483 218.43 207.725 217.031 193.316C217.031 193.316 206.811 188.399 215.248 175.285C223.685 162.17 213.73 159.111 213.73 159.111H213.731Z" fill="url(#paint4_linear_149_3037)"/>
<path d="M216.912 191.497C219.996 190.133 229.103 187.186 239.006 194.261C240.685 195.461 241.566 197.495 241.277 199.54C239.997 208.617 236.968 235.34 243.892 245.867C243.892 245.867 235.521 257.804 223.834 250.501C223.834 250.501 216.471 230.363 209.097 222.044C204.006 216.3 212.989 197.581 215.287 193.043C215.635 192.355 216.206 191.807 216.91 191.497H216.912Z" fill="url(#paint5_linear_149_3037)"/>
<path d="M223.567 172.945C223.567 172.945 229.992 185.757 231.092 191.627C231.092 191.627 226.154 194.668 220.712 191.267C220.712 191.267 218.511 177.94 217.461 175.637L223.566 172.945H223.567Z" fill="url(#paint6_linear_149_3037)"/>
<path d="M214.688 155.493C214.688 155.493 204.474 174.402 212.517 178.51C220.56 182.617 227.833 169.178 227.833 169.178C227.833 169.178 229.516 159.32 226.103 156.476C222.691 153.633 214.688 155.493 214.688 155.493Z" fill="url(#paint7_linear_149_3037)"/>
<path d="M219.903 150.625C219.903 150.625 214.378 152.691 213.905 155.367C213.431 158.045 222.603 159.318 225.105 159.123L228.414 169.27C228.414 169.27 233.107 158.743 230.051 153.388C226.995 148.034 219.903 150.625 219.903 150.625Z" fill="url(#paint8_linear_149_3037)"/>
<path d="M225.269 168.203C225.269 168.203 229.391 162.008 231.768 165.41C234.145 168.812 228.227 172.335 225.835 170.819L225.269 168.204V168.203Z" fill="url(#paint9_linear_149_3037)"/>
<path d="M240.496 195.854C240.496 195.854 257.217 206.535 263.136 223.259C269.054 239.983 243.404 245.064 243.404 245.064C243.404 245.064 239.398 241.582 235.403 243.506C231.409 245.429 234.22 236.698 239.102 236.106C243.985 235.514 242.209 239.658 248.72 235.663C255.062 231.77 258.034 221.824 239.08 209.697C237.981 208.994 237.056 208.038 236.426 206.896C232.038 198.922 233.99 193.088 240.496 195.854Z" fill="url(#paint10_linear_149_3037)"/>
</g>
<path d="M86.7659 275.934C117.811 275.934 142.979 250.761 142.979 219.707C142.979 188.654 117.811 163.48 86.7659 163.48C55.7204 163.48 30.553 188.654 30.553 219.707C30.553 250.761 55.7204 275.934 86.7659 275.934Z" fill="white"/>
<path d="M17.9317 212.206L17.4193 220.356C17.2478 223.086 18.8269 225.625 21.3513 226.677L27.3352 229.171C28.953 229.846 30.1211 231.277 30.4965 232.989C31.4409 237.299 32.8725 241.438 34.7308 245.343C35.4859 246.929 35.443 248.777 34.5761 250.304L31.3739 255.949C30.0249 258.329 30.3323 261.303 32.1415 263.355L37.5418 269.481C39.351 271.533 42.2624 272.211 44.7911 271.169L50.7917 268.697C52.4147 268.029 54.2542 268.217 55.7329 269.165C59.3732 271.499 63.3 273.437 67.4559 274.914C69.1082 275.501 70.3809 276.839 70.8473 278.529L72.5718 284.779C73.2996 287.416 75.6202 289.301 78.3496 289.472L86.4992 289.985C89.2287 290.157 91.7667 288.577 92.8188 286.052L95.3119 280.067C95.9864 278.448 97.417 277.281 99.1299 276.904C103.438 275.96 107.577 274.528 111.48 272.668C113.066 271.913 114.914 271.956 116.442 272.823L122.085 276.026C124.465 277.376 127.438 277.068 129.489 275.258L135.613 269.856C137.665 268.047 138.343 265.135 137.301 262.605L134.83 256.603C134.162 254.98 134.35 253.14 135.298 251.661C137.631 248.02 139.569 244.092 141.045 239.935C141.632 238.282 142.969 237.009 144.659 236.543L150.909 234.818C153.545 234.09 155.43 231.768 155.601 229.038L156.114 220.887C156.285 218.157 154.706 215.618 152.182 214.566L146.198 212.072C144.58 211.397 143.412 209.966 143.036 208.253C142.092 203.943 140.66 199.804 138.802 195.899C138.047 194.313 138.09 192.465 138.957 190.938L142.159 185.293C143.509 182.913 143.2 179.939 141.391 177.887L135.991 171.761C134.182 169.709 131.27 169.031 128.742 170.073L122.741 172.544C121.118 173.212 119.279 173.024 117.8 172.076C114.16 169.742 110.233 167.804 106.077 166.327C104.425 165.74 103.152 164.402 102.686 162.712L100.961 156.461C100.233 153.824 97.9127 151.939 95.1832 151.767L87.0336 151.255C84.3042 151.083 81.7661 152.663 80.7141 155.188L78.221 161.173C77.5464 162.791 76.1158 163.96 74.4039 164.335C70.0954 165.28 65.9573 166.712 62.0535 168.571C60.4681 169.326 58.6202 169.283 57.0934 168.416L51.4494 165.213C49.0703 163.863 46.0972 164.171 44.0454 165.981L37.9214 171.383C35.8697 173.192 35.192 176.103 36.2336 178.634L38.7047 184.636C39.373 186.26 39.1847 188.099 38.2373 189.578C35.9042 193.219 33.9664 197.146 32.4898 201.304C31.9031 202.957 30.5656 204.23 28.8756 204.696L22.6261 206.421C19.9898 207.149 18.1053 209.47 17.9338 212.2L17.9317 212.206ZM39.8843 212.877C44.1615 186.979 68.6177 169.452 94.5098 173.73C120.402 178.008 137.925 202.47 133.647 228.369C129.37 254.267 104.914 271.795 79.022 267.516C53.13 263.238 35.6072 238.776 39.8843 212.877Z" fill="url(#paint11_linear_149_3037)"/>
<mask id="mask1_149_3037" style="mask-type:luminance" maskUnits="userSpaceOnUse" x="22" y="157" width="124" height="112">
<path d="M97.1953 267.003C77.2578 271.232 56.0759 262.604 44.219 247.645C39.396 241.56 24.4667 221.423 22.7474 213.311C16.7991 185.257 51.1629 164.751 79.2092 158.803C107.257 152.853 138.613 172.042 144.561 200.096C147.215 212.614 142.536 238.546 136.908 248.992C129.922 261.957 112.728 263.709 97.1953 267.004V267.003Z" fill="white"/>
</mask>
<g mask="url(#mask1_149_3037)">
<path d="M116.363 245.529C119.129 247.758 122.45 248.61 126.338 246.597L128.102 250.598C128.102 250.598 126.33 259.447 117.455 260.247C116.571 260.326 115.7 260.282 114.845 260.15C110.73 253.732 113.783 248.419 116.363 245.529Z" fill="url(#paint12_linear_149_3037)"/>
<path d="M101.75 251.304L105.987 226.055C106.154 226.317 109.584 240.066 116.362 245.529C113.782 248.419 110.73 253.731 114.844 260.149C107.668 259.035 101.749 251.304 101.749 251.304H101.75Z" fill="url(#paint13_linear_149_3037)"/>
<path d="M68.9429 213.289C68.9429 213.289 84.5541 208.083 104.702 210.969C106.806 211.27 112.247 222.619 111.436 230.504C110.064 243.858 102.779 266.271 102.518 266.341C94.1166 268.572 66.4362 266.69 66.4362 266.69L68.9419 213.289H68.9429Z" fill="url(#paint14_linear_149_3037)"/>
<path d="M84.3293 196.893L85.1994 210.421C85.2799 211.679 86.0945 212.746 87.2365 213.084C89.8666 213.863 94.8329 214.802 99.6999 212.839C100.591 212.48 101.048 211.425 100.749 210.463L94.31 189.775L84.3293 196.893Z" fill="url(#paint15_linear_149_3037)"/>
<path d="M93.3134 176.103C93.3134 176.103 100.568 183.423 102.621 187.947C104.674 192.471 106.834 195.084 101.851 198.092C96.8669 201.099 91.3306 200.185 87.1026 196.526C87.1026 196.526 80.5248 190.913 80.2539 187.674C79.9831 184.434 93.3134 176.102 93.3134 176.102V176.103Z" fill="url(#paint16_linear_149_3037)"/>
<path d="M87.6423 192.505L88.3178 192.243C88.3178 192.243 83.3159 187.612 85.3729 185.658C87.43 183.704 96.3524 177.963 97.1085 173.712C97.8364 169.614 94.377 166.029 91.2219 165.875C91.0222 165.866 90.8527 166.024 90.8297 166.223L90.7701 166.731C90.7293 167.079 90.2859 167.201 90.0737 166.922C89.8718 166.658 89.4462 166.749 89.3845 167.076C89.144 168.353 88.0606 170.699 83.7447 173.363C77.6217 177.142 74.2983 181.506 75.9611 186.107C76.0667 186.398 75.8199 186.677 75.5145 186.622C74.9122 186.515 74.0787 186.678 73.378 187.958C72.1587 190.185 74.4332 193.848 79.6652 195.556C79.9141 195.638 80.027 195.933 79.8743 196.145C79.3368 196.893 78.6968 198.426 82.0537 198.831C85.488 199.248 87.1058 198.428 87.6778 198.019C87.8315 197.909 87.8859 197.708 87.8064 197.536L85.9879 193.593C85.8937 193.389 85.991 193.148 86.2001 193.067L87.6402 192.507L87.6423 192.505Z" fill="url(#paint17_linear_149_3037)"/>
<path d="M88.1369 193.286C88.1369 193.286 84.4893 188.226 82.5797 190.783C80.6701 193.341 86.3371 196.581 88.4464 196.003L88.1369 193.284V193.286Z" fill="url(#paint18_linear_149_3037)"/>
<path d="M69.0611 252.189C68.2162 246.223 74.3935 237.453 76.9483 234.125C77.6793 233.173 78.0882 232.009 78.0986 230.809C78.1729 222.36 74.6267 216.933 68.944 213.29C68.944 213.29 48.3184 237.326 53.5702 255.813C54.137 257.808 55.0155 259.522 56.1282 260.995C56.9554 254.03 65.0057 252.51 69.0622 252.188L69.0611 252.189Z" fill="url(#paint19_linear_149_3037)"/>
<path d="M69.446 249.881L68.6606 249.791C69.3268 243.94 74.4594 236.717 76.6346 233.884L77.262 234.366C75.1266 237.147 70.0902 244.227 69.446 249.881Z" fill="#7D97F4"/>
<path d="M69.2232 253.015C69.1511 252.747 69.1009 252.47 69.0611 252.188C65.0046 252.51 56.9554 254.029 56.1271 260.996C65.3319 273.173 90.7021 268.779 90.7021 268.779V264.041C90.7021 264.041 71.2175 260.421 69.2222 253.015H69.2232Z" fill="url(#paint20_linear_149_3037)"/>
<path d="M88.2634 268.757C88.2634 268.757 89.6428 259.295 98.6102 263.052C105.35 265.876 104.692 268.24 104.692 268.24L88.2634 268.757Z" fill="url(#paint21_linear_149_3037)"/>
<path d="M131.251 226.63L126.737 254.153C126.659 254.635 126.311 255.027 125.846 255.158C124.127 255.642 119.776 256.571 115.508 255.107C114.92 254.905 114.492 254.389 114.386 253.772L109.604 226.035L131.251 226.63Z" fill="#91B3FA"/>
<path d="M131.251 224.778L130.221 222.481C130.12 222.257 129.908 222.105 129.665 222.084C127.659 221.911 118.432 221.193 112.385 222.03C112.022 222.08 111.713 222.32 111.571 222.661L110.769 224.591L131.252 224.778H131.251Z" fill="#7D97F4"/>
<path d="M132.064 224.838L132.257 226.735C132.304 227.2 131.961 227.612 131.498 227.645C128.006 227.884 114.616 228.661 109.18 226.924C108.789 226.799 108.566 226.383 108.67 225.982L108.926 225.008C109.068 224.463 109.557 224.083 110.115 224.085L131.315 224.153C131.702 224.154 132.025 224.45 132.064 224.838Z" fill="#91B3FA"/>
<path d="M130.142 233.395C130.142 233.395 117.753 235.382 110.874 233.395L110.769 232.787L110.402 233.173C110.225 233.359 110.148 233.62 110.194 233.874L112.208 244.858C112.208 244.858 120.885 246.945 128.716 244.992L130.671 233.877C130.734 233.571 130.662 233.253 130.473 233.006L130.253 232.717L130.142 233.396V233.395Z" fill="#7D97F4"/>
<g style="mix-blend-mode:soft-light">
<path d="M122.097 245.431C121.967 245.429 121.864 245.321 121.866 245.192L122.052 235.147C122.054 235.016 122.162 234.908 122.292 234.915C122.421 234.918 122.525 235.025 122.523 235.155L122.336 245.2C122.334 245.329 122.229 245.431 122.101 245.431H122.097ZM119.723 245.402C119.593 245.4 119.49 245.292 119.492 245.162L119.676 235.23C119.678 235.101 119.79 234.994 119.916 234.999C120.045 235.001 120.149 235.109 120.147 235.239L119.963 245.171C119.961 245.299 119.855 245.402 119.727 245.402H119.723ZM124.473 245.293C124.343 245.291 124.24 245.183 124.242 245.053L124.428 234.987C124.43 234.857 124.534 234.736 124.667 234.755C124.797 234.757 124.901 234.865 124.899 234.995L124.712 245.062C124.71 245.191 124.605 245.293 124.477 245.293H124.473ZM116.903 245.227C116.773 245.225 116.669 245.117 116.672 244.988L116.852 235.206C116.855 235.077 116.965 234.994 117.092 234.975C117.222 234.977 117.325 235.085 117.323 235.215L117.142 244.996C117.14 245.125 117.034 245.227 116.907 245.227H116.903ZM126.34 245.068C126.21 245.065 126.106 244.957 126.11 244.828L126.33 234.808C126.333 234.678 126.423 234.582 126.571 234.578C126.7 234.581 126.804 234.688 126.801 234.818L126.58 244.838C126.577 244.967 126.472 245.068 126.345 245.068H126.34ZM114.184 244.662L113.474 234.951C113.464 234.821 113.561 234.708 113.691 234.699C113.826 234.686 113.934 234.787 113.943 234.916L114.653 244.628C114.663 244.757 114.565 244.87 114.436 244.88C114.429 244.88 114.424 244.88 114.418 244.88C114.296 244.88 114.192 244.786 114.184 244.661V244.662ZM127.733 244.814C127.603 244.802 127.507 244.688 127.518 244.56L128.369 234.54C128.381 234.41 128.492 234.315 128.624 234.325C128.753 234.337 128.849 234.451 128.838 234.58L127.987 244.6C127.976 244.722 127.874 244.815 127.752 244.815C127.746 244.815 127.739 244.815 127.733 244.815V244.814ZM112.337 244.337L111.114 234.517C111.099 234.388 111.19 234.27 111.318 234.254C111.448 234.236 111.565 234.331 111.581 234.459L112.803 244.279C112.819 244.408 112.728 244.526 112.599 244.542C112.59 244.543 112.58 244.544 112.57 244.544C112.453 244.544 112.352 244.456 112.337 244.338V244.337Z" fill="white"/>
</g>
<path d="M130.693 239.842C130.693 239.842 126.873 237.492 124.349 239.271C121.944 240.967 125.866 251.191 127.278 252.189C128.689 253.186 133.516 245.254 130.693 239.842Z" fill="url(#paint22_linear_149_3037)"/>
</g>
<path d="M154.985 119.622C183.979 119.622 207.483 96.1128 207.483 67.112C207.483 38.1113 183.979 14.6016 154.985 14.6016C125.992 14.6016 102.488 38.1113 102.488 67.112C102.488 96.1128 125.992 119.622 154.985 119.622Z" fill="white"/>
<path d="M215.419 53.5012L209.531 51.8756C207.938 51.4363 206.679 50.2355 206.126 48.679C204.734 44.7616 202.909 41.0618 200.711 37.6309C199.818 36.2376 199.641 34.5043 200.271 32.974L202.599 27.3192C203.58 24.9353 202.942 22.1926 201.008 20.4876L195.238 15.3976C193.304 13.6926 190.504 13.4028 188.261 14.6748L182.944 17.6926C181.505 18.5095 179.764 18.5503 178.27 17.838C174.592 16.0859 170.694 14.7376 166.634 13.8474C165.02 13.4938 163.672 12.3934 163.038 10.8683L160.688 5.22919C159.696 2.84949 157.306 1.36204 154.734 1.52313L147.056 2.00534C144.485 2.16643 142.298 3.94258 141.613 6.42794L139.988 12.3171C139.549 13.9102 138.348 15.1696 136.792 15.7229C132.876 17.1141 129.177 18.9405 125.747 21.1392C124.354 22.0325 122.621 22.2093 121.092 21.5796L115.439 19.2512C113.055 18.27 110.312 18.9091 108.608 20.8422L103.52 26.6141C101.815 28.5472 101.526 31.3495 102.797 33.5911L105.814 38.9102C106.631 40.3495 106.671 42.0911 105.961 43.5848C104.209 47.2637 102.861 51.1633 101.971 55.224C101.618 56.838 100.518 58.1863 98.993 58.8223L93.3542 61.1727C90.9762 62.1643 89.488 64.5555 89.6491 67.1277L90.1312 74.8087C90.2933 77.3809 92.0679 79.5681 94.5527 80.2532L100.44 81.8788C102.032 82.3181 103.292 83.5179 103.845 85.0754C105.237 88.9928 107.062 92.6926 109.26 96.1235C110.153 97.5168 110.33 99.2501 109.701 100.779L107.373 106.434C106.392 108.818 107.031 111.562 108.963 113.266L114.734 118.355C116.666 120.06 119.468 120.349 121.709 119.078L127.027 116.06C128.466 115.243 130.207 115.202 131.7 115.914C135.378 117.666 139.277 119.015 143.336 119.905C144.95 120.258 146.298 121.359 146.933 122.884L149.283 128.523C150.274 130.903 152.665 132.39 155.237 132.229L162.915 131.747C165.487 131.585 167.673 129.81 168.359 127.324L169.985 121.435C170.424 119.842 171.624 118.583 173.18 118.029C177.097 116.637 180.796 114.812 184.226 112.613C185.619 111.72 187.352 111.543 188.88 112.173L194.534 114.501C196.917 115.482 199.66 114.843 201.364 112.91L206.451 107.138C208.156 105.205 208.446 102.403 207.174 100.161L204.157 94.8422C203.34 93.4028 203.299 91.6612 204.012 90.1675C205.763 86.4886 207.111 82.589 208.001 78.5284C208.355 76.9143 209.455 75.566 210.98 74.9311L216.617 72.5817C218.996 71.5901 220.484 69.1989 220.322 66.6256L219.84 58.9457C219.678 56.3735 217.904 54.1863 215.419 53.5001V53.5012ZM162.282 111.06C137.887 115.09 114.844 98.5765 110.814 74.1748C106.785 49.7731 123.294 26.725 147.69 22.6947C172.086 18.6643 195.128 35.1779 199.157 59.5786C203.187 83.9802 186.677 107.028 162.282 111.059V111.06Z" fill="#7D97F4"/>
<mask id="mask2_149_3037" style="mask-type:luminance" maskUnits="userSpaceOnUse" x="104" y="16" width="132" height="96">
<path d="M128.596 109.543C147.084 113.144 223.735 113.364 234.906 99.27C239.449 93.5367 202.898 78.6507 204.519 71.0074C210.123 44.5754 193.601 23.7271 167.176 18.1214C140.749 12.5158 113.345 23.8296 107.741 50.2626C105.24 62.0566 102.439 83.7637 107.741 93.6057C114.322 105.822 113.911 106.683 128.596 109.544V109.543Z" fill="white"/>
</mask>
<g mask="url(#mask2_149_3037)">
<path d="M160.995 58.3043C160.995 58.3043 180.345 93.3032 208.066 95.8346L209.544 100.004C209.544 100.004 171.343 107.466 151.775 75.9884L160.995 58.3032V58.3043Z" fill="url(#paint23_linear_149_3037)"/>
<path d="M207.511 98.2617C206.65 96.5159 207.865 94.4082 209.81 94.3778C209.906 94.3768 210.005 94.3778 210.106 94.381C213.368 94.5023 216.675 94.0002 217.897 93.1634C218.303 92.8862 218.878 92.9636 219.136 93.381C219.474 93.927 219.207 94.8527 216.116 96.2C216.116 96.2 222.957 98.8663 228.465 96.2481C233.835 93.6958 226.077 107.21 209.742 100.725C208.921 100.399 208.254 99.7691 207.864 98.9762L207.512 98.2607L207.511 98.2617Z" fill="url(#paint24_linear_149_3037)"/>
<path d="M154.607 115.326C154.607 115.326 172.545 66.1722 158.423 55.008C158.423 55.008 137.258 51.5927 121.869 57.4306L123.625 102.505C123.625 102.505 134.918 122.364 154.607 115.326Z" fill="url(#paint25_linear_149_3037)"/>
<path d="M154.231 44.6162C154.231 44.6162 151.482 51.2961 150.781 56.5472C150.575 58.089 149.384 59.3024 147.85 59.5566C144.564 60.1026 139.117 60.407 135.803 57.3829C135.068 56.7114 134.818 55.657 135.152 54.7197C136.517 50.8976 143.615 34.9833 147.481 32.543L154.231 44.6162Z" fill="url(#paint26_linear_149_3037)"/>
<path d="M126.242 93.7354C126.242 93.7636 126.24 93.7939 126.24 93.8222C126.183 102.135 137.422 102.93 137.422 102.93C137.422 102.93 140.636 97.5847 144.76 97.4111C148.884 97.2364 154.607 103.956 154.607 103.956L145.455 105.423C145.455 105.423 128.002 115.893 116.042 103.454C118.157 95.7071 123.196 94.0146 126.243 93.7354H126.242Z" fill="url(#paint27_linear_149_3037)"/>
<path d="M121.869 57.4297C133.208 61.4517 131.567 70.3586 131.567 70.3586C131.567 70.3586 126.334 85.4035 126.242 93.7341C123.195 94.0123 118.156 95.7058 116.041 103.453C115.758 103.158 115.475 102.853 115.198 102.532C100.901 85.9632 121.869 57.4297 121.869 57.4297Z" fill="url(#paint28_linear_149_3037)"/>
<path d="M126.242 94.1764C126.484 94.1764 126.681 93.9819 126.684 93.7402C126.756 87.258 129.985 76.6231 131.37 72.3511C131.445 72.1189 131.319 71.871 131.086 71.7957C130.852 71.7214 130.605 71.848 130.531 72.0791C129.134 76.3888 125.875 87.1273 125.802 93.7308C125.8 93.9745 125.995 94.1743 126.238 94.1764H126.243H126.242Z" fill="url(#paint29_linear_149_3037)"/>
<path d="M166.63 27.7769C166.63 28.1095 159.204 48.803 159.204 48.803L147.481 44.3114L151.605 23.6524C151.605 23.6524 166.629 22.2099 166.629 27.7779L166.63 27.7769Z" fill="url(#paint30_linear_149_3037)"/>
<path d="M153.662 28.685L150.64 39.39C150.601 39.5271 150.582 39.6651 150.582 39.8085C150.58 40.6819 150.797 43.6861 153.856 43.2771C156.632 42.9068 159.171 42.6097 160.786 43.3702C161.511 43.7122 161.858 44.5459 161.587 45.3001C160.912 47.1798 159.313 51.388 157.364 54.8325C156.969 55.5313 156.102 55.8032 155.371 55.4706C153.17 54.4685 148.585 52.2258 145.319 49.5574C144.877 49.1955 144.665 48.6275 144.769 48.0658C145.283 45.3273 146.814 36.9978 146.881 34.6108C146.944 32.3702 144.43 30.6599 143.324 30.0166C142.961 29.8053 142.703 29.4591 142.604 29.0511C142.257 27.6087 141.962 24.3451 146.124 23.6264C146.996 23.4758 147.563 22.6421 147.387 21.776C147.034 20.0511 147.147 17.5135 150.421 16.5783C153.749 15.6285 155.844 17.6317 156.908 19.1683C157.339 19.7896 158.144 19.9915 158.835 19.6829C159.228 19.5072 159.702 19.4999 160.212 19.9298C160.899 20.5093 161.946 20.3325 162.451 19.5888C163.421 18.1599 165.185 16.7342 168.169 17.6997C173.465 19.4141 173.212 25.5218 171.271 28.8419C169.33 32.162 163.693 29.9779 161.024 27.7771C158.996 26.1045 155.907 27.1045 154.543 27.6808C154.111 27.8628 153.789 28.2331 153.661 28.685H153.662Z" fill="url(#paint31_linear_149_3037)"/>
<path d="M146.411 38.5951C146.411 38.5951 148.954 32.5889 146.882 30.7259C144.809 28.864 141.917 29.5031 142.011 34.1412C142.129 39.91 146.411 38.5951 146.411 38.5951Z" fill="url(#paint32_linear_149_3037)"/>
</g>
</g>
<defs>
<linearGradient id="paint0_linear_149_3037" x1="179.567" y1="95.8369" x2="108.541" y2="223.088" gradientUnits="userSpaceOnUse">
<stop stop-color="#DAE3FE"/>
<stop offset="1" stop-color="#E9EFFD"/>
</linearGradient>
<linearGradient id="paint1_linear_149_3037" x1="67.4099" y1="137.519" x2="224.65" y2="137.519" gradientUnits="userSpaceOnUse">
<stop stop-color="#FF928E"/>
<stop offset="1" stop-color="#FE7062"/>
</linearGradient>
<linearGradient id="paint2_linear_149_3037" x1="265.188" y1="144.346" x2="170.96" y2="277.919" gradientUnits="userSpaceOnUse">
<stop stop-color="#E1473D"/>
<stop offset="1" stop-color="#E9605A"/>
</linearGradient>
<linearGradient id="paint3_linear_149_3037" x1="164.082" y1="161.44" x2="212.481" y2="220.924" gradientUnits="userSpaceOnUse">
<stop stop-color="#FEBBBA"/>
<stop offset="1" stop-color="#FF928E"/>
</linearGradient>
<linearGradient id="paint4_linear_149_3037" x1="275.13" y1="141.465" x2="237.851" y2="173.699" gradientUnits="userSpaceOnUse">
<stop stop-color="#09005D"/>
<stop offset="1" stop-color="#1A0F91"/>
</linearGradient>
<linearGradient id="paint5_linear_149_3037" x1="238.329" y1="198.577" x2="211.431" y2="261.852" gradientUnits="userSpaceOnUse">
<stop stop-color="#4F52FF"/>
<stop offset="1" stop-color="#4042E2"/>
</linearGradient>
<linearGradient id="paint6_linear_149_3037" x1="219.29" y1="199.885" x2="224.736" y2="182.164" gradientUnits="userSpaceOnUse">
<stop stop-color="#FEBBBA"/>
<stop offset="1" stop-color="#FF928E"/>
</linearGradient>
<linearGradient id="paint7_linear_149_3037" x1="213.78" y1="159.172" x2="233.28" y2="190.425" gradientUnits="userSpaceOnUse">
<stop stop-color="#FEBBBA"/>
<stop offset="1" stop-color="#FF928E"/>
</linearGradient>
<linearGradient id="paint8_linear_149_3037" x1="262.137" y1="126.438" x2="224.859" y2="158.673" gradientUnits="userSpaceOnUse">
<stop stop-color="#09005D"/>
<stop offset="1" stop-color="#1A0F91"/>
</linearGradient>
<linearGradient id="paint9_linear_149_3037" x1="220.57" y1="154.936" x2="240.071" y2="186.188" gradientUnits="userSpaceOnUse">
<stop stop-color="#FEBBBA"/>
<stop offset="1" stop-color="#FF928E"/>
</linearGradient>
<linearGradient id="paint10_linear_149_3037" x1="262.817" y1="247.396" x2="167.133" y2="137.975" gradientUnits="userSpaceOnUse">
<stop stop-color="#FEBBBA"/>
<stop offset="1" stop-color="#FF928E"/>
</linearGradient>
<linearGradient id="paint11_linear_149_3037" x1="279.772" y1="121.825" x2="-124.211" y2="328.496" gradientUnits="userSpaceOnUse">
<stop stop-color="#FF928E"/>
<stop offset="1" stop-color="#FE7062"/>
</linearGradient>
<linearGradient id="paint12_linear_149_3037" x1="128.102" y1="252.908" x2="101.751" y2="252.908" gradientUnits="userSpaceOnUse">
<stop stop-color="#A22B25"/>
<stop offset="1" stop-color="#C0423C"/>
</linearGradient>
<linearGradient id="paint13_linear_149_3037" x1="135.072" y1="191.393" x2="124.171" y2="214.242" gradientUnits="userSpaceOnUse">
<stop stop-color="#4F52FF"/>
<stop offset="1" stop-color="#4042E2"/>
</linearGradient>
<linearGradient id="paint14_linear_149_3037" x1="75.6526" y1="260.15" x2="141.06" y2="128.313" gradientUnits="userSpaceOnUse">
<stop stop-color="#4F52FF"/>
<stop offset="1" stop-color="#4042E2"/>
</linearGradient>
<linearGradient id="paint15_linear_149_3037" x1="92.5082" y1="198.798" x2="92.1127" y2="171.887" gradientUnits="userSpaceOnUse">
<stop stop-color="#A22B25"/>
<stop offset="1" stop-color="#C0423C"/>
</linearGradient>
<linearGradient id="paint16_linear_149_3037" x1="-2304.92" y1="-1453.91" x2="-2278.21" y2="-1435.62" gradientUnits="userSpaceOnUse">
<stop stop-color="#A22B25"/>
<stop offset="1" stop-color="#C0423C"/>
</linearGradient>
<linearGradient id="paint17_linear_149_3037" x1="76.5692" y1="176.358" x2="106.343" y2="194.203" gradientUnits="userSpaceOnUse">
<stop stop-color="#09005D"/>
<stop offset="1" stop-color="#1A0F91"/>
</linearGradient>
<linearGradient id="paint18_linear_149_3037" x1="-2309.57" y1="-1447.12" x2="-2282.86" y2="-1428.84" gradientUnits="userSpaceOnUse">
<stop stop-color="#A22B25"/>
<stop offset="1" stop-color="#C0423C"/>
</linearGradient>
<linearGradient id="paint19_linear_149_3037" x1="58.3609" y1="251.571" x2="123.768" y2="119.735" gradientUnits="userSpaceOnUse">
<stop stop-color="#4F52FF"/>
<stop offset="1" stop-color="#4042E2"/>
</linearGradient>
<linearGradient id="paint20_linear_149_3037" x1="66.8922" y1="245.349" x2="81.9337" y2="284.921" gradientUnits="userSpaceOnUse">
<stop stop-color="#A22B25"/>
<stop offset="1" stop-color="#C0423C"/>
</linearGradient>
<linearGradient id="paint21_linear_149_3037" x1="84.7486" y1="237.369" x2="100.827" y2="279.668" gradientUnits="userSpaceOnUse">
<stop stop-color="#A22B25"/>
<stop offset="1" stop-color="#C0423C"/>
</linearGradient>
<linearGradient id="paint22_linear_149_3037" x1="131.564" y1="245.44" x2="123.586" y2="245.44" gradientUnits="userSpaceOnUse">
<stop stop-color="#A22B25"/>
<stop offset="1" stop-color="#C0423C"/>
</linearGradient>
<linearGradient id="paint23_linear_149_3037" x1="212.774" y1="61.2248" x2="150.202" y2="101.992" gradientUnits="userSpaceOnUse">
<stop stop-color="#FF928E"/>
<stop offset="1" stop-color="#FE7062"/>
</linearGradient>
<linearGradient id="paint24_linear_149_3037" x1="207.351" y1="98.7566" x2="230.157" y2="96.6977" gradientUnits="userSpaceOnUse">
<stop stop-color="#FEBBBA"/>
<stop offset="1" stop-color="#FF928E"/>
</linearGradient>
<linearGradient id="paint25_linear_149_3037" x1="202.058" y1="44.7768" x2="139.486" y2="85.5439" gradientUnits="userSpaceOnUse">
<stop stop-color="#FF928E"/>
<stop offset="1" stop-color="#FE7062"/>
</linearGradient>
<linearGradient id="paint26_linear_149_3037" x1="154.231" y1="46.226" x2="135.007" y2="46.226" gradientUnits="userSpaceOnUse">
<stop stop-color="#FEBBBA"/>
<stop offset="1" stop-color="#FF928E"/>
</linearGradient>
<linearGradient id="paint27_linear_149_3037" x1="154.607" y1="101.639" x2="116.041" y2="101.639" gradientUnits="userSpaceOnUse">
<stop stop-color="#FEBBBA"/>
<stop offset="1" stop-color="#FF928E"/>
</linearGradient>
<linearGradient id="paint28_linear_149_3037" x1="193.595" y1="31.7874" x2="131.023" y2="72.5555" gradientUnits="userSpaceOnUse">
<stop stop-color="#FF928E"/>
<stop offset="1" stop-color="#FE7062"/>
</linearGradient>
<linearGradient id="paint29_linear_149_3037" x1="135.729" y1="80.9902" x2="85.0156" y2="95.0977" gradientUnits="userSpaceOnUse">
<stop stop-color="#E1473D"/>
<stop offset="1" stop-color="#E9605A"/>
</linearGradient>
<linearGradient id="paint30_linear_149_3037" x1="161.681" y1="27.9223" x2="136.457" y2="61.2844" gradientUnits="userSpaceOnUse">
<stop stop-color="#FEBBBA"/>
<stop offset="1" stop-color="#FF928E"/>
</linearGradient>
<linearGradient id="paint31_linear_149_3037" x1="153.477" y1="10.4852" x2="167.49" y2="79.2213" gradientUnits="userSpaceOnUse">
<stop stop-color="#09005D"/>
<stop offset="1" stop-color="#1A0F91"/>
</linearGradient>
<linearGradient id="paint32_linear_149_3037" x1="125.767" y1="53.978" x2="145.388" y2="33.8521" gradientUnits="userSpaceOnUse">
<stop stop-color="#FEBBBA"/>
<stop offset="1" stop-color="#FF928E"/>
</linearGradient>
<clipPath id="clip0_149_3037">
<rect width="292" height="290" fill="white"/>
</clipPath>
</defs>
</svg>
