<svg width="220" height="220" viewBox="0 0 220 220" fill="none" xmlns="http://www.w3.org/2000/svg">
<g clip-path="url(#clip0_354_13)">
<path d="M192.902 186.568C188.497 191.203 184.329 194.192 181.035 196.553C142.325 224.311 96.5204 216.22 86.7862 214.243C72.411 211.325 44.624 205.686 24.5344 182.075C-5.85975 146.355 -1.12663 90.0794 22.4484 52.9305C26.7611 46.1358 49.54 8.42078 95.8376 2.37258C123.857 -1.28789 156.517 6.09473 180.17 25.8986C229.818 67.4685 226.284 151.446 192.901 186.568H192.902Z" fill="url(#paint0_linear_354_13)"/>
<path d="M2.85565 211.96H96.511V193.227H2.85565C4.86047 193.227 4.86047 211.96 2.85565 211.96Z" fill="#BDD0FB"/>
<path d="M96.511 207.272V198.699C96.511 195.677 94.6601 193.227 92.3772 193.227H3.25099C1.45556 193.227 0 191.772 0 189.978C0 189.433 0.442217 188.991 0.987565 188.991H98.3955C100.629 188.991 104.176 192.501 104.176 196.831V208.804C104.176 212.887 100.733 216.196 98.6268 216.196H1.5001C0.671919 216.196 0 215.525 0 214.697C0 213.186 1.22586 211.96 2.73846 211.96H92.9694C94.925 211.96 96.511 209.862 96.511 207.272Z" fill="url(#paint1_linear_354_13)"/>
<path d="M93.9132 197.336H6.09885C5.95196 197.336 5.83398 197.217 5.83398 197.071C5.83398 196.925 5.95274 196.807 6.09885 196.807H93.9132C94.0601 196.807 94.1781 196.925 94.1781 197.071C94.1781 197.217 94.0593 197.336 93.9132 197.336Z" fill="url(#paint2_linear_354_13)"/>
<path d="M93.9132 200.116H6.09885C5.95196 200.116 5.83398 199.998 5.83398 199.852C5.83398 199.706 5.95274 199.587 6.09885 199.587H93.9132C94.0601 199.587 94.1781 199.706 94.1781 199.852C94.1781 199.998 94.0593 200.116 93.9132 200.116Z" fill="url(#paint3_linear_354_13)"/>
<path d="M93.9132 202.897H6.09885C5.95196 202.897 5.83398 202.778 5.83398 202.632C5.83398 202.486 5.95274 202.367 6.09885 202.367H93.9132C94.0601 202.367 94.1781 202.486 94.1781 202.632C94.1781 202.778 94.0593 202.897 93.9132 202.897Z" fill="url(#paint4_linear_354_13)"/>
<path d="M93.9132 205.677H6.09885C5.95196 205.677 5.83398 205.558 5.83398 205.412C5.83398 205.266 5.95274 205.147 6.09885 205.147H93.9132C94.0601 205.147 94.1781 205.266 94.1781 205.412C94.1781 205.558 94.0593 205.677 93.9132 205.677Z" fill="url(#paint5_linear_354_13)"/>
<path d="M93.9132 208.458H6.09885C5.95196 208.458 5.83398 208.339 5.83398 208.193C5.83398 208.047 5.95274 207.929 6.09885 207.929H93.9132C94.0601 207.929 94.1781 208.047 94.1781 208.193C94.1781 208.339 94.0593 208.458 93.9132 208.458Z" fill="url(#paint6_linear_354_13)"/>
<path d="M15.6979 168.412H91.2294C94.171 168.412 96.5595 170.799 96.5595 173.739V183.879C96.5595 186.818 94.171 189.205 91.2294 189.205H15.6979C12.7563 189.205 10.3679 186.818 10.3679 183.879V173.739C10.3679 170.799 12.7563 168.412 15.6979 168.412Z" fill="#7D97F4"/>
<path d="M77.2582 186.815H86.2525C86.565 186.815 86.8182 186.562 86.8182 186.25V171.368C86.8182 171.056 86.565 170.802 86.2525 170.802H77.2582C76.9458 170.802 76.6925 171.056 76.6925 171.368V186.25C76.6925 186.562 76.9458 186.815 77.2582 186.815Z" fill="url(#paint7_linear_354_13)"/>
<path d="M74.9166 186.815H71.6906C71.532 186.815 71.4039 186.687 71.4039 186.529V171.089C71.4039 170.931 71.532 170.802 71.6906 170.802H74.9166C75.0752 170.802 75.2034 170.931 75.2034 171.089V186.529C75.2034 186.687 75.0752 186.815 74.9166 186.815Z" fill="url(#paint8_linear_354_13)"/>
<path d="M89.0301 116.181C89.0301 116.181 67.8974 42.2732 29.3316 3.18787C26.7393 0.560426 22.2671 1.82301 21.4553 5.42257C16.0307 29.4936 6.8356 102.176 89.0293 116.181H89.0301Z" fill="#BDD0FB"/>
<path d="M81.3608 111.705C81.5515 111.875 81.3225 112.168 81.1108 112.025C73.3033 106.758 42.8474 80.5172 29.5527 26.0561C29.5098 25.8812 29.7668 25.8023 29.8246 25.9725C34.0733 38.5437 51.2081 84.8297 81.3608 111.705Z" fill="url(#paint9_linear_354_13)"/>
<path d="M105.894 171.324C105.894 171.324 64.4761 87.3611 9.75299 48.9168C6.07462 46.3323 0.990691 48.8184 0.803179 53.3081C-0.453935 83.3306 4.35654 172.421 105.894 171.325V171.324Z" fill="#91B3FA"/>
<path d="M95.7297 167.627C95.9954 167.79 95.7852 168.19 95.5 168.065C84.997 163.453 42.7895 138.635 14.9994 76.2695C14.9104 76.0688 15.2002 75.9181 15.3065 76.1102C23.1351 90.2492 53.7473 141.983 95.7297 167.627Z" fill="#BDD0FB"/>
<path d="M34.303 15.4869C34.2749 12.9602 36.4883 10.9933 38.9955 11.3197C55.624 13.4857 112.801 20.153 160.026 16.2833C162.179 16.1069 164.058 17.7286 164.184 19.8844L174.524 196.929C174.665 199.357 172.822 201.443 170.393 201.599C150.529 202.877 68.7233 207.846 39.5198 204.943C37.7423 204.766 36.386 203.278 36.3664 201.493L34.303 15.4869Z" fill="#7D97F4"/>
<path d="M36.2829 19.9147C36.2555 17.4832 38.3861 15.5897 40.7988 15.9044C56.8014 17.9884 111.825 24.4051 157.272 20.6806C159.345 20.5104 161.152 22.0713 161.273 24.1459L171.224 194.524C171.36 196.86 169.585 198.868 167.248 199.018C148.133 200.249 69.4069 205.03 41.3035 202.236C39.5932 202.066 38.2877 200.635 38.2689 198.917L36.2829 19.9147Z" fill="#BDD0FB"/>
<path opacity="0.78" d="M51.1549 32.9774L53.0433 69.5064C53.1058 70.7213 54.0934 71.6825 55.3107 71.7106C62.083 71.866 83.1836 72.2705 95.0937 71.588C96.4407 71.5107 97.5017 70.416 97.5392 69.0676C97.7306 62.2143 98.1236 42.2684 96.5181 33.9394C96.2587 32.594 95.0953 31.6133 93.7249 31.5727L53.6965 30.382C52.2534 30.339 51.0807 31.5368 51.1549 32.9782V32.9774Z" fill="white"/>
<path d="M82.0849 46.515C82.4148 42.1898 79.1739 38.4162 74.846 38.0864C70.5181 37.7567 66.7421 40.9956 66.4121 45.3208C66.0822 49.6461 69.3231 53.4197 73.651 53.7494C77.9789 54.0792 81.7549 50.8403 82.0849 46.515Z" fill="url(#paint10_linear_354_13)"/>
<path d="M62.4346 69.0436L87.4729 68.9132C89.0082 68.9054 89.9192 67.2063 89.0855 65.918C86.9416 62.6034 82.4663 57.7405 74.7611 58.0013C67.3349 58.2527 62.9557 62.6885 60.7587 65.8657C59.8266 67.2141 60.7938 69.0522 62.4338 69.0436H62.4346Z" fill="url(#paint11_linear_354_13)"/>
<g opacity="0.6">
<path d="M151.472 35.6357C152.161 35.6318 152.705 35.0774 152.682 34.4036C152.658 33.7298 152.076 33.1707 151.388 33.1621L107.149 32.6046C106.461 32.596 106.087 33.1184 106.319 33.7665L106.65 34.6894C106.882 35.3367 107.635 35.8637 108.324 35.8606L151.472 35.6365V35.6357Z" fill="white"/>
</g>
<g opacity="0.6">
<path d="M107.185 39.4161C106.497 39.4075 106.123 39.9299 106.355 40.578L106.686 41.5009C106.918 42.1482 107.671 42.6753 108.359 42.6721L151.508 42.448C152.197 42.4441 152.741 41.8897 152.718 41.2159C152.695 40.5421 152.112 39.983 151.424 39.9744L107.185 39.4169V39.4161Z" fill="white"/>
</g>
<g opacity="0.6">
<path d="M107.221 46.3273C106.533 46.3187 106.159 46.841 106.391 47.4891L106.722 48.412C106.954 49.0593 107.707 49.5864 108.395 49.5833L151.544 49.3592C152.233 49.3553 152.776 48.8009 152.754 48.127C152.731 47.4532 152.148 46.8941 151.46 46.8855L107.221 46.328V46.3273Z" fill="white"/>
</g>
<g opacity="0.6">
<path d="M155.981 82.6614C156.669 82.6575 157.192 82.1039 157.145 81.4292C157.096 80.7554 156.494 80.2026 155.806 80.2002L52.6386 79.9238C51.9503 79.9223 51.7401 80.3588 52.1714 80.8952L53.2355 82.2163C53.6668 82.7519 54.5833 83.1876 55.2716 83.1845L155.98 82.6606L155.981 82.6614Z" fill="white"/>
</g>
<g opacity="0.6">
<path d="M52.6746 86.7361C51.9862 86.7346 51.7761 87.1711 52.2073 87.7075L53.2715 89.0286C53.7027 89.5643 54.6192 89.9999 55.3075 89.9968L156.016 89.4729C156.704 89.469 157.228 88.9154 157.18 88.2408C157.132 87.5669 156.529 87.0141 155.841 87.0118L52.6738 86.7354L52.6746 86.7361Z" fill="white"/>
</g>
<path opacity="0.6" d="M52.4441 98.1125C54.9153 97.9103 59.5437 97.7986 62.0924 97.7494C63.1721 97.7291 64.123 98.4545 64.3816 99.5024C64.8839 101.537 65.5809 105.072 65.5152 108.821C65.4957 109.944 64.58 110.845 63.4565 110.839L54.052 110.787C52.8957 110.78 51.9307 109.902 51.8175 108.752L50.9447 99.9154C50.8541 99.0011 51.5292 98.1883 52.4448 98.1133L52.4441 98.1125Z" fill="white"/>
<g opacity="0.6">
<path d="M69.6788 101.645C68.9912 101.62 68.5146 102.156 68.6201 102.835L68.9092 104.694C69.0147 105.374 69.6647 105.927 70.353 105.923L93.5397 105.802C94.2281 105.799 94.7812 105.233 94.7695 104.545L94.7562 103.811C94.7437 103.123 94.171 102.54 93.4835 102.515L69.678 101.645L69.6788 101.645Z" fill="white"/>
</g>
<path opacity="0.6" d="M103.674 97.8459C106.145 97.6437 110.774 97.532 113.322 97.4828C114.402 97.4625 115.353 98.1879 115.611 99.2358C116.114 101.271 116.811 104.805 116.745 108.555C116.726 109.678 115.81 110.579 114.686 110.572L105.282 110.52C104.126 110.514 103.161 109.635 103.047 108.485L102.175 99.6488C102.084 98.7345 102.759 97.9217 103.675 97.8467L103.674 97.8459Z" fill="white"/>
<g opacity="0.6">
<path d="M120.909 101.379C120.221 101.354 119.745 101.889 119.85 102.569L120.139 104.427C120.245 105.107 120.895 105.66 121.583 105.656L144.77 105.536C145.458 105.532 146.011 104.967 145.999 104.279L145.986 103.545C145.974 102.857 145.401 102.274 144.713 102.249L120.908 101.378L120.909 101.379Z" fill="white"/>
</g>
<path d="M65.8949 133.12C65.8871 133.12 65.8793 133.12 65.8715 133.12L57.1936 133.081C55.9537 133.076 54.9262 132.229 54.8028 131.111L54.002 123.84C53.9551 123.413 54.0856 122.99 54.3692 122.649C54.6872 122.267 55.17 122.026 55.6935 121.987C56.424 121.933 57.4538 121.84 58.5429 121.742C60.8368 121.534 63.6917 121.276 65.2988 121.248C66.4645 121.236 67.4575 121.92 67.7372 122.934C68.1982 124.602 68.1748 127.764 68.106 131.133C68.0841 132.226 67.0942 133.113 65.8942 133.12H65.8949ZM55.7427 122.651C55.3982 122.676 55.0848 122.83 54.8817 123.074C54.7145 123.274 54.6372 123.52 54.6645 123.766L55.4653 131.037C55.5513 131.819 56.2959 132.411 57.1967 132.415L65.8746 132.453C65.8801 132.453 65.8863 132.453 65.8918 132.453C66.7325 132.448 67.4255 131.853 67.4411 131.118C67.5083 127.8 67.5325 124.692 67.0958 123.11C66.8997 122.401 66.1582 121.911 65.3113 121.913C63.7284 121.941 60.8868 122.198 58.6038 122.404C57.5116 122.502 56.4795 122.596 55.7435 122.65L55.7427 122.651Z" fill="white"/>
<path opacity="0.6" d="M56.6803 123.397C58.5023 123.263 62.4627 122.841 64.3417 122.808C65.1379 122.794 65.8387 123.271 66.0293 123.96C66.3989 125.298 66.3645 127.969 66.3145 130.435C66.2996 131.174 65.6238 131.766 64.7956 131.762L57.8608 131.732C57.0084 131.728 56.2966 131.151 56.2138 130.394L55.5739 124.583C55.5075 123.981 56.0052 123.447 56.681 123.397L56.6803 123.397Z" fill="white"/>
<g opacity="0.6">
<path d="M73.4907 128.249C73.747 129.2 74.6158 129.856 75.601 129.842L155.884 128.74C156.792 128.728 157.515 127.976 157.491 127.068C157.467 126.185 156.744 125.483 155.861 125.483L75.5706 125.535C74.1533 125.536 73.1228 126.88 73.4915 128.248L73.4907 128.249Z" fill="white"/>
</g>
<path d="M65.9918 151.707C65.984 151.707 65.9762 151.707 65.9684 151.707L57.2905 151.668C56.0506 151.663 55.0231 150.816 54.8997 149.698L54.0989 142.427C54.052 142 54.1825 141.577 54.4661 141.236C54.7841 140.854 55.2669 140.613 55.7904 140.575C56.5209 140.521 57.5499 140.428 58.6398 140.329C60.9337 140.122 63.7886 139.864 65.3957 139.836C65.4074 139.836 65.4191 139.836 65.4309 139.836C66.5723 139.83 67.5576 140.519 67.8349 141.523C68.2959 143.19 68.2724 146.353 68.2037 149.721C68.1818 150.815 67.1919 151.702 65.9918 151.708V151.707ZM55.8396 141.238C55.495 141.263 55.1817 141.417 54.9786 141.661C54.8114 141.861 54.7341 142.107 54.7614 142.353L55.5622 149.624C55.6482 150.406 56.3928 150.998 57.2936 151.002L65.9715 151.04C65.977 151.04 65.9832 151.04 65.9887 151.04C66.8294 151.035 67.5224 150.439 67.538 149.705C67.6052 146.387 67.6294 143.279 67.1927 141.697C66.9966 140.988 66.245 140.482 65.4082 140.5C63.8253 140.528 60.9837 140.785 58.7007 140.991C57.6085 141.089 56.5764 141.183 55.8404 141.237L55.8396 141.238Z" fill="white"/>
<path opacity="0.6" d="M56.7764 141.983C58.5984 141.849 62.5588 141.427 64.4378 141.394C65.2339 141.38 65.9348 141.857 66.1254 142.546C66.495 143.884 66.4606 146.555 66.4106 149.021C66.3957 149.76 65.7199 150.352 64.8917 150.348L57.9569 150.318C57.1045 150.314 56.3927 149.737 56.3099 148.98L55.67 143.169C55.6036 142.567 56.1013 142.033 56.7771 141.983L56.7764 141.983Z" fill="white"/>
<g opacity="0.6">
<path d="M73.5876 146.835C73.8439 147.786 74.7127 148.442 75.6979 148.428L155.981 147.326C156.889 147.314 157.612 146.562 157.588 145.654C157.563 144.771 156.841 144.069 155.958 144.069L75.6675 144.121C74.2502 144.122 73.2196 145.466 73.5884 146.834L73.5876 146.835Z" fill="white"/>
</g>
<path d="M66.0879 170.292C66.0801 170.292 66.0723 170.292 66.0645 170.292L57.3866 170.254C56.1466 170.249 55.1192 169.402 54.9958 168.284L54.195 161.012C54.1481 160.585 54.2786 160.162 54.5622 159.821C54.8802 159.439 55.3622 159.198 55.8865 159.159C56.617 159.105 57.646 159.012 58.7359 158.913C61.0298 158.706 63.8847 158.448 65.4918 158.42C65.5035 158.42 65.5152 158.42 65.527 158.42C66.6684 158.414 67.6537 159.103 67.931 160.107C68.392 161.774 68.3685 164.937 68.2998 168.305C68.2779 169.399 67.288 170.286 66.0879 170.292ZM55.9357 159.823C55.5911 159.848 55.2778 160.003 55.0747 160.246C54.9075 160.447 54.8302 160.693 54.8575 160.939L55.6583 168.211C55.7443 168.992 56.4889 169.584 57.3897 169.588L66.0676 169.626C66.0731 169.626 66.0793 169.626 66.0848 169.626C66.9255 169.622 67.6185 169.026 67.6341 168.291C67.7013 164.973 67.7255 161.865 67.2888 160.283C67.0927 159.575 66.3411 159.066 65.5043 159.086C63.9214 159.114 61.0798 159.371 58.7968 159.577C57.7046 159.676 56.6725 159.769 55.9365 159.823H55.9357Z" fill="white"/>
<path opacity="0.6" d="M56.8733 160.569C58.6952 160.435 62.6557 160.013 64.5347 159.98C65.3308 159.966 66.0317 160.443 66.2223 161.131C66.5919 162.47 66.5575 165.141 66.5075 167.607C66.4926 168.345 65.8168 168.938 64.9886 168.934L58.0538 168.904C57.2014 168.9 56.4896 168.323 56.4068 167.566L55.7669 161.755C55.7005 161.153 56.1982 160.619 56.874 160.569L56.8733 160.569Z" fill="white"/>
<g opacity="0.6">
<path d="M73.6845 165.421C73.9408 166.372 74.8096 167.028 75.7948 167.014L156.078 165.912C156.986 165.9 157.709 165.148 157.685 164.24C157.66 163.357 156.938 162.654 156.055 162.655L75.7643 162.707C74.347 162.708 73.3165 164.052 73.6853 165.42L73.6845 165.421Z" fill="white"/>
</g>
<path d="M66.1848 188.878C66.177 188.878 66.1692 188.878 66.1613 188.878L57.4834 188.84C56.2435 188.834 55.2161 187.988 55.0927 186.87L54.2918 179.598C54.2449 179.171 54.3754 178.748 54.659 178.407C54.977 178.025 55.4591 177.784 55.9833 177.745C56.7139 177.691 57.7436 177.598 58.8327 177.499C61.1266 177.292 63.9815 177.034 65.5887 177.006C65.6004 177.006 65.6121 177.006 65.6238 177.006C66.7653 177 67.7505 177.689 68.0279 178.692C68.4888 180.36 68.4654 183.523 68.3967 186.891C68.3748 187.985 67.3849 188.872 66.1848 188.878ZM56.0326 178.409C55.688 178.434 55.3747 178.589 55.1716 178.832C55.0044 179.033 54.927 179.279 54.9544 179.525L55.7552 186.797C55.8411 187.578 56.5857 188.17 57.4866 188.174L66.1645 188.212C66.1699 188.212 66.1762 188.212 66.1817 188.212C67.0223 188.207 67.7154 187.612 67.731 186.877C67.7982 183.559 67.8224 180.451 67.3856 178.869C67.1895 178.161 66.4379 177.649 65.6012 177.672C64.0182 177.7 61.1766 177.957 58.8937 178.163C57.8014 178.261 56.7693 178.355 56.0333 178.409H56.0326Z" fill="white"/>
<path opacity="0.6" d="M56.9701 179.156C58.7921 179.022 62.7525 178.6 64.6316 178.567C65.4277 178.553 66.1285 179.03 66.3192 179.718C66.6887 181.057 66.6543 183.728 66.6043 186.194C66.5895 186.932 65.9137 187.525 65.0855 187.521L58.1507 187.491C57.2983 187.487 56.5865 186.91 56.5037 186.153L55.8638 180.342C55.7974 179.74 56.2951 179.205 56.9709 179.155L56.9701 179.156Z" fill="white"/>
<g opacity="0.6">
<path d="M73.7814 184.007C74.0377 184.958 74.9065 185.614 75.8917 185.6L156.175 184.498C157.083 184.486 157.806 183.734 157.781 182.825C157.757 181.943 157.035 181.24 156.152 181.241L75.8612 181.293C74.4439 181.294 73.4134 182.638 73.7822 184.006L73.7814 184.007Z" fill="white"/>
</g>
<path d="M57.3459 180.295C57.9882 179.914 58.8187 180.135 59.1859 180.786L60.9134 183.843C61.086 184.149 61.5345 184.128 61.6767 183.807L65.8723 174.339C66.0817 173.867 66.7848 174.023 66.7794 174.539C66.7512 177.428 66.0129 182.924 61.4173 187.545C61.4173 187.545 58.8663 186.57 56.7935 182.082C56.4943 181.434 56.731 180.661 57.3459 180.297V180.295Z" fill="url(#paint12_linear_354_13)"/>
<path d="M44.7858 26.5142C44.7576 23.9875 46.9711 22.0206 49.4783 22.347C66.1067 24.513 123.284 31.1804 170.509 27.3107C172.662 27.1342 174.54 28.756 174.667 30.9118L185.007 207.957C185.148 210.384 183.304 212.47 180.876 212.627C161.012 213.905 79.206 218.873 50.0025 215.97C48.225 215.794 46.8687 214.305 46.8492 212.52L44.7858 26.5142Z" fill="#7D97F4"/>
<path d="M46.7664 30.941C46.739 28.5096 48.8696 26.6161 51.2823 26.9307C67.2849 29.0147 122.309 35.4315 167.756 31.707C169.828 31.5368 171.636 33.0976 171.757 35.1723L181.707 205.55C181.844 207.887 180.069 209.894 177.732 210.045C158.617 211.275 79.8904 216.056 51.787 213.263C50.0767 213.092 48.7712 211.661 48.7524 209.943L46.7664 30.9418V30.941Z" fill="#BDD0FB"/>
<path d="M75.7738 136.899C75.7659 136.899 75.7581 136.899 75.7503 136.899L67.0724 136.861C65.8325 136.855 64.8051 136.008 64.6816 134.891L63.8808 127.619C63.8339 127.192 63.9644 126.77 64.248 126.428C64.566 126.047 65.0488 125.805 65.5723 125.767C66.3028 125.713 67.3326 125.62 68.4217 125.522C70.7156 125.314 73.5705 125.057 75.1776 125.028C76.3433 125.017 77.3364 125.701 77.6161 126.714C78.077 128.382 78.0536 131.544 77.9848 134.913C77.963 136.007 76.973 136.894 75.773 136.9L75.7738 136.899ZM65.6215 126.43C65.277 126.455 64.9637 126.61 64.7605 126.853C64.5933 127.054 64.516 127.3 64.5433 127.545L65.3442 134.817C65.4301 135.598 66.1747 136.19 67.0755 136.194L75.7534 136.232C75.7589 136.232 75.7652 136.232 75.7706 136.232C76.6113 136.228 77.3043 135.632 77.3199 134.897C77.3871 131.58 77.4114 128.471 76.9746 126.889C76.7785 126.18 76.037 125.691 75.1901 125.692C73.6072 125.72 70.7656 125.977 68.4826 126.183C67.3904 126.282 66.3583 126.375 65.6223 126.429L65.6215 126.43Z" fill="white"/>
<path opacity="0.6" d="M66.5583 127.177C68.3803 127.042 72.3407 126.62 74.2198 126.587C75.0159 126.573 75.7167 127.05 75.9074 127.739C76.2769 129.077 76.2425 131.748 76.1925 134.214C76.1777 134.953 75.5019 135.546 74.6737 135.542L67.7389 135.511C66.8865 135.507 66.1747 134.93 66.0919 134.174L65.452 128.362C65.3856 127.761 65.8833 127.226 66.5591 127.176L66.5583 127.177Z" fill="white"/>
<g opacity="0.6">
<path d="M83.3696 132.028C83.6258 132.979 84.4946 133.635 85.4799 133.621L165.763 132.519C166.671 132.507 167.394 131.755 167.37 130.847C167.345 129.965 166.623 129.262 165.74 129.263L85.4494 129.314C84.0321 129.315 83.0016 130.66 83.3703 132.028L83.3696 132.028Z" fill="white"/>
</g>
<path d="M75.8706 158.505C75.8628 158.505 75.855 158.505 75.8472 158.505L67.1693 158.467C65.9294 158.462 64.902 157.614 64.7785 156.497L63.9777 149.225C63.9308 148.798 64.0613 148.376 64.3449 148.035C64.6629 147.653 65.1457 147.412 65.6692 147.372C66.3997 147.319 67.4287 147.226 68.5186 147.127C70.8125 146.92 73.6674 146.662 75.2745 146.634C75.2862 146.634 75.298 146.634 75.3097 146.634C76.4512 146.628 77.4364 147.317 77.7137 148.32C78.1747 149.988 78.1513 153.151 78.0825 156.519C78.0606 157.613 77.0707 158.5 75.8706 158.506V158.505ZM65.7184 148.036C65.3739 148.061 65.0606 148.216 64.8574 148.459C64.6902 148.66 64.6129 148.906 64.6402 149.151L65.4411 156.423C65.527 157.205 66.2716 157.796 67.1724 157.8L75.8503 157.839C75.8558 157.839 75.862 157.839 75.8675 157.839C76.7082 157.834 77.4012 157.238 77.4168 156.503C77.484 153.186 77.5083 150.077 77.0715 148.495C76.8754 147.787 76.1238 147.28 75.287 147.298C73.7041 147.326 70.8625 147.583 68.5795 147.789C67.4873 147.888 66.4552 147.982 65.7192 148.035L65.7184 148.036Z" fill="white"/>
<path opacity="0.6" d="M66.6552 148.783C68.4772 148.649 72.4376 148.226 74.3166 148.194C75.1128 148.18 75.8136 148.657 76.0042 149.345C76.3738 150.684 76.3394 153.355 76.2894 155.821C76.2746 156.559 75.5987 157.152 74.7706 157.148L67.8357 157.118C66.9833 157.114 66.2723 156.537 66.1887 155.78L65.5489 149.968C65.4824 149.367 65.9801 148.832 66.656 148.782L66.6552 148.783Z" fill="white"/>
<g opacity="0.6">
<path d="M83.4665 153.634C83.7227 154.585 84.5915 155.241 85.5767 155.227L165.86 154.125C166.768 154.112 167.491 153.361 167.467 152.452C167.442 151.57 166.72 150.867 165.837 150.868L85.5463 150.92C84.129 150.92 83.0985 152.265 83.4672 153.633L83.4665 153.634Z" fill="white"/>
</g>
<path d="M75.9667 181.017C75.9589 181.017 75.9511 181.017 75.9433 181.017L67.2654 180.979C66.0255 180.973 64.9981 180.127 64.8746 179.009L64.0738 171.737C64.0269 171.31 64.1574 170.887 64.4418 170.545C64.7598 170.164 65.2418 169.922 65.7661 169.883C66.4966 169.829 67.5256 169.736 68.6155 169.638C70.9094 169.43 73.7642 169.173 75.3714 169.145C75.3831 169.145 75.3948 169.145 75.4065 169.145C76.548 169.138 77.5332 169.828 77.8106 170.831C78.2716 172.499 78.2481 175.661 78.1794 179.03C78.1575 180.124 77.1676 181.011 75.9675 181.017H75.9667ZM65.8145 170.548C65.47 170.573 65.1567 170.727 64.9535 170.971C64.7863 171.172 64.709 171.418 64.7363 171.663L65.5371 178.935C65.6231 179.717 66.3677 180.309 67.2685 180.313L75.9464 180.351C75.9519 180.351 75.9581 180.351 75.9636 180.351C76.8043 180.346 77.4973 179.75 77.5129 179.016C77.5801 175.698 77.6043 172.59 77.1676 171.008C76.9715 170.299 76.2199 169.79 75.3831 169.811C73.8002 169.839 70.9586 170.096 68.6756 170.302C67.5834 170.4 66.5513 170.494 65.8153 170.548H65.8145Z" fill="white"/>
<path opacity="0.6" d="M66.7521 171.295C68.5741 171.161 72.5345 170.738 74.4135 170.705C75.2097 170.691 75.9105 171.168 76.1011 171.857C76.4707 173.195 76.4363 175.867 76.3863 178.332C76.3714 179.071 75.6956 179.664 74.8674 179.66L67.9326 179.629C67.0802 179.625 66.3684 179.048 66.2856 178.292L65.6457 172.48C65.5793 171.879 66.077 171.344 66.7528 171.294L66.7521 171.295Z" fill="white"/>
<g opacity="0.6">
<path d="M83.5633 176.147C83.8196 177.098 84.6884 177.753 85.6736 177.739L165.957 176.638C166.865 176.625 167.588 175.873 167.563 174.965C167.539 174.083 166.816 173.38 165.934 173.381L85.6431 173.432C84.2259 173.433 83.1953 174.778 83.5641 176.146L83.5633 176.147Z" fill="white"/>
</g>
<path d="M76.6683 203.529C76.6605 203.529 76.6527 203.529 76.6449 203.529L67.967 203.49C66.7271 203.485 65.6997 202.638 65.5762 201.52L64.7754 194.249C64.7285 193.821 64.859 193.398 65.1426 193.057C65.4606 192.675 65.9426 192.434 66.4669 192.395C67.1974 192.341 68.2272 192.248 69.3163 192.15C71.6102 191.942 74.4651 191.684 76.0722 191.656C76.0839 191.656 76.0956 191.656 76.1074 191.656C77.2488 191.65 78.2341 192.34 78.5114 193.343C78.9724 195.011 78.949 198.173 78.8802 201.541C78.8583 202.635 77.8684 203.522 76.6683 203.529ZM66.5161 193.059C66.1716 193.084 65.8583 193.239 65.6551 193.483C65.4879 193.683 65.4106 193.929 65.4379 194.175L66.2387 201.447C66.3247 202.229 67.0693 202.82 67.9701 202.824L76.648 202.863C76.6535 202.863 76.6597 202.863 76.6652 202.863C77.5059 202.858 78.1989 202.262 78.2145 201.527C78.2817 198.21 78.3059 195.101 77.8692 193.519C77.6731 192.811 76.9215 192.3 76.0847 192.322C74.5018 192.35 71.6602 192.607 69.3772 192.813C68.285 192.912 67.2529 193.006 66.5169 193.059H66.5161Z" fill="white"/>
<path opacity="0.6" d="M67.4537 193.807C69.2757 193.672 73.2361 193.25 75.1151 193.217C75.9113 193.203 76.6121 193.68 76.8027 194.369C77.1723 195.707 77.1379 198.378 77.0879 200.844C77.073 201.583 76.3972 202.175 75.569 202.172L68.6342 202.141C67.7818 202.137 67.07 201.56 66.9872 200.804L66.3473 194.992C66.2809 194.391 66.7786 193.856 67.4544 193.806L67.4537 193.807Z" fill="white"/>
<g opacity="0.6">
<path d="M84.2649 198.658C84.5212 199.609 85.39 200.265 86.3752 200.251L166.659 199.149C167.567 199.137 168.289 198.385 168.265 197.477C168.241 196.595 167.518 195.892 166.635 195.893L86.3448 195.944C84.9275 195.945 83.897 197.289 84.2657 198.657L84.2649 198.658Z" fill="white"/>
</g>
<path d="M67.8287 194.945C68.4709 194.564 69.3015 194.785 69.6687 195.435L71.3961 198.493C71.5688 198.799 72.0173 198.777 72.1595 198.456L76.3551 188.989C76.5644 188.516 77.2676 188.672 77.2621 189.189C77.234 192.078 76.4957 197.574 71.9001 202.195C71.9001 202.195 69.3491 201.22 67.2763 196.731C66.9771 196.083 67.2138 195.311 67.8287 194.947V194.945Z" fill="url(#paint13_linear_354_13)"/>
<path d="M66.7646 171.694C67.4068 171.313 68.2373 171.534 68.6045 172.184L70.332 175.241C70.5047 175.547 70.9531 175.525 71.0953 175.204L75.2909 165.737C75.5003 165.265 76.2035 165.42 76.198 165.937C76.1699 168.826 75.4315 174.322 70.8359 178.943C70.8359 178.943 68.285 177.968 66.2122 173.479C65.9129 172.831 66.1497 172.059 66.7646 171.695V171.694Z" fill="url(#paint14_linear_354_13)"/>
<path d="M66.7646 149.221C67.4068 148.84 68.2373 149.061 68.6045 149.711L70.332 152.768C70.5047 153.074 70.9531 153.052 71.0953 152.731L75.2909 143.264C75.5003 142.792 76.2035 142.948 76.198 143.464C76.1699 146.353 75.4315 151.849 70.8359 156.47C70.8359 156.47 68.285 155.495 66.2122 151.007C65.9129 150.359 66.1497 149.586 66.7646 149.222V149.221Z" fill="url(#paint15_linear_354_13)"/>
<path d="M75.7511 121.853C75.9605 121.381 76.6636 121.536 76.6582 122.053C76.63 124.942 75.8917 130.438 71.2961 135.059C71.2961 135.059 68.7452 134.084 66.6724 129.596C66.3731 128.948 66.6099 128.175 67.2247 127.811C67.867 127.43 68.6975 127.651 69.0647 128.301L70.7922 131.358C70.9648 131.664 71.4133 131.642 71.5555 131.321L75.7511 121.854V121.853Z" fill="url(#paint16_linear_354_13)"/>
<path d="M74.0432 70.1304C74.0353 70.1304 74.0275 70.1304 74.0197 70.1304L65.3418 70.0921C64.1019 70.0866 63.0745 69.2395 62.951 68.1221L62.1502 60.8504C62.1033 60.4233 62.2338 60.0008 62.5174 59.6596C62.8354 59.2778 63.3182 59.0365 63.8417 58.9975C64.5722 58.9436 65.602 58.8507 66.6911 58.7523C68.985 58.5446 71.8399 58.2869 73.447 58.2588C73.4587 58.2588 73.4705 58.2588 73.4822 58.2588C74.6237 58.2526 75.6089 58.942 75.8863 59.9454C76.3472 61.6132 76.3238 64.7755 76.255 68.144C76.2331 69.2379 75.2432 70.1249 74.0432 70.1311V70.1304ZM63.8909 59.6612C63.5464 59.6862 63.2331 59.8408 63.0299 60.0844C62.8627 60.2851 62.7854 60.531 62.8127 60.7762L63.6136 68.0479C63.6995 68.8295 64.4441 69.4214 65.3449 69.4253L74.0228 69.4636C74.0283 69.4636 74.0346 69.4636 74.04 69.4636C74.8807 69.4589 75.5737 68.8631 75.5894 68.1284C75.6565 64.8107 75.6808 61.7022 75.244 60.1203C75.0479 59.4121 74.2963 58.9053 73.4595 58.9233C71.8766 58.9514 69.035 59.2083 66.7521 59.4144C65.6598 59.5128 64.6277 59.6065 63.8917 59.6604L63.8909 59.6612Z" fill="white"/>
<path opacity="0.6" d="M64.8277 60.4072C66.6497 60.2729 70.6101 59.8505 72.4892 59.8177C73.2853 59.8036 73.9861 60.2807 74.1768 60.9694C74.5463 62.3077 74.5119 64.9789 74.4619 67.4447C74.4471 68.1834 73.7713 68.776 72.9431 68.7721L66.0083 68.7416C65.1559 68.7377 64.4449 68.1607 64.3613 67.4041L63.7214 61.5925C63.655 60.9913 64.1527 60.4564 64.8285 60.4064L64.8277 60.4072Z" fill="white"/>
<g opacity="0.6">
<path d="M81.639 65.2598C81.8952 66.2108 82.764 66.8667 83.7493 66.8527L164.033 65.7509C164.941 65.7384 165.663 64.9865 165.639 64.0784C165.615 63.1961 164.892 62.4934 164.009 62.4941L83.7188 62.5457C82.3015 62.5465 81.271 63.891 81.6398 65.259L81.639 65.2598Z" fill="white"/>
</g>
<g opacity="0.6">
<path d="M69.9101 45.8906C70.1437 47.3429 70.9961 48.3587 71.9821 48.358L152.276 48.301C153.185 48.301 153.925 47.1696 153.923 45.7883C153.92 44.4453 153.214 43.3615 152.331 43.3443L72.054 41.803C70.6367 41.7757 69.5749 43.8019 69.9101 45.8906Z" fill="white"/>
</g>
<path d="M74.1393 92.6429C74.1314 92.6429 74.1236 92.6429 74.1158 92.6429L65.4379 92.6046C64.198 92.5991 63.1706 91.7527 63.0471 90.6346L62.2463 83.3629C62.1994 82.9358 62.3299 82.5126 62.6143 82.1713C62.9323 81.7895 63.4143 81.5482 63.9386 81.5092C64.6691 81.4553 65.6989 81.3624 66.788 81.264C69.0819 81.0563 71.9368 80.7987 73.5439 80.7705C73.5556 80.7705 73.5673 80.7705 73.5791 80.7705C74.7205 80.7643 75.7058 81.4538 75.9831 82.4571C76.4441 84.1249 76.4207 87.2873 76.3519 90.6557C76.33 91.7496 75.3401 92.6366 74.14 92.6429H74.1393ZM63.987 82.1737C63.6425 82.1987 63.3292 82.3533 63.126 82.5969C62.9588 82.7976 62.8815 83.0435 62.9088 83.2895L63.7097 90.5612C63.7956 91.3428 64.5402 91.9347 65.441 91.9386L74.1189 91.9768C74.1244 91.9768 74.1307 91.9768 74.1361 91.9768C74.9768 91.9721 75.6698 91.3764 75.6855 90.6416C75.7526 87.3239 75.7769 84.2155 75.3401 82.6336C75.144 81.9254 74.3924 81.4163 73.5556 81.4366C71.9727 81.4647 69.1311 81.7216 66.8481 81.9277C65.7559 82.0261 64.7238 82.1198 63.9878 82.1737H63.987Z" fill="white"/>
<path opacity="0.6" d="M64.9246 82.9199C66.7466 82.7856 70.707 82.3632 72.586 82.3304C73.3822 82.3163 74.083 82.7934 74.2736 83.4821C74.6432 84.8204 74.6088 87.4916 74.5588 89.9574C74.544 90.696 73.8681 91.2887 73.04 91.2848L66.1051 91.2543C65.252 91.2504 64.541 90.6734 64.4581 89.9168L63.8183 84.1052C63.7519 83.5039 64.2495 82.9691 64.9254 82.9191L64.9246 82.9199Z" fill="white"/>
<g opacity="0.6">
<path d="M81.7359 87.7715C81.9921 88.7226 82.8609 89.3784 83.8462 89.3644L164.13 88.2627C165.037 88.2502 165.76 87.4982 165.736 86.5901C165.712 85.7078 164.989 85.0051 164.106 85.0059L83.8157 85.0574C82.3984 85.0582 81.3679 86.4027 81.7366 87.7707L81.7359 87.7715Z" fill="white"/>
</g>
<path d="M74.8409 115.155C74.833 115.155 74.8252 115.155 74.8174 115.155L66.1395 115.116C64.8996 115.111 63.8722 114.264 63.7487 113.146L62.9479 105.875C62.901 105.447 63.0315 105.024 63.3159 104.683C63.6339 104.301 64.1159 104.06 64.6402 104.021C65.3707 103.967 66.4005 103.874 67.4896 103.776C69.7835 103.568 72.6384 103.31 74.2455 103.282C74.2572 103.282 74.2689 103.282 74.2807 103.282C75.4221 103.276 76.4074 103.965 76.6847 104.969C77.1457 106.637 77.1223 109.799 77.0535 113.167C77.0316 114.261 76.0417 115.148 74.8416 115.155H74.8409ZM64.6886 104.685C64.3441 104.71 64.0308 104.865 63.8276 105.109C63.6604 105.309 63.5831 105.555 63.6104 105.801L64.4113 113.073C64.4972 113.855 65.2418 114.446 66.1426 114.45L74.8205 114.489C74.826 114.489 74.8323 114.489 74.8377 114.489C75.6784 114.484 76.3714 113.888 76.3871 113.153C76.4542 109.836 76.4785 106.727 76.0417 105.145C75.8456 104.437 75.094 103.926 74.2572 103.948C72.6743 103.976 69.8327 104.233 67.5498 104.439C66.4575 104.538 65.4254 104.632 64.6894 104.685H64.6886Z" fill="white"/>
<path opacity="0.6" d="M65.6262 105.432C67.4482 105.297 71.4086 104.875 73.2876 104.842C74.0838 104.828 74.7846 105.305 74.9752 105.994C75.3448 107.332 75.3104 110.003 75.2604 112.469C75.2456 113.208 74.5697 113.8 73.7416 113.797L66.8067 113.766C65.9543 113.762 65.2426 113.185 65.1597 112.429L64.5199 106.617C64.4535 106.016 64.9511 105.481 65.627 105.431L65.6262 105.432Z" fill="white"/>
<g opacity="0.6">
<path d="M82.4375 110.284C82.6937 111.235 83.5625 111.891 84.5478 111.877L164.831 110.775C165.739 110.763 166.462 110.011 166.438 109.103C166.413 108.221 165.691 107.518 164.808 107.519L84.5173 107.57C83.1 107.571 82.0695 108.915 82.4382 110.283L82.4375 110.284Z" fill="white"/>
</g>
<path d="M197.915 142.217C198.04 142.559 203.033 132.685 203.033 132.685L191.853 125.57L197.22 112.514L184.012 104.921L200.739 112.288L195.833 123.919C195.833 123.919 210.152 132.552 209.962 132.681C209.772 132.81 197.915 142.217 197.915 142.217Z" fill="url(#paint17_linear_354_13)"/>
<path d="M216.233 0.575195C215.774 0.884399 206.535 17.0887 206.535 17.0887L197.1 8.49268C197.1 8.49268 181.653 26.0603 181.883 25.1459C182.113 24.2316 195.435 2.55066 195.435 2.55066L206.4 14.2957L216.233 0.575195Z" fill="url(#paint18_linear_354_13)"/>
<path d="M88.2714 0.729492C88.5199 1.23468 103.575 12.7853 103.575 12.7853L93.5999 21.094C93.5999 21.094 109.17 39.084 108.279 38.7264C107.388 38.3688 87.3776 21.9466 87.3776 21.9466L100.74 12.5339L88.2714 0.729492Z" fill="url(#paint19_linear_354_13)"/>
<path d="M59.5446 90.3073C60.5571 90.8788 78.0106 89.236 78.0106 89.236L75.9566 77.0592C75.9566 77.0592 96.8415 74.3349 96.6947 74.6269C96.5478 74.919 71.2274 73.1777 71.2274 73.1777L74.5221 86.2439L59.5453 90.3065L59.5446 90.3073Z" fill="url(#paint20_linear_354_13)"/>
<path d="M170.339 218.166C172.178 218.325 175.37 218.583 177.887 218.694C179.399 218.76 180.27 218.613 180.772 218.412C180.771 218.468 180.77 218.522 180.767 218.571C180.756 218.836 180.54 219.048 180.273 219.062C175.518 219.328 171.736 219.155 170.39 219.073C170.112 219.055 169.946 218.753 170.089 218.516C170.16 218.397 170.246 218.281 170.339 218.166Z" fill="url(#paint21_linear_354_13)"/>
<path d="M177.887 218.694C175.37 218.583 172.178 218.326 170.339 218.166C172.147 215.95 177.887 214.455 177.887 214.455H179.508C180.623 216.061 180.785 217.59 180.772 218.412C180.27 218.613 179.399 218.761 177.887 218.694Z" fill="url(#paint22_linear_354_13)"/>
<path d="M179.781 211.81L179.629 214.809C179.613 215.134 179.37 215.408 179.044 215.454C178.72 215.5 178.286 215.506 177.827 215.353C177.544 215.258 177.334 215.02 177.281 214.73L176.757 211.81H179.781H179.781Z" fill="url(#paint23_linear_354_13)"/>
<path d="M200.835 218.672C201.633 218.561 201.994 218.147 202.145 217.704C202.145 217.708 202.147 217.712 202.148 217.716C202.265 218.183 201.993 218.667 201.449 218.897C200.792 219.175 200.073 219.223 199.515 219.2C198.917 219.175 198.368 218.928 198.065 218.532L198.061 218.526C198.661 218.823 199.505 218.857 200.835 218.672Z" fill="url(#paint24_linear_354_13)"/>
<path d="M197.075 211.791H198.411C200.448 211.75 201.727 216.042 202.145 217.704C201.993 218.146 201.632 218.56 200.835 218.672C199.505 218.857 198.662 218.823 198.061 218.525C196.961 217.078 196.415 214.96 196.153 213.723C195.854 212.317 197.075 211.791 197.075 211.791Z" fill="url(#paint25_linear_354_13)"/>
<path d="M198.24 209.007L198.982 211.957C199.072 212.319 198.9 212.694 198.565 212.865C198.15 213.078 197.565 213.301 197.028 213.236C196.775 213.206 196.565 213.028 196.482 212.79L195.392 209.686L198.24 209.006V209.007Z" fill="url(#paint26_linear_354_13)"/>
<path d="M199.125 209.859C198.201 210.678 195.197 210.786 195.197 210.786C184.377 184.832 179.95 181.145 179.95 181.145C181.513 190.941 180.202 212.629 180.202 212.629C178.416 213.416 176.114 212.629 176.114 212.629C175.969 196.591 173.502 182.604 170.589 171.577C177.902 171.413 181.791 168.912 183.061 167.908C189.158 177.73 199.125 209.859 199.125 209.859Z" fill="url(#paint27_linear_354_13)"/>
<path d="M181.204 138.061C182.589 144.962 182.092 157.312 181.767 162.945C181.675 164.529 182.781 166.724 183.675 168.221C183.815 168.456 183.729 168.757 183.485 168.882C181.989 169.651 176.919 172.033 171.042 172.33C170.649 172.35 170.3 172.083 170.199 171.705C165.84 155.439 160.776 145.044 160.776 145.044C166.366 136.124 181.205 138.062 181.205 138.062L181.204 138.061Z" fill="url(#paint28_linear_354_13)"/>
<path d="M179.213 180.53C179.274 180.53 179.336 180.513 179.392 180.479C179.556 180.379 179.607 180.167 179.508 180.004C179.45 179.908 178.05 177.647 175.218 176.281C175.046 176.199 174.838 176.27 174.755 176.443C174.672 176.615 174.744 176.823 174.917 176.905C177.558 178.179 178.903 180.342 178.916 180.364C178.982 180.471 179.096 180.531 179.213 180.531V180.53Z" fill="url(#paint29_linear_354_13)"/>
<path d="M189.887 157.865C189.443 161.079 188.129 164.586 185.501 168.31L184.502 167.496C184.502 167.496 185.655 162.82 185 157.513C186.621 157.197 188.535 157.523 189.887 157.865Z" fill="url(#paint30_linear_354_13)"/>
<path d="M179.658 146.575L181.204 138.061C181.204 138.061 191.534 145.952 189.887 157.865C188.535 157.523 186.62 157.198 184.999 157.514C184.526 153.691 183.116 149.541 179.658 146.575V146.575Z" fill="url(#paint31_linear_354_13)"/>
<path d="M160.776 145.044L164.764 153.627C164.119 158.808 161.334 161.048 158.331 161.908C158.143 159.547 157.546 157.639 156.992 156.319C160.829 152.359 160.776 145.045 160.776 145.045V145.044Z" fill="url(#paint32_linear_354_13)"/>
<path d="M156.992 156.318C157.546 157.638 158.143 159.546 158.331 161.907C150.318 165.014 148.199 158.989 148.199 158.989L149.679 158.728C153.023 159.08 155.359 158.003 156.992 156.318Z" fill="url(#paint33_linear_354_13)"/>
<path d="M164.45 134.448L166.375 141.521C166.591 142.315 167.451 142.742 168.217 142.437C169.042 142.107 170.089 141.656 170.991 141.17C171.953 140.651 172.254 139.413 171.646 138.506L167.643 132.542L164.45 134.449V134.448Z" fill="url(#paint34_linear_354_13)"/>
<path d="M160.239 129.074C160.221 129.196 161.844 137.145 161.844 137.145L166.366 136.122L165.948 128.359C165.948 128.359 160.532 127.04 160.239 129.073L160.239 129.074Z" fill="url(#paint35_linear_354_13)"/>
<path d="M164.93 130.09L165.471 134.158C165.478 134.211 165.478 134.262 165.471 134.315C165.426 134.633 165.188 135.719 164.091 135.409C163.096 135.127 162.183 134.885 161.553 135.078C161.27 135.165 161.099 135.451 161.158 135.741C161.306 136.463 161.668 138.084 162.199 139.445C162.307 139.722 162.609 139.866 162.894 139.783C163.751 139.534 165.545 138.956 166.88 138.153C167.06 138.045 167.168 137.848 167.159 137.637C167.116 136.609 166.996 133.487 167.097 132.612C167.192 131.79 168.201 131.298 168.639 131.121C168.783 131.063 168.895 130.95 168.953 130.806C169.156 130.298 169.436 129.121 167.952 128.64C167.642 128.539 167.478 128.204 167.588 127.897C167.808 127.286 167.901 126.353 166.753 125.839C165.587 125.316 164.716 125.938 164.245 126.443C164.055 126.648 163.75 126.678 163.514 126.53C163.379 126.445 163.207 126.417 162.997 126.547C162.715 126.723 162.343 126.603 162.197 126.305C161.918 125.732 161.349 125.118 160.207 125.313C158.18 125.66 157.951 127.904 158.485 129.219C159.02 130.534 161.196 130.033 162.287 129.37C163.117 128.866 164.194 129.395 164.662 129.677C164.81 129.767 164.908 129.919 164.931 130.09L164.93 130.09Z" fill="url(#paint36_linear_354_13)"/>
<path d="M167.279 134.096C167.279 134.096 166.446 131.764 167.302 131.193C168.157 130.622 169.425 130.918 169.146 132.607C168.799 134.708 167.279 134.096 167.279 134.096Z" fill="url(#paint37_linear_354_13)"/>
<path d="M148.793 160.091C148.389 160.405 147.007 159.748 146.162 159.293C145.75 159.072 145.55 158.591 145.692 158.145C145.895 157.504 146.234 156.676 146.652 156.571C147.345 156.398 150.454 158.793 148.793 160.091Z" fill="url(#paint38_linear_354_13)"/>
<path d="M216.824 179.565L111.316 142.063L105.734 157.56L211.206 196.108C213.446 196.928 215.946 196.019 217.147 193.959C218.38 191.843 219.558 188.537 219.629 183.585C219.655 181.784 218.522 180.168 216.825 179.565H216.824Z" fill="url(#paint39_linear_354_13)"/>
<path d="M78.6739 138.059L93.2483 139.847C93.2327 141.851 92.5764 144.445 90.3528 147.42L78.1817 139.396C77.5356 138.97 77.9059 137.964 78.6747 138.059H78.6739Z" fill="url(#paint40_linear_354_13)"/>
<path d="M111.315 142.063C111.983 151.775 105.733 157.56 105.733 157.56L90.3521 147.42C92.5756 144.444 93.2319 141.851 93.2475 139.847L111.314 142.063H111.315Z" fill="url(#paint41_linear_354_13)"/>
<path d="M215.516 184.317C215.644 184.317 215.763 184.237 215.808 184.11C215.865 183.948 215.781 183.772 215.619 183.715L114.676 148.063C114.514 148.006 114.336 148.09 114.28 148.252C114.223 148.413 114.308 148.59 114.469 148.647L215.413 184.299C215.447 184.311 215.481 184.317 215.516 184.317Z" fill="url(#paint42_linear_354_13)"/>
<path d="M213.774 190.396C213.902 190.396 214.022 190.316 214.066 190.189C214.123 190.027 214.039 189.851 213.877 189.794L112.934 154.142C112.772 154.085 112.596 154.169 112.539 154.331C112.482 154.492 112.566 154.669 112.728 154.726L213.671 190.378C213.705 190.39 213.74 190.396 213.774 190.396Z" fill="url(#paint43_linear_354_13)"/>
<path d="M184.914 167.355L180.25 166.976L178.23 168.836C178.23 168.836 178.709 169.496 180.202 169.117C181.696 168.737 183.742 168.644 183.742 168.644C183.742 168.644 185.804 169.573 185.829 167.835L184.914 167.356V167.355Z" fill="url(#paint44_linear_354_13)"/>
<path d="M101.475 64.4776C101.475 90.8918 123.711 112.306 151.142 112.306C178.573 112.306 202.037 89.9564 202.037 63.5422C202.037 37.1279 178.573 16.6494 151.142 16.6494C123.711 16.6494 101.475 38.0625 101.475 64.4776Z" fill="url(#paint45_linear_354_13)"/>
<path d="M198.138 52.849C198.168 52.849 198.197 52.8459 198.226 52.8381C198.409 52.7912 198.519 52.6101 198.47 52.4336C197.936 50.5011 197.253 48.5842 196.441 46.736C196.367 46.5681 196.164 46.4916 195.992 46.5603C195.818 46.6321 195.736 46.825 195.81 46.9937C196.61 48.813 197.282 50.7002 197.808 52.6038C197.848 52.7514 197.987 52.849 198.139 52.849H198.138Z" fill="#BDD0FB"/>
<path d="M190.548 37.9022C190.62 37.9022 190.693 37.8803 190.755 37.8358C190.906 37.7265 190.936 37.5188 190.822 37.3736C181.62 25.6223 166.797 18.6074 151.172 18.6074C144.499 18.6074 138.043 19.9106 131.988 22.4787C131.814 22.5521 131.736 22.7481 131.812 22.9144C131.888 23.0815 132.091 23.1572 132.264 23.0838C138.233 20.5517 144.594 19.268 151.172 19.268C166.584 19.268 181.201 26.1845 190.274 37.7702C190.342 37.8569 190.445 37.9022 190.548 37.9022Z" fill="#BDD0FB"/>
<path d="M108.232 64.4776C108.232 87.3423 127.48 105.878 151.225 105.878C174.969 105.878 195.281 86.5326 195.281 63.6679C195.281 40.8033 174.969 23.0771 151.225 23.0771C127.48 23.0771 108.232 41.613 108.232 64.4776Z" fill="#91B3FA"/>
<path opacity="0.78" d="M184.293 62.3304C184.4 64.088 185.965 65.4294 187.79 65.3271C189.616 65.2249 191.009 63.7171 190.902 61.9603C190.796 60.2026 189.23 58.8612 187.405 58.9635C185.58 59.0658 184.187 60.5735 184.293 62.3304Z" fill="white"/>
<path opacity="0.78" d="M112.784 66.3382C112.89 68.0958 114.456 69.4372 116.28 69.335C118.105 69.2327 119.498 67.7249 119.392 65.9681C119.286 64.2105 117.72 62.869 115.896 62.9713C114.071 63.0736 112.678 64.5813 112.784 66.3382Z" fill="white"/>
<path opacity="0.78" d="M157.684 94.9411C155.885 95.2573 154.694 96.9173 155.023 98.6492C155.352 100.381 157.075 101.528 158.874 101.212C160.672 100.896 161.864 99.2356 161.535 97.5037C161.207 95.7719 159.482 94.6249 157.684 94.9411Z" fill="white"/>
<path opacity="0.78" d="M144.813 27.0856C143.015 27.4019 141.823 29.0619 142.152 30.7937C142.48 32.5256 144.205 33.6726 146.003 33.3564C147.802 33.0401 148.993 31.3801 148.664 29.6483C148.336 27.9164 146.612 26.7694 144.813 27.0856Z" fill="white"/>
<path opacity="0.78" d="M134.152 96.763C133.815 97.5806 133.899 98.3458 134.339 98.4723C134.779 98.5987 135.409 98.0389 135.745 97.2222C136.082 96.4046 135.997 95.6394 135.557 95.513C135.117 95.3865 134.488 95.9463 134.152 96.763Z" fill="white"/>
<path opacity="0.78" d="M162.92 32.4017C162.584 33.2192 162.668 33.9844 163.108 34.1109C163.547 34.2374 164.177 33.6776 164.513 32.8608C164.849 32.0433 164.766 31.2781 164.326 31.1516C163.886 31.0251 163.256 31.585 162.92 32.4017Z" fill="white"/>
<path opacity="0.78" d="M119.13 84.5281C118.402 85.0583 118.062 85.7548 118.369 86.0827C118.677 86.4114 119.517 86.2475 120.245 85.7173C120.974 85.1871 121.314 84.4906 121.006 84.1627C120.699 83.834 119.859 83.9979 119.13 84.5281Z" fill="white"/>
<path opacity="0.78" d="M178.42 43.9076C177.692 44.4378 177.351 45.1335 177.659 45.4622C177.967 45.791 178.807 45.627 179.535 45.0968C180.263 44.5666 180.604 43.8702 180.296 43.5422C179.988 43.2143 179.148 43.3775 178.42 43.9076Z" fill="white"/>
<path opacity="0.78" d="M117.244 48.0864C116.42 47.7085 115.622 47.7382 115.461 48.1528C115.3 48.5674 115.837 49.2092 116.662 49.5871C117.486 49.965 118.284 49.9354 118.445 49.5215C118.606 49.1069 118.068 48.4651 117.244 48.0872V48.0864Z" fill="white"/>
<path opacity="0.78" d="M182.003 80.0367C181.179 79.6588 180.381 79.6884 180.22 80.1023C180.059 80.5169 180.597 81.1587 181.421 81.5366C182.245 81.9145 183.043 81.8849 183.204 81.471C183.365 81.0564 182.827 80.4146 182.003 80.0367Z" fill="white"/>
<path opacity="0.78" d="M130.927 34.4737C130.427 33.739 129.728 33.365 129.368 33.6383C129.007 33.9123 129.12 34.7298 129.621 35.4646C130.122 36.1993 130.82 36.5734 131.18 36.3001C131.541 36.026 131.428 35.2085 130.927 34.4737Z" fill="white"/>
<path opacity="0.78" d="M169.045 94.1593C168.544 93.4245 167.845 93.0505 167.485 93.3238C167.124 93.5971 167.238 94.4154 167.738 95.1501C168.239 95.8849 168.938 96.2589 169.298 95.9856C169.659 95.7116 169.546 94.894 169.045 94.1593Z" fill="white"/>
<path d="M151.354 63.7032L180.386 68.9393C180.949 69.0408 181.431 68.5224 181.267 67.993L180.288 64.844C180.099 64.2318 180.76 63.6805 181.354 63.9562L204.227 74.5542C204.928 74.8782 204.707 75.8995 203.927 75.9519L178.702 77.6314C178.098 77.6712 177.704 77.0466 178.01 76.5375L180.071 73.1128C180.326 72.6896 180.099 72.1555 179.613 72.0384L151.004 65.1407C150.606 65.0446 150.366 64.6566 150.464 64.2669C150.561 63.8812 150.954 63.6329 151.354 63.7047V63.7032Z" fill="url(#paint46_linear_354_13)"/>
<path d="M201.325 75.2752C201.563 75.2096 201.744 75.0222 201.793 74.7762C201.852 74.4818 201.703 74.2054 201.423 74.086L196.476 71.977C196.305 71.9036 196.101 71.9809 196.023 72.148C195.944 72.3159 196.019 72.5103 196.191 72.5837L201.138 74.6927C195.407 74.9956 182.017 75.8327 181.748 75.8795C181.565 75.9084 181.434 76.0833 181.464 76.2637C181.493 76.4417 181.664 76.5604 181.848 76.5323C182.243 76.4862 192.502 75.8389 201.181 75.2986C201.231 75.2955 201.28 75.2876 201.326 75.2752H201.325Z" fill="white"/>
<path d="M149.79 61.937L149.843 36.9017C149.834 36.3473 149.214 36.003 148.711 36.2724L145.721 37.8777C145.138 38.19 144.45 37.6825 144.611 37.0602L150.797 13.1235C150.986 12.3911 152.063 12.3786 152.27 13.1071L158.966 36.6206C159.126 37.1836 158.573 37.6919 157.996 37.5115L154.125 36.2989C153.646 36.149 153.151 36.4793 153.13 36.9634L151.312 61.9573C151.294 62.3555 150.95 62.6663 150.536 62.6577C150.126 62.6491 149.797 62.3306 149.79 61.9362L149.79 61.937Z" fill="url(#paint47_linear_354_13)"/>
<path d="M156.911 34.3258C156.953 34.3258 156.995 34.3188 157.036 34.3032C157.21 34.2376 157.297 34.0494 157.233 33.8815C157.108 33.5192 154.422 23.9472 152.155 15.8478C152.074 15.5612 151.821 15.373 151.504 15.3801C151.196 15.3879 150.944 15.5886 150.879 15.879L149.726 21.0168C149.686 21.1948 149.804 21.3713 149.99 21.4088C150.173 21.4478 150.357 21.3346 150.397 21.1558L151.551 16.018C152.993 21.3783 156.492 33.8698 156.592 34.1158C156.645 34.2462 156.774 34.325 156.911 34.325V34.3258Z" fill="white"/>
<path d="M151.447 66.6837C153.399 66.6837 154.982 65.1595 154.982 63.2794C154.982 61.3992 153.399 59.875 151.447 59.875C149.494 59.875 147.911 61.3992 147.911 63.2794C147.911 65.1595 149.494 66.6837 151.447 66.6837Z" fill="url(#paint48_linear_354_13)"/>
</g>
<defs>
<linearGradient id="paint0_linear_354_13" x1="245.661" y1="280.439" x2="54.0245" y2="42.2904" gradientUnits="userSpaceOnUse">
<stop stop-color="#DAE3FE"/>
<stop offset="1" stop-color="#E9EFFD"/>
</linearGradient>
<linearGradient id="paint1_linear_354_13" x1="91.9209" y1="157.501" x2="16.1012" y2="239.908" gradientUnits="userSpaceOnUse">
<stop stop-color="#4F52FF"/>
<stop offset="1" stop-color="#4042E2"/>
</linearGradient>
<linearGradient id="paint2_linear_354_13" x1="5.83398" y1="197.071" x2="94.1788" y2="197.071" gradientUnits="userSpaceOnUse">
<stop stop-color="#DAE3FE"/>
<stop offset="1" stop-color="#E9EFFD"/>
</linearGradient>
<linearGradient id="paint3_linear_354_13" x1="5.83398" y1="199.851" x2="94.1788" y2="199.851" gradientUnits="userSpaceOnUse">
<stop stop-color="#DAE3FE"/>
<stop offset="1" stop-color="#E9EFFD"/>
</linearGradient>
<linearGradient id="paint4_linear_354_13" x1="5.83398" y1="202.632" x2="94.1788" y2="202.632" gradientUnits="userSpaceOnUse">
<stop stop-color="#DAE3FE"/>
<stop offset="1" stop-color="#E9EFFD"/>
</linearGradient>
<linearGradient id="paint5_linear_354_13" x1="5.83398" y1="205.412" x2="94.1788" y2="205.412" gradientUnits="userSpaceOnUse">
<stop stop-color="#DAE3FE"/>
<stop offset="1" stop-color="#E9EFFD"/>
</linearGradient>
<linearGradient id="paint6_linear_354_13" x1="5.83398" y1="208.193" x2="94.1788" y2="208.193" gradientUnits="userSpaceOnUse">
<stop stop-color="#DAE3FE"/>
<stop offset="1" stop-color="#E9EFFD"/>
</linearGradient>
<linearGradient id="paint7_linear_354_13" x1="122.882" y1="123.58" x2="45.7155" y2="227.336" gradientUnits="userSpaceOnUse">
<stop stop-color="#53D8FF"/>
<stop offset="1" stop-color="#3840F7"/>
</linearGradient>
<linearGradient id="paint8_linear_354_13" x1="117.105" y1="119.987" x2="40.6607" y2="222.774" gradientUnits="userSpaceOnUse">
<stop stop-color="#53D8FF"/>
<stop offset="1" stop-color="#3840F7"/>
</linearGradient>
<linearGradient id="paint9_linear_354_13" x1="29.548" y1="68.9705" x2="81.4319" y2="68.9705" gradientUnits="userSpaceOnUse">
<stop stop-color="#DAE3FE"/>
<stop offset="1" stop-color="#E9EFFD"/>
</linearGradient>
<linearGradient id="paint10_linear_354_13" x1="63.6044" y1="27.6155" x2="128.671" y2="139.652" gradientUnits="userSpaceOnUse">
<stop stop-color="#CE1567"/>
<stop offset="1" stop-color="#7A1DBC"/>
</linearGradient>
<linearGradient id="paint11_linear_354_13" x1="54.9257" y1="32.6574" x2="119.995" y2="144.697" gradientUnits="userSpaceOnUse">
<stop stop-color="#CE1567"/>
<stop offset="1" stop-color="#7A1DBC"/>
</linearGradient>
<linearGradient id="paint12_linear_354_13" x1="106.76" y1="102.563" x2="62.8883" y2="178.397" gradientUnits="userSpaceOnUse">
<stop stop-color="#A737D5"/>
<stop offset="1" stop-color="#EF497A"/>
</linearGradient>
<linearGradient id="paint13_linear_354_13" x1="140.562" y1="-49.0244" x2="127.689" y2="-3.23227" gradientUnits="userSpaceOnUse">
<stop stop-color="#FF928E"/>
<stop offset="1" stop-color="#FE7062"/>
</linearGradient>
<linearGradient id="paint14_linear_354_13" x1="133.51" y1="-51.0052" x2="120.636" y2="-5.21305" gradientUnits="userSpaceOnUse">
<stop stop-color="#FF928E"/>
<stop offset="1" stop-color="#FE7062"/>
</linearGradient>
<linearGradient id="paint15_linear_354_13" x1="127.648" y1="-52.6544" x2="114.775" y2="-6.86226" gradientUnits="userSpaceOnUse">
<stop stop-color="#FF928E"/>
<stop offset="1" stop-color="#FE7062"/>
</linearGradient>
<linearGradient id="paint16_linear_354_13" x1="122.488" y1="-54.1041" x2="109.615" y2="-8.31193" gradientUnits="userSpaceOnUse">
<stop stop-color="#FF928E"/>
<stop offset="1" stop-color="#FE7062"/>
</linearGradient>
<linearGradient id="paint17_linear_354_13" x1="301.561" y1="-188.577" x2="274.536" y2="-109.041" gradientUnits="userSpaceOnUse">
<stop stop-color="#4F52FF"/>
<stop offset="1" stop-color="#4042E2"/>
</linearGradient>
<linearGradient id="paint18_linear_354_13" x1="195.836" y1="10.2433" x2="130.374" y2="-42.437" gradientUnits="userSpaceOnUse">
<stop stop-color="#4F52FF"/>
<stop offset="1" stop-color="#4042E2"/>
</linearGradient>
<linearGradient id="paint19_linear_354_13" x1="191.008" y1="-67.7499" x2="129.928" y2="-10.0513" gradientUnits="userSpaceOnUse">
<stop stop-color="#4F52FF"/>
<stop offset="1" stop-color="#4042E2"/>
</linearGradient>
<linearGradient id="paint20_linear_354_13" x1="-2364.71" y1="2478.03" x2="-2304.79" y2="2419.13" gradientUnits="userSpaceOnUse">
<stop stop-color="#4F52FF"/>
<stop offset="1" stop-color="#4042E2"/>
</linearGradient>
<linearGradient id="paint21_linear_354_13" x1="180.772" y1="218.684" x2="170.036" y2="218.684" gradientUnits="userSpaceOnUse">
<stop stop-color="#4F52FF"/>
<stop offset="1" stop-color="#4042E2"/>
</linearGradient>
<linearGradient id="paint22_linear_354_13" x1="180.773" y1="216.582" x2="170.339" y2="216.582" gradientUnits="userSpaceOnUse">
<stop stop-color="#09005D"/>
<stop offset="1" stop-color="#1A0F91"/>
</linearGradient>
<linearGradient id="paint23_linear_354_13" x1="179.781" y1="213.646" x2="176.757" y2="213.646" gradientUnits="userSpaceOnUse">
<stop stop-color="#FEBBBA"/>
<stop offset="1" stop-color="#FF928E"/>
</linearGradient>
<linearGradient id="paint24_linear_354_13" x1="202.175" y1="218.454" x2="198.061" y2="218.454" gradientUnits="userSpaceOnUse">
<stop stop-color="#4F52FF"/>
<stop offset="1" stop-color="#4042E2"/>
</linearGradient>
<linearGradient id="paint25_linear_354_13" x1="202.145" y1="215.289" x2="196.107" y2="215.289" gradientUnits="userSpaceOnUse">
<stop stop-color="#09005D"/>
<stop offset="1" stop-color="#1A0F91"/>
</linearGradient>
<linearGradient id="paint26_linear_354_13" x1="199.006" y1="211.127" x2="195.392" y2="211.127" gradientUnits="userSpaceOnUse">
<stop stop-color="#FEBBBA"/>
<stop offset="1" stop-color="#FF928E"/>
</linearGradient>
<linearGradient id="paint27_linear_354_13" x1="171.061" y1="177.849" x2="211.033" y2="236.138" gradientUnits="userSpaceOnUse">
<stop stop-color="#4F52FF"/>
<stop offset="1" stop-color="#4042E2"/>
</linearGradient>
<linearGradient id="paint28_linear_354_13" x1="206.62" y1="66.8605" x2="195.492" y2="96.0215" gradientUnits="userSpaceOnUse">
<stop stop-color="#FF928E"/>
<stop offset="1" stop-color="#FE7062"/>
</linearGradient>
<linearGradient id="paint29_linear_354_13" x1="186.827" y1="197.751" x2="185.097" y2="194.289" gradientUnits="userSpaceOnUse">
<stop stop-color="#53D8FF"/>
<stop offset="1" stop-color="#3840F7"/>
</linearGradient>
<linearGradient id="paint30_linear_354_13" x1="182.449" y1="158.481" x2="195.307" y2="169.874" gradientUnits="userSpaceOnUse">
<stop stop-color="#FEBBBA"/>
<stop offset="1" stop-color="#FF928E"/>
</linearGradient>
<linearGradient id="paint31_linear_354_13" x1="215.27" y1="70.1615" x2="204.143" y2="99.3226" gradientUnits="userSpaceOnUse">
<stop stop-color="#FF928E"/>
<stop offset="1" stop-color="#FE7062"/>
</linearGradient>
<linearGradient id="paint32_linear_354_13" x1="196.039" y1="62.8232" x2="184.912" y2="91.985" gradientUnits="userSpaceOnUse">
<stop stop-color="#FF928E"/>
<stop offset="1" stop-color="#FE7062"/>
</linearGradient>
<linearGradient id="paint33_linear_354_13" x1="158.331" y1="159.558" x2="148.199" y2="159.558" gradientUnits="userSpaceOnUse">
<stop stop-color="#FEBBBA"/>
<stop offset="1" stop-color="#FF928E"/>
</linearGradient>
<linearGradient id="paint34_linear_354_13" x1="168.18" y1="132.497" x2="168.29" y2="151.407" gradientUnits="userSpaceOnUse">
<stop stop-color="#FEBBBA"/>
<stop offset="1" stop-color="#FF928E"/>
</linearGradient>
<linearGradient id="paint35_linear_354_13" x1="162.051" y1="129.4" x2="169.503" y2="142.92" gradientUnits="userSpaceOnUse">
<stop stop-color="#FEBBBA"/>
<stop offset="1" stop-color="#FF928E"/>
</linearGradient>
<linearGradient id="paint36_linear_354_13" x1="168.667" y1="133.355" x2="157.656" y2="131.765" gradientUnits="userSpaceOnUse">
<stop stop-color="#09005D"/>
<stop offset="1" stop-color="#1A0F91"/>
</linearGradient>
<linearGradient id="paint37_linear_354_13" x1="174.159" y1="140.999" x2="167.865" y2="132.348" gradientUnits="userSpaceOnUse">
<stop stop-color="#FEBBBA"/>
<stop offset="1" stop-color="#FF928E"/>
</linearGradient>
<linearGradient id="paint38_linear_354_13" x1="149.275" y1="158.368" x2="145.647" y2="158.368" gradientUnits="userSpaceOnUse">
<stop stop-color="#FEBBBA"/>
<stop offset="1" stop-color="#FF928E"/>
</linearGradient>
<linearGradient id="paint39_linear_354_13" x1="108.841" y1="130.226" x2="261.811" y2="241.884" gradientUnits="userSpaceOnUse">
<stop stop-color="#09005D"/>
<stop offset="1" stop-color="#1A0F91"/>
</linearGradient>
<linearGradient id="paint40_linear_354_13" x1="103.476" y1="155.055" x2="83.3288" y2="137.531" gradientUnits="userSpaceOnUse">
<stop stop-color="#09005D"/>
<stop offset="1" stop-color="#1A0F91"/>
</linearGradient>
<linearGradient id="paint41_linear_354_13" x1="85.8518" y1="129.353" x2="160.44" y2="206.055" gradientUnits="userSpaceOnUse">
<stop stop-color="#FEBBBA"/>
<stop offset="1" stop-color="#FF928E"/>
</linearGradient>
<linearGradient id="paint42_linear_354_13" x1="131.366" y1="131.591" x2="198.679" y2="200.813" gradientUnits="userSpaceOnUse">
<stop stop-color="#4F52FF"/>
<stop offset="1" stop-color="#4042E2"/>
</linearGradient>
<linearGradient id="paint43_linear_354_13" x1="129.624" y1="137.67" x2="196.938" y2="206.892" gradientUnits="userSpaceOnUse">
<stop stop-color="#4F52FF"/>
<stop offset="1" stop-color="#4042E2"/>
</linearGradient>
<linearGradient id="paint44_linear_354_13" x1="177.368" y1="164.215" x2="190.227" y2="175.608" gradientUnits="userSpaceOnUse">
<stop stop-color="#FEBBBA"/>
<stop offset="1" stop-color="#FF928E"/>
</linearGradient>
<linearGradient id="paint45_linear_354_13" x1="385.114" y1="-143.067" x2="281.202" y2="-50.7625" gradientUnits="userSpaceOnUse">
<stop stop-color="#09005D"/>
<stop offset="1" stop-color="#1A0F91"/>
</linearGradient>
<linearGradient id="paint46_linear_354_13" x1="230.621" y1="6.20317" x2="207.546" y2="33.8847" gradientUnits="userSpaceOnUse">
<stop stop-color="#FF928E"/>
<stop offset="1" stop-color="#FE7062"/>
</linearGradient>
<linearGradient id="paint47_linear_354_13" x1="300.238" y1="-65.7986" x2="270.628" y2="-45.2536" gradientUnits="userSpaceOnUse">
<stop stop-color="#FF928E"/>
<stop offset="1" stop-color="#FE7062"/>
</linearGradient>
<linearGradient id="paint48_linear_354_13" x1="225.632" y1="256.296" x2="193.754" y2="173.252" gradientUnits="userSpaceOnUse">
<stop stop-color="#09005D"/>
<stop offset="1" stop-color="#1A0F91"/>
</linearGradient>
<clipPath id="clip0_354_13">
<rect width="219.629" height="218.629" fill="white" transform="translate(0 0.575195)"/>
</clipPath>
</defs>
</svg>
