<svg width="316" height="316" viewBox="0 0 316 316" fill="none" xmlns="http://www.w3.org/2000/svg">
<path d="M277.347 267.863C269.169 276.274 261.851 281.217 256.248 284.949C201.607 321.349 139.145 310.857 119.833 307.272C88.6764 301.486 62.3755 297.405 39.7781 277.038C-11.5688 230.757 -9.07182 134.211 30.1646 74.4046C34.8164 67.3141 73.9929 9.37888 136.59 1.21574C138.121 1.01572 139.263 0.901907 140.263 0.796146C149.947 -0.226976 209.954 -5.62539 258.884 35.2719C265.887 41.1256 277.159 51.6856 287.611 67.7911C325.83 126.678 325.951 217.881 277.346 267.863H277.347Z" fill="url(#paint0_linear_398_17)"/>
<g opacity="0.3">
<path d="M181.174 78.3078C181.82 77.9928 182.6 78.2607 182.915 78.9056C183.528 80.1587 184.203 81.4025 184.924 82.6049C185.29 83.2131 185.097 83.9994 184.497 84.373C184.49 84.3776 184.483 84.3822 184.475 84.3868C183.859 84.7547 183.059 84.5546 182.689 83.9385C181.93 82.6728 181.219 81.3623 180.573 80.0437C180.278 79.4413 180.495 78.7217 181.053 78.3734C181.091 78.3492 181.131 78.3274 181.173 78.3067L181.174 78.3078ZM188.836 88.2172C189.714 89.3093 190.648 90.3749 191.611 91.3843C192.107 91.9039 192.087 92.7258 191.566 93.2201C191.042 93.7145 190.221 93.6949 189.725 93.1753C188.711 92.1131 187.729 90.9923 186.805 89.8427C186.356 89.2828 186.445 88.4655 187.007 88.0172C187.047 87.985 187.09 87.9551 187.132 87.9275C187.684 87.5838 188.419 87.6987 188.836 88.2172ZM196.667 95.9929C197.764 96.8608 198.912 97.6908 200.08 98.4622C200.68 98.8577 200.844 99.6635 200.448 100.262C200.052 100.86 199.244 101.025 198.644 100.629C197.414 99.8175 196.204 98.9427 195.05 98.0288C194.486 97.5828 194.392 96.7666 194.839 96.2044C194.934 96.0849 195.046 95.986 195.169 95.909C195.623 95.6262 196.225 95.6423 196.668 95.9929H196.667ZM206.045 101.826C207.31 102.428 208.615 102.981 209.927 103.473C210.6 103.726 210.941 104.474 210.687 105.146C210.434 105.817 209.684 106.156 209.011 105.905C207.63 105.387 206.255 104.804 204.925 104.171C204.276 103.862 204 103.087 204.309 102.44C204.42 102.208 204.59 102.024 204.793 101.897C205.159 101.67 205.627 101.628 206.045 101.826ZM216.49 105.43C217.854 105.736 219.251 105.987 220.642 106.178C221.354 106.276 221.852 106.931 221.755 107.642C221.657 108.353 221 108.85 220.288 108.751C218.826 108.551 217.355 108.285 215.921 107.963C215.219 107.806 214.779 107.112 214.937 106.412C215.016 106.059 215.233 105.772 215.518 105.594C215.798 105.419 216.144 105.35 216.492 105.429L216.49 105.43ZM227.475 106.638C228.875 106.636 230.292 106.572 231.688 106.452C232.404 106.39 233.036 106.918 233.098 107.632C233.16 108.347 232.63 108.977 231.913 109.039C230.445 109.167 228.953 109.233 227.479 109.236C226.76 109.236 226.176 108.657 226.175 107.939C226.175 107.474 226.419 107.064 226.788 106.835C226.987 106.71 227.222 106.638 227.474 106.638H227.475ZM270.307 84.2684C270.907 84.665 271.07 85.4708 270.672 86.0686C269.857 87.2929 268.977 88.4977 268.057 89.6507C267.609 90.2117 266.79 90.3048 266.227 89.8576C265.665 89.4116 265.572 88.5942 266.02 88.0332C266.893 86.9389 267.729 85.7939 268.502 84.6317C268.608 84.4719 268.743 84.3443 268.896 84.2488C269.315 83.9879 269.867 83.9775 270.306 84.2684H270.307ZM238.448 105.387C239.812 105.075 241.179 104.699 242.511 104.27C243.195 104.05 243.929 104.425 244.15 105.107C244.371 105.79 243.993 106.518 243.309 106.741C241.907 107.193 240.468 107.589 239.031 107.919C238.33 108.08 237.632 107.643 237.471 106.944C237.343 106.39 237.592 105.836 238.049 105.55C238.168 105.476 238.303 105.421 238.447 105.387H238.448ZM263.232 93.1178C263.727 93.6386 263.705 94.4605 263.184 94.9537C262.115 95.9642 260.989 96.9425 259.836 97.8621C259.276 98.3128 258.455 98.2185 258.006 97.6575C257.557 97.0977 257.649 96.2803 258.211 95.832C259.307 94.9583 260.377 94.0294 261.392 93.0684C261.457 93.0075 261.527 92.9546 261.6 92.9086C262.114 92.5879 262.8 92.6614 263.232 93.1178ZM248.863 101.722C250.122 101.113 251.371 100.442 252.575 99.7256C253.193 99.3577 253.991 99.56 254.36 100.176C254.723 100.784 254.53 101.57 253.931 101.942C253.923 101.947 253.915 101.952 253.907 101.956C252.64 102.71 251.325 103.417 250.001 104.058C249.353 104.371 248.574 104.102 248.261 103.457C247.967 102.855 248.184 102.136 248.741 101.789C248.781 101.765 248.821 101.742 248.863 101.721V101.722Z" fill="#91B3FA"/>
<path d="M273.243 76.2234C273.026 76.359 272.846 76.5591 272.738 76.812C272.474 77.4281 272.191 78.0478 271.901 78.6559C271.591 79.3031 271.865 80.0791 272.514 80.3872C273.163 80.6964 273.941 80.4228 274.249 79.7744C274.556 79.1353 274.852 78.4823 275.131 77.8351C275.414 77.1764 275.108 76.4119 274.448 76.1291C274.04 75.9544 273.593 76.0038 273.243 76.2222V76.2234Z" fill="#91B3FA"/>
</g>
<g opacity="0.3">
<path d="M273.393 36.6226C272.86 36.9548 272.633 37.6319 272.884 38.2285C273.146 38.8459 273.398 39.4781 273.634 40.1092C273.886 40.7817 274.637 41.122 275.31 40.8703C275.986 40.6174 276.325 39.8701 276.072 39.1988C275.823 38.5343 275.557 37.8687 275.283 37.2181C275.003 36.5571 274.24 36.2478 273.578 36.526C273.513 36.5536 273.451 36.5858 273.393 36.6214V36.6226Z" fill="#91B3FA"/>
<path d="M202.054 12.0183C202.682 11.6688 203.475 11.893 203.826 12.5195C204.177 13.146 203.952 13.9358 203.324 14.2864C202.129 14.952 200.943 15.6785 199.787 16.4545C199.194 16.8545 198.381 16.6959 197.98 16.1004C197.579 15.5049 197.738 14.6979 198.334 14.2979C198.835 13.9622 199.339 13.6357 199.848 13.3184C200.572 12.8666 201.315 12.4287 202.054 12.0171V12.0183ZM194.566 18.7433C195.044 19.279 194.995 20.0998 194.458 20.5769C193.427 21.4931 192.425 22.4622 191.476 23.4577C190.983 23.9784 190.157 23.9991 189.636 23.506C189.115 23.0128 189.093 22.1897 189.589 21.6701C190.587 20.6217 191.642 19.6009 192.728 18.6375C192.784 18.5881 192.843 18.5433 192.905 18.5053C193.433 18.1765 194.138 18.2651 194.566 18.7444V18.7433ZM208.471 8.99948C209.821 8.47412 211.211 7.99934 212.605 7.5878C213.294 7.38432 214.018 7.77748 214.222 8.46492C214.426 9.15237 214.032 9.8743 213.343 10.0789C212.02 10.4686 210.7 10.9204 209.419 11.4193C208.749 11.6803 207.993 11.3504 207.732 10.6813C207.5 10.0904 207.733 9.43287 208.254 9.10869C208.322 9.06615 208.394 9.02936 208.471 8.99948ZM186.883 26.8282C187.468 27.2455 187.602 28.0571 187.183 28.64C186.38 29.7574 185.616 30.923 184.911 32.1037C184.543 32.721 183.743 32.9221 183.126 32.5543C182.508 32.1876 182.305 31.3898 182.674 30.7736C183.416 29.5309 184.222 28.3032 185.067 27.126C185.17 26.9834 185.295 26.8685 185.435 26.7811C185.869 26.511 186.442 26.511 186.883 26.8271V26.8282ZM219.524 6.05311C220.955 5.83699 222.416 5.67835 223.866 5.58294C224.584 5.5358 225.204 6.07725 225.251 6.79229C225.298 7.50848 224.755 8.12695 224.038 8.17408C222.661 8.2649 221.273 8.41549 219.914 8.62012C219.203 8.72703 218.539 8.23961 218.432 7.53032C218.351 7.00151 218.602 6.49915 219.03 6.2336C219.176 6.14278 219.343 6.07955 219.524 6.05196V6.05311ZM230.957 5.59673C232.404 5.69789 233.864 5.86113 235.297 6.083C236.007 6.19336 236.494 6.85667 236.384 7.56595C236.274 8.27639 235.609 8.76151 234.899 8.65115C233.538 8.44078 232.151 8.28559 230.775 8.18902C230.057 8.13844 229.517 7.51767 229.567 6.80264C229.598 6.37154 229.836 6.00483 230.177 5.79101C230.402 5.65076 230.672 5.57719 230.957 5.59788V5.59673ZM242.218 7.63723C243.61 8.05107 245 8.52815 246.349 9.05466C247.019 9.31676 247.349 10.0697 247.087 10.7376C246.824 11.4067 246.069 11.7355 245.4 11.4734C244.118 10.9721 242.798 10.5204 241.475 10.1272C240.786 9.92258 240.394 9.1995 240.599 8.51206C240.694 8.19592 240.898 7.94301 241.157 7.78092C241.462 7.5901 241.846 7.52687 242.218 7.63723ZM252.765 12.0803C254.033 12.7873 255.284 13.5564 256.486 14.3668C257.082 14.768 257.238 15.5762 256.835 16.1705C256.433 16.7637 255.623 16.9201 255.027 16.5189C253.886 15.7498 252.698 15.0187 251.494 14.3473C250.866 13.9967 250.643 13.2058 250.994 12.5804C251.105 12.3827 251.26 12.2252 251.44 12.1137C251.829 11.8711 252.337 11.8412 252.766 12.0815L252.765 12.0803ZM262.08 18.7306C263.158 19.6963 264.207 20.7217 265.202 21.777C265.694 22.3001 265.668 23.122 265.144 23.6129C264.622 24.1026 263.796 24.0785 263.304 23.5554C262.36 22.553 261.362 21.5793 260.339 20.6619C259.804 20.1825 259.761 19.3618 260.241 18.8283C260.325 18.7352 260.419 18.6571 260.52 18.5938C260.999 18.2949 261.639 18.334 262.08 18.7306ZM269.697 27.2501C270.317 28.1169 270.917 29.0147 271.481 29.916C271.684 30.2425 271.885 30.5701 272.081 30.9C272.448 31.5162 272.259 32.3209 271.627 32.6796C271.009 33.0463 270.21 32.844 269.842 32.2267C269.655 31.914 269.465 31.6013 269.272 31.292C268.735 30.4345 268.164 29.5826 267.575 28.7572C267.158 28.1732 267.294 27.3616 267.88 26.9455C267.902 26.9294 267.925 26.9145 267.946 26.9007C268.526 26.5397 269.293 26.6868 269.696 27.249L269.697 27.2501Z" fill="#91B3FA"/>
<path d="M179.964 36.5262C179.744 36.663 179.564 36.8665 179.455 37.1217C179.18 37.7689 178.914 38.4357 178.664 39.1001C178.412 39.7715 178.753 40.521 179.426 40.7728C180.099 41.0245 180.849 40.6854 181.102 40.0129C181.34 39.3806 181.592 38.7484 181.852 38.1333C182.132 37.4735 181.822 36.7113 181.16 36.4308C180.754 36.2595 180.31 36.3101 179.963 36.5262H179.964Z" fill="#91B3FA"/>
</g>
<path d="M188.333 57.1693C188.301 57.4269 188.434 57.6752 188.667 57.7901L195.309 61.0595C195.667 64.491 196.576 67.8914 198.057 71.1206L194.003 77.2984C193.862 77.5157 193.872 77.7985 194.031 78.0031L199.472 85.0086C199.631 85.2132 199.903 85.2949 200.148 85.2121L207.158 82.8394C209.922 85.0765 212.994 86.8043 216.235 88.0079L217.748 95.241C217.801 95.4951 218.01 95.687 218.267 95.7192L227.08 96.8355C227.337 96.8677 227.587 96.7343 227.702 96.5021L230.979 89.8759C234.418 89.5184 237.827 88.6114 241.064 87.1342L247.256 91.1784C247.474 91.3198 247.757 91.3095 247.962 91.1508L254.986 85.7225C255.191 85.5639 255.272 85.2926 255.189 85.0477L252.811 78.0548C255.054 75.297 256.785 72.2322 257.992 68.9985L265.242 67.4891C265.496 67.4362 265.689 67.2281 265.721 66.9718L266.84 58.1798C266.873 57.9235 266.739 57.674 266.506 57.5591L259.864 54.2897C259.506 50.8582 258.597 47.4577 257.116 44.2286L261.17 38.0508C261.312 37.8346 261.301 37.5507 261.142 37.3461L255.701 30.3394C255.542 30.1348 255.27 30.0532 255.025 30.1359L248.015 32.5087C245.251 30.2716 242.179 28.5438 238.938 27.3402L237.425 20.107C237.372 19.853 237.163 19.661 236.906 19.6288L228.094 18.5126C227.837 18.4804 227.587 18.6137 227.471 18.8459L224.194 25.4721C220.755 25.8296 217.346 26.7366 214.109 28.2138L207.917 24.1696C207.7 24.0282 207.417 24.0386 207.211 24.1972L200.189 29.6255C199.984 29.7842 199.902 30.0555 199.985 30.3003L202.363 37.2932C200.121 40.051 198.389 43.1158 197.182 46.3495L189.932 47.8589C189.678 47.9118 189.485 48.1199 189.453 48.3762L188.334 57.1682L188.333 57.1693Z" fill="#91B3FA"/>
<path d="M224.012 49.5093C228.525 47.5435 233.799 49.6047 235.77 54.1064C236.725 56.2872 236.771 58.7082 235.901 60.9234C235.031 63.1386 233.349 64.8837 231.162 65.8355C226.65 67.8013 221.376 65.7401 219.404 61.2384C217.611 57.1436 219.16 52.4188 222.852 50.1185C223.218 49.8909 223.605 49.6863 224.012 49.5093ZM233.961 60.1658C234.628 58.4668 234.592 56.6113 233.861 54.9387C232.35 51.4877 228.306 49.9059 224.846 51.4141C221.385 52.9212 219.802 56.9562 221.314 60.4084C222.824 63.8594 226.869 65.4412 230.328 63.933C230.641 63.7962 230.941 63.6387 231.227 63.4605C232.465 62.6891 233.419 61.5465 233.962 60.1658H233.961Z" fill="#BDD0FB"/>
<path d="M216.175 39.1084C215.542 39.5038 214.923 39.9326 214.325 40.3959C214.136 40.5419 213.95 40.6902 213.766 40.8419C212.86 41.5903 212.015 42.4088 211.244 43.2859C211.233 43.2974 211.223 43.3101 211.213 43.3216C211.183 43.3561 211.154 43.3894 211.124 43.4239C211.066 43.4906 211.01 43.5572 210.952 43.6239C210.804 43.8009 210.792 44.0469 210.908 44.2332C210.937 44.278 210.973 44.3194 211.016 44.3562C211.236 44.5413 211.564 44.5114 211.75 44.293C212.703 43.1629 213.783 42.1283 214.963 41.2167C220.821 36.6874 228.351 35.7585 234.859 38.0852C238.478 39.3797 241.782 41.6811 244.306 44.9321C244.749 45.5023 245.16 46.0897 245.537 46.6933C248.078 50.7547 249.133 55.5243 248.52 60.3376C247.817 65.867 244.998 70.7918 240.581 74.2049C231.459 81.253 218.3 79.5838 211.238 70.4895C210.802 69.9285 210.397 69.348 210.023 68.7502C208.402 66.159 207.367 63.2437 207.004 60.2088C206.995 60.1307 206.969 60.0582 206.93 59.995C206.826 59.8295 206.633 59.7295 206.426 59.7547C206.14 59.7892 205.936 60.0467 205.971 60.333C206.353 63.5196 207.439 66.5809 209.141 69.3008C209.534 69.9285 209.959 70.5378 210.415 71.1264C217.83 80.6747 231.652 82.4221 241.219 75.028C245.856 71.4448 248.815 66.274 249.554 60.4698C250.197 55.4163 249.089 50.4087 246.422 46.1461C246.025 45.5127 245.594 44.8953 245.13 44.2964C241.538 39.6705 236.355 36.7173 230.538 35.9815C225.471 35.3401 220.45 36.446 216.177 39.1084H216.175Z" fill="#BDD0FB"/>
<g opacity="0.3">
<path d="M125.196 72.8166C124.901 73.0006 124.749 73.3615 124.848 73.7133C125.031 74.3697 125.237 75.0284 125.461 75.6733C125.606 76.0918 126.063 76.3136 126.483 76.1699C126.903 76.0262 127.125 75.5687 126.981 75.1503C126.769 74.5364 126.572 73.9076 126.396 73.2822C126.278 72.8557 125.833 72.6074 125.405 72.7258C125.329 72.7477 125.259 72.7787 125.196 72.8189V72.8166Z" fill="#91B3FA"/>
<path d="M127.474 78.5423C127.873 78.3469 128.354 78.5113 128.55 78.909C129.044 79.9126 129.596 80.9024 130.19 81.8508C130.315 82.0508 130.443 82.2497 130.573 82.4486C130.817 82.8187 130.712 83.3165 130.341 83.5591C129.98 83.774 129.471 83.697 129.228 83.3268C129.092 83.1188 128.958 82.9107 128.827 82.7015C128.204 81.7071 127.626 80.669 127.107 79.6172C126.924 79.2447 127.057 78.7987 127.402 78.5837C127.425 78.5699 127.45 78.5561 127.475 78.5435L127.474 78.5423ZM133.012 85.7168C133.889 86.7526 134.837 87.7435 135.831 88.662C136.157 88.9632 136.177 89.4702 135.875 89.7955C135.574 90.1185 135.065 90.1404 134.739 89.8392C133.696 88.877 132.702 87.8378 131.783 86.7514C131.496 86.4123 131.54 85.9065 131.879 85.6202C131.909 85.5949 131.94 85.5731 131.972 85.5524C132.307 85.3443 132.75 85.4076 133.012 85.7157V85.7168ZM138.997 91.2382C140.099 92.0268 141.263 92.7557 142.457 93.4029C142.846 93.6144 142.992 94.1018 142.78 94.4904C142.566 94.8812 142.08 95.0238 141.69 94.8123C140.438 94.134 139.217 93.3695 138.061 92.543C137.7 92.2843 137.617 91.7831 137.876 91.4233C137.939 91.3359 138.016 91.2647 138.102 91.2106C138.371 91.0439 138.725 91.0439 138.998 91.2394L138.997 91.2382ZM146.158 95.1238C147.423 95.6193 148.73 96.0423 150.042 96.3768C150.473 96.4872 150.733 96.924 150.622 97.3528C150.511 97.7805 150.074 98.0403 149.644 97.931C148.267 97.5793 146.897 97.1367 145.57 96.6159C145.157 96.4538 144.954 95.9883 145.116 95.5756C145.182 95.41 145.297 95.2778 145.438 95.1893C145.647 95.0594 145.912 95.0261 146.158 95.1226V95.1238ZM154.054 97.147C155.401 97.3206 156.771 97.4137 158.127 97.4218C158.571 97.4241 158.929 97.7862 158.925 98.2288C158.923 98.6725 158.561 99.03 158.117 99.0254C156.696 99.0163 155.259 98.9197 153.847 98.7381C153.407 98.6806 153.096 98.2782 153.152 97.8391C153.185 97.5908 153.328 97.3839 153.525 97.2608C153.677 97.1666 153.861 97.1206 154.054 97.1459V97.147ZM162.201 97.1976C163.55 97.0401 164.899 96.7964 166.215 96.4734C166.646 96.3676 167.081 96.6309 167.187 97.0608C167.293 97.4908 167.031 97.9242 166.598 98.0322C165.219 98.3702 163.802 98.6265 162.388 98.7921C161.947 98.8438 161.547 98.5288 161.496 98.0885C161.459 97.7701 161.614 97.4735 161.87 97.3137C161.967 97.2528 162.079 97.2114 162.201 97.1976ZM170.111 95.2594C171.375 94.7778 172.625 94.211 173.827 93.573C174.219 93.3661 174.706 93.5144 174.915 93.9052C175.123 94.2961 174.971 94.7755 174.581 94.9904C173.321 95.6583 172.011 96.2527 170.684 96.7585C170.27 96.916 169.804 96.7091 169.646 96.2952C169.507 95.9308 169.651 95.5284 169.971 95.3296C170.015 95.3031 170.061 95.279 170.111 95.2606V95.2594ZM181.637 88.9621C181.934 89.2908 181.909 89.7978 181.578 90.0944C180.666 90.9163 179.692 91.7015 178.687 92.428C178.535 92.5395 178.382 92.6476 178.228 92.7557C177.874 93.0189 177.363 92.9212 177.108 92.5568C176.854 92.1935 176.943 91.6934 177.307 91.4394C177.452 91.3394 177.595 91.2371 177.74 91.1302C178.702 90.4347 179.631 89.6851 180.501 88.9023C180.536 88.8701 180.575 88.8414 180.614 88.8172C180.939 88.6149 181.371 88.6678 181.636 88.9609L181.637 88.9621Z" fill="#91B3FA"/>
</g>
<g opacity="0.3">
<path d="M140.318 34.7332C141.517 34.0078 142.769 33.3503 144.043 32.7766C144.447 32.595 144.924 32.7732 145.106 33.1778C145.289 33.5825 145.105 34.0549 144.704 34.2389C143.489 34.7861 142.294 35.4137 141.151 36.1058C140.772 36.3357 140.277 36.215 140.048 35.8356C139.819 35.4597 139.937 34.9712 140.309 34.7389C140.313 34.7366 140.316 34.7355 140.318 34.7332ZM137.984 37.2611C138.258 37.6094 138.197 38.1141 137.848 38.3865C136.797 39.2096 135.785 40.104 134.842 41.0455C134.528 41.3559 134.019 41.3594 133.704 41.0455C133.39 40.7328 133.391 40.2247 133.704 39.9109C134.694 38.9246 135.754 37.9865 136.856 37.1243C136.879 37.1059 136.903 37.0898 136.927 37.0737C137.271 36.8599 137.728 36.9335 137.985 37.26L137.984 37.2611ZM147.981 31.2845C149.32 30.8695 150.696 30.5326 152.07 30.2832C152.507 30.2039 152.927 30.4936 153.006 30.9293C153.086 31.3649 152.796 31.7811 152.36 31.8627C151.048 32.1007 149.736 32.4214 148.458 32.8169C148.034 32.9479 147.583 32.7111 147.452 32.2892C147.341 31.9328 147.491 31.5592 147.794 31.3707C147.852 31.3351 147.914 31.3063 147.982 31.2845H147.981ZM132.04 42.9216C132.391 43.1941 132.453 43.6987 132.18 44.0482C131.358 45.0989 130.593 46.2094 129.906 47.3521C129.677 47.7314 129.184 47.8545 128.804 47.6268C128.422 47.3981 128.299 46.9061 128.528 46.5255C129.248 45.3277 130.05 44.162 130.913 43.0607C130.973 42.9849 131.044 42.9228 131.122 42.8745C131.401 42.7009 131.77 42.7101 132.043 42.9228L132.04 42.9216ZM156.249 29.7854C157.645 29.7038 159.061 29.7073 160.459 29.7946C160.903 29.8222 161.239 30.2039 161.212 30.6465C161.184 31.089 160.802 31.4247 160.359 31.3971C159.026 31.3132 157.675 31.3098 156.343 31.3879C155.9 31.4132 155.519 31.0764 155.494 30.6338C155.475 30.3303 155.63 30.0567 155.872 29.9061C155.982 29.8372 156.112 29.7946 156.25 29.7854H156.249ZM164.637 30.3096C166.015 30.5648 167.39 30.9063 168.723 31.3236C169.147 31.4558 169.382 31.9052 169.25 32.3283C169.117 32.7502 168.666 32.987 168.242 32.8536C166.971 32.4559 165.658 32.1306 164.343 31.8868C163.907 31.8064 163.619 31.3868 163.699 30.9511C163.742 30.7212 163.879 30.5315 164.065 30.4165C164.229 30.3142 164.431 30.2705 164.637 30.3085V30.3096ZM172.659 32.8226C173.937 33.3997 175.191 34.0607 176.385 34.7861C176.764 35.0171 176.885 35.5103 176.653 35.8885C176.423 36.2667 175.927 36.3863 175.548 36.1564C174.41 35.4643 173.215 34.8344 171.997 34.2849C171.592 34.1021 171.413 33.6262 171.596 33.2227C171.664 33.0721 171.772 32.9548 171.901 32.8732C172.121 32.7364 172.405 32.7076 172.659 32.8226Z" fill="#91B3FA"/>
<path d="M126.876 49.9332C126.744 50.0148 126.635 50.1355 126.567 50.2884C126.288 50.916 126.025 51.5541 125.788 52.1863C125.632 52.6013 125.843 53.0635 126.258 53.2198C126.674 53.3738 127.137 53.1646 127.294 52.7496C127.52 52.1472 127.77 51.538 128.036 50.939C128.216 50.5344 128.033 50.0596 127.627 49.8803C127.374 49.7688 127.094 49.7975 126.875 49.9332H126.876Z" fill="#91B3FA"/>
</g>
<path d="M132.196 64.2527C132.174 64.4251 132.264 64.5918 132.419 64.6677L136.864 66.8553C137.103 69.1522 137.712 71.4272 138.703 73.5872L135.99 77.7211C135.895 77.8659 135.903 78.0556 136.009 78.1924L139.649 82.8804C139.755 83.0172 139.937 83.0724 140.102 83.016L144.792 81.4285C146.641 82.9252 148.697 84.0817 150.866 84.8876L151.879 89.7273C151.915 89.8974 152.054 90.025 152.226 90.0468L158.123 90.7941C158.296 90.8159 158.463 90.7262 158.539 90.5711L160.732 86.1371C163.034 85.898 165.315 85.2911 167.48 84.3024L171.624 87.0085C171.769 87.1039 171.959 87.0959 172.096 86.9901L176.795 83.3586C176.932 83.2529 176.987 83.0712 176.931 82.9068L175.34 78.2281C176.84 76.383 177.999 74.3322 178.807 72.1675L183.658 71.157C183.829 71.1214 183.956 70.9823 183.978 70.811L184.727 64.9275C184.749 64.7562 184.659 64.5883 184.504 64.5125L180.059 62.3248C179.82 60.028 179.211 57.753 178.22 55.5929L180.933 51.459C181.029 51.3142 181.02 51.1245 180.914 50.9877L177.273 46.2997C177.167 46.1629 176.985 46.1078 176.82 46.1641L172.131 47.7517C170.281 46.2549 168.225 45.0984 166.056 44.2926L165.043 39.4529C165.007 39.2827 164.868 39.1551 164.696 39.1333L158.799 38.3861C158.626 38.3642 158.459 38.4539 158.383 38.6091L156.19 43.043C153.888 43.2821 151.607 43.8891 149.442 44.8777L145.299 42.1716C145.153 42.0774 144.963 42.0843 144.826 42.19L140.127 45.8227C139.99 45.9284 139.935 46.1101 139.991 46.2745L141.582 50.9532C140.082 52.7983 138.923 54.8491 138.115 57.0138L133.264 58.0243C133.094 58.0599 132.966 58.199 132.944 58.3703L132.195 64.2538L132.196 64.2527Z" fill="#91B3FA"/>
<path d="M156.027 59.0306C157.516 58.3811 159.17 58.3501 160.683 58.9409C162.196 59.5318 163.386 60.6757 164.037 62.1609C165.379 65.2268 163.974 68.8043 160.898 70.1516C157.824 71.4909 154.232 70.0849 152.89 67.0202C152.239 65.5349 152.208 63.8853 152.8 62.377C153.282 61.1504 154.13 60.1354 155.23 59.4502C155.482 59.2927 155.75 59.1525 156.027 59.0306ZM162.563 62.8047C162.085 61.7114 161.208 60.8699 160.095 60.4354C158.983 60.0009 157.766 60.0238 156.672 60.5009C155.577 60.9791 154.733 61.8528 154.297 62.9633C153.86 64.0727 153.884 65.2866 154.362 66.3787C155.35 68.6342 157.992 69.6676 160.253 68.6825C160.457 68.5928 160.65 68.4916 160.834 68.3767C162.684 67.2236 163.46 64.8567 162.562 62.8047H162.563Z" fill="#BDD0FB"/>
<path d="M150.574 51.7916C150.142 52.0606 149.721 52.3537 149.31 52.6698C148.494 53.2998 147.742 54.0125 147.073 54.7919C147.043 54.8276 147.013 54.8621 146.983 54.8977C146.753 55.1702 146.737 55.5507 146.915 55.8381C146.959 55.9082 147.014 55.9726 147.081 56.0277C147.421 56.3128 147.927 56.2668 148.214 55.93C148.831 55.1966 149.532 54.5275 150.294 53.939C150.335 53.9068 150.378 53.8746 150.419 53.8424C152.235 52.4664 154.327 51.5938 156.524 51.2593C157.717 51.0777 158.94 51.0558 160.169 51.2007C160.179 51.2007 160.188 51.203 160.199 51.2041C160.23 51.2076 160.26 51.211 160.29 51.2156C163.878 51.6697 167.073 53.4906 169.288 56.3439C169.575 56.7129 169.84 57.0934 170.085 57.4843C171.731 60.1133 172.413 63.2011 172.017 66.3176C171.561 69.8974 169.735 73.0851 166.876 75.2946C164.019 77.5018 160.467 78.4709 156.879 78.0168C153.291 77.5627 150.095 75.7418 147.881 72.8886C147.598 72.5253 147.337 72.1494 147.095 71.7631C146.045 70.0859 145.376 68.1983 145.141 66.2337C145.126 66.113 145.085 66.0015 145.024 65.9049C144.864 65.6497 144.566 65.4945 144.246 65.5336C143.805 65.5876 143.491 65.9854 143.544 66.4257C143.807 68.6236 144.556 70.7366 145.729 72.6127C146 73.0461 146.294 73.4668 146.609 73.8726C149.087 77.0638 152.663 79.1009 156.676 79.609C160.69 80.1171 164.661 79.0388 167.86 76.5638C171.059 74.0922 173.101 70.525 173.61 66.5199C174.054 63.0333 173.29 59.5788 171.45 56.637C171.177 56.2002 170.879 55.7737 170.559 55.361C165.761 49.1832 157.077 47.737 150.57 51.7904L150.574 51.7916Z" fill="#BDD0FB"/>
<path d="M0.0427518 83.3532L16.1597 257.652C16.7566 264.113 23.7003 269.104 32.0302 269.06L293.285 267.678C301.774 267.634 308.7 262.381 308.972 255.783L315.992 85.4604C316.276 78.579 309.235 72.8587 300.382 72.7771L15.9892 70.1825C6.74213 70.0986 -0.622116 76.1798 0.0415995 83.3532H0.0427518Z" fill="url(#paint1_linear_398_17)"/>
<path d="M12.9541 106.958L27.2217 252.797C27.5708 256.37 31.7052 259.135 36.6727 259.117L293.46 258.153C298.616 258.134 302.793 255.131 302.836 251.413L304.492 110.628C304.536 106.907 300.422 103.851 295.264 103.774L22.5526 99.6831C17.009 99.6004 12.5646 102.969 12.9552 106.958H12.9541Z" fill="#BDD0FB"/>
<path d="M84.0431 109.077H85.2415C86.2774 109.077 87.122 109.905 87.1404 110.938L89.6271 253.555C89.6455 254.613 88.7905 255.483 87.7281 255.483C86.6979 255.483 85.8568 254.664 85.8303 253.636L82.1453 111.02C82.1176 109.955 82.9761 109.077 84.0431 109.077Z" fill="#91B3FA"/>
<path d="M27.5996 156.553L69.7605 156.902C71.5351 156.917 72.9662 158.356 72.9662 160.128C72.9662 161.918 71.5062 163.365 69.7121 163.354L27.5685 163.078C26.074 163.067 24.7811 162.037 24.4412 160.585L24.4239 160.512C23.948 158.478 25.5059 156.537 27.5996 156.554V156.553Z" fill="#BDD0FB"/>
<path d="M38.0151 168.646C46.1249 168.85 62.8019 169.099 69.7836 169.199C71.5512 169.224 72.9673 170.66 72.9673 172.423V172.893C72.9673 174.675 71.5201 176.119 69.734 176.119H38.2698C36.8663 176.119 35.623 175.215 35.1932 173.883L34.8625 172.86C34.1792 170.745 35.7889 168.589 38.0163 168.646H38.0151Z" fill="#BDD0FB"/>
<path d="M37.3284 182.708V183.232C37.3284 184.922 38.7019 186.291 40.3946 186.291H69.34C70.9854 186.291 72.3186 184.961 72.3186 183.32C72.3186 181.655 70.967 180.307 69.2985 180.307H39.7355C38.4069 180.307 37.3284 181.381 37.3284 182.708Z" fill="#91B3FA"/>
<g opacity="0.9">
<path d="M252.835 93.4284C255.964 90.3074 255.964 85.2473 252.835 82.1263C249.707 79.0052 244.635 79.0052 241.506 82.1263C238.378 85.2473 238.378 90.3074 241.506 93.4284C244.635 96.5494 249.707 96.5494 252.835 93.4284Z" fill="#91B3FA"/>
<path d="M277.162 94.3737C280.29 91.2527 280.29 86.1926 277.162 83.0716C274.034 79.9506 268.961 79.9506 265.833 83.0716C262.705 86.1926 262.705 91.2527 265.833 94.3737C268.961 97.4948 274.034 97.4948 277.162 94.3737Z" fill="#91B3FA"/>
<path d="M301.489 95.3191C304.617 92.1981 304.617 87.1379 301.489 84.0169C298.361 80.8959 293.288 80.8959 290.16 84.0169C287.032 87.1379 287.032 92.1981 290.16 95.3191C293.288 98.4401 298.361 98.4401 301.489 95.3191Z" fill="#91B3FA"/>
</g>
<path d="M147.06 118.823L104.785 118.565C103.396 118.555 102.285 119.714 102.353 121.098L103.547 145.608C103.613 146.995 104.76 148.006 106.151 148.006H151.427C152.818 148.006 153.964 146.995 154.032 145.609L154.92 127.445L147.061 118.823H147.06Z" fill="url(#paint2_linear_398_17)"/>
<path d="M148.819 127.227C147.442 127.179 146.383 125.995 146.491 124.625L146.944 118.903L154.927 127.449L148.819 127.227Z" fill="url(#paint3_linear_398_17)"/>
<path opacity="0.58" d="M144.773 127.596H110.627C109.64 127.596 108.839 128.128 108.839 128.786C108.839 129.443 109.64 129.975 110.627 129.975H144.773C145.761 129.975 146.561 129.443 146.561 128.786C146.561 128.128 145.761 127.596 144.773 127.596Z" fill="white"/>
<path opacity="0.58" d="M144.773 134.625H110.627C109.64 134.625 108.839 135.157 108.839 135.815C108.839 136.472 109.64 137.005 110.627 137.005H144.773C145.761 137.005 146.561 136.472 146.561 135.815C146.561 135.157 145.761 134.625 144.773 134.625Z" fill="white"/>
<path d="M209.764 118.823L167.489 118.565C166.1 118.555 164.989 119.714 165.057 121.098L166.25 145.608C166.317 146.995 167.464 148.006 168.855 148.006H214.131C215.522 148.006 216.667 146.995 216.735 145.609L217.624 127.445L209.765 118.823H209.764Z" fill="url(#paint4_linear_398_17)"/>
<path d="M211.523 127.227C210.146 127.179 209.087 125.995 209.195 124.625L209.648 118.903L217.631 127.449L211.523 127.227Z" fill="url(#paint5_linear_398_17)"/>
<path opacity="0.58" d="M207.477 127.596H173.331C172.344 127.596 171.543 128.128 171.543 128.786C171.543 129.443 172.344 129.975 173.331 129.975H207.477C208.464 129.975 209.265 129.443 209.265 128.786C209.265 128.128 208.464 127.596 207.477 127.596Z" fill="white"/>
<path opacity="0.58" d="M207.477 134.625H173.331C172.344 134.625 171.543 135.157 171.543 135.815C171.543 136.472 172.344 137.005 173.331 137.005H207.477C208.464 137.005 209.265 136.472 209.265 135.815C209.265 135.157 208.464 134.625 207.477 134.625Z" fill="white"/>
<path d="M272.468 118.823L230.193 118.565C228.803 118.555 227.693 119.714 227.761 121.098L228.954 145.608C229.021 146.995 230.168 148.006 231.558 148.006H276.835C278.226 148.006 279.371 146.995 279.439 145.609L280.328 127.445L272.469 118.823H272.468Z" fill="url(#paint6_linear_398_17)"/>
<path d="M274.226 127.227C272.849 127.179 271.79 125.995 271.899 124.625L272.352 118.903L280.335 127.449L274.226 127.227Z" fill="url(#paint7_linear_398_17)"/>
<path opacity="0.58" d="M270.181 127.596H236.035C235.048 127.596 234.247 128.128 234.247 128.786C234.247 129.443 235.048 129.975 236.035 129.975H270.181C271.168 129.975 271.969 129.443 271.969 128.786C271.969 128.128 271.168 127.596 270.181 127.596Z" fill="white"/>
<path opacity="0.58" d="M270.181 134.625H236.035C235.048 134.625 234.247 135.157 234.247 135.815C234.247 136.472 235.048 137.005 236.035 137.005H270.181C271.168 137.005 271.969 136.472 271.969 135.815C271.969 135.157 271.168 134.625 270.181 134.625Z" fill="white"/>
<path d="M67.0746 113.087L24.7996 112.828C23.4099 112.819 22.2991 113.978 22.3671 115.362L23.5609 139.771C23.6277 141.157 24.7742 142.069 26.165 142.069H71.4417C72.8325 142.069 73.9779 141.157 74.0459 139.772L74.9343 121.658L67.0757 113.087H67.0746Z" fill="url(#paint8_linear_398_17)"/>
<path d="M68.8329 121.49C67.456 121.442 66.397 120.258 66.5053 118.887L66.9582 113.166L74.9412 121.712L68.8329 121.49Z" fill="url(#paint9_linear_398_17)"/>
<path opacity="0.58" d="M64.7873 121.859H30.6416C29.6541 121.859 28.8533 122.392 28.8533 123.049C28.8533 123.707 29.6541 124.239 30.6416 124.239H64.7873C65.7748 124.239 66.5756 123.707 66.5756 123.049C66.5756 122.392 65.7748 121.859 64.7873 121.859Z" fill="white"/>
<path opacity="0.58" d="M64.7873 128.888H30.6416C29.6541 128.888 28.8533 129.42 28.8533 130.078C28.8533 130.735 29.6541 131.267 30.6416 131.267H64.7873C65.7748 131.267 66.5756 130.735 66.5756 130.078C66.5756 129.42 65.7748 128.888 64.7873 128.888Z" fill="white"/>
<path d="M272.468 157.423L230.193 157.164C228.803 157.155 227.693 158.314 227.761 159.698L228.954 184.107C229.021 185.493 230.168 186.405 231.558 186.405H276.835C278.226 186.405 279.371 185.493 279.439 184.108L280.328 165.994L272.469 157.423H272.468Z" fill="url(#paint10_linear_398_17)"/>
<path d="M274.226 165.826C272.849 165.778 271.79 164.594 271.899 163.223L272.352 157.502L280.335 166.048L274.226 165.826Z" fill="url(#paint11_linear_398_17)"/>
<path opacity="0.58" d="M270.181 166.194H236.035C235.048 166.194 234.247 166.727 234.247 167.384C234.247 168.042 235.048 168.574 236.035 168.574H270.181C271.168 168.574 271.969 168.042 271.969 167.384C271.969 166.727 271.168 166.194 270.181 166.194Z" fill="white"/>
<path opacity="0.58" d="M270.181 173.224H236.035C235.048 173.224 234.247 173.756 234.247 174.413C234.247 175.071 235.048 175.603 236.035 175.603H270.181C271.168 175.603 271.969 175.071 271.969 174.413C271.969 173.756 271.168 173.224 270.181 173.224Z" fill="white"/>
<path d="M272.468 196.02L230.193 195.762C228.803 195.753 227.693 196.911 227.761 198.295L228.954 222.752C229.021 224.138 230.168 225.097 231.558 225.097H276.835C278.226 225.097 279.371 224.138 279.439 222.753L280.328 204.615L272.469 196.019L272.468 196.02Z" fill="url(#paint12_linear_398_17)"/>
<path d="M274.226 204.425C272.849 204.376 271.79 203.192 271.899 201.822L272.352 196.101L280.335 204.647L274.226 204.425Z" fill="url(#paint13_linear_398_17)"/>
<path opacity="0.58" d="M270.181 204.793H236.035C235.048 204.793 234.247 205.325 234.247 205.983C234.247 206.64 235.048 207.173 236.035 207.173H270.181C271.168 207.173 271.969 206.64 271.969 205.983C271.969 205.325 271.168 204.793 270.181 204.793Z" fill="white"/>
<path opacity="0.58" d="M270.181 211.822H236.035C235.048 211.822 234.247 212.355 234.247 213.012C234.247 213.67 235.048 214.202 236.035 214.202H270.181C271.168 214.202 271.969 213.67 271.969 213.012C271.969 212.355 271.168 211.822 270.181 211.822Z" fill="white"/>
<path d="M149.735 296.001C154.684 295.996 158.693 291.99 158.688 287.052L158.62 211.024C158.617 206.829 155.319 203.374 151.12 203.164L40.6285 197.651C37.3422 197.487 34.5732 200.07 34.5168 203.352L33.0073 290.491C32.9543 293.574 35.4467 296.102 38.5382 296.1L149.736 296.001H149.735Z" fill="url(#paint14_linear_398_17)"/>
<path d="M156.99 289.767C158.573 289.775 159.798 288.384 159.583 286.819C158.163 276.438 153.765 240.74 156.011 211.22C156.114 209.873 155.091 208.705 153.739 208.635L42.7556 202.85C41.2334 202.77 39.9337 203.93 39.8449 205.449C39.1201 217.864 36.3189 268.994 38.2502 287.23C38.3677 288.339 39.3057 289.182 40.4234 289.186L156.991 289.767H156.99Z" fill="url(#paint15_linear_398_17)"/>
<path d="M154.208 288.546C155.731 288.554 156.91 287.216 156.704 285.709C155.337 275.719 151.106 241.365 153.265 212.957C153.364 211.661 152.379 210.538 151.078 210.47L44.2743 204.903C42.8098 204.827 41.5584 205.943 41.4731 207.405C40.7748 219.352 38.0796 268.557 39.9383 286.106C40.0512 287.174 40.9534 287.984 42.0297 287.989L154.208 288.547V288.546Z" fill="url(#paint16_linear_398_17)"/>
<path opacity="0.6" d="M89.7411 227.304L89.748 234.986C89.748 236.159 88.787 237.105 87.6117 237.088L79.7163 236.973C78.5663 236.955 77.6433 236.022 77.6422 234.875L77.6352 226.798C77.6352 225.584 78.6619 224.622 79.8764 224.7L87.773 225.209C88.8792 225.28 89.7411 226.197 89.7423 227.302L89.7411 227.304Z" fill="white"/>
<path opacity="0.6" d="M117.145 237.621L109.249 237.507C108.099 237.489 107.176 236.556 107.175 235.409L107.169 228.54C107.169 227.333 108.185 226.374 109.392 226.442L117.288 226.886C118.402 226.948 119.273 227.867 119.274 228.98L119.28 235.521C119.28 236.694 118.319 237.64 117.144 237.623L117.145 237.621Z" fill="white"/>
<path opacity="0.6" d="M109.53 271.686L117.042 271.765C118.3 271.778 119.313 272.798 119.314 274.055L119.32 281.074C119.32 282.322 118.324 283.34 117.073 283.368L109.563 283.532C108.276 283.561 107.217 282.527 107.216 281.243L107.209 273.979C107.209 272.703 108.251 271.672 109.53 271.686Z" fill="white"/>
<path opacity="0.6" d="M121.982 280.959L121.976 274.096C121.976 272.842 123.001 271.828 124.258 271.842L131.848 271.922C133.084 271.935 134.081 272.939 134.082 274.172L134.088 280.788C134.088 282.013 133.107 283.015 131.88 283.042L124.29 283.209C123.025 283.237 121.984 282.221 121.983 280.959H121.982Z" fill="white"/>
<path opacity="0.6" d="M121.953 249.974L121.949 244.34C121.947 242.98 123.069 241.885 124.432 241.915L131.678 242.074C132.998 242.103 134.053 243.178 134.054 244.495L134.059 249.88C134.06 251.208 132.991 252.29 131.66 252.306L124.414 252.395C123.062 252.413 121.956 251.323 121.954 249.974H121.953Z" fill="white"/>
<path opacity="0.6" d="M121.968 266.347L121.96 257.729C121.959 256.496 122.953 255.49 124.19 255.475L131.606 255.383C132.959 255.366 134.065 256.454 134.066 257.804L134.074 266.495C134.074 267.757 133.036 268.774 131.771 268.749L124.181 268.596C122.952 268.572 121.969 267.572 121.968 266.347Z" fill="white"/>
<path d="M102.378 237.405L94.4828 237.288C93.3328 237.271 92.4098 236.338 92.4087 235.19L92.4018 227.708C92.4018 226.501 93.4169 225.542 94.6245 225.609L102.52 226.052C103.634 226.115 104.505 227.034 104.507 228.147L104.513 235.302C104.513 236.475 103.552 237.421 102.377 237.403L102.378 237.405Z" fill="url(#paint17_linear_398_17)"/>
<path d="M107.202 266.01L107.195 257.95C107.195 256.695 108.205 255.672 109.464 255.657L116.974 255.564C118.253 255.548 119.298 256.578 119.299 257.854L119.306 266.157C119.308 267.441 118.25 268.476 116.963 268.45L109.451 268.299C108.202 268.273 107.202 267.256 107.201 266.01H107.202Z" fill="url(#paint18_linear_398_17)"/>
<path opacity="0.6" d="M94.1959 241.248L102.817 241.438C103.763 241.459 104.52 242.23 104.521 243.174L104.528 250.923C104.528 251.875 103.762 252.651 102.808 252.663L94.1878 252.77C93.2176 252.781 92.4248 252.001 92.4237 251.034L92.4167 242.987C92.4167 242.011 93.2199 241.226 94.197 241.248H94.1959Z" fill="white"/>
<path opacity="0.6" d="M89.755 243.285L89.7619 250.666C89.7619 251.862 88.7986 252.837 87.599 252.852L79.873 252.948C78.6539 252.962 77.6571 251.982 77.656 250.766L77.6491 243.119C77.6479 241.892 78.6585 240.906 79.8868 240.932L87.6129 241.102C88.802 241.129 89.7527 242.098 89.7538 243.284L89.755 243.285Z" fill="white"/>
<path opacity="0.6" d="M117.573 252.481L108.952 252.588C107.982 252.599 107.189 251.819 107.188 250.852L107.181 243.314C107.181 242.338 107.984 241.553 108.961 241.575L117.583 241.764C118.529 241.785 119.286 242.556 119.287 243.5L119.294 250.741C119.294 251.693 118.528 252.469 117.573 252.481Z" fill="white"/>
<path opacity="0.6" d="M94.6971 255.84L102.208 255.747C103.487 255.731 104.532 256.761 104.533 258.037L104.54 265.86C104.541 267.144 103.483 268.179 102.196 268.153L94.6844 268.002C93.4353 267.976 92.4352 266.959 92.434 265.713L92.4271 258.134C92.4271 256.878 93.4376 255.855 94.6959 255.84H94.6971Z" fill="white"/>
<path opacity="0.6" d="M79.6713 256.026L87.7085 255.926C88.8412 255.912 89.7665 256.824 89.7676 257.954L89.7745 265.83C89.7745 266.968 88.8389 267.884 87.6993 267.861L79.6621 267.699C78.5559 267.677 77.6698 266.776 77.6686 265.672L77.6617 258.057C77.6617 256.946 78.5559 256.04 79.6702 256.026H79.6713Z" fill="white"/>
<path opacity="0.6" d="M130.809 237.719L124.815 237.631C123.222 237.608 121.942 236.313 121.939 234.723L121.935 229.789C121.934 228.298 123.19 227.113 124.681 227.197L131.344 227.57C132.856 227.655 134.04 228.903 134.041 230.413L134.044 234.533C134.045 236.31 132.588 237.744 130.807 237.719H130.809Z" fill="white"/>
<path opacity="0.6" d="M136.742 274.425C136.74 273.075 137.844 271.984 139.197 271.999L141.808 272.027C143.792 272.047 145.388 273.389 145.39 275.037L145.394 279.807C145.395 281.442 143.828 282.78 141.86 282.822L139.055 282.885C137.79 282.912 136.75 281.897 136.749 280.635L136.743 274.426L136.742 274.425Z" fill="white"/>
<path d="M52.8415 271.085L57.9761 271.139C59.2356 271.153 60.2496 272.174 60.2507 273.43L60.2588 282.367C60.2588 283.614 59.2609 284.635 58.0107 284.663L52.8957 284.775C50.8562 284.82 49.1738 283.46 49.1727 281.766L49.1658 274.102C49.1646 272.421 50.8181 271.063 52.8415 271.085Z" fill="url(#paint19_linear_398_17)"/>
<path opacity="0.6" d="M141.663 268.949L139.115 268.898C137.794 268.871 136.736 267.795 136.735 266.477L136.727 257.717C136.726 256.389 137.795 255.307 139.126 255.291L141.692 255.259C143.715 255.234 145.372 256.589 145.373 258.269L145.38 265.933C145.381 267.627 143.701 268.99 141.663 268.949Z" fill="white"/>
<path d="M141.79 252.182L138.58 252.222C137.556 252.235 136.72 251.412 136.72 250.391L136.714 244.064C136.714 243.035 137.561 242.206 138.592 242.229L141.831 242.3C143.796 242.344 145.361 243.677 145.362 245.31L145.365 249.166C145.366 250.814 143.774 252.158 141.79 252.182Z" fill="url(#paint20_linear_398_17)"/>
<path opacity="0.6" d="M52.996 223.172L58.1397 223.46C59.2989 223.526 60.2058 224.481 60.2058 225.64L60.2139 234.468C60.2139 235.687 59.2148 236.671 57.9923 236.654L52.6906 236.577C50.7133 236.548 49.1289 235.209 49.1277 233.567L49.1208 226.184C49.1197 224.437 50.8976 223.056 52.9948 223.174L52.996 223.172Z" fill="white"/>
<path opacity="0.6" d="M94.7651 271.529L102.277 271.609C103.535 271.622 104.548 272.643 104.549 273.899L104.556 281.398C104.556 282.646 103.559 283.664 102.309 283.692L94.7985 283.856C93.5114 283.885 92.4525 282.851 92.4513 281.567L92.4444 273.824C92.4444 272.548 93.4872 271.517 94.7662 271.53L94.7651 271.529Z" fill="white"/>
<path d="M52.8634 240.335L58.081 240.45C59.2701 240.477 60.2208 241.446 60.2219 242.632L60.23 251.03C60.2312 252.226 59.2667 253.201 58.0672 253.216L52.8243 253.28C50.8009 253.306 49.1439 251.95 49.1427 250.271L49.137 243.35C49.1358 241.654 50.8204 240.289 52.8634 240.335Z" fill="url(#paint21_linear_398_17)"/>
<path opacity="0.6" d="M52.7275 256.359L58.1766 256.291C59.3093 256.277 60.2346 257.189 60.2358 258.319L60.2415 265.235C60.2415 266.373 59.3059 267.289 58.1663 267.266L52.6941 267.156C50.7271 267.116 49.1565 265.781 49.1554 264.146L49.1508 259.377C49.1496 257.728 50.7421 256.384 52.7263 256.36L52.7275 256.359Z" fill="white"/>
<path opacity="0.6" d="M75.0023 258.136L75.0092 265.533C75.0092 266.671 74.0735 267.587 72.9339 267.564L64.8967 267.402C63.7905 267.38 62.9044 266.479 62.9033 265.375L62.8964 258.241C62.8964 257.129 63.7905 256.223 64.9048 256.21L72.942 256.11C74.0747 256.096 75 257.007 75.0011 258.137L75.0023 258.136Z" fill="white"/>
<path opacity="0.6" d="M65.2344 271.216L72.7415 271.295C74.0009 271.309 75.0149 272.33 75.0161 273.587L75.0242 282.043C75.0253 283.29 74.0263 284.311 72.7761 284.339L65.2689 284.503C63.9807 284.532 62.9206 283.497 62.9194 282.212L62.9114 273.511C62.9102 272.234 63.9553 271.201 65.2344 271.215V271.216Z" fill="white"/>
<path opacity="0.6" d="M141.66 237.877L138.518 237.831C137.515 237.816 136.708 237.001 136.708 236L136.702 229.812C136.702 228.758 137.589 227.921 138.643 227.979L141.967 228.166C143.871 228.273 145.348 229.585 145.35 231.17L145.354 234.861C145.355 236.547 143.69 237.907 141.66 237.877Z" fill="white"/>
<path opacity="0.6" d="M79.9997 271.372L87.3813 271.45C88.711 271.464 89.7815 272.542 89.7826 273.869L89.7895 281.72C89.7907 282.968 88.7917 283.988 87.5414 284.015L80.0343 284.18C78.746 284.208 77.6859 283.174 77.6848 281.889L77.6779 273.668C77.6767 272.391 78.7218 271.358 80.0009 271.372H79.9997Z" fill="white"/>
<path opacity="0.6" d="M74.9735 226.469L74.9804 234.684C74.9804 235.903 73.9813 236.887 72.7588 236.87L65.0327 236.758C63.8366 236.74 62.8756 235.769 62.8756 234.576L62.8676 226.04C62.8664 224.785 63.9242 223.787 65.1802 223.857L72.9063 224.29C74.0655 224.356 74.9723 225.311 74.9735 226.47V226.469Z" fill="white"/>
<path opacity="0.6" d="M74.9884 242.959L74.9954 250.849C74.9954 252.045 74.032 253.02 72.8325 253.035L65.1065 253.13C63.8873 253.145 62.8906 252.165 62.8895 250.949L62.8826 242.793C62.8814 241.567 63.892 240.581 65.1203 240.607L72.8463 240.777C74.0355 240.804 74.9861 241.773 74.9873 242.959H74.9884Z" fill="white"/>
<path d="M142.85 221.531L142.441 224.124C142.309 224.954 141.593 225.567 140.75 225.567H140.627C139.681 225.567 138.914 224.804 138.914 223.86L138.911 221.198C138.911 220.165 139.819 219.369 140.846 219.502L141.381 219.572C142.336 219.696 143 220.583 142.851 221.531H142.85Z" fill="white"/>
<path d="M130.765 220.615L130.356 223.208C130.225 224.038 129.508 224.651 128.665 224.651H128.542C127.596 224.651 126.829 223.888 126.829 222.944L126.826 220.282C126.826 219.249 127.734 218.453 128.761 218.586L129.296 218.656C130.251 218.78 130.915 219.667 130.766 220.615H130.765Z" fill="white"/>
<path d="M115.876 220.517L115.467 223.111C115.336 223.941 114.619 224.553 113.777 224.553H113.653C112.707 224.553 111.94 223.79 111.94 222.846L111.938 220.184C111.938 219.152 112.847 218.355 113.872 218.488L114.407 218.558C115.362 218.683 116.026 219.569 115.877 220.517H115.876Z" fill="white"/>
<path d="M101.387 219.576L100.978 222.169C100.847 222.999 100.13 223.612 99.2878 223.612H99.1645C98.2185 223.612 97.4511 222.849 97.4511 221.905L97.4488 219.242C97.4488 218.21 98.3568 217.413 99.3834 217.547L99.9181 217.617C100.873 217.741 101.537 218.627 101.388 219.576H101.387Z" fill="white"/>
<path d="M86.5309 217.385L86.1218 219.979C85.9904 220.809 85.2737 221.422 84.4314 221.422H84.3081C83.3621 221.422 82.5947 220.658 82.5947 219.714L82.5924 217.052C82.5924 216.02 83.5015 215.223 84.527 215.356L85.0617 215.427C86.0169 215.551 86.6807 216.437 86.532 217.385H86.5309Z" fill="white"/>
<path d="M70.7446 217.399L70.3355 219.993C70.2042 220.823 69.4874 221.435 68.6451 221.435H68.5218C67.5758 221.435 66.8084 220.672 66.8084 219.728L66.8061 217.066C66.8061 216.033 67.7141 215.237 68.7408 215.37L69.2754 215.44C70.2307 215.564 70.8944 216.451 70.7446 217.399Z" fill="white"/>
<path d="M57.4322 216.85L57.0232 219.444C56.8918 220.274 56.1751 220.886 55.3328 220.886H55.2095C54.2635 220.886 53.496 220.123 53.496 219.179L53.4937 216.517C53.4937 215.485 54.4029 214.688 55.4284 214.821L55.9631 214.891C56.9183 215.016 57.582 215.902 57.4334 216.85H57.4322Z" fill="white"/>
<path d="M143.945 215.047C144.64 213.191 143.695 211.124 141.834 210.431C139.974 209.737 137.902 210.68 137.207 212.536C136.512 214.393 137.457 216.459 139.318 217.153C141.178 217.846 143.25 216.903 143.945 215.047Z" fill="url(#paint22_linear_398_17)"/>
<path d="M121.485 215.721C123.19 214.704 123.745 212.501 122.725 210.8C121.705 209.1 119.497 208.546 117.793 209.563C116.088 210.581 115.533 212.784 116.553 214.484C117.572 216.185 119.781 216.738 121.485 215.721Z" fill="url(#paint23_linear_398_17)"/>
<path d="M101.077 213.666C102.138 211.99 101.637 209.774 99.9578 208.716C98.2788 207.657 96.0575 208.157 94.9965 209.832C93.9355 211.507 94.4365 213.723 96.1155 214.782C97.7945 215.84 100.016 215.341 101.077 213.666Z" fill="url(#paint24_linear_398_17)"/>
<path d="M78.5243 212.108C79.7553 210.553 79.4897 208.297 77.931 207.069C76.3723 205.841 74.1108 206.106 72.8798 207.661C71.6488 209.216 71.9145 211.472 73.4732 212.7C75.0319 213.928 77.2933 213.663 78.5243 212.108Z" fill="url(#paint25_linear_398_17)"/>
<path d="M53.8798 211.912C55.8659 211.912 57.476 210.306 57.476 208.324C57.476 206.343 55.8659 204.736 53.8798 204.736C51.8936 204.736 50.2835 206.343 50.2835 208.324C50.2835 210.306 51.8936 211.912 53.8798 211.912Z" fill="url(#paint26_linear_398_17)"/>
<path d="M139.945 214.486H140.96C142.064 214.484 142.959 213.702 142.958 212.736L142.947 199.766C142.947 199.062 142.462 198.426 141.718 198.156L139.585 197.379C138.211 196.878 136.714 197.818 136.82 199.116L137.949 212.865C138.024 213.779 138.896 214.487 139.945 214.486Z" fill="url(#paint27_linear_398_17)"/>
<path d="M119.104 213.534H120.119C121.223 213.532 122.118 212.75 122.117 211.784L122.105 198.814C122.105 198.11 121.62 197.475 120.877 197.204L118.744 196.427C117.369 195.926 115.873 196.866 115.979 198.164L117.108 211.913C117.183 212.827 118.054 213.535 119.104 213.534Z" fill="url(#paint28_linear_398_17)"/>
<path d="M97.4073 212.908H98.4225C99.5263 212.906 100.422 212.123 100.421 211.158L100.409 198.188C100.409 197.484 99.9239 196.848 99.1807 196.578L97.0478 195.801C95.6731 195.3 94.1763 196.24 94.2823 197.538L95.4115 211.287C95.4864 212.201 96.3576 212.909 97.4073 212.908Z" fill="url(#paint29_linear_398_17)"/>
<path d="M75.0403 211.643H76.0555C77.1593 211.641 78.0547 210.859 78.0535 209.894L78.042 196.923C78.042 196.219 77.5569 195.584 76.8137 195.314L74.6808 194.536C73.3061 194.035 71.8093 194.976 71.9153 196.273L73.0445 210.022C73.1194 210.936 73.9906 211.644 75.0403 211.643Z" fill="url(#paint30_linear_398_17)"/>
<path d="M53.2287 210.205H54.2439C55.3478 210.203 56.2431 209.421 56.2419 208.455L56.2304 195.484C56.2304 194.781 55.7453 194.145 55.0021 193.875L52.8692 193.098C51.4945 192.597 49.9977 193.537 50.1037 194.835L51.2329 208.584C51.3078 209.498 52.179 210.206 53.2287 210.205Z" fill="url(#paint31_linear_398_17)"/>
<path d="M82.219 235.774C82.1199 235.799 82.0174 235.807 81.9137 235.8C81.6371 235.779 81.3825 235.638 81.2188 235.415L78.6746 231.959C78.3635 231.536 78.4545 230.941 78.8786 230.629C79.3026 230.318 79.8995 230.41 80.2117 230.833L82.0992 233.397L89.2503 226.283C89.6236 225.911 90.2274 225.912 90.5984 226.285C90.9706 226.657 90.9695 227.259 90.5961 227.63L82.6603 235.525C82.5371 235.647 82.385 235.733 82.2202 235.774H82.219Z" fill="url(#paint32_linear_398_17)"/>
<path d="M126.956 234.929C126.857 234.954 126.755 234.962 126.651 234.955C126.375 234.935 126.12 234.793 125.956 234.57L123.412 231.115C123.101 230.691 123.192 230.096 123.616 229.784C124.04 229.473 124.637 229.565 124.949 229.988L126.837 232.553L133.988 225.438C134.361 225.067 134.965 225.068 135.336 225.44C135.708 225.813 135.707 226.414 135.334 226.785L127.398 234.681C127.274 234.802 127.122 234.889 126.958 234.929H126.956Z" fill="url(#paint33_linear_398_17)"/>
<path d="M112.226 266.414C112.127 266.439 112.024 266.448 111.92 266.441C111.644 266.42 111.389 266.279 111.225 266.056L108.681 262.6C108.37 262.177 108.461 261.581 108.885 261.27C109.309 260.958 109.906 261.05 110.218 261.473L112.106 264.038L119.257 256.923C119.63 256.552 120.234 256.553 120.605 256.926C120.977 257.298 120.976 257.899 120.603 258.271L112.667 266.166C112.544 266.288 112.392 266.374 112.227 266.415L112.226 266.414Z" fill="url(#paint34_linear_398_17)"/>
<path d="M127.092 281.666C126.993 281.691 126.891 281.699 126.787 281.693C126.511 281.672 126.256 281.53 126.092 281.307L123.548 277.852C123.237 277.429 123.328 276.833 123.752 276.522C124.176 276.21 124.773 276.302 125.085 276.725L126.973 279.29L134.124 272.175C134.497 271.804 135.101 271.805 135.472 272.178C135.844 272.55 135.843 273.151 135.47 273.523L127.534 281.418C127.41 281.54 127.258 281.626 127.094 281.667L127.092 281.666Z" fill="url(#paint35_linear_398_17)"/>
<path d="M67.9468 282.253C67.8477 282.278 67.7452 282.286 67.6415 282.279C67.3649 282.259 67.1103 282.117 66.9467 281.894L64.4024 278.439C64.0913 278.016 64.1823 277.42 64.6064 277.109C65.0304 276.797 65.6273 276.889 65.9396 277.312L67.827 279.877L74.9781 272.762C75.3514 272.391 75.9552 272.392 76.3262 272.764C76.6984 273.137 76.6973 273.738 76.3239 274.109L68.3882 282.005C68.2649 282.127 68.1128 282.213 67.948 282.253H67.9468Z" fill="url(#paint36_linear_398_17)"/>
<path d="M67.8788 266.751C67.7798 266.776 67.6772 266.784 67.5735 266.778C67.2969 266.757 67.0423 266.615 66.8787 266.392L64.3344 262.937C64.0233 262.514 64.1143 261.918 64.5384 261.607C64.9624 261.295 65.5593 261.387 65.8716 261.81L67.759 264.375L74.9101 257.26C75.2834 256.889 75.8872 256.89 76.2583 257.262C76.6304 257.635 76.6293 258.236 76.256 258.608L68.3202 266.503C68.1969 266.625 68.0448 266.711 67.88 266.752L67.8788 266.751Z" fill="url(#paint37_linear_398_17)"/>
<path d="M88.1072 252.271C87.8249 252.342 87.5138 252.268 87.2925 252.048L79.0364 243.853C78.6999 243.519 78.6988 242.977 79.0329 242.642C79.3671 242.307 79.911 242.305 80.2463 242.639L88.5024 250.834C88.8389 251.168 88.84 251.71 88.5059 252.045C88.3918 252.158 88.2535 252.234 88.1072 252.271Z" fill="url(#paint38_linear_398_17)"/>
<path d="M79.8004 252.086C80.0861 252.142 80.3926 252.051 80.6024 251.818L88.3953 243.183C88.7121 242.831 88.6833 242.291 88.3319 241.974C87.9793 241.657 87.4377 241.686 87.1197 242.037L79.3268 250.672C79.0099 251.024 79.0387 251.564 79.3902 251.882C79.51 251.99 79.6529 252.058 79.8004 252.086Z" fill="url(#paint39_linear_398_17)"/>
<path d="M103.223 282.606C102.941 282.677 102.629 282.603 102.408 282.383L94.1521 274.188C93.8156 273.854 93.8145 273.312 94.1486 272.977C94.4828 272.642 95.0267 272.64 95.362 272.974L103.618 281.169C103.955 281.502 103.956 282.045 103.622 282.38C103.507 282.493 103.369 282.569 103.223 282.606Z" fill="url(#paint40_linear_398_17)"/>
<path d="M94.9161 282.421C95.2018 282.476 95.5083 282.386 95.7181 282.153L103.511 273.518C103.828 273.166 103.799 272.626 103.448 272.308C103.095 271.992 102.553 272.021 102.235 272.372L94.4425 281.007C94.1256 281.359 94.1544 281.899 94.5059 282.217C94.6257 282.325 94.7686 282.393 94.9161 282.421Z" fill="url(#paint41_linear_398_17)"/>
<path d="M139.055 295.509C139.055 295.509 128.337 283.51 130.079 272.166C131.821 260.822 140.52 262.175 144.391 268.884C148.261 275.592 151.741 274.671 149.441 268.364C147.141 262.058 144.259 257.953 149.024 251.676C153.789 245.398 154.283 242.731 151.606 237.129C148.929 231.527 145.567 223.591 156.22 220.758C166.873 217.926 177.485 226.627 175.001 238.014C172.517 249.402 171.024 250.643 174.447 254.861C177.868 259.079 176.442 260.813 175.957 263.558C175.472 266.303 180.7 266.947 180.588 263.079C180.477 259.211 173.827 250.084 178.366 245.826C182.904 241.568 191.8 241.522 194.078 251.368C196.356 261.214 189.056 265.639 189.421 269.2C189.784 272.762 193.705 267.362 197.119 270.991C200.533 274.622 195.937 277.472 192.553 279.441C189.169 281.407 184.068 284.933 188.922 287.494C193.776 290.055 198.372 287.605 195.399 295.51H139.054L139.055 295.509Z" fill="#91B3FA"/>
<path d="M161.092 228.969C161.442 229.135 161.749 229.343 162.048 229.565C162.347 229.788 162.621 230.035 162.877 230.298C163.393 230.821 163.83 231.41 164.184 232.035C164.897 233.289 165.278 234.685 165.405 236.082C165.427 236.256 165.434 236.431 165.443 236.607C165.45 236.782 165.462 236.958 165.458 237.132L165.454 237.658L165.425 238.182L165.409 238.444L165.381 238.705L165.322 239.227C165.263 239.571 165.221 239.919 165.148 240.26C165.077 240.603 165.007 240.946 164.915 241.282L164.784 241.79L164.648 242.281L164.1 244.243C163.376 246.856 162.677 249.467 162.129 252.093C161.595 254.716 161.225 257.37 161.308 259.991C161.328 260.645 161.376 261.297 161.471 261.94C161.562 262.584 161.687 263.222 161.873 263.843C162.055 264.464 162.28 265.073 162.567 265.656C162.885 266.316 163.132 267 163.327 267.678C163.694 269.039 163.91 270.401 164.075 271.756C164.235 273.113 164.36 274.465 164.459 275.813C164.666 278.51 164.845 281.198 165.281 283.849C165.337 284.18 165.394 284.511 165.465 284.839C165.526 285.169 165.606 285.495 165.682 285.822C165.753 286.15 165.854 286.471 165.938 286.796C165.985 286.957 166.04 287.117 166.09 287.277C166.142 287.437 166.191 287.599 166.254 287.755L166.434 288.229C166.494 288.386 166.57 288.538 166.638 288.693C166.768 289.006 166.938 289.301 167.094 289.604C167.442 290.191 167.85 290.752 168.349 291.252L168.227 291.359C167.674 290.883 167.203 290.335 166.793 289.753C166.401 289.162 166.06 288.544 165.784 287.906C165.212 286.631 164.837 285.301 164.529 283.966C163.914 281.293 163.621 278.586 163.289 275.904C163.12 274.563 162.971 273.223 162.764 271.899C162.559 270.575 162.302 269.263 161.919 268.005C161.717 267.38 161.49 266.779 161.198 266.202C160.862 265.552 160.6 264.879 160.385 264.197C160.169 263.515 160.018 262.822 159.905 262.128C159.788 261.433 159.723 260.737 159.688 260.041C159.558 257.256 159.946 254.514 160.468 251.825C161.002 249.134 161.722 246.489 162.527 243.875C162.731 243.222 162.935 242.569 163.146 241.919L163.305 241.432L163.452 240.957C163.555 240.642 163.632 240.322 163.718 240.003C163.808 239.684 163.864 239.363 163.94 239.042L164.024 238.558C164.054 238.397 164.08 238.235 164.098 238.074C164.199 237.427 164.224 236.777 164.231 236.128C164.233 235.478 164.173 234.829 164.048 234.19C163.921 233.551 163.747 232.918 163.486 232.309C163.352 232.006 163.208 231.706 163.038 231.417C162.875 231.124 162.686 230.841 162.483 230.567C162.071 230.025 161.585 229.507 161.006 229.097L161.094 228.966L161.092 228.969Z" fill="#BDD0FB"/>
<path d="M138.273 269.616C138.592 271.739 139.047 273.845 139.603 275.922C139.882 276.96 140.189 277.991 140.53 279.013C140.611 279.269 140.707 279.522 140.794 279.776C140.881 280.031 140.976 280.283 141.071 280.536C141.252 281.043 141.457 281.543 141.656 282.044C141.87 282.541 142.079 283.039 142.313 283.527C142.53 284.023 142.778 284.506 143.018 284.991C143.523 285.953 144.055 286.901 144.646 287.823C145.235 288.745 145.887 289.634 146.581 290.499C147.288 291.356 148.059 292.17 148.875 292.959L148.76 293.072C147.815 292.394 146.946 291.628 146.145 290.809C145.358 289.979 144.638 289.098 143.981 288.181C143.347 287.253 142.747 286.303 142.231 285.319C141.98 284.825 141.72 284.333 141.493 283.831C141.256 283.331 141.05 282.82 140.836 282.313C140.638 281.801 140.434 281.29 140.254 280.773C140.159 280.515 140.073 280.256 139.991 279.995C139.909 279.734 139.819 279.475 139.744 279.213C139.421 278.17 139.155 277.114 138.925 276.053C138.474 273.931 138.158 271.785 138.105 269.625L138.275 269.616H138.273Z" fill="#BDD0FB"/>
<path d="M193.633 183.526C193.633 183.526 188.151 207.567 210.32 221.355L215.604 218.64C215.604 218.64 197.352 202.941 195.993 185.358L204.06 183.018L207.119 178.091L193.632 183.526H193.633Z" fill="url(#paint42_linear_398_17)"/>
<path d="M176.842 153.65L217.675 158.858C219.017 159.03 219.939 160.291 219.693 161.617L215.368 185.077C215.123 186.406 213.892 187.195 212.549 187.015L168.855 181.169C167.512 180.99 166.533 179.905 166.647 178.559L168.143 160.934L176.842 153.648V153.65Z" fill="url(#paint43_linear_398_17)"/>
<path d="M174.056 161.533C175.392 161.664 176.567 160.658 176.639 159.321L176.945 153.741L168.132 160.958L174.056 161.533Z" fill="url(#paint44_linear_398_17)"/>
<path opacity="0.58" d="M177.912 162.411L210.865 166.82C211.818 166.947 212.522 167.564 212.436 168.199C212.351 168.834 211.509 169.244 210.556 169.116L177.603 164.708C176.65 164.58 175.946 163.963 176.031 163.328C176.116 162.694 176.959 162.283 177.912 162.411Z" fill="white"/>
<path opacity="0.58" d="M177 169.194L209.953 173.603C210.906 173.73 211.61 174.348 211.525 174.982C211.44 175.617 210.597 176.027 209.644 175.9L176.691 171.491C175.738 171.363 175.034 170.746 175.12 170.112C175.205 169.477 176.047 169.067 177 169.194Z" fill="white"/>
<path d="M220.47 270.827C220.47 270.827 231.632 295.099 237.489 305.152C237.489 305.152 238.652 311.478 237.489 313.467L236.498 313.906L241.125 313.768C241.125 313.768 241.536 305.259 241.215 304.784C240.893 304.31 240.251 304.341 240.251 304.341C240.251 304.341 238.267 288.66 232.522 285.314L226.954 266.182L220.469 270.826L220.47 270.827Z" fill="url(#paint45_linear_398_17)"/>
<path d="M234.522 315.098C234.515 315.21 238.135 315.159 240.101 315.123C240.827 315.109 241.446 314.601 241.601 313.893L243.086 306.11C243.226 305.371 242.756 304.652 242.02 304.484L241.192 304.296C241.192 304.296 240.009 305.915 240.381 307.438C240.754 308.961 241.084 312.907 240.144 313.367C239.204 313.827 236.498 313.907 236.498 313.907C236.498 313.907 234.584 314.097 234.522 315.1V315.098Z" fill="url(#paint46_linear_398_17)"/>
<path d="M209.89 315.239C209.523 315.448 209.674 316.005 210.096 316.001C213.387 315.967 220.759 315.864 221.415 315.592C222.261 315.242 221.106 312.209 219.892 311.183L213.185 313.367L209.89 315.239Z" fill="url(#paint47_linear_398_17)"/>
<path d="M207.808 269.278C207.808 269.278 215.021 304.093 217.062 310.884L212.235 313.906C212.235 313.906 214.653 313.496 216.447 313.366C218.242 313.236 219.892 311.182 219.892 311.182L219.313 310.262C219.313 310.262 217.504 275.637 217.944 271.705L207.808 269.278Z" fill="url(#paint48_linear_398_17)"/>
<path d="M189.901 188.073C189.901 188.073 188.905 206.183 205.434 215.437L201.455 224.491C201.455 224.491 186.491 215.462 187.046 190.836C187.062 190.129 186.806 189.443 186.344 188.908L183.164 185.227C181.953 183.825 181.5 181.922 181.949 180.127L182.367 178.458C182.508 177.899 183.145 177.63 183.645 177.92L183.978 178.113C185.037 178.727 185.876 179.657 186.375 180.772L187.936 184.254C188.519 185.555 189.864 186.345 191.287 186.222L192.253 186.139L189.902 188.075L189.901 188.073Z" fill="url(#paint49_linear_398_17)"/>
<path d="M204.858 214.081C207.623 214.845 216.99 217.304 222.838 217.204L219.247 237.418L219.533 240.715L207.827 240.663C207.827 240.663 204.532 233.028 201.932 229.222C201.181 228.123 201.74 226.811 202.166 225.55L201.582 225.161C200.987 224.766 200.729 224.023 200.95 223.346L203.801 214.645C203.949 214.206 204.412 213.959 204.859 214.083L204.858 214.081Z" fill="url(#paint50_linear_398_17)"/>
<path d="M206.889 238.937L207.12 240.935C207.12 240.935 203.811 250.819 208.774 273.904C208.774 273.904 219.522 276.942 228.355 269.674C228.355 269.674 225.864 247.885 225.183 246.87C221.793 241.814 219.534 240.715 219.534 240.715L219.433 238.533C219.433 238.533 209.985 240.237 206.89 238.938L206.889 238.937Z" fill="#7D97F4"/>
<path d="M211.472 215.709C211.43 215.655 213.916 208.225 213.916 208.225L217.475 208.546L218.866 216.976C218.866 216.976 213.288 218.099 211.472 215.709Z" fill="url(#paint51_linear_398_17)"/>
<path d="M216.623 196.506C216.385 196.653 209.016 199.692 210.6 207.324C210.693 207.774 210.995 208.157 211.417 208.344C212.497 208.826 214.826 209.649 217.61 209.368C221.47 208.977 223.999 202.255 223.892 200.3C223.785 198.344 218.974 195.044 216.623 196.505V196.506Z" fill="url(#paint52_linear_398_17)"/>
<path d="M216.623 196.506C216.623 196.506 221.473 200.72 219.9 203.523C218.327 206.324 218.865 206.045 218.865 206.045C218.865 206.045 220.967 206.101 219.337 207.501C217.708 208.903 216.715 208.006 216.621 209.63C216.528 211.256 198.929 240.507 209.414 247.828C219.898 255.15 233.978 253.059 237.873 242C241.768 230.942 229.111 218.913 229.56 209.425C229.763 205.14 227.954 200.675 225.321 197.348C224.095 195.799 222.553 194.041 220.732 193.19C219.85 192.779 218.797 192.586 217.938 193.166C217.218 193.652 216.26 195.648 216.621 196.507L216.623 196.506Z" fill="url(#paint53_linear_398_17)"/>
<path d="M224.394 249.68C224.342 249.68 224.299 249.639 224.298 249.587C224.296 249.535 224.338 249.49 224.391 249.489C229.093 249.321 234.234 245.521 235.85 241.017C237.599 236.147 235.427 231.065 233.51 226.582L233.188 225.827C232.386 223.938 231.503 222.049 230.649 220.223C230.073 218.989 229.477 217.714 228.912 216.451C228.89 216.403 228.912 216.346 228.96 216.324C229.008 216.304 229.065 216.324 229.087 216.373C229.651 217.635 230.247 218.909 230.823 220.141C231.678 221.969 232.561 223.86 233.364 225.752L233.687 226.507C235.617 231.023 237.804 236.141 236.029 241.082C234.388 245.652 229.17 249.51 224.396 249.68H224.392H224.394Z" fill="#BDD0FB"/>
<path d="M217.403 196.3C217.403 196.3 217.393 196.3 217.389 196.3C217.336 196.292 217.3 196.244 217.308 196.191C217.567 194.445 219.121 193.716 219.186 193.685C219.234 193.662 219.291 193.685 219.314 193.732C219.336 193.78 219.314 193.838 219.267 193.86C219.252 193.866 217.741 194.578 217.498 196.218C217.491 196.267 217.45 196.3 217.404 196.3H217.403Z" fill="#BDD0FB"/>
<defs>
<linearGradient id="paint0_linear_398_17" x1="343.863" y1="362.256" x2="122.878" y2="126.459" gradientUnits="userSpaceOnUse">
<stop stop-color="#DAE3FE"/>
<stop offset="1" stop-color="#E9EFFD"/>
</linearGradient>
<linearGradient id="paint1_linear_398_17" x1="194.578" y1="-38.4248" x2="119.91" y2="349.613" gradientUnits="userSpaceOnUse">
<stop stop-color="#4F52FF"/>
<stop offset="1" stop-color="#4042E2"/>
</linearGradient>
<linearGradient id="paint2_linear_398_17" x1="164.217" y1="107.275" x2="95.8667" y2="156.798" gradientUnits="userSpaceOnUse">
<stop stop-color="#FF928E"/>
<stop offset="1" stop-color="#FE7062"/>
</linearGradient>
<linearGradient id="paint3_linear_398_17" x1="280.262" y1="-22.3368" x2="122.738" y2="155.741" gradientUnits="userSpaceOnUse">
<stop stop-color="#E1473D"/>
<stop offset="1" stop-color="#E9605A"/>
</linearGradient>
<linearGradient id="paint4_linear_398_17" x1="222.778" y1="116.318" x2="155.924" y2="152.006" gradientUnits="userSpaceOnUse">
<stop stop-color="#FF928E"/>
<stop offset="1" stop-color="#FE7062"/>
</linearGradient>
<linearGradient id="paint5_linear_398_17" x1="315.371" y1="8.71949" x2="157.846" y2="186.798" gradientUnits="userSpaceOnUse">
<stop stop-color="#E1473D"/>
<stop offset="1" stop-color="#E9605A"/>
</linearGradient>
<linearGradient id="paint6_linear_398_17" x1="275.235" y1="117.952" x2="206.625" y2="166.708" gradientUnits="userSpaceOnUse">
<stop stop-color="#FF928E"/>
<stop offset="1" stop-color="#FE7062"/>
</linearGradient>
<linearGradient id="paint7_linear_398_17" x1="350.478" y1="39.7757" x2="192.953" y2="217.854" gradientUnits="userSpaceOnUse">
<stop stop-color="#E1473D"/>
<stop offset="1" stop-color="#E9605A"/>
</linearGradient>
<linearGradient id="paint8_linear_398_17" x1="85.1504" y1="105.421" x2="10.1157" y2="150.344" gradientUnits="userSpaceOnUse">
<stop stop-color="#FF928E"/>
<stop offset="1" stop-color="#FE7062"/>
</linearGradient>
<linearGradient id="paint9_linear_398_17" x1="232.623" y1="-64.4751" x2="75.0999" y2="113.602" gradientUnits="userSpaceOnUse">
<stop stop-color="#E1473D"/>
<stop offset="1" stop-color="#E9605A"/>
</linearGradient>
<linearGradient id="paint10_linear_398_17" x1="275.04" y1="158.06" x2="195.15" y2="209.392" gradientUnits="userSpaceOnUse">
<stop stop-color="#FF928E"/>
<stop offset="1" stop-color="#FE7062"/>
</linearGradient>
<linearGradient id="paint11_linear_398_17" x1="369.683" y1="56.763" x2="212.158" y2="234.842" gradientUnits="userSpaceOnUse">
<stop stop-color="#E1473D"/>
<stop offset="1" stop-color="#E9605A"/>
</linearGradient>
<linearGradient id="paint12_linear_398_17" x1="258.94" y1="207.19" x2="185.188" y2="251.854" gradientUnits="userSpaceOnUse">
<stop stop-color="#FF928E"/>
<stop offset="1" stop-color="#FE7062"/>
</linearGradient>
<linearGradient id="paint13_linear_398_17" x1="261.193" y1="214.083" x2="284.8" y2="192.636" gradientUnits="userSpaceOnUse">
<stop stop-color="#E1473D"/>
<stop offset="1" stop-color="#E9605A"/>
</linearGradient>
<linearGradient id="paint14_linear_398_17" x1="215.751" y1="96.8769" x2="165.706" y2="159.725" gradientUnits="userSpaceOnUse">
<stop stop-color="#E1473D"/>
<stop offset="1" stop-color="#E9605A"/>
</linearGradient>
<linearGradient id="paint15_linear_398_17" x1="69.1936" y1="283.303" x2="185.399" y2="142.027" gradientUnits="userSpaceOnUse">
<stop stop-color="#FF928E"/>
<stop offset="1" stop-color="#FE7062"/>
</linearGradient>
<linearGradient id="paint16_linear_398_17" x1="87.3409" y1="261.402" x2="217.736" y2="98.4081" gradientUnits="userSpaceOnUse">
<stop stop-color="#FEBBBA"/>
<stop offset="1" stop-color="#FF928E"/>
</linearGradient>
<linearGradient id="paint17_linear_398_17" x1="211.308" y1="86.1608" x2="117.738" y2="207.243" gradientUnits="userSpaceOnUse">
<stop stop-color="#FEBBBA"/>
<stop offset="1" stop-color="#FF928E"/>
</linearGradient>
<linearGradient id="paint18_linear_398_17" x1="235.378" y1="104.761" x2="141.808" y2="225.843" gradientUnits="userSpaceOnUse">
<stop stop-color="#FEBBBA"/>
<stop offset="1" stop-color="#FF928E"/>
</linearGradient>
<linearGradient id="paint19_linear_398_17" x1="206.618" y1="82.5355" x2="113.048" y2="203.617" gradientUnits="userSpaceOnUse">
<stop stop-color="#FEBBBA"/>
<stop offset="1" stop-color="#FF928E"/>
</linearGradient>
<linearGradient id="paint20_linear_398_17" x1="76.5058" y1="6.99908" x2="136.83" y2="233.203" gradientUnits="userSpaceOnUse">
<stop stop-color="#FEBBBA"/>
<stop offset="1" stop-color="#FF928E"/>
</linearGradient>
<linearGradient id="paint21_linear_398_17" x1="191.527" y1="70.8737" x2="97.9561" y2="191.956" gradientUnits="userSpaceOnUse">
<stop stop-color="#FEBBBA"/>
<stop offset="1" stop-color="#FF928E"/>
</linearGradient>
<linearGradient id="paint22_linear_398_17" x1="136.977" y1="213.793" x2="144.171" y2="213.793" gradientUnits="userSpaceOnUse">
<stop stop-color="#FF928E"/>
<stop offset="1" stop-color="#FE7062"/>
</linearGradient>
<linearGradient id="paint23_linear_398_17" x1="116.026" y1="212.651" x2="123.22" y2="212.651" gradientUnits="userSpaceOnUse">
<stop stop-color="#FF928E"/>
<stop offset="1" stop-color="#FE7062"/>
</linearGradient>
<linearGradient id="paint24_linear_398_17" x1="94.436" y1="211.75" x2="101.631" y2="211.75" gradientUnits="userSpaceOnUse">
<stop stop-color="#FF928E"/>
<stop offset="1" stop-color="#FE7062"/>
</linearGradient>
<linearGradient id="paint25_linear_398_17" x1="72.1127" y1="209.882" x2="79.3076" y2="209.882" gradientUnits="userSpaceOnUse">
<stop stop-color="#FF928E"/>
<stop offset="1" stop-color="#FE7062"/>
</linearGradient>
<linearGradient id="paint26_linear_398_17" x1="50.2823" y1="208.324" x2="57.476" y2="208.324" gradientUnits="userSpaceOnUse">
<stop stop-color="#FF928E"/>
<stop offset="1" stop-color="#FE7062"/>
</linearGradient>
<linearGradient id="paint27_linear_398_17" x1="151.194" y1="187.593" x2="123.979" y2="231.777" gradientUnits="userSpaceOnUse">
<stop stop-color="#FF928E"/>
<stop offset="1" stop-color="#FE7062"/>
</linearGradient>
<linearGradient id="paint28_linear_398_17" x1="138.696" y1="180.253" x2="101.496" y2="227.151" gradientUnits="userSpaceOnUse">
<stop stop-color="#FF928E"/>
<stop offset="1" stop-color="#FE7062"/>
</linearGradient>
<linearGradient id="paint29_linear_398_17" x1="113.69" y1="184.964" x2="82.6226" y2="221.872" gradientUnits="userSpaceOnUse">
<stop stop-color="#FF928E"/>
<stop offset="1" stop-color="#FE7062"/>
</linearGradient>
<linearGradient id="paint30_linear_398_17" x1="97.231" y1="178.536" x2="60.0198" y2="219.68" gradientUnits="userSpaceOnUse">
<stop stop-color="#FF928E"/>
<stop offset="1" stop-color="#FE7062"/>
</linearGradient>
<linearGradient id="paint31_linear_398_17" x1="69.8423" y1="183.209" x2="36.8504" y2="219.738" gradientUnits="userSpaceOnUse">
<stop stop-color="#FF928E"/>
<stop offset="1" stop-color="#FE7062"/>
</linearGradient>
<linearGradient id="paint32_linear_398_17" x1="106.198" y1="180.032" x2="91.6402" y2="213.441" gradientUnits="userSpaceOnUse">
<stop stop-color="#E1473D"/>
<stop offset="1" stop-color="#E9605A"/>
</linearGradient>
<linearGradient id="paint33_linear_398_17" x1="141.835" y1="186.325" x2="133.027" y2="216.265" gradientUnits="userSpaceOnUse">
<stop stop-color="#E1473D"/>
<stop offset="1" stop-color="#E9605A"/>
</linearGradient>
<linearGradient id="paint34_linear_398_17" x1="149.033" y1="188.173" x2="123.748" y2="241.169" gradientUnits="userSpaceOnUse">
<stop stop-color="#E1473D"/>
<stop offset="1" stop-color="#E9605A"/>
</linearGradient>
<linearGradient id="paint35_linear_398_17" x1="130.807" y1="280.873" x2="129.154" y2="273.064" gradientUnits="userSpaceOnUse">
<stop stop-color="#E1473D"/>
<stop offset="1" stop-color="#E9605A"/>
</linearGradient>
<linearGradient id="paint36_linear_398_17" x1="91.261" y1="224.344" x2="79.7697" y2="252.758" gradientUnits="userSpaceOnUse">
<stop stop-color="#E1473D"/>
<stop offset="1" stop-color="#E9605A"/>
</linearGradient>
<linearGradient id="paint37_linear_398_17" x1="89.1512" y1="214.898" x2="76.1263" y2="246.385" gradientUnits="userSpaceOnUse">
<stop stop-color="#E1473D"/>
<stop offset="1" stop-color="#E9605A"/>
</linearGradient>
<linearGradient id="paint38_linear_398_17" x1="84.9721" y1="252.93" x2="82.601" y2="241.738" gradientUnits="userSpaceOnUse">
<stop stop-color="#FF928E"/>
<stop offset="1" stop-color="#FE7062"/>
</linearGradient>
<linearGradient id="paint39_linear_398_17" x1="83.0185" y1="252.556" x2="84.7692" y2="241.251" gradientUnits="userSpaceOnUse">
<stop stop-color="#FF928E"/>
<stop offset="1" stop-color="#FE7062"/>
</linearGradient>
<linearGradient id="paint40_linear_398_17" x1="100.09" y1="283.265" x2="97.7198" y2="272.072" gradientUnits="userSpaceOnUse">
<stop stop-color="#E1473D"/>
<stop offset="1" stop-color="#E9605A"/>
</linearGradient>
<linearGradient id="paint41_linear_398_17" x1="98.1378" y1="282.892" x2="99.8885" y2="271.587" gradientUnits="userSpaceOnUse">
<stop stop-color="#E1473D"/>
<stop offset="1" stop-color="#E9605A"/>
</linearGradient>
<linearGradient id="paint42_linear_398_17" x1="191.235" y1="156.247" x2="209.872" y2="221.245" gradientUnits="userSpaceOnUse">
<stop stop-color="#FEBBBA"/>
<stop offset="1" stop-color="#FF928E"/>
</linearGradient>
<linearGradient id="paint43_linear_398_17" x1="245.007" y1="145.566" x2="149.456" y2="193.326" gradientUnits="userSpaceOnUse">
<stop stop-color="#FF928E"/>
<stop offset="1" stop-color="#FE7062"/>
</linearGradient>
<linearGradient id="paint44_linear_398_17" x1="104.641" y1="-39.2094" x2="168.982" y2="147.934" gradientUnits="userSpaceOnUse">
<stop stop-color="#E1473D"/>
<stop offset="1" stop-color="#E9605A"/>
</linearGradient>
<linearGradient id="paint45_linear_398_17" x1="220.469" y1="290.045" x2="241.337" y2="290.045" gradientUnits="userSpaceOnUse">
<stop stop-color="#FEBBBA"/>
<stop offset="1" stop-color="#FF928E"/>
</linearGradient>
<linearGradient id="paint46_linear_398_17" x1="249.152" y1="243.489" x2="238.865" y2="310.51" gradientUnits="userSpaceOnUse">
<stop stop-color="#4F52FF"/>
<stop offset="1" stop-color="#4042E2"/>
</linearGradient>
<linearGradient id="paint47_linear_398_17" x1="227.286" y1="240.133" x2="216.999" y2="307.154" gradientUnits="userSpaceOnUse">
<stop stop-color="#4F52FF"/>
<stop offset="1" stop-color="#4042E2"/>
</linearGradient>
<linearGradient id="paint48_linear_398_17" x1="207.808" y1="291.593" x2="219.89" y2="291.593" gradientUnits="userSpaceOnUse">
<stop stop-color="#FEBBBA"/>
<stop offset="1" stop-color="#FF928E"/>
</linearGradient>
<linearGradient id="paint49_linear_398_17" x1="198.869" y1="223.651" x2="188.148" y2="172.735" gradientUnits="userSpaceOnUse">
<stop stop-color="#FEBBBA"/>
<stop offset="1" stop-color="#FF928E"/>
</linearGradient>
<linearGradient id="paint50_linear_398_17" x1="309.418" y1="204.306" x2="217.138" y2="226.274" gradientUnits="userSpaceOnUse">
<stop stop-color="#E1473D"/>
<stop offset="1" stop-color="#E9605A"/>
</linearGradient>
<linearGradient id="paint51_linear_398_17" x1="211.471" y1="212.732" x2="218.865" y2="212.732" gradientUnits="userSpaceOnUse">
<stop stop-color="#FEBBBA"/>
<stop offset="1" stop-color="#FF928E"/>
</linearGradient>
<linearGradient id="paint52_linear_398_17" x1="223.223" y1="203.199" x2="277.045" y2="206.868" gradientUnits="userSpaceOnUse">
<stop stop-color="#FEBBBA"/>
<stop offset="1" stop-color="#FF928E"/>
</linearGradient>
<linearGradient id="paint53_linear_398_17" x1="206.898" y1="202.159" x2="235.752" y2="260.002" gradientUnits="userSpaceOnUse">
<stop stop-color="#09005D"/>
<stop offset="1" stop-color="#1A0F91"/>
</linearGradient>
</defs>
</svg>
