<svg width="1040" height="296" viewBox="0 0 1040 296" fill="none" xmlns="http://www.w3.org/2000/svg">
<path fill-rule="evenodd" clip-rule="evenodd" d="M0.0611033 0L595.329 0.121636L502.636 209.091L0 208.97V0H0.0611033ZM76.6235 147.605H91.7771V75.0491H132.044V147.605H147.32V61.3651H76.6235V147.605ZM181.293 147.605H196.814L205.857 126.805H246.735L255.595 147.605H271.665L233.476 60.7569H219.361L181.232 147.605H181.293ZM211.356 113.425L226.265 78.8198L241.297 113.425H211.356ZM305.7 147.605H320.975V119.933H338.084C357.149 119.933 372.852 109.776 372.852 90.3752C372.852 72.7988 360.02 61.3651 339.917 61.3651H305.7V147.605ZM320.975 106.249V75.1707H338.634C350 75.1707 357.332 80.5227 357.332 90.4968C357.332 99.8627 350.122 106.249 338.634 106.249H320.975ZM428.823 147.605H444.221V75.414H471.778V61.3651H401.326V75.414H428.762V147.605H428.823Z" fill="#494948"/>
<path fill-rule="evenodd" clip-rule="evenodd" d="M1039.06 0V208.97H519.561L612.194 0H1039H1039.06ZM659.304 147.605H674.58V122.669L688.023 108.864L717.719 147.605H736.111L698.472 98.4639L734.522 61.4259H715.825L674.519 104.728V61.4259H659.243V147.666L659.304 147.605ZM809.741 149.186C836.259 149.186 855.201 128.751 855.201 104.607C855.201 80.4619 836.504 59.8447 809.863 59.8447C783.222 59.8447 764.402 80.2794 764.402 104.607C764.402 128.934 783.1 149.186 809.741 149.186ZM809.863 135.259C792.754 135.259 780.472 121.331 780.472 104.546C780.472 87.76 792.509 73.7111 809.741 73.7111C826.972 73.7111 839.131 87.76 839.131 104.546C839.131 121.331 827.094 135.259 809.863 135.259ZM892.719 147.605H907.75V85.9355L934.819 126.379H935.369L962.804 85.6922V147.605H977.958V61.3651H961.766L935.369 102.174L908.972 61.3651H892.78V147.605H892.719Z" fill="#E31B0E"/>
<path d="M957.977 269.849L954.433 259.631C954.189 258.962 953.822 257.868 953.333 256.408C952.844 254.948 952.6 253.854 952.417 253.185C951.928 255.313 951.256 257.624 950.4 260.118L946.979 269.91H957.977V269.849ZM963.354 285.601L959.566 275.14H945.145L941.418 285.601H934.88L949.056 247.772H955.777L969.892 285.601H963.293H963.354ZM920.399 252.698C916.855 252.698 914.044 253.975 912.027 256.469C910.011 258.962 908.972 262.429 908.972 266.869C908.972 271.308 909.95 274.957 911.905 277.329C913.861 279.701 916.671 280.857 920.399 280.857C921.987 280.857 923.576 280.674 925.042 280.37C926.57 280.066 928.098 279.64 929.747 279.154V284.445C926.753 285.54 923.393 286.148 919.665 286.148C914.105 286.148 909.889 284.445 906.895 281.161C903.901 277.816 902.434 273.072 902.434 266.808C902.434 262.916 903.167 259.449 904.573 256.53C906.039 253.61 908.117 251.36 910.805 249.779C913.555 248.198 916.732 247.407 920.399 247.407C924.248 247.407 927.853 248.198 931.092 249.84L928.892 254.948C927.609 254.34 926.265 253.793 924.859 253.367C923.454 252.941 921.926 252.698 920.399 252.698ZM894.124 285.601H872.738V247.954H894.124V253.185H878.909V263.402H893.147V268.572H878.909V280.37H894.124V285.601ZM860.762 285.601H854.529V268.632H837.115V285.601H830.943V247.954H837.115V263.341H854.529V247.954H860.762V285.601ZM820.373 256.773C820.373 259.206 819.578 261.213 817.928 262.794C816.279 264.375 814.018 265.348 811.146 265.774V265.896C814.446 266.321 817.012 267.294 818.723 268.815C820.495 270.396 821.35 272.403 821.35 274.897C821.35 278.424 819.945 281.161 817.256 283.107C814.507 285.114 810.718 286.087 805.83 286.087C800.942 286.087 796.787 285.418 793.732 284.019V278.607C795.381 279.397 797.276 280.005 799.353 280.431C801.431 280.857 803.325 281.039 805.036 281.039C811.696 281.039 814.995 278.85 814.995 274.532C814.995 272.525 814.018 271.004 812.001 269.97C809.985 268.937 807.052 268.389 803.141 268.389H798.62V263.402H802.897C810.413 263.402 814.201 261.395 814.201 257.381C814.201 255.8 813.529 254.523 812.246 253.61C810.963 252.698 809.191 252.212 806.869 252.212C805.036 252.212 803.325 252.455 801.614 252.941C799.964 253.428 798.253 254.219 796.481 255.374L793.67 251.239C797.581 248.563 802.103 247.225 807.358 247.225C811.39 247.225 814.507 248.076 816.829 249.779C819.151 251.482 820.312 253.732 820.312 256.591M752.365 247.772H758.047V267.355C758.047 269.423 758.047 271.43 757.864 273.559C757.742 275.626 757.681 277.025 757.62 277.816H757.864L777.173 247.833H784.383V285.479H778.7V266.078C778.7 263.098 778.883 259.51 779.189 255.253H779.006L759.636 285.479H752.365V247.833V247.772ZM723.402 280.249H727.862C730.795 280.249 732.995 279.762 734.4 278.789C735.806 277.816 736.478 276.235 736.478 274.106C736.478 271.977 735.806 270.518 734.4 269.606C732.995 268.693 730.612 268.207 727.129 268.207H723.463V280.249H723.402ZM742.771 274.106C742.771 281.647 737.883 285.418 728.168 285.418H717.169V247.772H740.266V253.063H723.402V263.098H727.862C737.822 263.098 742.771 266.747 742.771 274.106ZM678.185 266.565C678.185 271.187 679.102 274.714 680.996 277.086C682.89 279.458 685.64 280.674 689.367 280.674C693.094 280.674 695.783 279.458 697.677 277.147C699.51 274.775 700.488 271.248 700.488 266.565C700.488 261.882 699.571 258.476 697.677 256.043C695.844 253.671 693.094 252.455 689.367 252.455C685.64 252.455 682.89 253.671 680.996 256.043C679.102 258.415 678.185 261.943 678.185 266.565ZM707.026 266.565C707.026 272.707 705.498 277.451 702.382 280.857C699.327 284.263 694.928 285.966 689.306 285.966C683.685 285.966 679.224 284.263 676.169 280.918C673.114 277.573 671.586 272.768 671.586 266.565C671.586 260.361 673.114 255.557 676.23 252.212C679.285 248.867 683.685 247.225 689.428 247.225C695.172 247.225 699.388 248.927 702.443 252.272C705.498 255.617 707.026 260.422 707.026 266.565ZM655.577 285.418H649.406V253.063H638.285V247.772H666.698V253.063H655.577V285.418ZM611.705 268.328V280.249H618.243C620.809 280.249 622.765 279.762 624.109 278.789C625.392 277.816 626.064 276.235 626.064 274.106C626.064 272.16 625.392 270.7 624.048 269.727C622.703 268.815 620.687 268.328 617.937 268.328H611.705ZM611.705 263.341H617.632C620.198 263.341 622.092 262.916 623.315 262.125C624.537 261.334 625.086 259.936 625.086 257.989C625.086 256.226 624.475 254.948 623.131 254.158C621.848 253.367 619.832 252.941 617.021 252.941H611.644V263.341H611.705ZM605.533 247.772H616.776C621.97 247.772 625.759 248.502 628.081 250.022C630.402 251.543 631.563 253.915 631.563 257.199C631.563 259.388 631.013 261.213 629.853 262.672C628.692 264.132 627.042 265.044 624.964 265.409V265.652C627.592 266.139 629.547 267.112 630.83 268.572C632.052 270.031 632.724 272.038 632.724 274.532C632.724 277.877 631.563 280.553 629.18 282.438C626.797 284.384 623.498 285.297 619.282 285.297H605.656V247.65L605.533 247.772ZM586.53 269.666L582.986 259.449C582.742 258.78 582.375 257.685 581.886 256.226C581.459 254.766 581.153 253.671 580.97 253.002C580.481 255.131 579.809 257.442 578.953 259.936L575.532 269.727H586.53V269.666ZM591.907 285.418L588.119 274.957H573.699L569.971 285.418H563.433L577.548 247.59H584.27L598.445 285.418H591.907ZM515.712 266.565C515.712 271.187 516.628 274.714 518.522 277.086C520.417 279.458 523.166 280.674 526.894 280.674C530.621 280.674 533.309 279.458 535.204 277.147C537.037 274.775 538.014 271.248 538.014 266.565C538.014 261.882 537.098 258.476 535.204 256.043C533.37 253.671 530.621 252.455 526.955 252.455C523.288 252.455 520.417 253.671 518.583 256.043C516.689 258.415 515.773 261.943 515.773 266.565M544.613 266.565C544.613 272.707 543.086 277.451 539.97 280.857C536.914 284.263 532.515 285.966 526.894 285.966C521.272 285.966 516.811 284.263 513.756 280.918C510.701 277.573 509.174 272.768 509.174 266.565C509.174 260.361 510.701 255.557 513.817 252.212C516.873 248.867 521.272 247.225 527.016 247.225C532.759 247.225 536.976 248.927 540.031 252.272C543.086 255.617 544.675 260.422 544.675 266.565M503.98 247.772V253.063H487.726V285.418H481.555V247.772H504.041H503.98ZM471.351 285.418H449.965V247.772H471.351V253.002H456.136V263.22H470.373V268.389H456.136V280.188H471.351V285.418ZM418.069 280.127H431.695V247.772H437.927V285.418H392.039V247.772H398.21V280.127H411.836V247.772H418.069V280.127ZM373.035 269.606L369.491 259.388C369.247 258.719 368.88 257.624 368.392 256.165C367.964 254.705 367.658 253.61 367.475 252.941C366.986 255.07 366.314 257.381 365.459 259.875L362.037 269.666H373.035V269.606ZM378.413 285.357L374.624 274.897H360.143L356.477 285.357H349.938L364.114 247.529H370.836L385.012 285.357H378.413ZM324.153 268.268V280.188H330.691C333.257 280.188 335.213 279.701 336.557 278.728C337.901 277.755 338.512 276.174 338.512 274.045C338.512 272.099 337.84 270.639 336.496 269.666C335.151 268.754 333.135 268.268 330.385 268.268H324.153ZM324.153 263.28H330.08C332.646 263.28 334.54 262.855 335.762 262.064C336.985 261.274 337.534 259.875 337.534 257.929C337.534 256.165 336.923 254.888 335.579 254.097C334.296 253.306 332.28 252.881 329.469 252.881H324.092V263.28H324.153ZM317.981 247.711H329.224C334.418 247.711 338.207 248.441 340.529 249.961C342.85 251.482 344.011 253.854 344.011 257.138C344.011 259.327 343.461 261.152 342.301 262.611C341.14 264.071 339.49 264.983 337.412 265.348V265.592C340.04 266.078 341.995 267.051 343.278 268.511C344.5 269.97 345.172 271.977 345.172 274.471C345.172 277.816 344.011 280.492 341.628 282.377C339.245 284.323 335.946 285.236 331.73 285.236H318.043V247.59L317.981 247.711ZM286.024 252.881H281.136C278.509 252.881 276.553 253.367 275.148 254.219C273.743 255.131 273.071 256.651 273.071 258.719C273.071 260.787 273.743 262.307 275.087 263.463C276.431 264.618 278.509 265.166 281.319 265.166H286.024V252.881ZM279.731 270.275L270.382 285.357H263.355L273.987 268.876C269.16 267.173 266.716 263.706 266.716 258.354C266.716 254.888 267.938 252.272 270.321 250.448C272.704 248.623 276.248 247.711 280.892 247.711H292.257V285.357H286.024V270.275H279.731ZM255.778 285.357H249.607V253.002H238.853C237.508 264.01 236.409 271.491 235.614 275.444C234.759 279.397 233.659 282.134 232.131 283.715C230.665 285.236 228.648 286.026 226.265 285.966C224.982 285.966 223.821 285.783 222.66 285.297V280.188C223.638 280.614 224.616 280.796 225.532 280.796C226.754 280.796 227.732 280.066 228.404 278.607C229.076 277.147 229.871 273.863 230.726 268.754C231.581 263.645 232.559 256.651 233.72 247.711H255.778V285.357ZM200.052 253.063C199.685 256.955 198.708 261.456 197.18 266.625C195.653 271.795 193.881 276.235 191.864 280.127H208.24V253.063H200.052ZM182.393 280.127H185.326C187.831 275.566 189.909 270.457 191.62 264.801C193.331 259.145 194.369 253.489 194.858 247.772H214.35V280.127H219.239V295.757H213.312V285.357H188.32V295.757H182.393V280.127ZM163.146 285.418H141.76V247.772H163.146V253.002H147.931V263.22H162.168V268.389H147.931V280.188H163.146V285.418ZM122.268 252.516C118.724 252.516 115.913 253.793 113.896 256.286C111.88 258.78 110.841 262.247 110.841 266.686C110.841 271.126 111.819 274.775 113.774 277.147C115.73 279.519 118.54 280.674 122.268 280.674C123.856 280.674 125.445 280.492 126.911 280.188C128.439 279.884 129.967 279.458 131.616 278.971V284.263C128.622 285.357 125.323 285.966 121.534 285.966C115.974 285.966 111.758 284.263 108.764 280.978C105.77 277.633 104.303 272.89 104.303 266.625C104.303 262.733 105.037 259.267 106.442 256.347C107.908 253.428 109.986 251.178 112.674 249.596C115.424 248.015 118.601 247.225 122.268 247.225C126.117 247.225 129.722 248.015 132.961 249.657L130.761 254.766C129.478 254.158 128.134 253.61 126.728 253.185C125.323 252.759 123.795 252.516 122.207 252.516M75.2792 268.328V280.249H81.8173C84.3836 280.249 86.3389 279.762 87.6832 278.789C88.9664 277.816 89.6385 276.235 89.6385 274.106C89.6385 272.16 88.9664 270.7 87.6221 269.727C86.2778 268.815 84.2614 268.328 81.5118 268.328H75.2792ZM75.2792 263.341H81.2062C83.7726 263.341 85.6668 262.916 86.8888 262.125C88.0498 261.334 88.6608 259.936 88.6608 257.989C88.6608 256.226 88.0498 254.948 86.7666 254.158C85.4835 253.367 83.4671 252.941 80.6563 252.941H75.2792V263.341ZM69.1078 247.772H80.3508C85.5446 247.772 89.333 248.502 91.6549 250.022C93.9768 251.543 95.1378 253.915 95.1378 257.199C95.1378 259.388 94.5879 261.213 93.4269 262.672C92.2659 264.132 90.6161 265.044 88.5386 265.409V265.652C91.1661 266.139 93.1214 267.112 94.4045 268.572C95.6266 270.031 96.2987 272.038 96.2987 274.532C96.2987 277.877 95.1378 280.553 92.7548 282.438C90.3717 284.384 87.0722 285.297 82.856 285.297H69.23V247.65L69.1078 247.772Z" fill="#494948"/>
</svg>
