<svg width="312" height="311" viewBox="0 0 312 311" fill="none" xmlns="http://www.w3.org/2000/svg">
<path d="M274.122 265.671C266.031 274.012 258.791 278.914 253.248 282.616C199.188 318.712 137.392 308.308 118.286 304.752C87.461 299.015 61.4404 294.968 39.0842 274.77C-11.7159 228.873 -9.24592 133.13 29.5717 73.8223C34.1743 66.7899 72.9341 9.33699 134.864 1.24153C136.379 1.0434 137.509 0.930981 138.499 0.826351C148.079 -0.187668 207.448 -5.5416 255.856 35.0158C262.785 40.8217 273.937 51.2924 284.279 67.2641C322.09 125.661 322.21 216.106 274.123 265.672L274.122 265.671Z" fill="url(#paint0_linear_346_129)"/>
<path d="M7.40692 140.914C11.0333 163.83 36.3037 295.906 135.516 283.536C135.516 283.536 136.028 190.331 9.37374 138.549C8.2651 138.096 7.17094 139.418 7.40803 140.915L7.40692 140.914Z" fill="#91B3FA"/>
<g style="mix-blend-mode:soft-light">
<path d="M21.5052 155.741C21.5052 155.741 22.6283 158.069 24.7265 162.093C25.7773 164.102 27.0684 166.536 28.5878 169.306C30.1038 172.077 31.8447 175.188 33.7915 178.554C35.7316 181.924 37.8887 185.542 40.2128 189.343C42.5559 193.132 45.0458 197.116 47.7295 201.167C50.3842 205.236 53.2359 209.368 56.1778 213.533C57.6571 215.609 59.1809 217.679 60.7036 219.761C62.2708 221.809 63.8024 223.898 65.4097 225.927C67.0226 227.952 68.5953 230.009 70.2583 231.979C71.0797 232.972 71.899 233.964 72.716 234.952C73.5385 235.936 74.3901 236.89 75.2204 237.854C76.0586 238.812 76.88 239.778 77.7215 240.718C78.5741 241.647 79.4212 242.572 80.2649 243.493C81.9279 245.354 83.6676 247.098 85.3528 248.838C88.7444 252.297 92.1604 255.498 95.4874 258.43C96.3011 259.185 97.1515 259.872 97.9807 260.557C98.81 261.243 99.627 261.919 100.43 262.583C101.221 263.262 102.041 263.875 102.845 264.478C103.646 265.083 104.433 265.676 105.204 266.259C105.589 266.549 105.97 266.837 106.347 267.122C106.728 267.401 107.121 267.653 107.501 267.916C108.265 268.435 109.009 268.942 109.736 269.436C110.466 269.924 111.162 270.426 111.868 270.867C112.58 271.295 113.272 271.712 113.942 272.114C114.612 272.517 115.261 272.908 115.887 273.285C116.2 273.475 116.507 273.659 116.809 273.841C117.12 274.003 117.426 274.164 117.726 274.32C118.925 274.944 120.025 275.517 121.02 276.035C122.002 276.58 122.928 276.959 123.725 277.306C124.522 277.653 125.2 277.949 125.749 278.189C126.847 278.668 127.433 278.924 127.433 278.924L127.514 278.96C128.122 279.225 128.4 279.933 128.134 280.541C127.869 281.148 127.161 281.425 126.554 281.161L126.546 281.157C126.546 281.157 125.945 280.889 124.816 280.387C124.253 280.135 123.557 279.825 122.74 279.461C121.923 279.096 120.974 278.696 119.971 278.131C118.956 277.591 117.831 276.994 116.607 276.344C116.302 276.181 115.989 276.015 115.672 275.844C115.365 275.656 115.052 275.465 114.734 275.269C114.097 274.878 113.437 274.474 112.756 274.056C112.075 273.638 111.371 273.206 110.648 272.762C109.932 272.307 109.227 271.791 108.487 271.287C107.751 270.778 106.996 270.256 106.223 269.72C105.839 269.45 105.442 269.188 105.055 268.902C104.675 268.609 104.29 268.314 103.9 268.015C103.122 267.417 102.328 266.807 101.518 266.185C100.707 265.566 99.8797 264.936 99.0827 264.242C98.2746 263.562 97.452 262.869 96.6172 262.167C95.7824 261.465 94.9264 260.761 94.1094 259.991C90.7668 256.995 87.3408 253.731 83.947 250.211C82.2607 248.441 80.5209 246.667 78.8602 244.778C78.0187 243.844 77.1716 242.905 76.3213 241.961C75.4809 241.007 74.6628 240.028 73.8268 239.056C72.9987 238.078 72.1494 237.11 71.3302 236.113C70.5165 235.111 69.6995 234.107 68.8825 233.101C67.2262 231.105 65.6613 229.025 64.0573 226.975C62.4578 224.921 60.9373 222.809 59.379 220.738C57.8674 218.633 56.3536 216.543 54.8855 214.445C51.9659 210.238 49.1386 206.066 46.5095 201.961C43.8515 197.875 41.386 193.858 39.0686 190.039C36.769 186.208 34.6374 182.561 32.7207 179.168C25.0293 165.599 20.5892 156.181 20.5892 156.181C20.4678 155.928 20.5758 155.624 20.8296 155.502C21.0823 155.382 21.385 155.49 21.5063 155.741H21.5052Z" fill="white"/>
</g>
<path d="M64.5593 1.42595C65.2004 -0.836951 67.2975 -0.113446 68.9449 1.56397C159.152 93.4078 179.817 247.06 148.515 286.488C148.515 286.488 -5.25996 247.929 64.5593 1.42595Z" fill="#BDD0FB"/>
<g style="mix-blend-mode:soft-light">
<path d="M67.5635 32.8979C67.5635 32.8979 67.5791 33.1328 67.6103 33.5869C67.6592 34.0355 67.7149 34.6822 67.8206 35.5637C68.0099 37.3157 68.3505 39.8814 68.7812 43.1449C69.2309 46.4074 69.7875 50.3666 70.5043 54.898C71.1966 59.4327 72.0815 64.5317 73.0321 70.0949C74.0261 75.6514 75.118 81.6687 76.4047 88.0066C77.6536 94.3523 79.1184 101.014 80.6467 107.9C82.2228 114.775 83.8858 121.873 85.7524 129.04C86.2166 130.833 86.6818 132.632 87.1493 134.437C87.6413 136.235 88.1344 138.039 88.6286 139.845C89.5925 143.466 90.6711 147.069 91.7119 150.683C92.7481 154.299 93.9124 157.876 94.9832 161.466C96.1174 165.035 97.2617 168.587 98.416 172.103C99.6326 175.599 100.778 179.088 102.02 182.496C102.643 184.199 103.263 185.892 103.878 187.573C104.185 188.413 104.492 189.25 104.797 190.085C105.119 190.913 105.44 191.738 105.759 192.559C106.4 194.199 107.037 195.828 107.667 197.439C107.983 198.245 108.299 199.047 108.612 199.845C108.942 200.635 109.272 201.422 109.599 202.203C110.934 205.321 112.119 208.424 113.472 211.359C114.127 212.834 114.774 214.29 115.411 215.725C115.729 216.442 116.045 217.154 116.359 217.86C116.691 218.558 117.019 219.249 117.345 219.936C118.667 222.672 119.894 225.342 121.165 227.858C122.457 230.363 123.695 232.764 124.874 235.048C126.083 237.316 127.289 239.434 128.391 241.442C128.948 242.442 129.487 243.412 130.007 244.347C130.56 245.264 131.092 246.148 131.603 246.996C132.625 248.695 133.565 250.255 134.413 251.664C135.258 253.077 136.109 254.275 136.794 255.354C137.493 256.424 138.087 257.334 138.569 258.072C139.533 259.549 140.048 260.336 140.048 260.336L140.054 260.346C140.141 260.479 140.103 260.657 139.971 260.744C139.84 260.83 139.666 260.794 139.578 260.667C139.578 260.667 139.042 259.891 138.037 258.436C137.047 256.973 135.526 254.869 133.721 252.105C132.843 250.708 131.87 249.161 130.811 247.476C130.281 246.633 129.73 245.756 129.158 244.847C128.618 243.918 128.058 242.957 127.481 241.963C126.34 239.967 125.078 237.868 123.833 235.608C122.624 233.33 121.352 230.933 120.025 228.433C118.72 225.922 117.457 223.257 116.097 220.526C115.761 219.841 115.423 219.15 115.082 218.453C114.759 217.749 114.433 217.037 114.105 216.322C113.449 214.889 112.783 213.436 112.107 211.961C109.425 206.056 106.802 199.736 104.236 193.143C103.912 192.319 103.588 191.493 103.261 190.664C102.952 189.828 102.641 188.989 102.328 188.147C101.704 186.463 101.076 184.767 100.444 183.06C99.184 179.645 98.0208 176.148 96.7875 172.646C95.6154 169.123 94.4534 165.564 93.3025 161.988C92.7537 160.191 92.2038 158.391 91.654 156.589C91.1063 154.787 90.5498 152.985 90.0422 151.169C89.0104 147.541 87.9418 143.924 86.9868 140.29C86.4971 138.477 86.0084 136.667 85.5209 134.863C85.059 133.052 84.5981 131.247 84.1384 129.448C82.2918 122.257 80.6489 115.138 79.0917 108.243C77.598 101.332 76.22 94.6395 75.0256 88.2705C73.8012 81.9081 72.7683 75.8696 71.8277 70.2942C70.0034 59.1333 68.7712 49.7889 67.9876 43.2396C67.6058 39.9626 67.3387 37.3847 67.1828 35.6227C67.0971 34.749 67.0515 34.0455 67.0136 33.5858C66.9936 33.1294 66.9825 32.8934 66.9825 32.8934C66.9758 32.7354 67.0982 32.6018 67.2563 32.594C67.4121 32.5873 67.5446 32.7053 67.5557 32.8612L67.5579 32.8934L67.5635 32.8979Z" fill="white"/>
</g>
<path d="M303.773 149.634C300.068 171.514 274.53 297.572 179.772 284.713C179.772 284.713 180.248 195.565 301.918 147.351C302.982 146.93 304.016 148.204 303.773 149.633V149.634Z" fill="#91B3FA"/>
<g style="mix-blend-mode:soft-light">
<path d="M290.136 163.669C290.136 163.669 289.038 165.885 286.99 169.711C285.964 171.622 284.705 173.937 283.222 176.57C281.743 179.205 280.047 182.162 278.15 185.361C276.259 188.564 274.16 192.003 271.897 195.613C269.617 199.212 267.194 202.997 264.585 206.843C262.004 210.707 259.233 214.63 256.377 218.582C254.94 220.553 253.462 222.516 251.984 224.492C250.463 226.434 248.977 228.416 247.419 230.341C245.856 232.261 244.329 234.211 242.718 236.078C241.922 237.019 241.129 237.959 240.336 238.895C239.539 239.828 238.716 240.73 237.911 241.644C237.099 242.551 236.304 243.468 235.489 244.358C234.664 245.238 233.844 246.114 233.028 246.985C231.418 248.747 229.736 250.398 228.106 252.044C224.827 255.317 221.525 258.344 218.314 261.113C217.528 261.827 216.708 262.475 215.907 263.122C215.107 263.77 214.319 264.408 213.544 265.035C212.78 265.676 211.989 266.253 211.215 266.821C210.441 267.392 209.683 267.952 208.941 268.501C208.569 268.775 208.202 269.046 207.839 269.314C207.47 269.576 207.093 269.814 206.727 270.061C205.991 270.55 205.273 271.028 204.573 271.493C203.869 271.951 203.198 272.424 202.519 272.838C201.834 273.241 201.168 273.632 200.522 274.011C199.877 274.389 199.252 274.756 198.65 275.11C198.349 275.287 198.054 275.461 197.763 275.632C197.464 275.785 197.17 275.934 196.882 276.081C195.728 276.665 194.67 277.203 193.713 277.687C192.768 278.198 191.878 278.551 191.112 278.875C190.347 279.199 189.695 279.475 189.168 279.697C188.113 280.145 187.549 280.383 187.549 280.383L187.472 280.416C186.887 280.663 186.614 281.338 186.862 281.921C187.109 282.506 187.783 282.778 188.368 282.531L188.375 282.528C188.375 282.528 188.953 282.277 190.037 281.809C190.579 281.574 191.247 281.285 192.033 280.945C192.819 280.604 193.73 280.233 194.694 279.702C195.672 279.196 196.752 278.637 197.93 278.028C198.224 277.875 198.523 277.718 198.829 277.56C199.124 277.383 199.426 277.203 199.732 277.02C200.345 276.653 200.98 276.273 201.637 275.881C202.292 275.488 202.969 275.082 203.667 274.665C204.356 274.237 205.035 273.75 205.748 273.276C206.457 272.796 207.185 272.304 207.93 271.8C208.301 271.545 208.684 271.299 209.055 271.03C209.423 270.754 209.794 270.475 210.169 270.194C210.92 269.629 211.686 269.055 212.467 268.469C213.249 267.884 214.047 267.291 214.817 266.635C215.597 265.993 216.391 265.34 217.196 264.676C218.002 264.013 218.828 263.349 219.617 262.621C222.845 259.791 226.156 256.704 229.438 253.373C231.069 251.698 232.752 250.018 234.359 248.229C235.174 247.346 235.993 246.455 236.817 245.561C237.63 244.659 238.423 243.729 239.232 242.809C240.035 241.881 240.857 240.965 241.651 240.02C242.44 239.071 243.23 238.119 244.024 237.165C245.629 235.273 247.147 233.3 248.702 231.356C250.253 229.408 251.73 227.405 253.241 225.44C254.71 223.443 256.178 221.459 257.605 219.467C260.441 215.473 263.188 211.514 265.745 207.615C268.329 203.734 270.729 199.918 272.985 196.29C275.224 192.65 277.301 189.184 279.17 185.958C286.666 173.061 291.01 164.099 291.01 164.099C291.128 163.858 291.028 163.566 290.788 163.448C290.547 163.33 290.257 163.43 290.138 163.669H290.136Z" fill="white"/>
</g>
<path d="M245.186 7.44985C244.608 5.17026 242.492 5.83477 240.798 7.46655C148.077 96.7737 123.16 249.793 153.357 290.073C153.357 290.073 308.142 255.794 245.186 7.44985Z" fill="#BDD0FB"/>
<g style="mix-blend-mode:soft-light">
<path d="M241.31 38.8273C241.31 38.8273 241.288 39.061 241.245 39.514C241.183 39.9615 241.11 40.606 240.98 41.4842C240.741 43.2295 240.331 45.7851 239.81 49.0353C239.27 52.2833 238.603 56.227 237.762 60.7361C236.944 65.2496 235.918 70.3219 234.813 75.8573C233.666 81.3838 232.407 87.3688 230.945 93.6689C229.522 99.9778 227.871 106.596 226.152 113.437C224.386 120.267 222.527 127.315 220.462 134.428C219.949 136.206 219.434 137.993 218.916 139.784C218.374 141.568 217.831 143.357 217.287 145.149C216.222 148.742 215.045 152.314 213.904 155.898C212.767 159.483 211.505 163.027 210.335 166.585C209.103 170.121 207.861 173.641 206.609 177.123C205.296 180.584 204.053 184.04 202.717 187.413C202.047 189.098 201.381 190.773 200.719 192.436C200.389 193.268 200.059 194.096 199.731 194.922C199.386 195.74 199.043 196.556 198.701 197.368C198.015 198.991 197.333 200.601 196.659 202.194C196.321 202.991 195.983 203.784 195.647 204.572C195.294 205.353 194.944 206.13 194.595 206.903C193.175 209.983 191.903 213.052 190.47 215.947C189.774 217.404 189.088 218.842 188.411 220.258C188.073 220.966 187.738 221.668 187.404 222.366C187.053 223.054 186.705 223.736 186.36 224.414C184.962 227.112 183.661 229.748 182.321 232.227C180.96 234.695 179.655 237.062 178.415 239.311C177.144 241.544 175.88 243.628 174.722 245.605C174.138 246.59 173.572 247.544 173.026 248.464C172.448 249.366 171.892 250.234 171.357 251.069C170.288 252.739 169.305 254.272 168.418 255.657C167.534 257.045 166.649 258.219 165.936 259.279C165.208 260.33 164.588 261.222 164.086 261.947C163.081 263.396 162.545 264.169 162.545 264.169L162.538 264.179C162.448 264.309 162.481 264.488 162.611 264.578C162.739 264.667 162.915 264.637 163.006 264.512C163.006 264.512 163.562 263.751 164.608 262.325C165.638 260.89 167.217 258.829 169.098 256.117C170.015 254.744 171.03 253.225 172.135 251.571C172.689 250.744 173.263 249.882 173.86 248.989C174.425 248.076 175.012 247.13 175.616 246.152C176.813 244.189 178.132 242.126 179.438 239.902C180.711 237.658 182.047 235.298 183.443 232.835C184.818 230.361 186.154 227.733 187.588 225.039C187.943 224.364 188.301 223.683 188.66 222.996C189.003 222.3 189.348 221.599 189.695 220.892C190.391 219.478 191.097 218.044 191.814 216.589C194.659 210.76 197.456 204.516 200.203 197.997C200.549 197.183 200.896 196.366 201.246 195.546C201.579 194.719 201.913 193.889 202.248 193.056C202.918 191.39 203.593 189.711 204.272 188.023C205.626 184.643 206.886 181.182 208.216 177.714C209.486 174.225 210.745 170.7 211.995 167.157C212.594 165.376 213.193 163.592 213.793 161.806C214.39 160.02 214.997 158.233 215.554 156.432C216.686 152.835 217.854 149.248 218.909 145.643C219.449 143.844 219.988 142.049 220.525 140.259C221.037 138.462 221.547 136.67 222.056 134.885C224.102 127.748 225.942 120.678 227.688 113.828C229.374 106.962 230.936 100.31 232.307 93.9772C233.707 87.6515 234.908 81.6442 236.001 76.0966C238.134 64.9903 239.625 55.6838 240.589 49.1589C241.061 45.8942 241.4 43.3252 241.605 41.5677C241.715 40.6972 241.78 39.9949 241.831 39.5363C241.865 39.081 241.881 38.8451 241.881 38.8451C241.892 38.687 241.774 38.5501 241.616 38.5379C241.461 38.5267 241.325 38.6414 241.31 38.7961L241.307 38.8284L241.31 38.8273Z" fill="white"/>
</g>
<path d="M66.0653 75.3822C66.0653 75.3822 60.8293 77.929 59.8665 80.8542C59.094 83.2017 53.3049 83.5044 52.7328 88.1204C52.4378 90.5046 50.6736 92.4135 48.2994 92.7764C42.3867 93.6824 33.2739 96.7534 31.8157 107.019C30.7026 114.856 34.6975 117.827 38.8905 118.856C41.9693 119.612 44.0162 122.606 43.3929 125.715C42.7952 128.697 43.6867 132.144 48.8526 134.869C60.4286 140.977 71.9891 120.398 71.9891 120.398L74.3578 84.465L66.0653 75.3789V75.3822Z" fill="url(#paint1_linear_346_129)"/>
<path d="M18.4843 300.687L17.7352 306.844C17.5928 308.013 16.6733 308.936 15.5046 309.069C13.53 309.295 10.3622 309.526 7.26334 309.199C5.90315 309.055 5.01936 307.677 5.43454 306.373C6.19033 303.996 7.57277 300.427 9.56519 298.328H16.3962C17.6595 298.328 18.6379 299.433 18.4854 300.687H18.4843Z" fill="url(#paint2_linear_346_129)"/>
<path d="M71.988 228.55L73.1412 235.332C73.1412 235.332 69.2799 274.442 68.5931 290.087C68.4851 292.54 69.1196 294.963 70.4074 297.054L77.1215 307.956L60.058 297.887L59.7185 295.805L62.5112 291.965L58.8525 248.151C58.6377 245.578 59.1686 242.997 60.3819 240.716L63.9115 234.085L71.988 228.549V228.55Z" fill="url(#paint3_linear_346_129)"/>
<path d="M78.2458 309.536H72.8006C71.781 309.536 70.8204 309.069 70.1982 308.261C68.5007 306.055 64.9834 301.751 63.3015 301.639C61.0375 301.488 61.3269 309.536 61.3269 309.536H60.058L58.4507 299.535C58.0467 297.019 59.2978 294.526 61.5573 293.348C61.5573 293.348 62.0749 297.174 64.881 298.867C67.6871 300.56 76.3001 306.623 76.3001 306.623C76.3001 306.623 77.3553 306.473 78.5129 306.682C80.2315 306.993 79.9911 309.537 78.2447 309.537L78.2458 309.536Z" fill="url(#paint4_linear_346_129)"/>
<path d="M48.6177 231.772C48.6177 231.772 25.9977 274.68 22.4024 284.476C18.8071 294.273 17.5471 302.446 17.4993 303.22C17.4236 304.428 15.9198 305.588 11.7736 305.588C9.63422 305.588 8.58569 304.73 8.07256 303.901C7.63512 303.193 7.61175 302.307 7.98129 301.56C9.29028 298.912 13.4421 290.449 14.9804 286.611C16.8169 282.029 20.7662 261.261 22.9322 254.04C25.0983 246.82 27.5471 238.987 36.9793 231.772C36.9793 231.772 43.4541 225.43 48.6188 231.772H48.6177Z" fill="url(#paint5_linear_346_129)"/>
<path d="M62.9064 161.464C68.7412 136.739 53.9594 122.755 53.9594 122.755C63.2859 113.802 80.2794 109.729 80.2794 109.729C80.2794 109.729 96.4948 121.584 94.5714 130.863C93.4438 136.301 83.1734 163.438 83.1734 163.438C83.1734 163.438 73.6766 167.933 62.9053 161.464H62.9064Z" fill="url(#paint6_linear_346_129)"/>
<path d="M49.9701 173.705C52.3443 166.552 62.9075 161.465 62.9075 161.465C73.6777 167.934 83.1756 163.439 83.1756 163.439C83.1756 163.439 85.3049 171.581 83.8357 179.146C82.3653 186.712 73.1434 235.334 73.1434 235.334C58.611 238.278 36.2614 232.372 36.2614 232.372C45.5178 215.938 47.597 180.86 49.9712 173.707L49.9701 173.705Z" fill="url(#paint7_linear_346_129)"/>
<path d="M69.6795 93.3898L64.9355 114.699C64.4814 116.575 66.1922 116.268 68.09 115.911C71.1978 115.325 75.2026 114.119 76.5417 111.7C76.6775 111.454 76.7465 111.176 76.7843 110.896L78.8224 96.1202C78.9838 94.9481 78.3504 93.8105 77.2685 93.3308L73.336 91.5866C71.8222 90.9154 70.0691 91.7791 69.6795 93.3887V93.3898Z" fill="url(#paint8_linear_346_129)"/>
<path d="M53.9605 122.756C53.9605 122.756 20.8507 146.445 49.7263 171.336C49.7263 171.336 50.8272 172.582 52.9932 173.23C54.0863 173.557 57.322 176.004 58.9616 177.28C59.4892 177.691 60.2505 177.551 60.6056 176.984C60.8839 176.54 60.9162 175.986 60.6924 175.513L56.593 166.845C55.4543 165.783 53.7123 165.708 52.4868 166.667C51.7043 167.279 50.5589 167.023 50.1215 166.132C47.8898 161.586 43.6745 148.214 60.9262 133.105C61.5751 132.538 61.7387 131.598 61.3403 130.834C60.1281 128.505 57.3565 123.881 53.9616 122.756H53.9605Z" fill="url(#paint9_linear_346_129)"/>
<path d="M78.7667 73.9661C78.7667 73.9661 83.8167 77.3844 85.9873 86.091C88.1578 94.7975 84.6304 97.9197 81.0151 97.7294C77.3998 97.5379 72.1583 96.4204 67.6169 90.1738C63.0756 83.9282 72.1483 69.7887 78.7667 73.9661Z" fill="url(#paint10_linear_346_129)"/>
<path d="M72.1961 86.6613C72.1961 86.6613 70.3462 74.1858 80.7034 76.0937L82.7972 78.2742C82.7972 78.2742 87.8672 72.5652 82.2562 68.2486C76.6463 63.9332 68.8602 65.0374 64.5526 72.8947C60.245 80.7519 58.6822 86.2728 62.2919 91.1548C65.9028 96.0368 68.6176 91.8493 68.6176 91.8493C68.6176 91.8493 66.9613 87.6241 68.336 85.8109C69.7095 83.9977 71.4827 86.865 71.4827 86.865L72.195 86.659L72.1961 86.6613Z" fill="url(#paint11_linear_346_129)"/>
<path d="M72.2251 88.2825C72.2251 88.2825 71.3112 81.8645 68.0332 83.6988C64.7552 85.5332 69.2142 89.695 71.0029 91.1098L72.2251 88.2814V88.2825Z" fill="url(#paint12_linear_346_129)"/>
<path d="M214.115 138.388C214.115 138.388 224.889 163.25 231.518 159.935C238.148 156.621 243.12 129.273 243.12 129.273C243.12 129.273 222.402 124.301 214.115 138.389V138.388Z" fill="url(#paint13_linear_346_129)"/>
<path d="M251.625 292.666C251.625 292.666 252.526 297.765 252.967 302.812C253.14 304.784 251.62 306.497 249.64 306.58C242.92 306.859 228.542 307.404 223.383 307.174C222.607 307.139 222.101 306.346 222.388 305.625C222.628 305.02 223.092 304.531 223.683 304.26L247.432 293.345L251.625 292.667V292.666Z" fill="url(#paint14_linear_346_129)"/>
<path d="M252.363 289.67L251.64 295.769C251.64 295.769 247.48 297.706 244.638 295.525L246.361 288.729L252.363 289.67Z" fill="url(#paint15_linear_346_129)"/>
<path d="M251.82 175.014C252.133 176.607 253.497 254.491 245.173 289.392C245.037 289.962 245.325 290.549 245.867 290.77C247.144 291.292 249.647 292.047 252.647 292.148C253.576 292.18 254.409 291.576 254.671 290.684C257.05 282.586 268.454 242.013 269.941 203.255C271.603 159.948 269.941 201.781 269.941 201.781L268.966 175.01L251.819 175.013L251.82 175.014Z" fill="url(#paint16_linear_346_129)"/>
<path d="M278.944 295.328C278.944 295.328 280.377 297.903 281.765 304.741C282.016 305.977 281.153 307.159 279.899 307.283C277.679 307.501 274.263 307.781 271.526 307.762C270.265 307.753 269.28 306.655 269.432 305.403C269.735 302.906 270.68 298.81 273.597 295.618L278.945 295.328H278.944Z" fill="url(#paint17_linear_346_129)"/>
<path d="M280.204 287.483L278.513 296.706C278.513 296.706 276.841 297.95 273.534 297.048L274.341 287.125L280.204 287.483Z" fill="url(#paint18_linear_346_129)"/>
<path d="M284.771 177.405C291.579 218.496 283.293 278.967 280.5 290.802C280.328 291.527 279.744 292.082 279.009 292.204C277.761 292.411 275.708 292.579 273.683 291.991C272.985 291.789 272.495 291.16 272.467 290.434C272.091 280.866 272.766 222.123 266.422 198.908C266.101 197.732 265.383 196.706 264.389 195.999L252.075 187.244L251.131 173.094L284.771 177.405Z" fill="url(#paint19_linear_346_129)"/>
<path d="M240.635 101.095C265.496 98.6086 284.304 104.901 284.304 104.901C290.386 140.39 285.368 181.325 285.368 181.325C269.571 185.468 251.752 178.793 251.752 178.793C249.126 163.959 236.877 122.212 236.877 122.212C226.907 120.974 234.373 101.722 240.637 101.095H240.635Z" fill="url(#paint20_linear_346_129)"/>
<path d="M276.477 124.659L284.303 104.9C284.303 104.9 303.362 117.85 306.497 134.269C302.896 134.534 296.342 135.471 289.929 138.71C288.519 130.958 276.477 124.659 276.477 124.659Z" fill="url(#paint21_linear_346_129)"/>
<path d="M258.165 143.25C258.165 143.25 279.564 155.344 286.783 145.017C288.282 142.874 288.641 140.742 288.271 138.711C294.686 135.472 301.239 134.536 304.839 134.27C305.784 139.219 305.285 144.484 302.376 149.805C289.729 172.94 255.332 148.526 255.332 148.526L258.163 143.25H258.165Z" fill="url(#paint22_linear_346_129)"/>
<path d="M260.736 158.55L249.057 117.765C248.925 117.302 248.53 116.965 248.051 116.909C245.935 116.662 239.804 115.97 232.725 115.371C224.198 114.65 214.296 114.065 208.378 114.562C207.537 114.633 207.029 115.522 207.403 116.279C210.768 123.087 224.609 150.779 231.542 159.851C231.771 160.151 232.126 160.327 232.505 160.324L259.601 160.072C260.39 160.064 260.955 159.309 260.738 158.551L260.736 158.55Z" fill="url(#paint23_linear_346_129)"/>
<path d="M231.513 111.835L223.046 110.424C222.595 110.35 222.225 110.781 222.369 111.215L223.207 113.755C223.28 113.976 223.473 114.135 223.703 114.167L231.851 115.255C232.273 115.312 232.62 114.928 232.524 114.514L232.005 112.297C231.949 112.058 231.755 111.876 231.513 111.836V111.835Z" fill="#7D97F4"/>
<path d="M237.853 119.004L237.155 115.371C237.085 115.006 236.784 114.731 236.415 114.693L219.313 112.957C218.738 112.9 218.277 113.426 218.412 113.989L219.499 118.517C219.586 118.879 219.901 119.141 220.274 119.16L236.986 120.001C237.53 120.029 237.955 119.539 237.853 119.004Z" fill="#7D97F4"/>
<path d="M257.914 148.696C257.914 148.696 259.54 142.007 258.885 139.633C258.228 137.26 256.957 134.208 252.719 134.887C248.482 135.565 243.482 137.351 243.482 137.351C243.482 137.351 243.734 140.442 246.956 139.444L244.959 140.99C244.959 140.99 245.245 143.466 247.965 142.144L246.108 144.193C246.108 144.193 247.276 146.225 249.278 144.922C251.279 143.618 252.238 149.502 257.915 148.697L257.914 148.696Z" fill="url(#paint24_linear_346_129)"/>
<path d="M214.492 138.742C214.492 138.742 209.559 133.939 208.855 131.58C208.15 129.22 207.606 125.96 211.557 124.282C215.508 122.606 220.693 121.463 220.693 121.463C220.693 121.463 222.121 124.217 218.862 125.083L221.375 125.331C221.375 125.331 222.448 127.579 219.44 127.904L222.103 128.653C222.103 128.653 222.193 130.996 219.804 130.955C217.416 130.914 219.729 136.409 214.492 138.742Z" fill="url(#paint25_linear_346_129)"/>
<path d="M259.567 84.5206L266.06 103.296C266.168 103.607 266.04 103.952 265.751 104.111C263.981 105.089 257.605 107.918 249.921 103.046C249.121 102.538 248.575 101.71 248.454 100.771L246.351 84.5195H259.567V84.5206Z" fill="url(#paint26_linear_346_129)"/>
<path d="M245.44 67.132C245.44 67.132 238.31 80.5524 239.224 85.9731C240.138 91.3938 248.974 91.0054 256.69 86.602L262.081 72.1108L245.44 67.1309V67.132Z" fill="url(#paint27_linear_346_129)"/>
<path d="M256.349 79.4855C256.035 79.3463 255.919 78.9623 256.108 78.6763C256.679 77.8036 257.749 76.0238 258.091 74.4644C258.091 74.4644 259.372 73.6429 254.829 72.5554C250.285 71.4679 243.509 69.7794 242.085 65.9125C240.696 62.1414 244.345 52.6591 250.166 60.2147C250.387 60.5018 250.822 60.5085 251.042 60.2202C251.996 58.978 254.505 56.4001 257.988 57.9629C261.247 59.4255 261.614 61.8142 261.569 63.0174C261.556 63.3714 261.873 63.6463 262.221 63.5806C263.868 63.2667 267.823 62.9963 269.668 67.0535C271.189 70.3949 270.2 72.2861 269.301 73.211C269.009 73.5105 269.137 74.0047 269.537 74.1271C270.62 74.4588 272.019 75.3771 271.879 77.9149C271.685 81.4222 267.764 81.1139 266.647 80.9536C266.465 80.928 266.28 80.9904 266.156 81.1273C265.199 82.1869 260.885 86.686 256.217 87.2281C255.813 87.2748 255.499 86.8752 255.631 86.4912L257.651 80.6175C257.745 80.3448 257.615 80.0454 257.351 79.9285L256.349 79.4844V79.4855Z" fill="url(#paint28_linear_346_129)"/>
<path d="M255.537 80.3184C255.537 80.3184 260.612 76.8356 260.984 79.7686C261.355 82.7015 256.413 84.0172 253.965 82.923L255.537 80.3184Z" fill="url(#paint29_linear_346_129)"/>
<path d="M130.817 307.871C130.814 307.737 130.823 307.602 130.858 307.466C132.878 299.454 141.142 295.348 141.142 295.348L145.116 295.659C147.402 302.721 148.875 306.168 148.508 308.097C148.498 308.151 148.481 308.203 148.467 308.255C145.189 308.548 138.44 308.739 130.817 307.871Z" fill="url(#paint30_linear_346_129)"/>
<path d="M148.467 308.255C148.29 308.9 147.815 309.4 147.206 309.528C142.542 310.509 135.13 309.72 132.018 309.313C131.331 309.222 130.829 308.588 130.818 307.871C138.441 308.739 145.189 308.548 148.468 308.255H148.467Z" fill="#7D97F4"/>
<path d="M137.869 289.162L139.609 297.539C139.737 298.152 140.208 298.612 140.78 298.667C141.479 298.732 142.475 298.771 143.476 298.623C144.374 298.492 144.998 297.579 144.839 296.6L143.629 289.162H137.869Z" fill="url(#paint31_linear_346_129)"/>
<path d="M182.237 308.185C177.991 308.065 175.796 307.566 174.661 307.102C174.659 307.523 174.661 307.953 174.674 308.398C174.689 308.874 175.042 309.253 175.475 309.251L198.78 309.101C199.524 309.096 199.959 308.234 199.636 307.551C196.581 307.804 188.797 308.368 182.236 308.185H182.237Z" fill="#7D97F4"/>
<path d="M199.636 307.552C199.609 307.493 199.584 307.432 199.544 307.376C197.486 304.5 192.243 298.773 181.885 296.29L176.915 296.133C176.915 296.133 174.702 299.979 174.66 307.103C175.795 307.568 177.99 308.067 182.236 308.186C188.797 308.37 196.58 307.805 199.636 307.553V307.552Z" fill="url(#paint32_linear_346_129)"/>
<path d="M175.995 288.602C176.05 288.973 176.731 294.603 176.995 296.785C177.058 297.304 177.434 297.706 177.907 297.762C178.753 297.863 180.122 297.954 181.321 297.709C181.967 297.577 182.435 296.956 182.435 296.234V287.396L175.996 288.602H175.995Z" fill="url(#paint33_linear_346_129)"/>
<path d="M141.19 179.16C141.19 179.16 133.238 249.844 137.655 294.023C137.655 294.023 142.957 294.023 145.607 293.139C145.607 293.139 153.871 224.027 156.545 204.251C156.645 203.506 157.71 203.472 157.856 204.21C161.154 220.848 174.109 286.094 175.648 292.256C175.648 292.256 180.066 294.024 183.6 292.256C183.6 292.256 176.532 197.715 171.231 180.928L141.19 179.16Z" fill="url(#paint34_linear_346_129)"/>
<path d="M125.286 96.9866C125.286 96.9866 158.861 91.685 185.368 98.7542L183.6 126.145C183.6 126.145 176.532 164.138 171.231 180.925C171.231 180.925 150.909 184.459 141.19 179.158C141.19 179.158 133.238 131.445 128.82 124.377C128.82 124.377 124.402 105.822 125.286 96.9866Z" fill="url(#paint35_linear_346_129)"/>
<path d="M148.609 72.8457L145.265 95.4647C145.265 95.4647 154.609 99.7578 161.153 95.281L159.744 79.3183L148.609 72.8468V72.8457Z" fill="url(#paint36_linear_346_129)"/>
<path d="M163.01 58.1178C163.116 58.3092 165.132 69.715 166.373 76.7753C166.886 79.6927 164.741 82.4019 161.785 82.5778L159.078 82.7381C154.103 83.033 149.722 79.4912 148.969 74.5647L147.011 61.7754C147.011 61.7754 160.455 53.4796 163.011 58.1189L163.01 58.1178Z" fill="url(#paint37_linear_346_129)"/>
<path d="M144.091 61.805C143.053 60.5138 142.148 58.4268 144.358 56.2318C146.597 54.0101 149.136 54.5633 150.746 55.3091C151.459 55.6385 152.338 55.4927 152.846 54.8928C153.072 54.6267 153.406 54.4453 153.902 54.501C154.838 54.6056 155.674 53.9878 155.785 53.0517C155.976 51.4478 156.831 49.5589 159.667 49.0112C164.868 48.0061 167.463 53.2109 167.37 56.8696C167.278 60.5283 161.577 61.2975 158.342 60.6908C155.966 60.2445 153.912 62.3326 152.988 63.4724C152.653 63.8865 152.527 64.4286 152.649 64.9473L153.471 68.4813C152.901 69.5799 152.343 70.7019 151.542 71.6402C150.966 72.3159 150.335 72.6876 149.665 72.8457C148.695 71.0403 145.982 70.7342 144.721 70.6941C144.239 70.6785 143.789 70.4659 143.471 70.1019C142.521 69.0111 141.031 66.5779 143.881 64.1881C144.589 63.5937 144.67 62.5252 144.091 61.805Z" fill="url(#paint38_linear_346_129)"/>
<path d="M150.602 76.6307C150.602 76.6307 150.489 70.2482 147.907 69.6494C145.323 69.0494 142.537 70.9172 144.746 74.7384C147.494 79.4913 150.602 76.6307 150.602 76.6307Z" fill="url(#paint39_linear_346_129)"/>
<path d="M125.286 96.9863C125.286 96.9863 73.1557 153.534 134.563 175.182V170.764C134.563 170.764 111.59 151.325 129.262 124.819C129.262 124.819 127.052 99.6377 125.286 96.9863Z" fill="url(#paint40_linear_346_129)"/>
<path d="M135.005 171.205C135.005 171.205 142.957 165.904 146.491 167.671C150.025 169.439 150.025 172.089 150.025 172.089C150.025 172.089 148.258 175.623 145.607 174.739C142.957 173.856 136.772 175.623 134.121 174.739C134.121 174.739 133.238 171.205 135.005 171.205Z" fill="url(#paint41_linear_346_129)"/>
<path d="M185.368 98.7559C185.368 98.7559 239.706 153.536 178.3 175.183V170.766C178.3 170.766 201.273 151.327 183.601 124.821C183.601 124.821 181.834 103.174 185.369 98.7559H185.368Z" fill="url(#paint42_linear_346_129)"/>
<path d="M177.858 171.205C177.858 171.205 169.906 165.904 166.372 167.671C162.838 169.439 162.838 172.089 162.838 172.089C162.838 172.089 164.605 175.623 167.256 174.739C169.906 173.856 176.091 175.623 178.742 174.739C178.742 174.739 179.625 171.205 177.858 171.205Z" fill="url(#paint43_linear_346_129)"/>
<defs>
<linearGradient id="paint0_linear_346_129" x1="339.931" y1="359.278" x2="120.75" y2="125.958" gradientUnits="userSpaceOnUse">
<stop stop-color="#DAE3FE"/>
<stop offset="1" stop-color="#E9EFFD"/>
</linearGradient>
<linearGradient id="paint1_linear_346_129" x1="75.2738" y1="54.4262" x2="59.743" y2="93.3853" gradientUnits="userSpaceOnUse">
<stop stop-color="#09005D"/>
<stop offset="1" stop-color="#1A0F91"/>
</linearGradient>
<linearGradient id="paint2_linear_346_129" x1="5.32991" y1="303.846" x2="18.4999" y2="303.846" gradientUnits="userSpaceOnUse">
<stop stop-color="#4F52FF"/>
<stop offset="1" stop-color="#4042E2"/>
</linearGradient>
<linearGradient id="paint3_linear_346_129" x1="74.1485" y1="355.781" x2="55.196" y2="134.276" gradientUnits="userSpaceOnUse">
<stop stop-color="#FF928E"/>
<stop offset="1" stop-color="#FEB3B1"/>
</linearGradient>
<linearGradient id="paint4_linear_346_129" x1="58.3761" y1="301.441" x2="79.685" y2="301.441" gradientUnits="userSpaceOnUse">
<stop stop-color="#4F52FF"/>
<stop offset="1" stop-color="#4042E2"/>
</linearGradient>
<linearGradient id="paint5_linear_346_129" x1="36.0243" y1="359.077" x2="17.0674" y2="137.515" gradientUnits="userSpaceOnUse">
<stop stop-color="#FF928E"/>
<stop offset="1" stop-color="#FEB3B1"/>
</linearGradient>
<linearGradient id="paint6_linear_346_129" x1="73.6799" y1="132.406" x2="64.2031" y2="220.328" gradientUnits="userSpaceOnUse">
<stop stop-color="#4F52FF"/>
<stop offset="1" stop-color="#4042E2"/>
</linearGradient>
<linearGradient id="paint7_linear_346_129" x1="21.4785" y1="136.724" x2="68.8614" y2="212.536" gradientUnits="userSpaceOnUse">
<stop stop-color="#09005D"/>
<stop offset="1" stop-color="#1A0F91"/>
</linearGradient>
<linearGradient id="paint8_linear_346_129" x1="76.6964" y1="90.1407" x2="63.7023" y2="135.369" gradientUnits="userSpaceOnUse">
<stop stop-color="#FF928E"/>
<stop offset="1" stop-color="#FEB3B1"/>
</linearGradient>
<linearGradient id="paint9_linear_346_129" x1="61.554" y1="150.135" x2="37.9043" y2="150.135" gradientUnits="userSpaceOnUse">
<stop stop-color="#FF928E"/>
<stop offset="1" stop-color="#FEB3B1"/>
</linearGradient>
<linearGradient id="paint10_linear_346_129" x1="-846.703" y1="1547.01" x2="-827.795" y2="1517.13" gradientUnits="userSpaceOnUse">
<stop stop-color="#FF928E"/>
<stop offset="1" stop-color="#FEB3B1"/>
</linearGradient>
<linearGradient id="paint11_linear_346_129" x1="85.3911" y1="57.5307" x2="62.5876" y2="92.732" gradientUnits="userSpaceOnUse">
<stop stop-color="#09005D"/>
<stop offset="1" stop-color="#1A0F91"/>
</linearGradient>
<linearGradient id="paint12_linear_346_129" x1="-852.108" y1="1543.59" x2="-833.201" y2="1513.71" gradientUnits="userSpaceOnUse">
<stop stop-color="#FF928E"/>
<stop offset="1" stop-color="#FEB3B1"/>
</linearGradient>
<linearGradient id="paint13_linear_346_129" x1="243.121" y1="144.33" x2="214.115" y2="144.33" gradientUnits="userSpaceOnUse">
<stop stop-color="#FF928E"/>
<stop offset="1" stop-color="#FEB3B1"/>
</linearGradient>
<linearGradient id="paint14_linear_346_129" x1="238.156" y1="248.323" x2="237.535" y2="316.537" gradientUnits="userSpaceOnUse">
<stop stop-color="#4F52FF"/>
<stop offset="1" stop-color="#4042E2"/>
</linearGradient>
<linearGradient id="paint15_linear_346_129" x1="252.363" y1="292.644" x2="244.638" y2="292.644" gradientUnits="userSpaceOnUse">
<stop stop-color="#FF928E"/>
<stop offset="1" stop-color="#FEB3B1"/>
</linearGradient>
<linearGradient id="paint16_linear_346_129" x1="261.091" y1="322.038" x2="255.819" y2="180.57" gradientUnits="userSpaceOnUse">
<stop stop-color="#09005D"/>
<stop offset="1" stop-color="#1A0F91"/>
</linearGradient>
<linearGradient id="paint17_linear_346_129" x1="276.127" y1="248.67" x2="275.507" y2="316.884" gradientUnits="userSpaceOnUse">
<stop stop-color="#4F52FF"/>
<stop offset="1" stop-color="#4042E2"/>
</linearGradient>
<linearGradient id="paint18_linear_346_129" x1="280.202" y1="292.251" x2="273.533" y2="292.251" gradientUnits="userSpaceOnUse">
<stop stop-color="#FF928E"/>
<stop offset="1" stop-color="#FEB3B1"/>
</linearGradient>
<linearGradient id="paint19_linear_346_129" x1="274.129" y1="321.552" x2="268.858" y2="180.085" gradientUnits="userSpaceOnUse">
<stop stop-color="#09005D"/>
<stop offset="1" stop-color="#1A0F91"/>
</linearGradient>
<linearGradient id="paint20_linear_346_129" x1="250.993" y1="102.346" x2="294.472" y2="203.172" gradientUnits="userSpaceOnUse">
<stop stop-color="#4F52FF"/>
<stop offset="1" stop-color="#4042E2"/>
</linearGradient>
<linearGradient id="paint21_linear_346_129" x1="275.583" y1="91.7426" x2="319.061" y2="192.568" gradientUnits="userSpaceOnUse">
<stop stop-color="#4F52FF"/>
<stop offset="1" stop-color="#4042E2"/>
</linearGradient>
<linearGradient id="paint22_linear_346_129" x1="305.274" y1="147.018" x2="255.332" y2="147.018" gradientUnits="userSpaceOnUse">
<stop stop-color="#FF928E"/>
<stop offset="1" stop-color="#FEB3B1"/>
</linearGradient>
<linearGradient id="paint23_linear_346_129" x1="228.742" y1="145.525" x2="257.228" y2="101.297" gradientUnits="userSpaceOnUse">
<stop stop-color="#09005D"/>
<stop offset="1" stop-color="#1A0F91"/>
</linearGradient>
<linearGradient id="paint24_linear_346_129" x1="259.039" y1="141.782" x2="243.481" y2="141.782" gradientUnits="userSpaceOnUse">
<stop stop-color="#FF928E"/>
<stop offset="1" stop-color="#FEB3B1"/>
</linearGradient>
<linearGradient id="paint25_linear_346_129" x1="209.877" y1="133.476" x2="223.059" y2="125.21" gradientUnits="userSpaceOnUse">
<stop stop-color="#FF928E"/>
<stop offset="1" stop-color="#FEB3B1"/>
</linearGradient>
<linearGradient id="paint26_linear_346_129" x1="253.744" y1="83.2974" x2="260.492" y2="119.28" gradientUnits="userSpaceOnUse">
<stop stop-color="#FF928E"/>
<stop offset="1" stop-color="#FEB3B1"/>
</linearGradient>
<linearGradient id="paint27_linear_346_129" x1="258.91" y1="57.5583" x2="244.667" y2="91.7912" gradientUnits="userSpaceOnUse">
<stop stop-color="#FF928E"/>
<stop offset="1" stop-color="#FEB3B1"/>
</linearGradient>
<linearGradient id="paint28_linear_346_129" x1="274.889" y1="55.3768" x2="246.843" y2="77.5308" gradientUnits="userSpaceOnUse">
<stop stop-color="#09005D"/>
<stop offset="1" stop-color="#1A0F91"/>
</linearGradient>
<linearGradient id="paint29_linear_346_129" x1="266.268" y1="60.618" x2="252.025" y2="94.8508" gradientUnits="userSpaceOnUse">
<stop stop-color="#FF928E"/>
<stop offset="1" stop-color="#FEB3B1"/>
</linearGradient>
<linearGradient id="paint30_linear_346_129" x1="141.483" y1="361.396" x2="140.427" y2="329.715" gradientUnits="userSpaceOnUse">
<stop stop-color="#7C27DD"/>
<stop offset="1" stop-color="#2B41D9"/>
</linearGradient>
<linearGradient id="paint31_linear_346_129" x1="142.74" y1="281.1" x2="139.197" y2="312.02" gradientUnits="userSpaceOnUse">
<stop stop-color="#FF928E"/>
<stop offset="1" stop-color="#FEB3B1"/>
</linearGradient>
<linearGradient id="paint32_linear_346_129" x1="184.687" y1="380.988" x2="185.743" y2="349.307" gradientUnits="userSpaceOnUse">
<stop stop-color="#7C27DD"/>
<stop offset="1" stop-color="#2B41D9"/>
</linearGradient>
<linearGradient id="paint33_linear_346_129" x1="180.063" y1="285.057" x2="176.748" y2="313.981" gradientUnits="userSpaceOnUse">
<stop stop-color="#FF928E"/>
<stop offset="1" stop-color="#FEB3B1"/>
</linearGradient>
<linearGradient id="paint34_linear_346_129" x1="193.221" y1="169.916" x2="142.995" y2="277.113" gradientUnits="userSpaceOnUse">
<stop stop-color="#09005D"/>
<stop offset="1" stop-color="#1A0F91"/>
</linearGradient>
<linearGradient id="paint35_linear_346_129" x1="215.153" y1="36.9413" x2="185.167" y2="82.669" gradientUnits="userSpaceOnUse">
<stop stop-color="#FF928E"/>
<stop offset="1" stop-color="#FE7062"/>
</linearGradient>
<linearGradient id="paint36_linear_346_129" x1="155.724" y1="74.7112" x2="152.226" y2="103.447" gradientUnits="userSpaceOnUse">
<stop stop-color="#FF928E"/>
<stop offset="1" stop-color="#FEB3B1"/>
</linearGradient>
<linearGradient id="paint37_linear_346_129" x1="47.5522" y1="-87.1184" x2="71.3979" y2="-53.1845" gradientUnits="userSpaceOnUse">
<stop stop-color="#FF928E"/>
<stop offset="1" stop-color="#FEB3B1"/>
</linearGradient>
<linearGradient id="paint38_linear_346_129" x1="141.797" y1="67.3475" x2="166.902" y2="53.5062" gradientUnits="userSpaceOnUse">
<stop stop-color="#09005D"/>
<stop offset="1" stop-color="#1A0F91"/>
</linearGradient>
<linearGradient id="paint39_linear_346_129" x1="38.9207" y1="-81.0516" x2="62.7663" y2="-47.1178" gradientUnits="userSpaceOnUse">
<stop stop-color="#FF928E"/>
<stop offset="1" stop-color="#FEB3B1"/>
</linearGradient>
<linearGradient id="paint40_linear_346_129" x1="200.588" y1="27.3908" x2="170.603" y2="73.1185" gradientUnits="userSpaceOnUse">
<stop stop-color="#FF928E"/>
<stop offset="1" stop-color="#FE7062"/>
</linearGradient>
<linearGradient id="paint41_linear_346_129" x1="149.131" y1="166.154" x2="120.858" y2="190.305" gradientUnits="userSpaceOnUse">
<stop stop-color="#FF928E"/>
<stop offset="1" stop-color="#FEB3B1"/>
</linearGradient>
<linearGradient id="paint42_linear_346_129" x1="242.492" y1="54.8714" x2="212.507" y2="100.599" gradientUnits="userSpaceOnUse">
<stop stop-color="#FF928E"/>
<stop offset="1" stop-color="#FE7062"/>
</linearGradient>
<linearGradient id="paint43_linear_346_129" x1="166.144" y1="167.457" x2="182.047" y2="183.36" gradientUnits="userSpaceOnUse">
<stop stop-color="#FF928E"/>
<stop offset="1" stop-color="#FEB3B1"/>
</linearGradient>
</defs>
</svg>
