<svg width="178" height="177" viewBox="0 0 178 177" fill="none" xmlns="http://www.w3.org/2000/svg">
<path d="M170.956 117.919C153.434 159.455 106.17 177.734 68.9498 175.116C58.7871 174.401 38.3398 172.964 22.2237 158.302C-8.7251 130.145 -4.66815 70.5331 24.2681 35.1441C27.9944 30.5874 53.799 0.0443489 94.5374 4.77536e-05C124.364 -0.0322288 145.48 16.3073 148.048 18.3439C151.293 20.9165 158.453 27.0351 164.954 36.7959C180.228 59.7306 181.905 91.9641 170.956 117.919Z" fill="url(#paint0_linear_367_185)"/>
<g opacity="0.3">
<path d="M41.8237 24.3345C42.0928 24.3225 42.3333 24.5155 42.3739 24.787C42.4634 25.3813 42.5275 25.9882 42.5662 26.5907C42.5846 26.8837 42.3619 27.1369 42.068 27.1552C42.0642 27.1552 42.061 27.1552 42.0579 27.1552C41.7684 27.1679 41.5203 26.947 41.5019 26.6578C41.4657 26.085 41.4041 25.5085 41.3191 24.9446C41.2753 24.6541 41.4765 24.3832 41.7678 24.3396C41.7868 24.3364 41.8052 24.3351 41.8237 24.3345ZM41.995 28.9652C42.016 28.9646 42.0369 28.9652 42.0585 28.9659C42.3524 28.9874 42.5732 29.2424 42.5516 29.5355C42.5072 30.1373 42.4361 30.743 42.3416 31.336C42.2952 31.6258 42.0229 31.8227 41.731 31.7777C41.4403 31.7315 41.2423 31.4588 41.2886 31.1689C41.3787 30.605 41.446 30.0297 41.4885 29.4576C41.5088 29.1861 41.7297 28.9773 41.9963 28.9652H41.995ZM41.1395 33.5181C41.1985 33.5156 41.2594 33.5226 41.3197 33.5409C41.6015 33.627 41.7596 33.9251 41.6732 34.2054C41.4962 34.7807 41.2911 35.356 41.0652 35.9148C40.9548 36.187 40.6438 36.3186 40.3708 36.2085C40.0979 36.0984 39.9659 35.7883 40.0763 35.5161C40.2915 34.9858 40.4857 34.4396 40.6539 33.8928C40.7218 33.6719 40.9211 33.527 41.1401 33.5175L41.1395 33.5181ZM39.2843 37.7666C39.382 37.7622 39.4829 37.785 39.5737 37.8375C39.8288 37.9843 39.9164 38.3096 39.7692 38.564C39.467 39.0862 39.1389 39.6007 38.793 40.0949C38.6242 40.3354 38.2922 40.3949 38.0504 40.2272C37.8086 40.0595 37.7496 39.7279 37.9178 39.4868C38.2459 39.0178 38.5575 38.5286 38.845 38.0324C38.9396 37.8691 39.1078 37.7748 39.2843 37.7672V37.7666ZM36.5252 41.4961C36.663 41.4898 36.8026 41.5366 36.9111 41.6373C37.1276 41.8366 37.1403 42.1733 36.9397 42.3891C36.5303 42.8302 36.0956 43.2599 35.6487 43.6656C35.431 43.8637 35.094 43.8479 34.8954 43.6308C34.6967 43.4137 34.7126 43.077 34.9303 42.8796C35.3555 42.4935 35.7681 42.0853 36.1578 41.6664C36.2568 41.5594 36.3901 41.5025 36.5252 41.4968V41.4961ZM33.0078 44.5238C33.1861 44.5162 33.3638 44.5972 33.4717 44.7548C33.638 44.9972 33.5758 45.3282 33.3334 45.494C32.8351 45.8345 32.316 46.1572 31.7911 46.4541C31.5347 46.599 31.2091 46.5091 31.0637 46.2534C30.9184 45.9978 31.0085 45.6731 31.2649 45.5288C31.7644 45.2465 32.2576 44.9396 32.7304 44.6162C32.8155 44.558 32.9119 44.5276 33.0078 44.5238ZM13.5373 46.6509C13.611 46.6477 13.6865 46.6597 13.7595 46.6889C14.2913 46.9021 14.8397 47.0952 15.3887 47.2622C15.6705 47.3477 15.8292 47.6451 15.7435 47.9261C15.6578 48.2071 15.3595 48.3653 15.0777 48.2799C14.4989 48.104 13.9213 47.9008 13.3615 47.6761C13.088 47.5666 12.956 47.2565 13.0658 46.9844C13.1464 46.7844 13.3349 46.6604 13.5373 46.6515V46.6509ZM28.9077 46.6971C29.1285 46.6876 29.3412 46.8167 29.4275 47.0331C29.536 47.3065 29.4015 47.6154 29.1273 47.7236C28.5656 47.9451 27.988 48.1445 27.4092 48.3166C27.1267 48.3995 26.8297 48.2407 26.7453 47.959C26.6609 47.6774 26.8214 47.3812 27.1039 47.297C27.6535 47.1331 28.2019 46.9439 28.7357 46.7338C28.7922 46.7116 28.8505 46.6996 28.9083 46.6971H28.9077ZM18.0164 47.8831C18.0513 47.8818 18.0874 47.8831 18.1236 47.8888C18.6898 47.978 19.268 48.0438 19.8411 48.085C20.135 48.1059 20.3558 48.3609 20.3349 48.6533C20.3139 48.9463 20.0588 49.1684 19.7649 49.1457C19.162 49.1026 18.5539 49.033 17.958 48.9393C17.6666 48.8938 17.468 48.621 17.5143 48.3312C17.5543 48.0774 17.7688 47.8938 18.017 47.8825L18.0164 47.8831ZM24.4236 47.9027C24.6927 47.8907 24.9326 48.0831 24.9739 48.3539C25.0183 48.6444 24.8177 48.9153 24.5264 48.9596C23.9298 49.0495 23.3217 49.1153 22.7182 49.1545C22.7143 49.1545 22.7105 49.1545 22.7067 49.1552C22.4173 49.1678 22.1698 48.9476 22.1514 48.6584C22.1323 48.3653 22.3551 48.1122 22.649 48.0932C23.2221 48.0559 23.7997 47.9932 24.3664 47.9078C24.3855 47.9052 24.4045 47.9033 24.4236 47.9021V47.9027Z" fill="#91B3FA"/>
<path d="M10.2027 44.9497C10.3074 44.9453 10.4153 44.9712 10.5105 45.0313C10.7428 45.1782 10.9827 45.3218 11.222 45.4598C11.4771 45.6066 11.5647 45.9319 11.4181 46.1863C11.2709 46.4407 10.9446 46.5287 10.6895 46.3813C10.4375 46.2363 10.1855 46.0851 9.94054 45.9307C9.69174 45.7737 9.61685 45.4452 9.77426 45.1972C9.87136 45.044 10.0338 44.9573 10.202 44.9497H10.2027Z" fill="#91B3FA"/>
</g>
<g opacity="0.3">
<path d="M0.936819 31.6236C1.19387 31.6122 1.42871 31.7881 1.48202 32.0476C1.53724 32.3159 1.59944 32.5881 1.66672 32.8558C1.7378 33.1406 1.5639 33.4298 1.27828 33.5007C0.991403 33.5722 0.702618 33.3981 0.631533 33.1134C0.561082 32.8317 0.495709 32.545 0.437317 32.2621C0.377656 31.9742 0.563621 31.6932 0.852405 31.6337C0.880967 31.628 0.908893 31.6248 0.936819 31.6236Z" fill="#91B3FA"/>
<path d="M20.3412 6.73513C20.5862 6.72437 20.8325 6.71741 21.08 6.71488C21.3745 6.71171 21.6157 6.94714 21.6189 7.24143C21.6221 7.53508 21.384 7.77684 21.0914 7.77874C20.5209 7.78506 19.9515 7.81418 19.393 7.86607C19.0992 7.89265 18.8396 7.67874 18.8123 7.38635C18.785 7.09397 19.0001 6.83449 19.294 6.80727C19.6393 6.775 19.9922 6.75095 20.3419 6.73513H20.3412ZM23.8917 6.87689C23.9215 6.87563 23.952 6.87689 23.9825 6.88069C24.5727 6.95473 25.1668 7.05473 25.7476 7.17751C26.0357 7.23826 26.2198 7.52052 26.1588 7.80785C26.0979 8.09517 25.8142 8.27934 25.526 8.21795C24.9745 8.1015 24.4103 8.00657 23.8492 7.93632C23.5572 7.89961 23.3497 7.63381 23.3865 7.34269C23.4195 7.08194 23.6366 6.88892 23.8917 6.87752V6.87689ZM16.5236 7.25978C16.7749 7.24839 17.0066 7.41673 17.0656 7.66988C17.1329 7.95594 16.9545 8.242 16.6683 8.30908C16.1199 8.43756 15.569 8.59071 15.0314 8.76538C14.7509 8.85588 14.45 8.704 14.3593 8.42427C14.2679 8.14454 14.4208 7.84455 14.7014 7.75342C15.2675 7.56925 15.847 7.40787 16.4252 7.27307C16.4582 7.26547 16.4912 7.26104 16.5242 7.25978H16.5236ZM28.3396 7.94012C28.4075 7.93695 28.4767 7.94708 28.544 7.97113C29.1032 8.17238 29.6604 8.40022 30.2005 8.64767C30.4684 8.77045 30.5852 9.08625 30.462 9.35269C30.3389 9.61976 30.0222 9.73684 29.7544 9.61343C29.2415 9.37864 28.7122 9.1622 28.1816 8.97107C27.9042 8.87171 27.7608 8.56666 27.8611 8.2901C27.9366 8.08125 28.1296 7.94834 28.3396 7.93885V7.94012ZM12.2172 8.785C12.4235 8.77614 12.6247 8.8869 12.7205 9.08435C12.8493 9.34889 12.7389 9.6666 12.4736 9.79507C11.9671 10.0406 11.4638 10.3109 10.9776 10.5988C10.7244 10.7488 10.3969 10.6659 10.2465 10.4134C10.096 10.1609 10.1792 9.83494 10.4324 9.68432C10.944 9.38117 11.474 9.09638 12.0071 8.83753C12.0744 8.80462 12.1455 8.78753 12.2166 8.78437L12.2172 8.785ZM8.35064 11.2159C8.51566 11.2089 8.68132 11.2773 8.79175 11.4159C8.97518 11.6456 8.9371 11.9804 8.7067 12.1633C8.26496 12.5145 7.83273 12.8879 7.42209 13.274C7.2082 13.4759 6.87054 13.4657 6.66807 13.2518C6.46624 13.0379 6.47576 12.7012 6.69029 12.5C7.12251 12.0937 7.57695 11.7006 8.04218 11.3317C8.13358 11.2589 8.24148 11.2209 8.35064 11.2165V11.2159ZM5.10737 14.4296C5.2324 14.4239 5.36061 14.4625 5.46597 14.5473C5.69509 14.7315 5.73127 15.0663 5.54594 15.2954C5.19114 15.7339 4.85032 16.1928 4.53424 16.6586C4.36922 16.9016 4.03791 16.9655 3.79355 16.801C3.54983 16.6364 3.48573 16.3054 3.65075 16.0624C3.98333 15.5726 4.34193 15.0897 4.71513 14.6283C4.81541 14.5049 4.95948 14.4372 5.10673 14.4309L5.10737 14.4296ZM2.64413 18.2718C2.73108 18.268 2.81994 18.2851 2.90308 18.3262C3.16711 18.4559 3.27564 18.7749 3.14553 19.0382C2.89546 19.5438 2.66444 20.0653 2.45816 20.5887C2.35026 20.8621 2.04053 20.9969 1.76698 20.89C1.49279 20.783 1.35761 20.4742 1.46487 20.2008C1.68193 19.6495 1.92502 19.0996 2.18842 18.568C2.27791 18.3876 2.45562 18.28 2.64349 18.2718H2.64413ZM1.08659 22.5607C1.13546 22.5589 1.1856 22.5633 1.23511 22.5753C1.52136 22.6437 1.6978 22.931 1.62862 23.217C1.4966 23.7638 1.3868 24.3227 1.30112 24.8796C1.25669 25.1701 0.983772 25.3688 0.693083 25.3251C0.401759 25.2808 0.201831 25.0093 0.24626 24.7188C0.336386 24.1328 0.4519 23.5436 0.590897 22.9683C0.64802 22.7323 0.854295 22.5715 1.08596 22.5614L1.08659 22.5607ZM0.512195 27.0833C0.522985 27.0833 0.53441 27.0833 0.5452 27.0833C0.839697 27.0883 1.07453 27.3301 1.06946 27.6237C1.06247 28.0383 1.06819 28.4579 1.08659 28.8711C1.09294 29.0205 1.10182 29.1698 1.11134 29.3186C1.13102 29.6116 0.908243 29.8654 0.614381 29.8844C0.317345 29.9097 0.0666417 29.6818 0.0469663 29.3888C0.0368112 29.2325 0.0279255 29.0755 0.0209439 28.918C0.00190314 28.4832 -0.00444378 28.0414 0.00317252 27.6054C0.00761536 27.3225 0.232931 27.0953 0.512195 27.0826V27.0833Z" fill="#91B3FA"/>
<path d="M32.4537 9.96141C32.5597 9.95698 32.6682 9.98356 32.7641 10.0443C33.0071 10.1994 33.2521 10.3627 33.4914 10.5291C33.7332 10.6974 33.7923 11.0291 33.6234 11.2696C33.4546 11.5101 33.1227 11.5695 32.8808 11.4012C32.6536 11.243 32.4213 11.0879 32.1903 10.9411C31.9421 10.7829 31.8691 10.4544 32.0278 10.207C32.1249 10.0551 32.2868 9.96901 32.4543 9.96204L32.4537 9.96141Z" fill="#91B3FA"/>
</g>
<path d="M32.0081 16.157C31.9371 16.0779 31.8241 16.0525 31.7257 16.093L28.9267 17.262C27.7671 16.45 26.4692 15.8171 25.0703 15.4057L24.2459 12.4958C24.2167 12.3939 24.1265 12.3211 24.0199 12.3154L20.3863 12.1097C20.2803 12.104 20.1819 12.1654 20.1413 12.2635L18.9919 15.0615C17.5556 15.3121 16.1942 15.795 14.9495 16.4709L12.3016 14.9937C12.2089 14.9418 12.0934 14.9545 12.0141 15.0254L9.29886 17.4423C9.21953 17.5132 9.1935 17.6259 9.23476 17.724L10.407 20.5143C9.59273 21.6706 8.95803 22.9648 8.54548 24.3596L5.62717 25.1817C5.52498 25.2108 5.45199 25.3007 5.44628 25.407L5.24001 29.0302C5.23366 29.1359 5.29586 29.234 5.39424 29.2745L8.20021 30.4207C8.45155 31.8528 8.93582 33.2104 9.61367 34.4514L8.1323 37.0918C8.08025 37.1842 8.09295 37.2994 8.16403 37.3785L10.5879 40.0859C10.659 40.165 10.772 40.1903 10.8704 40.1498L13.6694 38.9809C14.8289 39.7929 16.1269 40.4257 17.5257 40.8371L18.3502 43.7471C18.3794 43.849 18.4695 43.9217 18.5762 43.9274L22.2098 44.1331C22.3158 44.1394 22.4141 44.0774 22.4548 43.9793L23.6042 41.1814C25.0405 40.9308 26.4019 40.4479 27.6465 39.772L30.2945 41.2491C30.3871 41.301 30.5027 41.2883 30.582 41.2175L33.2972 38.8005C33.3765 38.7296 33.4019 38.617 33.3613 38.5189L32.189 35.7286C33.0033 34.5723 33.638 33.2781 34.0506 31.8832L36.9689 31.0611C37.0711 31.0326 37.1441 30.9421 37.1498 30.8358L37.3561 27.2126C37.3618 27.1069 37.3002 27.0088 37.2018 26.9683L34.3959 25.8222C34.1445 24.39 33.6602 23.0325 32.9824 21.7914L34.4638 19.1511C34.5158 19.0587 34.5031 18.9435 34.432 18.8644L32.0081 16.157Z" fill="#91B3FA"/>
<path d="M21.1384 24.4762C22.92 24.3977 24.5423 25.6331 24.8901 27.4298C25.2722 29.405 23.9717 31.322 21.9908 31.703C21.0311 31.8878 20.0569 31.6884 19.2477 31.1429C18.4384 30.5967 17.8907 29.7695 17.7054 28.8126C17.3233 26.8374 18.6238 24.9205 20.6046 24.5395C20.783 24.5053 20.9613 24.4844 21.1384 24.4768V24.4762ZM21.4158 30.9157C21.5535 30.9093 21.6912 30.8935 21.8289 30.8669C23.3478 30.5746 24.3449 29.105 24.0516 27.5906C23.7584 26.0761 22.2853 25.0812 20.7658 25.3742C19.247 25.666 18.2499 27.1362 18.5431 28.6506C18.6853 29.3841 19.1049 30.0189 19.7256 30.4372C20.2302 30.7777 20.8179 30.9423 21.4158 30.9157Z" fill="#BDD0FB"/>
<path d="M20.8299 19.216C21.1359 19.2027 21.4443 19.2039 21.754 19.2217C21.8518 19.2274 21.9489 19.2343 22.0466 19.2432C22.5265 19.2856 23.0025 19.3666 23.4671 19.4837C23.4734 19.4856 23.4798 19.4868 23.4861 19.4887C23.5039 19.4932 23.5217 19.4982 23.5401 19.5027C23.575 19.5115 23.6099 19.521 23.6448 19.5305C23.7362 19.5558 23.7971 19.6362 23.8016 19.7261C23.8028 19.7476 23.8003 19.7704 23.7939 19.7925C23.7628 19.9058 23.6448 19.9716 23.5318 19.9412C22.9473 19.7805 22.3418 19.6818 21.7312 19.6469C18.6999 19.4748 15.9415 20.9045 14.2869 23.1961C13.366 24.4707 12.7865 26.0124 12.6906 27.6933C12.6735 27.9882 12.6722 28.2819 12.6849 28.5724C12.7719 30.5311 13.5259 32.3841 14.853 33.867C16.3769 35.5694 18.4752 36.5788 20.7601 36.7079C25.4797 36.9744 29.5328 33.3651 29.8007 28.6616C29.8172 28.3717 29.8191 28.0819 29.8057 27.7933C29.7499 26.544 29.4211 25.3207 28.8372 24.2125C28.822 24.184 28.8144 24.1536 28.8131 24.1233C28.8093 24.0435 28.8512 23.965 28.9273 23.9252C29.0321 23.8707 29.1609 23.91 29.2155 24.015C29.828 25.1789 30.1739 26.463 30.2323 27.7743C30.2456 28.0768 30.2437 28.3812 30.2265 28.6856C29.9454 33.6239 25.6866 37.413 20.736 37.1326C18.3369 36.9972 16.1345 35.9377 14.5351 34.1499C13.1419 32.5936 12.3504 30.6482 12.2591 28.592C12.2457 28.2863 12.2476 27.9781 12.2648 27.6692C12.4012 25.277 13.4631 23.0809 15.2554 21.4854C16.8161 20.0963 18.7685 19.3071 20.8312 19.216H20.8299Z" fill="#BDD0FB"/>
<g opacity="0.3">
<path d="M59.3869 9.52962C59.529 9.52329 59.6642 9.61 59.7131 9.75176C59.8039 10.0157 59.8876 10.2859 59.9619 10.5549C60.0101 10.7295 59.9079 10.9105 59.7321 10.9593C59.557 11.0086 59.3754 10.9049 59.3266 10.7302C59.2555 10.4739 59.1755 10.2163 59.0892 9.9644C59.0302 9.7929 59.1222 9.6062 59.2942 9.54734C59.3247 9.53722 59.3558 9.53152 59.3862 9.53025L59.3869 9.52962Z" fill="#91B3FA"/>
<path d="M59.9841 11.985C60.151 11.9774 60.2995 12.097 60.3243 12.2654C60.3941 12.7407 60.4404 13.2248 60.462 13.7039C60.4665 13.8052 60.4696 13.9064 60.4722 14.0077C60.476 14.1893 60.3224 14.333 60.1504 14.3437C59.9682 14.3482 59.8178 14.2045 59.8134 14.0229C59.8108 13.9254 59.8083 13.8286 59.8038 13.7324C59.7835 13.2748 59.7391 12.8134 59.6725 12.3603C59.6458 12.1806 59.7702 12.0141 59.9505 11.9875C59.9619 11.9863 59.9733 11.985 59.9841 11.9844V11.985ZM60.0628 15.3949C60.0787 15.3943 60.0945 15.3949 60.1104 15.3962C60.2913 15.4139 60.4239 15.5753 60.4062 15.7557C60.349 16.3347 60.2545 16.9157 60.1269 17.4821C60.0869 17.6593 59.9098 17.7701 59.7334 17.7302C59.5557 17.6904 59.4446 17.5144 59.4846 17.3378C59.6064 16.798 59.6959 16.2436 59.7512 15.6911C59.7677 15.5266 59.9028 15.4025 60.0641 15.3956L60.0628 15.3949ZM59.31 18.7219C59.3519 18.72 59.3945 18.7264 59.4364 18.7409C59.6077 18.8023 59.6959 18.9909 59.6344 19.1618C59.4364 19.7086 59.2021 20.2491 58.9375 20.7674C58.855 20.9294 58.6569 20.9933 58.4945 20.911C58.3326 20.8288 58.2679 20.6313 58.3498 20.4693C58.6017 19.9744 58.8258 19.4592 59.0143 18.9384C59.0612 18.8093 59.1806 18.7276 59.31 18.7219ZM57.7601 21.7629C57.828 21.7597 57.8979 21.7781 57.9588 21.8186C58.1092 21.9198 58.1492 22.1243 58.0476 22.2749C57.7208 22.7578 57.3609 23.2242 56.9782 23.6615C56.8582 23.7982 56.6501 23.8121 56.5136 23.6932C56.3765 23.5742 56.3625 23.3666 56.4819 23.2299C56.8468 22.8128 57.1902 22.3679 57.5018 21.9078C57.5627 21.818 57.6598 21.768 57.7608 21.7635L57.7601 21.7629ZM55.5121 24.3343C55.6073 24.3298 55.7037 24.3672 55.7723 24.4431C55.8935 24.5779 55.8821 24.7855 55.7469 24.907C55.3128 25.295 54.8501 25.6608 54.3728 25.9924C54.2236 26.0968 54.018 26.0595 53.9139 25.9107C53.8098 25.762 53.8466 25.557 53.9958 25.4532C54.4515 25.1361 54.8926 24.788 55.307 24.4172C55.3661 24.3646 55.4391 24.3368 55.5121 24.3336V24.3343ZM52.7067 26.2835C52.8298 26.2778 52.9511 26.3424 53.0126 26.4588C53.0977 26.6189 53.0361 26.8177 52.8749 26.9025C52.3589 27.174 51.8213 27.4157 51.2768 27.6208C51.106 27.6847 50.9162 27.5992 50.8521 27.4296C50.788 27.26 50.8737 27.0702 51.0438 27.0062C51.563 26.8107 52.0758 26.5803 52.5671 26.3215C52.6115 26.2981 52.6591 26.286 52.7061 26.2841L52.7067 26.2835ZM49.5098 27.4891C49.664 27.4822 49.8068 27.5847 49.8443 27.7397C49.8868 27.9163 49.7782 28.0935 49.6018 28.1366C49.0369 28.2726 48.4562 28.3758 47.8748 28.4422C47.6933 28.46 47.5308 28.3334 47.5099 28.153C47.4889 27.9726 47.619 27.81 47.7999 27.7891C48.354 27.7258 48.9081 27.6284 49.4469 27.498C49.4679 27.4929 49.4895 27.4898 49.5104 27.4891H49.5098ZM44.4018 27.7562C44.4208 27.7556 44.4405 27.7562 44.4602 27.7587C44.9362 27.8214 45.4243 27.8594 45.9104 27.8714C45.9841 27.8733 46.0564 27.8752 46.1288 27.8752C46.3109 27.8771 46.4569 28.0245 46.4556 28.2062C46.4544 28.3878 46.3046 28.5391 46.1237 28.5321C46.0469 28.5315 45.9701 28.5302 45.8927 28.5277C45.3843 28.515 44.8727 28.4751 44.3738 28.4093C44.1936 28.3853 44.0667 28.2207 44.0908 28.0404C44.1117 27.8802 44.2456 27.7619 44.4024 27.7549L44.4018 27.7562Z" fill="#91B3FA"/>
</g>
<g opacity="0.3">
<path d="M45.4236 0.180037C45.6032 0.17181 45.7568 0.309776 45.767 0.489512C45.7771 0.670514 45.6388 0.8262 45.4573 0.836326C44.9102 0.867337 44.3605 0.932523 43.8236 1.02872C43.6452 1.0591 43.4732 0.942649 43.4408 0.763546C43.4085 0.585076 43.5278 0.4142 43.7068 0.381924C44.2704 0.280664 44.846 0.212947 45.4192 0.180037C45.4192 0.180037 45.4223 0.180037 45.4236 0.180037ZM47.1094 0.1851C47.1214 0.1851 47.1328 0.1851 47.1449 0.1851C47.7174 0.220541 48.2937 0.291423 48.8573 0.395847C49.0363 0.428756 49.1543 0.600265 49.1213 0.778735C49.0883 0.957205 48.9157 1.07429 48.7373 1.04201C48.1998 0.942649 47.6501 0.874932 47.1037 0.840756C46.9221 0.829365 46.7844 0.673678 46.7958 0.492676C46.8066 0.323066 46.9437 0.192062 47.1094 0.1851ZM42.1137 0.776203C42.2597 0.769875 42.3974 0.861008 42.4425 1.0072C42.4964 1.17998 42.3993 1.36414 42.2254 1.41794C41.7018 1.58058 41.1845 1.77551 40.6863 1.99891C40.52 2.07296 40.3251 1.99891 40.2509 1.83373C40.176 1.66855 40.2509 1.47363 40.4165 1.39958C40.9383 1.16542 41.4815 0.961002 42.0299 0.790759C42.0578 0.781899 42.0858 0.777469 42.1131 0.776203H42.1137ZM50.4186 0.797721C50.4561 0.795822 50.4942 0.800885 50.5323 0.812277C51.0794 0.984419 51.622 1.192 52.1437 1.42933C52.3094 1.50464 52.3824 1.69956 52.3069 1.86474C52.2313 2.02929 52.0358 2.10207 51.8702 2.02739C51.3726 1.80146 50.8559 1.60337 50.3336 1.43945C50.1603 1.38503 50.0639 1.20023 50.1184 1.02745C50.161 0.892019 50.2835 0.80405 50.418 0.798354L50.4186 0.797721ZM39.0462 2.15207C39.163 2.14701 39.2785 2.20396 39.3426 2.31029C39.4372 2.46597 39.3871 2.66786 39.2316 2.76153C38.7638 3.04379 38.3087 3.35706 37.8784 3.69438C37.735 3.8064 37.5281 3.78172 37.4157 3.63869C37.3034 3.49566 37.3281 3.28934 37.4716 3.17732C37.9228 2.82418 38.4001 2.49509 38.8907 2.19953C38.9396 2.16979 38.9936 2.1546 39.0462 2.1527V2.15207ZM36.3989 4.22156C36.4884 4.21777 36.5786 4.24941 36.6465 4.31713C36.7753 4.4456 36.7753 4.65318 36.6465 4.78166C36.2593 5.16834 35.8918 5.58161 35.5554 6.01006C35.4431 6.15309 35.2355 6.17777 35.0927 6.06639C34.9493 5.95437 34.9245 5.74805 35.0363 5.60566C35.3891 5.15632 35.7738 4.7228 36.18 4.31776C36.2403 4.257 36.319 4.22536 36.3983 4.22156H36.3989ZM34.3254 6.86444C34.3882 6.86191 34.4523 6.87646 34.5101 6.91127C34.6662 7.00494 34.7157 7.20682 34.6218 7.36251C34.3381 7.8302 34.0817 8.31942 33.8583 8.81622C33.784 8.9814 33.5892 9.05608 33.4229 8.9814C33.2566 8.90735 33.1823 8.71306 33.2572 8.54725C33.4914 8.0264 33.7605 7.51314 34.0576 7.02266C34.1166 6.9252 34.2188 6.86887 34.3254 6.86444Z" fill="#91B3FA"/>
<path d="M53.4944 2.1979C53.5578 2.19537 53.6226 2.21056 53.681 2.246C53.9215 2.39282 54.1582 2.54788 54.3855 2.7061C54.5346 2.80989 54.5714 3.01494 54.4667 3.16366C54.3626 3.31175 54.157 3.34846 54.0078 3.24467C53.7914 3.09341 53.5648 2.94595 53.3357 2.80546C53.1808 2.71053 53.1319 2.50801 53.2272 2.35359C53.2868 2.25739 53.3877 2.2017 53.4937 2.19727L53.4944 2.1979Z" fill="#91B3FA"/>
</g>
<path d="M53.4093 6.44791C53.3617 6.39475 53.2862 6.37766 53.2202 6.4055L51.3472 7.18773C50.571 6.64473 49.7027 6.22071 48.7665 5.94541L48.215 3.99869C48.196 3.93034 48.135 3.88161 48.0639 3.87781L45.6324 3.74048C45.5613 3.73668 45.4953 3.77782 45.4687 3.84363L44.6994 5.71567C43.7385 5.88338 42.8271 6.20678 41.9944 6.65865L40.2223 5.67011C40.1601 5.6353 40.0827 5.64416 40.03 5.69099L38.2129 7.30798C38.1596 7.35545 38.1424 7.43076 38.1704 7.49658L38.9548 9.36419C38.4103 10.1382 37.985 11.004 37.7089 11.9374L35.756 12.4874C35.6874 12.5064 35.6386 12.5672 35.6348 12.638L35.497 15.0626C35.4932 15.1335 35.5345 15.1993 35.6005 15.2259L37.4779 15.9929C37.6461 16.9511 37.9704 17.8599 38.4236 18.6902L37.4322 20.4572C37.3973 20.5192 37.4062 20.5964 37.4532 20.6489L39.0748 22.4609C39.1224 22.514 39.1979 22.5311 39.2639 22.5033L41.1369 21.721C41.9131 22.264 42.7814 22.6881 43.7176 22.9634L44.2691 24.9107C44.2882 24.9791 44.3491 25.0278 44.4202 25.0316L46.8517 25.1689C46.9228 25.1727 46.9888 25.1316 47.0154 25.0658L47.7847 23.1937C48.7456 23.026 49.657 22.7026 50.4897 22.2507L52.2618 23.2393C52.324 23.2741 52.4014 23.2652 52.4541 23.2184L54.2712 21.6014C54.3245 21.554 54.3417 21.4786 54.3137 21.4128L53.5293 19.5452C54.0738 18.7712 54.4991 17.9054 54.7752 16.972L56.7281 16.422C56.7967 16.403 56.8455 16.3422 56.8493 16.2714L56.9871 13.8468C56.9909 13.7759 56.9496 13.7101 56.8836 13.6835L55.0062 12.9165C54.838 11.9583 54.5137 11.0495 54.0605 10.2192L55.0519 8.45222C55.0868 8.39019 55.0779 8.31298 55.0309 8.26045L53.4093 6.44854V6.44791Z" fill="#91B3FA"/>
<path d="M46.137 11.9712C46.6682 11.9478 47.1906 12.094 47.6387 12.3965C48.1902 12.7686 48.5628 13.3325 48.6891 13.9837C48.9493 15.3286 48.0639 16.6342 46.7146 16.8943C45.3633 17.1519 44.0559 16.2703 43.7956 14.9248C43.6693 14.2729 43.8051 13.6116 44.1783 13.0616C44.5515 12.5117 45.1164 12.1395 45.7708 12.0142C45.8927 11.9908 46.0158 11.9762 46.1376 11.9712H46.137ZM46.3223 16.2804C46.4112 16.2766 46.5 16.2659 46.5895 16.2488C47.5822 16.0576 48.2334 15.0969 48.0417 14.1078C47.9491 13.6287 47.6749 13.2135 47.2693 12.9401C46.8637 12.6667 46.3756 12.5673 45.8946 12.6591C45.4141 12.7515 44.9977 13.0255 44.7235 13.4293C44.4494 13.8337 44.3491 14.3204 44.4417 14.8001C44.6157 15.7001 45.4287 16.3197 46.3217 16.2798L46.3223 16.2804Z" fill="#BDD0FB"/>
<path d="M45.9276 8.30881C46.1357 8.29932 46.3465 8.30122 46.5584 8.31261C46.9805 8.33666 47.4 8.40311 47.8075 8.5107L47.8621 8.52589C48.003 8.56449 48.0976 8.68917 48.1039 8.82777C48.1052 8.86131 48.1014 8.89612 48.0925 8.93029C48.0443 9.10497 47.8627 9.20686 47.6876 9.15939C47.3086 9.05497 46.9164 8.99105 46.5223 8.9689C46.5007 8.96763 46.4791 8.967 46.4575 8.96573C45.5239 8.92207 44.615 9.11193 43.7956 9.50747C43.3507 9.72265 42.9324 9.99858 42.5516 10.3315C42.5485 10.334 42.5453 10.3372 42.5421 10.3397C42.5326 10.3479 42.5231 10.3562 42.5142 10.365C41.4086 11.3491 40.7536 12.7028 40.6698 14.1781C40.659 14.3692 40.6577 14.5591 40.666 14.747C40.7224 16.0147 41.2105 17.2146 42.0693 18.1747C43.0562 19.2771 44.4138 19.9296 45.8933 20.0132C47.3715 20.0961 48.7964 19.6012 49.9014 18.6177C51.007 17.6336 51.662 16.2798 51.7458 14.8046C51.7566 14.6167 51.7578 14.4293 51.7496 14.2426C51.7134 13.4338 51.5002 12.6421 51.1225 11.9244C51.099 11.8801 51.087 11.8333 51.0851 11.7864C51.0794 11.6637 51.1441 11.5422 51.2609 11.4808C51.4221 11.3966 51.6214 11.458 51.7058 11.6194C52.1285 12.4219 52.3671 13.3079 52.4071 14.2129C52.4167 14.4217 52.4154 14.6318 52.4033 14.8413C52.3094 16.4919 51.5763 18.007 50.3399 19.1075C49.1029 20.2081 47.5118 20.7638 45.8558 20.6688C44.2006 20.5752 42.6811 19.8448 41.5774 18.6114C40.6165 17.538 40.0706 16.195 40.0072 14.7768C39.9976 14.566 39.9989 14.3534 40.011 14.1401C40.1931 10.9447 42.7877 8.44678 45.9276 8.30818V8.30881Z" fill="#BDD0FB"/>
<path d="M97.5318 3.56031C90.0806 6.28356 82.8527 13.1015 83.8593 21.8054C84.7149 29.2068 93.037 31.3915 98.0847 32.1719C99.4924 32.3896 100.772 33.1262 101.686 34.2407C103.872 36.9083 108.556 41.3548 113.696 38.3949C114.071 38.1791 113.903 37.5924 113.473 37.6095C112.107 37.6646 110.168 37.4639 108.848 36.1539C107.05 34.3692 107.701 31.2719 110.024 30.3074C114.421 28.4822 122.717 23.5116 121.643 12.2484C120.19 -2.98423 97.5318 3.55967 97.5318 3.55967V3.56031Z" fill="url(#paint1_linear_367_185)"/>
<path opacity="0.7" d="M86.7129 15.5079C86.6507 15.5079 86.5872 15.4953 86.5263 15.4687C86.2832 15.363 86.1702 15.0769 86.273 14.8289C89.0409 8.18053 95.6589 5.22121 100.724 3.9099C100.98 3.84282 101.24 4.00167 101.304 4.26304C101.369 4.52379 101.214 4.78959 100.959 4.85605C96.1038 6.11293 89.7677 8.92985 87.1527 15.2105C87.0753 15.3959 86.8988 15.5073 86.7129 15.5073V15.5079Z" fill="white"/>
<path opacity="0.7" d="M85.62 22.293C85.3864 22.293 85.182 22.1184 85.1477 21.8753C85.142 21.8355 85.01 20.8843 85.1414 19.4141C85.1655 19.1458 85.3972 18.947 85.6606 18.973C85.9233 18.9977 86.1169 19.235 86.0934 19.5033C85.9722 20.8602 86.0922 21.7272 86.0934 21.7355C86.1315 22.0019 85.9506 22.2494 85.6891 22.2886C85.6656 22.2918 85.6428 22.2937 85.62 22.2937V22.293Z" fill="white"/>
<path d="M104.778 21.9929L103.075 22.0188C102.6 22.0258 102.191 21.622 102.147 21.129L101.05 8.75317C101.027 8.49812 101.108 8.28358 101.271 8.10448C101.433 7.92474 101.666 7.86019 101.912 7.86778L104.852 7.96208C105.092 7.96967 105.325 8.04309 105.497 8.23042C105.669 8.41775 105.764 8.64685 105.761 8.89747L105.621 21.0961C105.615 21.584 105.246 21.9853 104.777 21.9929H104.778Z" fill="white"/>
<path d="M102.267 25.1262C102.676 24.6895 103.266 24.4629 104.036 24.4446C104.828 24.4262 105.438 24.618 105.865 25.0198C106.291 25.4205 106.519 26.0217 106.55 26.8248C106.579 27.5988 106.393 28.2057 105.99 28.6475C105.585 29.0898 104.998 29.3272 104.223 29.3582C103.464 29.3886 102.86 29.1924 102.413 28.7677C101.966 28.3424 101.727 27.7456 101.697 26.978C101.667 26.1812 101.857 25.5635 102.267 25.1262Z" fill="white"/>
<path d="M128.21 31.0896L119.17 25.3399C118.771 25.0861 118.244 25.1792 117.956 25.5538C117.607 26.0095 117.763 26.6702 118.28 26.9227L127.913 31.618C128.026 31.6731 128.162 31.6528 128.254 31.5668C128.399 31.4313 128.377 31.1959 128.21 31.0896H128.21Z" fill="white"/>
<path d="M128.017 38.887L117.715 41.8514C117.261 41.9824 116.781 41.7445 116.611 41.304C116.405 40.7679 116.743 40.1781 117.31 40.0825L127.882 38.2972C128.006 38.2763 128.13 38.3339 128.194 38.4421C128.295 38.613 128.208 38.8326 128.017 38.8877L128.017 38.887Z" fill="white"/>
<path d="M126.44 34.8157L114.724 32.0747C114.206 31.9539 113.708 32.2665 113.576 32.7943C113.416 33.436 113.861 34.1031 114.498 34.1752L126.365 35.5169C126.504 35.5328 126.634 35.4562 126.691 35.3245C126.782 35.1176 126.657 34.8663 126.44 34.8157Z" fill="white"/>
<path d="M162.524 91.8287C162.776 91.4964 162.081 90.5492 160.972 89.713C159.863 88.8768 158.76 88.4683 158.508 88.8007C158.256 89.133 158.951 90.0802 160.059 90.9164C161.168 91.7526 162.271 92.161 162.524 91.8287Z" fill="#91B3FA"/>
<path d="M137.634 167.665C137.634 167.665 138.192 170.818 138.466 173.94C138.574 175.159 137.63 176.219 136.403 176.27C132.234 176.443 123.317 176.779 120.118 176.637C119.637 176.615 119.323 176.124 119.5 175.678C119.65 175.304 119.937 175.002 120.304 174.834L135.033 168.084L137.634 167.664V167.665Z" fill="url(#paint2_linear_367_185)"/>
<path d="M138.091 165.811L137.642 169.583C137.642 169.583 135.062 170.78 133.301 169.431L134.369 165.229L138.091 165.811V165.811Z" fill="url(#paint3_linear_367_185)"/>
<path d="M137.754 94.9042C137.947 95.889 138.794 144.055 133.631 165.639C133.546 165.992 133.725 166.354 134.062 166.492C134.854 166.814 136.406 167.281 138.266 167.344C138.843 167.362 139.359 166.989 139.522 166.438C140.997 161.43 148.07 136.338 148.993 112.37C150.023 85.5865 148.993 111.458 148.993 111.458L148.388 94.9023L137.753 94.9042H137.754Z" fill="url(#paint4_linear_367_185)"/>
<path d="M154.577 169.309C154.577 169.309 155.466 170.9 156.327 175.13C156.482 175.894 155.947 176.625 155.169 176.702C153.792 176.837 151.674 177.011 149.976 176.999C149.193 176.994 148.583 176.314 148.677 175.539C148.865 173.995 149.451 171.462 151.26 169.488L154.577 169.309Z" fill="url(#paint5_linear_367_185)"/>
<path d="M155.357 164.458L154.309 170.162C154.309 170.162 153.272 170.931 151.221 170.373L151.722 164.236L155.358 164.458L155.357 164.458Z" fill="url(#paint6_linear_367_185)"/>
<path d="M158.19 96.3818C162.413 121.794 157.274 159.191 155.541 166.51C155.435 166.959 155.072 167.302 154.617 167.378C153.843 167.505 152.569 167.61 151.314 167.246C150.881 167.121 150.578 166.731 150.56 166.283C150.327 160.365 150.746 124.037 146.811 109.68C146.611 108.953 146.166 108.318 145.549 107.881L137.912 102.468L137.326 93.7168L158.19 96.3825V96.3818Z" fill="url(#paint7_linear_367_185)"/>
<path d="M130.709 47.9586C145.016 46.5321 157.901 51.5445 157.901 51.5445C161.673 73.4925 158.56 98.808 158.56 98.808C148.763 101.37 137.71 97.2417 137.71 97.2417C136.082 88.0682 128.485 62.2501 128.485 62.2501C122.301 61.485 126.825 48.3459 130.709 47.9586Z" fill="url(#paint8_linear_367_185)"/>
<path d="M141.541 31.8574L147.945 49.2475C147.945 49.2475 143.733 53.0055 138.098 49.4291C137.609 49.119 137.283 48.6077 137.208 48.0349L135.905 37.9849L141.541 31.8574Z" fill="url(#paint9_linear_367_185)"/>
<path d="M146.991 99.381L143.313 51.1504L140.179 50.6074L144.13 98.9735L146.991 99.381Z" fill="url(#paint10_linear_367_185)"/>
<path d="M146.923 45.9876L149.375 49.1121C144.366 52.298 139.936 52.5062 134.524 47.8894L137.045 45.8516C142.971 47.7533 143.789 47.4477 146.923 45.9876Z" fill="url(#paint11_linear_367_185)"/>
<path d="M143.108 50.5397L145.97 74.1794L142.904 80.3613L139.634 74.2478L140.656 50.0645L143.108 50.5397Z" fill="url(#paint12_linear_367_185)"/>
<path d="M144.198 46.8705C144.107 48.6602 144.004 50.4222 143.381 51.0822L140.179 50.6747C139.545 49.4678 139.243 47.9103 139.157 46.1231C140.624 45.992 142.363 46.3465 144.198 46.8705Z" fill="url(#paint13_linear_367_185)"/>
<path d="M158.019 90.6352C158.019 90.6352 171.482 76.3203 165.351 70.5801C164.168 69.4726 157.524 64.7874 156.257 64.602C155.625 60.2029 160.331 56.9828 160.889 54.8203C163.985 55.245 172.012 60.9383 173.935 64.1609C184.461 81.7889 159.629 92.8952 159.629 92.8952L158.019 90.6352H158.019Z" fill="url(#paint14_linear_367_185)"/>
<path d="M158.019 90.6348L161.434 91.7739C161.412 93.3757 161.827 94.7358 162.808 96.4091C162.936 96.6274 163.214 96.7091 163.439 96.592L167.299 94.5776C167.877 94.2763 168.578 94.3352 169.097 94.7295L169.491 95.0294C169.583 95.0991 169.581 95.2377 169.486 95.3047L163.291 99.6728C163.291 99.6728 162.656 99.9956 162.206 100.12C162.022 100.17 161.827 100.121 161.689 99.9899C160.655 99.0102 155.766 94.0928 158.019 90.6354V90.6348Z" fill="url(#paint15_linear_367_185)"/>
<path d="M150.84 49.8945C179.964 55.0911 187.759 74.9746 162.489 91.7736C161.475 90.4123 160.177 89.6352 158.504 89.6339C168.224 75.4544 167.526 66.7903 153.701 65.0772L150.84 49.8945Z" fill="url(#paint16_linear_367_185)"/>
<path d="M164.976 90.1095C164.986 90.1095 164.997 90.1076 165.007 90.1044C165.061 90.0873 165.09 90.0297 165.073 89.9759C164.394 87.8552 162.894 86.7432 160.487 86.5768C160.432 86.5704 160.382 86.6154 160.378 86.6717C160.374 86.728 160.417 86.7761 160.473 86.7806C162.787 86.9407 164.228 88.0064 164.879 90.0386C164.893 90.0816 164.933 90.1095 164.976 90.1095Z" fill="#91B3FA"/>
<path d="M162.388 90.1419C162.388 90.3811 162.582 90.5748 162.822 90.5748C163.062 90.5748 163.256 90.3811 163.256 90.1419C163.256 89.9026 163.062 89.709 162.822 89.709C162.582 89.709 162.388 89.9026 162.388 90.1419Z" fill="#91B3FA"/>
<path d="M134.087 27.427C133.992 27.584 131.571 39.4687 131.571 39.4687L138.406 40.7028L142.379 29.7782C142.379 29.7782 135.683 24.8013 134.087 27.427Z" fill="url(#paint17_linear_367_185)"/>
<path d="M139.943 31.6298L138.327 37.4586C138.303 37.5472 138.268 37.6307 138.219 37.7086C137.954 38.1396 136.998 39.4445 135.686 38.3908C134.567 37.4928 133.527 36.6833 132.599 36.4871C132.057 36.3726 131.529 36.7302 131.42 37.2719C131.197 38.3876 130.793 40.6489 130.717 42.7076C130.698 43.2234 131.085 43.6652 131.599 43.724C132.957 43.8797 135.617 44.1038 137.839 43.8063C138.204 43.7576 138.511 43.5133 138.641 43.1696C139.211 41.6571 140.829 37.4231 141.47 36.2979C142.066 35.2524 143.671 35.1404 144.41 35.1473C144.69 35.1499 144.957 35.0372 145.15 34.8341C145.728 34.2246 146.651 32.8506 145.053 31.3995C144.656 31.0387 144.634 30.4172 144.988 30.0135C145.622 29.2901 146.198 28.1028 144.966 26.7789C143.719 25.4384 142.231 25.6985 141.278 26.0922C140.856 26.2662 140.349 26.1605 140.069 25.8011C139.945 25.6416 139.754 25.5283 139.465 25.5486C138.918 25.5872 138.447 25.2093 138.405 24.6644C138.333 23.7309 137.882 22.6165 136.247 22.2317C133.25 21.5254 131.618 24.479 131.585 26.6004C131.551 28.7218 134.845 29.3034 136.738 29.0287C138.129 28.8268 139.272 30.085 139.781 30.7679C139.966 31.0153 140.026 31.3324 139.943 31.6298Z" fill="url(#paint18_linear_367_185)"/>
<path d="M140.853 38.4444C140.853 38.4444 141.07 34.7504 142.585 34.4649C144.1 34.1795 145.675 35.3275 144.3 37.4882C142.59 40.176 140.853 38.4451 140.853 38.4451V38.4444Z" fill="url(#paint19_linear_367_185)"/>
<path d="M105.431 54.2178L100.323 48.008C99.6473 46.5208 98.3728 44.5456 96.1025 43.4266C92.1325 41.4698 89.4199 40.2363 89.4199 40.2363C89.4199 40.2363 88.9559 42.4533 90.9412 43.2153C92.9265 43.9772 92.7939 45.0987 92.7939 45.0987L84.025 48.6149C83.1262 48.975 82.4414 49.7231 82.1622 50.6477L81.6772 52.2546C87.1927 52.897 92.6612 52.5875 98.0656 50.9686L101.617 57.7587C103.883 57.7561 105.034 56.4031 105.431 54.2184V54.2178Z" fill="url(#paint20_linear_367_185)"/>
<path d="M105.431 54.2188C104.764 55.9642 103.671 57.3325 101.617 57.759L108.83 71.5512C110.573 74.8302 114.078 76.2294 117.145 74.1277L120.193 72.1626L105.431 54.2188Z" fill="url(#paint21_linear_367_185)"/>
<path d="M128.02 50.123C125.545 53.3387 119.81 58.7611 113.696 66.2012L112.646 74.7266C114.577 75.874 115.57 77.0448 130.27 67.3233C127.84 59.725 125.545 55.1335 128.02 50.1237V50.123Z" fill="url(#paint22_linear_367_185)"/>
<path d="M103.366 60.4163C103.278 60.4163 103.193 60.4125 103.11 60.4036L103.132 60.1802C104.641 60.3308 106.854 59.0189 107.286 57.2734L107.505 57.3272C107.071 59.0771 104.946 60.4157 103.366 60.4157V60.4163Z" fill="#91B3FA"/>
<path d="M73.5424 144.723H71.2746V169.174H73.5424V144.723Z" fill="#91B3FA"/>
<path d="M62.6333 167.279H82.1837C82.2694 167.279 82.3386 167.349 82.3386 167.434V169.645H62.4784V167.434C62.4784 167.348 62.5482 167.279 62.6333 167.279Z" fill="#91B3FA"/>
<path d="M62.7539 138.35H82.8476C84.1931 138.35 85.2861 139.439 85.2861 140.781V142.98C85.2861 144.321 84.1931 145.411 82.8476 145.411H62.7539C61.4077 145.411 60.3154 144.321 60.3154 142.98V140.781C60.3154 139.439 61.4083 138.35 62.7539 138.35Z" fill="#91B3FA"/>
<path d="M83.4918 61.9844C83.4918 61.9844 105.058 66.7657 106.382 65.4791C102.504 68.8795 98.0586 71.2693 98.0586 71.2693C98.0586 71.2693 79.8995 68.4441 76.3052 64.664C79.6158 62.9058 83.4912 61.985 83.4912 61.985L83.4918 61.9844Z" fill="#BDD0FB"/>
<path opacity="0.7" d="M98.7682 60.9504L93.3771 66.6279C93.3771 66.6279 110.355 71.8194 117.117 66.6279C122.318 62.6769 122.602 58.6797 122.602 58.6797C122.602 58.6797 110.401 67.6336 98.7682 60.9511V60.9504Z" fill="white"/>
<path d="M95.7865 85.497L115.325 84.168L114.554 84.8021V85.5381H111.894L112.507 86.5197H115.833L114.608 88.3601L114.345 96.5811H112.419L114.17 98.7082L114.345 110.324L115.833 110.651L114.52 111.142L114.556 115.802L96.3285 115.589L92.3725 105.007L91.8469 88.5645L95.7865 85.497Z" fill="#91B3FA"/>
<path d="M82.628 82.7168L95.907 85.4571V91.6739L92.5641 90.529L92.7304 91.3467L95.8778 92.8193L96.3304 99.8544L92.493 98.3V99.0361L96.4326 101.163V106.398L92.8269 104.599L93.0103 105.662L96.4326 107.38L96.9714 115.803L84.1049 115.162L84.3271 106.562L81.6963 105.253L83.62 103.944L83.5318 98.3817L81.6925 95.8458L83.0057 95.0281L82.9181 87.3387L81.6925 85.6204L82.7511 83.8212L82.628 82.7168Z" fill="#BDD0FB"/>
<path d="M83.005 82.7157L98.6972 81.1816L115.308 84.1675L95.8741 85.4561L83.005 82.7157Z" fill="#91B3FA"/>
<path d="M99.1567 91.1822L114.549 90.2031L114.525 90.9385L99.1567 91.1822Z" fill="#91B3FA"/>
<path d="M101.652 100.314C101.914 100.14 114.183 99.5879 114.183 99.5879L114.201 100.816L101.652 100.314Z" fill="#91B3FA"/>
<path d="M81.6925 81.182L96.3996 84.1679C96.3996 84.1679 113.82 83.7382 115.308 80.6301C112.77 81.3661 98.5004 78.9941 98.5004 78.9941L81.6925 81.1826V81.182Z" fill="#BDD0FB"/>
<path opacity="0.6" d="M82.0422 77.767C82.0422 77.767 94.4726 82.2661 98.4997 82.2661C102.527 82.2661 114.201 77.3581 114.201 77.3581C114.201 77.3581 97.5369 76.9809 95.6113 75.002C91.322 76.2949 82.0428 77.767 82.0428 77.767H82.0422Z" fill="white"/>
<path d="M83.8809 76.54C83.8809 76.54 96.9562 80.1391 98.1221 80.2208C99.9005 80.3024 113.82 73.7585 113.82 73.7585L98.5004 71.877C98.5004 71.877 88.0832 77.276 83.8809 76.54Z" fill="#BDD0FB"/>
<path opacity="0.7" d="M83.3338 89.5256C83.1326 88.975 92.6568 92.9001 92.6568 92.9001L91.2122 93.452C91.2122 93.452 83.7368 90.6281 83.3338 89.5256Z" fill="white"/>
<path opacity="0.7" d="M94.4295 102.103C94.6916 102.113 84.4496 98.7285 84.4496 98.7285C84.4496 98.7285 89.5049 101.919 94.4295 102.103Z" fill="white"/>
<path d="M46.9215 88.9765V106.231C46.9215 107.651 48.0557 108.811 49.4787 108.848C55.7989 109.011 77.904 109.404 83.9209 109.316C84.9548 109.301 85.7926 108.476 85.8224 107.445C85.9386 103.436 86.1271 93.7977 85.4295 89.3227C85.2829 88.3803 84.4851 87.6753 83.5293 87.6449C78.2334 87.4759 54.8006 86.9399 48.7869 87.0741C47.7498 87.0975 46.9215 87.9424 46.9215 88.9765Z" fill="url(#paint23_linear_367_185)"/>
<path d="M63.414 113.291L63.9351 96.6539C63.9433 96.4811 64.0867 96.3457 64.26 96.3457H65.2368L65.5586 113.345L63.414 113.292V113.291Z" fill="url(#paint24_linear_367_185)"/>
<path d="M64.8078 96.3438L70.1741 96.5349C70.5352 96.5475 70.8272 96.833 70.8481 97.1931L71.7767 113.183L64.7538 113.343L64.8071 96.3438H64.8078Z" fill="url(#paint25_linear_367_185)"/>
<path d="M74.377 114.876H60.0723C59.6839 114.876 59.3919 114.6 59.4668 114.304L59.6502 113.58C59.7055 113.362 59.9454 113.203 60.231 113.193L74.0216 112.764C74.3199 112.755 74.5833 112.913 74.6487 113.139L74.9793 114.292C75.065 114.591 74.7718 114.876 74.377 114.876Z" fill="url(#paint26_linear_367_185)"/>
<path d="M67.7724 113.39C67.747 113.39 67.7261 113.37 67.7261 113.345C67.7261 113.319 67.7464 113.298 67.7718 113.298L68.3627 113.289C68.3874 113.289 68.4096 113.309 68.4096 113.335C68.4096 113.361 68.3893 113.381 68.3639 113.381L67.773 113.39H67.7724Z" fill="#91B3FA"/>
<path d="M59.9962 114.477C59.9962 114.477 59.9911 114.477 59.9886 114.477C59.9632 114.473 59.946 114.449 59.9498 114.424L60.0343 113.897C60.0793 113.614 60.3211 113.406 60.608 113.402L66.8756 113.311H66.8762C66.9016 113.311 66.9226 113.331 66.9226 113.356C66.9226 113.382 66.9023 113.403 66.8769 113.403L60.6093 113.494C60.3675 113.498 60.1637 113.673 60.1257 113.911L60.0412 114.438C60.0374 114.46 60.0178 114.477 59.9955 114.477H59.9962Z" fill="#91B3FA"/>
<path d="M120.474 116.292C120.527 115.919 120.455 115.533 120.277 115.24C120.098 114.947 119.834 114.777 119.554 114.777H24.7834C24.4153 114.777 24.0732 115.032 23.8746 115.453C23.6765 115.874 23.6499 116.403 23.8041 116.857L24.8311 119.876C25.0659 120.568 25.5755 121.011 26.1366 121.011H118.904C119.426 121.011 119.874 120.508 119.973 119.812L120.474 116.292V116.292Z" fill="#7D97F4"/>
<path d="M31.8876 173.291C31.7238 173.291 31.5581 173.262 31.3982 173.201C30.7692 172.961 30.4785 172.312 30.7489 171.753L56.7561 118.011C57.0264 117.452 57.7557 117.193 58.3853 117.433C59.0143 117.674 59.305 118.323 59.0346 118.881L33.0275 172.624C32.8256 173.041 32.368 173.291 31.8876 173.291Z" fill="#7D97F4"/>
<path d="M61.1856 173.292C60.7051 173.292 60.2475 173.042 60.0457 172.625L34.0385 118.882C33.7681 118.322 34.0588 117.674 34.6878 117.434C35.3168 117.193 36.0461 117.451 36.3171 118.011L62.3242 171.754C62.5946 172.313 62.3039 172.961 61.6749 173.202C61.515 173.263 61.3487 173.292 61.1856 173.292Z" fill="#7D97F4"/>
<path d="M83.203 173.895C83.0393 173.895 82.8736 173.866 82.7137 173.805C82.0847 173.565 81.794 172.916 82.0644 172.357L108.072 118.614C108.342 118.055 109.071 117.797 109.701 118.037C110.33 118.277 110.62 118.926 110.35 119.485L84.3429 173.228C84.1411 173.645 83.6835 173.895 83.203 173.895Z" fill="#7D97F4"/>
<path d="M112.501 173.895C112.021 173.895 111.563 173.645 111.361 173.228L85.354 119.485C85.0836 118.926 85.3737 118.278 86.0033 118.037C86.6323 117.797 87.3615 118.055 87.6326 118.614L113.64 172.357C113.91 172.917 113.62 173.565 112.99 173.805C112.831 173.866 112.664 173.895 112.501 173.895Z" fill="#7D97F4"/>
<path d="M33.1119 125.643L33.8361 129.889C33.8361 129.889 31.4122 154.373 30.9806 164.167C30.9127 165.702 31.3113 167.22 32.1199 168.529L36.3349 175.354L25.6219 169.051L25.4086 167.747L27.1623 165.343L24.8653 137.914C24.7302 136.303 25.064 134.687 25.8256 133.259L28.0413 129.108L33.1119 125.643Z" fill="url(#paint27_linear_367_185)"/>
<path d="M37.04 176.344H33.6215C32.9818 176.344 32.3782 176.051 31.9878 175.545C30.9222 174.164 28.7141 171.47 27.658 171.4C26.2369 171.305 26.4184 176.344 26.4184 176.344H25.6219L24.6127 170.083C24.3588 168.508 25.1446 166.947 26.5631 166.209C26.5631 166.209 26.8881 168.605 28.65 169.664C30.4119 170.725 35.8195 174.52 35.8195 174.52C35.8195 174.52 36.4821 174.426 37.2088 174.557C38.2878 174.751 38.1367 176.344 37.0406 176.344H37.04Z" fill="url(#paint28_linear_367_185)"/>
<path d="M23.9 125.643L24.6241 129.889C24.6241 129.889 22.1996 154.373 21.7687 164.167C21.7014 165.702 22.0993 167.22 22.9079 168.529L27.1229 175.354L16.41 169.051L16.1967 167.747L17.9504 165.343L15.6534 137.914C15.5182 136.303 15.8521 134.687 16.6137 133.259L18.8294 129.108L23.9 125.643Z" fill="url(#paint29_linear_367_185)"/>
<path d="M11.6726 97.5506C12.2559 92.8679 18.1338 88.4505 18.1338 88.4505C25.5603 91.1022 30.8549 87.1797 30.8549 87.1797C30.8549 87.1797 33.1665 91.9167 33.1906 96.7418C33.2153 101.567 34.2448 132.481 34.2448 132.481C27.7481 135.196 19.9718 134.843 16.5718 134.51C15.6134 134.417 14.8829 133.607 14.8988 132.648C15.093 121.197 11.116 102.011 11.6713 97.5506H11.6726Z" fill="url(#paint30_linear_367_185)"/>
<path d="M64.564 71.28C64.7119 70.8521 64.2581 70.4642 63.8564 70.6749C62.3705 71.4559 59.5696 72.5982 57.274 71.628C57.1585 71.5793 57.0461 71.535 56.9369 71.4939C57.0918 71.2066 57.3533 70.9585 57.7989 70.8794C59.0752 70.6522 59.2739 68.7086 59.2739 68.7086C59.2739 68.7086 58.2666 69.5396 56.9884 69.3826C55.8872 69.2472 54.4604 70.0269 53.9209 71.3344C51.2768 75.5145 47.9281 81.2002 39.6086 79.1447C31.289 77.0891 31.263 63.3887 31.263 63.3887L25.903 75.1462C25.903 75.1462 27.0639 84.7133 39.1402 85.7538C51.2165 86.7942 55.6453 74.4121 55.6453 74.4121C55.6453 74.4121 62.4035 77.5125 64.564 71.2793V71.28Z" fill="url(#paint31_linear_367_185)"/>
<path d="M28.7636 40.3704C28.7636 40.3704 22.529 36.0074 19.1982 43.7962C18.5895 45.2195 15.0784 45.4549 14.7191 48.3453C14.5338 49.8376 13.4263 51.0324 11.936 51.2603C8.22371 51.828 2.50259 53.75 1.58673 60.1768C0.887938 65.0828 3.39624 66.9429 6.02831 67.5865C7.96158 68.0592 7.23994 68.7459 6.84897 70.692C6.47386 72.5583 9.76157 71.7375 13.0048 73.4437C20.2727 77.2675 26.8081 68.5529 26.8081 68.5529L28.2958 46.0581L28.7636 40.3698V40.3704Z" fill="url(#paint32_linear_367_185)"/>
<path d="M27.8287 176.342H24.4103C23.7705 176.342 23.1669 176.049 22.7766 175.543C21.7109 174.162 19.5028 171.468 18.4467 171.398C17.0256 171.303 17.2072 176.342 17.2072 176.342H16.4106L15.4015 170.081C15.1476 168.506 15.9333 166.945 17.3519 166.207C17.3519 166.207 17.6768 168.603 19.4387 169.663C21.2006 170.723 26.6082 174.518 26.6082 174.518C26.6082 174.518 27.2702 174.424 27.9975 174.555C29.0765 174.749 28.9255 176.342 27.8294 176.342H27.8287Z" fill="url(#paint33_linear_367_185)"/>
<path d="M18.1985 88.6277C21.862 73.1489 12.1912 64.9083 12.1912 64.9083C16.8257 59.9694 25.6923 59.4232 29.312 59.3618C30.3941 59.3435 31.4122 59.8567 32.0545 60.725C33.8716 63.1825 37.3002 68.5283 36.4021 72.8477C35.6944 76.2526 30.9228 89.8638 30.9228 89.8638C30.9228 89.8638 24.9599 92.6775 18.1979 88.6277H18.1985Z" fill="url(#paint34_linear_367_185)"/>
<path d="M24.9853 48.5082L22.602 60.2765C22.317 61.4518 24.0193 61.7068 25.2277 61.8049C27.2937 61.9733 28.4532 61.4847 29.2936 59.9708C29.3792 59.8171 29.4218 59.6424 29.4459 59.4683L30.7254 50.2183C30.827 49.4841 30.429 48.7722 29.7499 48.4715L27.281 47.3798C26.3302 46.9596 25.2296 47.5001 24.9853 48.5082Z" fill="url(#paint35_linear_367_185)"/>
<path d="M34.8592 42.2916C34.8592 42.2916 36.4459 45.7661 34.7596 51.1259C33.0732 56.4857 30.1612 57.0027 28.287 55.7212C26.4127 54.439 23.9704 52.1315 23.5814 47.3122C23.1923 42.4935 32.6809 37.9001 34.8592 42.2916Z" fill="url(#paint36_linear_367_185)"/>
<path d="M27.1839 46.929C27.1839 46.929 30.2755 39.6604 35.2 44.0595L35.6088 45.9082C35.6088 45.9082 40.1938 44.5127 38.6001 40.3756C37.0064 36.2391 32.4734 34.2886 27.5945 37.0809C22.715 39.8725 20.0709 42.3122 20.4073 46.0987C20.7437 49.8851 23.5693 48.5346 23.5693 48.5346C23.5693 48.5346 24.065 45.7367 25.3947 45.2164C26.7244 44.6962 26.7352 46.8068 26.7352 46.8068L27.1839 46.9296V46.929Z" fill="url(#paint37_linear_367_185)"/>
<path d="M25.9983 48.1739C25.9983 48.1739 27.6091 44.4469 25.2525 44.3571C22.8959 44.2678 23.9235 47.9461 24.4179 49.2859L25.9983 48.1739Z" fill="url(#paint38_linear_367_185)"/>
<path d="M6.23077 115.02L6.54685 124.82C6.60207 126.529 8.00855 127.889 9.7311 127.899L33.268 128.038C34.4193 128.045 35.4006 127.211 35.5688 126.08C35.9369 123.604 36.4059 119.176 35.8779 115.02H6.23077Z" fill="url(#paint39_linear_367_185)"/>
<path d="M32.7812 127.478C32.7438 127.478 32.7127 127.448 32.7114 127.41C32.7101 127.371 32.7399 127.339 32.7787 127.337C32.9151 127.332 33.0509 127.314 33.1823 127.283C33.2198 127.274 33.2579 127.298 33.2667 127.336C33.2756 127.373 33.2521 127.411 33.2141 127.42C33.0738 127.452 32.9291 127.472 32.7837 127.478H32.7812ZM31.7981 127.474L31.3766 127.471C31.3379 127.471 31.3068 127.44 31.3068 127.401C31.3068 127.362 31.3385 127.331 31.3773 127.331L31.7987 127.334C31.8374 127.334 31.8685 127.366 31.8685 127.404C31.8685 127.443 31.8368 127.474 31.7981 127.474ZM30.3935 127.466L29.9721 127.463C29.9333 127.463 29.9022 127.431 29.9022 127.393C29.9022 127.354 29.934 127.323 29.9727 127.323L30.3941 127.326C30.4328 127.326 30.4639 127.357 30.4639 127.396C30.4639 127.435 30.4322 127.466 30.3935 127.466ZM28.9889 127.457L28.5675 127.455C28.5288 127.455 28.4977 127.423 28.4977 127.385C28.4977 127.346 28.5294 127.315 28.5681 127.315L28.9895 127.318C29.0283 127.318 29.0594 127.349 29.0594 127.388C29.0594 127.426 29.0276 127.457 28.9889 127.457ZM27.5843 127.449L27.1629 127.447C27.1242 127.447 27.0931 127.415 27.0931 127.376C27.0931 127.338 27.1305 127.306 27.1635 127.307L27.585 127.309C27.6237 127.309 27.6548 127.341 27.6548 127.38C27.6548 127.418 27.6231 127.449 27.5843 127.449ZM26.1798 127.441L25.7583 127.438C25.7196 127.438 25.6885 127.407 25.6885 127.368C25.6885 127.33 25.7203 127.299 25.759 127.299L26.1804 127.301C26.2191 127.301 26.2502 127.333 26.2502 127.371C26.2502 127.41 26.2185 127.441 26.1798 127.441ZM24.7752 127.433L24.3538 127.43C24.315 127.43 24.2839 127.399 24.2839 127.36C24.2839 127.321 24.3157 127.29 24.3544 127.29L24.7758 127.293C24.8145 127.293 24.8456 127.324 24.8456 127.363C24.8456 127.402 24.8139 127.433 24.7752 127.433ZM23.3706 127.424L22.9492 127.422C22.9105 127.422 22.8794 127.39 22.8794 127.352C22.8794 127.313 22.9111 127.282 22.9498 127.282L23.3713 127.285C23.41 127.285 23.4411 127.316 23.4411 127.355C23.4411 127.393 23.4093 127.424 23.3706 127.424ZM21.966 127.416L21.5446 127.414C21.5059 127.414 21.4748 127.382 21.4748 127.343C21.4748 127.305 21.5065 127.274 21.5452 127.274L21.9667 127.276C22.0054 127.276 22.0365 127.308 22.0365 127.347C22.0365 127.385 22.0048 127.416 21.966 127.416ZM20.5615 127.408L20.14 127.405C20.1013 127.405 20.0702 127.374 20.0702 127.335C20.0702 127.297 20.102 127.266 20.1407 127.266L20.5621 127.268C20.6008 127.268 20.6319 127.3 20.6319 127.338C20.6319 127.377 20.6002 127.408 20.5615 127.408ZM19.1569 127.4L18.7355 127.397C18.6968 127.397 18.6657 127.366 18.6657 127.327C18.6657 127.288 18.6974 127.257 18.7361 127.257L19.1575 127.26C19.1963 127.26 19.2274 127.292 19.2274 127.33C19.2274 127.369 19.1956 127.4 19.1569 127.4ZM17.7523 127.392L17.3309 127.389C17.2922 127.389 17.2611 127.357 17.2611 127.319C17.2611 127.28 17.2928 127.249 17.3315 127.249L17.753 127.252C17.7917 127.252 17.8228 127.283 17.8228 127.322C17.8228 127.361 17.791 127.392 17.7523 127.392ZM16.3478 127.383L15.9263 127.381C15.8876 127.381 15.8565 127.349 15.8565 127.311C15.8565 127.272 15.8882 127.241 15.927 127.241L16.3484 127.243C16.3871 127.243 16.4182 127.275 16.4182 127.314C16.4182 127.352 16.3865 127.383 16.3478 127.383ZM14.9432 127.375L14.5217 127.373C14.483 127.373 14.4519 127.341 14.4519 127.302C14.4519 127.264 14.4837 127.233 14.5224 127.233L14.9438 127.235C14.9825 127.235 15.0136 127.267 15.0136 127.305C15.0136 127.344 14.9819 127.375 14.9432 127.375ZM13.5386 127.367L13.1172 127.364C13.0785 127.364 13.0474 127.333 13.0474 127.294C13.0474 127.255 13.0842 127.23 13.1178 127.224L13.5392 127.227C13.578 127.227 13.6091 127.259 13.6091 127.297C13.6091 127.336 13.5773 127.367 13.5386 127.367ZM12.134 127.359L11.7126 127.356C11.6739 127.356 11.6428 127.324 11.6428 127.286C11.6428 127.247 11.6745 127.216 11.7132 127.216L12.1347 127.219C12.1734 127.219 12.2045 127.25 12.2045 127.289C12.2045 127.328 12.1728 127.359 12.134 127.359ZM10.7295 127.35L10.308 127.348C10.2693 127.348 10.2382 127.316 10.2382 127.278C10.2382 127.239 10.2699 127.208 10.3087 127.208L10.7301 127.211C10.7688 127.211 10.7999 127.242 10.7999 127.281C10.7999 127.319 10.7682 127.35 10.7295 127.35ZM9.34139 127.194C9.33441 127.194 9.32679 127.193 9.31918 127.19C9.18399 127.146 9.04943 127.091 8.92059 127.028C8.88568 127.011 8.87172 126.969 8.88886 126.934C8.90599 126.899 8.94788 126.885 8.98279 126.902C9.10592 126.963 9.23413 127.015 9.36297 127.058C9.39978 127.07 9.42009 127.11 9.4074 127.147C9.39788 127.176 9.36995 127.195 9.34076 127.195L9.34139 127.194ZM34.0772 126.999C34.0563 126.999 34.036 126.99 34.0227 126.973C33.9985 126.942 34.0036 126.899 34.0334 126.874C34.1401 126.789 34.2378 126.694 34.3254 126.591C34.3502 126.561 34.3946 126.557 34.4244 126.583C34.4542 126.608 34.4574 126.652 34.4327 126.681C34.3394 126.791 34.2346 126.893 34.121 126.983C34.1083 126.993 34.0925 126.998 34.0772 126.998V126.999ZM8.15515 126.469C8.13738 126.469 8.11961 126.462 8.10565 126.449C8.00346 126.349 7.90762 126.24 7.82067 126.127C7.79719 126.097 7.8029 126.052 7.834 126.029C7.8651 126.006 7.90889 126.011 7.93238 126.042C8.01552 126.15 8.10692 126.254 8.20466 126.35C8.23195 126.378 8.23258 126.422 8.20466 126.449C8.19069 126.463 8.17292 126.47 8.15452 126.47L8.15515 126.469ZM34.8287 125.844C34.823 125.844 34.8167 125.844 34.8109 125.842C34.7735 125.833 34.7506 125.794 34.7608 125.757C34.7798 125.685 34.7944 125.611 34.8052 125.537L34.8325 125.351C34.8382 125.312 34.8731 125.285 34.9119 125.291C34.9506 125.297 34.9766 125.332 34.9715 125.37L34.9442 125.557C34.9328 125.635 34.9163 125.714 34.8966 125.792C34.8884 125.823 34.8598 125.844 34.8287 125.844ZM7.4151 125.294C7.38591 125.294 7.35861 125.275 7.34846 125.246C7.30213 125.111 7.26531 124.971 7.23866 124.831C7.23168 124.793 7.25643 124.756 7.29451 124.749C7.33259 124.742 7.3694 124.767 7.37638 124.805C7.40177 124.939 7.43732 125.073 7.48111 125.201C7.4938 125.238 7.47413 125.278 7.43732 125.29C7.4297 125.292 7.42208 125.294 7.41447 125.294H7.4151ZM35.0331 124.459C35.0331 124.459 35.0274 124.459 35.0242 124.459C34.9855 124.454 34.9582 124.419 34.9633 124.381C34.9798 124.246 34.9969 124.106 35.0134 123.965C35.0179 123.926 35.0534 123.899 35.0915 123.903C35.1302 123.908 35.1575 123.942 35.153 123.981C35.1365 124.123 35.12 124.263 35.1029 124.399C35.0985 124.434 35.068 124.46 35.0331 124.46V124.459ZM7.23929 123.911C7.20184 123.911 7.17011 123.882 7.16948 123.844L7.15615 123.423C7.15488 123.385 7.18534 123.353 7.22406 123.351C7.2596 123.349 7.29514 123.38 7.29641 123.419L7.30974 123.839C7.31101 123.878 7.28055 123.91 7.24183 123.911H7.23929ZM35.1867 123.066C35.1867 123.066 35.1822 123.066 35.1797 123.066C35.141 123.063 35.1131 123.029 35.1162 122.99C35.1296 122.853 35.1423 122.713 35.1543 122.572C35.1575 122.534 35.1911 122.507 35.2305 122.508C35.2692 122.511 35.2978 122.546 35.2946 122.584C35.2825 122.726 35.2692 122.866 35.2565 123.003C35.2533 123.039 35.2222 123.066 35.1867 123.066ZM7.19423 122.511C7.15678 122.511 7.12505 122.482 7.12441 122.444L7.11108 122.024C7.10981 121.985 7.14028 121.953 7.179 121.951C7.21708 121.951 7.25008 121.98 7.25135 122.019L7.26468 122.439C7.26595 122.478 7.23548 122.51 7.19677 122.511H7.19423ZM35.3003 121.67C35.3003 121.67 35.2971 121.67 35.2958 121.67C35.2571 121.668 35.2279 121.634 35.2305 121.596C35.2394 121.458 35.2482 121.318 35.2565 121.177C35.2584 121.138 35.292 121.108 35.3308 121.111C35.3695 121.113 35.3993 121.146 35.3968 121.185C35.3885 121.326 35.3803 121.467 35.3707 121.605C35.3682 121.642 35.3371 121.67 35.3009 121.67H35.3003ZM7.14917 121.112C7.11172 121.112 7.07998 121.082 7.07935 121.044L7.06602 120.624C7.06475 120.585 7.09522 120.553 7.13393 120.551C7.17138 120.549 7.20502 120.581 7.20629 120.619L7.21962 121.039C7.22089 121.078 7.19042 121.11 7.1517 121.112H7.14917ZM35.3707 120.271H35.3688C35.3295 120.27 35.299 120.238 35.3003 120.199C35.3047 120.06 35.3092 119.92 35.3124 119.779C35.3136 119.741 35.3504 119.712 35.3841 119.711C35.4228 119.712 35.4533 119.744 35.4526 119.783C35.4494 119.924 35.445 120.064 35.4406 120.203C35.4393 120.241 35.4082 120.271 35.3707 120.271ZM7.1041 119.712C7.06666 119.712 7.03492 119.682 7.03429 119.644L7.02096 119.224C7.01969 119.185 7.05015 119.153 7.08887 119.152C7.12632 119.153 7.15996 119.181 7.16122 119.219L7.17455 119.639C7.17582 119.678 7.14536 119.71 7.10664 119.712H7.1041ZM35.3942 118.871C35.3555 118.871 35.3238 118.84 35.3238 118.801C35.3238 118.662 35.3225 118.522 35.3206 118.381C35.3206 118.343 35.3511 118.311 35.3898 118.31C35.4241 118.31 35.4602 118.341 35.4609 118.379C35.4628 118.52 35.4634 118.66 35.464 118.8C35.464 118.839 35.4329 118.871 35.3936 118.871H35.3942ZM7.05904 118.312C7.02159 118.312 6.98986 118.282 6.98922 118.244L6.97589 117.824C6.97463 117.785 7.00509 117.753 7.04381 117.752C7.07681 117.751 7.11489 117.781 7.11616 117.819L7.12949 118.24C7.13076 118.278 7.10029 118.31 7.06158 118.312H7.05904ZM35.3644 117.471C35.3269 117.471 35.2959 117.442 35.2946 117.404C35.2889 117.264 35.2819 117.124 35.2743 116.985C35.2724 116.946 35.3016 116.913 35.3403 116.911C35.379 116.908 35.412 116.938 35.4139 116.977C35.4215 117.117 35.4285 117.257 35.4342 117.398C35.4361 117.436 35.4056 117.469 35.3669 117.471H35.3638H35.3644ZM7.01334 116.912C6.97589 116.912 6.94416 116.882 6.94353 116.844L6.9302 116.424C6.92893 116.385 6.95939 116.353 6.99811 116.352C7.03111 116.348 7.06919 116.381 7.07046 116.419L7.08379 116.839C7.08506 116.878 7.0546 116.91 7.01588 116.911H7.01334V116.912ZM35.2736 116.073C35.2375 116.073 35.207 116.045 35.2038 116.009C35.1911 115.869 35.1778 115.73 35.1638 115.592C35.16 115.553 35.188 115.519 35.2267 115.515C35.2654 115.511 35.2997 115.539 35.3041 115.578C35.3187 115.718 35.332 115.857 35.3447 115.997C35.3479 116.036 35.3193 116.07 35.2813 116.073C35.2793 116.073 35.2768 116.073 35.2749 116.073L35.2736 116.073ZM6.96764 115.512C6.9302 115.512 6.89846 115.482 6.89783 115.444L6.8845 115.024C6.88323 114.985 6.91369 114.953 6.95241 114.952C6.98605 114.952 7.0235 114.981 7.02477 115.02L7.03809 115.44C7.03936 115.478 7.0089 115.511 6.97018 115.512H6.96764ZM34.7526 115.092H34.3311C34.2924 115.092 34.2607 115.061 34.2607 115.021C34.2607 114.982 34.2918 114.951 34.3311 114.951H34.7526C34.7913 114.951 34.823 114.983 34.823 115.021C34.823 115.06 34.7919 115.092 34.7526 115.092ZM33.348 115.092H32.9265C32.8878 115.092 32.8561 115.061 32.8561 115.021C32.8561 114.982 32.8872 114.951 32.9265 114.951H33.348C33.3867 114.951 33.4184 114.983 33.4184 115.021C33.4184 115.06 33.3873 115.092 33.348 115.092ZM31.9434 115.092H31.522C31.4833 115.092 31.4515 115.061 31.4515 115.021C31.4515 114.982 31.4826 114.951 31.522 114.951H31.9434C31.9821 114.951 32.0139 114.983 32.0139 115.021C32.0139 115.06 31.9828 115.092 31.9434 115.092ZM30.5388 115.092H30.1174C30.0787 115.092 30.0469 115.061 30.0469 115.021C30.0469 114.982 30.078 114.951 30.1174 114.951H30.5388C30.5775 114.951 30.6093 114.983 30.6093 115.021C30.6093 115.06 30.5782 115.092 30.5388 115.092ZM29.1343 115.092H28.7128C28.6741 115.092 28.6424 115.061 28.6424 115.021C28.6424 114.982 28.6735 114.951 28.7128 114.951H29.1343C29.173 114.951 29.2047 114.983 29.2047 115.021C29.2047 115.06 29.1736 115.092 29.1343 115.092ZM27.7297 115.092H27.3083C27.2695 115.092 27.2378 115.061 27.2378 115.021C27.2378 114.982 27.2689 114.951 27.3083 114.951H27.7297C27.7684 114.951 27.8001 114.983 27.8001 115.021C27.8001 115.06 27.769 115.092 27.7297 115.092ZM26.3251 115.092H25.9037C25.865 115.092 25.8332 115.061 25.8332 115.021C25.8332 114.982 25.8643 114.951 25.9037 114.951H26.3251C26.3638 114.951 26.3956 114.983 26.3956 115.021C26.3956 115.06 26.3645 115.092 26.3251 115.092ZM24.9205 115.092H24.4991C24.4604 115.092 24.4287 115.061 24.4287 115.021C24.4287 114.982 24.4598 114.951 24.4991 114.951H24.9205C24.9593 114.951 24.991 114.983 24.991 115.021C24.991 115.06 24.9599 115.092 24.9205 115.092ZM23.516 115.092H23.0945C23.0558 115.092 23.0241 115.061 23.0241 115.021C23.0241 114.982 23.0552 114.951 23.0945 114.951H23.516C23.5547 114.951 23.5864 114.983 23.5864 115.021C23.5864 115.06 23.5553 115.092 23.516 115.092ZM22.1114 115.092H21.69C21.6512 115.092 21.6195 115.061 21.6195 115.021C21.6195 114.982 21.6506 114.951 21.69 114.951H22.1114C22.1501 114.951 22.1818 114.983 22.1818 115.021C22.1818 115.06 22.1507 115.092 22.1114 115.092ZM20.7068 115.092H20.2854C20.2467 115.092 20.2149 115.061 20.2149 115.021C20.2149 114.982 20.246 114.951 20.2854 114.951H20.7068C20.7455 114.951 20.7773 114.983 20.7773 115.021C20.7773 115.06 20.7462 115.092 20.7068 115.092ZM19.3022 115.092H18.8808C18.8421 115.092 18.8104 115.061 18.8104 115.021C18.8104 114.982 18.8415 114.951 18.8808 114.951H19.3022C19.341 114.951 19.3727 114.983 19.3727 115.021C19.3727 115.06 19.3416 115.092 19.3022 115.092ZM17.8977 115.092H17.4762C17.4375 115.092 17.4058 115.061 17.4058 115.021C17.4058 114.982 17.4369 114.951 17.4762 114.951H17.8977C17.9364 114.951 17.9681 114.983 17.9681 115.021C17.9681 115.06 17.937 115.092 17.8977 115.092ZM16.4931 115.092H16.0717C16.0329 115.092 16.0012 115.061 16.0012 115.021C16.0012 114.982 16.0323 114.951 16.0717 114.951H16.4931C16.5318 114.951 16.5636 114.983 16.5636 115.021C16.5636 115.06 16.5325 115.092 16.4931 115.092ZM15.0885 115.092H14.6671C14.6284 115.092 14.5966 115.061 14.5966 115.021C14.5966 114.982 14.6277 114.951 14.6671 114.951H15.0885C15.1272 114.951 15.159 114.983 15.159 115.021C15.159 115.06 15.1279 115.092 15.0885 115.092ZM13.684 115.092H13.2625C13.2238 115.092 13.1921 115.061 13.1921 115.021C13.1921 114.982 13.2232 114.951 13.2625 114.951H13.684C13.7227 114.951 13.7544 114.983 13.7544 115.021C13.7544 115.06 13.7233 115.092 13.684 115.092ZM12.2794 115.092H11.8579C11.8192 115.092 11.7875 115.061 11.7875 115.021C11.7875 114.982 11.8186 114.951 11.8579 114.951H12.2794C12.3181 114.951 12.3498 114.983 12.3498 115.021C12.3498 115.06 12.3187 115.092 12.2794 115.092ZM10.8748 115.092H10.4534C10.4147 115.092 10.3829 115.061 10.3829 115.021C10.3829 114.982 10.414 114.951 10.4534 114.951H10.8748C10.9135 114.951 10.9453 114.983 10.9453 115.021C10.9453 115.06 10.9142 115.092 10.8748 115.092ZM9.47023 115.092H9.0488C9.01008 115.092 8.97835 115.061 8.97835 115.021C8.97835 114.982 9.00945 114.951 9.0488 114.951H9.47023C9.50895 114.951 9.54068 114.983 9.54068 115.021C9.54068 115.06 9.50958 115.092 9.47023 115.092ZM8.06566 115.092H7.64423C7.60551 115.092 7.57377 115.061 7.57377 115.021C7.57377 114.982 7.60487 114.951 7.64423 114.951H8.06566C8.10438 114.951 8.13611 114.983 8.13611 115.021C8.13611 115.06 8.10501 115.092 8.06566 115.092Z" fill="white"/>
<path d="M13.1286 107.905L13.1997 107.149C13.2797 106.969 13.4453 106.841 13.6414 106.81C14.3745 106.694 16.1935 106.489 17.0688 107.142L17.1995 108.02L13.1286 107.906V107.905Z" fill="url(#paint40_linear_367_185)"/>
<path d="M15.4192 107.177C15.2504 107.218 15.0816 107.218 14.9121 107.177C14.7071 107.127 14.5624 106.944 14.5624 106.734V104.367H15.7702V106.732C15.7702 106.943 15.6255 107.127 15.4192 107.177Z" fill="url(#paint41_linear_367_185)"/>
<path d="M24.8285 107.905L24.8996 107.149C24.9796 106.969 25.1452 106.841 25.3414 106.81C26.0744 106.694 27.8934 106.489 28.7687 107.142L28.8994 108.02L24.8285 107.906V107.905Z" fill="url(#paint42_linear_367_185)"/>
<path d="M27.1191 107.178C26.9503 107.22 26.7815 107.22 26.612 107.178C26.407 107.128 26.2623 106.946 26.2623 106.735V104.119H27.4701V106.734C27.4701 106.944 27.3254 107.128 27.1191 107.178Z" fill="url(#paint43_linear_367_185)"/>
<path d="M14.4399 104.948L27.4301 104.519C27.7265 104.509 27.9779 104.296 28.0286 104.006C28.0997 103.6 28.1626 102.994 28.0693 102.364C27.9626 101.649 27.3457 101.117 26.6171 101.1C24.1938 101.042 18.0246 101.044 14.6239 102.385C14.2641 102.527 13.9975 102.833 13.9067 103.207C13.8198 103.563 13.762 104.038 13.8756 104.522C13.9359 104.779 14.1746 104.956 14.4405 104.947L14.4399 104.948Z" fill="url(#paint44_linear_367_185)"/>
<path d="M14.2146 104.357C14.1435 104.357 14.0826 104.304 14.0749 104.231C14.073 104.21 14.0242 103.709 14.1549 103.225C14.259 102.841 14.5637 102.533 14.9496 102.419C15.6769 102.207 17.0675 101.845 18.2074 101.813C18.2855 101.811 18.3496 101.871 18.3515 101.949C18.3534 102.026 18.2925 102.09 18.215 102.093C17.1069 102.124 15.7429 102.479 15.0289 102.688C14.7363 102.774 14.5053 103.007 14.4266 103.299C14.3085 103.733 14.3542 104.198 14.3548 104.204C14.3625 104.281 14.3066 104.349 14.2292 104.357C14.2241 104.357 14.2197 104.357 14.2152 104.357H14.2146Z" fill="#91B3FA"/>
<path d="M7.10158 107.612C11.2982 107.558 29.4535 107.368 34.7272 108.002C35.181 108.057 35.5516 108.388 35.65 108.831C35.9617 110.236 36.5887 113.499 36.5145 116.734C36.5043 117.174 36.1806 117.545 35.7446 117.627L23.7064 119.898H19.4305L6.60398 117.356C6.15208 117.266 5.81887 116.884 5.79538 116.428C5.71224 114.8 5.58149 110.982 6.02324 108.524C6.11717 108.001 6.5678 107.617 7.10221 107.61L7.10158 107.612Z" fill="url(#paint45_linear_367_185)"/>
<path d="M19.5327 118.934C19.5282 118.934 19.5238 118.934 19.5187 118.932L19.1055 118.851C19.0674 118.843 19.0427 118.807 19.0503 118.769C19.0579 118.731 19.0941 118.705 19.1328 118.713L19.5422 118.794C19.5422 118.794 19.5485 118.794 19.5517 118.794H19.9731C20.0119 118.794 20.0436 118.825 20.0436 118.864C20.0436 118.903 20.0119 118.934 19.9731 118.934H19.5517C19.5485 118.934 19.5454 118.934 19.5422 118.934C19.539 118.934 19.5358 118.934 19.5327 118.934V118.934ZM22.7829 118.934H22.3615C22.3228 118.934 22.291 118.903 22.291 118.863C22.291 118.824 22.3221 118.793 22.3615 118.793H22.7829C22.8216 118.793 22.8534 118.824 22.8534 118.863C22.8534 118.903 22.8216 118.934 22.7829 118.934ZM21.3783 118.934H20.9569C20.9182 118.934 20.8865 118.903 20.8865 118.863C20.8865 118.824 20.9176 118.793 20.9569 118.793H21.3783C21.4171 118.793 21.4488 118.824 21.4488 118.863C21.4488 118.903 21.4171 118.934 21.3783 118.934ZM23.7635 118.905C23.7305 118.905 23.7007 118.881 23.6943 118.848C23.6874 118.81 23.7121 118.773 23.7502 118.766L24.164 118.688C24.2027 118.681 24.2389 118.706 24.2459 118.744C24.2529 118.782 24.2281 118.819 24.19 118.825L23.7762 118.903C23.7718 118.904 23.7673 118.905 23.7629 118.905H23.7635ZM18.1554 118.66C18.1509 118.66 18.1465 118.66 18.1414 118.659L17.7282 118.577C17.6901 118.57 17.6654 118.533 17.673 118.495C17.6806 118.457 17.7168 118.432 17.7555 118.44L18.1687 118.522C18.2068 118.529 18.2315 118.566 18.2239 118.604C18.2176 118.638 18.1877 118.66 18.1554 118.66ZM25.144 118.644C25.111 118.644 25.0811 118.62 25.0748 118.587C25.0678 118.549 25.0926 118.512 25.1306 118.505L25.5445 118.427C25.5825 118.42 25.6194 118.445 25.6263 118.483C25.6333 118.521 25.6086 118.558 25.5705 118.565L25.1567 118.643C25.1522 118.643 25.1478 118.644 25.1433 118.644H25.144ZM16.7775 118.387C16.773 118.387 16.7686 118.387 16.7635 118.386L16.3503 118.304C16.3122 118.296 16.2875 118.26 16.2951 118.222C16.3027 118.184 16.3395 118.159 16.3776 118.167L16.7908 118.248C16.8289 118.256 16.8536 118.293 16.846 118.331C16.8397 118.364 16.8098 118.387 16.7775 118.387ZM26.5238 118.383C26.4908 118.383 26.461 118.36 26.4546 118.326C26.4476 118.288 26.4724 118.251 26.5105 118.245L26.9243 118.167C26.9624 118.16 26.9992 118.184 27.0062 118.222C27.0131 118.26 26.9884 118.297 26.9503 118.304L26.5365 118.382C26.532 118.382 26.5276 118.383 26.5232 118.383H26.5238ZM27.9042 118.122C27.8712 118.122 27.8414 118.099 27.8351 118.065C27.8281 118.027 27.8528 117.991 27.8909 117.984L28.3047 117.906C28.3428 117.899 28.3796 117.924 28.3866 117.962C28.3936 118 28.3688 118.036 28.3308 118.043L27.9169 118.121C27.9125 118.122 27.9081 118.122 27.9036 118.122H27.9042ZM15.3995 118.114C15.3951 118.114 15.3907 118.114 15.3856 118.112L14.9724 118.031C14.9343 118.023 14.9096 117.986 14.9172 117.948C14.9248 117.91 14.961 117.885 14.9997 117.893L15.4129 117.975C15.451 117.982 15.4757 118.019 15.4681 118.057C15.4617 118.091 15.4319 118.114 15.3995 118.114ZM29.2841 117.862C29.2511 117.862 29.2212 117.839 29.2149 117.805C29.2079 117.767 29.2327 117.731 29.2707 117.724L29.6846 117.646C29.7226 117.638 29.7594 117.664 29.7664 117.702C29.7734 117.739 29.7487 117.776 29.7106 117.783L29.2968 117.861C29.2923 117.862 29.2879 117.862 29.2834 117.862H29.2841ZM14.0216 117.84C14.0172 117.84 14.0127 117.84 14.0077 117.839L13.5945 117.757C13.5564 117.75 13.5316 117.713 13.5393 117.675C13.5469 117.637 13.5843 117.612 13.6218 117.62L14.035 117.702C14.073 117.709 14.0978 117.746 14.0902 117.784C14.0838 117.817 14.054 117.84 14.0216 117.84ZM30.6645 117.602C30.6315 117.602 30.6017 117.578 30.5953 117.545C30.5884 117.507 30.6131 117.47 30.6512 117.463L31.065 117.385C31.1031 117.379 31.1399 117.403 31.1469 117.441C31.1539 117.479 31.1291 117.515 31.091 117.522L30.6772 117.6C30.6728 117.601 30.6683 117.602 30.6639 117.602H30.6645ZM12.6437 117.567C12.6393 117.567 12.6348 117.567 12.6297 117.566L12.2166 117.484C12.1785 117.477 12.1537 117.44 12.1613 117.402C12.169 117.364 12.2051 117.34 12.2439 117.347L12.657 117.429C12.6951 117.436 12.7199 117.473 12.7123 117.511C12.7059 117.545 12.6761 117.567 12.6437 117.567ZM32.0443 117.341C32.0113 117.341 31.9815 117.318 31.9752 117.284C31.9682 117.246 31.9929 117.21 32.031 117.203L32.4448 117.125C32.4829 117.118 32.5197 117.143 32.5267 117.181C32.5337 117.219 32.5089 117.255 32.4709 117.262L32.057 117.34C32.0526 117.341 32.0481 117.341 32.0437 117.341H32.0443ZM11.2658 117.294C11.2614 117.294 11.2569 117.294 11.2518 117.293L10.8386 117.211C10.8006 117.203 10.7758 117.167 10.7834 117.129C10.791 117.091 10.8279 117.066 10.8659 117.074L11.2791 117.155C11.3172 117.163 11.342 117.2 11.3343 117.238C11.328 117.271 11.2982 117.294 11.2658 117.294ZM33.4248 117.081C33.3918 117.081 33.362 117.057 33.3556 117.024C33.3486 116.986 33.3734 116.949 33.4115 116.942L33.8253 116.864C33.864 116.858 33.9002 116.882 33.9072 116.92C33.9141 116.958 33.8894 116.995 33.8513 117.002L33.4375 117.079C33.433 117.08 33.4286 117.081 33.4242 117.081H33.4248ZM9.88851 117.021C9.88407 117.021 9.87963 117.021 9.87455 117.019L9.46137 116.938C9.42328 116.93 9.39853 116.893 9.40615 116.855C9.41376 116.817 9.44994 116.793 9.48866 116.8L9.90184 116.882C9.93992 116.89 9.96468 116.926 9.95706 116.964C9.95071 116.998 9.92088 117.021 9.88851 117.021ZM34.8053 116.82C34.7722 116.82 34.7424 116.796 34.7361 116.763C34.7291 116.725 34.7538 116.688 34.7919 116.681L35.2057 116.603C35.2445 116.597 35.2806 116.621 35.2876 116.659C35.2946 116.697 35.2698 116.734 35.2318 116.741L34.8179 116.819C34.8135 116.819 34.8091 116.82 34.8046 116.82H34.8053ZM8.5106 116.747C8.50615 116.747 8.50171 116.747 8.49663 116.746L8.08345 116.664C8.04537 116.657 8.02061 116.62 8.02823 116.582C8.03585 116.544 8.07266 116.519 8.11074 116.527L8.52393 116.609C8.56201 116.616 8.58676 116.653 8.57914 116.691C8.5728 116.724 8.54297 116.747 8.5106 116.747ZM7.13268 116.474C7.12824 116.474 7.1238 116.474 7.11872 116.473L6.76202 116.402L6.75377 116.236C6.75187 116.197 6.7817 116.164 6.82041 116.162C6.85849 116.155 6.89213 116.19 6.89404 116.229L6.89658 116.286L7.14601 116.335C7.18409 116.343 7.20884 116.379 7.20123 116.417C7.19425 116.451 7.16505 116.474 7.13268 116.474V116.474ZM35.4812 115.976C35.4425 115.976 35.4114 115.945 35.4107 115.907C35.4088 115.767 35.4063 115.628 35.4019 115.488C35.4006 115.45 35.4311 115.417 35.4698 115.416C35.5066 115.417 35.5409 115.445 35.5421 115.484C35.5459 115.624 35.5491 115.764 35.551 115.905C35.551 115.944 35.5205 115.976 35.4818 115.976H35.4812ZM6.78297 115.323C6.74552 115.323 6.71442 115.293 6.71315 115.255C6.70871 115.121 6.70426 114.98 6.70046 114.835C6.69919 114.797 6.73029 114.764 6.769 114.763C6.80708 114.766 6.84009 114.792 6.84136 114.831C6.84517 114.976 6.84961 115.116 6.85405 115.251C6.85532 115.29 6.82485 115.322 6.78614 115.323H6.7836H6.78297ZM35.4253 114.578C35.3885 114.578 35.3574 114.549 35.3555 114.512C35.3466 114.371 35.3365 114.232 35.3257 114.093C35.3225 114.055 35.3517 114.021 35.3904 114.018C35.4285 114.014 35.4628 114.044 35.466 114.083C35.4768 114.222 35.4869 114.362 35.4964 114.503C35.499 114.542 35.4698 114.575 35.4311 114.578C35.4298 114.578 35.4279 114.578 35.4266 114.578H35.4253ZM6.7506 113.923C6.71188 113.923 6.68078 113.892 6.68015 113.854C6.67888 113.716 6.67761 113.575 6.67697 113.433C6.67697 113.394 6.70807 113.363 6.74679 113.363C6.7855 113.363 6.81724 113.394 6.81724 113.432C6.81724 113.574 6.81914 113.714 6.82041 113.852C6.82041 113.89 6.78995 113.922 6.75123 113.923H6.7506ZM35.3035 113.182C35.2679 113.182 35.2375 113.155 35.2337 113.119C35.2184 112.978 35.2026 112.839 35.1861 112.702C35.1816 112.663 35.2089 112.628 35.2476 112.624C35.287 112.619 35.3213 112.647 35.3257 112.685C35.3422 112.823 35.3581 112.963 35.3739 113.104C35.3784 113.142 35.3505 113.176 35.3117 113.181C35.3092 113.181 35.3067 113.181 35.3041 113.181L35.3035 113.182ZM6.7525 112.522H6.75123C6.71251 112.522 6.68141 112.49 6.68205 112.451C6.68395 112.311 6.68713 112.171 6.6903 112.03C6.69157 111.992 6.72394 111.963 6.76202 111.962C6.80074 111.963 6.8312 111.995 6.83057 112.033C6.82676 112.173 6.82422 112.314 6.82232 112.453C6.82232 112.492 6.79058 112.522 6.75187 112.522H6.7525ZM35.1258 111.792C35.0915 111.792 35.0617 111.766 35.0566 111.732C35.0356 111.59 35.0147 111.452 34.9931 111.316C34.9868 111.278 35.0134 111.242 35.0515 111.236C35.0896 111.23 35.1258 111.256 35.1321 111.294C35.1537 111.43 35.1746 111.569 35.1956 111.711C35.2013 111.749 35.1746 111.784 35.1366 111.79C35.1334 111.79 35.1296 111.791 35.1264 111.791L35.1258 111.792ZM6.79883 111.122C6.79883 111.122 6.79629 111.122 6.79502 111.122C6.75631 111.12 6.72648 111.087 6.72838 111.048C6.736 110.907 6.74425 110.766 6.75313 110.628C6.75567 110.589 6.78931 110.559 6.82803 110.563C6.86674 110.565 6.89594 110.599 6.8934 110.637C6.88388 110.776 6.87563 110.915 6.86865 111.056C6.86674 111.093 6.83564 111.122 6.79883 111.122V111.122ZM34.8966 110.409C34.8636 110.409 34.8338 110.385 34.8275 110.351C34.8008 110.207 34.7748 110.069 34.7494 109.939C34.7418 109.901 34.7665 109.865 34.8046 109.857C34.8427 109.849 34.8795 109.875 34.8871 109.913C34.9125 110.043 34.9392 110.182 34.9658 110.327C34.9728 110.365 34.9474 110.401 34.9093 110.408C34.9049 110.409 34.9005 110.41 34.8966 110.41V110.409ZM6.90863 109.725C6.90863 109.725 6.90356 109.725 6.90102 109.725C6.8623 109.721 6.83438 109.687 6.83882 109.648C6.85469 109.506 6.87182 109.366 6.89023 109.229C6.89531 109.191 6.93085 109.162 6.96893 109.169C7.00765 109.174 7.0343 109.21 7.02923 109.248C7.01082 109.383 6.99368 109.522 6.97845 109.663C6.97464 109.699 6.94418 109.725 6.90863 109.725ZM34.559 109.092C34.559 109.092 34.5533 109.092 34.5507 109.092C34.4206 109.077 34.2816 109.062 34.1331 109.047C34.0944 109.043 34.0665 109.009 34.0703 108.97C34.0741 108.932 34.1071 108.906 34.1471 108.908C34.2962 108.922 34.4365 108.937 34.5672 108.953C34.606 108.957 34.6332 108.992 34.6288 109.031C34.6244 109.066 34.5945 109.093 34.559 109.093V109.092ZM33.1601 108.966H33.157C33.0205 108.956 32.8802 108.947 32.7355 108.937C32.6968 108.935 32.6676 108.902 32.6701 108.863C32.6727 108.825 32.7063 108.795 32.7444 108.798C32.8897 108.807 33.03 108.816 33.1652 108.826C33.2039 108.829 33.2331 108.862 33.2299 108.901C33.2274 108.937 33.1963 108.966 33.1601 108.966ZM31.7581 108.882C31.7581 108.882 31.7556 108.882 31.7543 108.882C31.6172 108.875 31.4769 108.868 31.3335 108.862C31.2948 108.86 31.2649 108.828 31.2668 108.789C31.2687 108.751 31.3024 108.72 31.3405 108.723C31.4839 108.729 31.6248 108.736 31.7619 108.743C31.8006 108.745 31.8305 108.778 31.8285 108.817C31.8266 108.854 31.7955 108.883 31.7587 108.883L31.7581 108.882ZM30.3548 108.821H30.3523L29.9315 108.806C29.8927 108.805 29.8623 108.772 29.8635 108.733C29.8648 108.694 29.8997 108.666 29.9359 108.665L30.3573 108.681C30.396 108.682 30.4265 108.715 30.4246 108.753C30.4233 108.791 30.3922 108.821 30.3548 108.821ZM28.9509 108.774H28.9496L28.5275 108.762C28.4888 108.761 28.4583 108.729 28.459 108.69C28.4602 108.651 28.4869 108.623 28.5313 108.622L28.9528 108.634C28.9915 108.635 29.0219 108.667 29.0207 108.706C29.0194 108.744 28.9883 108.774 28.9502 108.774L28.9509 108.774ZM27.5463 108.738H27.5444L27.1229 108.729C27.0842 108.728 27.0531 108.696 27.0544 108.657C27.055 108.619 27.0868 108.589 27.1248 108.589H27.1261L27.5482 108.598C27.5869 108.6 27.618 108.631 27.6167 108.67C27.6161 108.708 27.5844 108.738 27.5463 108.738ZM26.1417 108.71H26.1404L25.719 108.703C25.6803 108.702 25.6492 108.67 25.6498 108.632C25.6498 108.593 25.6816 108.563 25.7203 108.563H25.7209L26.143 108.57C26.1817 108.57 26.2128 108.603 26.2122 108.641C26.2115 108.679 26.1804 108.71 26.1417 108.71V108.71ZM7.45574 108.71C7.41702 108.71 7.38592 108.679 7.38529 108.641C7.38529 108.602 7.41575 108.57 7.45447 108.57L7.87654 108.565H7.87717C7.91589 108.565 7.94699 108.596 7.94763 108.634C7.94763 108.672 7.91716 108.704 7.87844 108.705L7.45701 108.71H7.45637H7.45574ZM8.86095 108.694C8.82223 108.694 8.79113 108.663 8.7905 108.624C8.7905 108.586 8.82096 108.554 8.86031 108.553L9.28175 108.549H9.28238C9.3211 108.549 9.3522 108.58 9.35283 108.619C9.35283 108.657 9.32173 108.689 9.28302 108.689L8.86158 108.694H8.86095ZM24.7371 108.688H24.7365L24.3151 108.682C24.2763 108.682 24.2452 108.65 24.2459 108.612C24.2459 108.573 24.2776 108.543 24.3163 108.543H24.317L24.7384 108.548C24.7771 108.548 24.8082 108.581 24.8076 108.619C24.8076 108.658 24.7758 108.688 24.7371 108.688ZM10.2668 108.681C10.2281 108.681 10.197 108.65 10.1963 108.611C10.1963 108.572 10.2274 108.541 10.2662 108.54L10.6876 108.536C10.7263 108.536 10.7574 108.567 10.758 108.606C10.758 108.644 10.7269 108.676 10.6882 108.677L10.2668 108.681ZM23.3319 108.672L22.9105 108.668C22.8718 108.668 22.8407 108.636 22.8407 108.597C22.8407 108.558 22.8724 108.527 22.9111 108.527L23.3326 108.531C23.3713 108.531 23.4024 108.563 23.4024 108.602C23.4024 108.641 23.3706 108.672 23.3319 108.672ZM11.672 108.669C11.6333 108.669 11.6022 108.638 11.6015 108.6C11.6015 108.561 11.6326 108.529 11.6714 108.529L12.0928 108.525C12.1315 108.525 12.1626 108.556 12.1632 108.595C12.1632 108.634 12.1321 108.665 12.0934 108.666L11.672 108.669ZM21.928 108.66L21.5066 108.657C21.4678 108.657 21.4367 108.625 21.4367 108.587C21.4367 108.548 21.4685 108.517 21.5072 108.517L21.9286 108.52C21.9673 108.52 21.9984 108.551 21.9984 108.591C21.9984 108.629 21.9667 108.66 21.928 108.66V108.66ZM13.0772 108.66C13.0385 108.66 13.0074 108.629 13.0068 108.59C13.0068 108.551 13.0379 108.52 13.0766 108.52L13.498 108.517C13.5367 108.517 13.5678 108.548 13.5685 108.587C13.5685 108.625 13.5374 108.657 13.4986 108.657L13.0772 108.66ZM14.4824 108.653C14.4437 108.653 14.4126 108.622 14.412 108.583C14.412 108.544 14.4431 108.513 14.4818 108.513L14.9032 108.511C14.9419 108.511 14.9737 108.542 14.9737 108.581C14.9737 108.619 14.9426 108.651 14.9038 108.651L14.4824 108.653ZM20.5234 108.651L20.102 108.65C20.0633 108.65 20.0322 108.618 20.0322 108.579C20.0322 108.541 20.0639 108.51 20.1026 108.51L20.524 108.512C20.5628 108.512 20.5939 108.543 20.5939 108.582C20.5939 108.62 20.5621 108.651 20.5234 108.651ZM15.8876 108.648C15.8489 108.648 15.8178 108.617 15.8172 108.578C15.8172 108.539 15.8483 108.508 15.887 108.508L16.3084 108.506C16.3446 108.503 16.3789 108.538 16.3789 108.576C16.3789 108.615 16.3478 108.646 16.3091 108.646L15.8876 108.648ZM19.1188 108.647H18.6974C18.6587 108.646 18.627 108.615 18.627 108.576C18.627 108.538 18.6587 108.506 18.6974 108.506H19.1188C19.1576 108.507 19.1893 108.539 19.1887 108.577C19.1887 108.616 19.1569 108.647 19.1182 108.647H19.1188ZM17.2928 108.646C17.2541 108.646 17.2224 108.615 17.2224 108.576C17.2224 108.538 17.2535 108.506 17.2928 108.506H17.713C17.7517 108.506 17.7841 108.538 17.7841 108.576C17.7841 108.615 17.7536 108.646 17.7149 108.646H17.2935L17.2928 108.646Z" fill="white"/>
<path d="M23.304 121.689H19.558C19.0674 121.689 18.6536 121.325 18.5952 120.841L18.1624 117.246C18.0932 116.674 18.5438 116.17 19.1252 116.17H23.6258C24.1951 116.17 24.6419 116.655 24.5918 117.217L24.2706 120.812C24.2262 121.309 23.8073 121.689 23.3053 121.689H23.304Z" fill="#7D97F4"/>
<path d="M22.8432 121.027H19.9922C19.6183 121.027 19.3035 120.749 19.2597 120.381L18.9303 117.645C18.8777 117.209 19.221 116.826 19.6628 116.826H23.0882C23.5217 116.826 23.8613 117.195 23.8232 117.623L23.5788 120.359C23.5452 120.737 23.2259 121.027 22.8438 121.027H22.8432Z" fill="#BDD0FB"/>
<path d="M17.8425 68.0581C17.8348 74.8102 18.0246 96.9734 20.8084 100.734C20.8084 100.734 21.7623 100.773 24.0808 103.008C25.1852 104.073 24.1557 105.914 22.6655 105.544C18.9341 104.62 21.3352 105.844 18.9703 102.388C18.9703 102.388 17.5956 101.15 17.2167 99.9732C16.8834 98.9372 10.2826 80.6681 10.1037 69.7403C10.0529 66.6297 11.1319 65.5905 11.8021 65.0133C12.4628 64.4437 13.3082 64.1577 14.2127 64.19C16.2595 64.264 17.845 66.0158 17.8425 68.0581Z" fill="url(#paint46_linear_367_185)"/>
<defs>
<linearGradient id="paint0_linear_367_185" x1="190.379" y1="199.284" x2="58.4028" y2="59.5388" gradientUnits="userSpaceOnUse">
<stop stop-color="#DAE3FE"/>
<stop offset="1" stop-color="#E9EFFD"/>
</linearGradient>
<linearGradient id="paint1_linear_367_185" x1="126.337" y1="-39.9067" x2="117.413" y2="-17.8123" gradientUnits="userSpaceOnUse">
<stop stop-color="#E1473D"/>
<stop offset="1" stop-color="#E9605A"/>
</linearGradient>
<linearGradient id="paint2_linear_367_185" x1="120.584" y1="163.307" x2="174.353" y2="221.961" gradientUnits="userSpaceOnUse">
<stop stop-color="#09005D"/>
<stop offset="1" stop-color="#1A0F91"/>
</linearGradient>
<linearGradient id="paint3_linear_367_185" x1="138.091" y1="167.651" x2="133.3" y2="167.651" gradientUnits="userSpaceOnUse">
<stop stop-color="#FEBBBA"/>
<stop offset="1" stop-color="#FF928E"/>
</linearGradient>
<linearGradient id="paint4_linear_367_185" x1="116.337" y1="97.1497" x2="162.061" y2="159.302" gradientUnits="userSpaceOnUse">
<stop stop-color="#09005D"/>
<stop offset="1" stop-color="#1A0F91"/>
</linearGradient>
<linearGradient id="paint5_linear_367_185" x1="132.684" y1="152.213" x2="186.453" y2="210.867" gradientUnits="userSpaceOnUse">
<stop stop-color="#09005D"/>
<stop offset="1" stop-color="#1A0F91"/>
</linearGradient>
<linearGradient id="paint6_linear_367_185" x1="155.357" y1="167.407" x2="151.221" y2="167.407" gradientUnits="userSpaceOnUse">
<stop stop-color="#FEBBBA"/>
<stop offset="1" stop-color="#FF928E"/>
</linearGradient>
<linearGradient id="paint7_linear_367_185" x1="124.516" y1="91.1309" x2="170.241" y2="153.283" gradientUnits="userSpaceOnUse">
<stop stop-color="#09005D"/>
<stop offset="1" stop-color="#1A0F91"/>
</linearGradient>
<linearGradient id="paint8_linear_367_185" x1="156.358" y1="40.2641" x2="128.194" y2="113.122" gradientUnits="userSpaceOnUse">
<stop stop-color="#4F52FF"/>
<stop offset="1" stop-color="#4042E2"/>
</linearGradient>
<linearGradient id="paint9_linear_367_185" x1="147.945" y1="41.4151" x2="135.904" y2="41.4151" gradientUnits="userSpaceOnUse">
<stop stop-color="#FEBBBA"/>
<stop offset="1" stop-color="#FF928E"/>
</linearGradient>
<linearGradient id="paint10_linear_367_185" x1="146.721" y1="69.0987" x2="196.993" y2="-25.9542" gradientUnits="userSpaceOnUse">
<stop stop-color="#4F52FF"/>
<stop offset="1" stop-color="#4042E2"/>
</linearGradient>
<linearGradient id="paint11_linear_367_185" x1="134.524" y1="48.6457" x2="149.376" y2="48.6457" gradientUnits="userSpaceOnUse">
<stop stop-color="#4F52FF"/>
<stop offset="1" stop-color="#4042E2"/>
</linearGradient>
<linearGradient id="paint12_linear_367_185" x1="138.141" y1="48.8753" x2="162.508" y2="151.458" gradientUnits="userSpaceOnUse">
<stop stop-color="#09005D"/>
<stop offset="1" stop-color="#1A0F91"/>
</linearGradient>
<linearGradient id="paint13_linear_367_185" x1="141.241" y1="45.2826" x2="145.953" y2="65.121" gradientUnits="userSpaceOnUse">
<stop stop-color="#09005D"/>
<stop offset="1" stop-color="#1A0F91"/>
</linearGradient>
<linearGradient id="paint14_linear_367_185" x1="166.6" y1="55.7487" x2="165.796" y2="99.2816" gradientUnits="userSpaceOnUse">
<stop stop-color="#FEBBBA"/>
<stop offset="1" stop-color="#FF928E"/>
</linearGradient>
<linearGradient id="paint15_linear_367_185" x1="164.204" y1="55.7135" x2="163.392" y2="99.7324" gradientUnits="userSpaceOnUse">
<stop stop-color="#FEBBBA"/>
<stop offset="1" stop-color="#FF928E"/>
</linearGradient>
<linearGradient id="paint16_linear_367_185" x1="170.485" y1="45.7252" x2="142.322" y2="118.583" gradientUnits="userSpaceOnUse">
<stop stop-color="#4F52FF"/>
<stop offset="1" stop-color="#4042E2"/>
</linearGradient>
<linearGradient id="paint17_linear_367_185" x1="174.825" y1="60.1156" x2="137.084" y2="34.5413" gradientUnits="userSpaceOnUse">
<stop stop-color="#FEBBBA"/>
<stop offset="1" stop-color="#FF928E"/>
</linearGradient>
<linearGradient id="paint18_linear_367_185" x1="143.207" y1="38.2088" x2="128.976" y2="29.5556" gradientUnits="userSpaceOnUse">
<stop stop-color="#09005D"/>
<stop offset="1" stop-color="#1A0F91"/>
</linearGradient>
<linearGradient id="paint19_linear_367_185" x1="146.289" y1="51.9482" x2="142.691" y2="36.3673" gradientUnits="userSpaceOnUse">
<stop stop-color="#FEBBBA"/>
<stop offset="1" stop-color="#FF928E"/>
</linearGradient>
<linearGradient id="paint20_linear_367_185" x1="81.6772" y1="48.9972" x2="105.431" y2="48.9972" gradientUnits="userSpaceOnUse">
<stop stop-color="#FEBBBA"/>
<stop offset="1" stop-color="#FF928E"/>
</linearGradient>
<linearGradient id="paint21_linear_367_185" x1="125.19" y1="28.2159" x2="97.0273" y2="101.074" gradientUnits="userSpaceOnUse">
<stop stop-color="#4F52FF"/>
<stop offset="1" stop-color="#4042E2"/>
</linearGradient>
<linearGradient id="paint22_linear_367_185" x1="135.429" y1="32.1741" x2="107.266" y2="105.032" gradientUnits="userSpaceOnUse">
<stop stop-color="#4F52FF"/>
<stop offset="1" stop-color="#4042E2"/>
</linearGradient>
<linearGradient id="paint23_linear_367_185" x1="67.2082" y1="78.1892" x2="65.0758" y2="129.507" gradientUnits="userSpaceOnUse">
<stop stop-color="#09005D"/>
<stop offset="1" stop-color="#1A0F91"/>
</linearGradient>
<linearGradient id="paint24_linear_367_185" x1="70.3835" y1="101.67" x2="84.302" y2="93.617" gradientUnits="userSpaceOnUse">
<stop stop-color="#09005D"/>
<stop offset="1" stop-color="#1A0F91"/>
</linearGradient>
<linearGradient id="paint25_linear_367_185" x1="68.3893" y1="118.718" x2="67.9627" y2="99.7948" gradientUnits="userSpaceOnUse">
<stop stop-color="#09005D"/>
<stop offset="1" stop-color="#1A0F91"/>
</linearGradient>
<linearGradient id="paint26_linear_367_185" x1="71.0487" y1="98.296" x2="70.0892" y2="102.36" gradientUnits="userSpaceOnUse">
<stop stop-color="#09005D"/>
<stop offset="1" stop-color="#1A0F91"/>
</linearGradient>
<linearGradient id="paint27_linear_367_185" x1="34.4682" y1="205.294" x2="22.6373" y2="66.6182" gradientUnits="userSpaceOnUse">
<stop stop-color="#A22B25"/>
<stop offset="1" stop-color="#C0423C"/>
</linearGradient>
<linearGradient id="paint28_linear_367_185" x1="37.9444" y1="171.276" x2="24.5651" y2="171.276" gradientUnits="userSpaceOnUse">
<stop stop-color="#09005D"/>
<stop offset="1" stop-color="#1A0F91"/>
</linearGradient>
<linearGradient id="paint29_linear_367_185" x1="25.2563" y1="205.294" x2="13.4253" y2="66.6182" gradientUnits="userSpaceOnUse">
<stop stop-color="#A22B25"/>
<stop offset="1" stop-color="#C0423C"/>
</linearGradient>
<linearGradient id="paint30_linear_367_185" x1="-8.95627" y1="76.5996" x2="29.8251" y2="117.878" gradientUnits="userSpaceOnUse">
<stop stop-color="#09005D"/>
<stop offset="1" stop-color="#1A0F91"/>
</linearGradient>
<linearGradient id="paint31_linear_367_185" x1="59.4821" y1="60.209" x2="24.3096" y2="84.3605" gradientUnits="userSpaceOnUse">
<stop stop-color="#A22B25"/>
<stop offset="1" stop-color="#C0423C"/>
</linearGradient>
<linearGradient id="paint32_linear_367_185" x1="29.5132" y1="25.646" x2="20.1611" y2="49.1738" gradientUnits="userSpaceOnUse">
<stop stop-color="#09005D"/>
<stop offset="1" stop-color="#1A0F91"/>
</linearGradient>
<linearGradient id="paint33_linear_367_185" x1="28.7325" y1="171.274" x2="15.3532" y2="171.274" gradientUnits="userSpaceOnUse">
<stop stop-color="#09005D"/>
<stop offset="1" stop-color="#1A0F91"/>
</linearGradient>
<linearGradient id="paint34_linear_367_185" x1="71.2581" y1="36.5094" x2="54.8926" y2="50.0256" gradientUnits="userSpaceOnUse">
<stop stop-color="#FF928E"/>
<stop offset="1" stop-color="#FE7062"/>
</linearGradient>
<linearGradient id="paint35_linear_367_185" x1="21.6658" y1="70.5348" x2="33.6124" y2="34.8055" gradientUnits="userSpaceOnUse">
<stop stop-color="#A22B25"/>
<stop offset="0.44" stop-color="#AF352F"/>
<stop offset="1" stop-color="#C0423C"/>
</linearGradient>
<linearGradient id="paint36_linear_367_185" x1="309.444" y1="-439.811" x2="293.244" y2="-411.404" gradientUnits="userSpaceOnUse">
<stop stop-color="#A22B25"/>
<stop offset="1" stop-color="#C0423C"/>
</linearGradient>
<linearGradient id="paint37_linear_367_185" x1="43.7528" y1="35.6915" x2="20.0385" y2="47.1089" gradientUnits="userSpaceOnUse">
<stop stop-color="#09005D"/>
<stop offset="1" stop-color="#1A0F91"/>
</linearGradient>
<linearGradient id="paint38_linear_367_185" x1="305.319" y1="-442.163" x2="289.12" y2="-413.755" gradientUnits="userSpaceOnUse">
<stop stop-color="#A22B25"/>
<stop offset="1" stop-color="#C0423C"/>
</linearGradient>
<linearGradient id="paint39_linear_367_185" x1="21.4551" y1="142.943" x2="21.0683" y2="107.13" gradientUnits="userSpaceOnUse">
<stop stop-color="#4F52FF"/>
<stop offset="1" stop-color="#4042E2"/>
</linearGradient>
<linearGradient id="paint40_linear_367_185" x1="15.2428" y1="109.865" x2="15.0711" y2="105.684" gradientUnits="userSpaceOnUse">
<stop stop-color="#4F52FF"/>
<stop offset="1" stop-color="#4042E2"/>
</linearGradient>
<linearGradient id="paint41_linear_367_185" x1="15.0244" y1="103.588" x2="15.8833" y2="115.569" gradientUnits="userSpaceOnUse">
<stop stop-color="#4F52FF"/>
<stop offset="1" stop-color="#4042E2"/>
</linearGradient>
<linearGradient id="paint42_linear_367_185" x1="26.923" y1="109.385" x2="26.7507" y2="105.204" gradientUnits="userSpaceOnUse">
<stop stop-color="#4F52FF"/>
<stop offset="1" stop-color="#4042E2"/>
</linearGradient>
<linearGradient id="paint43_linear_367_185" x1="26.6723" y1="102.753" x2="27.5318" y2="114.735" gradientUnits="userSpaceOnUse">
<stop stop-color="#4F52FF"/>
<stop offset="1" stop-color="#4042E2"/>
</linearGradient>
<linearGradient id="paint44_linear_367_185" x1="21.8747" y1="96.9192" x2="20.7147" y2="105.453" gradientUnits="userSpaceOnUse">
<stop stop-color="#4F52FF"/>
<stop offset="1" stop-color="#4042E2"/>
</linearGradient>
<linearGradient id="paint45_linear_367_185" x1="22.2269" y1="103.565" x2="17.972" y2="143.389" gradientUnits="userSpaceOnUse">
<stop stop-color="#4F52FF"/>
<stop offset="1" stop-color="#4042E2"/>
</linearGradient>
<linearGradient id="paint46_linear_367_185" x1="31.1958" y1="91.5262" x2="4.76471" y2="77.9034" gradientUnits="userSpaceOnUse">
<stop stop-color="#A22B25"/>
<stop offset="1" stop-color="#C0423C"/>
</linearGradient>
</defs>
</svg>
