<svg width="127" height="128" viewBox="0 0 127 128" fill="none" xmlns="http://www.w3.org/2000/svg">
<path d="M121.097 86.108C108.834 114.687 76.1681 130.696 47.8404 126.378C43.231 125.675 30.5938 123.581 19.4052 113.706C-2.13303 94.6952 -6.7392 57.0507 10.635 30.5221C23.2804 11.2139 45.9487 0.268514 67.4879 0.815989C72.1274 0.93408 89.9085 1.66073 105.535 14.4137C107.83 16.2869 112.892 20.7382 117.454 27.7997C128.167 44.3814 129.088 67.4835 121.096 86.108H121.097Z" fill="url(#paint0_linear_173_5)"/>
<path d="M25.4866 53.4623C25.4866 53.4623 38.0653 64.0235 43.1286 48.4852C43.1286 48.4852 43.2091 48.097 43.0203 47.5916C42.9248 47.3364 42.928 46.3695 42.9366 45.8741C42.9394 45.7148 42.8022 45.5895 42.6418 45.6031C42.5161 45.6135 42.4045 45.6868 42.346 45.7972L41.2704 47.8197C41.2306 48.1889 41.4683 48.5314 41.8304 48.6277C42.0612 48.6893 42.1778 48.944 42.0694 49.1553C37.6306 57.7918 26.3227 51.2466 26.1618 51.3769C25.5917 51.8384 24.9298 52.3542 25.4866 53.4623Z" fill="url(#paint1_linear_173_5)"/>
<g opacity="0.3">
<path d="M66.5503 14.2045C66.4744 13.7095 66.7875 13.2272 67.2881 13.0982C68.3825 12.8159 69.5057 12.577 70.6257 12.3874C71.1706 12.2951 71.6881 12.6576 71.7813 13.1969C71.7823 13.2032 71.7832 13.2096 71.7841 13.2159C71.8655 13.748 71.5016 14.2493 70.9631 14.3407C69.8984 14.5208 68.8319 14.7484 67.7923 15.0158C67.2575 15.1538 66.7103 14.8361 66.5713 14.3063C66.5622 14.2724 66.5553 14.238 66.5503 14.2041V14.2045ZM75.1829 12.9747C75.177 12.9363 75.1733 12.8974 75.172 12.8575C75.1537 12.3105 75.5875 11.8526 76.1397 11.8345C77.2748 11.7979 78.4227 11.8092 79.5514 11.8676C80.1036 11.8961 80.526 12.3603 80.4991 12.9087C80.4698 13.4552 79.9985 13.8747 79.4467 13.8462C78.3738 13.7905 77.2835 13.7801 76.2047 13.8149C75.6922 13.8317 75.2575 13.4638 75.1825 12.9743L75.1829 12.9747ZM83.8746 13.6566C83.8577 13.5475 83.8595 13.434 83.8819 13.319C83.9875 12.782 84.5128 12.4309 85.0558 12.5354C86.1685 12.7489 87.2853 13.0136 88.3761 13.3213C88.9077 13.472 89.2154 14.0199 89.0641 14.5461C88.9123 15.0723 88.3582 15.3773 87.8266 15.2271C86.7912 14.9348 85.7306 14.6837 84.6737 14.4805C84.2467 14.3986 83.9359 14.0588 83.8741 13.6561L83.8746 13.6566ZM92.1955 16.2455C92.1681 16.0655 92.1905 15.8754 92.2705 15.6963C92.4945 15.1958 93.086 14.9705 93.5916 15.1922C94.6284 15.6474 95.6574 16.1523 96.6508 16.693C97.1345 16.9568 97.3114 17.559 97.0453 18.0386C96.7788 18.5178 96.1699 18.6929 95.6858 18.4291C94.7427 17.9156 93.7649 17.436 92.7797 17.0039C92.4551 16.8613 92.2453 16.5691 92.1955 16.2455ZM99.7242 20.6059C99.6853 20.353 99.7452 20.086 99.9116 19.8648C100.242 19.4259 100.87 19.3358 101.313 19.6634C102.219 20.3331 103.11 21.0507 103.959 21.7963C104.373 22.1592 104.411 22.7854 104.044 23.1949C103.677 23.6043 103.044 23.6419 102.63 23.2786C101.823 22.5696 100.977 21.8877 100.115 21.2511C99.8951 21.0887 99.7621 20.8543 99.7237 20.6054L99.7242 20.6059ZM106.09 26.5059C106.04 26.1784 106.157 25.8336 106.43 25.6028C106.851 25.2477 107.482 25.297 107.842 25.7128C108.577 26.5657 109.285 27.4606 109.945 28.3728C110.268 28.818 110.164 29.4365 109.715 29.7555C109.265 30.074 108.64 29.9718 108.318 29.527C107.691 28.6605 107.018 27.8104 106.319 26.9996C106.193 26.8539 106.118 26.6819 106.091 26.5055L106.09 26.5059ZM113.942 62.052C113.922 61.9162 113.929 61.7746 113.969 61.6339C114.263 60.6095 114.515 59.5589 114.718 58.511C114.822 57.9735 115.347 57.6219 115.89 57.7251C116.433 57.8283 116.788 58.3477 116.684 58.8852C116.469 59.9888 116.204 61.0955 115.895 62.1741C115.744 62.7008 115.191 63.0067 114.659 62.8573C114.269 62.7478 113.998 62.4243 113.942 62.052H113.942ZM110.974 33.6507C110.912 33.2444 111.111 32.8259 111.5 32.6245C111.99 32.3707 112.595 32.558 112.851 33.0426C113.377 34.0362 113.865 35.0646 114.303 36.099C114.514 36.6048 114.276 37.1844 113.766 37.3957C113.256 37.607 112.67 37.369 112.456 36.8641C112.041 35.8813 111.576 34.9049 111.077 33.9615C111.024 33.8611 110.99 33.7561 110.974 33.6503V33.6507ZM115.359 53.5349C115.349 53.4702 115.345 53.4037 115.348 53.3358C115.403 52.2721 115.411 51.1916 115.374 50.1247C115.355 49.5777 115.788 49.1189 116.34 49.1003C116.893 49.0818 117.358 49.5089 117.375 50.0564C117.414 51.1789 117.405 52.3155 117.348 53.4349C117.32 53.9815 116.85 54.4023 116.298 54.3747C115.815 54.3507 115.429 53.9905 115.359 53.5344V53.5349ZM114.123 41.6963C114.047 41.2018 114.359 40.7204 114.858 40.5905C115.393 40.4516 115.94 40.7679 116.081 41.2973C116.368 42.3809 116.612 43.4917 116.806 44.5984C116.807 44.6052 116.808 44.6124 116.809 44.6192C116.891 45.1508 116.528 45.6513 115.99 45.7436C115.445 45.8368 114.927 45.4753 114.833 44.9359C114.649 43.8849 114.418 42.8297 114.144 41.8004C114.136 41.7655 114.128 41.7307 114.123 41.6963Z" fill="url(#paint2_linear_173_5)"/>
<path d="M111.422 68.5473C111.392 68.3545 111.419 68.1509 111.513 67.9622C111.741 67.5039 111.963 67.0333 112.174 66.5632C112.397 66.0628 112.989 65.8366 113.494 66.0583C114 66.2795 114.229 66.865 114.004 67.3654C113.784 67.86 113.55 68.355 113.31 68.8373C113.066 69.3282 112.466 69.5305 111.97 69.2888C111.664 69.14 111.47 68.8572 111.422 68.5473H111.422Z" fill="url(#paint3_linear_173_5)"/>
</g>
<g opacity="0.3">
<path d="M88.3211 88.2925C88.2489 87.8195 88.5314 87.351 89.0064 87.2008C89.4978 87.0455 89.9947 86.8771 90.482 86.7006C91.0013 86.5128 91.5764 86.7771 91.7661 87.2913C91.9568 87.8077 91.6889 88.3749 91.1696 88.5627C90.6562 88.7483 90.1332 88.9257 89.6153 89.0896C89.0886 89.2562 88.5254 88.9683 88.3568 88.4469C88.3403 88.3957 88.3284 88.3441 88.3207 88.2925H88.3211Z" fill="url(#paint4_linear_173_5)"/>
<path d="M37.8814 57.3587C37.8124 56.908 37.7511 56.4542 37.6967 55.9977C37.6327 55.4543 38.0254 54.962 38.5744 54.8982C39.1234 54.8344 39.6231 55.2258 39.6857 55.7669C39.8105 56.8202 39.9783 57.8663 40.1868 58.8875C40.2956 59.4246 39.9458 59.9467 39.4041 60.0549C38.862 60.1634 38.3335 59.8164 38.2242 59.2798C38.0953 58.6482 37.9801 58.0016 37.8814 57.3587ZM37.4416 50.7727C37.4334 50.7179 37.4293 50.6614 37.4306 50.6044C37.4517 49.499 37.5202 48.3823 37.635 47.2851C37.6917 46.7408 38.1836 46.3449 38.7335 46.4015C39.2834 46.4576 39.6848 46.9453 39.6263 47.4892C39.5175 48.5312 39.4526 49.5922 39.432 50.6424C39.4215 51.1894 38.9648 51.6247 38.4126 51.6142C37.9175 51.6047 37.5134 51.2419 37.4416 50.7731V50.7727ZM39.6231 64.3071C39.5522 63.8451 39.8206 63.3845 40.2823 63.2243C40.8044 63.0438 41.3753 63.3162 41.5582 63.8324C41.907 64.8206 42.3038 65.8074 42.7376 66.7657C42.963 67.2657 42.7376 67.8516 42.2334 68.0751C41.7287 68.2986 41.1362 68.0751 40.9104 67.5756C40.4537 66.5666 40.0359 65.5273 39.6684 64.4867C39.6473 64.4274 39.6327 64.3668 39.6236 64.3071H39.6231ZM38.5484 42.347C38.5292 42.2226 38.5342 42.0927 38.5662 41.9629C38.8318 40.8901 39.1472 39.8155 39.5033 38.7694C39.6798 38.2509 40.2476 37.9722 40.7714 38.1468C41.2958 38.3215 41.5774 38.883 41.4005 39.4019C41.0626 40.3951 40.7632 41.4154 40.5109 42.4343C40.3797 42.966 39.837 43.2913 39.3004 43.161C38.8944 43.0623 38.6073 42.732 38.5484 42.3465V42.347ZM43.3342 71.9613C43.2761 71.5826 43.4444 71.188 43.7941 70.9722C44.2631 70.6822 44.8807 70.8234 45.1737 71.2876C45.7337 72.1749 46.3399 73.0513 46.9758 73.8919C47.3072 74.3299 47.2172 74.9511 46.7742 75.2792C46.3317 75.6067 45.7045 75.5176 45.373 75.0796C44.7038 74.1946 44.0652 73.2721 43.4754 72.3373C43.4009 72.2192 43.3543 72.0911 43.3346 71.9613H43.3342ZM48.6521 78.6242C48.6059 78.3215 48.7015 78.0016 48.9388 77.7695C49.3323 77.3854 49.9664 77.3894 50.3545 77.779C51.0992 78.526 51.8846 79.2508 52.6882 79.9327C53.1083 80.2883 53.1573 80.9136 52.797 81.3299C52.4368 81.7452 51.805 81.7932 51.3854 81.4371C50.5397 80.7191 49.7132 79.9567 48.9296 79.1703C48.7756 79.0156 48.6832 78.8233 48.6526 78.6237L48.6521 78.6242ZM55.3113 83.9808C55.2761 83.7505 55.3223 83.5071 55.4599 83.2958C55.7593 82.8361 56.3792 82.7036 56.8437 82.9999C57.7355 83.5691 58.6613 84.1075 59.5957 84.5998C60.0834 84.8568 60.269 85.4563 60.0089 85.94C59.7488 86.4228 59.1431 86.606 58.6549 86.349C57.672 85.831 56.6974 85.2645 55.7589 84.6659C55.5079 84.5052 55.3529 84.2523 55.3113 83.9813V83.9808ZM62.9918 87.7724C62.9675 87.6127 62.9822 87.4453 63.042 87.2829C63.2327 86.7693 63.8078 86.506 64.3271 86.6947C65.3227 87.0571 66.3449 87.3811 67.3657 87.6584C67.8987 87.8032 68.2128 88.3489 68.0665 88.876C67.9202 89.404 67.3694 89.7144 66.8363 89.5696C65.7611 89.2778 64.6841 88.9362 63.6363 88.5552C63.2811 88.4258 63.0448 88.1186 62.9918 87.7724ZM71.3291 89.8035C71.3154 89.7139 71.314 89.6207 71.3268 89.5262C71.3986 88.9837 71.901 88.6013 72.4491 88.6724C73.4983 88.8081 74.5671 88.9013 75.6263 88.9493C76.1785 88.9742 76.6055 89.4393 76.5803 89.9845C76.5552 90.5311 76.0866 90.9541 75.5344 90.9292C74.4194 90.879 73.2939 90.7808 72.1895 90.6379C71.7369 90.5795 71.394 90.2297 71.3291 89.8044V89.8035ZM79.9079 89.9718C79.9047 89.9519 79.9024 89.9316 79.9005 89.9108C79.8512 89.366 80.2576 88.8841 80.808 88.8357C81.5851 88.7669 82.3696 88.6733 83.1399 88.5579C83.4187 88.5163 83.6967 88.471 83.9728 88.4235C84.5177 88.3299 85.0361 88.6909 85.1307 89.2303C85.2372 89.7741 84.8605 90.2822 84.3161 90.3759C84.0249 90.4261 83.7332 90.4732 83.4397 90.5171C82.6297 90.6383 81.8041 90.7369 80.9867 90.8093C80.4569 90.8564 79.9865 90.4858 79.9079 89.9718Z" fill="url(#paint5_linear_173_5)"/>
<path d="M41.5139 34.3481C41.4841 34.1531 41.5125 33.9481 41.6076 33.7585C41.8494 33.2785 42.1059 32.7943 42.3701 32.3197C42.6371 31.8401 43.246 31.6659 43.7301 31.9297C44.2142 32.1939 44.3911 32.7961 44.1241 33.2757C43.8732 33.7268 43.6295 34.1866 43.4 34.6426C43.1536 35.1322 42.5525 35.3317 42.0579 35.0878C41.7543 34.9381 41.5614 34.6567 41.5143 34.3485L41.5139 34.3481Z" fill="url(#paint6_linear_173_5)"/>
</g>
<path d="M53.1972 33.9485C53.0632 34.095 53.0376 34.3095 53.1341 34.4824L55.8783 39.4214C54.5896 41.7239 53.6621 44.2464 53.1707 46.9114L47.8884 49.0085C47.7032 49.0823 47.5853 49.2637 47.5954 49.461L47.9327 56.2135C47.9428 56.4107 48.0781 56.5804 48.2696 56.6352L53.7352 58.2061C54.4904 60.81 55.6644 63.2297 57.1766 65.3948L54.9384 70.5777C54.8598 70.7591 54.9064 70.9704 55.0545 71.103L60.1174 75.6416C60.2655 75.7741 60.4822 75.7995 60.6568 75.704L65.647 72.9884C67.9734 74.2638 70.522 75.1814 73.2145 75.6683L75.3334 80.8964C75.4074 81.0797 75.5912 81.1964 75.7905 81.1864L82.6134 80.8525C82.8127 80.8426 82.9841 80.7091 83.0394 80.5191L84.6266 75.1095C87.2575 74.362 89.7023 73.2001 91.8897 71.7034L97.1263 73.9186C97.3096 73.996 97.5231 73.9498 97.657 73.8037L102.243 68.7927C102.377 68.6461 102.402 68.4317 102.306 68.2588L99.5615 63.3198C100.851 61.0172 101.778 58.4948 102.269 55.8298L107.551 53.7326C107.737 53.6589 107.854 53.4775 107.844 53.2802L107.507 46.5272C107.497 46.33 107.362 46.1603 107.17 46.1056L101.705 44.5346C100.949 41.9307 99.7754 39.511 98.2632 37.3455L100.501 32.1626C100.58 31.9807 100.533 31.7699 100.385 31.6373L95.3224 27.0987C95.1743 26.9661 94.9576 26.9408 94.783 27.0362L89.7928 29.7519C87.4664 28.4764 84.9178 27.5588 82.2253 27.072L80.1064 21.8438C80.0323 21.6606 79.8486 21.5439 79.6488 21.5538L72.8264 21.8877C72.6271 21.8977 72.4557 22.0312 72.3999 22.2212L70.8127 27.6308C68.1818 28.3782 65.7375 29.5402 63.5496 31.0369L58.3131 28.8216C58.1293 28.7438 57.9163 28.79 57.7823 28.9366L53.1967 33.9475L53.1972 33.9485Z" fill="url(#paint7_linear_173_5)"/>
<path d="M70.9293 52.3848C70.4278 49.1095 72.4177 45.869 75.7119 44.8722C79.3329 43.7768 83.1789 45.8011 84.2856 49.3846C84.8223 51.1207 84.6431 52.9595 83.7818 54.5621C82.921 56.1647 81.4806 57.3397 79.7265 57.8705C76.1055 58.9659 72.2596 56.9416 71.1528 53.3581C71.0532 53.035 70.9787 52.7097 70.9293 52.3848ZM82.927 50.6013C82.8881 50.3483 82.831 50.0968 82.7537 49.8475C81.9053 47.1001 78.9558 45.5482 76.18 46.388C73.4038 47.2282 71.8344 50.1461 72.6843 52.8943C73.5327 55.6416 76.4822 57.1936 79.258 56.3538C80.6029 55.9466 81.7069 55.0462 82.3674 53.8169C82.9041 52.8178 83.0952 51.6994 82.927 50.6008V50.6013Z" fill="#91B3FA"/>
<path d="M61.1451 53.9928C61.0591 53.4304 61.0011 52.8603 60.9723 52.2843C60.9631 52.1028 60.9572 51.9214 60.954 51.74C60.9384 50.845 60.9947 49.95 61.1222 49.0691C61.124 49.0569 61.1259 49.0451 61.1272 49.0329C61.1323 48.999 61.1373 48.965 61.1428 48.9307C61.1528 48.8646 61.1638 48.7981 61.1743 48.732C61.2031 48.5583 61.3421 48.4293 61.5089 48.4044C61.5496 48.3986 61.5917 48.3986 61.6347 48.4054C61.8527 48.4406 61.9999 48.6452 61.9647 48.8605C61.78 49.9722 61.7156 51.1106 61.7723 52.2445C62.0529 57.878 65.2763 62.6904 69.8948 65.2956C72.4634 66.7453 75.4637 67.5113 78.6294 67.3566C79.1844 67.3294 79.7343 67.2747 80.2765 67.1932C83.9249 66.6458 87.2442 64.8875 89.7549 62.1442C92.639 58.9929 94.1101 54.9189 93.8979 50.6722C93.4591 41.9022 85.8975 35.1266 77.0408 35.5601C76.4945 35.5868 75.9519 35.6406 75.4152 35.7216C73.0879 36.0709 70.8639 36.9206 68.9055 38.2169C68.8548 38.2504 68.7994 38.2707 68.7432 38.2793C68.5946 38.3015 68.4392 38.24 68.3505 38.1079C68.228 37.9255 68.2765 37.6798 68.4607 37.5581C70.5169 36.1971 72.852 35.3049 75.295 34.9384C75.8586 34.8538 76.4282 34.7972 77.0015 34.7687C86.3002 34.3135 94.2385 41.4334 94.6984 50.6333C94.921 55.0913 93.3763 59.3684 90.3487 62.6763C87.7133 65.5567 84.2285 67.4023 80.3981 67.9769C79.8289 68.0624 79.252 68.1194 78.6692 68.1484C74.1645 68.3687 69.8431 66.8399 66.5009 63.8437C63.5903 61.2344 61.7256 57.7844 61.1455 53.9923L61.1451 53.9928Z" fill="#91B3FA"/>
<g opacity="0.3">
<path d="M16.7558 14.5358C16.6342 14.3054 16.6744 14.0148 16.8733 13.8256C17.244 13.4721 17.6308 13.1245 18.023 12.7936C18.2776 12.5782 18.6603 12.6085 18.8779 12.8606C19.0968 13.1123 19.0648 13.4921 18.8102 13.7071C18.4367 14.0225 18.0678 14.3539 17.714 14.6911C17.4731 14.921 17.0891 14.9138 16.8564 14.6752C16.8152 14.6327 16.7819 14.5856 16.7558 14.5363V14.5358Z" fill="url(#paint8_linear_173_5)"/>
<path d="M20.3997 11.6516C20.2575 11.3819 20.3421 11.0439 20.604 10.8734C21.3441 10.3906 22.1181 9.93994 22.9039 9.53409C23.0694 9.44857 23.2362 9.36487 23.4045 9.28207C23.7053 9.13502 24.066 9.27799 24.2177 9.55354C24.3663 9.85081 24.2433 10.2105 23.9434 10.358C23.7825 10.4367 23.623 10.5168 23.4648 10.5987C22.7156 10.9856 21.9773 11.4154 21.2714 11.8756C20.9917 12.0584 20.6159 11.9814 20.4312 11.705C20.4198 11.6873 20.4093 11.6697 20.3997 11.6516ZM26.0436 8.88571C26.0303 8.86038 26.0184 8.83413 26.0083 8.80653C25.8973 8.49343 26.0637 8.15092 26.3795 8.04097C27.3935 7.68806 28.4385 7.39441 29.4849 7.16818C29.8122 7.09715 30.1354 7.30437 30.2067 7.62652C30.2781 7.95048 30.071 8.27037 29.7437 8.34095C28.7453 8.55678 27.7482 8.8373 26.7814 9.17348C26.4934 9.27347 26.1802 9.14588 26.0431 8.88571H26.0436ZM32.1962 7.5573C32.1606 7.48988 32.1377 7.41432 32.1299 7.33378C32.0998 7.00349 32.3457 6.71165 32.6794 6.68179C33.7482 6.58632 34.8349 6.5551 35.9087 6.5913C36.2438 6.60216 36.5053 6.87906 36.4943 7.21162C36.4833 7.54282 36.2026 7.80253 35.868 7.79122C34.844 7.75728 33.8081 7.78624 32.7891 7.87764C32.5368 7.90026 32.3069 7.76633 32.1967 7.5573H32.1962ZM38.4911 7.76633C38.433 7.65593 38.4092 7.52743 38.4298 7.39532C38.4824 7.06774 38.7933 6.84422 39.1242 6.89625C40.1862 7.06321 41.2463 7.29623 42.2767 7.59033C42.5985 7.68218 42.7836 8.01564 42.6913 8.33326C42.599 8.65179 42.2625 8.83549 41.9402 8.74364C40.9587 8.46357 39.9466 8.24051 38.9345 8.0817C38.737 8.05093 38.5775 7.92877 38.4915 7.76588L38.4911 7.76633ZM44.5432 9.49065C44.4623 9.33682 44.4486 9.1495 44.5231 8.97711C44.6543 8.67215 45.0104 8.53053 45.319 8.66039C46.3064 9.07755 47.2778 9.55852 48.2049 10.0906C48.4956 10.2567 48.5939 10.6241 48.4257 10.9109C48.2575 11.1978 47.8863 11.2955 47.5969 11.1295C46.7119 10.6218 45.7857 10.1625 44.8431 9.76529C44.7091 9.70873 44.6063 9.60965 44.5436 9.49065H44.5432ZM49.9882 12.6162C49.8831 12.4167 49.8963 12.1669 50.0426 11.9756C50.2447 11.7113 50.625 11.6597 50.892 11.8597C51.7477 12.5018 52.5706 13.2026 53.3377 13.9433C53.5772 14.1763 53.5818 14.555 53.3482 14.7926C53.1146 15.0301 52.7301 15.0346 52.4906 14.8034C51.7587 14.0971 50.9743 13.4293 50.1587 12.8171C50.0847 12.7619 50.0275 12.6927 49.9873 12.6167L49.9882 12.6162ZM54.4947 16.9635C54.3631 16.7141 54.4239 16.3992 54.6538 16.2173C54.9153 16.0106 55.297 16.0527 55.5064 16.3115C56.1743 17.139 56.7987 18.0186 57.3619 18.9267C57.5329 19.2126 57.4474 19.5796 57.1621 19.7524C56.8769 19.9257 56.5034 19.8375 56.3279 19.5551C55.7912 18.6887 55.1955 17.8498 54.5587 17.0607C54.5336 17.0295 54.5125 16.9969 54.4947 16.963V16.9635ZM58.9189 25.1914C58.9029 25.1606 58.8888 25.1281 58.8778 25.0937C58.6122 24.2589 58.2954 23.4241 57.937 22.6115C57.8835 22.488 57.8291 22.3676 57.7738 22.2482C57.6348 21.9464 57.7683 21.5903 58.0732 21.4523C58.3781 21.3138 58.748 21.4441 58.8773 21.7482C58.9359 21.8758 58.9939 22.0038 59.0501 22.1332C59.4245 22.9821 59.7564 23.8571 60.0348 24.7326C60.1354 25.0489 59.958 25.386 59.6385 25.4855C59.3537 25.5742 59.0524 25.4448 58.9189 25.1914Z" fill="url(#paint9_linear_173_5)"/>
</g>
<g opacity="0.3">
<path d="M11.9859 44.8155C11.8328 44.525 11.9439 44.1653 12.2364 44.0092C12.5313 43.8522 12.8993 43.9613 13.0579 44.2531C13.5361 45.1318 14.0723 45.9896 14.652 46.8014C14.8417 47.0719 14.7804 47.447 14.5066 47.6384C14.2328 47.8298 13.8543 47.7651 13.6609 47.4945C13.0534 46.6425 12.4906 45.744 11.9896 44.8228C11.9882 44.8205 11.9868 44.8178 11.9859 44.8155ZM10.6817 42.0288C10.6716 42.0094 10.6625 41.9899 10.6543 41.9695C10.2684 40.9968 9.93839 39.991 9.67325 38.9797C9.58959 38.6585 9.78387 38.3313 10.108 38.2481C10.4326 38.1644 10.7631 38.3594 10.8476 38.6779C11.1004 39.6426 11.4154 40.6027 11.7834 41.5311C11.9059 41.8397 11.7523 42.1881 11.4406 42.3089C11.1489 42.422 10.823 42.2967 10.6817 42.0288ZM15.5599 49.8211C15.4355 49.5849 15.4812 49.2872 15.6897 49.0994C15.937 48.8768 16.3206 48.8944 16.5459 49.1397C17.2252 49.8781 17.9548 50.5821 18.7164 51.2318C18.9697 51.4499 18.9985 51.8273 18.7791 52.0784C18.5605 52.3295 18.1775 52.3575 17.9238 52.1408C17.126 51.4599 16.3608 50.7219 15.649 49.9473C15.6129 49.9079 15.5832 49.8654 15.5599 49.8211ZM9.12971 36.0912C9.09771 36.0306 9.07576 35.9636 9.06616 35.8921C8.92765 34.8556 8.85313 33.7995 8.84399 32.7548C8.84079 32.4231 9.11005 32.1521 9.44513 32.1489C9.7793 32.1462 10.0531 32.4127 10.0568 32.7439C10.0659 33.7402 10.1372 34.7465 10.2689 35.7351C10.3123 36.0636 10.0787 36.3654 9.74685 36.4088C9.48719 36.4428 9.24445 36.3084 9.12971 36.0912ZM20.2506 53.8226C20.1514 53.6344 20.1564 53.3991 20.284 53.2104C20.4705 52.9344 20.8472 52.8611 21.1256 53.0453C21.9617 53.5995 22.8408 54.109 23.7395 54.5592C24.0389 54.709 24.1578 55.0705 24.0065 55.3664C23.8552 55.6623 23.4899 55.7804 23.1909 55.6306C22.2492 55.1583 21.3272 54.6244 20.4499 54.0434C20.3626 53.9855 20.2954 53.9086 20.2501 53.8226H20.2506ZM25.7743 56.5939C25.6984 56.4496 25.6815 56.2758 25.7418 56.1111C25.8561 55.7994 26.204 55.6383 26.5189 55.7514C27.4675 56.0921 28.4449 56.3785 29.4241 56.6034C29.7509 56.6785 29.9539 57.0011 29.878 57.3237C29.8026 57.6468 29.4767 57.8477 29.1507 57.7726C28.124 57.5368 27.0991 57.2368 26.1052 56.8799C25.9571 56.8265 25.8424 56.7219 25.7747 56.5934L25.7743 56.5939ZM31.8099 57.9757C31.7564 57.8744 31.7313 57.7572 31.745 57.6346C31.7802 57.3047 32.0792 57.0663 32.4124 57.1011C33.4154 57.2079 34.4339 57.2536 35.4392 57.2382C35.7733 57.2337 36.0499 57.4979 36.0545 57.8291C36.0595 58.1608 35.7925 58.4336 35.4574 58.4386C34.4037 58.4544 33.3354 58.4065 32.283 58.2951C32.0737 58.273 31.9004 58.1472 31.8099 57.9753V57.9757Z" fill="url(#paint10_linear_173_5)"/>
<path d="M9.07624 29.9307C9.02229 29.8279 8.99761 29.709 9.01178 29.585C9.07075 29.0746 9.14526 28.5633 9.23304 28.0661C9.29063 27.7399 9.60515 27.5209 9.93521 27.5779C10.2644 27.6358 10.4856 27.9462 10.4285 28.2729C10.3443 28.7475 10.2735 29.2348 10.2168 29.7221C10.1789 30.0515 9.87761 30.2881 9.54526 30.2501C9.33772 30.2266 9.16629 30.1017 9.07624 29.9311V29.9307Z" fill="url(#paint11_linear_173_5)"/>
</g>
<path d="M16.256 26.7863C16.2044 26.9053 16.2346 27.0437 16.3319 27.131L19.0986 29.6187C18.7941 31.3199 18.7612 33.0813 19.0295 34.8396L16.2016 37.2552C16.1024 37.3399 16.0686 37.4778 16.1171 37.5982L17.7802 41.7196C17.8286 41.84 17.9493 41.9169 18.08 41.9106L21.8112 41.7337C22.8407 43.191 24.0901 44.4457 25.4949 45.4714L25.2206 49.1612C25.211 49.2906 25.2855 49.4119 25.4057 49.463L29.526 51.2131C29.6467 51.2643 29.7865 51.2344 29.8743 51.138L32.3877 48.3997C34.1065 48.7011 35.8862 48.7337 37.6626 48.4681L40.1033 51.267C40.1888 51.3651 40.3282 51.3986 40.4498 51.3507L44.614 49.7046C44.7356 49.6567 44.8133 49.5372 44.8069 49.4078L44.6281 45.7149C46.1006 44.6964 47.3682 43.4593 48.4041 42.0689L52.1321 42.34C52.2629 42.3495 52.3849 42.2757 52.4366 42.1567L54.2048 38.0787C54.2565 37.9597 54.2258 37.8213 54.1289 37.7339L51.3623 35.2463C51.6667 33.5451 51.6997 31.7837 51.4313 30.0254L54.2592 27.6097C54.3584 27.5251 54.3922 27.3876 54.3438 27.2668L52.6807 23.1453C52.6322 23.025 52.5115 22.9485 52.3808 22.9544L48.6496 23.1313C47.6206 21.6739 46.3707 20.4193 44.9659 19.3935L45.2398 15.7038C45.2494 15.5743 45.1749 15.4531 45.0546 15.402L40.9344 13.6519C40.8142 13.6007 40.6743 13.6306 40.5861 13.727L38.0727 16.4652C36.3538 16.1639 34.5742 16.1313 32.7977 16.3969L30.3571 13.598C30.2716 13.4998 30.1321 13.4663 30.0105 13.5143L25.8469 15.1603C25.7253 15.2083 25.6476 15.3278 25.654 15.4572L25.8327 19.1501C24.3603 20.1686 23.0926 21.4056 22.0567 22.796L18.3287 22.525C18.198 22.5155 18.0759 22.5893 18.0238 22.7083L16.2556 26.7863H16.256Z" fill="url(#paint12_linear_173_5)"/>
<path d="M31.1584 34.525C30.7058 33.6662 30.5435 32.6907 30.7003 31.7175C30.8933 30.5198 31.5461 29.4683 32.5385 28.7561C34.5861 27.287 37.4601 27.7403 38.9454 29.7674C40.4283 31.7998 39.9712 34.6399 37.9232 36.109C36.9312 36.8212 35.7179 37.108 34.5083 36.9166C33.2978 36.7257 32.2354 36.0796 31.5163 35.0973C31.3819 34.9136 31.2626 34.7222 31.1584 34.525ZM38.224 30.889C38.1486 30.7456 38.0617 30.6067 37.9634 30.4718C36.8709 28.981 34.757 28.6475 33.2503 29.7284C32.5207 30.2519 32.0402 31.0256 31.8985 31.9066C31.7563 32.788 31.9703 33.6703 32.4987 34.3933C33.0277 35.1154 33.8094 35.5909 34.6994 35.7317C35.5899 35.8724 36.4818 35.6611 37.2119 35.1371C38.5824 34.1539 38.9851 32.3328 38.224 30.8894V30.889Z" fill="#91B3FA"/>
<path d="M25.1954 37.7015C25.0181 37.3649 24.8562 37.0165 24.7109 36.6563C24.4224 35.9414 24.2066 35.1967 24.0699 34.4411C24.064 34.4071 24.0581 34.3732 24.0521 34.3393C24.0069 34.0764 24.1422 33.8244 24.3689 33.7067C24.4242 33.6782 24.4846 33.6579 24.549 33.647C24.8791 33.5918 25.1909 33.8126 25.248 34.1388C25.3687 34.8456 25.5671 35.5424 25.8368 36.2106C25.8514 36.2477 25.867 36.2844 25.8821 36.3206C26.5353 37.8956 27.5607 39.2503 28.8608 40.2968C29.5666 40.8651 30.3538 41.3424 31.2082 41.7143C31.2151 41.7175 31.2219 41.7202 31.2288 41.7234C31.2503 41.7324 31.2713 41.7419 31.2928 41.7505C33.7998 42.8152 36.5751 42.8505 39.1086 41.8492C39.4363 41.7198 39.755 41.575 40.0635 41.4153C42.1408 40.342 43.7682 38.6091 44.7054 36.4486C45.781 33.9674 45.8162 31.2205 44.8046 28.7134C43.7924 26.2082 41.8551 24.2391 39.3486 23.1735C36.842 22.1089 34.0663 22.0736 31.5328 23.0749C31.2105 23.202 30.8955 23.3455 30.5902 23.5034C29.2649 24.1879 28.1061 25.1517 27.2 26.3299C27.1442 26.4023 27.0752 26.4588 26.9984 26.4982C26.7968 26.6022 26.5435 26.5896 26.3502 26.4439C26.0841 26.2425 26.032 25.8665 26.2354 25.6023C27.2494 24.2843 28.5463 23.2056 30.0283 22.4396C30.3707 22.2627 30.7223 22.1025 31.083 21.96C33.9177 20.8397 37.0226 20.8791 39.8276 22.0704C42.6318 23.2617 44.8009 25.4602 45.9314 28.2677C47.0633 31.073 47.024 34.1461 45.8199 36.9219C44.7721 39.3385 42.9513 41.2773 40.6272 42.4781C40.282 42.6564 39.9255 42.8188 39.5588 42.9636C34.0713 45.1322 27.872 42.7781 25.195 37.701L25.1954 37.7015Z" fill="#91B3FA"/>
<path d="M123.571 124.281C123.571 124.281 124.051 125.029 124.171 127.123C124.183 127.318 124.026 127.485 123.829 127.485H120.078C119.928 127.485 119.82 127.338 119.868 127.197C120.088 126.553 120.752 124.984 122.235 124.086L123.571 124.281H123.571Z" fill="url(#paint13_linear_173_5)"/>
<path d="M123.734 122.861L123.522 124.622C123.503 124.774 123.383 124.896 123.23 124.913C123.024 124.937 122.726 124.953 122.436 124.906C122.173 124.863 121.983 124.631 121.983 124.367V122.666L123.734 122.861Z" fill="url(#paint14_linear_173_5)"/>
<path d="M114.291 124.086C114.291 124.086 115.009 125.191 114.994 126.707C114.99 127.064 114.688 127.348 114.328 127.348H108.503C108.23 127.348 108.119 127.001 108.342 126.846C109.444 126.08 111.611 124.649 113.178 124.086H114.291Z" fill="url(#paint15_linear_173_5)"/>
<path d="M114.891 122.185L114.439 124.359C114.388 124.603 114.148 124.766 113.903 124.712C113.754 124.679 113.578 124.616 113.391 124.499C113.213 124.389 113.122 124.179 113.159 123.974L113.627 121.34L114.891 122.185V122.185Z" fill="url(#paint16_linear_173_5)"/>
<path d="M122.903 91.9551C122.903 91.9551 124.476 93.3278 124.772 94.9798C125.068 96.6312 123.933 123.476 123.933 123.476C123.933 123.476 122.36 123.736 121.549 123.249C121.549 123.249 120.587 105.827 119.856 101.801C119.856 101.801 116.022 119.849 114.96 123.11C114.96 123.11 113.444 123.292 112.955 123.006C112.955 123.006 113.96 99.612 115.222 95.453L122.903 91.9555L122.903 91.9551Z" fill="url(#paint17_linear_173_5)"/>
<path d="M119.902 101.231C119.976 101.231 120.044 101.182 120.063 101.107L120.715 98.6324L122.104 97.7505C122.182 97.7012 122.204 97.5989 122.154 97.522C122.105 97.4451 122.001 97.4225 121.924 97.4722L120.48 98.3889C120.445 98.4111 120.419 98.4459 120.409 98.4862L119.74 101.024C119.717 101.112 119.77 101.202 119.86 101.225C119.874 101.229 119.888 101.231 119.902 101.231H119.902Z" fill="url(#paint18_linear_173_5)"/>
<path d="M107.542 73.4254C113.966 75.1112 115.137 76.9636 115.137 76.9636L110.453 80.5923C110.453 80.5923 104.366 78.3124 101.178 73.4131C102.315 72.8263 103.235 72.0594 103.872 71.4341C104.837 72.2992 106.043 73.0322 107.542 73.4254Z" fill="url(#paint19_linear_173_5)"/>
<path d="M101.032 60.9183C101.111 60.7233 101.401 60.7649 101.422 60.9744L101.614 62.9363C101.651 63.3154 101.569 63.6964 101.38 64.0281L100.749 64.9085C100.494 65.3565 100.443 65.8899 100.613 66.3759C101.019 67.5387 101.982 69.7408 103.873 71.4343C103.236 72.0596 102.316 72.8266 101.179 73.4134C100.009 71.6158 99.2296 69.4662 99.2849 66.9464C98.9626 66.7089 98.8424 66.2867 98.9914 65.9175L101.033 60.9183H101.032Z" fill="url(#paint20_linear_173_5)"/>
<path d="M105.198 79.3265C107.529 76.8398 111.97 75.7164 114.541 75.2553C115.667 75.0531 116.778 75.6734 117.177 76.7353C118.334 79.8138 121.481 87.8233 122.091 89.1996C122.591 90.329 123.114 91.4321 123.446 92.1216C123.644 92.5333 123.471 93.0265 123.055 93.2247C120.892 94.2568 117 95.4246 115.422 95.8797C115.075 95.9797 114.729 95.7218 114.729 95.3639C114.729 95.0603 114.646 94.7626 114.488 94.5024L108.511 84.6447C104.786 88.7327 101.524 89.1064 99.0179 88.2119C99.4394 86.9229 99.7151 85.6315 99.8472 84.338C103.55 83.7104 105.198 79.3265 105.198 79.3265Z" fill="url(#paint21_linear_173_5)"/>
<path d="M93.7279 83.6519L94.3962 82.77C96.5594 84.2405 98.3674 84.5889 99.8476 84.3378C99.7155 85.6314 99.4394 86.9231 99.0184 88.2117C95.7169 87.0331 93.7283 83.6514 93.7283 83.6514L93.7279 83.6519Z" fill="url(#paint22_linear_173_5)"/>
<path d="M94.1987 83.669L90.4346 83.8143L86.969 81.8978C87.4664 81.5892 90.2796 82.2201 90.2796 82.2201C90.2796 82.2201 93.2204 81.7797 94.0163 81.7788C94.6774 81.7779 94.5832 82.7194 94.532 83.038C94.5215 83.1032 94.5128 83.1421 94.5128 83.1421L94.1987 83.669Z" fill="url(#paint23_linear_173_5)"/>
<path d="M111.005 70.6889L112.99 75.4854C112.99 75.4854 110.708 77.0487 108.873 76.8998L107.881 72.5865L111.005 70.6885V70.6889Z" fill="url(#paint24_linear_173_5)"/>
<path d="M107.65 67.4185C107.604 67.4823 106.213 72.4571 106.213 72.4571L109.1 73.1828L111.126 68.6619C111.126 68.6619 108.411 66.3507 107.65 67.4185Z" fill="url(#paint25_linear_173_5)"/>
<path d="M110.039 69.3487L109.161 71.8115C109.149 71.8431 109.134 71.8721 109.115 71.8997C108.995 72.0675 108.543 72.6141 108.006 72.1214C107.518 71.6744 107.067 71.2735 106.65 71.2006C106.462 71.1681 106.281 71.2812 106.231 71.4626C106.105 71.9146 105.839 72.9385 105.745 73.8629C105.726 74.0507 105.857 74.2199 106.044 74.2552C106.608 74.3611 107.803 74.5515 108.802 74.4819C108.937 74.4724 109.056 74.3923 109.113 74.2701C109.388 73.6751 110.23 71.8703 110.544 71.4033C110.838 70.9649 111.559 70.9771 111.862 71.0038C111.961 71.0124 112.058 70.9807 112.133 70.916C112.398 70.6866 112.901 70.1003 112.193 69.3989C112.045 69.2519 112.049 69.0153 112.202 68.8732C112.506 68.5899 112.831 68.0882 112.324 67.4651C111.809 66.8321 111.129 66.933 110.713 67.0833C110.544 67.1443 110.36 67.0738 110.269 66.9208C110.217 66.834 110.126 66.7684 109.968 66.7815C109.755 66.7996 109.577 66.624 109.581 66.4132C109.588 66.0078 109.441 65.4956 108.731 65.2766C107.47 64.8879 106.683 66.0937 106.606 66.9937C106.528 67.8936 107.919 68.2375 108.737 68.1769C109.359 68.1307 109.821 68.7411 110.007 69.0361C110.066 69.1297 110.077 69.2442 110.04 69.3483L110.039 69.3487Z" fill="url(#paint26_linear_173_5)"/>
<path d="M110.214 72.2981C110.214 72.2981 110.418 70.7356 111.074 70.6591C111.731 70.5826 112.37 71.1167 111.717 71.9939C110.905 73.0848 110.214 72.2985 110.214 72.2985V72.2981Z" fill="url(#paint27_linear_173_5)"/>
<path d="M2.41232 100.617H45.3426C46.5704 100.617 47.567 101.603 47.567 102.818V127.222H0.187866V102.818C0.187866 101.603 1.18444 100.617 2.41232 100.617Z" fill="#91B3FA"/>
<path d="M22.4384 42.6631C22.4384 42.6631 21.0944 43.3101 20.8476 44.053C20.6492 44.6494 19.1634 44.7263 19.0167 45.8991C18.9408 46.5045 18.4882 46.9895 17.8789 47.0818C16.3612 47.3121 14.0224 48.0921 13.6485 50.6996C13.3628 52.69 14.3881 53.4452 15.4642 53.7062C16.2546 53.8981 16.7799 54.6591 16.6199 55.4487C16.4668 56.2061 16.6953 57.0816 18.021 57.7743C20.992 59.3258 23.9589 54.0985 23.9589 54.0985L24.5669 44.9711L22.4389 42.6631H22.4384Z" fill="url(#paint28_linear_173_5)"/>
<path d="M10.2267 99.8954L10.0343 101.46C9.99772 101.756 9.76183 101.991 9.46149 102.025C8.95498 102.082 8.14172 102.141 7.34629 102.057C6.99704 102.021 6.77029 101.671 6.87681 101.34C7.07064 100.736 7.42538 99.8293 7.93692 99.2959H9.69006C10.0142 99.2959 10.2651 99.5764 10.2263 99.895L10.2267 99.8954Z" fill="url(#paint29_linear_173_5)"/>
<path d="M23.9584 81.5708L24.2542 83.2938C24.2542 83.2938 23.2631 93.2288 23.0871 97.2028C23.0597 97.8258 23.2224 98.4416 23.5529 98.9724L25.2759 101.742L20.8965 99.1841L20.8092 98.6552L21.526 97.6797L20.587 86.5501C20.5317 85.8963 20.6679 85.2407 20.9797 84.6615L21.8853 82.977L23.958 81.5708H23.9584Z" fill="url(#paint30_linear_173_5)"/>
<path d="M25.5643 102.143H24.1669C23.9054 102.143 23.6585 102.024 23.499 101.819C23.0633 101.259 22.1605 100.166 21.7289 100.137C21.1479 100.098 21.2224 102.143 21.2224 102.143H20.8969L20.4846 99.6026C20.3808 98.9633 20.7022 98.3303 21.2818 98.0308C21.2818 98.0308 21.4149 99.0031 22.1349 99.4329C22.8549 99.8628 25.0656 101.403 25.0656 101.403C25.0656 101.403 25.3362 101.365 25.6334 101.418C26.0745 101.497 26.0128 102.143 25.5648 102.143H25.5643Z" fill="url(#paint31_linear_173_5)"/>
<path d="M17.9602 82.3889C17.9602 82.3889 12.155 93.2882 11.232 95.7767C10.309 98.2652 9.98583 100.341 9.97349 100.538C9.95429 100.845 9.568 101.14 8.50423 101.14C7.9552 101.14 7.68595 100.922 7.55429 100.711C7.44183 100.531 7.43635 100.306 7.53098 100.116C7.86697 99.4435 8.93257 97.2938 9.32709 96.3192C9.7984 95.155 10.8119 89.8798 11.3678 88.0456C11.9237 86.2113 12.5522 84.2219 14.9728 82.3889C14.9728 82.3889 16.6345 80.7777 17.9602 82.3889Z" fill="url(#paint32_linear_173_5)"/>
<path d="M21.6279 64.5298C23.1255 58.2493 19.3317 54.697 19.3317 54.697C21.7253 52.423 26.0869 51.3882 26.0869 51.3882C26.0869 51.3882 30.2487 54.3997 29.755 56.7566C29.4656 58.138 26.8297 65.0316 26.8297 65.0316C26.8297 65.0316 24.3922 66.1732 21.6279 64.5303V64.5298Z" fill="url(#paint33_linear_173_5)"/>
<path d="M18.3077 67.6391C18.9171 65.822 21.6279 64.5298 21.6279 64.5298C24.3923 66.1731 26.8297 65.0311 26.8297 65.0311C26.8297 65.0311 27.3765 67.0988 26.9989 69.0209C26.6217 70.9425 24.2547 83.2937 24.2547 83.2937C20.5248 84.0416 14.7891 82.5412 14.7891 82.5412C17.1648 78.3669 17.6983 69.4566 18.3077 67.6391Z" fill="url(#paint34_linear_173_5)"/>
<path d="M23.3659 47.2378L22.1486 52.6505C22.032 53.1274 22.4713 53.0492 22.9582 52.9582C23.7559 52.8093 24.7835 52.503 25.1273 51.8886C25.1621 51.8262 25.1799 51.7556 25.1895 51.6845L25.7125 47.9309C25.7541 47.6332 25.5913 47.3441 25.3138 47.2224L24.3045 46.7794C23.9159 46.6089 23.4661 46.8283 23.3659 47.2373V47.2378Z" fill="url(#paint35_linear_173_5)"/>
<path d="M24.7944 42.0838C24.7944 42.0838 26.2362 42.6865 27.2168 44.7488C28.1974 46.8111 27.465 47.7635 26.5453 47.8938C25.6255 48.0246 24.2504 48.0047 22.7953 46.6726C21.3407 45.3406 22.9197 41.3694 24.7944 42.0838Z" fill="url(#paint36_linear_173_5)"/>
<path d="M23.7737 45.5714C23.7737 45.5714 22.6857 42.5539 25.3883 42.5186L26.0242 42.9584C26.0242 42.9584 27.0158 41.2857 25.3883 40.4871C23.7605 39.6885 21.8555 40.3482 21.163 42.5186C20.4704 44.6891 20.352 46.1419 21.5045 47.1803C22.6569 48.2187 23.1319 47.0414 23.1319 47.0414C23.1319 47.0414 22.5042 46.07 22.7598 45.5505C23.0153 45.0311 23.6046 45.6582 23.6046 45.6582L23.7737 45.5718V45.5714Z" fill="url(#paint37_linear_173_5)"/>
<path d="M23.4705 45.908C23.4705 45.908 22.9206 44.3532 22.1869 44.9724C21.4532 45.5916 22.7834 46.4086 23.3041 46.6734L23.471 45.908H23.4705Z" fill="url(#paint38_linear_173_5)"/>
<path d="M20.0151 57.5799C22.8416 58.8866 33.6238 62.8248 37.0016 48.7335C37.0016 48.7335 37.0249 48.3118 36.7456 47.8087C36.6043 47.5544 36.4544 46.535 36.3844 46.0115C36.362 45.8432 36.1975 45.7328 36.0306 45.7721C35.8999 45.8029 35.7943 45.8975 35.7499 46.0228L34.9376 48.3217C34.9545 48.7167 35.259 49.0412 35.6562 49.0859C35.9095 49.1145 36.0727 49.3651 35.9922 49.6045C32.6871 59.3984 19.7285 54.2612 19.5794 54.4236C19.3344 54.6905 19.099 55.0833 18.9934 55.5357C18.7995 56.3669 19.2343 57.2189 20.0151 57.5799Z" fill="url(#paint39_linear_173_5)"/>
<defs>
<linearGradient id="paint0_linear_173_5" x1="137.223" y1="128.785" x2="43.1864" y2="45.6512" gradientUnits="userSpaceOnUse">
<stop stop-color="#DAE3FE"/>
<stop offset="1" stop-color="#E9EFFD"/>
</linearGradient>
<linearGradient id="paint1_linear_173_5" x1="32.1163" y1="46.9352" x2="38.5558" y2="55.5943" gradientUnits="userSpaceOnUse">
<stop stop-color="#FEBBBA"/>
<stop offset="1" stop-color="#FF928E"/>
</linearGradient>
<linearGradient id="paint2_linear_173_5" x1="99.7505" y1="66.1804" x2="87.4068" y2="8.74023" gradientUnits="userSpaceOnUse">
<stop stop-color="#4F52FF"/>
<stop offset="1" stop-color="#4042E2"/>
</linearGradient>
<linearGradient id="paint3_linear_173_5" x1="112.498" y1="66.0545" x2="112.988" y2="69.3199" gradientUnits="userSpaceOnUse">
<stop stop-color="#4F52FF"/>
<stop offset="1" stop-color="#4042E2"/>
</linearGradient>
<linearGradient id="paint4_linear_173_5" x1="89.8956" y1="86.7745" x2="90.2321" y2="89.0163" gradientUnits="userSpaceOnUse">
<stop stop-color="#4F52FF"/>
<stop offset="1" stop-color="#4042E2"/>
</linearGradient>
<linearGradient id="paint5_linear_173_5" x1="66.0634" y1="94.3019" x2="53.3831" y2="35.2951" gradientUnits="userSpaceOnUse">
<stop stop-color="#4F52FF"/>
<stop offset="1" stop-color="#4042E2"/>
</linearGradient>
<linearGradient id="paint6_linear_173_5" x1="42.6223" y1="31.8978" x2="43.1059" y2="35.1211" gradientUnits="userSpaceOnUse">
<stop stop-color="#4F52FF"/>
<stop offset="1" stop-color="#4042E2"/>
</linearGradient>
<linearGradient id="paint7_linear_173_5" x1="96.2605" y1="40.2011" x2="38.3367" y2="75.8477" gradientUnits="userSpaceOnUse">
<stop stop-color="#4F52FF"/>
<stop offset="1" stop-color="#4042E2"/>
</linearGradient>
<linearGradient id="paint8_linear_173_5" x1="17.4899" y1="13.0463" x2="18.217" y2="14.454" gradientUnits="userSpaceOnUse">
<stop stop-color="#4F52FF"/>
<stop offset="1" stop-color="#4042E2"/>
</linearGradient>
<linearGradient id="paint9_linear_173_5" x1="49.022" y1="31.8587" x2="32.2552" y2="3.86487" gradientUnits="userSpaceOnUse">
<stop stop-color="#4F52FF"/>
<stop offset="1" stop-color="#4042E2"/>
</linearGradient>
<linearGradient id="paint10_linear_173_5" x1="30.3369" y1="61.5933" x2="11.794" y2="30.6339" gradientUnits="userSpaceOnUse">
<stop stop-color="#4F52FF"/>
<stop offset="1" stop-color="#4042E2"/>
</linearGradient>
<linearGradient id="paint11_linear_173_5" x1="9.16055" y1="27.8317" x2="10.2721" y2="29.9845" gradientUnits="userSpaceOnUse">
<stop stop-color="#4F52FF"/>
<stop offset="1" stop-color="#4042E2"/>
</linearGradient>
<linearGradient id="paint12_linear_173_5" x1="59.197" y1="26.9472" x2="6.6471" y2="39.237" gradientUnits="userSpaceOnUse">
<stop stop-color="#4F52FF"/>
<stop offset="1" stop-color="#4042E2"/>
</linearGradient>
<linearGradient id="paint13_linear_173_5" x1="124.172" y1="125.786" x2="119.856" y2="125.786" gradientUnits="userSpaceOnUse">
<stop stop-color="#09005D"/>
<stop offset="1" stop-color="#1A0F91"/>
</linearGradient>
<linearGradient id="paint14_linear_173_5" x1="123.734" y1="123.801" x2="121.984" y2="123.801" gradientUnits="userSpaceOnUse">
<stop stop-color="#FEBBBA"/>
<stop offset="1" stop-color="#FF928E"/>
</linearGradient>
<linearGradient id="paint15_linear_173_5" x1="114.994" y1="125.718" x2="108.223" y2="125.718" gradientUnits="userSpaceOnUse">
<stop stop-color="#09005D"/>
<stop offset="1" stop-color="#1A0F91"/>
</linearGradient>
<linearGradient id="paint16_linear_173_5" x1="114.891" y1="123.032" x2="113.151" y2="123.032" gradientUnits="userSpaceOnUse">
<stop stop-color="#FEBBBA"/>
<stop offset="1" stop-color="#FF928E"/>
</linearGradient>
<linearGradient id="paint17_linear_173_5" x1="124.822" y1="107.75" x2="112.955" y2="107.75" gradientUnits="userSpaceOnUse">
<stop stop-color="#09005D"/>
<stop offset="1" stop-color="#1A0F91"/>
</linearGradient>
<linearGradient id="paint18_linear_173_5" x1="119.735" y1="99.3382" x2="122.181" y2="99.3382" gradientUnits="userSpaceOnUse">
<stop stop-color="#4F52FF"/>
<stop offset="1" stop-color="#4042E2"/>
</linearGradient>
<linearGradient id="paint19_linear_173_5" x1="108.027" y1="78.8028" x2="105.764" y2="142.808" gradientUnits="userSpaceOnUse">
<stop stop-color="#FE7062"/>
<stop offset="1" stop-color="#FF928E"/>
</linearGradient>
<linearGradient id="paint20_linear_173_5" x1="104.95" y1="68.4218" x2="98.8706" y2="66.2345" gradientUnits="userSpaceOnUse">
<stop stop-color="#FEBBBA"/>
<stop offset="1" stop-color="#FF928E"/>
</linearGradient>
<linearGradient id="paint21_linear_173_5" x1="97.8655" y1="109.557" x2="126.695" y2="64.7918" gradientUnits="userSpaceOnUse">
<stop stop-color="#FE7062"/>
<stop offset="1" stop-color="#FF928E"/>
</linearGradient>
<linearGradient id="paint22_linear_173_5" x1="88.5978" y1="73.9824" x2="102.401" y2="91.3327" gradientUnits="userSpaceOnUse">
<stop stop-color="#FEBBBA"/>
<stop offset="1" stop-color="#FF928E"/>
</linearGradient>
<linearGradient id="paint23_linear_173_5" x1="85.9478" y1="76.0888" x2="99.7573" y2="93.4402" gradientUnits="userSpaceOnUse">
<stop stop-color="#FEBBBA"/>
<stop offset="1" stop-color="#FF928E"/>
</linearGradient>
<linearGradient id="paint24_linear_173_5" x1="104.323" y1="63.5813" x2="117.646" y2="88.3152" gradientUnits="userSpaceOnUse">
<stop stop-color="#FEBBBA"/>
<stop offset="1" stop-color="#FF928E"/>
</linearGradient>
<linearGradient id="paint25_linear_173_5" x1="108.581" y1="68.1129" x2="108.897" y2="77.9275" gradientUnits="userSpaceOnUse">
<stop stop-color="#FEBBBA"/>
<stop offset="1" stop-color="#FF928E"/>
</linearGradient>
<linearGradient id="paint26_linear_173_5" x1="111.212" y1="72.2647" x2="105.414" y2="68.1291" gradientUnits="userSpaceOnUse">
<stop stop-color="#09005D"/>
<stop offset="1" stop-color="#1A0F91"/>
</linearGradient>
<linearGradient id="paint27_linear_173_5" x1="112.125" y1="78.1853" x2="111.064" y2="71.4598" gradientUnits="userSpaceOnUse">
<stop stop-color="#FEBBBA"/>
<stop offset="1" stop-color="#FF928E"/>
</linearGradient>
<linearGradient id="paint28_linear_173_5" x1="24.8018" y1="37.3399" x2="20.8863" y2="47.2638" gradientUnits="userSpaceOnUse">
<stop stop-color="#09005D"/>
<stop offset="1" stop-color="#1A0F91"/>
</linearGradient>
<linearGradient id="paint29_linear_173_5" x1="10.2309" y1="100.698" x2="6.85075" y2="100.698" gradientUnits="userSpaceOnUse">
<stop stop-color="#09005D"/>
<stop offset="1" stop-color="#1A0F91"/>
</linearGradient>
<linearGradient id="paint30_linear_173_5" x1="24.5129" y1="113.89" x2="19.7474" y2="57.6152" gradientUnits="userSpaceOnUse">
<stop stop-color="#FEBBBA"/>
<stop offset="1" stop-color="#FF928E"/>
</linearGradient>
<linearGradient id="paint31_linear_173_5" x1="25.9342" y1="100.087" x2="20.4649" y2="100.087" gradientUnits="userSpaceOnUse">
<stop stop-color="#09005D"/>
<stop offset="1" stop-color="#1A0F91"/>
</linearGradient>
<linearGradient id="paint32_linear_173_5" x1="14.7287" y1="114.727" x2="9.96181" y2="58.4374" gradientUnits="userSpaceOnUse">
<stop stop-color="#FEBBBA"/>
<stop offset="1" stop-color="#FF928E"/>
</linearGradient>
<linearGradient id="paint33_linear_173_5" x1="26.7557" y1="50.2353" x2="3.62003" y2="112.111" gradientUnits="userSpaceOnUse">
<stop stop-color="#FE7062"/>
<stop offset="1" stop-color="#FF928E"/>
</linearGradient>
<linearGradient id="paint34_linear_173_5" x1="37.2796" y1="33.5491" x2="14.1435" y2="95.4246" gradientUnits="userSpaceOnUse">
<stop stop-color="#09005D"/>
<stop offset="1" stop-color="#1A0F91"/>
</linearGradient>
<linearGradient id="paint35_linear_173_5" x1="25.0464" y1="58.428" x2="24.1513" y2="51.8097" gradientUnits="userSpaceOnUse">
<stop stop-color="#FEBBBA"/>
<stop offset="1" stop-color="#FF928E"/>
</linearGradient>
<linearGradient id="paint36_linear_173_5" x1="27.3526" y1="49.8982" x2="19.5046" y2="35.7867" gradientUnits="userSpaceOnUse">
<stop stop-color="#FEBBBA"/>
<stop offset="1" stop-color="#FF928E"/>
</linearGradient>
<linearGradient id="paint37_linear_173_5" x1="25.6384" y1="37.6696" x2="21.7224" y2="47.5935" gradientUnits="userSpaceOnUse">
<stop stop-color="#09005D"/>
<stop offset="1" stop-color="#1A0F91"/>
</linearGradient>
<linearGradient id="paint38_linear_173_5" x1="25.6557" y1="50.8444" x2="17.8031" y2="36.73" gradientUnits="userSpaceOnUse">
<stop stop-color="#FEBBBA"/>
<stop offset="1" stop-color="#FF928E"/>
</linearGradient>
<linearGradient id="paint39_linear_173_5" x1="30.9689" y1="52.3688" x2="14.1077" y2="64.1058" gradientUnits="userSpaceOnUse">
<stop stop-color="#FEBBBA"/>
<stop offset="1" stop-color="#FF928E"/>
</linearGradient>
</defs>
</svg>
