<svg width="135" height="136" viewBox="0 0 135 136" fill="none" xmlns="http://www.w3.org/2000/svg">
<path d="M117.729 113.852C114.277 117.426 111.188 119.528 108.823 121.114C85.7584 136.585 59.3925 132.126 51.2409 130.602C38.0894 128.142 26.9875 126.408 17.4488 117.751C-4.22613 98.0796 -3.17207 57.0445 13.3902 31.6246C15.3537 28.6108 31.8903 3.9865 58.3133 0.516562C58.9597 0.431562 59.4418 0.383476 59.8639 0.338305C63.9515 -0.0964097 89.2813 -2.39092 109.935 14.9918C112.892 17.4801 117.65 21.9681 122.062 28.8133C138.195 53.8422 138.246 92.607 117.729 113.851L117.729 113.852Z" fill="url(#paint0_linear_398_5)"/>
<path d="M35.0206 25.9583C34.6541 25.8174 34.4452 25.4177 34.5491 25.0286C34.7759 24.1771 35.0428 23.3233 35.3426 22.4898C35.4886 22.0842 35.9334 21.8744 36.3372 22.0211C36.342 22.023 36.3468 22.0249 36.3512 22.0264C36.7452 22.1779 36.9478 22.6195 36.8033 23.0202C36.5185 23.8119 36.2646 24.623 36.0495 25.4318C35.9387 25.848 35.5128 26.0952 35.0984 25.9835C35.0718 25.9767 35.0457 25.968 35.0206 25.9583ZM37.4884 19.6289C37.4599 19.6182 37.4318 19.6051 37.4043 19.5905C37.0247 19.3904 36.8782 18.9183 37.0779 18.537C37.4879 17.7536 37.9352 16.9798 38.4071 16.2377C38.6382 15.8743 39.1164 15.7685 39.48 16.0001C39.8417 16.2323 39.9471 16.7146 39.7164 17.0775C39.2677 17.7832 38.8427 18.5181 38.4535 19.2627C38.2683 19.6163 37.8515 19.7683 37.4889 19.6284L37.4884 19.6289ZM41.282 14.0029C41.2013 13.9718 41.1244 13.9266 41.0548 13.8669C40.7289 13.5866 40.6912 13.0941 40.9702 12.7667C41.5422 12.096 42.1499 11.4412 42.7775 10.8219C43.0836 10.5198 43.5753 10.5247 43.8761 10.8317C44.1768 11.1391 44.1725 11.6331 43.8664 11.9352C43.2707 12.5234 42.6934 13.1446 42.1499 13.7819C41.9304 14.0393 41.5799 14.118 41.282 14.0034V14.0029ZM46.2337 9.36966C46.1002 9.31818 45.9794 9.22929 45.888 9.10544C45.6327 8.75912 45.7057 8.27049 46.05 8.01404C46.7573 7.48849 47.4957 6.98675 48.2446 6.52386C48.6097 6.29849 49.0879 6.41264 49.3132 6.77935C49.538 7.14606 49.4239 7.62692 49.0588 7.85278C48.3476 8.29235 47.646 8.76835 46.9739 9.26864C46.7525 9.43329 46.473 9.46195 46.2332 9.36966H46.2337ZM52.0895 5.96189C51.9024 5.89001 51.7428 5.74575 51.6563 5.54661C51.4837 5.15172 51.6626 4.69175 52.0557 4.51884C52.8593 4.16475 53.6899 3.83981 54.523 3.55421C54.9287 3.41481 55.3706 3.63241 55.5089 4.04041C55.6472 4.44841 55.4306 4.89138 55.0244 5.03078C54.2319 5.30229 53.4429 5.61072 52.6789 5.94732C52.484 6.03329 52.2732 6.03232 52.089 5.96141L52.0895 5.96189ZM58.5492 3.94035C58.307 3.84709 58.1165 3.63386 58.0638 3.35944C57.9825 2.93638 58.2581 2.52741 58.6793 2.44532C59.5424 2.27824 60.4238 2.14612 61.2985 2.05335C61.7254 2.00818 62.1074 2.31855 62.1524 2.74744C62.1978 3.17584 61.8884 3.56004 61.4619 3.60521C60.6307 3.69361 59.7938 3.81892 58.9733 3.97775C58.8258 4.00641 58.6798 3.99086 58.5492 3.94035ZM85.7879 12.4355C85.6873 12.3966 85.5935 12.3364 85.5132 12.2548C84.9272 11.6579 84.3079 11.0784 83.6711 10.5334C83.3447 10.2537 83.306 9.76115 83.584 9.43378C83.8625 9.10592 84.3523 9.06658 84.6792 9.34635C85.3493 9.92046 86.0021 10.5305 86.6195 11.159C86.9208 11.466 86.9174 11.96 86.6118 12.2626C86.3879 12.4845 86.0635 12.5419 85.7879 12.436V12.4355ZM65.2904 3.40752C64.9896 3.29192 64.7807 2.99369 64.7923 2.65224C64.8068 2.22141 65.1661 1.88432 65.595 1.89889C66.4735 1.92852 67.3617 1.99749 68.2345 2.10289C68.6599 2.15632 68.9641 2.54295 68.9128 2.97086C68.8616 3.39878 68.4748 3.70381 68.0488 3.65232C67.2201 3.55178 66.3768 3.48669 65.5423 3.45852C65.4538 3.45561 65.3687 3.43764 65.2904 3.40752ZM80.5244 8.16461C80.4765 8.14615 80.4296 8.12284 80.3846 8.09418C79.6802 7.64392 78.9467 7.21844 78.2054 6.82889C77.8254 6.62926 77.6784 6.15764 77.8771 5.77586C78.0759 5.39409 78.5458 5.24449 78.9254 5.44606C79.7053 5.85601 80.477 6.30384 81.2182 6.77741C81.5804 7.00861 81.6867 7.49092 81.4566 7.85472C81.255 8.17286 80.8619 8.29478 80.5239 8.16509L80.5244 8.16461ZM71.9807 4.40081C71.6147 4.25995 71.4058 3.86118 71.5088 3.47261C71.619 3.05586 72.0441 2.80815 72.4589 2.91841C73.308 3.14475 74.1585 3.41141 74.9867 3.71061C74.992 3.71206 74.9973 3.71449 75.0022 3.71644C75.3958 3.86798 75.5979 4.30852 75.4547 4.70875C75.3097 5.11432 74.8649 5.32512 74.4611 5.17892C73.674 4.89478 72.866 4.64221 72.0595 4.42704C72.0324 4.41975 72.0059 4.41101 71.9802 4.40129L71.9807 4.40081Z" fill="#91B3FA"/>
<path d="M89.2503 16.6686C89.1077 16.6137 88.9791 16.5161 88.8867 16.3791C88.6614 16.0464 88.4255 15.7132 88.1856 15.3878C87.9303 15.0419 88.0024 14.5528 88.3471 14.2964C88.6919 14.0394 89.1788 14.1118 89.4336 14.4586C89.686 14.8005 89.934 15.1512 90.1709 15.5014C90.4122 15.8575 90.3203 16.3432 89.9654 16.5855C89.7469 16.7351 89.4795 16.757 89.2498 16.6686H89.2503Z" fill="#91B3FA"/>
<path d="M93.863 40.0006C93.513 39.8661 93.3021 39.4921 93.3814 39.1118C93.4636 38.7184 93.5395 38.3162 93.6058 37.9169C93.6769 37.4919 94.0772 37.2049 94.4998 37.2763C94.9248 37.3477 95.2086 37.7498 95.1376 38.1748C95.0674 38.595 94.9882 39.0185 94.9016 39.4328C94.8136 39.8544 94.4017 40.1245 93.982 40.0361C93.9409 40.0274 93.9012 40.0152 93.863 40.0006Z" fill="#91B3FA"/>
<path d="M53.4588 62.1638C53.1252 62.0355 52.792 61.9005 52.4604 61.7601C52.0653 61.5926 51.8801 61.1345 52.0469 60.7377C52.2138 60.3409 52.6721 60.1544 53.0647 60.3224C53.8306 60.6474 54.6076 60.9402 55.3837 61.1957C55.7913 61.3308 56.0132 61.7708 55.8798 62.1803C55.7458 62.5902 55.3073 62.8132 54.8997 62.6786C54.4195 62.5208 53.9351 62.3474 53.4588 62.1642V62.1638ZM48.8007 59.9018C48.76 59.8862 48.7204 59.8668 48.6817 59.844C47.9361 59.4 47.2012 58.9192 46.4972 58.4155C46.1481 58.1654 46.0664 57.6782 46.3154 57.3275C46.5644 56.9763 47.0508 56.8942 47.3989 57.1449C48.0676 57.6233 48.7658 58.0799 49.4742 58.502C49.8431 58.7215 49.9649 59.2004 49.7464 59.5705C49.5506 59.9023 49.1483 60.0354 48.8011 59.9018H48.8007ZM58.8625 63.684C58.5207 63.5524 58.3094 63.1915 58.3771 62.8166C58.454 62.3925 58.8582 62.1113 59.2803 62.1885C60.0878 62.3362 60.9121 62.4508 61.7317 62.529C62.1586 62.5708 62.472 62.9511 62.4313 63.38C62.3902 63.8089 62.0112 64.1236 61.5842 64.0828C60.7216 64.0002 59.8528 63.8793 59.0028 63.7239C58.9544 63.7151 58.9075 63.7015 58.863 63.6845L58.8625 63.684ZM43.4806 55.8767C43.3887 55.8412 43.3017 55.7873 43.2258 55.7154C42.5962 55.1185 41.9846 54.487 41.4078 53.8391C41.122 53.518 41.1491 53.025 41.4692 52.7375C41.7892 52.45 42.2795 52.4772 42.5658 52.7992C43.1136 53.4146 43.6943 54.014 44.2924 54.5808C44.6042 54.8766 44.6183 55.3706 44.3238 55.6838C44.1014 55.9209 43.7658 55.9869 43.4806 55.8772V55.8767ZM65.5012 64.144C65.2207 64.0362 65.0162 63.7686 65.0027 63.448C64.9848 63.0176 65.3174 62.6538 65.7463 62.6354C66.5659 62.6009 67.3951 62.5305 68.2117 62.4265C68.6372 62.3721 69.026 62.6747 69.0801 63.1026C69.1338 63.5301 68.833 63.9206 68.4076 63.9745C67.5479 64.0843 66.6746 64.1581 65.8116 64.1945C65.7023 64.1994 65.5974 64.1809 65.5012 64.144ZM72.0798 63.1294C71.8555 63.0429 71.6742 62.854 71.607 62.6028C71.4957 62.1866 71.7414 61.7587 72.1557 61.647C72.9502 61.4323 73.745 61.1821 74.5177 60.9024C74.921 60.7557 75.3663 60.966 75.5118 61.3716C75.6573 61.7771 75.448 62.224 75.0442 62.3702C74.231 62.6645 73.3945 62.9283 72.5585 63.1536C72.3941 63.1978 72.2278 63.1857 72.0798 63.1289V63.1294ZM78.2818 60.6984C78.1112 60.6328 77.9632 60.507 77.8718 60.3312C77.6731 59.9494 77.8201 59.4778 78.2001 59.2781C78.9297 58.8949 79.6511 58.4767 80.3445 58.0347C80.7067 57.804 81.1863 57.9113 81.4165 58.2756C81.6461 58.6394 81.5388 59.1212 81.1766 59.3524C80.447 59.8173 79.6874 60.2578 78.9201 60.661C78.7146 60.7688 78.483 60.7751 78.2818 60.6979V60.6984ZM83.8079 56.9666C83.6899 56.921 83.5811 56.8462 83.4936 56.7422C83.2166 56.4134 83.2572 55.9214 83.585 55.643C84.2131 55.1092 84.8257 54.5424 85.4059 53.9581C85.7086 53.6531 86.2013 53.6526 86.5044 53.9562C86.8081 54.2602 86.8091 54.7547 86.5059 55.0597C85.8952 55.6751 85.2502 56.272 84.5888 56.8345C84.3644 57.0249 84.0642 57.0657 83.8084 56.9671L83.8079 56.9666ZM88.3853 52.1051C88.3191 52.0794 88.2548 52.0439 88.1953 51.9987C87.853 51.7394 87.7848 51.2498 88.043 50.9064C88.5371 50.2482 89.01 49.56 89.4486 48.8605C89.6773 48.4958 90.1579 48.3874 90.5195 48.6162C90.8827 48.846 90.9914 49.3278 90.7627 49.6926C90.3015 50.4289 89.8035 51.1536 89.2832 51.8462C89.07 52.1304 88.7006 52.2265 88.3853 52.1056V52.1051ZM91.7858 46.3562C91.7709 46.3504 91.7564 46.344 91.7414 46.3372C91.3512 46.159 91.1786 45.6961 91.356 45.3041C91.6065 44.7504 91.8434 44.1826 92.0595 43.6158C92.1378 43.4108 92.2138 43.2049 92.2868 42.9989C92.4318 42.5934 92.8762 42.3821 93.2799 42.5278C93.6914 42.6672 93.8935 43.1199 93.7489 43.5254C93.6716 43.7421 93.5918 43.9582 93.5096 44.1744C93.2823 44.7708 93.0333 45.3682 92.7693 45.9506C92.5986 46.328 92.1654 46.5029 91.7854 46.3567L91.7858 46.3562Z" fill="#91B3FA"/>
<path d="M39.1638 50.7572C39.0197 50.7018 38.8906 50.6028 38.7978 50.4643C38.5628 50.1136 38.3312 49.7518 38.1087 49.388C37.8839 49.0208 37.9985 48.5404 38.3636 48.3146C38.7291 48.0892 39.2073 48.2033 39.4321 48.5705C39.6434 48.9159 39.8639 49.2598 40.0863 49.5925C40.3257 49.9495 40.2314 50.4347 39.8755 50.6751C39.6574 50.8228 39.3915 50.8442 39.1633 50.7562L39.1638 50.7572Z" fill="#91B3FA"/>
<path d="M43.366 42.6834C43.4143 42.831 43.5512 42.9316 43.7059 42.934L48.1237 42.9942C49.1995 44.7627 50.564 46.3719 52.1925 47.7411L51.5992 52.1364C51.5784 52.2903 51.6572 52.4409 51.7955 52.5108L56.5281 54.9069C56.6664 54.9768 56.8337 54.9511 56.9449 54.8428L60.109 51.7493C62.1731 52.2495 64.2721 52.3943 66.3275 52.2112L69.0032 55.7428C69.097 55.8666 69.2585 55.9172 69.4055 55.8681L74.4384 54.2006C74.5854 54.1521 74.6855 54.0146 74.6879 53.8592L74.7478 49.4212C76.5083 48.3405 78.1102 46.9693 79.4732 45.3339L83.8485 45.9299C84.0018 45.9508 84.1517 45.8716 84.2213 45.7327L86.6065 40.9785C86.6761 40.8396 86.6505 40.6716 86.5422 40.5603L83.4627 37.3818C83.9607 35.3083 84.1048 33.1998 83.9225 31.135L87.4381 28.4466C87.5614 28.3524 87.6112 28.1902 87.5629 28.0425L85.903 22.9867C85.8546 22.839 85.7178 22.7385 85.563 22.7361L81.1452 22.6763C80.0694 20.9078 78.7049 19.2987 77.0764 17.9294L77.6697 13.5342C77.6905 13.3802 77.6117 13.2297 77.4734 13.1597L72.7408 10.7637C72.6025 10.6938 72.4352 10.7195 72.324 10.8278L69.1599 13.9213C67.0958 13.421 64.9969 13.2763 62.9414 13.4594L60.2657 9.92779C60.1719 9.80393 60.0104 9.75342 59.8629 9.80248L54.83 11.4699C54.6831 11.5185 54.583 11.656 54.5805 11.8114L54.5206 16.2494C52.7601 17.3301 51.1582 18.7012 49.7952 20.3366L45.4199 19.7407C45.2667 19.7198 45.1168 19.799 45.0471 19.9379L42.662 24.692C42.5923 24.831 42.618 24.999 42.7258 25.1107L45.8053 28.2892C45.3073 30.3628 45.1632 32.4712 45.3455 34.536L41.8298 37.224C41.7066 37.3182 41.6563 37.4804 41.7051 37.6286L43.365 42.6844L43.366 42.6834Z" fill="url(#paint1_linear_398_5)"/>
<path d="M62.7253 37.8312C60.3005 36.8976 58.8533 34.2894 59.4355 31.6694C60.0757 28.7891 62.9284 26.9696 65.7951 27.6122C67.1843 27.9231 68.3689 28.7595 69.1318 29.966C69.8948 31.1725 70.1443 32.6054 69.8339 34.0004C69.1937 36.8806 66.341 38.7001 63.4743 38.0575C63.2156 37.9997 62.9656 37.9235 62.7253 37.8307V37.8312ZM66.1046 29.0062C65.9175 28.9344 65.7241 28.8756 65.5244 28.8304C63.3263 28.3374 61.1389 29.7334 60.6486 31.9409C60.1579 34.149 61.5465 36.3468 63.745 36.8394C65.9431 37.3324 68.1305 35.9364 68.6208 33.7288C68.8587 32.6588 68.6672 31.5606 68.0821 30.6353C67.6068 29.8834 66.9174 29.319 66.1041 29.0062H66.1046Z" fill="#91B3FA"/>
<path d="M60.0742 45.0876C59.6579 44.9273 59.2469 44.7452 58.8432 44.5407C58.716 44.4766 58.5898 44.41 58.4651 44.3415C57.8491 44.004 57.2607 43.6183 56.7085 43.1894C56.7008 43.1836 56.6935 43.1778 56.6858 43.1719C56.6645 43.1554 56.6432 43.1384 56.622 43.1214C56.5804 43.0889 56.5398 43.0558 56.4987 43.0228C56.3913 42.9359 56.3565 42.7916 56.4034 42.6687C56.415 42.6391 56.431 42.6104 56.4522 42.5842C56.5601 42.4502 56.7554 42.4298 56.8888 42.5376C57.5759 43.0947 58.3273 43.5814 59.1222 43.9836C63.0701 45.9832 67.5851 45.669 71.1297 43.5513C73.1015 42.3739 74.773 40.638 75.8798 38.4323C76.0741 38.0457 76.2472 37.6518 76.399 37.2525C77.4231 34.567 77.4961 31.6338 76.5871 28.8657C75.5432 25.6862 73.3297 23.1051 70.3537 21.5984C64.2073 18.487 56.6925 20.9782 53.5961 27.1497C53.4051 27.53 53.234 27.919 53.0836 28.3144C52.4304 30.0275 52.1577 31.865 52.2916 33.6966C52.295 33.7437 52.2877 33.7894 52.2718 33.8312C52.2302 33.9404 52.1287 34.0216 52.0044 34.0308C51.8332 34.0429 51.6843 33.9147 51.6718 33.7423C51.5315 31.8198 51.8178 29.8901 52.5034 28.092C52.6615 27.6772 52.8409 27.2687 53.0415 26.8694C56.2927 20.39 64.186 17.7768 70.6341 21.0413C73.7586 22.6233 76.0823 25.3326 77.178 28.6709C78.132 31.577 78.0556 34.6564 76.9807 37.4755C76.8212 37.8946 76.6389 38.308 76.4353 38.7136C74.8605 41.8522 72.163 44.1871 68.8403 45.2877C65.947 46.246 62.8805 46.1688 60.0737 45.0886L60.0742 45.0876Z" fill="#91B3FA"/>
<path d="M131.969 44.6192C132.11 44.7606 132.148 44.9835 132.048 45.1681C131.862 45.5134 131.662 45.8578 131.455 46.1915C131.32 46.4081 131.036 46.4742 130.82 46.3392C130.603 46.2046 130.538 45.918 130.673 45.7014C130.871 45.3833 131.061 45.0554 131.239 44.7261C131.36 44.5017 131.64 44.4186 131.864 44.5406C131.904 44.5624 131.939 44.5891 131.969 44.6197V44.6192Z" fill="#91B3FA"/>
<path d="M129.997 47.5781C130.163 47.7438 130.18 48.0114 130.03 48.1974C129.605 48.723 129.149 49.232 128.674 49.7114C128.574 49.8124 128.472 49.9125 128.37 50.0116C128.186 50.1889 127.892 50.1665 127.718 49.9994C127.542 49.8153 127.547 49.522 127.73 49.3447C127.828 49.2495 127.925 49.1543 128.021 49.0576C128.474 48.6006 128.909 48.1149 129.315 47.6141C129.475 47.4154 129.765 47.3853 129.963 47.5461C129.975 47.5563 129.987 47.567 129.998 47.5781H129.997ZM126.549 50.9106C126.565 50.9262 126.58 50.9427 126.593 50.9607C126.746 51.1651 126.705 51.4556 126.501 51.6091C125.848 52.1021 125.159 52.5582 124.453 52.9657C124.232 53.0929 123.95 53.0152 123.824 52.7947C123.698 52.5727 123.774 52.2901 123.994 52.1628C124.668 51.7742 125.325 51.339 125.947 50.8689C126.133 50.729 126.389 50.7508 126.549 50.9106H126.549ZM122.4 53.3037C122.441 53.345 122.475 53.3955 122.499 53.4529C122.598 53.6884 122.487 53.9599 122.252 54.0585C121.501 54.3747 120.72 54.6477 119.934 54.8682C119.689 54.9372 119.435 54.7939 119.367 54.5472C119.298 54.3009 119.441 54.0454 119.686 53.9769C120.436 53.7661 121.179 53.5068 121.897 53.2047C122.074 53.1303 122.272 53.1755 122.4 53.3037H122.4ZM117.792 54.5987C117.859 54.6662 117.906 54.7555 117.922 54.8575C117.959 55.1101 117.786 55.3462 117.534 55.3841C116.726 55.506 115.904 55.5783 115.09 55.5992C114.836 55.6055 114.625 55.403 114.618 55.1485C114.611 54.893 114.812 54.6807 115.066 54.6739C115.842 54.654 116.627 54.5851 117.397 54.4685C117.547 54.4457 117.691 54.4986 117.791 54.5987H117.792ZM113.009 54.724C113.103 54.8182 113.156 54.9532 113.142 55.097C113.117 55.3515 112.892 55.5375 112.639 55.5128C111.827 55.4336 111.012 55.3034 110.217 55.1252C109.968 55.0698 109.812 54.8226 109.868 54.5729C109.923 54.3233 110.169 54.1659 110.417 54.2217C111.176 54.3913 111.953 54.5156 112.728 54.5909C112.838 54.6016 112.936 54.6506 113.009 54.7235V54.724ZM108.341 53.6792C108.463 53.8016 108.511 53.9886 108.45 54.163C108.364 54.4034 108.1 54.5292 107.861 54.4437C107.093 54.1688 106.334 53.8429 105.607 53.4747C105.379 53.3586 105.288 53.0813 105.402 52.853C105.517 52.6247 105.794 52.5329 106.021 52.6475C106.715 52.9982 107.438 53.3091 108.17 53.5714C108.236 53.5952 108.294 53.6326 108.341 53.6792ZM104.07 51.5202C104.223 51.6732 104.252 51.9185 104.127 52.1055C103.986 52.3177 103.7 52.3746 103.488 52.2323C102.812 51.7776 102.157 51.2744 101.538 50.7367C101.348 50.5658 101.325 50.2763 101.492 50.0835C101.658 49.8901 101.949 49.8693 102.142 50.0363C102.731 50.5497 103.357 51.0296 104.001 51.4629C104.026 51.4799 104.049 51.4993 104.07 51.5197V51.5202ZM98.9602 46.4892C98.979 46.5081 98.9964 46.529 99.0124 46.5518C99.3982 47.1046 99.8208 47.6457 100.269 48.16C100.336 48.2382 100.403 48.3145 100.471 48.3893C100.642 48.5792 100.627 48.8716 100.438 49.0431C100.249 49.215 99.9514 49.2043 99.7875 49.0105C99.7154 48.9299 99.6438 48.8497 99.5732 48.7672C99.1057 48.2295 98.6623 47.6622 98.2581 47.0827C98.1121 46.8734 98.1624 46.5849 98.3708 46.4382C98.5564 46.3075 98.805 46.3333 98.9602 46.4887V46.4892Z" fill="#91B3FA"/>
<path d="M128.415 21.2594C128.593 21.4376 128.596 21.7276 128.42 21.9098C128.243 22.0929 127.951 22.0977 127.769 21.9195C127.219 21.3832 126.632 20.8762 126.024 20.4128C125.824 20.2574 125.782 19.9679 125.936 19.7639C126.09 19.5604 126.379 19.5205 126.582 19.675C127.219 20.1617 127.835 20.693 128.411 21.255C128.412 21.2565 128.414 21.2579 128.415 21.2594H128.415ZM130.005 23.008C130.016 23.0196 130.027 23.0322 130.038 23.0454C130.543 23.6719 131.015 24.3354 131.441 25.0178C131.575 25.2345 131.511 25.5201 131.295 25.6556C131.079 25.7921 130.795 25.7246 130.66 25.5099C130.253 24.8585 129.803 24.2256 129.321 23.6277C129.161 23.4291 129.192 23.1376 129.39 22.9769C129.575 22.8263 129.84 22.8433 130.004 23.008H130.005ZM124.667 18.4014C124.812 18.5462 124.847 18.7759 124.74 18.962C124.612 19.1825 124.331 19.2578 124.111 19.1295C123.448 18.7429 122.756 18.3932 122.054 18.0911C121.82 17.9891 121.712 17.718 121.813 17.483C121.913 17.2484 122.184 17.1391 122.418 17.2401C123.154 17.5573 123.879 17.9235 124.574 18.3291C124.609 18.3495 124.64 18.3742 124.668 18.4014H124.667ZM132.503 27.0161C132.541 27.053 132.572 27.0972 132.596 27.1477C132.936 27.8782 133.234 28.6369 133.483 29.4034C133.562 29.6462 133.43 29.9075 133.188 29.9872C132.946 30.0659 132.686 29.9333 132.607 29.6904C132.37 28.9599 132.085 28.2367 131.761 27.5402C131.653 27.3085 131.752 27.0331 131.983 26.9248C132.163 26.8402 132.37 26.883 132.503 27.0161ZM120.343 16.5392C120.459 16.6548 120.509 16.8287 120.461 16.9968C120.389 17.2425 120.133 17.3834 119.889 17.312C119.155 17.0968 118.4 16.9244 117.645 16.8005C117.394 16.7592 117.223 16.5208 117.265 16.2687C117.306 16.0166 117.543 15.8451 117.794 15.8869C118.586 16.0176 119.377 16.1978 120.147 16.4231C120.224 16.4455 120.29 16.4868 120.343 16.5397V16.5392ZM115.7 15.7728C115.789 15.8612 115.841 15.9855 115.836 16.12C115.825 16.3755 115.61 16.5742 115.356 16.5635C114.59 16.5314 113.816 16.5455 113.055 16.6058C112.801 16.6257 112.579 16.4353 112.559 16.1808C112.539 15.9258 112.728 15.7033 112.982 15.6834C113.78 15.6202 114.592 15.6052 115.395 15.6387C115.515 15.6436 115.622 15.6946 115.701 15.7732L115.7 15.7728ZM111.008 16.1458C111.071 16.208 111.116 16.2886 111.135 16.3814C111.185 16.632 111.024 16.8763 110.774 16.9268C110.023 17.0793 109.275 17.2799 108.55 17.5228C108.309 17.6029 108.048 17.4723 107.968 17.2299C107.887 16.9875 108.017 16.7252 108.259 16.6441C109.019 16.3901 109.804 16.1793 110.592 16.019C110.749 15.9874 110.903 16.0399 111.008 16.1453V16.1458Z" fill="#91B3FA"/>
<path d="M133.968 31.5327C134.031 31.5958 134.076 31.6774 134.095 31.7717C134.17 32.1607 134.234 32.5532 134.286 32.9393C134.32 33.1924 134.143 33.426 133.891 33.46C133.639 33.493 133.407 33.3158 133.372 33.0627C133.323 32.6945 133.261 32.3196 133.19 31.9485C133.141 31.6974 133.305 31.4545 133.554 31.4059C133.71 31.3758 133.863 31.4278 133.967 31.5327H133.968Z" fill="#91B3FA"/>
<path d="M129.495 35.4975C129.505 35.398 129.451 35.3033 129.361 35.2615L126.781 34.0691C126.608 32.7484 126.223 31.4457 125.622 30.2149L127.112 27.7878C127.164 27.7028 127.157 27.5935 127.094 27.5163L124.935 24.8691C124.872 24.7919 124.767 24.7633 124.674 24.7977L122.012 25.7867C120.929 24.9522 119.733 24.3174 118.479 23.8865L117.823 21.1107C117.8 21.0135 117.718 20.9417 117.619 20.9315L114.229 20.5929C114.13 20.5832 114.036 20.6376 113.994 20.7284L112.807 23.3202C111.492 23.4941 110.196 23.8802 108.97 24.484L106.554 22.988C106.469 22.9355 106.36 22.9428 106.283 23.0059L103.648 25.1742C103.571 25.2373 103.543 25.3432 103.577 25.4369L104.562 28.1108C103.731 29.1988 103.099 30.4 102.67 31.6604L99.9069 32.319C99.8102 32.3423 99.7386 32.4244 99.7285 32.524L99.3915 35.9293C99.3818 36.0289 99.4359 36.1236 99.5259 36.1654L102.106 37.3578C102.279 38.6785 102.663 39.9812 103.264 41.212L101.775 43.6391C101.723 43.7241 101.73 43.8334 101.793 43.9106L103.951 46.5577C104.014 46.635 104.12 46.6636 104.213 46.6291L106.875 45.6402C107.958 46.4747 109.154 47.1095 110.408 47.5403L111.064 50.3162C111.087 50.4133 111.169 50.4857 111.268 50.4954L114.658 50.834C114.757 50.8437 114.851 50.7898 114.893 50.6985L116.08 48.1067C117.395 47.9328 118.691 47.5467 119.917 46.9429L122.333 48.4389C122.417 48.4914 122.526 48.4841 122.603 48.4205L125.238 46.2522C125.315 46.1886 125.343 46.0832 125.309 45.9895L124.325 43.3156C125.155 42.2276 125.787 41.0269 126.216 39.766L128.98 39.1074C129.076 39.0841 129.148 39.002 129.158 38.9024L129.495 35.4971L129.495 35.4975Z" fill="url(#paint2_linear_398_5)"/>
<path d="M116.909 33.2381C117.436 33.7651 117.779 34.4451 117.891 35.197C118.028 36.1218 117.799 37.0456 117.245 37.797C116.102 39.3484 113.915 39.6767 112.369 38.528C110.825 37.3749 110.498 35.1819 111.642 33.6301C112.196 32.8782 113.008 32.3881 113.929 32.2502C114.85 32.1117 115.769 32.3424 116.517 32.8991C116.657 33.003 116.788 33.1162 116.909 33.2376V33.2381ZM112.632 37.5376C112.72 37.6256 112.815 37.7081 112.918 37.7844C114.054 38.629 115.663 38.3876 116.504 37.2462C116.911 36.6935 117.08 36.014 116.979 35.334C116.878 34.6535 116.519 34.0536 115.969 33.6437C115.418 33.2342 114.742 33.0647 114.065 33.1662C113.387 33.2677 112.79 33.6281 112.382 34.1814C111.617 35.2193 111.747 36.6512 112.632 37.5372L112.632 37.5376Z" fill="#91B3FA"/>
<path d="M120.493 29.53C120.699 29.7369 120.897 29.9554 121.086 30.1866C121.461 30.6456 121.789 31.1435 122.063 31.6676C122.075 31.6914 122.087 31.7147 122.099 31.7385C122.193 31.9216 122.153 32.1378 122.016 32.2762C121.983 32.3097 121.943 32.3388 121.899 32.3617C121.673 32.4782 121.396 32.3874 121.28 32.1611C121.029 31.669 120.724 31.2028 120.373 30.7734C120.354 30.7496 120.335 30.7263 120.315 30.703C119.478 29.6951 118.422 28.9354 117.237 28.4653C116.595 28.2098 115.914 28.0403 115.209 27.9635C115.203 27.963 115.197 27.9621 115.192 27.9616C115.174 27.9596 115.157 27.9577 115.139 27.9562C113.077 27.7503 111.058 28.3633 109.455 29.6825C109.247 29.853 109.05 30.0332 108.863 30.2211C107.607 31.4884 106.829 33.1369 106.65 34.9408C106.445 37.0124 107.056 39.0402 108.369 40.6504C109.683 42.2591 111.542 43.2611 113.604 43.4675C115.666 43.6735 117.685 43.0605 119.288 41.7413C119.492 41.5737 119.687 41.396 119.872 41.2094C120.673 40.4012 121.289 39.4259 121.673 38.351C121.697 38.285 121.734 38.2272 121.78 38.1805C121.902 38.0576 122.089 38.0086 122.263 38.0712C122.502 38.1582 122.627 38.4224 122.541 38.6633C122.111 39.866 121.422 40.9574 120.525 41.8618C120.318 42.0706 120.1 42.2693 119.872 42.4572C118.078 43.9333 115.82 44.6192 113.512 44.3889C111.205 44.1582 109.125 43.0411 107.656 41.2371C106.186 39.4351 105.504 37.1668 105.733 34.8485C105.933 32.8309 106.803 30.9861 108.209 29.5683C108.418 29.358 108.638 29.1564 108.87 28.9656C112.343 26.1081 117.379 26.4122 120.493 29.529L120.493 29.53Z" fill="#91B3FA"/>
<path d="M7.09678 71.7213C6.88645 71.6581 6.73414 71.4624 6.73511 71.2307C6.73705 70.7984 6.75203 70.3603 6.78008 69.9285C6.79797 69.6477 7.03924 69.4355 7.31871 69.4535C7.59866 69.4705 7.80996 69.7143 7.79159 69.9945C7.76499 70.4059 7.75049 70.8237 7.74855 71.2365C7.74759 71.5177 7.51937 71.7446 7.23893 71.7436C7.18913 71.7436 7.14126 71.7353 7.09581 71.7217L7.09678 71.7213Z" fill="#91B3FA"/>
<path d="M7.47344 67.8219C7.22733 67.7481 7.07164 67.4975 7.12096 67.2386C7.25972 66.5071 7.43814 65.7747 7.64992 65.0621C7.6944 64.912 7.7413 64.7619 7.78917 64.6119C7.87523 64.3437 8.17211 64.2111 8.42741 64.2825C8.69382 64.369 8.84033 64.6556 8.75474 64.9232C8.70881 65.0665 8.66433 65.2103 8.62178 65.3535C8.41967 66.0335 8.24947 66.732 8.11699 67.4295C8.06429 67.7059 7.79884 67.887 7.5242 67.8346C7.5068 67.8307 7.48988 67.8268 7.47344 67.8219ZM9.08692 62.7885C9.06371 62.7817 9.04098 62.7729 9.01874 62.7627C8.76441 62.6442 8.65369 62.3416 8.77118 62.0861C9.14832 61.2667 9.57913 60.4639 10.052 59.7003C10.2 59.4613 10.5133 59.3895 10.7502 59.5366C10.9881 59.6853 11.0611 59.999 10.9131 60.238C10.462 60.9671 10.051 61.7325 9.69131 62.5141C9.58397 62.7467 9.32432 62.8599 9.08692 62.7885ZM11.8676 58.2981C11.8062 58.2796 11.7467 58.249 11.6935 58.2058C11.476 58.029 11.4426 57.7079 11.6191 57.4893C12.1838 56.7894 12.7984 56.1167 13.4458 55.4916C13.6479 55.2963 13.968 55.3027 14.1628 55.5057C14.3567 55.7082 14.3504 56.0307 14.1488 56.2255C13.5314 56.822 12.9453 57.4626 12.4072 58.1305C12.2737 58.2956 12.0586 58.3549 11.8676 58.2976V58.2981ZM15.6622 54.6319C15.5616 54.6018 15.4698 54.5401 15.4016 54.4493C15.2338 54.2239 15.2797 53.9043 15.5041 53.7362C16.224 53.1956 16.9832 52.6949 17.7611 52.2485C18.0043 52.1091 18.3138 52.1951 18.4525 52.4384C18.5913 52.6827 18.5072 52.9936 18.2635 53.1335C17.5218 53.5585 16.7975 54.0364 16.1114 54.5517C15.9774 54.6523 15.8106 54.6766 15.6622 54.6319ZM20.2328 52.0081C20.0926 51.9658 19.9713 51.8628 19.9099 51.7166C19.8015 51.4573 19.9234 51.159 20.1816 51.0502C21.0094 50.7025 21.8666 50.4023 22.7292 50.1585C22.999 50.0817 23.279 50.2401 23.3544 50.5106C23.4303 50.7816 23.2732 51.0629 23.0038 51.1386C22.1809 51.3713 21.3633 51.6574 20.5732 51.9896C20.4606 52.0367 20.3407 52.0401 20.2324 52.0076L20.2328 52.0081ZM25.2981 50.5781C25.1163 50.5237 24.9722 50.3678 24.9418 50.1662C24.8997 49.8884 25.0902 49.629 25.3668 49.5863C26.254 49.4508 27.1582 49.3697 28.0537 49.3459C28.3346 49.3391 28.5667 49.5605 28.5739 49.8418C28.5816 50.123 28.3602 50.3571 28.0807 50.3644C27.2268 50.3872 26.3652 50.4645 25.5191 50.5937C25.4422 50.6053 25.3673 50.599 25.2976 50.5781H25.2981ZM30.5563 50.4358C30.3286 50.3673 30.1734 50.1449 30.1971 49.8986C30.2241 49.6188 30.4722 49.4139 30.7512 49.4411C31.6413 49.528 32.5377 49.6727 33.4158 49.8704C33.6885 49.9365 33.8611 50.2051 33.7992 50.479C33.7378 50.7535 33.4671 50.9259 33.1939 50.8647C32.3564 50.6757 31.5016 50.5378 30.6525 50.4547C30.6192 50.4513 30.5868 50.445 30.5563 50.4358ZM38.1165 52.638C38.0885 52.6298 38.0604 52.6186 38.0333 52.605C37.3729 52.2713 36.6829 51.9682 35.9818 51.7035C35.8759 51.6627 35.7715 51.6243 35.6665 51.5869C35.4026 51.4922 35.2652 51.2013 35.359 50.9361C35.4528 50.6704 35.7473 50.5252 36.0069 50.6272C36.1186 50.6675 36.2298 50.7083 36.3406 50.7505C37.0726 51.0269 37.7964 51.3446 38.4888 51.6948C38.7393 51.8211 38.8398 52.1271 38.7136 52.3787C38.6015 52.6026 38.3476 52.7075 38.116 52.638H38.1165Z" fill="#91B3FA"/>
<path d="M22.6538 92.5006C22.3888 92.4209 22.2356 92.1416 22.3115 91.873C22.3879 91.6025 22.6688 91.4456 22.9376 91.5228C23.7485 91.755 24.5801 91.9391 25.4098 92.0702C25.6844 92.1164 25.8754 92.3748 25.8319 92.6526C25.7884 92.9309 25.5288 93.1199 25.2522 93.0766C24.3823 92.9387 23.5101 92.7459 22.6606 92.5025C22.6586 92.502 22.6562 92.5011 22.6538 92.5006ZM20.2063 91.6379C20.1888 91.6326 20.1714 91.6263 20.1545 91.6195C19.3408 91.2766 18.5391 90.8802 17.7727 90.4421C17.5295 90.3027 17.4444 89.9923 17.5832 89.7475C17.7215 89.5027 18.0324 89.4187 18.2746 89.5567C19.0062 89.9749 19.7711 90.3532 20.5476 90.6806C20.8058 90.7894 20.9272 91.0876 20.8189 91.347C20.7173 91.5899 20.4519 91.7118 20.2067 91.6384L20.2063 91.6379ZM27.7674 93.3093C27.5523 93.2447 27.3985 93.0407 27.4062 92.8041C27.4154 92.5234 27.6499 92.3034 27.9299 92.3126C28.7731 92.3403 29.6246 92.3175 30.4615 92.2431C30.741 92.2198 30.9866 92.4258 31.0108 92.706C31.0355 92.9858 30.829 93.2335 30.55 93.2583C29.6729 93.336 28.7799 93.3603 27.896 93.3307C27.8511 93.3292 27.808 93.3219 27.7674 93.3098V93.3093ZM15.7062 89.0612C15.6511 89.0447 15.5974 89.0185 15.5486 88.9816C14.8402 88.4517 14.157 87.8727 13.5193 87.2597C13.3167 87.0654 13.3094 86.7429 13.5028 86.5394C13.6958 86.3369 14.0168 86.3296 14.2194 86.5229C14.8281 87.1067 15.479 87.659 16.1544 88.1641C16.3788 88.3322 16.4257 88.6513 16.2584 88.8767C16.1278 89.053 15.9049 89.12 15.7067 89.0603L15.7062 89.0612ZM32.9236 92.8517C32.7515 92.8003 32.6122 92.6579 32.5726 92.4695C32.5141 92.1941 32.6891 91.9235 32.9628 91.8653C33.7857 91.6899 34.6062 91.4616 35.4026 91.1867C35.668 91.0949 35.9562 91.2372 36.0471 91.5034C36.138 91.7696 35.9968 92.0595 35.7323 92.1509C34.8973 92.4384 34.0371 92.6779 33.1741 92.8624C33.088 92.8809 33.0024 92.8755 32.9241 92.8522L32.9236 92.8517ZM37.8201 91.1649C37.6886 91.1255 37.5735 91.0327 37.5087 90.8992C37.3864 90.6461 37.4918 90.3411 37.7437 90.2187C38.5028 89.8491 39.246 89.4299 39.9524 88.9733C40.1884 88.8208 40.5022 88.8898 40.653 89.1258C40.8044 89.3624 40.7367 89.6771 40.5012 89.8291C39.7605 90.3081 38.9815 90.7476 38.1861 91.1347C38.0677 91.1925 37.9371 91.1998 37.8201 91.1644V91.1649ZM42.1741 88.3482C42.0818 88.3205 41.9962 88.2661 41.93 88.1855C41.7511 87.9693 41.7806 87.6478 41.9962 87.4681C42.6451 86.9275 43.2664 86.3412 43.8428 85.7268C44.0347 85.5228 44.3558 85.5126 44.5593 85.7059C44.7629 85.8987 44.7725 86.2213 44.5806 86.4262C43.9762 87.0703 43.3244 87.6847 42.6441 88.2525C42.5083 88.3657 42.3318 88.3953 42.1746 88.3482H42.1741Z" fill="#91B3FA"/>
<path d="M11.9449 85.45C11.8511 85.4219 11.7646 85.3665 11.6979 85.2844C11.4232 84.9468 11.1573 84.6 10.9068 84.2528C10.7429 84.025 10.7932 83.7063 11.0205 83.5412C11.2472 83.377 11.5639 83.4275 11.7288 83.6553C11.9672 83.9866 12.221 84.3174 12.4831 84.6399C12.6605 84.8575 12.6282 85.1785 12.4115 85.3563C12.2762 85.467 12.1006 85.4967 11.9449 85.45Z" fill="#91B3FA"/>
<path d="M14.2242 79.2673C14.2663 79.3689 14.3678 79.4325 14.4771 79.4257L17.5958 79.2309C18.4487 80.4204 19.496 81.4817 20.7173 82.3599L20.5326 85.4913C20.5259 85.6011 20.5897 85.7031 20.6907 85.7448L24.1551 87.1811C24.2562 87.2229 24.3732 87.1957 24.4457 87.1136L26.5127 84.7622C27.9952 85.0046 29.4829 84.9939 30.9223 84.7545L32.9971 87.1014C33.0696 87.1835 33.1866 87.2107 33.2877 87.1685L36.7482 85.723C36.8492 85.6807 36.9126 85.5787 36.9058 85.4689L36.7119 82.3361C37.896 81.4793 38.9525 80.4267 39.8267 79.2003L42.9439 79.3863C43.0532 79.3927 43.1547 79.329 43.1963 79.2275L44.626 75.7469C44.6676 75.6454 44.6405 75.5278 44.5588 75.4555L42.2181 73.379C42.4594 71.8898 42.4488 70.3953 42.2104 68.9493L44.5467 66.8651C44.6285 66.7923 44.6555 66.6747 44.6135 66.5732L43.1745 63.0969C43.1325 62.9954 43.0309 62.9318 42.9217 62.9386L39.803 63.1334C38.9506 61.9439 37.9028 60.8826 36.6815 60.0044L36.8662 56.873C36.8724 56.7632 36.8091 56.6612 36.708 56.6195L33.2432 55.1837C33.1421 55.1419 33.0256 55.1691 32.9531 55.2512L30.8861 57.6026C29.4036 57.3602 27.9159 57.3709 26.4764 57.6103L24.4017 55.2633C24.3292 55.1813 24.2122 55.1541 24.1111 55.1963L20.6506 56.6418C20.5496 56.6841 20.4862 56.7861 20.493 56.8958L20.6864 60.0287C19.5023 60.8855 18.4458 61.938 17.5716 63.1645L14.4544 62.9784C14.3451 62.9721 14.2436 63.0357 14.202 63.1377L12.7723 66.6179C12.7307 66.7194 12.7578 66.8369 12.8395 66.9098L15.1801 68.9862C14.9394 70.4749 14.9495 71.97 15.1879 73.4159L12.8516 75.5001C12.7698 75.573 12.7428 75.6905 12.7848 75.7921L14.2238 79.2683L14.2242 79.2673Z" fill="url(#paint3_linear_398_5)"/>
<path d="M27.5934 74.8712C26.8096 74.6361 26.1244 74.1567 25.6264 73.4864C25.0138 72.6617 24.7571 71.647 24.9045 70.6285C25.2077 68.5268 27.1572 67.0648 29.2499 67.3689C31.3449 67.6778 32.7984 69.6328 32.4947 71.7345C32.3477 72.753 31.8149 73.653 30.9939 74.2684C30.1729 74.8843 29.1628 75.1422 28.1484 74.9941C27.9589 74.9664 27.7732 74.9251 27.5934 74.8712ZM29.5085 68.4671C29.378 68.4277 29.2431 68.3976 29.1038 68.3772C27.5643 68.1533 26.1307 69.2287 25.9073 70.7752C25.7995 71.5242 25.9876 72.2712 26.4387 72.8769C26.8898 73.4835 27.5489 73.8765 28.2944 73.9862C29.04 74.095 29.7837 73.9051 30.3871 73.4524C30.991 72.9993 31.3831 72.3372 31.4914 71.5883C31.6945 70.1816 30.8266 68.8624 29.509 68.4666L29.5085 68.4671Z" fill="#91B3FA"/>
<path d="M26.0427 80.3398C25.7352 80.2475 25.4301 80.1387 25.1274 80.0139C24.5264 79.7647 23.9501 79.4544 23.4129 79.0896C23.3887 79.0731 23.365 79.0566 23.3409 79.0401C23.1552 78.9118 23.0812 78.6816 23.1426 78.4757C23.1576 78.4256 23.1803 78.3771 23.2113 78.3319C23.3703 78.1002 23.6856 78.0434 23.9162 78.2017C24.4147 78.5471 24.9524 78.8395 25.5138 79.0721C25.5447 79.0852 25.5756 79.0974 25.6066 79.11C26.9411 79.6482 28.3587 79.8318 29.7503 79.6681C30.5055 79.5792 31.2535 79.3873 31.9764 79.093C31.9822 79.0906 31.988 79.0881 31.9938 79.0857C32.0117 79.0779 32.0296 79.0711 32.0475 79.0634C34.1527 78.1837 35.7913 76.5333 36.6611 74.4161C36.7738 74.1421 36.8715 73.8648 36.9551 73.5845C37.5155 71.6995 37.4144 69.6944 36.6524 67.8526C35.7768 65.7378 34.1338 64.0922 32.0262 63.2184C29.9195 62.3461 27.5982 62.348 25.4925 63.2271C23.3873 64.1068 21.7487 65.7572 20.8788 67.8745C20.7681 68.144 20.6714 68.418 20.5887 68.6953C20.2314 69.8984 20.1395 71.1657 20.3252 72.4081C20.3363 72.4849 20.3305 72.5597 20.3097 72.6291C20.2551 72.8122 20.0999 72.957 19.8992 72.9871C19.6222 73.0279 19.364 72.8375 19.3224 72.5587C19.115 71.1686 19.2175 69.7498 19.6168 68.4044C19.7092 68.0935 19.817 67.787 19.9408 67.4859C20.9141 65.1166 22.7471 63.2704 25.1028 62.2863C27.458 61.3027 30.0535 61.2969 32.412 62.2761C34.7706 63.2534 36.6084 65.0947 37.588 67.4611C38.4409 69.521 38.5541 71.7641 37.927 73.8735C37.8336 74.1868 37.7244 74.4972 37.5987 74.8037C35.7144 79.3903 30.6767 81.7304 26.0422 80.3393L26.0427 80.3398Z" fill="#91B3FA"/>
<path d="M62.9134 102.039C62.5324 102.073 62.1789 101.813 62.104 101.427C61.9396 100.584 61.8095 99.7212 61.7167 98.8624C61.6717 98.4447 61.972 98.0693 62.3878 98.0241C62.3926 98.0241 62.3975 98.0231 62.4023 98.0226C62.8118 97.9857 63.1774 98.2854 63.2219 98.6983C63.3099 99.5138 63.4336 100.334 63.5898 101.135C63.6701 101.547 63.4027 101.947 62.9922 102.027C62.9656 102.033 62.9395 102.036 62.9134 102.039ZM62.3757 95.4347C62.3462 95.4372 62.3162 95.4381 62.2858 95.4377C61.868 95.4255 61.5387 95.0753 61.5503 94.6557C61.575 93.793 61.6369 92.9231 61.7336 92.0702C61.781 91.653 62.1547 91.3543 62.5715 91.4004C62.9869 91.448 63.2852 91.8254 63.2378 92.2421C63.1455 93.0533 63.087 93.8795 63.0637 94.6994C63.0526 95.0889 62.7519 95.4012 62.3752 95.4347H62.3757ZM63.2987 88.8761C63.2146 88.8839 63.128 88.8771 63.042 88.8548C62.6373 88.7494 62.3941 88.3346 62.4985 87.928C62.7132 87.0945 62.9666 86.2601 63.2518 85.4475C63.3911 85.0516 63.8238 84.8442 64.2179 84.9831C64.6119 85.123 64.8189 85.5573 64.6801 85.9536C64.4094 86.7249 64.1686 87.5176 63.9645 88.3093C63.8823 88.6294 63.6087 88.8489 63.2987 88.8766V88.8761ZM65.6592 82.6881C65.5205 82.7008 65.3769 82.6745 65.2439 82.6056C64.8726 82.4123 64.728 81.9528 64.9204 81.5802C65.3159 80.8157 65.7487 80.059 66.2071 79.3309C66.4309 78.9763 66.8985 78.8709 67.2519 79.0948C67.6054 79.3192 67.7103 79.7894 67.4869 80.1445C67.0518 80.8356 66.6403 81.554 66.2651 82.2811C66.1413 82.5206 65.9087 82.6658 65.6597 82.6881H65.6592ZM69.3339 77.1845C69.1396 77.202 68.9384 77.1442 68.7774 77.0072C68.4583 76.7357 68.4186 76.2558 68.6889 75.9353C69.2416 75.2795 69.8305 74.6379 70.4383 74.0288C70.7342 73.7321 71.2138 73.7325 71.5088 74.0303C71.8037 74.3275 71.8032 74.8094 71.5068 75.1061C70.9286 75.6846 70.3691 76.2947 69.844 76.9179C69.7101 77.0767 69.5249 77.167 69.3334 77.184L69.3339 77.1845ZM74.1289 72.6348C73.877 72.6577 73.6193 72.5527 73.4559 72.3347C73.2044 71.999 73.2712 71.5221 73.6053 71.2695C74.2899 70.7517 75.005 70.2568 75.7313 69.7992C76.0857 69.5758 76.5528 69.6836 76.7752 70.0397C76.9976 70.3952 76.8903 70.8649 76.5363 71.0878C75.8464 71.523 75.1665 71.9927 74.5162 72.4847C74.3992 72.5736 74.2648 72.6222 74.1289 72.6348ZM101.603 68.3537C101.498 68.363 101.39 68.3508 101.285 68.3134C100.518 68.0429 99.7275 67.802 98.9379 67.5985C98.5332 67.494 98.2891 67.0797 98.393 66.6727C98.497 66.2657 98.9094 66.0204 99.3146 66.1253C100.146 66.34 100.978 66.593 101.786 66.8777C102.181 67.0166 102.388 67.4508 102.25 67.8471C102.148 68.1376 101.889 68.3275 101.603 68.3533V68.3537ZM79.8044 69.2679C79.4916 69.296 79.1816 69.1251 79.0462 68.821C78.8751 68.4373 79.0462 67.9875 79.4277 67.8161C80.2101 67.4639 81.017 67.1419 81.8259 66.8587C82.2215 66.7222 82.6523 66.9301 82.7901 67.3269C82.9274 67.7238 82.719 68.157 82.324 68.2955C81.5552 68.5641 80.7893 68.8701 80.0461 69.2042C79.9673 69.2397 79.8856 69.2606 79.8039 69.2679H79.8044ZM95.1723 66.8786C95.1225 66.883 95.0718 66.883 95.02 66.8772C94.2111 66.7859 93.3877 66.729 92.5725 66.7067C92.1543 66.695 91.8245 66.3458 91.8361 65.9257C91.8477 65.506 92.1949 65.1728 92.6131 65.1859C93.4709 65.2092 94.3373 65.2695 95.1888 65.3651C95.6041 65.4118 95.9034 65.7887 95.857 66.2059C95.8164 66.5712 95.5239 66.8471 95.1728 66.8786H95.1723ZM86.0862 67.2589C85.7056 67.2929 85.3527 67.0341 85.2773 66.6489C85.196 66.237 85.4629 65.8368 85.8729 65.7547C86.7128 65.5876 87.571 65.455 88.424 65.3608C88.4293 65.3598 88.4346 65.3593 88.4399 65.3588C88.849 65.3219 89.214 65.6206 89.2595 66.033C89.3054 66.4507 89.0056 66.8267 88.5898 66.8723C87.7794 66.9622 86.9642 67.0885 86.1664 67.2473C86.1394 67.2521 86.1128 67.2565 86.0857 67.2585L86.0862 67.2589Z" fill="#91B3FA"/>
<path d="M106.44 70.5711C106.291 70.5842 106.137 70.5541 105.998 70.474C105.659 70.2797 105.31 70.0893 104.961 69.9076C104.59 69.7143 104.445 69.2553 104.637 68.8828C104.83 68.5098 105.286 68.3636 105.658 68.5574C106.025 68.7482 106.391 68.9484 106.748 69.1533C107.111 69.3617 107.238 69.826 107.03 70.1908C106.903 70.4157 106.678 70.5502 106.44 70.5716V70.5711Z" fill="#91B3FA"/>
<path d="M120.427 89.017C120.063 89.0496 119.719 88.813 119.626 88.4458C119.53 88.0655 119.425 87.6813 119.313 87.303C119.194 86.9003 119.422 86.4768 119.823 86.3573C120.225 86.2373 120.645 86.467 120.764 86.8692C120.882 87.2675 120.993 87.6721 121.094 88.0723C121.196 88.4794 120.951 88.8932 120.546 88.9962C120.506 89.0064 120.466 89.0127 120.426 89.0166L120.427 89.017Z" fill="#91B3FA"/>
<path d="M94.4964 125.809C94.1492 125.84 93.8006 125.865 93.4501 125.885C93.0328 125.908 92.6755 125.586 92.6523 125.167C92.6291 124.748 92.9506 124.387 93.3664 124.366C94.1753 124.321 94.9809 124.243 95.7695 124.133C96.1843 124.075 96.5658 124.365 96.6238 124.781C96.6814 125.197 96.3922 125.582 95.9779 125.639C95.49 125.707 94.992 125.765 94.4969 125.809H94.4964ZM89.4529 125.832C89.4108 125.836 89.3678 125.836 89.3238 125.833C88.482 125.765 87.6334 125.66 86.8018 125.521C86.3893 125.453 86.1104 125.061 86.1785 124.647C86.2472 124.233 86.6374 123.951 87.0493 124.021C87.8389 124.153 88.6449 124.252 89.4451 124.317C89.8619 124.35 90.1723 124.717 90.139 125.136C90.109 125.511 89.8131 125.8 89.4524 125.832H89.4529ZM99.8764 124.815C99.521 124.847 99.1816 124.621 99.0815 124.264C98.9679 123.859 99.2024 123.439 99.6047 123.325C100.374 123.107 101.146 122.852 101.897 122.569C102.288 122.422 102.725 122.62 102.872 123.013C103.019 123.406 102.821 123.845 102.429 123.992C101.639 124.291 100.827 124.559 100.016 124.789C99.9693 124.802 99.9228 124.81 99.8764 124.815ZM83.0782 124.596C82.9825 124.605 82.8839 124.595 82.7862 124.564C81.9802 124.312 81.1756 124.023 80.3943 123.704C80.007 123.545 79.8208 123.102 79.9785 122.713C80.1361 122.323 80.5775 122.136 80.9648 122.295C81.7065 122.598 82.471 122.873 83.2364 123.112C83.6357 123.237 83.8586 123.663 83.7344 124.064C83.6406 124.367 83.3751 124.569 83.0787 124.596H83.0782ZM105.886 122.361C105.594 122.387 105.301 122.241 105.153 121.966C104.953 121.597 105.09 121.135 105.457 120.935C106.16 120.552 106.856 120.133 107.527 119.691C107.877 119.46 108.346 119.558 108.576 119.909C108.805 120.26 108.708 120.731 108.359 120.962C107.653 121.428 106.919 121.869 106.179 122.272C106.086 122.323 105.986 122.352 105.886 122.361L105.886 122.361ZM111.213 118.642C110.98 118.663 110.74 118.575 110.575 118.384C110.3 118.068 110.333 117.587 110.648 117.311C111.253 116.782 111.841 116.22 112.399 115.643C112.689 115.341 113.169 115.333 113.469 115.626C113.77 115.919 113.777 116.4 113.486 116.702C112.899 117.309 112.279 117.9 111.643 118.457C111.518 118.567 111.367 118.628 111.213 118.642ZM115.608 113.844C115.43 113.86 115.247 113.814 115.092 113.7C114.755 113.451 114.683 112.975 114.931 112.636C115.406 111.987 115.859 111.31 116.278 110.625C116.497 110.267 116.963 110.155 117.32 110.375C117.676 110.595 117.788 111.063 117.569 111.421C117.128 112.142 116.651 112.854 116.15 113.538C116.017 113.721 115.816 113.826 115.608 113.845V113.844ZM118.855 108.199C118.732 108.21 118.605 108.191 118.484 108.138C118.101 107.969 117.927 107.52 118.096 107.136C118.418 106.398 118.713 105.638 118.971 104.877C119.106 104.479 119.537 104.267 119.933 104.402C120.329 104.538 120.54 104.971 120.404 105.368C120.132 106.17 119.822 106.97 119.482 107.747C119.367 108.01 119.122 108.175 118.856 108.199L118.855 108.199ZM120.791 101.972C120.722 101.979 120.651 101.975 120.579 101.961C120.168 101.882 119.9 101.482 119.98 101.07C120.132 100.281 120.253 99.4749 120.338 98.674C120.383 98.2562 120.757 97.9546 121.172 97.9993C121.588 98.044 121.888 98.419 121.844 98.8367C121.753 99.6799 121.627 100.528 121.466 101.359C121.4 101.7 121.118 101.943 120.791 101.973V101.972ZM121.317 95.4755C121.302 95.477 121.286 95.4775 121.27 95.4784C120.853 95.4901 120.504 95.1593 120.492 94.7397C120.476 94.1471 120.441 93.5477 120.388 92.9586C120.37 92.7453 120.348 92.5326 120.325 92.3208C120.279 91.9031 120.578 91.5272 120.993 91.481C121.413 91.4257 121.783 91.7355 121.829 92.1528C121.854 92.3757 121.876 92.5991 121.897 92.824C121.952 93.4438 121.988 94.0747 122.006 94.6979C122.017 95.102 121.712 95.441 121.317 95.4765V95.4755Z" fill="#91B3FA"/>
<path d="M77.1156 121.971C76.9657 121.985 76.8105 121.954 76.6702 121.873C76.3153 121.667 75.958 121.45 75.608 121.227C75.2545 121.002 75.1496 120.532 75.3735 120.177C75.5973 119.823 76.0649 119.717 76.4183 119.942C76.7505 120.153 77.0899 120.359 77.4269 120.555C77.7891 120.765 77.9134 121.23 77.704 121.594C77.5759 121.817 77.352 121.95 77.1151 121.971H77.1156Z" fill="#91B3FA"/>
<path d="M77.3525 113.093C77.4579 113.202 77.6204 113.231 77.7567 113.166L81.6509 111.318C83.3471 112.404 85.2279 113.226 87.2374 113.724L88.5917 117.828C88.6391 117.971 88.7726 118.07 88.9234 118.071L94.0893 118.134C94.2401 118.136 94.3755 118.041 94.4268 117.898L95.8783 113.828C97.8989 113.378 99.7991 112.601 101.52 111.557L105.37 113.498C105.505 113.566 105.667 113.541 105.776 113.435L109.472 109.809C109.581 109.704 109.61 109.54 109.545 109.403L107.705 105.491C108.786 103.788 109.604 101.898 110.1 99.8795L114.185 98.519C114.329 98.4714 114.426 98.3374 114.428 98.1858L114.49 92.9965C114.492 92.8449 114.397 92.7089 114.255 92.6574L110.203 91.1993C109.756 89.169 108.982 87.2607 107.942 85.5315L109.875 81.6647C109.943 81.5292 109.918 81.3655 109.812 81.2572L106.203 77.5439C106.098 77.4351 105.935 77.406 105.799 77.4711L101.905 79.3192C100.209 78.2337 98.3277 77.4118 96.3183 76.9135L94.964 72.8092C94.9166 72.6654 94.7831 72.5673 94.6323 72.5654L89.4664 72.5032C89.3156 72.5013 89.1802 72.596 89.1289 72.7388L87.6774 76.8091C85.6563 77.2588 83.7566 78.0355 82.0353 79.0803L78.1866 77.1389C78.0517 77.0709 77.8887 77.0961 77.7804 77.202L74.084 80.8274C73.9761 80.9333 73.9466 81.0965 74.0109 81.2334L75.8507 85.1454C74.7701 86.8493 73.952 88.7387 73.4559 90.7573L69.3702 92.1178C69.2271 92.1654 69.1294 92.2995 69.128 92.451L69.0661 97.6404C69.0641 97.7919 69.1584 97.9279 69.3006 97.9794L73.3524 99.4375C73.8006 101.467 74.5733 103.376 75.6133 105.105L73.6807 108.972C73.613 109.108 73.6382 109.271 73.7436 109.38L77.3525 113.093Z" fill="url(#paint4_linear_398_5)"/>
<path d="M92.236 100.515C89.7145 100.741 87.3356 99.0796 86.7283 96.535C86.0606 93.7377 87.7828 90.9167 90.5674 90.2459C91.9164 89.9205 93.3104 90.143 94.4925 90.8715C95.6752 91.5996 96.5044 92.7474 96.8279 94.102C97.4956 96.8993 95.7734 99.7203 92.9888 100.391C92.7379 100.451 92.486 100.493 92.2365 100.515H92.236ZM91.4324 91.3335C91.2375 91.3509 91.0432 91.3825 90.8498 91.4291C88.715 91.943 87.3946 94.1064 87.9066 96.2508C88.4187 98.3953 90.5713 99.7227 92.7069 99.2079C94.8416 98.694 96.1621 96.5306 95.6501 94.3862C95.402 93.3472 94.7662 92.4676 93.8596 91.909C93.1227 91.4554 92.2785 91.2577 91.4329 91.3335H91.4324Z" fill="#91B3FA"/>
<path d="M93.0081 108.01C92.5749 108.049 92.1378 108.066 91.6969 108.06C91.5581 108.059 91.4193 108.055 91.281 108.049C90.5978 108.019 89.9175 107.934 89.2517 107.796C89.2426 107.794 89.2334 107.792 89.2247 107.79C89.199 107.785 89.1734 107.779 89.1473 107.773C89.097 107.763 89.0472 107.752 88.9974 107.74C88.8664 107.71 88.7745 107.599 88.7629 107.471C88.76 107.44 88.7624 107.408 88.7697 107.376C88.8069 107.212 88.9694 107.11 89.1323 107.147C89.9712 107.339 90.8367 107.442 91.7041 107.452C96.0137 107.504 99.8334 105.287 102.034 101.907C103.259 100.028 103.982 97.7885 104.011 95.3808C104.016 94.9588 104 94.5391 103.963 94.1243C103.715 91.3319 102.528 88.7324 100.552 86.6992C98.2823 84.3639 95.2434 83.0563 91.9947 83.0175C85.286 82.9378 79.7676 88.3526 79.6874 95.0884C79.6825 95.5037 79.6985 95.918 79.7353 96.329C79.8938 98.1101 80.4383 99.8368 81.3362 101.383C81.3594 101.423 81.3724 101.466 81.3763 101.509C81.3864 101.623 81.3318 101.738 81.2274 101.799C81.0823 101.883 80.8976 101.835 80.813 101.689C79.8702 100.066 79.2982 98.2534 79.1318 96.3838C79.0931 95.9525 79.0767 95.5178 79.0815 95.0821C79.1657 88.0096 84.9635 82.3253 92.0015 82.4094C95.4117 82.4502 98.6019 83.8228 100.985 86.2747C103.059 88.4089 104.305 91.1381 104.566 94.0694C104.605 94.5051 104.622 94.9452 104.616 95.3881C104.576 98.8144 103.209 102.019 100.769 104.413C98.644 106.497 95.9261 107.749 93.0077 108.01H93.0081Z" fill="#91B3FA"/>
<path d="M91.2695 18.4758C91.2695 18.4758 92.7998 19.2233 93.0812 20.0826C93.307 20.7718 94.9988 20.8607 95.1661 22.2158C95.2522 22.9157 95.7681 23.4758 96.4619 23.5826C98.19 23.8488 100.853 24.7503 101.279 27.7641C101.605 30.0645 100.437 30.9368 99.2116 31.2389C98.3118 31.4609 97.7137 32.3401 97.8955 33.2527C98.0701 34.128 97.8099 35.1402 96.2999 35.9402C92.9168 37.7334 89.5385 31.6921 89.5385 31.6921L88.8461 21.1434L91.2695 18.4763V18.4758Z" fill="url(#paint5_linear_398_5)"/>
<path d="M77.353 12.2129C77.353 12.2129 80.5079 24.5087 87.5208 28.955C87.5208 28.955 84.6647 32.7353 83.3587 32.8514C83.3587 32.8514 76.4798 21.9247 76.5001 13.5394L77.3535 12.2134L77.353 12.2129Z" fill="url(#paint6_linear_398_5)"/>
<path d="M105.175 84.6199L105.394 86.4277C105.435 86.7706 105.704 87.0416 106.046 87.081C106.623 87.147 107.549 87.215 108.454 87.1189C108.852 87.0766 109.11 86.672 108.989 86.2893C108.768 85.5913 108.364 84.5436 107.782 83.9272H105.785C105.417 83.9272 105.13 84.2517 105.175 84.6199Z" fill="url(#paint7_linear_398_5)"/>
<path d="M89.5385 63.4421L89.2015 65.4331C89.2015 65.4331 90.33 76.9149 90.5306 81.5078C90.5621 82.2276 90.3769 82.9392 90.0002 83.5531L88.0381 86.754L93.0246 83.7979L93.1237 83.1864L92.3076 82.0591L93.3766 69.1964C93.4395 68.4406 93.2843 67.6829 92.9294 67.0136L91.898 65.0668L89.538 63.4417L89.5385 63.4421Z" fill="url(#paint8_linear_398_5)"/>
<path d="M87.7103 87.218H89.3015C89.5994 87.218 89.8803 87.0806 90.0621 86.8436C90.5582 86.1961 91.5861 84.9328 92.0774 84.8997C92.7388 84.8555 92.6542 87.218 92.6542 87.218H93.0251L93.495 84.2819C93.613 83.5431 93.2475 82.8112 92.587 82.4653C92.587 82.4653 92.4357 83.5888 91.6156 84.0857C90.7956 84.5826 88.2784 86.3627 88.2784 86.3627C88.2784 86.3627 87.9699 86.3185 87.6315 86.3802C87.1296 86.4715 87.1997 87.218 87.7098 87.218H87.7103Z" fill="url(#paint9_linear_398_5)"/>
<path d="M96.3686 64.388C96.3686 64.388 102.979 76.9845 104.03 79.8609C105.08 82.7368 105.449 85.1362 105.463 85.3636C105.485 85.7186 105.925 86.0591 107.136 86.0591C107.762 86.0591 108.068 85.8075 108.218 85.5637C108.346 85.3558 108.352 85.0954 108.245 84.8764C107.862 84.0992 106.649 81.6148 106.199 80.488C105.663 79.1425 104.508 73.0458 103.876 70.9257C103.243 68.806 102.527 66.5067 99.7706 64.3885C99.7706 64.3885 97.8781 62.5267 96.369 64.3885L96.3686 64.388Z" fill="url(#paint10_linear_398_5)"/>
<path d="M92.1925 43.7476C90.4871 36.4891 94.8073 32.3834 94.8073 32.3834C92.0818 29.7552 87.1151 28.5588 87.1151 28.5588C87.1151 28.5588 82.3762 32.039 82.9385 34.7634C83.2683 36.3599 86.2695 44.3266 86.2695 44.3266C86.2695 44.3266 89.0448 45.6463 92.1925 43.7471V43.7476Z" fill="url(#paint11_linear_398_5)"/>
<path d="M95.9735 47.3414C95.2797 45.2411 92.193 43.748 92.193 43.748C89.0453 45.6472 86.2699 44.3275 86.2699 44.3275C86.2699 44.3275 85.6476 46.7177 86.077 48.9384C86.5064 51.1596 89.2019 65.4337 89.2019 65.4337C93.4486 66.2983 99.9804 64.5638 99.9804 64.5638C97.2751 59.7392 96.6679 49.4416 95.9735 47.3414Z" fill="url(#paint12_linear_398_5)"/>
<path d="M90.2134 23.7628L91.5997 30.0183C91.7322 30.5691 91.2322 30.4793 90.6776 30.3744C89.7696 30.2024 88.599 29.8483 88.2078 29.1382C88.1682 29.0658 88.1479 28.9842 88.1368 28.9026L87.5411 24.5647C87.4937 24.2204 87.6789 23.8867 87.9951 23.7458L89.1444 23.2339C89.5868 23.0367 90.0993 23.2902 90.213 23.7628H90.2134Z" fill="url(#paint13_linear_398_5)"/>
<path d="M88.5869 17.8065C88.5869 17.8065 86.9449 18.503 85.8285 20.8864C84.7121 23.2698 85.5456 24.3704 86.5929 24.5215C87.6402 24.6725 89.2063 24.6497 90.8628 23.11C92.5193 21.5703 90.7211 16.9812 88.5869 17.8065Z" fill="url(#paint14_linear_398_5)"/>
<path d="M89.7493 21.837C89.7493 21.837 90.9881 18.3501 87.9105 18.3088L87.1862 18.8173C87.1862 18.8173 86.0572 16.8842 87.9105 15.9608C89.7638 15.038 91.9328 15.8001 92.7219 18.3088C93.5105 20.817 93.6454 22.4961 92.3332 23.6963C91.0209 24.8965 90.4804 23.5356 90.4804 23.5356C90.4804 23.5356 91.195 22.4131 90.9039 21.8127C90.6128 21.2124 89.9422 21.9371 89.9422 21.9371L89.7498 21.837H89.7493Z" fill="url(#paint15_linear_398_5)"/>
<path d="M90.0945 22.2256C90.0945 22.2256 90.7207 20.4295 91.5562 21.1449C92.3917 21.8604 90.8773 22.8041 90.284 23.1101L90.094 22.2261L90.0945 22.2256Z" fill="url(#paint16_linear_398_5)"/>
<path d="M76.723 14.3302C76.636 14.5347 77.3694 14.9325 77.9057 14.1146C77.9622 13.7027 78.3887 11.9551 78.1759 11.5937C77.0436 9.66736 75.6709 9.41284 75.6709 9.41284C75.3667 9.85484 75.0128 10.2186 74.8092 10.7699C74.655 11.1876 74.6777 11.6525 74.8547 12.0644C75.0321 12.4777 75.2768 13.0164 75.5166 13.4423C75.9702 14.2491 76.723 14.3302 76.723 14.3302Z" fill="url(#paint17_linear_398_5)"/>
<path d="M95.5737 34.3159C95.5737 34.3159 82.8921 49.8714 73.4177 32.1593C73.4177 32.1593 73.2359 31.7066 73.3495 31.0528C73.4071 30.7226 73.1895 29.552 73.07 28.9541C73.0318 28.7617 73.1677 28.5801 73.3621 28.5611C73.5144 28.5466 73.6638 28.6107 73.7581 28.7316L75.4886 30.9455C75.6177 31.3836 75.4098 31.8514 74.9988 32.0471C74.7367 32.1719 74.654 32.5066 74.83 32.7388C82.0353 42.2267 94.0869 31.8154 94.3078 31.9378C95.0902 32.3716 95.9943 32.8514 95.5742 34.3159H95.5737Z" fill="url(#paint18_linear_398_5)"/>
<path d="M87.9835 135.246C88.2577 135.246 88.4801 135.07 88.4801 134.851V87.7372C88.4801 87.5196 88.2577 87.3433 87.9835 87.3433C87.7094 87.3433 87.4869 87.5196 87.4869 87.7372V134.851C87.4869 135.069 87.7094 135.246 87.9835 135.246Z" fill="url(#paint19_linear_398_5)"/>
<path d="M101.441 135.246C101.715 135.246 101.937 135.07 101.937 134.851V87.7372C101.937 87.5196 101.715 87.3433 101.441 87.3433C101.166 87.3433 100.944 87.5196 100.944 87.7372V134.851C100.944 135.069 101.166 135.246 101.441 135.246Z" fill="url(#paint20_linear_398_5)"/>
<path d="M134.504 135.544C134.568 135.544 134.634 135.534 134.698 135.513C134.95 135.428 135.067 135.196 134.96 134.996L109.566 87.5831C109.459 87.383 109.167 87.2897 108.915 87.3747C108.662 87.4597 108.545 87.6914 108.652 87.8915L134.046 135.304C134.127 135.455 134.31 135.544 134.504 135.544Z" fill="url(#paint21_linear_398_5)"/>
<path d="M118.818 135.544C118.883 135.544 118.949 135.534 119.012 135.513C119.264 135.428 119.382 135.196 119.274 134.996L93.8804 87.5831C93.7731 87.383 93.481 87.2897 93.2291 87.3747C92.9767 87.4597 92.8592 87.6914 92.9666 87.8915L118.361 135.304C118.441 135.455 118.625 135.544 118.818 135.544Z" fill="url(#paint22_linear_398_5)"/>
<path d="M87.2128 88.1709H110.475C110.861 88.1709 111.175 87.9222 111.175 87.6152C111.175 87.3083 110.861 87.0596 110.475 87.0596H87.2128C86.8265 87.0596 86.5127 87.3083 86.5127 87.6152C86.5127 87.9222 86.826 88.1709 87.2128 88.1709Z" fill="url(#paint23_linear_398_5)"/>
<path d="M97.2602 95.3813H112.992C113.266 95.3813 113.489 95.205 113.489 94.9869C113.489 94.7688 113.266 94.5925 112.992 94.5925H97.2602C96.986 94.5925 96.7636 94.7688 96.7636 94.9869C96.7636 95.205 96.986 95.3813 97.2602 95.3813Z" fill="url(#paint24_linear_398_5)"/>
<path d="M117.819 103.56H102.087V104.349H117.819V103.56Z" fill="url(#paint25_linear_398_5)"/>
<path d="M122.492 112.527H106.76V113.315H122.492V112.527Z" fill="url(#paint26_linear_398_5)"/>
<path d="M111.661 122.282H127.393C127.667 122.282 127.89 122.106 127.89 121.888C127.89 121.67 127.667 121.493 127.393 121.493H111.661C111.387 121.493 111.165 121.67 111.165 121.888C111.165 122.106 111.387 122.282 111.661 122.282Z" fill="url(#paint27_linear_398_5)"/>
<path d="M116.399 131.249H132.131C132.405 131.249 132.628 131.073 132.628 130.855C132.628 130.638 132.405 130.461 132.131 130.461H116.399C116.125 130.461 115.902 130.637 115.902 130.855C115.902 131.073 116.125 131.249 116.399 131.249Z" fill="url(#paint28_linear_398_5)"/>
<path d="M41.5606 134.804C39.9911 133.431 36.6181 132.331 36.6181 132.331L34.5888 132.376C34.0739 132.958 33.8408 134.086 33.7417 134.793C34.1237 135.023 34.8398 135.224 36.153 135.287C38.5841 135.404 40.5457 135.047 41.5611 134.804H41.5606Z" fill="url(#paint29_linear_398_5)"/>
<path d="M41.5606 134.804C40.5457 135.047 38.5836 135.404 36.1525 135.287C34.8398 135.225 34.1237 135.023 33.7413 134.793C33.733 134.85 33.7258 134.905 33.7195 134.956C33.6832 135.246 33.8621 135.518 34.1402 135.604C35.9939 136.174 40.0709 135.991 41.6602 135.892C42.0001 135.87 42.1776 135.47 41.96 135.207C41.8469 135.07 41.7115 134.936 41.5601 134.803L41.5606 134.804Z" fill="url(#paint30_linear_398_5)"/>
<path d="M35.539 130.616L34.7542 132.237C34.7542 132.549 34.9708 132.817 35.2745 132.884C35.5888 132.952 36.006 132.996 36.4112 132.895C36.6646 132.832 36.8498 132.613 36.8802 132.353L37.8685 130.615H35.5385L35.539 130.616Z" fill="url(#paint31_linear_398_5)"/>
<path d="M2.0035 130.917C1.41314 129.596 1.58188 129.002 0.41275 129.134C0.272048 129.15 0.155521 129.177 0.0568848 129.212C-0.0166091 129.43 -0.0214442 129.671 0.0573683 129.9C0.352794 130.754 0.578594 132.411 1.71195 133.848C1.95032 134.151 2.3144 134.325 2.69831 134.332L3.98736 134.354C2.76455 133.372 2.4933 132.012 2.0035 130.917Z" fill="url(#paint32_linear_398_5)"/>
<path d="M4.06907 132.395C3.0798 131.695 3.10253 128.64 3.10253 128.64L1.57753 127.861L0.427739 128.698C0.249806 128.831 0.124576 129.012 0.0568848 129.212C0.155521 129.176 0.272048 129.149 0.41275 129.134C1.58188 129.002 1.41314 129.596 2.0035 130.917C2.4933 132.012 2.76504 133.372 3.98736 134.354L4.87315 134.369C5.27108 134.375 5.50123 133.918 5.25996 133.6C4.95728 133.201 4.54291 132.731 4.06907 132.395Z" fill="url(#paint33_linear_398_5)"/>
<path d="M3.11219 126.422L1.40684 127.861C1.29031 128.042 1.32996 128.283 1.49919 128.417C1.79413 128.65 2.30569 128.911 2.93184 128.641L4.80303 127.623L3.11219 126.423V126.422Z" fill="url(#paint34_linear_398_5)"/>
<path d="M1.98077 127.131L3.38005 128.18C3.58554 128.371 4.09178 128.391 4.31903 128.226C6.63892 126.546 28.644 116.385 33.0048 114.798L29.6763 107.778C29.6763 107.778 1.3933 126.588 1.98077 127.131Z" fill="url(#paint35_linear_398_5)"/>
<path d="M46.68 113.497C44.0845 112.098 36.8551 110.888 36.8551 110.888L28.4468 108.601C28.4468 108.601 26.138 115.519 30.1836 116.767C34.2291 118.016 40.0767 117.425 42.5281 117.098C42.5281 117.098 39.2509 119.463 35.3272 130.917C35.3272 130.917 36.6476 130.945 37.722 131.198C37.722 131.198 46.4789 120.249 47.3966 117.425C48.002 115.562 48.8496 114.666 46.68 113.497Z" fill="url(#paint36_linear_398_5)"/>
<path d="M51.7124 90.6847C49.8935 90.5559 44.3674 91.7625 44.3674 91.7625L47.2051 94.1065C47.2051 94.1065 49.4419 93.5601 50.9325 93.2672C50.9325 93.2672 54.6121 90.8901 51.7124 90.6847Z" fill="url(#paint37_linear_398_5)"/>
<path d="M58.2084 92.3434C58.2084 92.3434 55.7715 94.6166 54.291 95.2339C52.8105 95.8513 51.945 96.524 51.0278 94.8769C50.1106 93.2303 50.4635 91.4458 51.6878 90.1145C51.6878 90.1145 53.5672 88.0424 54.6145 87.989C55.6622 87.9356 58.2084 92.343 58.2084 92.343V92.3434Z" fill="url(#paint38_linear_398_5)"/>
<path d="M52.9787 90.3325L53.0561 90.5545C53.0561 90.5545 54.6019 88.9827 55.2106 89.67C55.8189 90.3573 57.5765 93.3089 58.9395 93.5989C60.2537 93.8782 61.446 92.7951 61.5287 91.7746C61.534 91.71 61.4847 91.6536 61.4209 91.6439L61.2574 91.6196C61.1458 91.6026 61.1109 91.4579 61.2033 91.3918C61.2908 91.3292 61.2657 91.1903 61.1612 91.1669C60.7517 91.0756 60.0071 90.6997 59.1933 89.2731C58.0392 87.2492 56.667 86.1262 55.1657 86.6163C55.0704 86.6474 54.9834 86.5643 55.0042 86.4662C55.0453 86.2724 55.0013 86.0004 54.5961 85.76C53.8911 85.3413 52.6857 86.0397 52.0799 87.7169C52.0509 87.7966 51.9547 87.8301 51.8879 87.7781C51.6525 87.596 51.1651 87.3725 50.9988 88.4557C50.8286 89.5641 51.0756 90.0969 51.2018 90.2868C51.2357 90.3378 51.3 90.3577 51.3561 90.3339L52.6471 89.7865C52.7138 89.7584 52.7907 89.7924 52.8144 89.8609L52.9797 90.3335L52.9787 90.3325Z" fill="url(#paint39_linear_398_5)"/>
<path d="M52.722 90.4841C52.722 90.4841 54.3921 89.3558 53.5875 88.7098C52.7829 88.0638 51.6786 89.8658 51.8425 90.5555L52.7225 90.4841H52.722Z" fill="url(#paint40_linear_398_5)"/>
<path d="M67.9318 97.6662C67.9318 97.6662 69.3031 98.1553 69.556 97.3359C69.8093 96.5165 69.1019 94.3313 69.5506 94.0297C69.9993 93.728 70.7739 92.2199 70.5288 91.5307L69.9669 92.0669C69.9669 92.0669 70.3499 90.8021 69.9292 90.2634L68.866 93.0101C68.866 93.0101 67.4565 96.278 67.9318 97.6657V97.6662Z" fill="url(#paint41_linear_398_5)"/>
<path d="M43.1528 92.2107C43.1528 92.2107 45.597 89.5014 50.9403 93.73C54.6227 96.6443 67.8917 96.0517 67.8917 96.0517C67.8917 96.0517 67.8849 96.8065 68.1451 97.7182C68.1451 97.7182 57.0098 100.742 48.6513 98.6891C48.6513 98.6891 39.4157 109.206 38.7045 111.266C38.7045 111.266 32.7027 112.166 28.4468 108.6C28.4468 108.6 29.5883 105.044 33.2838 100.921C38.0822 95.567 43.1528 92.2102 43.1528 92.2102V92.2107Z" fill="url(#paint42_linear_398_5)"/>
<path d="M44.4365 97.6294C44.3921 97.6129 44.3669 97.5643 44.38 97.5177C44.3935 97.4686 44.4448 97.44 44.4936 97.4536C44.5255 97.4628 47.6732 98.3507 48.1697 98.4741C48.2186 98.4867 48.249 98.5362 48.237 98.5863C48.2249 98.6358 48.1751 98.6659 48.1257 98.6538C47.6263 98.5294 44.4757 97.6406 44.4438 97.6318C44.4414 97.6313 44.439 97.6304 44.4365 97.6294Z" fill="url(#paint43_linear_398_5)"/>
<defs>
<linearGradient id="paint0_linear_398_5" x1="145.807" y1="153.972" x2="51.8405" y2="54.3965" gradientUnits="userSpaceOnUse">
<stop stop-color="#DAE3FE"/>
<stop offset="1" stop-color="#E9EFFD"/>
</linearGradient>
<linearGradient id="paint1_linear_398_5" x1="60.695" y1="6.61257" x2="82.4367" y2="150.135" gradientUnits="userSpaceOnUse">
<stop stop-color="#4F52FF"/>
<stop offset="1" stop-color="#4042E2"/>
</linearGradient>
<linearGradient id="paint2_linear_398_5" x1="151.754" y1="27.7324" x2="76.3267" y2="43.6904" gradientUnits="userSpaceOnUse">
<stop stop-color="#4F52FF"/>
<stop offset="1" stop-color="#4042E2"/>
</linearGradient>
<linearGradient id="paint3_linear_398_5" x1="55.4738" y1="46.5874" x2="15.2416" y2="83.2079" gradientUnits="userSpaceOnUse">
<stop stop-color="#4F52FF"/>
<stop offset="1" stop-color="#4042E2"/>
</linearGradient>
<linearGradient id="paint4_linear_398_5" x1="66.074" y1="110.279" x2="115.515" y2="81.7743" gradientUnits="userSpaceOnUse">
<stop stop-color="#4F52FF"/>
<stop offset="1" stop-color="#4042E2"/>
</linearGradient>
<linearGradient id="paint5_linear_398_5" x1="88.5782" y1="12.3233" x2="93.1527" y2="23.7466" gradientUnits="userSpaceOnUse">
<stop stop-color="#09005D"/>
<stop offset="1" stop-color="#1A0F91"/>
</linearGradient>
<linearGradient id="paint6_linear_398_5" x1="80.6074" y1="18.5836" x2="87.1134" y2="38.4717" gradientUnits="userSpaceOnUse">
<stop stop-color="#FEBBBA"/>
<stop offset="1" stop-color="#FF928E"/>
</linearGradient>
<linearGradient id="paint7_linear_398_5" x1="106.998" y1="83.5226" x2="106.343" y2="70.1493" gradientUnits="userSpaceOnUse">
<stop stop-color="#09005D"/>
<stop offset="1" stop-color="#1A0F91"/>
</linearGradient>
<linearGradient id="paint8_linear_398_5" x1="88.9075" y1="100.794" x2="94.4963" y2="35.77" gradientUnits="userSpaceOnUse">
<stop stop-color="#FEBBBA"/>
<stop offset="1" stop-color="#FF928E"/>
</linearGradient>
<linearGradient id="paint9_linear_398_5" x1="90.5418" y1="84.4878" x2="92.2887" y2="72.5299" gradientUnits="userSpaceOnUse">
<stop stop-color="#09005D"/>
<stop offset="1" stop-color="#1A0F91"/>
</linearGradient>
<linearGradient id="paint10_linear_398_5" x1="100.049" y1="101.762" x2="105.639" y2="36.7207" gradientUnits="userSpaceOnUse">
<stop stop-color="#FEBBBA"/>
<stop offset="1" stop-color="#FF928E"/>
</linearGradient>
<linearGradient id="paint11_linear_398_5" x1="126.662" y1="9.30367" x2="104.678" y2="25.1097" gradientUnits="userSpaceOnUse">
<stop stop-color="#FF928E"/>
<stop offset="1" stop-color="#FE7062"/>
</linearGradient>
<linearGradient id="paint12_linear_398_5" x1="97.4657" y1="40.9479" x2="81.5462" y2="89.9992" gradientUnits="userSpaceOnUse">
<stop stop-color="#09005D"/>
<stop offset="1" stop-color="#1A0F91"/>
</linearGradient>
<linearGradient id="paint13_linear_398_5" x1="88.4191" y1="33.7948" x2="90.4937" y2="22.273" gradientUnits="userSpaceOnUse">
<stop stop-color="#FEBBBA"/>
<stop offset="1" stop-color="#FF928E"/>
</linearGradient>
<linearGradient id="paint14_linear_398_5" x1="85.6738" y1="26.8374" x2="94.8146" y2="10.6441" gradientUnits="userSpaceOnUse">
<stop stop-color="#E4120E"/>
<stop offset="1" stop-color="#FF928E"/>
</linearGradient>
<linearGradient id="paint15_linear_398_5" x1="87.6262" y1="12.7046" x2="92.2006" y2="24.1279" gradientUnits="userSpaceOnUse">
<stop stop-color="#09005D"/>
<stop offset="1" stop-color="#1A0F91"/>
</linearGradient>
<linearGradient id="paint16_linear_398_5" x1="87.6064" y1="27.9284" x2="96.7467" y2="11.7352" gradientUnits="userSpaceOnUse">
<stop stop-color="#FEBBBA"/>
<stop offset="1" stop-color="#FF928E"/>
</linearGradient>
<linearGradient id="paint17_linear_398_5" x1="78.4261" y1="17.7274" x2="82.9194" y2="31.4636" gradientUnits="userSpaceOnUse">
<stop stop-color="#FEBBBA"/>
<stop offset="1" stop-color="#FF928E"/>
</linearGradient>
<linearGradient id="paint18_linear_398_5" x1="86.1765" y1="27.8411" x2="80.2417" y2="39.6647" gradientUnits="userSpaceOnUse">
<stop stop-color="#FEBBBA"/>
<stop offset="1" stop-color="#FF928E"/>
</linearGradient>
<linearGradient id="paint19_linear_398_5" x1="142.681" y1="49.918" x2="119.675" y2="75.4996" gradientUnits="userSpaceOnUse">
<stop stop-color="#09005D"/>
<stop offset="1" stop-color="#1A0F91"/>
</linearGradient>
<linearGradient id="paint20_linear_398_5" x1="150.151" y1="56.6359" x2="127.145" y2="82.2176" gradientUnits="userSpaceOnUse">
<stop stop-color="#09005D"/>
<stop offset="1" stop-color="#1A0F91"/>
</linearGradient>
<linearGradient id="paint21_linear_398_5" x1="161.53" y1="66.8693" x2="138.524" y2="92.4509" gradientUnits="userSpaceOnUse">
<stop stop-color="#09005D"/>
<stop offset="1" stop-color="#1A0F91"/>
</linearGradient>
<linearGradient id="paint22_linear_398_5" x1="152.823" y1="59.0386" x2="129.817" y2="84.6203" gradientUnits="userSpaceOnUse">
<stop stop-color="#09005D"/>
<stop offset="1" stop-color="#1A0F91"/>
</linearGradient>
<linearGradient id="paint23_linear_398_5" x1="136.995" y1="44.8048" x2="113.989" y2="70.3865" gradientUnits="userSpaceOnUse">
<stop stop-color="#09005D"/>
<stop offset="1" stop-color="#1A0F91"/>
</linearGradient>
<linearGradient id="paint24_linear_398_5" x1="144.129" y1="51.2212" x2="121.123" y2="76.8028" gradientUnits="userSpaceOnUse">
<stop stop-color="#09005D"/>
<stop offset="1" stop-color="#1A0F91"/>
</linearGradient>
<linearGradient id="paint25_linear_398_5" x1="151.245" y1="57.62" x2="128.239" y2="83.2017" gradientUnits="userSpaceOnUse">
<stop stop-color="#09005D"/>
<stop offset="1" stop-color="#1A0F91"/>
</linearGradient>
<linearGradient id="paint26_linear_398_5" x1="158.275" y1="63.9426" x2="135.269" y2="89.5242" gradientUnits="userSpaceOnUse">
<stop stop-color="#09005D"/>
<stop offset="1" stop-color="#1A0F91"/>
</linearGradient>
<linearGradient id="paint27_linear_398_5" x1="165.432" y1="70.3783" x2="142.426" y2="95.96" gradientUnits="userSpaceOnUse">
<stop stop-color="#09005D"/>
<stop offset="1" stop-color="#1A0F91"/>
</linearGradient>
<linearGradient id="paint28_linear_398_5" x1="172.498" y1="76.7327" x2="149.492" y2="102.314" gradientUnits="userSpaceOnUse">
<stop stop-color="#09005D"/>
<stop offset="1" stop-color="#1A0F91"/>
</linearGradient>
<linearGradient id="paint29_linear_398_5" x1="38.8868" y1="119.547" x2="38.3135" y2="126.56" gradientUnits="userSpaceOnUse">
<stop stop-color="#09005D"/>
<stop offset="1" stop-color="#1A0F91"/>
</linearGradient>
<linearGradient id="paint30_linear_398_5" x1="37.8767" y1="136.419" x2="37.9587" y2="125.736" gradientUnits="userSpaceOnUse">
<stop stop-color="#09005D"/>
<stop offset="1" stop-color="#1A0F91"/>
</linearGradient>
<linearGradient id="paint31_linear_398_5" x1="34.7547" y1="131.785" x2="37.869" y2="131.785" gradientUnits="userSpaceOnUse">
<stop stop-color="#FEBBBA"/>
<stop offset="1" stop-color="#FF928E"/>
</linearGradient>
<linearGradient id="paint32_linear_398_5" x1="0.98958" y1="133.429" x2="7.52598" y2="123.1" gradientUnits="userSpaceOnUse">
<stop stop-color="#09005D"/>
<stop offset="1" stop-color="#1A0F91"/>
</linearGradient>
<linearGradient id="paint33_linear_398_5" x1="8.61022" y1="125.31" x2="4.2873" y2="129.856" gradientUnits="userSpaceOnUse">
<stop stop-color="#09005D"/>
<stop offset="1" stop-color="#1A0F91"/>
</linearGradient>
<linearGradient id="paint34_linear_398_5" x1="1.34011" y1="127.589" x2="4.80303" y2="127.589" gradientUnits="userSpaceOnUse">
<stop stop-color="#FEBBBA"/>
<stop offset="1" stop-color="#FF928E"/>
</linearGradient>
<linearGradient id="paint35_linear_398_5" x1="29.6469" y1="110.074" x2="4.57987" y2="132.209" gradientUnits="userSpaceOnUse">
<stop stop-color="#09005D"/>
<stop offset="1" stop-color="#1A0F91"/>
</linearGradient>
<linearGradient id="paint36_linear_398_5" x1="52.1761" y1="138.622" x2="37.4733" y2="116.668" gradientUnits="userSpaceOnUse">
<stop stop-color="#09005D"/>
<stop offset="1" stop-color="#1A0F91"/>
</linearGradient>
<linearGradient id="paint37_linear_398_5" x1="57.9333" y1="85.5657" x2="45.9937" y2="93.5613" gradientUnits="userSpaceOnUse">
<stop stop-color="#FEBBBA"/>
<stop offset="1" stop-color="#FF928E"/>
</linearGradient>
<linearGradient id="paint38_linear_398_5" x1="54.6096" y1="95.9513" x2="53.8451" y2="86.1662" gradientUnits="userSpaceOnUse">
<stop stop-color="#FEBBBA"/>
<stop offset="1" stop-color="#FF928E"/>
</linearGradient>
<linearGradient id="paint39_linear_398_5" x1="58.3075" y1="86.9094" x2="52.1981" y2="96.3413" gradientUnits="userSpaceOnUse">
<stop stop-color="#09005D"/>
<stop offset="1" stop-color="#1A0F91"/>
</linearGradient>
<linearGradient id="paint40_linear_398_5" x1="53.3022" y1="96.0533" x2="52.5377" y2="86.2686" gradientUnits="userSpaceOnUse">
<stop stop-color="#FEBBBA"/>
<stop offset="1" stop-color="#FF928E"/>
</linearGradient>
<linearGradient id="paint41_linear_398_5" x1="67.6909" y1="97.3077" x2="71.4636" y2="90.9294" gradientUnits="userSpaceOnUse">
<stop stop-color="#FEBBBA"/>
<stop offset="1" stop-color="#FF928E"/>
</linearGradient>
<linearGradient id="paint42_linear_398_5" x1="48.5033" y1="118.083" x2="48.1755" y2="94.7068" gradientUnits="userSpaceOnUse">
<stop stop-color="#FF928E"/>
<stop offset="1" stop-color="#FE7062"/>
</linearGradient>
<linearGradient id="paint43_linear_398_5" x1="60.9717" y1="71.0677" x2="40.5353" y2="108.337" gradientUnits="userSpaceOnUse">
<stop stop-color="#E1473D"/>
<stop offset="1" stop-color="#E9605A"/>
</linearGradient>
</defs>
</svg>
