<svg width="304" height="305" viewBox="0 0 304 305" fill="none" xmlns="http://www.w3.org/2000/svg">
<path d="M290.644 205.456C261.212 274.281 182.811 312.838 114.822 302.438C103.758 300.746 73.4285 295.704 46.5746 271.921C-5.11982 226.136 -16.1748 135.477 25.5256 71.5877C55.8756 25.0881 110.282 -1.27135 161.978 0.0472144C173.114 0.330696 215.789 2.08155 253.294 32.7942C258.803 37.3049 270.953 48.0251 281.903 65.0318C307.616 104.966 309.826 160.602 290.645 205.456H290.644Z" fill="url(#paint0_linear_398_15)"/>
<path d="M248.763 133.59C275.352 133.59 296.906 112.034 296.906 85.4441C296.906 58.8536 275.352 37.2979 248.763 37.2979C222.175 37.2979 200.62 58.8536 200.62 85.4441C200.62 112.034 222.175 133.59 248.763 133.59Z" fill="#91B3FA"/>
<mask id="mask0_398_15" style="mask-type:luminance" maskUnits="userSpaceOnUse" x="202" y="39" width="93" height="93">
<path d="M248.731 131.323C274.047 131.323 294.569 110.799 294.569 85.4811C294.569 60.1636 274.047 39.6396 248.731 39.6396C223.415 39.6396 202.893 60.1636 202.893 85.4811C202.893 110.799 223.415 131.323 248.731 131.323Z" fill="white"/>
</mask>
<g mask="url(#mask0_398_15)">
<path d="M306.169 143.182L195.178 146.805C194.508 146.827 193.943 146.297 193.921 145.628L189.922 23.1054C189.9 22.4352 190.43 21.8704 191.099 21.8476L302.09 18.2243C302.76 18.2026 303.325 18.7326 303.348 19.4016L307.347 141.924C307.368 142.594 306.838 143.159 306.169 143.182Z" fill="white"/>
<path d="M225.146 91.1167C225.146 91.1167 252.914 85.7979 275.143 90.9549L274.417 113.775C274.417 113.775 269.572 145.554 265.62 159.655C265.62 159.655 248.822 163.145 240.597 159.001C240.597 159.001 232.692 119.55 228.828 113.792C228.828 113.792 224.652 98.485 225.146 91.1156V91.1167Z" fill="url(#paint1_linear_398_15)"/>
<path d="M243.882 70.4121L241.715 89.3087C241.715 89.3087 249.6 92.6236 254.918 88.7244L253.314 75.4909L243.882 70.4121Z" fill="url(#paint2_linear_398_15)"/>
<path d="M255.454 57.7757C255.546 57.9321 257.532 67.3597 258.755 73.1966C259.26 75.6078 257.552 77.9191 255.098 78.145L252.852 78.3514C248.724 78.7316 244.987 75.9054 244.226 71.8302L242.251 61.2502C242.251 61.2502 253.202 53.9883 255.455 57.7757H255.454Z" fill="url(#paint3_linear_398_15)"/>
<path d="M239.825 61.356C238.927 60.3111 238.118 58.6005 239.896 56.7149C241.695 54.8066 243.822 55.1987 245.18 55.7743C245.782 56.0296 246.509 55.884 246.914 55.3714C247.094 55.1433 247.368 54.9836 247.782 55.0173C248.562 55.0792 249.241 54.5427 249.308 53.7617C249.423 52.4225 250.082 50.8292 252.425 50.297C256.721 49.3194 259.02 53.5771 259.042 56.6215C259.064 59.666 254.346 60.4599 251.639 60.0428C249.652 59.7366 248.001 61.5276 247.265 62.5008C246.997 62.8538 246.908 63.3078 247.022 63.7357L247.802 66.652C247.359 67.5806 246.925 68.5288 246.285 69.3304C245.825 69.9071 245.31 70.2341 244.757 70.3839C243.902 68.909 241.639 68.7287 240.59 68.7287C240.188 68.7287 239.808 68.5647 239.535 68.2703C238.715 67.3895 237.412 65.4073 239.715 63.3425C240.288 62.8299 240.327 61.9381 239.825 61.3549V61.356Z" fill="url(#paint4_linear_398_15)"/>
<path d="M245.64 73.5031C245.64 73.5031 245.374 68.2006 243.21 67.7716C241.047 67.3436 238.78 68.9717 240.721 72.0879C243.134 75.9643 245.641 73.502 245.641 73.502L245.64 73.5031Z" fill="url(#paint5_linear_398_15)"/>
<path d="M225.146 91.1172C225.146 91.1172 183.342 139.546 234.98 155.877L234.861 152.204C234.861 152.204 215.236 136.666 229.207 114.149C229.207 114.149 226.687 93.2732 225.146 91.1172Z" fill="url(#paint6_linear_398_15)"/>
<path d="M275.143 90.9552C275.143 90.9552 321.803 135.025 271.34 154.689L271.221 151.015C271.221 151.015 289.792 134.231 274.381 112.672C274.381 112.672 272.324 94.723 275.143 90.9541V90.9552Z" fill="url(#paint7_linear_398_15)"/>
</g>
<path d="M142.58 107.483C169.169 107.483 190.723 85.9271 190.723 59.3366C190.723 32.7462 169.169 11.1904 142.58 11.1904C115.992 11.1904 94.4373 32.7462 94.4373 59.3366C94.4373 85.9271 115.992 107.483 142.58 107.483Z" fill="#91B3FA"/>
<mask id="mask1_398_15" style="mask-type:luminance" maskUnits="userSpaceOnUse" x="96" y="13" width="93" height="93">
<path d="M142.548 105.215C167.863 105.215 188.386 84.6912 188.386 59.3737C188.386 34.0561 167.863 13.5322 142.548 13.5322C117.232 13.5322 96.7093 34.0561 96.7093 59.3737C96.7093 84.6912 117.232 105.215 142.548 105.215Z" fill="white"/>
</mask>
<g mask="url(#mask1_398_15)">
<path d="M199.986 117.075L88.995 120.698C88.3249 120.72 87.7602 120.19 87.7374 119.521L83.7385 -3.00205C83.7168 -3.6722 84.2468 -4.23699 84.9158 -4.2598L195.907 -7.88314C196.577 -7.90487 197.142 -7.37483 197.165 -6.70577L201.163 115.817C201.185 116.487 200.655 117.052 199.986 117.075Z" fill="white"/>
<path d="M140.567 38.7168C140.567 38.7168 141.457 40.3493 136.139 43.1395C133.173 44.696 127.38 47.0464 126.828 53.3264C126.543 56.5685 124.246 59.2393 121.049 59.8476C113.085 61.3605 100.892 65.9603 99.4125 79.9356C98.2841 90.6026 103.838 94.4345 109.565 95.6249C113.771 96.4992 116.689 100.457 115.995 104.697C115.33 108.765 116.703 113.391 123.83 116.833C139.803 124.546 154.465 96.1147 154.465 96.1147L155.938 47.3331L140.567 38.7168Z" fill="url(#paint8_linear_398_15)"/>
<path d="M144.326 108.564C148.575 87.1665 135.463 75.6176 135.463 75.6176C141.674 69.2148 152.23 65.3634 156.138 64.0969C157.097 63.7863 158.139 63.9623 158.945 64.5672C162.429 67.1816 171.675 74.8052 170.563 81.3317C169.762 86.0336 161.779 109.638 161.779 109.638C161.779 109.638 153.767 113.785 144.326 108.563V108.564Z" fill="url(#paint9_linear_398_15)"/>
<path d="M148.054 49.9351L144.635 68.3679C144.303 69.9928 145.761 69.6767 147.38 69.3118C150.028 68.7144 153.429 67.5555 154.503 65.4397C154.613 65.2246 154.663 64.9835 154.687 64.7435L155.983 51.9999C156.086 50.9887 155.508 50.0318 154.565 49.6538L151.136 48.2777C149.817 47.7476 148.339 48.5427 148.054 49.9362V49.9351Z" fill="url(#paint10_linear_398_15)"/>
<path d="M155.257 32.9865C155.257 32.9865 159.695 35.7659 161.824 43.1712C163.953 50.5764 161.023 53.3645 157.914 53.3113C154.806 53.2581 150.274 52.4587 146.185 47.2377C142.096 42.0166 149.45 29.6042 155.257 32.9865Z" fill="url(#paint11_linear_398_15)"/>
<path d="M150.008 44.0832C150.008 44.0832 148.038 33.4336 156.985 34.7544L158.848 36.5617C158.848 36.5617 163.024 31.5068 158.077 27.9747C153.13 24.4426 146.484 25.6298 143.028 32.5039C139.572 39.3792 138.4 44.1647 141.647 48.2442C144.895 52.3237 147.097 48.6471 147.097 48.6471C147.097 48.6471 145.546 45.0716 146.67 43.4728C147.793 41.8751 149.403 44.2809 149.403 44.2809L150.008 44.0821V44.0832Z" fill="url(#paint12_linear_398_15)"/>
<path d="M148.825 45.0433C148.825 45.0433 147.844 39.5627 145.088 41.2386C142.332 42.9134 146.286 46.3477 147.863 47.5077L148.825 45.0433Z" fill="url(#paint13_linear_398_15)"/>
<path d="M135.417 75.9318C135.417 75.9318 127.269 90.0667 125.91 100.498C124.552 110.929 141.124 114.664 146.957 108.4L145.938 104.109C145.938 104.109 136.495 106.177 135.446 101.023C134.397 95.8689 142.668 85.19 142.668 85.19C142.668 85.19 139.799 77.5045 135.417 75.9307V75.9318Z" fill="url(#paint14_linear_398_15)"/>
<path d="M111.279 89.3577C111.032 89.362 110.754 89.2567 110.526 89.1198C106.767 86.8563 104.632 81.9872 105.334 77.2799C105.754 74.4592 107.057 71.9926 109.005 70.333C110.386 69.1567 112.047 68.4105 113.629 67.7469C116.295 66.6292 119.049 65.6289 121.811 64.7752C122.037 64.7057 122.264 64.6362 122.49 64.5667C124.104 64.0746 125.773 63.5663 127.27 62.7496C129.184 61.7036 130.553 60.2352 131.126 58.6146C131.482 57.6067 131.556 56.4989 131.626 55.4268C131.714 54.1072 131.804 52.743 132.423 51.5537C132.448 51.507 132.505 51.4885 132.554 51.5124C132.6 51.5374 132.619 51.596 132.595 51.6427C131.995 52.7962 131.906 54.1398 131.82 55.4388C131.748 56.5227 131.673 57.6458 131.308 58.6787C130.719 60.3438 129.318 61.8492 127.363 62.9179C125.849 63.7445 124.171 64.256 122.548 64.7513C122.322 64.8197 122.095 64.8882 121.869 64.9588C119.113 65.8103 116.366 66.8074 113.705 67.9239C112.137 68.5821 110.491 69.3207 109.132 70.4796C107.22 72.1088 105.94 74.533 105.526 77.307C104.835 81.9394 106.934 86.7282 110.627 88.9526C110.893 89.1133 111.397 89.3045 111.594 89.0069C111.624 88.9624 111.684 88.9504 111.727 88.9786C111.772 89.0091 111.784 89.0677 111.755 89.1122C111.642 89.2839 111.47 89.3523 111.28 89.3555L111.279 89.3577Z" fill="#91B3FA"/>
<path d="M110.193 84.9954C110.162 84.9954 110.132 84.9823 110.112 84.9552C108.62 82.8882 107.803 80.691 107.75 78.6013C107.687 76.1499 108.744 73.831 110.508 72.5493C110.551 72.5189 110.611 72.5276 110.642 72.57C110.674 72.6134 110.664 72.6731 110.621 72.7057C108.908 73.9504 107.882 76.2074 107.942 78.5969C107.995 80.6465 108.798 82.8068 110.268 84.8422C110.299 84.8856 110.289 84.9454 110.246 84.9769C110.23 84.9888 110.21 84.9954 110.192 84.9954H110.193Z" fill="#91B3FA"/>
</g>
<path d="M255.416 250.414C282.004 250.414 303.558 228.859 303.558 202.268C303.558 175.678 282.004 154.122 255.416 154.122C228.827 154.122 207.273 175.678 207.273 202.268C207.273 228.859 228.827 250.414 255.416 250.414Z" fill="#91B3FA"/>
<mask id="mask2_398_15" style="mask-type:luminance" maskUnits="userSpaceOnUse" x="209" y="156" width="93" height="93">
<path d="M255.383 248.147C280.699 248.147 301.221 227.623 301.221 202.305C301.221 176.988 280.699 156.464 255.383 156.464C230.067 156.464 209.545 176.988 209.545 202.305C209.545 227.623 230.067 248.147 255.383 248.147Z" fill="white"/>
</mask>
<g mask="url(#mask2_398_15)">
<path d="M312.821 260.006L201.83 263.63C201.16 263.651 200.595 263.121 200.573 262.452L196.574 139.93C196.552 139.259 197.082 138.695 197.751 138.672L308.742 135.048C309.412 135.027 309.977 135.557 310 136.226L313.999 258.748C314.02 259.419 313.491 259.983 312.821 260.006Z" fill="white"/>
<path d="M247.323 178.213C247.233 178.384 241.564 182.556 241.564 182.556C241.564 182.556 242.816 191.512 247.899 195.049C253.488 198.938 261.381 191.846 261.381 191.846C261.381 191.846 267.663 193.34 271.004 180.263C271.771 177.263 267.346 177.009 262.007 177.562C255.121 178.274 247.322 178.213 247.322 178.213H247.323Z" fill="url(#paint15_linear_398_15)"/>
<path d="M236.727 208.77C238.944 207.245 241.397 206.095 243.996 205.388C244.972 205.122 250.244 206.654 253.503 206.579C257.976 206.476 262.53 204.441 266.217 205.36C269.881 206.272 272.878 207.465 274.609 208.696C279.791 212.382 282.833 219.253 284.687 226.06C281.177 229.664 276.759 231.265 276.759 231.265L275.942 264.352L256.379 274.362L234.049 263.151L234.85 230.818C234.85 230.818 227.759 227.516 227.239 226.314C226.719 225.113 230.471 213.072 236.727 208.77Z" fill="url(#paint16_linear_398_15)"/>
<path d="M227.569 226.17C227.569 226.17 218.067 252.514 239.735 263.342C244.235 262.744 242.503 255.272 242.503 255.272C242.503 255.272 233.088 253.189 235.916 231.212C233.313 229.07 227.569 226.17 227.569 226.17Z" fill="url(#paint17_linear_398_15)"/>
<path d="M284.23 226.17C284.23 226.17 290.768 253.67 272.064 263.342C267.564 262.744 269.295 255.272 269.295 255.272C269.295 255.272 276.883 251.534 275.882 231.212C278.486 229.07 284.23 226.17 284.23 226.17Z" fill="url(#paint18_linear_398_15)"/>
<path d="M243.996 205.389C243.996 205.389 245.972 213.956 255.571 213.778C265.346 213.6 266.219 205.361 266.219 205.361L259.833 203.994L259.299 196.879L249.694 197.59L249.516 204.35L243.997 205.389H243.996Z" fill="url(#paint19_linear_398_15)"/>
<path d="M251.041 176.718C251.041 176.718 240.033 198.042 253.091 203.216C262.302 206.866 268.077 189.055 266.354 184.232C263.691 176.773 261.937 177.658 261.937 177.658L251.042 176.719L251.041 176.718Z" fill="url(#paint20_linear_398_15)"/>
<path d="M269.003 174.777C274.441 176.271 269.794 188.066 261.606 185.277C253.418 182.488 250.201 182.528 248.925 184.778C247.649 187.026 247.375 195.01 244.607 191.064C241.573 186.737 239.879 178.053 243.601 175.253C246.927 172.751 247.703 168.872 251.691 169.007C256.986 169.185 261.08 166.838 263.471 168.531C266.215 170.475 265.002 173.678 269.003 174.778V174.777Z" fill="url(#paint21_linear_398_15)"/>
<path d="M248.422 186.611C248.422 186.611 246.074 184.084 245.699 187.129C245.323 190.173 246.529 194.095 247.942 191.946C249.355 189.796 248.421 186.611 248.421 186.611H248.422Z" fill="url(#paint22_linear_398_15)"/>
</g>
<path d="M249.208 107.017C249.208 107.017 228.199 111.65 215.421 117.55C212.883 118.722 210.859 120.77 209.706 123.296C205.885 131.668 194.452 152.661 172.278 162.68C175.471 166.919 180.612 175.735 182.853 190.555C196.17 180.641 207.668 164.086 213.187 136.936C213.187 136.936 217.39 139.222 222.634 136.675C225.404 135.329 228.603 133.421 231.004 131.92C233.397 130.424 235.179 128.1 235.871 125.384C236.785 121.799 236.247 118.646 236.247 115.264L247.045 111.917C247.045 111.917 250.292 110.692 249.208 107.017Z" fill="url(#paint23_linear_398_15)"/>
<path d="M27.2285 275.8C30.3227 268.119 33.8937 261.943 36.9466 257.407C30.4617 246.468 28.5405 231.527 40.0484 212.07C48.4393 234.73 52.3763 267.793 53.1984 282.425C53.3527 285.17 52.5012 289.428 51.7388 292.583C51.1892 294.859 52.6445 297.141 54.9437 297.587C72.2186 300.932 88.8777 302.486 104.108 299.878C106.35 299.494 108.142 297.791 108.645 295.572C118.601 251.616 118.54 221.358 115.93 201.995C126.243 204.301 157.776 209.218 182.85 190.555C180.611 175.735 175.468 166.919 172.275 162.68C158.501 168.904 140.583 170.893 117.765 162.986C115.662 162.257 113.467 161.831 111.243 161.7C99.0965 160.988 59.0686 159.689 25.9481 170.632C18.9777 172.935 13.3313 178.088 10.4217 184.765C1.46171 205.328 -13.0437 252.157 27.2253 275.799L27.2285 275.8Z" fill="url(#paint24_linear_398_15)"/>
<path d="M115.977 203.244C115.523 203.244 115.128 202.907 115.067 202.445C112.478 182.887 107.206 174.352 107.153 174.268C106.882 173.839 107.01 173.271 107.439 172.999C107.865 172.73 108.433 172.855 108.706 173.284C108.932 173.638 114.241 182.185 116.889 202.205C116.956 202.708 116.602 203.171 116.099 203.237C116.058 203.243 116.017 203.245 115.977 203.245V203.244Z" fill="url(#paint25_linear_398_15)"/>
<path d="M60.0319 134.64C60.0319 134.64 57.7382 158.89 55.7192 166.063C55.4129 167.151 55.8853 168.298 56.8748 168.864C60.3024 170.822 68.5217 174.016 79.7646 168.505C81.5859 167.613 82.6807 165.714 82.596 163.705L81.6055 140.271L60.0319 134.64Z" fill="url(#paint26_linear_398_15)"/>
<path d="M82.0996 103.615C82.0996 103.615 89.4349 120.467 89.928 129.311C90.421 138.155 92.326 143.895 82.0996 145.676C71.8733 147.457 63.2586 142.362 58.5918 133.552C58.5918 133.552 51.2794 119.977 52.9193 114.417C54.5593 108.857 82.0996 103.615 82.0996 103.615Z" fill="url(#paint27_linear_398_15)"/>
<path d="M62.0857 127.218L62.6678 126.962C63.4085 126.635 63.7256 125.753 63.3542 125.034C61.9119 122.248 59.1012 115.863 62.733 114.373C67.4128 112.454 85.953 108.673 89.9529 102.093C93.7976 95.7705 90.3906 87.6082 85.272 85.2871C84.9299 85.1318 84.5259 85.2556 84.3499 85.588L83.9231 86.395C83.631 86.9478 82.8153 86.8642 82.6416 86.2636C82.4743 85.6868 81.7086 85.575 81.3904 86.0844C80.161 88.0524 76.8409 91.2435 67.9645 92.8814C55.3488 95.2101 47.0079 100.316 46.8005 109.034C46.7874 109.588 46.1977 109.896 45.7252 109.608C44.7934 109.04 43.3033 108.774 41.3104 110.449C37.8459 113.362 39.2632 120.92 46.8591 127.137C47.2197 127.432 47.2164 127.996 46.8265 128.25C45.4494 129.146 43.3967 131.28 48.7152 134.123C54.2161 137.064 58.3247 136.823 59.906 136.561C60.2991 136.496 60.5533 136.115 60.4675 135.726L58.7786 128.063C58.6831 127.63 59.0132 127.218 59.4574 127.218H62.0868H62.0857Z" fill="url(#paint28_linear_398_15)"/>
<path d="M62.4039 128.836C62.4039 128.836 59.6051 118.071 54.7797 121.09C49.9544 124.108 57.2842 133.151 61.1636 133.554L62.4039 128.836Z" fill="url(#paint29_linear_398_15)"/>
<path d="M218.79 134.432C218.587 134.432 218.381 134.364 218.211 134.225C217.817 133.906 217.757 133.326 218.079 132.932C218.873 131.954 225.924 123.334 228.64 121.8C229.628 121.242 230.217 120.665 230.342 120.133C230.402 119.879 230.362 119.593 230.219 119.267L221.936 120.928L217.242 124.955C216.858 125.286 216.276 125.243 215.946 124.856C215.615 124.471 215.659 123.891 216.045 123.559L220.92 119.375C221.04 119.272 221.183 119.202 221.338 119.171L230.509 117.334C230.877 117.26 231.245 117.414 231.453 117.721C232.125 118.719 232.348 119.646 232.133 120.555C231.879 121.629 231.033 122.561 229.546 123.402C227.503 124.556 221.606 131.511 219.507 134.094C219.326 134.318 219.061 134.433 218.794 134.433L218.79 134.432Z" fill="url(#paint30_linear_398_15)"/>
<path d="M62.0477 287.454L94.471 287.855L83.1238 277.173C80.3033 274.517 75.9981 274.087 72.7421 276.2C70.8361 277.436 68.7682 279.115 66.9773 281.337C66.9773 281.337 46.7516 273.945 36.9466 257.406C33.8926 261.943 30.3216 268.118 27.2285 275.799C36.018 280.959 47.4119 285.017 62.0477 287.453V287.454Z" fill="url(#paint31_linear_398_15)"/>
<path d="M65.5415 291.635C65.6045 291.638 65.6675 291.64 65.7305 291.64L148.033 291.55C150.068 291.548 151.715 289.915 151.713 287.902C151.711 285.888 150.053 284.224 148.025 284.26L65.7218 284.349C63.6876 284.352 62.0401 285.985 62.0422 287.998C62.0444 289.948 63.5942 291.54 65.5415 291.635Z" fill="url(#paint32_linear_398_15)"/>
<path d="M222.02 217.693H153.478C148.421 217.693 143.819 220.58 141.663 225.106L109.976 291.592H195.155C198.414 291.592 201.342 289.622 202.54 286.623L227.112 225.1C228.531 221.545 225.883 217.692 222.021 217.692L222.02 217.693Z" fill="url(#paint33_linear_398_15)"/>
<path d="M183.991 255.097C185.494 250.536 184.418 246.083 181.589 245.151C178.759 244.218 175.247 247.159 173.744 251.72C172.241 256.28 173.317 260.734 176.146 261.666C178.976 262.599 182.488 259.658 183.991 255.097Z" fill="#7D97F4"/>
<defs>
<linearGradient id="paint0_linear_398_15" x1="328.828" y1="308.856" x2="101.756" y2="110.181" gradientUnits="userSpaceOnUse">
<stop stop-color="#DAE3FE"/>
<stop offset="1" stop-color="#E9EFFD"/>
</linearGradient>
<linearGradient id="paint1_linear_398_15" x1="309.971" y1="43.445" x2="215.273" y2="163.547" gradientUnits="userSpaceOnUse">
<stop stop-color="#4042E2"/>
<stop offset="1" stop-color="#4F52FF"/>
</linearGradient>
<linearGradient id="paint2_linear_398_15" x1="253.625" y1="110.606" x2="244.062" y2="66.4708" gradientUnits="userSpaceOnUse">
<stop stop-color="#FEBBBA"/>
<stop offset="1" stop-color="#FF928E"/>
</linearGradient>
<linearGradient id="paint3_linear_398_15" x1="1315.77" y1="-975.405" x2="1332.79" y2="-992.081" gradientUnits="userSpaceOnUse">
<stop stop-color="#FEBBBA"/>
<stop offset="1" stop-color="#FF928E"/>
</linearGradient>
<linearGradient id="paint4_linear_398_15" x1="238.068" y1="66.0191" x2="258.564" y2="53.831" gradientUnits="userSpaceOnUse">
<stop stop-color="#09005D"/>
<stop offset="1" stop-color="#1A0F91"/>
</linearGradient>
<linearGradient id="paint5_linear_398_15" x1="1313.36" y1="-977.867" x2="1330.38" y2="-994.543" gradientUnits="userSpaceOnUse">
<stop stop-color="#FEBBBA"/>
<stop offset="1" stop-color="#FF928E"/>
</linearGradient>
<linearGradient id="paint6_linear_398_15" x1="299.593" y1="35.2656" x2="204.895" y2="155.366" gradientUnits="userSpaceOnUse">
<stop stop-color="#4042E2"/>
<stop offset="1" stop-color="#4F52FF"/>
</linearGradient>
<linearGradient id="paint7_linear_398_15" x1="328.592" y1="58.1285" x2="233.896" y2="178.229" gradientUnits="userSpaceOnUse">
<stop stop-color="#4042E2"/>
<stop offset="1" stop-color="#4F52FF"/>
</linearGradient>
<linearGradient id="paint8_linear_398_15" x1="162.135" y1="33.6415" x2="114.609" y2="104.411" gradientUnits="userSpaceOnUse">
<stop stop-color="#09005D"/>
<stop offset="1" stop-color="#1A0F91"/>
</linearGradient>
<linearGradient id="paint9_linear_398_15" x1="135.463" y1="87.5738" x2="170.655" y2="87.5738" gradientUnits="userSpaceOnUse">
<stop stop-color="#FE7062"/>
<stop offset="1" stop-color="#FF928E"/>
</linearGradient>
<linearGradient id="paint10_linear_398_15" x1="155.084" y1="87.4829" x2="151.228" y2="65.2399" gradientUnits="userSpaceOnUse">
<stop stop-color="#FEBBBA"/>
<stop offset="1" stop-color="#FF928E"/>
</linearGradient>
<linearGradient id="paint11_linear_398_15" x1="159.543" y1="60.4193" x2="140.764" y2="9.30511" gradientUnits="userSpaceOnUse">
<stop stop-color="#FEBBBA"/>
<stop offset="1" stop-color="#FF928E"/>
</linearGradient>
<linearGradient id="paint12_linear_398_15" x1="157.045" y1="25.3636" x2="107.403" y2="99.2823" gradientUnits="userSpaceOnUse">
<stop stop-color="#09005D"/>
<stop offset="1" stop-color="#1A0F91"/>
</linearGradient>
<linearGradient id="paint13_linear_398_15" x1="153.429" y1="62.6654" x2="134.65" y2="11.5512" gradientUnits="userSpaceOnUse">
<stop stop-color="#FEBBBA"/>
<stop offset="1" stop-color="#FF928E"/>
</linearGradient>
<linearGradient id="paint14_linear_398_15" x1="125.831" y1="93.6933" x2="146.957" y2="93.6933" gradientUnits="userSpaceOnUse">
<stop stop-color="#FE7062"/>
<stop offset="1" stop-color="#FF928E"/>
</linearGradient>
<linearGradient id="paint15_linear_398_15" x1="281.187" y1="147.619" x2="257.945" y2="180.649" gradientUnits="userSpaceOnUse">
<stop stop-color="#09005D"/>
<stop offset="1" stop-color="#1A0F91"/>
</linearGradient>
<linearGradient id="paint16_linear_398_15" x1="262.118" y1="197.025" x2="240.785" y2="296.328" gradientUnits="userSpaceOnUse">
<stop stop-color="#FE7062"/>
<stop offset="1" stop-color="#FF928E"/>
</linearGradient>
<linearGradient id="paint17_linear_398_15" x1="222.714" y1="219.087" x2="259.894" y2="308.893" gradientUnits="userSpaceOnUse">
<stop stop-color="#FEBBBA"/>
<stop offset="1" stop-color="#FF928E"/>
</linearGradient>
<linearGradient id="paint18_linear_398_15" x1="288.619" y1="218.894" x2="251.438" y2="308.699" gradientUnits="userSpaceOnUse">
<stop stop-color="#FEBBBA"/>
<stop offset="1" stop-color="#FF928E"/>
</linearGradient>
<linearGradient id="paint19_linear_398_15" x1="255.349" y1="226.502" x2="254.855" y2="183.462" gradientUnits="userSpaceOnUse">
<stop stop-color="#FEBBBA"/>
<stop offset="1" stop-color="#FF928E"/>
</linearGradient>
<linearGradient id="paint20_linear_398_15" x1="253.921" y1="202.596" x2="261.463" y2="165.878" gradientUnits="userSpaceOnUse">
<stop stop-color="#FEBBBA"/>
<stop offset="1" stop-color="#FF928E"/>
</linearGradient>
<linearGradient id="paint21_linear_398_15" x1="282.136" y1="142.591" x2="255.985" y2="179.757" gradientUnits="userSpaceOnUse">
<stop stop-color="#09005D"/>
<stop offset="1" stop-color="#1A0F91"/>
</linearGradient>
<linearGradient id="paint22_linear_398_15" x1="248.935" y1="207.484" x2="243.526" y2="148.992" gradientUnits="userSpaceOnUse">
<stop stop-color="#FEBBBA"/>
<stop offset="1" stop-color="#FF928E"/>
</linearGradient>
<linearGradient id="paint23_linear_398_15" x1="213.491" y1="132.755" x2="146.306" y2="220.154" gradientUnits="userSpaceOnUse">
<stop stop-color="#FEBBBA"/>
<stop offset="1" stop-color="#FF928E"/>
</linearGradient>
<linearGradient id="paint24_linear_398_15" x1="64.8519" y1="233.531" x2="-157.705" y2="497.284" gradientUnits="userSpaceOnUse">
<stop stop-color="#4042E2"/>
<stop offset="1" stop-color="#4F52FF"/>
</linearGradient>
<linearGradient id="paint25_linear_398_15" x1="226.068" y1="40.8188" x2="106.901" y2="194.549" gradientUnits="userSpaceOnUse">
<stop stop-color="#4042E2"/>
<stop offset="1" stop-color="#4F52FF"/>
</linearGradient>
<linearGradient id="paint26_linear_398_15" x1="63.7506" y1="189.244" x2="71.1009" y2="150.657" gradientUnits="userSpaceOnUse">
<stop stop-color="#FEBBBA"/>
<stop offset="1" stop-color="#FF928E"/>
</linearGradient>
<linearGradient id="paint27_linear_398_15" x1="83.6375" y1="118.449" x2="41.7015" y2="150.534" gradientUnits="userSpaceOnUse">
<stop stop-color="#FEBBBA"/>
<stop offset="1" stop-color="#FF928E"/>
</linearGradient>
<linearGradient id="paint28_linear_398_15" x1="54.1183" y1="93.0421" x2="93.1753" y2="143.325" gradientUnits="userSpaceOnUse">
<stop stop-color="#09005D"/>
<stop offset="1" stop-color="#1A0F91"/>
</linearGradient>
<linearGradient id="paint29_linear_398_15" x1="78.4364" y1="111.651" x2="36.5003" y2="143.736" gradientUnits="userSpaceOnUse">
<stop stop-color="#FEBBBA"/>
<stop offset="1" stop-color="#FF928E"/>
</linearGradient>
<linearGradient id="paint30_linear_398_15" x1="232.42" y1="54.1521" x2="223.226" y2="128.079" gradientUnits="userSpaceOnUse">
<stop stop-color="#FEBBBA"/>
<stop offset="1" stop-color="#FF928E"/>
</linearGradient>
<linearGradient id="paint31_linear_398_15" x1="19.3806" y1="260.4" x2="112.796" y2="302.323" gradientUnits="userSpaceOnUse">
<stop stop-color="#FEBBBA"/>
<stop offset="1" stop-color="#FF928E"/>
</linearGradient>
<linearGradient id="paint32_linear_398_15" x1="51.5806" y1="269.79" x2="116.911" y2="291.213" gradientUnits="userSpaceOnUse">
<stop stop-color="#09005D"/>
<stop offset="1" stop-color="#1A0F91"/>
</linearGradient>
<linearGradient id="paint33_linear_398_15" x1="141.501" y1="227.493" x2="188.274" y2="276.927" gradientUnits="userSpaceOnUse">
<stop stop-color="#09005D"/>
<stop offset="1" stop-color="#1A0F91"/>
</linearGradient>
</defs>
</svg>
