<svg width="245" height="238" viewBox="0 0 245 238" fill="none" xmlns="http://www.w3.org/2000/svg">
<path d="M125.847 0.054339C63.3619 -1.79016 9.23617 43.5395 1.05916 103.017C-7.88131 168.048 40.9912 229.076 101.878 235.933C236.657 251.11 250.241 180.154 243.682 106.996C238.74 51.878 189.365 1.92944 125.847 0.054339Z" fill="#F4F7FA"/>
<path d="M124.597 201.05C139.811 202.875 159.452 203.029 178.994 196.724C183.981 195.115 214.789 185.175 212.837 171.438C212.149 166.599 207.977 165.376 206.945 158.922C205.722 151.274 210.796 148.098 215.068 139.223C217.617 133.927 225.078 118.429 216.42 108.403C211.246 102.411 200.551 98.6438 191.972 99.6493C179.388 101.125 173.823 112.58 164.743 132.124C156.694 149.449 157.738 154.043 151.724 166.418C147.261 175.602 139.404 188.053 124.597 201.05Z" fill="url(#paint0_linear_150_3665)"/>
<mask id="mask0_150_3665" style="mask-type:luminance" maskUnits="userSpaceOnUse" x="124" y="99" width="97" height="104">
<path d="M124.597 201.05C139.811 202.875 159.452 203.029 178.994 196.724C183.981 195.115 214.789 185.175 212.837 171.438C212.149 166.599 207.977 165.376 206.945 158.922C205.722 151.274 210.796 148.098 215.068 139.223C217.617 133.927 225.078 118.429 216.42 108.403C211.246 102.411 200.551 98.6438 191.972 99.6493C179.388 101.125 173.823 112.58 164.743 132.124C156.694 149.449 157.738 154.043 151.724 166.418C147.261 175.602 139.404 188.053 124.597 201.05Z" fill="white"/>
</mask>
<g mask="url(#mask0_150_3665)">
<g style="mix-blend-mode:soft-light" opacity="0.5">
<path d="M122.419 201.655C117.48 203.216 112.419 204.32 107.243 204.966C91.3863 206.944 75.0918 204.72 58.8143 198.354L59.0999 197.624C75.255 203.941 91.4203 206.149 107.146 204.188C163.416 197.17 190.339 137.22 197.25 119.013C201.17 108.688 201.977 96.8554 199.65 83.8428L200.422 83.7051C202.774 96.8588 201.954 108.832 197.984 119.291C192.292 134.285 181.845 156.013 164.396 174.37C151.717 187.709 137.649 196.846 122.42 201.655H122.419Z" fill="white"/>
<path d="M183.5 148.617L183.311 148.32C183.164 148.088 168.688 124.978 177.499 102.295L178.23 102.579C170.103 123.502 182.135 144.829 183.789 147.598C218.349 130.273 220.741 106.291 220.647 99.3375C220.645 99.1445 220.646 99.0238 220.652 98.9805L221.43 99.068C221.428 99.1088 221.43 99.1955 221.431 99.3273C221.526 106.419 219.097 130.92 183.816 148.461L183.5 148.618V148.617Z" fill="white"/>
<path d="M201.228 174.526C193.013 177.121 180.78 178.531 164.3 174.173L164.098 174.119L164.03 173.921C163.963 173.726 157.369 154.047 162.154 128.85L166.975 103.464L167.745 103.61L162.925 128.996C158.436 152.632 164.034 171.356 164.707 173.47C184.03 178.534 197.397 175.584 205.217 172.21C213.691 168.553 217.623 163.648 217.662 163.6L218.277 164.085C218.114 164.292 214.182 169.195 205.527 172.93C204.242 173.484 202.809 174.028 201.228 174.527V174.526Z" fill="white"/>
</g>
</g>
<g style="mix-blend-mode:soft-light" opacity="0.3">
<path d="M144.621 194.455C137.328 185.954 127.958 172.417 125.01 154.394C121.144 130.758 131.722 120.175 134.892 81.2124C136.897 56.5768 138.047 39.3643 126.658 28.8541C117.732 20.6176 102.173 17.4828 91.9134 23.1047C83.3827 27.7788 77.5156 39.0541 75.2032 47.3059C73.3183 54.0311 73.6941 59.1039 69.3531 62.2829C64.9169 65.5316 60.7867 62.9714 56.7169 65.2919C48.4625 69.9992 50.9 88.8258 51.2945 91.8688C55.6771 125.716 83.6565 151.261 95.9959 162.257C106.198 171.349 122.164 183.722 144.623 194.455H144.621Z" fill="url(#paint1_linear_150_3665)"/>
<mask id="mask1_150_3665" style="mask-type:luminance" maskUnits="userSpaceOnUse" x="50" y="20" width="95" height="175">
<path d="M144.621 194.455C137.328 185.954 127.958 172.417 125.01 154.394C121.144 130.758 131.722 120.175 134.892 81.2124C136.897 56.5768 138.047 39.3643 126.658 28.8541C117.732 20.6176 102.173 17.4828 91.9134 23.1047C83.3827 27.7788 77.5156 39.0541 75.2032 47.3059C73.3183 54.0311 73.6941 59.1039 69.3531 62.2829C64.9169 65.5316 60.7867 62.9714 56.7169 65.2919C48.4625 69.9992 50.9 88.8258 51.2945 91.8688C55.6771 125.716 83.6565 151.261 95.9959 162.257C106.198 171.349 122.164 183.722 144.623 194.455H144.621Z" fill="white"/>
</mask>
<g mask="url(#mask1_150_3665)">
<path d="M153.136 201.759C139.543 194.833 128.037 187.08 118.935 178.717C105.445 166.32 97.6589 152.908 95.7945 138.855C94.3373 127.872 96.5639 116.407 99.3831 101.89C101.72 89.8595 104.459 81.5542 106.874 74.2263C109.995 64.759 112.461 57.2816 112.529 46.1041C112.599 34.7438 110.106 23.1668 105.117 11.6935L106.156 11.2422C111.208 22.8608 113.733 34.5917 113.663 46.1109C113.593 57.466 111.103 65.0183 107.95 74.5799C105.545 81.8755 102.819 90.1451 100.496 102.105C97.5867 117.083 95.4842 127.906 96.9176 138.706C98.7463 152.488 106.412 165.668 119.702 177.882C128.728 186.176 140.15 193.87 153.651 200.75L153.136 201.759V201.759Z" fill="white"/>
<path d="M101.435 93.8727L101.319 93.2437C97.176 70.655 86.9586 55.6958 79.1157 47.1244C70.6318 37.8518 63.0567 33.8738 62.981 33.8347L63.5022 32.8291C63.5795 32.8691 71.3332 36.9405 79.9514 46.3602C87.819 54.9588 98.0458 69.8984 102.313 92.3912C104.382 91.6381 111.455 88.788 118.889 82.6246C126.997 75.902 137.213 63.7402 139.834 43.9802L140.957 44.129C138.284 64.2748 127.854 76.6738 119.574 83.5273C110.603 90.9538 102.129 93.656 102.044 93.6823L101.434 93.8736L101.435 93.8727Z" fill="white"/>
<path d="M96.3046 126.38L95.9246 126.222C85.5362 121.908 74.7143 108.271 63.7615 85.6907C55.6321 68.9321 50.4621 53.2241 50.4103 53.0677L51.4875 52.7158C51.6898 53.3355 71.9402 114.484 95.9841 125.017C97.6003 123.172 106.163 113.578 116.478 105.446C121.32 101.629 128.906 98.7901 139.023 97.0085C146.53 95.6867 152.712 95.4742 152.774 95.4725L152.811 96.6047C152.568 96.6124 128.397 97.4938 117.181 106.336C105.858 115.262 96.6651 125.961 96.5732 126.068L96.3054 126.381L96.3046 126.38Z" fill="white"/>
<path d="M115.888 175.479L114.787 175.225C114.67 175.198 102.803 172.42 87.6991 165.242C73.7536 158.616 54.1026 146.773 39.681 127.984L11.8938 91.786L12.7925 91.0967L40.5797 127.295C54.8584 145.895 74.3343 157.635 88.159 164.207C100.528 170.088 110.701 172.994 113.953 173.848C109.266 162.194 111.721 150.354 121.087 139.536C128.329 131.173 137.255 126.295 137.344 126.247L137.883 127.243C137.796 127.291 129.029 132.085 121.924 140.301C112.465 151.238 110.281 162.725 115.433 174.446L115.887 175.48L115.888 175.479Z" fill="white"/>
</g>
</g>
<g style="mix-blend-mode:soft-light" opacity="0.3">
<path d="M119.226 147.448C103.829 151.283 83.6667 153.972 62.7744 150.012C57.4429 149.001 24.5054 142.758 24.74 128.391C24.8225 123.33 28.9518 121.536 29.1805 114.772C29.4517 106.756 23.8278 104.146 18.294 95.5771C14.9919 90.4644 5.32789 75.501 12.9319 64.0821C17.4761 57.2583 27.98 52.0095 36.9247 51.9373C50.0447 51.8319 57.2398 62.8844 69.0895 81.7969C79.5943 98.5615 79.1123 103.418 86.8872 115.357C92.6573 124.22 102.336 136.001 119.226 147.448Z" fill="#C1CAD4"/>
<mask id="mask2_150_3665" style="mask-type:luminance" maskUnits="userSpaceOnUse" x="10" y="51" width="110" height="101">
<path d="M119.226 147.448C103.829 151.283 83.6667 153.972 62.7744 150.012C57.4429 149.001 24.5054 142.758 24.74 128.391C24.8225 123.33 28.9518 121.536 29.1805 114.772C29.4517 106.756 23.8278 104.146 18.294 95.5771C14.9919 90.4644 5.32789 75.501 12.9319 64.0821C17.4761 57.2583 27.98 52.0095 36.9247 51.9373C50.0447 51.8319 57.2398 62.8844 69.0895 81.7969C79.5943 98.5615 79.1123 103.418 86.8872 115.357C92.6573 124.22 102.336 136.001 119.226 147.448Z" fill="white"/>
</mask>
<g mask="url(#mask2_150_3665)">
<path d="M137.502 149.527C115.4 149.527 94.2752 141.406 74.7075 125.387C54.3738 108.742 40.8152 87.7281 33.0216 73.0308C27.5685 62.7475 25.171 50.4998 25.8954 36.627L27.2897 36.7001C26.5781 50.3171 28.922 62.3208 34.2543 72.378C41.9884 86.9614 55.4374 107.809 75.5917 124.308C94.9026 140.116 115.733 148.131 137.504 148.131H137.563C153.925 148.12 170.205 143.78 185.946 135.229L186.612 136.455C170.664 145.117 154.161 149.515 137.564 149.526H137.503L137.502 149.527Z" fill="white"/>
<path d="M52.0919 101.524L51.5002 101.316C12.8239 87.7827 7.14132 62.7766 6.32089 55.4343C6.30729 55.3144 6.29879 55.2311 6.29114 55.1878L7.65057 54.8741C7.66247 54.9226 7.68288 55.0594 7.70753 55.2787C8.50075 62.3779 13.9946 86.4746 51.3531 99.7847C53.0118 95.9087 61.8868 73.1627 51.1635 53.3144L52.3912 52.6514C64.4399 74.952 52.4822 100.698 52.3606 100.956L52.0919 101.522V101.524Z" fill="white"/>
<path d="M46.7588 131.215C40.9155 131.215 36.1009 130.348 32.3601 129.262C22.9155 126.519 18.1919 121.937 17.9947 121.744L18.9741 120.75C19.02 120.795 23.6985 125.314 32.8362 127.948C41.2284 130.366 55.1959 131.643 74.1965 124.066C74.7109 121.187 77.7596 101.608 70.2747 78.4386L62.0484 52.9751L63.3763 52.5459L71.6027 78.0093C79.7907 103.355 75.5381 124.502 75.4948 124.713L75.4183 125.077L75.0722 125.217C63.9315 129.709 54.4537 131.214 46.7588 131.214V131.215Z" fill="white"/>
</g>
</g>
<path d="M241.859 203.869L5.67732 201.812V207.898C5.67732 209.549 6.70774 210.953 8.10288 211.204L74.8877 223.187C75.6801 223.329 76.4844 223.367 77.2836 223.299L239.293 209.637C240.739 209.515 241.859 208.106 241.859 206.409V203.869V203.869Z" fill="url(#paint2_linear_150_3665)"/>
<path d="M165.83 194.005L8.27716 205.137C5.45797 205.335 3.16589 203.219 3.16589 200.409V87.8009C3.16589 84.9899 5.45797 82.7119 8.27716 82.7119H165.83C168.152 82.7119 170.03 84.7715 170.03 87.3121V189.107C170.03 191.648 168.152 193.841 165.83 194.005Z" fill="url(#paint3_linear_150_3665)"/>
<path d="M168.342 194.005L10.7894 205.137C7.97024 205.335 5.67816 203.219 5.67816 200.409V87.8009C5.67816 84.9899 7.97024 82.7119 10.7894 82.7119H168.342C170.665 82.7119 172.543 84.7715 172.543 87.3121V189.107C172.543 191.648 170.665 193.841 168.342 194.005Z" fill="url(#paint4_linear_150_3665)"/>
<path d="M163.434 186.828L16.6897 196.498C14.395 196.649 12.5306 194.912 12.5306 192.618V94.0287C12.5306 91.7346 14.395 89.8663 16.6897 89.8569L163.434 89.25C165.35 89.2424 166.9 90.9296 166.9 93.0198V182.816C166.9 184.906 165.35 186.703 163.434 186.829V186.828Z" fill="#D8DEE8"/>
<path d="M164.411 193.5L5.67732 205.217L74.8877 217.635C75.6801 217.777 76.4844 217.815 77.2836 217.747L241.859 203.869L166.935 193.58C166.097 193.465 165.251 193.438 164.41 193.5H164.411Z" fill="url(#paint5_linear_150_3665)"/>
<path style="mix-blend-mode:multiply" opacity="0.3" d="M28.8396 205.512L160.99 195.611L201.888 201.183L70.8766 211.766L28.8396 205.512Z" fill="url(#paint6_linear_150_3665)"/>
<g style="mix-blend-mode:soft-light" opacity="0.48">
<path d="M130.382 163.12C118.237 156.586 108.686 164.865 99.4698 156.697C93.8824 151.745 96.6251 148.051 89.7497 140.651C82.1347 132.455 77.1764 135.209 69.5231 127.832C59.8464 118.504 64.6856 111.247 56.3505 104.55C46.2385 96.4257 35.3332 103.946 25.7067 96.1537C21.5552 92.7928 19.2768 87.907 18.0874 82.7109H8.66825C7.01805 82.7109 5.67732 84.048 5.67732 85.6978V202.426C5.67732 204.076 7.0172 205.318 8.66825 205.201L169.24 193.806C170.029 193.75 170.727 193.29 171.175 192.624C159.421 192.195 152.2 188.255 147.584 184.183C138.553 176.216 140.12 168.359 130.382 163.121V163.12Z" fill="white"/>
</g>
<path opacity="0.5" d="M97.5331 173.53C91.2443 173.643 84.9802 172.192 79.4285 169.316C73.4348 166.216 68.4145 161.569 64.9339 155.878C61.5612 150.361 59.7724 144.032 59.7724 137.595C59.7724 117.405 76.9265 101.427 97.5331 101.963C117.63 102.487 133.615 118.599 133.615 137.892C133.615 157.185 117.63 173.169 97.5331 173.531V173.53Z" fill="white"/>
<path d="M130.494 137.879C130.494 155.53 115.902 170.075 97.5322 170.37C91.5869 170.465 85.9639 169.06 81.0447 166.502C75.59 163.668 71.0186 159.419 67.8627 154.245C64.8871 149.367 63.1765 143.68 63.1765 137.608C63.1765 119.21 78.7373 104.669 97.5322 105.122C115.902 105.564 130.494 120.227 130.494 137.878V137.879Z" fill="white"/>
<path d="M118.602 132.65L118.593 142.025C118.589 142.924 118.228 143.781 117.579 144.414L109.413 152.42C108.755 153.063 107.861 153.43 106.931 153.428H94.5719C94.5719 153.428 86.0838 161.622 81.0456 166.502C75.5909 163.668 71.0194 159.419 67.8636 154.245C72.9494 149.364 81.6577 140.978 81.6577 140.978L81.6076 128.825C81.6042 127.902 81.9859 127.019 82.6669 126.376L91.1015 118.376C91.7714 117.742 92.6769 117.396 93.6163 117.412L103.403 117.579C104.211 117.593 104.941 118.08 105.251 118.811C105.558 119.545 105.386 120.379 104.816 120.927L95.491 129.86C94.6612 130.653 94.6578 131.958 95.4876 132.767L98.8254 136.03L99.7453 136.928L103.066 140.176C103.887 140.978 105.219 140.98 106.038 140.184L115.243 131.254C115.807 130.706 116.654 130.548 117.392 130.853C118.126 131.159 118.606 131.867 118.603 132.65L118.602 132.65Z" fill="url(#paint7_linear_150_3665)"/>
<path d="M83.3912 176.987C85.9486 175.57 85.1996 167.527 81.7308 161.876C76.8041 153.852 66.0077 150.022 63.7938 152.412C61.5289 154.857 68.0489 164.038 69.1083 165.53C72.9511 170.94 80.3663 178.663 83.3912 176.987Z" fill="url(#paint8_linear_150_3665)"/>
<path d="M106.521 228.243C106.043 228.77 105.935 229.741 106.35 230.22C106.758 230.69 107.372 230.337 109.113 230.389C110.978 230.445 111.465 230.884 112.732 230.535C113.244 230.394 114.148 230.05 114.13 229.685C114.118 229.428 113.658 229.296 112.12 228.781C109.938 228.05 109.948 228.01 109.485 227.933C108.321 227.74 107.152 227.546 106.521 228.242V228.243Z" fill="url(#paint9_linear_150_3665)"/>
<path d="M107.717 225.203L108.652 228.313C108.581 228.48 107.631 229.037 106.814 228.684L105.425 225.666L107.717 225.203Z" fill="url(#paint10_linear_150_3665)"/>
<path d="M94.6961 230.977C94.2183 231.504 94.1094 232.476 94.5252 232.954C94.9332 233.424 95.5471 233.071 97.2882 233.123C99.1527 233.179 99.6398 233.618 100.907 233.269C101.418 233.128 102.323 232.785 102.305 232.419C102.293 232.162 101.832 232.03 100.295 231.515C98.1129 230.784 98.1231 230.744 97.6598 230.667C96.4959 230.474 95.3269 230.281 94.6969 230.977L94.6961 230.977Z" fill="url(#paint11_linear_150_3665)"/>
<path d="M95.8905 227.937L96.8257 231.047C96.7552 231.213 95.8047 231.77 94.9885 231.417L93.5993 228.399L95.8905 227.937Z" fill="url(#paint12_linear_150_3665)"/>
<path d="M43.2824 152.931C46.2495 151.921 50.7835 150.746 56.3692 150.746C62.6571 150.746 67.7072 150.747 71.1937 153.719C79.6564 160.93 70.1846 178.203 75.0365 190.994C75.5679 192.394 77.1144 196.837 75.7694 201.627C75.5211 202.51 75.011 203.275 74.1379 204.571C69.0122 212.174 54.6136 212.797 48.0179 206.205C44.5322 202.721 41.3976 203.359 41.3142 199.384C40.9835 183.692 43.4184 168.039 43.2824 152.931Z" fill="url(#paint13_linear_150_3665)"/>
<path style="mix-blend-mode:multiply" opacity="0.4" d="M46.9322 171.82C45.7334 168.539 46.9755 164.783 44.3026 163.143C43.3232 162.542 42.1057 162.288 40.7803 162.317C40.9393 173.85 41.1663 185.372 41.4468 197.409C41.5395 201.384 42.0369 201.582 45.8916 205.065C50.3576 209.102 58.0542 210.42 64.655 209.099C56.0095 203.783 49.8415 198.277 50.7248 193.558C51.7535 188.061 61.8214 186.438 61.4167 182.53C60.9873 178.388 49.5533 178.993 46.933 171.82H46.9322Z" fill="url(#paint14_linear_150_3665)"/>
<path d="M46.0319 153.287C43.1251 151.325 36.123 156.273 32.2411 160.627C30.437 162.651 24.1551 169.699 25.716 179.164C25.9702 180.707 27.1409 187.919 33.3166 191.452C38.8462 194.616 46.3116 193.801 52.2943 189.322C53.1113 188.597 53.9292 187.872 54.747 187.146C55.5513 186.277 56.3556 185.408 57.1598 184.538C55.8956 183.487 53.7472 181.97 50.7308 180.997C46.1339 179.514 43.1115 181.714 42.0122 180.266C40.6587 178.483 44.7795 175.16 45.861 167.601C46.1526 165.561 49.2795 155.477 46.0336 153.286L46.0319 153.287Z" fill="url(#paint15_linear_150_3665)"/>
<path d="M50.7997 202.646C48.8791 208.895 52.4354 206.355 59.6781 202.787C67.3059 199.03 83.9795 193.634 91.1644 200.702C96.5154 205.966 92.7304 214.289 101.009 223.449C102.467 225.062 103.849 226.189 104.713 226.844C106.205 226.227 107.697 225.61 109.189 224.993C109.775 221.575 111.618 208.4 103.324 196.6C101.319 193.747 97.505 188.27 90.9774 185.953C73.3302 179.688 52.5723 196.883 50.8005 202.646H50.7997Z" fill="url(#paint16_linear_150_3665)"/>
<path d="M43.7576 196.816C42.5138 200.405 43.6335 204.531 45.6654 207.093C50.1756 212.782 60.3004 212.184 66.6249 210.083C74.3198 207.527 76.0389 202.87 79.0647 204.015C83.767 205.794 80.4216 217.371 88.9089 226.763C90.3669 228.376 91.7493 229.504 92.6131 230.158C94.1052 229.541 95.5972 228.924 97.0893 228.306C98.2158 220.347 97.3928 213.971 96.535 209.898C95.5513 205.228 94.6697 201.043 91.3778 197.008C87.2884 191.995 81.9442 190.234 78.8776 189.267C65.9048 185.177 46.9892 187.491 43.7585 196.817L43.7576 196.816Z" fill="url(#paint17_linear_150_3665)"/>
<path d="M85.8211 187.112L50.7997 186.589L60.1125 191.082L85.9112 189.394L85.8211 187.112Z" fill="url(#paint18_linear_150_3665)"/>
<path d="M49.5635 187.519C49.5635 188.174 49.9741 188.76 50.5897 188.983L61.7806 193.369L61.8316 190.328L50.7997 186.588C50.1807 186.41 49.5635 186.874 49.5635 187.519Z" fill="url(#paint19_linear_150_3665)"/>
<path d="M54.5634 186.114C54.3483 186.066 55.6108 183.552 56.6013 183.842C57.5917 184.131 62.4377 186.94 62.8781 188.096L63.3185 189.252C63.3185 189.252 61.205 189.417 59.894 188.976C58.583 188.536 56.3114 186.503 54.5634 186.114Z" fill="url(#paint20_linear_150_3665)"/>
<path d="M62.76 168.993L60.2911 191.465C60.206 192.24 61.2917 193.395 62.0713 193.359L98.2855 191.136C98.8806 191.108 99.3763 190.67 99.4766 190.083L104.022 168.379C104.158 167.589 102.737 166.773 101.936 166.795L63.9859 167.862C63.3525 167.88 62.8288 168.363 62.76 168.993Z" fill="url(#paint21_linear_150_3665)"/>
<path d="M63.588 169.648L61.1191 192.12C61.0341 192.895 61.6624 193.564 62.4411 193.527L99.1136 191.791C99.7087 191.763 100.204 191.325 100.305 190.738L104.051 168.935C104.187 168.145 103.566 167.429 102.764 167.451L64.814 168.517C64.1806 168.535 63.6569 169.018 63.588 169.648Z" fill="url(#paint22_linear_150_3665)"/>
<path style="mix-blend-mode:multiply" opacity="0.3" d="M85.1222 186.526C81.9204 185.169 83.0503 182.581 79.2687 179.357C74.2807 175.104 69.1958 176.948 67.4155 173.651C66.8612 172.624 66.5968 171.026 67.5618 168.44L64.814 168.518C64.1806 168.536 63.6569 169.018 63.588 169.648L61.1191 192.121C61.0341 192.896 61.6624 193.564 62.4411 193.527L99.1136 191.792C99.7087 191.764 100.204 191.326 100.305 190.738L100.822 187.729C99.7087 187.111 98.379 186.547 96.8274 186.233C91.4475 185.141 88.8077 188.087 85.1213 186.525L85.1222 186.526Z" fill="url(#paint23_linear_150_3665)"/>
<path d="M56.9558 142.158C56.9753 144.489 56.7152 146.338 56.4695 147.603C56.1881 149.053 55.9849 149.428 55.7256 149.733C55.3354 150.191 54.7445 150.574 51.4041 151.402C49.5865 151.852 49.3527 151.841 49.3118 152.021C49.1163 152.901 54.0728 155.899 59.1935 155.177C62.3272 154.735 65.1796 152.946 65.0044 152.008C64.8284 151.063 61.6972 151.57 60.7646 149.861C60.1159 148.672 60.8428 146.984 61.7032 145.585C60.87 144.025 57.789 143.719 56.9558 142.158Z" fill="url(#paint24_linear_150_3665)"/>
<path d="M63.5328 145.121C64.496 144.357 64.973 142.709 64.4212 141.445C63.9468 140.358 62.8637 139.938 62.215 139.686C60.3353 138.958 57.6802 139.13 56.3649 140.692C55.5862 141.618 56.1039 144.096 56.1719 144.536C56.2493 145.032 56.5596 145.277 56.796 145.698C57.1233 146.283 57.6326 147.211 58.4564 148.754C58.6409 148.41 58.8951 147.991 59.2394 147.554C59.372 147.386 59.8974 146.732 60.5623 146.249C61.8928 145.281 62.6197 145.845 63.5336 145.121H63.5328Z" fill="url(#paint25_linear_150_3665)"/>
<path d="M57.091 147.282C57.091 147.282 57.8204 149.702 60.3999 150.198C62.709 150.642 64.3677 145.637 63.1987 144.179C62.8084 143.693 61.8783 143.291 61.0333 143.306C60.5342 143.315 60.3259 143.468 59.5097 143.467C58.7565 143.467 58.5779 143.336 58.3186 143.46C57.9939 143.615 57.6555 144.114 57.7125 145.718C57.3936 145.166 56.9175 144.862 56.5035 144.941C56.4372 144.953 56.2544 145.019 56.1243 145.157C55.655 145.655 55.9934 146.536 57.091 147.282V147.282Z" fill="url(#paint26_linear_150_3665)"/>
<path d="M58.2948 143.129C58.3832 143.239 57.942 143.561 57.766 144.132C57.4251 145.241 58.2107 146.884 59.3397 147.301C60.0071 147.546 60.3029 147.182 61.4668 147.358C62.1878 147.466 62.7481 147.707 63.0941 147.883C63.1298 149.206 62.4751 150.346 61.5034 150.701C60.4577 151.084 59.423 150.418 58.9903 150.139C58.7012 149.953 57.7728 149.357 57.4854 148.289C57.1853 147.177 57.8799 146.734 57.4166 145.913C57.1836 145.499 56.8011 145.246 56.5588 144.5C56.4933 144.297 56.4593 144.124 56.4406 144.009C57.1879 143.54 58.1656 142.968 58.2931 143.128L58.2948 143.129Z" fill="url(#paint27_linear_150_3665)"/>
<path d="M62.1521 148.125C62.1521 148.125 61.5952 148.254 60.7595 147.986C60.7187 147.972 60.6702 147.973 60.6592 147.993C60.6184 148.068 61.069 148.57 61.6063 148.56C61.988 148.552 62.3527 148.288 62.3272 148.19C62.3162 148.148 62.2346 148.132 62.1521 148.126V148.125Z" fill="url(#paint28_linear_150_3665)"/>
<path d="M214.088 61.6207C214.088 81.7597 198.337 97.602 178.206 96.9841C157.255 96.3406 139.635 78.2501 139.635 56.6023C139.635 34.9545 157.255 19.2388 178.206 21.4199C198.337 23.516 214.088 41.4816 214.088 61.6207Z" fill="url(#paint29_linear_150_3665)"/>
<path d="M219.528 59.8843C219.528 80.0234 203.777 95.8657 183.646 95.2478C162.695 94.6043 145.075 76.5137 145.075 54.8659C145.075 33.2181 162.695 17.5025 183.646 19.6836C203.777 21.7797 219.528 39.7453 219.528 59.8843Z" fill="url(#paint30_linear_150_3665)"/>
<path d="M217.948 59.778C217.948 79.0305 202.877 94.1494 183.646 93.5272C163.668 92.8804 146.894 75.616 146.894 54.9891C146.894 34.3621 163.668 19.3588 183.646 21.4056C202.878 23.3759 217.948 40.5263 217.948 59.7788V59.778Z" fill="url(#paint31_linear_150_3665)"/>
<path opacity="0.53" d="M216.283 59.6662C216.283 76.5718 204.065 90.1149 187.813 91.6321C186.447 91.7605 185.048 91.803 183.631 91.7562C164.647 91.1187 148.727 74.7027 148.727 55.1136C148.727 38.0787 160.764 25.0686 176.389 23.2284C178.73 22.9521 181.157 22.9241 183.631 23.1757C201.925 25.0261 216.284 41.3376 216.284 59.6662H216.283Z" fill="white"/>
<path d="M187.813 91.6323C186.447 91.7606 185.048 91.8031 183.631 91.7564C164.647 91.1189 148.727 74.7028 148.727 55.1137C148.727 38.0789 160.764 25.0688 176.389 23.2285C181.666 27.3476 186.39 32.6185 187.203 38.8643C188.53 49.0439 178.358 53.7299 177.236 64.7944C176.312 73.9225 180.685 84.0928 187.813 91.6331V91.6323Z" fill="url(#paint32_linear_150_3665)"/>
<path d="M192.078 66.4193L190.208 66.0538C190.216 65.1927 190.151 64.3308 190.011 63.4791L191.813 62.851C192.298 62.6818 192.554 62.1438 192.384 61.6508L191.319 58.5576C191.148 58.0621 190.615 57.7977 190.128 57.9669L188.318 58.595C187.904 57.8453 187.417 57.1271 186.867 56.4445L188.123 54.9723C188.46 54.5771 188.415 53.9753 188.022 53.6285L185.557 51.4542C185.162 51.1057 184.567 51.1448 184.229 51.5409L182.97 53.0173C182.221 52.5583 181.445 52.169 180.647 51.8545L180.999 49.9301C181.094 49.4116 180.754 48.9059 180.241 48.8013L177.021 48.146C176.505 48.0414 176.01 48.378 175.916 48.8982L175.567 50.8252C174.699 50.8039 173.832 50.8592 172.976 50.9892L172.32 49.1286C172.142 48.6245 171.596 48.3534 171.101 48.5234L167.997 49.5859C167.499 49.7559 167.243 50.3024 167.421 50.8065L168.077 52.6493C167.323 53.0666 166.603 53.5571 165.921 54.1147L164.443 52.8329C164.038 52.4818 163.433 52.5209 163.092 52.9213L160.959 55.422C160.618 55.8215 160.671 56.4301 161.076 56.7794L162.547 58.0468C162.096 58.8101 161.718 59.6031 161.417 60.4174L159.537 60.0494C159.015 59.9474 158.517 60.2865 158.425 60.8067L157.851 64.0563C157.759 64.5756 158.107 65.078 158.629 65.1783L160.498 65.5395C160.496 66.4227 160.572 67.3041 160.723 68.1754L158.947 68.7925C158.45 68.965 158.194 69.5082 158.374 70.0054L159.504 73.1105C159.684 73.606 160.232 73.8678 160.728 73.6953L162.486 73.0816C162.92 73.8415 163.428 74.5682 164.001 75.255L162.796 76.6669C162.458 77.063 162.51 77.6605 162.912 78.0014L165.419 80.1264C165.819 80.4655 166.416 80.4196 166.754 80.0244L167.954 78.6168C168.72 79.069 169.513 79.4498 170.325 79.7524L169.996 81.568C169.904 82.0788 170.245 82.5693 170.756 82.6645L173.954 83.2578C174.464 83.3521 174.953 83.0164 175.046 82.5072L175.38 80.6831C176.248 80.6908 177.114 80.6236 177.968 80.48L178.59 82.2318C178.763 82.7197 179.298 82.9747 179.785 82.803L182.825 81.7278C183.31 81.5561 183.564 81.0223 183.393 80.5344L182.772 78.7749C183.512 78.355 184.219 77.8637 184.888 77.3069L186.307 78.5301C186.697 78.8667 187.285 78.8216 187.619 78.4298L189.709 75.9792C190.043 75.5874 189.999 74.9958 189.61 74.6583L188.183 73.4207C188.622 72.6719 188.993 71.8958 189.289 71.0977L191.137 71.4547C191.641 71.5524 192.127 71.2184 192.222 70.7092L192.818 67.5217C192.914 67.0117 192.582 66.5179 192.077 66.4184L192.078 66.4193ZM182.68 72.0862C179.289 76.0617 173.298 76.5122 169.277 73.0739C165.232 69.6144 164.713 63.5361 168.142 59.5173C171.571 55.4985 177.616 55.0947 181.624 58.5984C185.608 62.0809 186.071 68.1108 182.68 72.0871V72.0862Z" fill="white"/>
<path d="M204.007 41.4056L202.966 41.1999C202.959 40.7341 202.911 40.2675 202.822 39.8059L203.81 39.4727C204.077 39.3826 204.212 39.0928 204.111 38.825L203.478 37.1488C203.377 36.8802 203.078 36.7357 202.811 36.825L201.818 37.1582C201.578 36.7519 201.299 36.3617 200.986 35.9911L201.66 35.2006C201.841 34.9881 201.808 34.6634 201.586 34.4747L200.195 33.2932C199.972 33.1037 199.644 33.1232 199.463 33.3357L198.787 34.1279C198.367 33.878 197.933 33.6655 197.488 33.4938L197.657 32.4577C197.702 32.178 197.508 31.9052 197.223 31.8465L195.439 31.4844C195.153 31.4266 194.884 31.6068 194.839 31.8865L194.672 32.9235C194.193 32.909 193.716 32.9362 193.246 33.0034L192.861 31.9995C192.756 31.7275 192.453 31.5805 192.182 31.6697L190.486 32.2324C190.215 32.3225 190.08 32.6158 190.185 32.8878L190.569 33.8823C190.159 34.1041 189.769 34.3668 189.401 34.6643L188.572 33.969C188.345 33.7786 188.013 33.7981 187.83 34.0123L186.688 35.3511C186.505 35.5653 186.542 35.8925 186.769 36.0829L187.592 36.7706C187.354 37.1803 187.155 37.6061 187 38.0439L185.962 37.839C185.674 37.7821 185.404 37.9631 185.36 38.2428L185.083 39.9921C185.038 40.2717 185.236 40.5437 185.524 40.5998L186.557 40.8021C186.566 41.2781 186.619 41.755 186.712 42.225L185.742 42.5506C185.47 42.6415 185.336 42.9339 185.441 43.2034L186.1 44.8855C186.206 45.1541 186.51 45.2978 186.781 45.2068L187.741 44.883C187.989 45.2961 188.279 45.6905 188.602 46.0645L187.956 46.8227C187.774 47.0352 187.811 47.359 188.036 47.5452L189.445 48.7071C189.67 48.8924 189.999 48.8703 190.18 48.6587L190.826 47.9022C191.254 48.1504 191.696 48.3603 192.149 48.5286L191.99 49.5104C191.944 49.7866 192.139 50.0544 192.423 50.1079L194.197 50.4454C194.481 50.4998 194.747 50.3196 194.792 50.0442L194.952 49.0573C195.433 49.0658 195.911 49.0335 196.381 48.9596L196.748 49.9124C196.85 50.1776 197.15 50.3187 197.417 50.2278L199.086 49.66C199.353 49.569 199.486 49.2809 199.384 49.0157L199.017 48.0586C199.421 47.8342 199.806 47.5715 200.169 47.2732L200.972 47.943C201.193 48.1274 201.517 48.1062 201.698 47.8945L202.823 46.5753C203.004 46.3645 202.97 46.0432 202.75 45.8588L201.943 45.1813C202.176 44.7776 202.37 44.3585 202.523 43.9276L203.553 44.129C203.833 44.1843 204.099 44.0049 204.145 43.7295L204.431 42.0049C204.477 41.7286 204.287 41.46 204.005 41.4048L204.007 41.4056ZM198.879 44.435C197.056 46.5728 193.75 46.7895 191.487 44.9102C189.214 43.0232 188.853 39.7396 190.691 37.5849C192.529 35.4293 195.858 35.2329 198.117 37.1369C200.366 39.0333 200.702 42.2973 198.879 44.435Z" fill="white"/>
<defs>
<linearGradient id="paint0_linear_150_3665" x1="202.128" y1="98.1482" x2="166.657" y2="193.38" gradientUnits="userSpaceOnUse">
<stop stop-color="#44B0FF"/>
<stop offset="1" stop-color="#7F56F3"/>
</linearGradient>
<linearGradient id="paint1_linear_150_3665" x1="142.643" y1="4.89512" x2="61.8159" y2="238.916" gradientUnits="userSpaceOnUse">
<stop stop-color="#FF9085"/>
<stop offset="1" stop-color="#FB6FBB"/>
</linearGradient>
<linearGradient id="paint2_linear_150_3665" x1="105.44" y1="212.946" x2="88.8496" y2="219.915" gradientUnits="userSpaceOnUse">
<stop stop-color="#40447E"/>
<stop offset="1" stop-color="#3C3B6B"/>
</linearGradient>
<linearGradient id="paint3_linear_150_3665" x1="83.2858" y1="139.838" x2="65.281" y2="147.401" gradientUnits="userSpaceOnUse">
<stop stop-color="#40447E"/>
<stop offset="1" stop-color="#3C3B6B"/>
</linearGradient>
<linearGradient id="paint4_linear_150_3665" x1="5.67731" y1="143.931" x2="172.543" y2="143.931" gradientUnits="userSpaceOnUse">
<stop stop-color="#40447E"/>
<stop offset="1" stop-color="#3C3B6B"/>
</linearGradient>
<linearGradient id="paint5_linear_150_3665" x1="5.67732" y1="205.624" x2="241.859" y2="205.624" gradientUnits="userSpaceOnUse">
<stop stop-color="#E4120E"/>
<stop offset="0.739583" stop-color="#E4120E"/>
<stop offset="1" stop-color="#7C1210"/>
</linearGradient>
<linearGradient id="paint6_linear_150_3665" x1="28.8396" y1="203.689" x2="201.888" y2="203.689" gradientUnits="userSpaceOnUse">
<stop stop-color="#E4120E"/>
<stop offset="1" stop-color="#E4120E"/>
</linearGradient>
<linearGradient id="paint7_linear_150_3665" x1="106.616" y1="120.347" x2="63.7047" y2="210.647" gradientUnits="userSpaceOnUse">
<stop stop-color="#444B8C"/>
<stop offset="1" stop-color="#26264F"/>
</linearGradient>
<linearGradient id="paint8_linear_150_3665" x1="74.7279" y1="152.649" x2="71.6329" y2="206.915" gradientUnits="userSpaceOnUse">
<stop stop-color="#80CDF9"/>
<stop offset="1" stop-color="#6165D7"/>
</linearGradient>
<linearGradient id="paint9_linear_150_3665" x1="113.701" y1="228.161" x2="106.237" y2="230.214" gradientUnits="userSpaceOnUse">
<stop stop-color="#444B8C"/>
<stop offset="1" stop-color="#26264F"/>
</linearGradient>
<linearGradient id="paint10_linear_150_3665" x1="109.073" y1="229.353" x2="104.537" y2="223.376" gradientUnits="userSpaceOnUse">
<stop stop-color="#FFC444"/>
<stop offset="1" stop-color="#F36F56"/>
</linearGradient>
<linearGradient id="paint11_linear_150_3665" x1="101.875" y1="230.894" x2="94.4104" y2="232.947" gradientUnits="userSpaceOnUse">
<stop stop-color="#444B8C"/>
<stop offset="1" stop-color="#26264F"/>
</linearGradient>
<linearGradient id="paint12_linear_150_3665" x1="97.2458" y1="232.085" x2="92.7111" y2="226.108" gradientUnits="userSpaceOnUse">
<stop stop-color="#FFC444"/>
<stop offset="1" stop-color="#F36F56"/>
</linearGradient>
<linearGradient id="paint13_linear_150_3665" x1="61.1421" y1="151.873" x2="58.047" y2="206.14" gradientUnits="userSpaceOnUse">
<stop stop-color="#80DCF9"/>
<stop offset="1" stop-color="#61ADD7"/>
</linearGradient>
<linearGradient id="paint14_linear_150_3665" x1="45.469" y1="194.884" x2="64.1452" y2="171.231" gradientUnits="userSpaceOnUse">
<stop stop-color="#AA80F9"/>
<stop offset="1" stop-color="#6165D7"/>
</linearGradient>
<linearGradient id="paint15_linear_150_3665" x1="42.9831" y1="150.837" x2="39.8872" y2="205.105" gradientUnits="userSpaceOnUse">
<stop stop-color="#80D5F9"/>
<stop offset="1" stop-color="#6197D7"/>
</linearGradient>
<linearGradient id="paint16_linear_150_3665" x1="72.2233" y1="223.296" x2="98.2244" y2="190.366" gradientUnits="userSpaceOnUse">
<stop stop-color="#DFFF85"/>
<stop offset="1" stop-color="#D7FB6F"/>
</linearGradient>
<linearGradient id="paint17_linear_150_3665" x1="87.7093" y1="192.886" x2="57.5426" y2="226.309" gradientUnits="userSpaceOnUse">
<stop stop-color="#96FF85"/>
<stop offset="1" stop-color="#19A942"/>
</linearGradient>
<linearGradient id="paint18_linear_150_3665" x1="73.513" y1="201.587" x2="69.2782" y2="189.585" gradientUnits="userSpaceOnUse">
<stop stop-color="#311944"/>
<stop offset="1" stop-color="#893976"/>
</linearGradient>
<linearGradient id="paint19_linear_150_3665" x1="55.0055" y1="184.2" x2="56.5581" y2="194.93" gradientUnits="userSpaceOnUse">
<stop stop-color="#311944"/>
<stop offset="1" stop-color="#893976"/>
</linearGradient>
<linearGradient id="paint20_linear_150_3665" x1="54.5396" y1="186.551" x2="63.3185" y2="186.551" gradientUnits="userSpaceOnUse">
<stop stop-color="#FFC444"/>
<stop offset="1" stop-color="#F36F56"/>
</linearGradient>
<linearGradient id="paint21_linear_150_3665" x1="85.7853" y1="185.139" x2="77.5273" y2="173.411" gradientUnits="userSpaceOnUse">
<stop stop-color="#444B8C"/>
<stop offset="1" stop-color="#26264F"/>
</linearGradient>
<linearGradient id="paint22_linear_150_3665" x1="69.9414" y1="204.546" x2="88.0118" y2="167.834" gradientUnits="userSpaceOnUse">
<stop stop-color="#311944"/>
<stop offset="1" stop-color="#893976"/>
</linearGradient>
<linearGradient id="paint23_linear_150_3665" x1="61.1115" y1="180.985" x2="100.822" y2="180.985" gradientUnits="userSpaceOnUse">
<stop stop-color="#311944"/>
<stop offset="1" stop-color="#893976"/>
</linearGradient>
<linearGradient id="paint24_linear_150_3665" x1="53.2337" y1="160.327" x2="63.321" y2="139.316" gradientUnits="userSpaceOnUse">
<stop stop-color="#FFC444"/>
<stop offset="1" stop-color="#F36F56"/>
</linearGradient>
<linearGradient id="paint25_linear_150_3665" x1="52.3421" y1="153.486" x2="61.825" y2="140.374" gradientUnits="userSpaceOnUse">
<stop stop-color="#311944"/>
<stop offset="1" stop-color="#6B3976"/>
</linearGradient>
<linearGradient id="paint26_linear_150_3665" x1="60.0717" y1="144.272" x2="55.6587" y2="165.79" gradientUnits="userSpaceOnUse">
<stop stop-color="#FFC444"/>
<stop offset="1" stop-color="#F36F56"/>
</linearGradient>
<linearGradient id="paint27_linear_150_3665" x1="53.9178" y1="154.634" x2="63.41" y2="141.51" gradientUnits="userSpaceOnUse">
<stop stop-color="#311944"/>
<stop offset="1" stop-color="#6B3976"/>
</linearGradient>
<linearGradient id="paint28_linear_150_3665" x1="61.8012" y1="147.282" x2="60.8187" y2="149.87" gradientUnits="userSpaceOnUse">
<stop stop-color="#FFC444"/>
<stop offset="1" stop-color="#F36F56"/>
</linearGradient>
<linearGradient id="paint29_linear_150_3665" x1="139.635" y1="59.1098" x2="214.088" y2="59.1098" gradientUnits="userSpaceOnUse">
<stop stop-color="#444B8C"/>
<stop offset="1" stop-color="#26264F"/>
</linearGradient>
<linearGradient id="paint30_linear_150_3665" x1="199.227" y1="19.9845" x2="160.477" y2="105.491" gradientUnits="userSpaceOnUse">
<stop stop-color="#AA80F9"/>
<stop offset="1" stop-color="#6165D7"/>
</linearGradient>
<linearGradient id="paint31_linear_150_3665" x1="158.26" y1="95.699" x2="178.45" y2="63.6264" gradientUnits="userSpaceOnUse">
<stop stop-color="#AA80F9"/>
<stop offset="1" stop-color="#6165D7"/>
</linearGradient>
<linearGradient id="paint32_linear_150_3665" x1="167.183" y1="48.4888" x2="197.288" y2="112.408" gradientUnits="userSpaceOnUse">
<stop stop-color="#AA80F9"/>
<stop offset="1" stop-color="#6165D7"/>
</linearGradient>
</defs>
</svg>
