<svg width="334" height="335" viewBox="0 0 334 335" fill="none" xmlns="http://www.w3.org/2000/svg">
<path d="M315.088 229.163C284.174 302.993 201.826 344.353 130.414 333.197C118.794 331.382 86.9371 325.974 58.7316 300.461C4.43422 251.348 -7.17735 154.096 36.6215 85.56C68.5001 35.6785 125.646 7.40207 179.944 8.81625C191.641 9.12134 236.464 10.9985 275.858 43.9446C281.643 48.7841 294.405 60.283 305.906 78.5262C332.914 121.364 335.234 181.046 315.087 229.163H315.088Z" fill="url(#paint0_linear_367_184)"/>
<path d="M1.83472 215.387C7.1127 192.866 24.3733 175.187 46.3457 169.781C61.452 166.063 75.9455 168.058 88.1961 174.082C92.2594 176.08 97.0873 173.818 98.2135 169.345C109.042 126.321 147.155 94.5371 192.512 94.5371C246.296 94.5371 289.895 139.226 289.895 194.354C289.895 195.817 289.867 197.816 289.841 199.734C290.032 203.857 291.787 205.608 294.41 206.047C315.482 208.295 332.043 226.1 332.962 248.062C334.017 273.279 313.993 294.171 289.369 294.171H61.5944C22.6032 294.171 -7.92656 257.035 1.83472 215.387Z" fill="url(#paint1_linear_367_184)"/>
<path opacity="0.21" d="M19.4759 223.827C24.189 203.719 39.5992 187.933 59.2187 183.107C72.7069 179.788 85.6469 181.569 96.5847 186.947C100.212 188.731 104.523 186.712 105.529 182.718C115.198 144.303 149.227 115.924 189.725 115.924C237.746 115.924 276.675 155.826 276.675 205.047C276.675 206.353 276.649 208.139 276.627 209.851C276.797 213.531 278.365 215.095 280.706 215.487C299.52 217.495 314.307 233.393 315.128 253.001C316.07 275.517 298.192 294.17 276.205 294.17H72.8326C38.0182 294.17 10.7594 261.014 19.4747 223.827H19.4759Z" fill="#91B3FA"/>
<path d="M45.922 321.147C45.922 322.992 47.4336 324.502 49.2815 324.502H230.958C232.806 324.502 234.317 322.992 234.317 321.147L235.829 216.777C235.829 214.932 233.654 211.328 229.668 211.6L52.1132 207.007C49.7949 206.947 47.5533 207.838 45.9112 209.475C44.2692 211.11 43.3716 213.348 43.4254 215.663L45.9208 321.147H45.922Z" fill="url(#paint2_linear_367_184)"/>
<path d="M49.2384 317.928C49.2384 319.676 50.6686 321.106 52.4172 321.106H226.576C228.325 321.106 229.755 319.676 229.755 317.928L231.182 223.181C231.014 217.478 226.014 215.43 222.982 215.551L52.8133 210.987C51.1844 210.942 49.6094 211.57 48.4557 212.72C47.302 213.87 46.6676 215.444 46.7083 217.073L49.2396 317.928H49.2384Z" fill="#7D97F4"/>
<path d="M227.872 272.915H227.868C227.608 272.911 227.402 272.7 227.407 272.442L227.519 264.759C227.523 264.504 227.731 264.301 227.985 264.301H227.99C228.249 264.304 228.455 264.516 228.45 264.773L228.338 272.457C228.334 272.712 228.126 272.915 227.872 272.915Z" fill="white"/>
<path d="M228.149 254.085H228.142C227.884 254.082 227.678 253.87 227.683 253.613L228.115 224.183C228.107 222.435 227.577 221.039 226.538 220.045C224.599 218.188 221.52 218.282 221.39 218.288L167.001 216.83C166.744 216.824 166.541 216.609 166.547 216.352C166.554 216.095 166.752 215.876 167.026 215.9L221.383 217.359C221.722 217.338 225 217.282 227.183 219.373C228.411 220.55 229.038 222.171 229.048 224.189L228.616 253.628C228.612 253.883 228.404 254.087 228.15 254.087L228.149 254.085Z" fill="white"/>
<path d="M31.8593 333.166H244.696C245.07 333.166 245.372 332.863 245.372 332.49V324.671C245.372 324.298 245.07 323.995 244.696 323.995H31.8593C31.4859 323.995 31.1832 324.298 31.1832 324.671V332.49C31.1832 332.863 31.4859 333.166 31.8593 333.166Z" fill="url(#paint3_linear_367_184)"/>
<path d="M124.796 316.483H57.7406C55.268 316.483 53.2645 314.479 53.2645 312.008V224.509C53.2645 221.97 55.3745 219.94 57.913 220.037L124.968 222.602C127.373 222.694 129.273 224.669 129.273 227.074V312.008C129.273 314.48 127.269 316.483 124.797 316.483H124.796Z" fill="#91B3FA"/>
<path opacity="0.51" d="M111.46 254.361H67.0423C66.69 254.361 66.4044 254.647 66.4044 254.999V259.624C66.4044 259.977 66.69 260.262 67.0423 260.262H111.46C111.812 260.262 112.098 259.977 112.098 259.624V254.999C112.098 254.647 111.812 254.361 111.46 254.361Z" fill="white"/>
<path opacity="0.51" d="M111.55 263.785H67.1321C66.7798 263.785 66.4942 264.071 66.4942 264.423V269.048C66.4942 269.4 66.7798 269.686 67.1321 269.686H111.55C111.902 269.686 112.188 269.4 112.188 269.048V264.423C112.188 264.071 111.902 263.785 111.55 263.785Z" fill="white"/>
<path opacity="0.51" d="M111.817 273.406H67.399C67.0467 273.406 66.7611 273.692 66.7611 274.044V278.669C66.7611 279.022 67.0467 279.307 67.399 279.307H111.817C112.169 279.307 112.455 279.022 112.455 278.669V274.044C112.455 273.692 112.169 273.406 111.817 273.406Z" fill="white"/>
<path opacity="0.51" d="M111.908 282.83H67.4899C67.1376 282.83 66.852 283.116 66.852 283.468V288.093C66.852 288.445 67.1376 288.731 67.4899 288.731H111.908C112.26 288.731 112.545 288.445 112.545 288.093V283.468C112.545 283.116 112.26 282.83 111.908 282.83Z" fill="white"/>
<path opacity="0.51" d="M208.869 254.355H144.452C144.099 254.355 143.814 254.641 143.814 254.993V259.619C143.814 259.971 144.099 260.256 144.452 260.256H208.869C209.222 260.256 209.507 259.971 209.507 259.619V254.993C209.507 254.641 209.222 254.355 208.869 254.355Z" fill="white"/>
<path opacity="0.51" d="M209.073 263.785H144.655C144.303 263.785 144.017 264.071 144.017 264.423V269.048C144.017 269.4 144.303 269.686 144.655 269.686H209.073C209.425 269.686 209.711 269.4 209.711 269.048V264.423C209.711 264.071 209.425 263.785 209.073 263.785Z" fill="white"/>
<path opacity="0.51" d="M182.306 273.406H144.655C144.303 273.406 144.017 273.692 144.017 274.044V278.669C144.017 279.022 144.303 279.307 144.655 279.307H182.306C182.658 279.307 182.944 279.022 182.944 278.669V274.044C182.944 273.692 182.658 273.406 182.306 273.406Z" fill="white"/>
<g opacity="0.51">
<path d="M178.688 232.362H177.687C177.191 232.362 176.787 231.959 176.787 231.462V228.043C176.787 226.819 175.795 225.827 174.571 225.827H168.37C167.146 225.827 166.154 226.819 166.154 228.043V231.462C166.154 231.959 165.75 232.362 165.253 232.362H164.253C163.756 232.362 163.353 231.959 163.353 231.462V228.043C163.353 225.273 165.599 223.027 168.37 223.027H174.571C177.341 223.027 179.588 225.273 179.588 228.043V231.462C179.588 231.959 179.184 232.362 178.688 232.362Z" fill="white"/>
<path d="M179.928 233.168H163.012C161.975 233.168 161.135 234.008 161.135 235.044V248.022C161.135 249.058 161.975 249.898 163.012 249.898H179.928C180.964 249.898 181.804 249.058 181.804 248.022V235.044C181.804 234.008 180.964 233.168 179.928 233.168ZM173.89 245.711C173.995 246.148 173.664 246.569 173.214 246.569H169.726C169.276 246.569 168.944 246.149 169.05 245.711L169.864 242.324C168.903 241.75 168.274 240.677 168.339 239.462C168.421 237.889 169.697 236.602 171.27 236.504C173.093 236.39 174.605 237.834 174.605 239.632C174.605 240.776 173.991 241.777 173.076 242.324L173.89 245.711Z" fill="white"/>
</g>
<path d="M227.926 80.8561C227.86 80.8561 227.793 80.8406 227.731 80.8059C227.536 80.6982 227.467 80.4529 227.574 80.2579C227.834 79.7913 228.085 79.3223 228.33 78.8485C228.431 78.6511 228.674 78.5745 228.873 78.675C229.07 78.7767 229.148 79.0196 229.046 79.2182C228.799 79.698 228.544 80.1753 228.28 80.6479C228.207 80.7807 228.07 80.8549 227.927 80.8549L227.926 80.8561Z" fill="#91B3FA"/>
<path d="M180.793 108.589C180.555 108.589 180.318 108.588 180.08 108.584C179.857 108.58 179.68 108.399 179.682 108.176C179.686 107.956 179.865 107.779 180.086 107.779H180.092C181.134 107.793 182.186 107.775 183.227 107.729C183.434 107.714 183.638 107.89 183.647 108.113C183.658 108.335 183.486 108.523 183.263 108.533C182.445 108.57 181.614 108.589 180.794 108.589H180.793ZM174.962 108.274C174.948 108.274 174.933 108.274 174.919 108.272C173.867 108.158 172.805 108.012 171.767 107.837C171.548 107.8 171.399 107.592 171.436 107.373C171.473 107.154 171.682 107.005 171.901 107.043C172.925 107.215 173.97 107.359 175.008 107.471C175.229 107.495 175.389 107.694 175.365 107.915C175.343 108.122 175.168 108.274 174.966 108.274H174.962ZM188.355 108.059C188.157 108.059 187.985 107.913 187.956 107.712C187.925 107.492 188.078 107.288 188.298 107.257C189.33 107.112 190.37 106.934 191.39 106.728C191.606 106.685 191.821 106.826 191.865 107.044C191.908 107.262 191.767 107.475 191.549 107.519C190.514 107.727 189.458 107.908 188.411 108.055C188.392 108.058 188.372 108.059 188.355 108.059ZM166.817 106.757C166.782 106.757 166.747 106.752 166.712 106.743C165.692 106.47 164.666 106.164 163.663 105.832C163.451 105.763 163.337 105.534 163.407 105.324C163.476 105.113 163.704 104.998 163.915 105.068C164.903 105.394 165.913 105.696 166.919 105.965C167.135 106.022 167.262 106.243 167.204 106.458C167.156 106.639 166.994 106.757 166.815 106.757H166.817ZM196.447 106.275C196.274 106.275 196.115 106.162 196.062 105.989C195.997 105.776 196.118 105.551 196.331 105.486C197.329 105.184 198.33 104.849 199.305 104.49C199.514 104.413 199.746 104.52 199.822 104.729C199.899 104.938 199.793 105.169 199.583 105.246C198.593 105.611 197.578 105.951 196.565 106.258C196.525 106.27 196.487 106.275 196.447 106.275ZM158.999 104.01C158.945 104.01 158.89 103.999 158.837 103.975C157.869 103.548 156.902 103.088 155.965 102.607C155.767 102.505 155.69 102.262 155.79 102.065C155.892 101.867 156.134 101.789 156.332 101.89C157.256 102.364 158.208 102.817 159.162 103.238C159.365 103.328 159.457 103.566 159.367 103.77C159.3 103.92 159.153 104.01 158.999 104.01ZM204.169 103.267C204.02 103.267 203.875 103.183 203.805 103.039C203.709 102.839 203.794 102.597 203.993 102.501C204.93 102.05 205.868 101.565 206.778 101.057C206.973 100.95 207.218 101.019 207.327 101.214C207.434 101.408 207.365 101.654 207.17 101.762C206.246 102.276 205.294 102.769 204.343 103.228C204.287 103.255 204.227 103.267 204.168 103.267H204.169ZM151.701 100.093C151.626 100.093 151.551 100.073 151.484 100.03C150.595 99.4588 149.71 98.8546 148.857 98.2337C148.677 98.1033 148.638 97.8508 148.768 97.6713C148.9 97.4919 149.151 97.4524 149.331 97.5828C150.171 98.1942 151.041 98.7888 151.918 99.3511C152.105 99.4708 152.16 99.7208 152.041 99.9075C151.964 100.027 151.834 100.093 151.701 100.093ZM211.335 99.1023C211.207 99.1023 211.081 99.0413 211.003 98.9288C210.876 98.7457 210.923 98.4945 211.106 98.3689C211.963 97.7778 212.815 97.1533 213.636 96.5132C213.812 96.3768 214.065 96.4079 214.202 96.5838C214.339 96.7597 214.308 97.0121 214.132 97.1497C213.297 97.7994 212.435 98.4323 211.564 99.0329C211.494 99.0807 211.415 99.1047 211.336 99.1047L211.335 99.1023ZM145.095 95.0978C145 95.0978 144.905 95.0643 144.829 94.9973C144.04 94.2998 143.259 93.5676 142.508 92.8198C142.35 92.6631 142.35 92.4083 142.507 92.2503C142.663 92.0924 142.918 92.0924 143.076 92.2491C143.816 92.9849 144.586 93.7064 145.363 94.3943C145.53 94.5415 145.545 94.7963 145.398 94.9626C145.318 95.0524 145.208 95.0978 145.097 95.0978H145.095ZM217.781 93.8882C217.674 93.8882 217.567 93.8452 217.488 93.7614C217.334 93.5999 217.343 93.3451 217.504 93.1919C218.263 92.4764 219.009 91.7311 219.722 90.9761C219.875 90.8146 220.13 90.8074 220.292 90.9594C220.453 91.1125 220.46 91.3674 220.308 91.5289C219.584 92.2958 218.827 93.0519 218.057 93.7782C217.979 93.8511 217.88 93.8882 217.781 93.8882ZM139.326 89.1504C139.209 89.1504 139.096 89.1013 139.016 89.0056C138.341 88.1956 137.679 87.3533 137.05 86.5027C136.919 86.3232 136.956 86.072 137.135 85.9392C137.316 85.8076 137.567 85.8458 137.699 86.0241C138.318 86.8628 138.97 87.6919 139.636 88.4911C139.778 88.6622 139.755 88.9159 139.584 89.0583C139.509 89.1205 139.418 89.1516 139.327 89.1516L139.326 89.1504ZM223.358 87.7625C223.272 87.7625 223.184 87.735 223.111 87.6776C222.935 87.5412 222.904 87.2875 223.041 87.1129C223.682 86.2885 224.306 85.4379 224.893 84.5836C225.02 84.4006 225.272 84.3539 225.454 84.4795C225.637 84.6063 225.683 84.8564 225.558 85.0395C224.96 85.9069 224.329 86.7707 223.676 87.607C223.597 87.7087 223.478 87.7625 223.358 87.7625ZM134.525 82.3977C134.389 82.3977 134.255 82.3283 134.179 82.2027C133.633 81.2934 133.109 80.3602 132.621 79.427C132.518 79.2296 132.595 78.9867 132.792 78.8838C132.988 78.7809 133.233 78.8575 133.335 79.0549C133.815 79.9738 134.331 80.8926 134.87 81.7887C134.985 81.979 134.922 82.2266 134.732 82.3415C134.668 82.381 134.596 82.3989 134.525 82.3989V82.3977ZM130.821 74.9871C130.662 74.9871 130.511 74.8925 130.448 74.7358C130.049 73.7547 129.676 72.7509 129.338 71.7531C129.267 71.5425 129.38 71.314 129.591 71.2422C129.8 71.1704 130.03 71.2841 130.102 71.4947C130.434 72.4769 130.802 73.4652 131.196 74.4319C131.279 74.6377 131.18 74.8734 130.974 74.9571C130.925 74.9775 130.874 74.9871 130.822 74.9871H130.821Z" fill="#91B3FA"/>
<path d="M128.298 67.0748C128.115 67.0748 127.95 66.9492 127.907 66.7637C127.783 66.2361 127.667 65.7085 127.56 65.1785C127.515 64.9607 127.657 64.7477 127.874 64.7035C128.092 64.6592 128.305 64.7992 128.349 65.0181C128.456 65.5398 128.57 66.0602 128.692 66.5795C128.742 66.796 128.608 67.0126 128.391 67.064C128.36 67.0712 128.329 67.0748 128.299 67.0748H128.298Z" fill="#91B3FA"/>
<path d="M135.129 26.0007C135.056 26.0007 134.982 25.9804 134.915 25.9385C134.727 25.8201 134.671 25.5712 134.79 25.3834C135.077 24.9275 135.372 24.4741 135.674 24.0242C135.799 23.84 136.049 23.7897 136.233 23.9141C136.418 24.0386 136.466 24.2886 136.343 24.4729C136.045 24.9167 135.754 25.363 135.471 25.8129C135.394 25.9349 135.264 26.0007 135.129 26.0007Z" fill="#91B3FA"/>
<path d="M232.511 39.4937C232.337 39.4937 232.176 39.38 232.125 39.2041C231.817 38.1549 231.472 37.1008 231.1 36.0719C231.025 35.8625 231.132 35.6316 231.342 35.5562C231.55 35.4796 231.782 35.5885 231.858 35.7979C232.236 36.8424 232.585 37.912 232.899 38.978C232.961 39.1922 232.839 39.4159 232.626 39.4781C232.588 39.4889 232.551 39.4937 232.512 39.4937H232.511ZM229.389 31.3639C229.238 31.3639 229.094 31.2802 229.025 31.1354C228.55 30.1472 228.039 29.1637 227.505 28.2101C227.396 28.0163 227.465 27.7711 227.661 27.6622C227.854 27.5545 228.101 27.6227 228.209 27.8177C228.75 28.7844 229.269 29.7835 229.751 30.7873C229.848 30.9883 229.763 31.2287 229.563 31.3245C229.507 31.352 229.447 31.3639 229.389 31.3639ZM224.988 23.8468C224.861 23.8468 224.735 23.787 224.658 23.6745C224.031 22.7796 223.368 21.8906 222.685 21.034C222.547 20.8593 222.575 20.6068 222.75 20.4681C222.925 20.3293 223.177 20.358 223.316 20.5327C224.009 21.4037 224.683 22.3046 225.318 23.2139C225.446 23.3957 225.402 23.647 225.219 23.775C225.148 23.824 225.068 23.848 224.988 23.848V23.8468ZM139.242 20.3317C139.151 20.3317 139.06 20.3018 138.984 20.2383C138.813 20.096 138.789 19.8423 138.932 19.6712C139.639 18.8206 140.384 17.9759 141.147 17.1635C141.299 17.0008 141.554 16.9936 141.717 17.1456C141.878 17.2987 141.887 17.5536 141.735 17.7151C140.983 18.5155 140.248 19.347 139.552 20.1857C139.472 20.2814 139.358 20.3317 139.242 20.3317ZM219.436 17.136C219.331 17.136 219.225 17.0953 219.146 17.014C218.388 16.2315 217.592 15.4598 216.78 14.7216C216.616 14.5721 216.604 14.3172 216.754 14.1521C216.903 13.987 217.16 13.975 217.324 14.1258C218.147 14.876 218.955 15.6596 219.724 16.4528C219.88 16.612 219.875 16.868 219.716 17.0223C219.638 17.0977 219.537 17.136 219.436 17.136ZM145.325 14.0983C145.213 14.0983 145.101 14.0516 145.022 13.9607C144.876 13.7932 144.893 13.5383 145.061 13.3924C145.9 12.6602 146.77 11.9459 147.648 11.2675C147.825 11.1323 148.078 11.1646 148.213 11.3405C148.348 11.5164 148.316 11.77 148.14 11.9052C147.275 12.5728 146.417 13.2763 145.591 13.9978C145.514 14.0648 145.42 14.0971 145.325 14.0971V14.0983ZM212.888 11.3967C212.804 11.3967 212.721 11.3704 212.648 11.3178C211.769 10.6657 210.86 10.0328 209.943 9.43579C209.756 9.31495 209.703 9.0649 209.825 8.87826C209.946 8.69161 210.195 8.63897 210.383 8.76101C211.313 9.3664 212.237 10.0089 213.129 10.6717C213.307 10.8045 213.344 11.057 213.211 11.2352C213.132 11.3417 213.01 11.3979 212.887 11.3979L212.888 11.3967ZM152.327 8.91176C152.193 8.91176 152.061 8.84476 151.984 8.72152C151.867 8.53249 151.924 8.28483 152.114 8.16638C153.055 7.58013 154.03 7.01422 155.009 6.4854C155.205 6.37892 155.449 6.4531 155.554 6.64811C155.66 6.84433 155.587 7.0884 155.392 7.19369C154.427 7.71413 153.467 8.27167 152.538 8.84834C152.473 8.89022 152.398 8.90936 152.325 8.90936L152.327 8.91176ZM205.499 6.79049C205.437 6.79049 205.373 6.77613 205.315 6.74622C204.343 6.24492 203.342 5.76874 202.341 5.32726C202.137 5.23752 202.044 5.00063 202.134 4.79604C202.222 4.59265 202.46 4.49933 202.665 4.58906C203.682 5.03533 204.698 5.51988 205.684 6.02836C205.882 6.13006 205.96 6.37294 205.858 6.57035C205.786 6.70913 205.645 6.7881 205.499 6.7881V6.79049ZM160.074 4.92286C159.916 4.92286 159.766 4.82954 159.701 4.6752C159.616 4.46942 159.713 4.23372 159.919 4.14877C160.943 3.72404 161.996 3.32324 163.049 2.96072C163.261 2.88894 163.489 3.0002 163.561 3.20958C163.633 3.42015 163.522 3.64986 163.312 3.72165C162.275 4.07938 161.238 4.47301 160.229 4.89176C160.179 4.9121 160.126 4.92286 160.075 4.92286H160.074ZM197.46 3.44049C197.419 3.44049 197.377 3.43451 197.335 3.42135C196.295 3.08395 195.23 2.77527 194.17 2.50249C193.954 2.44745 193.824 2.22731 193.88 2.01195C193.935 1.7966 194.159 1.66738 194.371 1.72242C195.447 1.99999 196.529 2.31345 197.584 2.65563C197.796 2.72383 197.912 2.95115 197.843 3.16292C197.788 3.33281 197.63 3.44169 197.46 3.44169V3.44049ZM168.363 2.24406C168.18 2.24406 168.015 2.11844 167.971 1.93419C167.921 1.71763 168.055 1.50108 168.272 1.44963C169.355 1.19479 170.46 0.969864 171.552 0.783221C171.776 0.747328 171.98 0.893292 172.018 1.11224C172.056 1.33119 171.908 1.53936 171.689 1.57765C170.612 1.7619 169.525 1.98324 168.457 2.23449C168.426 2.24167 168.395 2.24526 168.364 2.24526L168.363 2.24406ZM188.985 1.43169C188.965 1.43169 188.945 1.43049 188.924 1.4269C187.842 1.2606 186.741 1.1266 185.651 1.02729C185.429 1.00695 185.266 0.810739 185.286 0.5894C185.306 0.36806 185.498 0.20415 185.724 0.224489C186.83 0.324989 187.948 0.461382 189.045 0.630078C189.265 0.663578 189.416 0.869364 189.383 1.08951C189.353 1.28931 189.18 1.43169 188.985 1.43169ZM176.976 0.93756C176.767 0.93756 176.59 0.774846 176.575 0.563078C176.56 0.340542 176.727 0.147917 176.949 0.13356C178.056 0.0557924 179.18 0.0115246 180.293 0.00195312H180.296C180.518 0.00195312 180.697 0.180221 180.7 0.40156C180.702 0.624096 180.523 0.805953 180.3 0.808346C179.204 0.817917 178.095 0.860989 177.006 0.93756C176.997 0.93756 176.987 0.93756 176.978 0.93756H176.976Z" fill="#91B3FA"/>
<path d="M234.043 46.3521C233.848 46.3521 233.677 46.2097 233.646 46.0111C233.564 45.4847 233.475 44.9606 233.375 44.4354C233.335 44.2165 233.478 44.0059 233.697 43.9652C233.915 43.9269 234.127 44.0693 234.168 44.287C234.267 44.8195 234.358 45.3519 234.442 45.8855C234.476 46.1056 234.326 46.3114 234.105 46.3461C234.084 46.3497 234.064 46.3509 234.043 46.3509V46.3521Z" fill="#91B3FA"/>
<path d="M222.174 53.091C222.196 52.8158 222.04 52.5574 221.787 52.4473L214.564 49.3103C214.006 45.6768 212.864 42.1054 211.124 38.7446L215.109 31.9609C215.249 31.7228 215.223 31.4225 215.044 31.2131L208.904 24.037C208.724 23.8276 208.431 23.7546 208.175 23.8551L200.854 26.7409C197.802 24.5024 194.45 22.8214 190.946 21.7075L188.965 14.0886C188.895 13.8218 188.665 13.628 188.389 13.6065L178.971 12.8731C178.696 12.8515 178.438 13.0071 178.328 13.2607L175.189 20.4812C171.555 21.0387 167.982 22.1801 164.62 23.9197L157.834 19.9344C157.596 19.7944 157.296 19.8207 157.086 20.0002L149.908 26.1391C149.698 26.3185 149.625 26.6117 149.727 26.8677L152.614 34.1863C150.375 37.2371 148.693 40.5871 147.579 44.0915L139.956 46.0716C139.689 46.141 139.495 46.3719 139.474 46.6471L138.74 56.0618C138.719 56.3369 138.874 56.5954 139.128 56.7054L146.351 59.8425C146.909 63.476 148.05 67.0474 149.791 70.4081L145.804 77.1919C145.664 77.43 145.69 77.7303 145.87 77.9396L152.011 85.1158C152.19 85.3252 152.483 85.3982 152.74 85.2965L160.06 82.4107C163.112 84.6492 166.465 86.3302 169.969 87.4441L171.95 95.0629C172.019 95.3297 172.25 95.5236 172.525 95.5451L181.943 96.2785C182.218 96.3 182.477 96.1445 182.587 95.8909L185.725 88.6704C189.36 88.1129 192.932 86.9715 196.294 85.2319L203.08 89.2172C203.318 89.3572 203.619 89.3308 203.828 89.1514L211.007 83.0125C211.216 82.833 211.289 82.5411 211.189 82.2839L208.302 74.9653C210.541 71.9144 212.222 68.5632 213.337 65.0601L220.958 63.08C221.225 63.0106 221.419 62.7797 221.441 62.5045L222.174 53.0898V53.091Z" fill="#91B3FA"/>
<path opacity="0.7" d="M180.439 63.5674C178.594 63.5674 176.799 63.0003 175.264 61.9139C171.216 59.0509 170.254 53.4301 173.118 49.3837C174.505 47.424 176.573 46.1211 178.94 45.7167C181.308 45.3123 183.692 45.8531 185.651 47.2397C187.611 48.6276 188.915 50.6938 189.319 53.0604C189.725 55.4269 189.184 57.8102 187.796 59.7699C186.408 61.7297 184.34 63.0326 181.973 63.437C181.461 63.5243 180.946 63.5674 180.436 63.5674H180.439ZM180.475 46.7935C180.033 46.7935 179.589 46.8318 179.145 46.9071C177.096 47.2577 175.306 48.3847 174.105 50.0813C171.625 53.5832 172.458 58.4491 175.961 60.9269C177.659 62.1281 179.721 62.5947 181.771 62.2454C183.82 61.8948 185.609 60.7678 186.811 59.0712C188.012 57.3747 188.48 55.312 188.13 53.2638C187.779 51.2155 186.65 49.4256 184.954 48.2256C183.625 47.2852 182.071 46.7935 180.475 46.7935Z" fill="white"/>
<path opacity="0.7" d="M180.294 77.9694C179.678 77.9694 179.06 77.9455 178.439 77.8976C172.208 77.413 166.539 74.5308 162.477 69.7822C158.818 65.5074 156.858 60.1809 156.858 54.6163C156.858 54.0001 156.882 53.3816 156.93 52.7618C157.416 46.5332 160.297 40.8657 165.048 36.8051C169.797 32.7444 175.843 30.7751 182.075 31.2596C188.305 31.7442 193.975 34.6264 198.037 39.375C199.121 40.642 200.07 42.0239 200.858 43.4787L199.795 44.053C199.049 42.6723 198.148 41.3623 197.119 40.1598C193.266 35.6577 187.89 32.9238 181.981 32.4644C176.073 32.0086 170.338 33.8726 165.834 37.7227C161.33 41.574 158.597 46.9484 158.136 52.8551C158.091 53.4438 158.068 54.03 158.068 54.6139C158.068 59.8913 159.928 64.9427 163.397 68.9974C167.25 73.4995 172.626 76.2322 178.535 76.6928C184.448 77.1534 190.178 75.2858 194.682 71.4345C197.739 68.8203 200.026 65.4344 201.296 61.6417L202.442 62.0258C201.103 66.0254 198.691 69.5968 195.467 72.3533C191.191 76.0096 185.863 77.9706 180.295 77.9706L180.294 77.9694Z" fill="white"/>
<path d="M273.374 94.0785C273.305 94.0785 273.234 94.0606 273.17 94.0223C272.978 93.9086 272.915 93.6622 273.028 93.4707C273.299 93.0137 273.559 92.5471 273.798 92.0829C273.9 91.8855 274.143 91.8089 274.341 91.9094C274.539 92.0111 274.617 92.254 274.515 92.4526C274.268 92.9299 274.001 93.4109 273.723 93.8811C273.647 94.0079 273.513 94.0785 273.376 94.0785H273.374Z" fill="#91B3FA"/>
<path d="M247.37 107.559C247.359 107.559 247.348 107.559 247.337 107.559C246.245 107.473 245.146 107.322 244.075 107.11C243.857 107.067 243.715 106.855 243.758 106.637C243.801 106.419 244.014 106.276 244.231 106.319C245.273 106.525 246.339 106.672 247.401 106.756C247.622 106.774 247.789 106.968 247.771 107.189C247.754 107.401 247.578 107.56 247.37 107.56V107.559ZM252.639 107.474C252.437 107.474 252.262 107.322 252.24 107.116C252.215 106.895 252.374 106.696 252.595 106.671C253.655 106.553 254.717 106.371 255.749 106.13C255.964 106.078 256.182 106.214 256.232 106.432C256.283 106.649 256.148 106.865 255.931 106.915C254.868 107.163 253.775 107.35 252.684 107.473C252.668 107.474 252.654 107.475 252.638 107.475L252.639 107.474ZM239.101 105.609C239.051 105.609 238.999 105.599 238.949 105.579C237.936 105.167 236.936 104.691 235.976 104.162C235.781 104.055 235.71 103.809 235.818 103.616C235.926 103.421 236.17 103.35 236.365 103.458C237.297 103.971 238.269 104.434 239.253 104.834C239.459 104.917 239.558 105.153 239.474 105.359C239.411 105.515 239.26 105.61 239.101 105.61V105.609ZM260.838 105.247C260.683 105.247 260.536 105.159 260.469 105.009C260.378 104.806 260.469 104.568 260.672 104.477C261.644 104.043 262.599 103.546 263.513 103.002C263.703 102.887 263.951 102.95 264.065 103.141C264.179 103.332 264.117 103.578 263.927 103.693C262.987 104.254 262.002 104.765 261.003 105.213C260.949 105.237 260.894 105.247 260.839 105.247H260.838ZM231.822 101.238C231.731 101.238 231.639 101.207 231.565 101.145C230.727 100.446 229.919 99.6877 229.164 98.8909C229.011 98.7293 229.018 98.4745 229.178 98.3214C229.34 98.1682 229.596 98.1754 229.748 98.3357C230.481 99.1098 231.267 99.8456 232.08 100.525C232.252 100.668 232.274 100.921 232.132 101.092C232.053 101.188 231.938 101.237 231.822 101.237V101.238ZM267.968 100.63C267.858 100.63 267.747 100.585 267.668 100.496C267.519 100.33 267.534 100.075 267.7 99.9282L267.937 99.714C268.646 99.0679 269.328 98.3776 269.963 97.6645C270.111 97.497 270.365 97.4827 270.532 97.631C270.698 97.7794 270.714 98.033 270.565 98.1993C269.912 98.9339 269.211 99.6446 268.481 100.31L268.238 100.529C268.161 100.597 268.065 100.63 267.969 100.63H267.968ZM226.204 94.8685C226.071 94.8685 225.941 94.8027 225.864 94.683C225.274 93.7618 224.732 92.7951 224.253 91.8092C224.156 91.6094 224.24 91.3677 224.44 91.2708C224.641 91.1739 224.882 91.2576 224.978 91.4574C225.443 92.4146 225.969 93.3538 226.543 94.2487C226.662 94.4354 226.609 94.6854 226.421 94.8051C226.354 94.8481 226.278 94.8685 226.204 94.8685Z" fill="#91B3FA"/>
<path d="M222.777 87.0805C222.599 87.0805 222.436 86.9609 222.389 86.7802C222.25 86.2562 222.124 85.7214 222.016 85.1902C221.972 84.9724 222.112 84.7595 222.331 84.7152C222.549 84.6709 222.762 84.8109 222.806 85.0299C222.912 85.5455 223.034 86.066 223.168 86.5744C223.225 86.7898 223.097 87.0099 222.882 87.0674C222.847 87.0769 222.812 87.0805 222.779 87.0805H222.777Z" fill="#91B3FA"/>
<path d="M226.096 65.2206C226.023 65.2206 225.949 65.2002 225.882 65.1584C225.694 65.0399 225.638 64.7911 225.756 64.6032C226.046 64.1438 226.352 63.688 226.667 63.2465C226.796 63.0658 227.049 63.0239 227.228 63.1532C227.41 63.2824 227.451 63.5336 227.322 63.7143C227.015 64.1426 226.717 64.5865 226.436 65.0327C226.36 65.1548 226.229 65.2206 226.095 65.2206H226.096Z" fill="#91B3FA"/>
<path d="M275.04 69.1368C274.884 69.1368 274.735 69.0447 274.669 68.8915C274.261 67.9296 273.791 66.9808 273.273 66.0715C273.162 65.8789 273.229 65.6324 273.423 65.5224C273.616 65.4123 273.863 65.4793 273.973 65.6731C274.506 66.6087 274.99 67.5862 275.411 68.5768C275.499 68.7814 275.403 69.0183 275.197 69.1057C275.146 69.1272 275.093 69.138 275.039 69.138L275.04 69.1368ZM270.644 62.03C270.531 62.03 270.417 61.9821 270.338 61.8888C270.132 61.6471 269.921 61.409 269.706 61.1722C269.214 60.6338 268.696 60.1085 268.163 59.6108C268.001 59.4589 267.992 59.204 268.144 59.0413C268.296 58.8786 268.551 58.8702 268.714 59.0222C269.261 59.5342 269.795 60.0738 270.301 60.629C270.522 60.8718 270.74 61.1171 270.951 61.366C271.094 61.5359 271.074 61.7895 270.905 61.9343C270.83 61.9989 270.737 62.03 270.644 62.03ZM230.393 59.9638C230.286 59.9638 230.18 59.9219 230.101 59.8393C229.948 59.6778 229.954 59.423 230.114 59.2698C230.277 59.1143 230.442 58.96 230.609 58.808C231.239 58.2337 231.902 57.6822 232.579 57.1677C232.757 57.0325 233.009 57.0672 233.143 57.2443C233.278 57.4213 233.244 57.6738 233.067 57.8078C232.408 58.3079 231.764 58.8439 231.153 59.4014C230.99 59.5498 230.83 59.7005 230.671 59.8513C230.593 59.9255 230.492 59.9626 230.393 59.9626V59.9638ZM264.336 56.548C264.263 56.548 264.188 56.5276 264.12 56.4857C263.236 55.927 262.31 55.4137 261.368 54.9615C261.167 54.8646 261.083 54.6253 261.179 54.4243C261.274 54.2233 261.514 54.1383 261.716 54.2353C262.685 54.7007 263.639 55.2283 264.55 55.8038C264.738 55.9234 264.794 56.1711 264.676 56.3601C264.599 56.481 264.469 56.548 264.335 56.548H264.336ZM237.229 55.1565C237.081 55.1565 236.938 55.0752 236.868 54.9328C236.768 54.733 236.85 54.4913 237.05 54.3932C238.013 53.9146 239.016 53.4875 240.031 53.1214C240.241 53.0472 240.471 53.1549 240.547 53.3643C240.622 53.5736 240.513 53.8045 240.304 53.8799C239.316 54.2353 238.342 54.6504 237.407 55.1146C237.35 55.1433 237.289 55.1565 237.228 55.1565H237.229ZM256.679 53.2063C256.644 53.2063 256.609 53.2015 256.575 53.1932C255.564 52.9252 254.527 52.7122 253.49 52.5615C253.27 52.5292 253.117 52.3246 253.149 52.1056C253.182 51.8855 253.384 51.7275 253.605 51.7646C254.672 51.9202 255.739 52.1379 256.78 52.4143C256.996 52.4717 257.124 52.6919 257.066 52.9072C257.019 53.0879 256.856 53.2063 256.677 53.2063H256.679ZM245.19 52.6165C244.995 52.6165 244.824 52.4753 244.793 52.2767C244.758 52.0566 244.908 51.8508 245.128 51.8161C246.19 51.6486 247.274 51.5397 248.354 51.4942C248.576 51.4895 248.764 51.657 248.772 51.8795C248.782 52.102 248.61 52.2899 248.387 52.2982C247.339 52.3425 246.285 52.4478 245.254 52.6105C245.232 52.6141 245.211 52.6153 245.19 52.6153V52.6165Z" fill="#91B3FA"/>
<path d="M276.906 75.6739C276.711 75.6739 276.54 75.5315 276.509 75.3329C276.427 74.8125 276.33 74.2872 276.219 73.7728C276.172 73.555 276.31 73.3408 276.528 73.2942C276.749 73.2475 276.96 73.3863 277.007 73.6029C277.12 74.1329 277.221 74.6737 277.305 75.2085C277.339 75.4286 277.189 75.6344 276.968 75.6691C276.947 75.6727 276.926 75.6739 276.906 75.6739Z" fill="#91B3FA"/>
<path d="M270.81 78.9409C270.82 78.7998 270.741 78.667 270.611 78.6107L266.901 76.9991C266.615 75.1327 266.028 73.2974 265.134 71.5721L267.182 68.0869C267.254 67.9649 267.241 67.8106 267.148 67.7029L263.995 64.0167C263.903 63.909 263.752 63.8719 263.62 63.9234L259.86 65.4057C258.292 64.256 256.571 63.3922 254.77 62.8203L253.752 58.9068C253.717 58.7692 253.598 58.6699 253.457 58.6591L248.619 58.2822C248.478 58.2714 248.345 58.3516 248.289 58.4808L246.677 62.1897C244.81 62.4757 242.975 63.0631 241.248 63.9557L237.762 61.9086C237.64 61.8368 237.485 61.85 237.378 61.9421L233.69 65.0959C233.582 65.188 233.545 65.3388 233.597 65.4704L235.08 69.2295C233.929 70.7969 233.065 72.5173 232.493 74.3179L228.578 75.3349C228.441 75.3708 228.342 75.4893 228.331 75.6304L227.954 80.4664C227.943 80.6076 228.023 80.7404 228.152 80.7966L231.863 82.4082C232.149 84.2746 232.736 86.1099 233.629 87.8352L231.581 91.3204C231.51 91.4424 231.523 91.5968 231.615 91.7044L234.77 95.3906C234.862 95.4983 235.013 95.5354 235.144 95.484L238.905 94.0016C240.473 95.1514 242.195 96.0152 243.995 96.5871L245.012 100.501C245.048 100.638 245.166 100.737 245.308 100.748L250.145 101.125C250.286 101.136 250.419 101.056 250.476 100.927L252.088 97.2176C253.955 96.9304 255.791 96.3442 257.516 95.4517L261.003 97.4987C261.125 97.5705 261.279 97.5574 261.387 97.4652L265.074 94.3127C265.182 94.2205 265.219 94.0698 265.168 93.9382L263.685 90.179C264.835 88.6117 265.699 86.89 266.271 85.0906L270.186 84.0736C270.324 84.0377 270.423 83.9193 270.434 83.7781L270.811 78.9421L270.81 78.9409Z" fill="#91B3FA"/>
<path opacity="0.7" d="M249.37 84.6159C248.362 84.6159 247.381 84.3061 246.542 83.7126C244.33 82.1477 243.804 79.0765 245.369 76.8667C246.127 75.7959 247.257 75.084 248.55 74.8627C249.844 74.6413 251.146 74.9368 252.217 75.6942C253.288 76.4527 254 77.5809 254.222 78.8743C254.443 80.1676 254.147 81.4693 253.39 82.5401C252.631 83.6109 251.502 84.3228 250.209 84.5442C249.929 84.592 249.649 84.6159 249.37 84.6159ZM249.385 76.0017C248.223 76.0017 247.078 76.546 246.356 77.5642C245.176 79.2308 245.572 81.5471 247.239 82.7256C248.047 83.2975 249.031 83.52 250.004 83.3525C250.979 83.1862 251.832 82.649 252.402 81.8426C252.974 81.035 253.197 80.0528 253.03 79.0789C252.863 78.1038 252.326 77.2519 251.519 76.6812C250.87 76.2218 250.124 76.0017 249.384 76.0017H249.385Z" fill="white"/>
<path opacity="0.7" d="M249.298 92.0145C248.974 92.0145 248.648 92.0013 248.321 91.9762C245.042 91.7214 242.06 90.2043 239.921 87.7062C237.939 85.3911 236.969 82.546 236.971 79.7128C236.971 76.2372 238.431 72.7819 241.274 70.3508C246.433 65.9383 254.222 66.5449 258.634 71.7027C258.669 71.7434 258.704 71.7841 258.737 71.8248C259.216 72.399 259.642 73.0152 260.006 73.6601C260.007 73.6625 260.009 73.6649 260.011 73.6673C260.017 73.6768 260.021 73.6864 260.026 73.696C260.036 73.7127 260.045 73.7295 260.055 73.7462C260.06 73.7558 260.066 73.7654 260.07 73.7737C260.086 73.8025 260.103 73.8324 260.118 73.8611L259.056 74.4354C258.682 73.745 258.232 73.0894 257.716 72.4864C254.898 69.1938 250.555 67.9591 246.607 68.9294C244.98 69.3302 243.419 70.1055 242.059 71.2672C239.496 73.4603 238.179 76.5758 238.178 79.7104C238.178 82.2648 239.053 84.8311 240.839 86.9189C244.818 91.5694 251.842 92.1174 256.496 88.1381C258.025 86.8304 259.169 85.135 259.805 83.2375L260.951 83.6215C260.246 85.7273 258.978 87.6057 257.281 89.0557C255.031 90.9796 252.226 92.0121 249.297 92.0121L249.298 92.0145Z" fill="white"/>
<path d="M170.837 135.228C171.83 134.299 173.173 133.836 174.529 133.958C189.031 135.262 216.088 128.278 233.773 110.191C235.001 108.935 237.239 109.645 238.646 110.696C258.314 125.39 290.914 128.433 302.23 129.055C304.571 129.184 306.47 130.999 306.712 133.331C317.003 232.699 252.284 268.707 238.862 275.063C237.394 275.759 235.667 275.657 234.289 274.799C167.39 233.142 170.251 178.969 169.326 138.829C169.295 137.468 169.843 136.158 170.837 135.228Z" fill="url(#paint4_linear_367_184)"/>
<path opacity="0.61" d="M237.052 267.846C236.753 267.846 236.455 267.762 236.194 267.596C210.546 251.206 193.83 231.612 185.091 207.693C177.285 186.331 176.903 164.578 176.566 145.388L176.52 142.828C176.512 142.401 176.674 141.999 176.972 141.694C177.273 141.388 177.678 141.218 178.11 141.218C193.993 141.218 217.833 134.207 235.319 118.545C235.855 118.064 236.65 118.006 237.253 118.405C256.466 131.148 283.87 134.859 298.497 135.937C299.275 135.994 299.889 136.601 299.958 137.38C303.358 176.153 295.291 208.938 275.981 234.828C261.559 254.163 244.458 264.237 237.775 267.672C237.549 267.788 237.301 267.846 237.053 267.846H237.052ZM237.476 267.093C244.118 263.68 261.118 253.666 275.458 234.439C294.669 208.681 302.694 176.045 299.308 137.437C299.268 136.979 298.906 136.621 298.449 136.587C283.759 135.504 256.229 131.773 236.893 118.948C236.539 118.712 236.069 118.747 235.753 119.03C218.14 134.808 194.117 141.87 178.123 141.87C177.852 141.87 177.613 141.969 177.436 142.151C177.26 142.33 177.167 142.566 177.171 142.816L177.217 145.376C177.553 164.516 177.934 186.211 185.702 207.47C194.391 231.249 211.022 250.737 236.545 267.046C236.825 267.225 237.181 267.243 237.476 267.092V267.093Z" fill="white"/>
<path opacity="0.61" d="M260.437 172.738H257.411C255.909 172.738 254.691 171.522 254.691 170.019V159.682C254.691 155.981 251.69 152.982 247.989 152.982H229.243C225.541 152.982 222.541 155.981 222.541 159.682V170.019C222.541 171.521 221.323 172.738 219.82 172.738H216.795C215.293 172.738 214.074 171.522 214.074 170.019V159.682C214.074 151.308 220.865 144.52 229.242 144.52H247.987C256.364 144.52 263.155 151.308 263.155 159.682V170.019C263.155 171.521 261.936 172.738 260.434 172.738H260.437Z" fill="white"/>
<path opacity="0.61" d="M264.186 175.178H213.047C209.914 175.178 207.373 177.718 207.373 180.85V220.084C207.373 223.217 209.914 225.757 213.047 225.757H264.186C267.32 225.757 269.86 223.217 269.86 220.084V180.85C269.86 177.718 267.32 175.178 264.186 175.178ZM245.934 213.099C246.251 214.421 245.249 215.691 243.889 215.691H233.344C231.985 215.691 230.983 214.421 231.3 213.099L233.761 202.86C230.856 201.123 228.957 197.879 229.152 194.207C229.403 189.451 233.258 185.559 238.012 185.264C243.521 184.921 248.096 189.287 248.096 194.721C248.096 198.18 246.241 201.205 243.473 202.86L245.934 213.1V213.099Z" fill="white"/>
<path d="M42.5925 162.354C42.5925 162.354 46.7347 162.572 47.2421 171.091C47.2421 171.091 37.6376 179.698 24.6641 181.746C23.6899 181.901 26.0261 175.1 26.3767 174.179C28.0475 169.797 33.3087 166.973 42.5925 162.354Z" fill="url(#paint5_linear_367_184)"/>
<path d="M89.2386 152.337H80.4982C80.4982 152.337 53.6714 122.72 36.077 119.732C36.077 119.732 23.8299 135.361 36.7292 164.563C37.7669 166.911 40.6692 167.956 42.8342 166.573C43.4817 166.159 43.9473 165.605 44.2285 164.911L43.1909 139.977C43.1909 139.977 66.0741 159.984 70.0511 163.845C74.0282 167.706 94.2461 165.352 89.2374 152.336L89.2386 152.337Z" fill="#7D97F4"/>
<path d="M4.7382 214.52C8.40047 211.311 14.2362 207.711 22.6618 206.68L25.5114 208.422C25.5114 208.422 23.6947 211.1 20.3759 213.93C17.3252 215.701 12.6157 218.1 8.71045 218.62C4.91413 219.126 4.35402 216.833 4.73939 214.52H4.7382Z" fill="url(#paint6_linear_367_184)"/>
<path d="M26.3779 174.179C28.6339 174.909 29.6273 178.104 35.3529 175.991C40.8918 173.947 45.01 171.31 47.1284 169.789C47.1751 170.201 47.2158 170.631 47.2433 171.091C47.2433 171.091 37.117 180.72 24.1435 182.768C23.1693 182.922 22.3973 181.95 22.7492 181.028C23.3787 179.376 24.5145 176.868 26.3791 174.178L26.3779 174.179Z" fill="#91B3FA"/>
<path d="M1.97833 217.259C2.70001 216.439 3.62156 215.497 4.737 214.52C4.35162 216.832 4.91054 219.126 8.70805 218.62C12.6133 218.099 17.324 215.7 20.3735 213.93C16.5508 217.189 10.7331 220.649 3.39058 220.445C1.75931 220.4 0.899992 218.483 1.97713 217.259H1.97833Z" fill="#91B3FA"/>
<path d="M88.919 158.659L47.9889 159.101C47.9889 159.101 24.615 178.433 20.3747 207.912C20.3747 207.912 19.6709 210.08 23.8957 210.451C23.8957 210.451 38.0278 201.224 47.2421 184.911C58.5401 164.909 80.9242 173.912 80.9242 173.912C91.6777 176.284 100.237 175.401 106.5 165.765L88.9178 158.656L88.919 158.659Z" fill="#7D97F4"/>
<path d="M87.952 125.697C87.952 125.697 83.5453 147.773 61.957 156.505L54.277 155.601L52.465 158.489L70.4784 159.063C70.4784 159.063 85.8767 152.966 94.0342 136.354C94.3035 135.805 98.7964 126.532 87.9508 125.698L87.952 125.697Z" fill="url(#paint7_linear_367_184)"/>
<path d="M85.5907 158.298C85.5907 158.298 90.6018 144.682 91.6777 131.452C91.6777 131.452 88.0118 128.303 85.7211 126.944C84.9791 126.504 84.699 125.573 85.0736 124.797C86.7588 121.308 96.9449 107.611 97.7085 107.42C101.857 106.385 118.867 98.2993 130.847 114.682C135.989 121.712 129.828 143.354 106.502 165.768C98.9963 166.99 91.9781 164.828 85.5919 158.298H85.5907Z" fill="url(#paint8_linear_367_184)"/>
<path d="M104.898 134.436C104.898 134.436 90.9764 150.914 73.1784 153.322C73.1784 153.322 68.579 149.13 65.1585 150.627C61.738 152.124 57.0477 158.73 57.0477 158.73H79.901C79.901 158.73 101.51 157.969 112.307 144.871C111.438 140.287 108.837 137.55 104.898 134.437V134.436Z" fill="url(#paint9_linear_367_184)"/>
<path d="M113.019 95.8625L116.065 106.018C116.205 106.483 116.033 106.987 115.632 107.262C114.166 108.266 110.333 110.263 105.075 108.322C104.474 108.101 104.061 107.538 104.01 106.9L103.288 98.052L113.021 95.8613L113.019 95.8625Z" fill="url(#paint10_linear_367_184)"/>
<path d="M95.1832 87.6389C95.1832 87.6389 96.6804 98.1663 100.726 101.404C104.771 104.641 112.653 102.203 115.315 94.2672L110.011 80.6973L95.1832 87.6389Z" fill="url(#paint11_linear_367_184)"/>
<path d="M110.609 89.4781C110.301 89.5774 109.979 89.38 109.932 89.0606C109.786 88.0891 109.421 86.1652 108.683 84.8551C108.683 84.8551 109.07 83.4745 105.191 85.561C101.313 87.6476 95.4884 90.7129 92.0595 88.8871C88.7168 87.108 85.3298 78.1527 94.1659 79.811C94.5022 79.8744 94.811 79.6064 94.7858 79.2654C94.6769 77.7938 94.8229 74.4079 98.253 73.3204C101.463 72.3034 103.22 73.7523 103.944 74.6257C104.157 74.8829 104.552 74.8781 104.755 74.6125C105.716 73.3575 108.328 70.687 112.172 72.38C115.339 73.775 115.831 75.7252 115.778 76.9396C115.761 77.3332 116.161 77.6 116.519 77.4349C117.488 76.9886 119.049 76.7565 120.543 78.6277C122.608 81.2156 119.657 83.4589 118.771 84.0475C118.627 84.1445 118.536 84.3036 118.534 84.4783C118.526 85.8242 118.317 91.6927 115.374 95.0044C115.119 95.2916 114.648 95.2066 114.5 94.8537L112.234 89.4566C112.129 89.2065 111.85 89.0773 111.59 89.1611L110.607 89.4781H110.609Z" fill="url(#paint12_linear_367_184)"/>
<path d="M110.561 90.574C110.561 90.574 111.945 84.9412 114.046 86.7693C116.148 88.5975 113.498 92.6235 111.091 93.3916L110.561 90.574Z" fill="url(#paint13_linear_367_184)"/>
<path d="M58.199 160.009L47.9387 125.801C47.5198 124.406 46.2799 123.415 44.8257 123.316L30.9725 122.368C29.5639 122.272 28.5166 123.647 28.9846 124.979L40.4549 157.647C40.8248 158.7 41.7691 159.443 42.8797 159.555L56.5223 161.07L58.2002 160.01L58.199 160.009Z" fill="url(#paint14_linear_367_184)"/>
<path d="M39.2749 137.396C40.0408 138.942 41.3645 139.847 42.2298 139.419C43.0951 138.991 43.1765 137.39 42.4106 135.844C41.6446 134.298 40.3221 133.393 39.4556 133.821C38.5903 134.249 38.5089 135.85 39.2749 137.396Z" fill="#91B3FA"/>
<path d="M56.5211 161.07C56.5438 161.07 56.5654 161.07 56.5881 161.067L85.6565 159.598C86.3746 159.562 86.9287 158.951 86.8916 158.232C86.8557 157.513 86.2405 156.948 85.5248 156.997L56.4564 158.466C55.7383 158.502 55.1854 159.115 55.2213 159.833C55.256 160.529 55.8317 161.07 56.5211 161.07Z" fill="url(#paint15_linear_367_184)"/>
<path d="M91.6777 131.653C91.5664 131.653 91.4766 131.563 91.4766 131.452C91.4563 125.317 93.8176 117.199 93.8416 117.117C93.8727 117.011 93.984 116.95 94.0917 116.981C94.1982 117.012 94.2592 117.124 94.2281 117.231C94.2042 117.311 91.8596 125.375 91.88 131.45C91.88 131.562 91.7902 131.653 91.6789 131.653H91.6777Z" fill="url(#paint16_linear_367_184)"/>
<path d="M104.898 134.638C104.855 134.638 104.81 134.623 104.773 134.594C104.686 134.525 104.672 134.399 104.74 134.312C104.803 134.232 111.121 126.202 113.284 120.724C113.325 120.621 113.441 120.568 113.545 120.611C113.648 120.651 113.699 120.769 113.659 120.871C111.474 126.405 105.119 134.481 105.056 134.561C105.016 134.611 104.956 134.638 104.898 134.638Z" fill="url(#paint17_linear_367_184)"/>
<path d="M113.855 146.983L112.706 145.358C112.641 145.268 112.663 145.142 112.754 145.077C112.845 145.013 112.97 145.034 113.035 145.125L113.996 146.484C122.961 142.555 128.512 131.833 128.567 131.725C128.618 131.626 128.738 131.586 128.838 131.638C128.937 131.688 128.977 131.81 128.925 131.909C128.869 132.019 123.194 142.987 114.004 146.921L113.855 146.986V146.983Z" fill="url(#paint18_linear_367_184)"/>
<defs>
<linearGradient id="paint0_linear_367_184" x1="356.897" y1="338.041" x2="116.263" y2="127.417" gradientUnits="userSpaceOnUse">
<stop stop-color="#DAE3FE"/>
<stop offset="1" stop-color="#E9EFFD"/>
</linearGradient>
<linearGradient id="paint1_linear_367_184" x1="26.7932" y1="23.8964" x2="284.38" y2="423.732" gradientUnits="userSpaceOnUse">
<stop stop-color="#4F52FF"/>
<stop offset="1" stop-color="#4042E2"/>
</linearGradient>
<linearGradient id="paint2_linear_367_184" x1="156.714" y1="316.479" x2="113.831" y2="187.788" gradientUnits="userSpaceOnUse">
<stop stop-color="#09005D"/>
<stop offset="1" stop-color="#1A0F91"/>
</linearGradient>
<linearGradient id="paint3_linear_367_184" x1="56.8801" y1="308.788" x2="247.926" y2="355.274" gradientUnits="userSpaceOnUse">
<stop stop-color="#09005D"/>
<stop offset="1" stop-color="#1A0F91"/>
</linearGradient>
<linearGradient id="paint4_linear_367_184" x1="383.573" y1="34.354" x2="327.991" y2="88.7463" gradientUnits="userSpaceOnUse">
<stop stop-color="#FF928E"/>
<stop offset="1" stop-color="#FE7062"/>
</linearGradient>
<linearGradient id="paint5_linear_367_184" x1="38.4072" y1="170.451" x2="23.3982" y2="186.133" gradientUnits="userSpaceOnUse">
<stop stop-color="#09005D"/>
<stop offset="1" stop-color="#1A0F91"/>
</linearGradient>
<linearGradient id="paint6_linear_367_184" x1="18.4897" y1="209.799" x2="-9.90558" y2="230.646" gradientUnits="userSpaceOnUse">
<stop stop-color="#09005D"/>
<stop offset="1" stop-color="#1A0F91"/>
</linearGradient>
<linearGradient id="paint7_linear_367_184" x1="64.3758" y1="132.785" x2="83.6492" y2="155.714" gradientUnits="userSpaceOnUse">
<stop stop-color="#FEBBBA"/>
<stop offset="1" stop-color="#FF928E"/>
</linearGradient>
<linearGradient id="paint8_linear_367_184" x1="159.981" y1="76.3664" x2="101.981" y2="136.804" gradientUnits="userSpaceOnUse">
<stop stop-color="#FF928E"/>
<stop offset="1" stop-color="#FE7062"/>
</linearGradient>
<linearGradient id="paint9_linear_367_184" x1="86.8581" y1="153.642" x2="48.3334" y2="100.921" gradientUnits="userSpaceOnUse">
<stop stop-color="#FEBBBA"/>
<stop offset="1" stop-color="#FF928E"/>
</linearGradient>
<linearGradient id="paint10_linear_367_184" x1="110.435" y1="109.961" x2="109.017" y2="97.1881" gradientUnits="userSpaceOnUse">
<stop stop-color="#FEBBBA"/>
<stop offset="1" stop-color="#FF928E"/>
</linearGradient>
<linearGradient id="paint11_linear_367_184" x1="102.863" y1="98.8208" x2="109.118" y2="78.1884" gradientUnits="userSpaceOnUse">
<stop stop-color="#FEBBBA"/>
<stop offset="1" stop-color="#FF928E"/>
</linearGradient>
<linearGradient id="paint12_linear_367_184" x1="108.51" y1="60.9373" x2="102.696" y2="94.109" gradientUnits="userSpaceOnUse">
<stop stop-color="#09005D"/>
<stop offset="1" stop-color="#1A0F91"/>
</linearGradient>
<linearGradient id="paint13_linear_367_184" x1="109.345" y1="100.784" x2="115.598" y2="80.152" gradientUnits="userSpaceOnUse">
<stop stop-color="#FEBBBA"/>
<stop offset="1" stop-color="#FF928E"/>
</linearGradient>
<linearGradient id="paint14_linear_367_184" x1="58.199" y1="141.717" x2="28.8709" y2="141.717" gradientUnits="userSpaceOnUse">
<stop stop-color="#09005D"/>
<stop offset="1" stop-color="#1A0F91"/>
</linearGradient>
<linearGradient id="paint15_linear_367_184" x1="54.6397" y1="154.534" x2="78.0891" y2="160.962" gradientUnits="userSpaceOnUse">
<stop stop-color="#09005D"/>
<stop offset="1" stop-color="#1A0F91"/>
</linearGradient>
<linearGradient id="paint16_linear_367_184" x1="98.0496" y1="43.8886" x2="88.9908" y2="183.449" gradientUnits="userSpaceOnUse">
<stop stop-color="#E1473D"/>
<stop offset="1" stop-color="#E9605A"/>
</linearGradient>
<linearGradient id="paint17_linear_367_184" x1="114.554" y1="44.9617" x2="105.495" y2="184.521" gradientUnits="userSpaceOnUse">
<stop stop-color="#E1473D"/>
<stop offset="1" stop-color="#E9605A"/>
</linearGradient>
<linearGradient id="paint18_linear_367_184" x1="126.833" y1="45.7582" x2="117.774" y2="185.318" gradientUnits="userSpaceOnUse">
<stop stop-color="#E1473D"/>
<stop offset="1" stop-color="#E9605A"/>
</linearGradient>
</defs>
</svg>
